<svg width="12" height="18" viewBox="0 0 12 18" fill="none" xmlns="http://www.w3.org/2000/svg">
<path id="Path Copy 10" d="M0.421162 0.338323C0.676497 0.121712 1.02297 0 1.38427 0C1.74557 0 2.09205 0.121712 2.34739 0.338323L11.6008 8.17387C11.8564 8.39024 12 8.68385 12 8.99001C12 9.29618 11.8564 9.58978 11.6008 9.80616L2.34739 17.6417C2.00636 17.9453 1.49782 18.0683 1.01906 17.9629C0.540302 17.8575 0.166681 17.5404 0.0431614 17.1345C-0.0803595 16.7286 0.0656595 16.2979 0.424565 16.0094L8.71482 8.99001L0.424565 1.97061C0.168494 1.75462 0.0242529 1.46123 0.0236149 1.15506C0.0229759 0.848899 0.165994 0.555077 0.421162 0.338323Z" fill="#65AF7C"/>
</svg>
