<svg width="60" height="60" viewBox="0 0 60 60" fill="none" xmlns="http://www.w3.org/2000/svg">
<g id="Group 991">
<g id="Group 990">
<path id="Vector 11" d="M34 14C33.6 13.2 31.8333 13 31 13V17.5L34.5 15.5C34.5 15.3333 34.4 14.8 34 14Z" fill="#65AF7C"/>
<g id="Group 869">
<ellipse id="Ellipse 143" cx="31" cy="55" rx="22" ry="1" fill="#65AF7C"/>
<g id="Group 868">
<path id="Vector" d="M27.4021 5.82639C27.4021 5.34201 27.5945 4.87745 27.937 4.53494C28.2796 4.19243 28.7442 4 29.2285 4C29.7129 4 30.1775 4.19243 30.52 4.53494C30.8625 4.87745 31.0549 5.34201 31.0549 5.82639V22.9016C31.0549 22.9016 34.5844 24.8729 35.5266 26.5906C36.4688 28.3082 36.7152 29.62 35.7295 32.6785C34.7439 35.7369 35.4469 36.6863 36.9616 37.027L43.6873 38.6505C44.5157 38.8531 45.2301 39.3755 45.6742 40.1036C46.1183 40.8316 46.2561 41.7058 46.0573 42.5351L44.0932 50.7176C44.0248 51.0114 44.0735 51.3203 44.2291 51.5788C44.3847 51.8372 44.6349 52.0249 44.9266 52.1019C46.079 52.399 47.7097 53.0513 47.7097 54.2761H41.8103C41.591 54.2763 41.3743 54.2292 41.1747 54.1382C40.9752 54.0473 40.7975 53.9145 40.6538 53.7488C40.5102 53.5831 40.4039 53.3885 40.3421 53.1781C40.2802 52.9677 40.2643 52.7465 40.2955 52.5295L41.6797 43.2019L33.8886 43.0787C33.8886 43.0787 28.511 43.6078 28.6777 38.1939C28.8444 32.78 28.3081 26.7065 28.3081 26.7065" stroke="#204740" stroke-linecap="round" stroke-linejoin="round"/>
<path id="Vector_2" d="M27.4018 24.0249V10.1822C27.3751 9.52287 27.1824 8.88097 26.8416 8.31593C26.5008 7.7509 26.0229 7.28098 25.4522 6.94977" stroke="#204740" stroke-linecap="round" stroke-linejoin="round"/>
<path id="Vector_3" d="M32.4679 36.4617L28.7065 36.0268L13.1968 48.0939C12.8777 48.345 12.645 48.6897 12.5319 49.0797C12.4188 49.4697 12.4309 49.8854 12.5662 50.2682L13.7259 53.5296C13.8073 53.7646 13.9599 53.9684 14.1626 54.1126C14.3652 54.2568 14.6077 54.3342 14.8564 54.3341H16.8422L16.1174 50.1885C16.1174 50.1885 23.9667 44.9413 30.9315 42.5786" stroke="#204740" stroke-linecap="round" stroke-linejoin="round"/>
<path id="Vector_4" d="M34.8454 15.2409C34.8454 15.2409 33.8887 16.6034 31.0549 17.4152" stroke="#204740" stroke-linecap="round" stroke-linejoin="round"/>
<g id="Vector_5">
<path d="M27.4021 12.3564C26.9972 12.297 26.5843 12.3764 26.2303 12.5817C25.8762 12.787 25.6021 13.1061 25.4526 13.487C24.7278 14.9365 24.8582 16.1759 25.5612 16.6614C26.1288 17.0067 26.7515 17.2519 27.4021 17.3862" fill="#65AF7C"/>
<path d="M27.4021 12.3564C26.9972 12.297 26.5843 12.3764 26.2303 12.5817C25.8762 12.787 25.6021 13.1061 25.4526 13.487C24.7278 14.9365 24.8582 16.1759 25.5612 16.6614C26.1288 17.0067 26.7515 17.2519 27.4021 17.3862" stroke="#204740" stroke-linecap="round" stroke-linejoin="round"/>
</g>
<path id="Vector_6" d="M31.0549 13.3059C31.3537 13.1824 31.6738 13.1184 31.9971 13.1174C33.9612 13.1174 35.5484 15.4729 35.5484 18.3719C35.5484 21.2709 34.0988 23.4451 32.2289 23.6191" stroke="#204740" stroke-linecap="round" stroke-linejoin="round"/>
<path id="Vector_7" d="M47.4482 22.0464L48.8977 18.2052C49.1225 18.2469 49.326 18.3648 49.4738 18.5391C49.6217 18.7134 49.705 18.9334 49.7095 19.1619" stroke="#204740" stroke-linecap="round" stroke-linejoin="round"/>
<path id="Vector_8" d="M46.6151 22.6262C47.1074 22.6262 47.5065 22.227 47.5065 21.7347C47.5065 21.2424 47.1074 20.8433 46.6151 20.8433C46.1227 20.8433 45.7236 21.2424 45.7236 21.7347C45.7236 22.227 46.1227 22.6262 46.6151 22.6262Z" fill="#65AF7C" stroke="#204740" stroke-linecap="round" stroke-linejoin="round"/>
<path id="Vector_9" d="M13.5228 34.889L12.3487 30.9608C12.5533 30.8586 12.7871 30.8302 13.0102 30.8804C13.2334 30.9306 13.4323 31.0563 13.5735 31.2362" stroke="#204740" stroke-linecap="round" stroke-linejoin="round"/>
<path id="Vector_10" d="M12.6678 36.0341C13.1601 36.0341 13.5593 35.6349 13.5593 35.1426C13.5593 34.6503 13.1601 34.2512 12.6678 34.2512C12.1755 34.2512 11.7764 34.6503 11.7764 35.1426C11.7764 35.6349 12.1755 36.0341 12.6678 36.0341Z" stroke="#204740" stroke-linecap="round" stroke-linejoin="round"/>
<path id="Vector_11" d="M12.6028 16.1758L10.7402 11.5447L14.5669 10.0154L16.4223 14.6394" stroke="#204740" stroke-linecap="round" stroke-linejoin="round"/>
<path id="Vector_12" d="M11.5949 17.6688C12.1953 17.6688 12.682 17.1821 12.682 16.5817C12.682 15.9813 12.1953 15.4946 11.5949 15.4946C10.9945 15.4946 10.5078 15.9813 10.5078 16.5817C10.5078 17.1821 10.9945 17.6688 11.5949 17.6688Z" stroke="#204740" stroke-linecap="round" stroke-linejoin="round"/>
<path id="Vector_13" d="M15.4221 16.1323C16.0225 16.1323 16.5092 15.6456 16.5092 15.0452C16.5092 14.4448 16.0225 13.9581 15.4221 13.9581C14.8217 13.9581 14.335 14.4448 14.335 15.0452C14.335 15.6456 14.8217 16.1323 15.4221 16.1323Z" stroke="#204740" stroke-linecap="round" stroke-linejoin="round"/>
<path id="Vector_14" d="M14.5982 10.1689L10.7715 11.7057L11.4683 13.4409L15.2951 11.9041L14.5982 10.1689Z" fill="#65AF7C" stroke="#204740" stroke-linecap="round" stroke-linejoin="round"/>
<path id="Vector_15" d="M21.633 19.517C20.4791 18.8844 19.1574 18.6256 17.8501 18.7761C16.5429 18.9267 15.3145 19.4793 14.3347 20.3577C10.6094 23.4306 7.53648 24.054 6 23.4742" stroke="#204740" stroke-linecap="round" stroke-linejoin="round"/>
<path id="Vector_16" d="M11.5949 6.26126C11.5949 6.26126 13.7692 5.23208 14.8853 5.95683C16.0014 6.68158 17.0597 8.01513 18.6251 8.13109" stroke="#204740" stroke-linecap="round" stroke-linejoin="round"/>
<path id="Vector_17" d="M45.1504 27.1051C45.1504 27.1051 47.3246 29.4171 53.9996 29.1634" stroke="#204740" stroke-linecap="round" stroke-linejoin="round"/>
<path id="Vector_18" d="M38.8379 11.1968C38.8379 11.1968 43.3603 8.48626 46.4333 11.6534C47.3983 12.6352 48.593 13.3608 49.9091 13.7645C51.2252 14.1682 52.6211 14.2372 53.9706 13.9653" stroke="#204740" stroke-linecap="round" stroke-linejoin="round"/>
</g>
</g>
</g>
</g>
</svg>
