<svg width="40" height="40" viewBox="0 0 40 40" fill="none" xmlns="http://www.w3.org/2000/svg">
<g id="Group 753">
<rect id="Rectangle 658" width="40" height="40" rx="8" fill="#65AF7C"/>
<g id="Mask group">
<mask id="mask0_130_232" style="mask-type:alpha" maskUnits="userSpaceOnUse" x="0" y="0" width="40" height="40">
<rect id="Rectangle 656" width="40" height="40" rx="8" fill="#1A342B"/>
</mask>
<g mask="url(#mask0_130_232)">
<g id="Group 749">
<path id="Vector" d="M20.4434 26.4306L23.1254 23.7478C23.5138 23.3595 24.0405 23.1414 24.5897 23.1414C25.1389 23.1414 25.6657 23.3595 26.054 23.7478L32.6725 30.3663C33.2189 30.913 33.5258 31.6542 33.526 32.427V43.7037H20.4434V26.4306Z" fill="white"/>
<path id="Vector_2" d="M19.0834 26.4306L16.4006 23.7478C16.0122 23.3595 15.4855 23.1414 14.9363 23.1414C14.3871 23.1414 13.8604 23.3595 13.472 23.7478L6.8542 30.3663C6.58344 30.6369 6.36864 30.9581 6.22207 31.3117C6.07551 31.6653 6.00004 32.0443 6 32.427V43.7037H19.0834V26.4306Z" fill="white"/>
<path id="Vector_3" d="M23.4756 30.2339C23.3354 30.2339 23.1976 30.2712 23.0766 30.342C22.9555 30.4128 22.8554 30.5145 22.7867 30.6367H20.4426V31.4144H22.7867C22.8551 31.5357 22.9544 31.6367 23.0744 31.7073C23.1944 31.7779 23.3309 31.8156 23.4701 31.8166C23.6094 31.8176 23.7464 31.7818 23.8674 31.7129C23.9884 31.644 24.089 31.5444 24.1592 31.4241C24.2294 31.3039 24.2666 31.1672 24.2671 31.028C24.2676 30.8888 24.2313 30.7518 24.162 30.6311C24.0926 30.5104 23.9926 30.4101 23.8721 30.3403C23.7516 30.2706 23.6148 30.2339 23.4756 30.2339Z" fill="#65AF7C"/>
<path id="Vector_4" d="M19.0824 30.6369H16.6789C16.5929 30.4843 16.4589 30.3646 16.2977 30.2963C16.1365 30.2281 15.9572 30.2151 15.7878 30.2596C15.6185 30.304 15.4686 30.4033 15.3617 30.5419C15.2548 30.6805 15.1968 30.8506 15.1968 31.0257C15.1968 31.2008 15.2548 31.3709 15.3617 31.5095C15.4686 31.6481 15.6185 31.7474 15.7878 31.7918C15.9572 31.8363 16.1365 31.8234 16.2977 31.7551C16.4589 31.6868 16.5929 31.5671 16.6789 31.4146H19.0824V30.6369Z" fill="#65AF7C"/>
<path id="Vector_5" d="M23.4756 33.6855C23.3354 33.6856 23.1976 33.7229 23.0766 33.7937C22.9555 33.8645 22.8554 33.9662 22.7867 34.0884H20.4426V34.8654H22.7867C22.855 34.9868 22.9542 35.0879 23.0742 35.1587C23.1942 35.2294 23.3307 35.2672 23.47 35.2683C23.6093 35.2694 23.7464 35.2336 23.8675 35.1648C23.9885 35.0959 24.0893 34.9963 24.1595 34.876C24.2297 34.7557 24.267 34.619 24.2675 34.4797C24.268 34.3404 24.2317 34.2035 24.1623 34.0827C24.0929 33.9619 23.9929 33.8616 23.8723 33.7919C23.7517 33.7221 23.6149 33.6855 23.4756 33.6855Z" fill="#65AF7C"/>
<path id="Vector_6" d="M19.0827 34.0884H16.6792C16.5934 33.936 16.4594 33.8164 16.2984 33.7482C16.1373 33.68 15.9581 33.6671 15.789 33.7115C15.6198 33.7559 15.47 33.855 15.3632 33.9935C15.2564 34.132 15.1984 34.302 15.1984 34.4769C15.1984 34.6518 15.2564 34.8218 15.3632 34.9603C15.47 35.0988 15.6198 35.198 15.789 35.2424C15.9581 35.2868 16.1373 35.2739 16.2984 35.2057C16.4594 35.1375 16.5934 35.0178 16.6792 34.8654H19.0827V34.0884Z" fill="#65AF7C"/>
<path id="Vector_7" d="M6.36569 13.0148C6.42919 12.558 7.21716 6.14567 14.6687 3.8719C21.2606 1.86033 26.3782 3.35637 29.9377 6.70284C33.0507 9.62869 33.6768 15.5978 31.7253 18.3277C29.7739 21.0576 27.0624 21.8319 23.0905 21.9398C19.1186 22.0477 13.4383 22.1228 13.4383 22.1228C13.4383 22.1228 5.04445 22.5653 6.36569 13.0148Z" fill="white"/>
<path id="Vector_8" d="M13.228 19.6414C11.6295 19.5602 7.65214 18.9047 7.51763 15.2502C7.38311 11.5958 9.35781 7.20194 14.5506 6.24941C19.7434 5.29689 25.3609 5.66423 28.116 9.21144C30.5783 12.3824 30.0771 17.976 25.2359 19.0091C20.3948 20.0422 16.3355 19.7998 13.228 19.6414Z" fill="#65AF7C"/>
<path id="Vector_9" d="M11.2299 14.4773C11.199 14.4773 11.1682 14.4746 11.1377 14.4691C10.995 14.4448 10.8677 14.3647 10.784 14.2465C10.7002 14.1283 10.6669 13.9817 10.6912 13.8389C10.8024 13.1908 11.1089 12.5922 11.5696 12.123C12.0304 11.6539 12.6234 11.3366 13.2693 11.2137C13.9153 11.0907 14.5834 11.168 15.1843 11.435C15.7851 11.7021 16.2901 12.1463 16.6317 12.7082C16.7068 12.832 16.7297 12.9807 16.6952 13.1214C16.6608 13.2622 16.5719 13.3834 16.448 13.4586C16.3241 13.5337 16.1755 13.5566 16.0347 13.5222C15.894 13.4877 15.7727 13.3988 15.6976 13.2749C15.4719 12.9024 15.1378 12.6078 14.74 12.4305C14.3421 12.2533 13.8996 12.2019 13.4718 12.2832C13.0439 12.3646 12.6511 12.5748 12.3461 12.8857C12.0411 13.1966 11.8384 13.5932 11.7653 14.0226C11.7437 14.1492 11.6783 14.2643 11.5804 14.3474C11.4825 14.4306 11.3584 14.4766 11.2299 14.4773Z" fill="white"/>
<path id="Vector_10" d="M20.3894 13.7979C20.3319 13.7977 20.2748 13.7887 20.22 13.7712C20.1518 13.749 20.0886 13.7136 20.034 13.6669C19.9794 13.6203 19.9346 13.5633 19.9021 13.4994C19.8696 13.4354 19.85 13.3656 19.8444 13.294C19.8389 13.2225 19.8475 13.1505 19.8697 13.0823C20.0738 12.4564 20.4643 11.9079 20.989 11.5103C21.5136 11.1126 22.1472 10.8849 22.805 10.8575C23.4627 10.8302 24.113 11.0046 24.6689 11.3573C25.2247 11.71 25.6594 12.2242 25.9147 12.831C25.9666 12.9637 25.9647 13.1113 25.9092 13.2426C25.8538 13.3738 25.7494 13.4782 25.6181 13.5335C25.4868 13.5888 25.3391 13.5907 25.2065 13.5386C25.0739 13.4866 24.9669 13.3848 24.9082 13.255C24.7392 12.8537 24.4515 12.5136 24.0838 12.2803C23.716 12.047 23.2858 11.9316 22.8507 11.9497C22.4155 11.9677 21.9963 12.1183 21.6492 12.3812C21.302 12.6442 21.0435 13.007 20.9083 13.4209C20.8726 13.5305 20.8032 13.6259 20.71 13.6936C20.6168 13.7613 20.5046 13.7978 20.3894 13.7979Z" fill="white"/>
</g>
</g>
</g>
</g>
</svg>
