<svg width="38" height="38" viewBox="0 0 38 38" fill="none" xmlns="http://www.w3.org/2000/svg">
<g id="Group 1142">
<path id="Vector" d="M19 0C13.9609 0 9.12816 2.00178 5.56497 5.56497C2.00178 9.12816 0 13.9609 0 19C0 24.0391 2.00178 28.8718 5.56497 32.435C9.12816 35.9982 13.9609 38 19 38C24.0391 38 28.8718 35.9982 32.435 32.435C35.9982 28.8718 38 24.0391 38 19C38 13.9609 35.9982 9.12816 32.435 5.56497C28.8718 2.00178 24.0391 0 19 0ZM19 36C14.6697 35.9922 10.5056 34.3322 7.35754 31.3588C4.20946 28.3855 2.31472 24.3228 2.06 20H2.53C2.79522 20 3.04957 19.8946 3.23711 19.7071C3.42464 19.5196 3.53 19.2652 3.53 19C3.53 18.7348 3.42464 18.4804 3.23711 18.2929C3.04957 18.1054 2.79522 18 2.53 18H2.06C2.31472 13.6772 4.20946 9.61454 7.35754 6.64115C10.5056 3.66776 14.6697 2.00779 19 2C23.3303 2.00779 27.4944 3.66776 30.6425 6.64115C33.7905 9.61454 35.6853 13.6772 35.94 18H35.49C35.2248 18 34.9704 18.1054 34.7829 18.2929C34.5954 18.4804 34.49 18.7348 34.49 19C34.49 19.2652 34.5954 19.5196 34.7829 19.7071C34.9704 19.8946 35.2248 20 35.49 20H35.94C35.6804 24.3192 33.7835 28.3769 30.6359 31.3461C27.4884 34.3153 23.327 35.9725 19 35.98V36Z" fill="#1A342B"/>
<path id="Vector_2" d="M20.5098 17.99H17.5098C17.2445 17.99 16.9902 18.0953 16.8027 18.2829C16.6151 18.4704 16.5098 18.7248 16.5098 18.99C16.5098 19.2552 16.6151 19.5096 16.8027 19.6971C16.9902 19.8846 17.2445 19.99 17.5098 19.99H20.5098C20.775 19.99 21.0293 19.8846 21.2169 19.6971C21.4044 19.5096 21.5098 19.2552 21.5098 18.99C21.5098 18.7248 21.4044 18.4704 21.2169 18.2829C21.0293 18.0953 20.775 17.99 20.5098 17.99Z" fill="#1A342B"/>
<path id="Vector_3" d="M30.8095 11.5001C30.8068 10.28 30.3217 9.1105 29.4598 8.24681C28.598 7.38312 27.4296 6.89542 26.2095 6.89014H11.7995C10.5776 6.89278 9.40658 7.37932 8.54261 8.24329C7.67864 9.10726 7.19209 10.2783 7.18945 11.5001C7.1943 12.1537 7.33865 12.7986 7.61286 13.3919C7.88706 13.9851 8.2848 14.513 8.77945 14.9401C8.64092 15.6415 8.57391 16.3552 8.57945 17.0701V17.9901H8.51945C8.25424 17.9901 7.99988 18.0955 7.81235 18.283C7.62481 18.4706 7.51945 18.7249 7.51945 18.9901C7.51945 19.2554 7.62481 19.5097 7.81235 19.6972C7.99988 19.8848 8.25424 19.9901 8.51945 19.9901H8.57945V27.7301C8.57945 28.5947 8.92292 29.4239 9.53429 30.0353C10.1457 30.6467 10.9748 30.9901 11.8395 30.9901H26.1595C27.0241 30.9901 27.8533 30.6467 28.4646 30.0353C29.076 29.4239 29.4195 28.5947 29.4195 27.7301V19.9901H29.4995C29.7647 19.9901 30.019 19.8848 30.2066 19.6972C30.3941 19.5097 30.4995 19.2554 30.4995 18.9901C30.4995 18.7249 30.3941 18.4706 30.2066 18.283C30.019 18.0955 29.7647 17.9901 29.4995 17.9901H29.4195V14.7901C29.8597 14.3628 30.2096 13.8514 30.4484 13.2862C30.6871 12.721 30.8099 12.1137 30.8095 11.5001ZM26.4995 19.9901H27.4195V27.7301C27.4195 28.0643 27.2867 28.3848 27.0504 28.6211C26.8141 28.8574 26.4936 28.9901 26.1595 28.9901H11.8395C11.5053 28.9901 11.1848 28.8574 10.9485 28.6211C10.7122 28.3848 10.5795 28.0643 10.5795 27.7301V19.9901H11.5195C11.7847 19.9901 12.039 19.8848 12.2266 19.6972C12.4141 19.5097 12.5195 19.2554 12.5195 18.9901C12.5195 18.7249 12.4141 18.4706 12.2266 18.283C12.039 18.0955 11.7847 17.9901 11.5195 17.9901H10.5795V17.0701C10.5759 16.6956 10.5993 16.3213 10.6495 15.9501C11.0243 16.0516 11.4111 16.1021 11.7995 16.1001C12.4623 16.1681 13.1315 16.0628 13.7415 15.7946C14.3514 15.5264 14.8814 15.1045 15.2795 14.5701C15.5239 14.2147 15.6796 13.8058 15.7335 13.3778C15.7875 12.9498 15.7381 12.5151 15.5895 12.1101C15.3298 11.519 14.8684 11.0394 14.2876 10.7573C13.7068 10.4752 13.0446 10.4088 12.4195 10.5701C11.8116 10.7173 11.2422 10.9922 10.749 11.3768C10.2558 11.7613 9.85032 12.2465 9.55945 12.8001C9.32279 12.4074 9.19507 11.9587 9.18945 11.5001C9.18945 10.8079 9.46443 10.1441 9.9539 9.65459C10.4434 9.16512 11.1072 8.89014 11.7995 8.89014H26.2095C26.8999 8.89278 27.5612 9.16893 28.0485 9.65811C28.5358 10.1473 28.8095 10.8097 28.8095 11.5001C28.8068 12.1889 28.532 12.8487 28.045 13.3357C27.558 13.8227 26.8982 14.0975 26.2095 14.1001C25.9442 14.1001 25.6899 14.2055 25.5023 14.393C25.3148 14.5806 25.2095 14.8349 25.2095 15.1001C25.2095 15.3654 25.3148 15.6197 25.5023 15.8072C25.6899 15.9948 25.9442 16.1001 26.2095 16.1001C26.6179 16.0981 27.0245 16.0443 27.4195 15.9401V17.9901H26.4995C26.2342 17.9901 25.9799 18.0955 25.7923 18.283C25.6048 18.4706 25.4995 18.7249 25.4995 18.9901C25.4995 19.2554 25.6048 19.5097 25.7923 19.6972C25.9799 19.8848 26.2342 19.9901 26.4995 19.9901ZM11.1795 13.9901C11.3192 13.632 11.5401 13.3112 11.8246 13.0527C12.1091 12.7942 12.4496 12.605 12.8195 12.5001C12.9894 12.4399 13.1752 12.442 13.3438 12.5061C13.5123 12.5702 13.6526 12.6921 13.7395 12.8501C13.7624 12.9498 13.7635 13.0531 13.7428 13.1532C13.7221 13.2533 13.68 13.3478 13.6195 13.4301C13.3864 13.6706 13.1007 13.8536 12.7849 13.9646C12.469 14.0757 12.1317 14.1118 11.7995 14.0701C11.5915 14.0792 11.3832 14.0624 11.1795 14.0201V13.9901Z" fill="#1A342B"/>
</g>
</svg>
