<svg width="38" height="38" viewBox="0 0 38 38" fill="none" xmlns="http://www.w3.org/2000/svg">
<path id="Vector" d="M32.44 5.61C30.6818 3.83296 28.5887 2.42217 26.2817 1.45923C23.9748 0.49629 21.4998 0.000317205 19 0C13.9609 0 9.12816 2.00178 5.56497 5.56497C2.00178 9.12816 0 13.9609 0 19C0.000269314 24.0082 1.98516 28.8122 5.52 32.36V32.41C7.28925 34.1806 9.39091 35.5841 11.7042 36.54C14.0176 37.4959 16.497 37.9853 19 37.98C24.0391 37.98 28.8718 35.9782 32.435 32.415C35.9982 28.8518 38 24.0191 38 18.98C37.9918 13.9626 35.992 9.15372 32.44 5.61ZM19 2C23.1521 2.00589 27.1568 3.54011 30.25 6.31L26.55 10L26.14 9C26.6362 8.49285 27.0662 7.92501 27.42 7.31C27.5504 7.08038 27.5846 6.80852 27.5153 6.55373C27.446 6.29895 27.2787 6.08192 27.05 5.95C26.8216 5.81879 26.5506 5.783 26.296 5.8504C26.0413 5.91781 25.8236 6.08296 25.69 6.31C25.5144 6.60424 25.3172 6.88501 25.1 7.14999C23.83 6.14999 21.28 5.81 19 5.81C15.81 5.81 12.09 6.54 12.09 8.6C12.09 10.66 15.81 11.4 19.02 11.4C20.9032 11.4912 22.7778 11.0915 24.46 10.24L25.24 12.19L26.43 15.19C26.611 15.659 26.7287 16.1499 26.78 16.65C25.4115 16.1041 23.9299 15.9024 22.4653 16.0629C21.0007 16.2233 19.5979 16.7408 18.38 17.57C14.74 19.84 12.04 18.57 11.12 17.92V17.61C11.1211 16.7176 11.33 15.8377 11.73 15.04L13.15 12.21C13.2679 11.9726 13.2867 11.6981 13.2023 11.4469C13.118 11.1956 12.9373 10.9881 12.7 10.87C12.4638 10.7514 12.1903 10.7311 11.9392 10.8135C11.6881 10.896 11.4799 11.0745 11.36 11.31L10 14.13C9.46595 15.2055 9.18544 16.3892 9.18 17.59V27.41L6.3 30.25C3.53063 27.1532 1.99974 23.1444 2 18.99C2.00265 14.4831 3.79489 10.1616 6.98272 6.97565C10.1706 3.78969 14.4931 2 19 2ZM11.14 20.16C12.1468 20.5965 13.2327 20.8211 14.33 20.82C16.1506 20.7902 17.9256 20.2459 19.45 19.25C23.11 16.97 25.91 18.31 26.86 18.91V28.31C26.8574 29.0005 26.5812 29.6618 26.092 30.1491C25.6028 30.6364 24.9405 30.91 24.25 30.91H13.75C13.0595 30.91 12.3972 30.6364 11.908 30.1491C11.4188 29.6618 11.1426 29.0005 11.14 28.31V20.16ZM23.49 8.48C22.101 9.15528 20.5617 9.46177 19.02 9.37C17.417 9.44866 15.8163 9.17561 14.33 8.57C15.8128 7.97766 17.4049 7.70834 19 7.78C20.5276 7.72523 22.0516 7.96282 23.49 8.48ZM19 35.98C14.8348 35.9802 10.8155 34.4458 7.71 31.67L9.45 29.93C9.77831 30.8069 10.3653 31.5633 11.1332 32.0991C11.9011 32.6348 12.8137 32.9246 13.75 32.93H24.25C24.8562 32.93 25.4565 32.8104 26.0165 32.5781C26.5764 32.3458 27.0851 32.0054 27.5133 31.5762C27.9415 31.1471 28.2809 30.6377 28.512 30.0772C28.743 29.5168 28.8613 28.9162 28.86 28.31V17.31C28.8583 16.3305 28.6717 15.3602 28.31 14.45L27.36 12.05L31.66 7.74C34.4408 10.8288 35.9859 14.8339 36 18.99C35.9973 23.4969 34.2051 27.8184 31.0173 31.0043C27.8294 34.1903 23.5069 35.98 19 35.98Z" fill="#1A342B"/>
</svg>
