<svg width="38" height="39" viewBox="0 0 38 39" fill="none" xmlns="http://www.w3.org/2000/svg">
<path id="Vector" d="M38 18.9901C37.9947 13.9751 36.0069 9.16554 32.47 5.61014V5.56014C30.7038 3.78899 28.6039 2.38564 26.2918 1.43128C23.9797 0.476922 21.5013 -0.00950555 19 0.000140706C13.9609 0.000140706 9.12816 2.00192 5.56497 5.56511C2.00178 9.1283 0 13.961 0 19.0001C0.0105678 24.0131 2.00186 28.8188 5.54 32.3701C9.03647 35.8988 13.7827 37.9072 18.75 37.9601C18.829 37.9952 18.9137 38.0155 19 38.0201C19.0894 38.0145 19.1772 37.9942 19.26 37.9601C24.2487 37.8919 29.0104 35.8641 32.5167 32.3148C36.0231 28.7654 37.9926 23.9793 38 18.9901ZM19 1.99014C23.1583 1.99487 27.1697 3.52892 30.27 6.30014L26.27 10.3001V9.61014C26.2695 9.42924 26.22 9.25185 26.1266 9.09688C26.0333 8.94191 25.8997 8.81517 25.74 8.73014C25.5836 8.64985 25.4089 8.6122 25.2333 8.62098C25.0577 8.62975 24.8876 8.68465 24.74 8.78014L22.61 10.1801C22.5686 9.54941 22.4092 8.93205 22.14 8.36014C21.5178 6.93426 20.7218 5.59074 19.77 4.36014C19.676 4.24726 19.5582 4.15648 19.4252 4.09426C19.2921 4.03204 19.1469 3.9999 19 4.00014C18.8531 3.9999 18.7079 4.03204 18.5748 4.09426C18.4418 4.15648 18.324 4.24726 18.23 4.36014C17.2782 5.59074 16.4822 6.93426 15.86 8.36014C15.5921 8.93253 15.4328 9.54963 15.39 10.1801L13.26 8.78014C13.1124 8.68465 12.9423 8.62975 12.7667 8.62098C12.5911 8.6122 12.4164 8.64985 12.26 8.73014C12.1003 8.81517 11.9667 8.94191 11.8734 9.09688C11.78 9.25185 11.7305 9.42924 11.73 9.61014V24.8801L6.32 30.2501C3.54338 27.1563 2.00524 23.1472 2 18.9901C2.00265 14.4832 3.79489 10.1617 6.98272 6.97579C10.1706 3.78984 14.4931 2.00014 19 2.00014V1.99014ZM17.68 9.16014C18.064 8.32095 18.505 7.50905 19 6.73014C19.4935 7.5099 19.9345 8.3217 20.32 9.16014C20.5569 9.56377 20.6674 10.0292 20.6371 10.4962C20.6068 10.9633 20.4371 11.4105 20.15 11.7801L19.62 12.1301C19.3939 12.2788 19.1858 12.4534 19 12.6501C18.9836 12.6459 18.9664 12.6459 18.95 12.6501C18.7788 12.4691 18.5876 12.308 18.38 12.1701L17.85 11.8201C17.5539 11.4489 17.3788 10.9958 17.3484 10.5219C17.318 10.048 17.4337 9.57616 17.68 9.17014V9.16014ZM24.29 19.0101C24.2908 19.6493 24.1322 20.2785 23.8283 20.8408C23.5245 21.4031 23.0851 21.8806 22.55 22.2301L20.25 23.7501L20 23.9401V21.8501C19.9976 21.3509 20.1198 20.859 20.3555 20.419C20.5913 19.979 20.9331 19.6047 21.35 19.3301L23.66 17.8201C23.8785 17.668 24.0888 17.5044 24.29 17.3301V19.0101ZM18 22.7601V23.9501L17.75 23.7601L15.45 22.2401C14.9149 21.8906 14.4755 21.4131 14.1717 20.8508C13.8678 20.2885 13.7092 19.6593 13.71 19.0201V17.3401C13.9112 17.5144 14.1215 17.678 14.34 17.8301L16.65 19.3401C17.0669 19.6147 17.4087 19.989 17.6445 20.429C17.8802 20.869 18.0024 21.3609 18 21.8601V22.7601ZM13.71 25.0101V23.4301C13.9089 23.6043 14.1193 23.7646 14.34 23.9101L16.65 25.4301C17.0655 25.7038 17.4064 26.0764 17.6421 26.5146C17.8778 26.9527 18.0007 27.4426 18 27.9401V29.9401L15.45 28.2601C14.9113 27.9072 14.4697 27.4247 14.1657 26.8569C13.8617 26.2891 13.705 25.6542 13.71 25.0101ZM24.29 12.9301C24.2916 13.5708 24.1333 14.2017 23.8295 14.7657C23.5257 15.3298 23.0859 15.809 22.55 16.1601L20.25 17.6801C20.1627 17.7344 20.0792 17.7945 20 17.8601V15.1401C20.0003 14.8747 20.0661 14.6135 20.1918 14.3797C20.3174 14.146 20.4988 13.9468 20.72 13.8001L24.29 11.4501V12.9301ZM16.65 13.3901L17.28 13.8001C17.5012 13.9468 17.6826 14.146 17.8082 14.3797C17.9339 14.6135 17.9997 14.8747 18 15.1401V17.8601C17.9208 17.7945 17.8373 17.7344 17.75 17.6801L15.45 16.1601C14.9141 15.809 14.4743 15.3298 14.1705 14.7657C13.8667 14.2017 13.7084 13.5708 13.71 12.9301V11.4501L16.65 13.3901ZM12.16 27.2401C12.6053 28.3243 13.3645 29.2506 14.34 29.9001L18 32.3101V35.9301C14.1945 35.7076 10.5757 34.2065 7.73 31.6701L12.16 27.2401ZM20 28.8501V27.9401C19.9993 27.4426 20.1222 26.9527 20.3579 26.5146C20.5936 26.0764 20.9345 25.7038 21.35 25.4301L23.65 23.9101C23.8756 23.7672 24.0896 23.6067 24.29 23.4301V25.0101C24.2899 25.6491 24.1309 26.278 23.8271 26.8401C23.5233 27.4023 23.0845 27.88 22.55 28.2301L20 29.9101V28.8501ZM20 35.9301V32.3101L23.65 29.9001C24.4604 29.3672 25.1257 28.6414 25.5865 27.788C26.0473 26.9345 26.289 25.98 26.29 25.0101V13.1101L31.68 7.72014C34.4581 10.817 35.9963 14.8298 36 18.9901C35.9922 23.3204 34.3322 27.4845 31.3588 30.6326C28.3855 33.7807 24.3228 35.6754 20 35.9301Z" fill="#1A342B"/>
</svg>
