<svg width="38" height="38" viewBox="0 0 38 38" fill="none" xmlns="http://www.w3.org/2000/svg">
<g id="Group 1143">
<path id="Vector" d="M19 0C13.9609 0 9.12816 2.00178 5.56497 5.56497C2.00178 9.12816 0 13.9609 0 19C0 24.0391 2.00178 28.8718 5.56497 32.435C9.12816 35.9982 13.9609 38 19 38C24.0391 38 28.8718 35.9982 32.435 32.435C35.9982 28.8718 38 24.0391 38 19C38 13.9609 35.9982 9.12816 32.435 5.56497C28.8718 2.00178 24.0391 0 19 0ZM19 36C14.4913 36 10.1673 34.2089 6.97918 31.0208C3.79107 27.8327 2 23.5087 2 19C2 14.4913 3.79107 10.1673 6.97918 6.97919C10.1673 3.79107 14.4913 2 19 2C23.5087 2 27.8327 3.79107 31.0208 6.97919C34.2089 10.1673 36 14.4913 36 19C35.9947 23.5052 34.2013 27.8241 31.0138 31.0079C27.8262 34.1917 23.5052 35.98 19 35.98V36Z" fill="#1A342B"/>
<path id="Vector_2" d="M8.39063 16.1401H9.24062V17.0001C9.24062 17.2653 9.34598 17.5196 9.53352 17.7072C9.72105 17.8947 9.97541 18.0001 10.2406 18.0001C10.5058 18.0001 10.7602 17.8947 10.9477 17.7072C11.1353 17.5196 11.2406 17.2653 11.2406 17.0001V16.1401H12.1006C12.3658 16.1401 12.6202 16.0347 12.8077 15.8472C12.9953 15.6596 13.1006 15.4053 13.1006 15.1401C13.1006 14.8749 12.9953 14.6205 12.8077 14.433C12.6202 14.2454 12.3658 14.1401 12.1006 14.1401H11.2406V13.3301C11.2406 13.0649 11.1353 12.8105 10.9477 12.623C10.7602 12.4354 10.5058 12.3301 10.2406 12.3301C9.97541 12.3301 9.72105 12.4354 9.53352 12.623C9.34598 12.8105 9.24062 13.0649 9.24062 13.3301V14.1801H8.39063C8.12541 14.1801 7.87105 14.2854 7.68352 14.473C7.49598 14.6605 7.39062 14.9149 7.39062 15.1801C7.40096 15.4383 7.51087 15.6825 7.69729 15.8615C7.88372 16.0404 8.1322 16.1403 8.39063 16.1401Z" fill="#1A342B"/>
<path id="Vector_3" d="M32.9306 13.0098C30.2106 8.24983 25.9306 8.22983 23.1506 8.20983H22.6706C22.4859 8.22893 22.2992 8.20452 22.1255 8.13853C21.9519 8.07255 21.7961 7.96683 21.6706 7.82983C21.2359 7.18299 21.0381 6.4058 21.1106 5.62983C21.1216 5.49843 21.1064 5.36615 21.066 5.24063C21.0256 5.1151 20.9608 4.9988 20.8753 4.89843C20.7898 4.79805 20.6853 4.71558 20.5678 4.65575C20.4503 4.59592 20.3221 4.55993 20.1906 4.54983C20.0592 4.5389 19.927 4.55406 19.8014 4.59444C19.6759 4.63483 19.5596 4.69964 19.4592 4.78515C19.3589 4.87065 19.2764 4.97516 19.2166 5.09267C19.1567 5.21018 19.1207 5.33836 19.1106 5.46983C18.9969 6.79776 19.3819 8.12045 20.1906 9.17983C20.4996 9.50645 20.8738 9.76432 21.2891 9.93662C21.7043 10.1089 22.1512 10.1918 22.6006 10.1798H23.0906C25.8606 10.1798 28.9906 10.1798 31.1506 13.9798C33.8506 18.7098 31.0206 23.1498 30.4306 23.9798C29.0006 26.1698 25.0006 29.1898 20.8406 28.1498C19.2023 27.7476 17.6901 26.9434 16.4406 25.8098C15.4406 24.9598 14.3406 24.0898 12.6206 24.5898C12.215 24.6984 11.8357 24.8882 11.5056 25.1478C11.1756 25.4073 10.9017 25.7312 10.7006 26.0998C10.2006 27.2169 10.1155 28.4757 10.4606 29.6498C10.5371 29.9003 10.7087 30.1109 10.9387 30.2361C11.1687 30.3614 11.4387 30.3915 11.6906 30.3198C11.9448 30.2476 12.1601 30.0777 12.2894 29.8472C12.4187 29.6167 12.4515 29.3444 12.3806 29.0898C12.3106 28.8698 11.8006 26.9098 13.1806 26.5098C13.8306 26.3198 14.1106 26.5098 15.1806 27.3598C16.6582 28.685 18.4415 29.623 20.3706 30.0898C21.1014 30.2603 21.8503 30.3409 22.6006 30.3298C26.8406 30.3298 30.5006 27.4298 32.1106 25.1398C33.3881 23.4059 34.1438 21.3432 34.2891 19.1944C34.4344 17.0456 33.9631 14.9 32.9306 13.0098Z" fill="#1A342B"/>
<path id="Vector_4" d="M19.4502 17.33L19.6102 16.68C20.4502 13.16 23.2602 13.14 23.6102 13.15C23.8754 13.15 24.1297 13.0447 24.3173 12.8571C24.5048 12.6696 24.6102 12.4153 24.6102 12.15C24.6105 11.8933 24.512 11.6462 24.3352 11.46C24.1583 11.2739 23.9166 11.1629 23.6602 11.15C22.8776 11.1343 22.1006 11.2842 21.3802 11.59C20.9306 10.6234 20.2423 9.78715 19.3802 9.16004C18.1702 8.10004 18.5402 5.97004 18.5402 5.94004C18.5901 5.68018 18.535 5.41113 18.3869 5.19183C18.2388 4.97253 18.0098 4.82086 17.7502 4.77004C17.6208 4.74544 17.4878 4.74664 17.3589 4.77357C17.23 4.8005 17.1077 4.85263 16.999 4.92696C16.8902 5.00129 16.7973 5.09636 16.7254 5.20672C16.6535 5.31708 16.6042 5.44055 16.5802 5.57003C16.5802 5.70003 15.9902 8.85004 18.0602 10.66C19.2502 11.66 19.4802 12.09 19.5702 12.73C18.5888 13.673 17.913 14.8888 17.6302 16.22L17.4802 16.87C16.5502 20.76 16.4302 21.26 13.4802 21.67C11.3202 21.97 8.94016 22.52 7.71016 24.36C6.82016 25.69 6.71016 27.44 7.27016 29.73C7.32685 29.9501 7.45677 30.1442 7.63854 30.2805C7.8203 30.4169 8.04307 30.4872 8.27016 30.48C8.35321 30.4898 8.43711 30.4898 8.52016 30.48C8.64766 30.4474 8.76746 30.3899 8.8727 30.3109C8.97794 30.2319 9.06655 30.1329 9.13344 30.0195C9.20033 29.9062 9.24419 29.7807 9.2625 29.6504C9.28082 29.5201 9.27322 29.3874 9.24016 29.26C8.80016 27.56 8.85016 26.33 9.41016 25.5C9.97016 24.67 11.3402 24.01 13.7802 23.68C18.0902 23.1 18.4902 21.42 19.4502 17.33Z" fill="#1A342B"/>
<path id="Vector_5" d="M21.3002 26.22C21.3227 26.4693 21.438 26.7011 21.6231 26.8696C21.8083 27.0381 22.0499 27.131 22.3002 27.13H22.3902C28.4602 26.61 30.8502 20.01 30.9502 19.73C30.9946 19.6059 31.014 19.4743 31.0073 19.3427C31.0006 19.2111 30.968 19.0821 30.9113 18.9632C30.8546 18.8442 30.775 18.7377 30.677 18.6496C30.579 18.5615 30.4645 18.4937 30.3402 18.45C30.0909 18.3635 29.8175 18.3791 29.5796 18.4934C29.3417 18.6076 29.1586 18.8113 29.0702 19.06C29.0702 19.12 27.0002 24.72 22.2202 25.13C22.0878 25.14 21.9588 25.1764 21.8406 25.2368C21.7223 25.2973 21.6174 25.3807 21.5317 25.4821C21.4461 25.5836 21.3815 25.7011 21.3418 25.8278C21.302 25.9545 21.2879 26.0878 21.3002 26.22Z" fill="#1A342B"/>
</g>
</svg>
