<svg width="40" height="40" viewBox="0 0 40 40" fill="none" xmlns="http://www.w3.org/2000/svg">
<path d="M20 39C14.9609 39 10.1282 36.9982 6.56497 33.435C3.00178 29.8718 1 25.0391 1 20C1 14.9609 3.00178 10.1282 6.56497 6.56497C10.1282 3.00178 14.9609 1 20 1C25.0391 1 29.8718 3.00178 33.435 6.56497C36.9982 10.1282 39 14.9609 39 20C39 25.0391 36.9982 29.8718 33.435 33.435C29.8718 36.9982 25.0391 39 20 39ZM20 3C15.4913 3 11.1673 4.79107 7.97918 7.97919C4.79107 11.1673 3 15.4913 3 20C3 24.5087 4.79107 28.8327 7.97918 32.0208C11.1673 35.2089 15.4913 37 20 37C24.5087 37 28.8327 35.2089 32.0208 32.0208C35.2089 28.8327 37 24.5087 37 20C36.9947 15.4948 35.2013 11.1759 32.0138 7.99211C28.8262 4.80832 24.5052 3.02 20 3.02V3Z" fill="#1A342B"/>
<path d="M20 32.2601C19.7348 32.2601 19.4804 32.1547 19.2929 31.9672C19.1054 31.7797 19 31.5253 19 31.2601C19 30.9949 19.1054 30.7405 19.2929 30.553C19.4804 30.3654 19.7348 30.2601 20 30.2601C22.2834 30.2796 24.5078 29.5354 26.3197 28.1457C28.1316 26.756 29.427 24.8005 30 22.5901C30.0326 22.4626 30.0901 22.3428 30.1691 22.2375C30.2482 22.1323 30.3472 22.0437 30.4605 21.9768C30.5739 21.9099 30.6993 21.8661 30.8296 21.8477C30.96 21.8294 31.0926 21.837 31.22 21.8701C31.3475 21.9027 31.4673 21.9602 31.5725 22.0392C31.6778 22.1182 31.7664 22.2173 31.8333 22.3306C31.9002 22.4439 31.944 22.5694 31.9623 22.6997C31.9807 22.83 31.9731 22.9627 31.94 23.0901C31.2544 25.7295 29.7077 28.0647 27.5449 29.7258C25.3821 31.3868 22.727 32.2787 20 32.2601Z" fill="#1A342B"/>
<path d="M8.78027 21.0101C8.51506 21.0101 8.2607 20.9047 8.07317 20.7172C7.88563 20.5296 7.78027 20.2753 7.78027 20.0101C7.78879 17.3298 8.67257 14.7256 10.2972 12.5938C11.9218 10.462 14.1982 8.91917 16.7803 8.20008C16.907 8.16518 17.0394 8.1556 17.1698 8.1719C17.3002 8.1882 17.4262 8.23006 17.5404 8.29507C17.6546 8.36009 17.7549 8.44699 17.8356 8.5508C17.9162 8.65461 17.9756 8.7733 18.0103 8.90008C18.0452 9.0268 18.0547 9.15916 18.0384 9.28959C18.0221 9.42002 17.9803 9.54596 17.9153 9.6602C17.8503 9.77444 17.7634 9.87474 17.6595 9.95537C17.5557 10.036 17.437 10.0954 17.3103 10.1301C15.1567 10.7374 13.26 12.0307 11.9082 13.8139C10.5564 15.597 9.82335 17.7725 9.82027 20.0101C9.82038 20.1448 9.79325 20.2782 9.74051 20.4022C9.68778 20.5262 9.61052 20.6383 9.51338 20.7317C9.41625 20.8251 9.30123 20.8979 9.17525 20.9458C9.04927 20.9936 8.91492 21.0155 8.78027 21.0101Z" fill="#1A342B"/>
<path d="M27.2596 14.6C28.1764 14.6 28.9196 13.8568 28.9196 12.94C28.9196 12.0232 28.1764 11.28 27.2596 11.28C26.3428 11.28 25.5996 12.0232 25.5996 12.94C25.5996 13.8568 26.3428 14.6 27.2596 14.6Z" fill="#1A342B"/>
<path d="M15.6402 32.79C15.3526 32.7913 15.0686 32.7263 14.8102 32.6C13.1821 31.8601 11.6937 30.8453 10.4102 29.6C9.16701 28.3072 8.15257 26.8126 7.41018 25.18C7.27272 24.8869 7.21077 24.5641 7.22998 24.241C7.2492 23.9179 7.34896 23.6047 7.52018 23.33C7.69362 23.0514 7.93524 22.8216 8.2222 22.6624C8.50917 22.5032 8.832 22.4197 9.16018 22.42C10.9696 22.4454 12.7746 22.6058 14.5602 22.9C14.137 20.7898 14.2395 18.6078 14.8586 16.5465C15.4777 14.4852 16.5943 12.6079 18.1102 11.08C19.4881 9.69581 21.1602 8.63989 23.0022 7.99068C24.8442 7.34146 26.8089 7.11565 28.7502 7.33C29.7745 7.43684 30.731 7.89259 31.4593 8.62086C32.1876 9.34913 32.6433 10.3056 32.7502 11.33C32.9553 13.2616 32.7249 15.2147 32.0759 17.0456C31.427 18.8765 30.376 20.5387 29.0002 21.91C27.4834 23.4369 25.6112 24.5633 23.5517 25.1881C21.4921 25.813 19.3097 25.9167 17.2002 25.49C17.4818 27.2624 17.6122 29.0555 17.5902 30.85C17.5904 31.1782 17.507 31.501 17.3478 31.788C17.1886 32.0749 16.9588 32.3166 16.6802 32.49C16.3677 32.6837 16.0078 32.7875 15.6402 32.79ZM9.21018 24.39H9.16018C9.86233 25.7763 10.758 27.0557 11.8202 28.19C12.9421 29.2698 14.241 30.1492 15.6602 30.79C15.6275 28.8402 15.4301 26.8966 15.0702 24.98C13.1344 24.6368 11.1755 24.4396 9.21018 24.39ZM16.7102 23.33C18.6049 23.8726 20.6105 23.8963 22.5175 23.3984C24.4244 22.9006 26.1625 21.8995 27.5502 20.5C28.7222 19.335 29.6167 17.921 30.1673 16.3629C30.7178 14.8048 30.9102 13.1427 30.7302 11.5C30.6614 10.9434 30.4068 10.4263 30.0075 10.0324C29.6082 9.6386 29.0877 9.39109 28.5302 9.33C26.8875 9.14998 25.2254 9.34239 23.6673 9.89292C22.1092 10.4435 20.6951 11.338 19.5302 12.51C18.1551 13.9095 17.1711 15.6451 16.6763 17.5437C16.1815 19.4422 16.1932 21.4374 16.7102 23.33Z" fill="#1A342B"/>
<path d="M27.6293 18.83H27.4593C25.8939 18.5626 24.4505 17.8147 23.3293 16.69C22.2008 15.5716 21.4522 14.1269 21.1893 12.56C21.1663 12.4307 21.169 12.298 21.1972 12.1697C21.2255 12.0414 21.2787 11.9199 21.3539 11.8122C21.4292 11.7044 21.5249 11.6126 21.6356 11.5419C21.7464 11.4711 21.8699 11.4229 21.9993 11.4C22.2605 11.3566 22.5283 11.4185 22.7438 11.5723C22.9594 11.726 23.1052 11.9589 23.1493 12.22C23.357 13.358 23.9085 14.405 24.7293 15.22C25.5616 16.0501 26.6306 16.6021 27.7893 16.8C28.0486 16.8464 28.279 16.9932 28.4307 17.2085C28.5824 17.4238 28.6429 17.6903 28.5993 17.95C28.5705 18.1888 28.4566 18.4093 28.2784 18.5709C28.1003 18.7325 27.8698 18.8245 27.6293 18.83Z" fill="#1A342B"/>
</svg>
