<svg width="38" height="38" viewBox="0 0 38 38" fill="none" xmlns="http://www.w3.org/2000/svg">
<g id="Group 1145">
<path id="Vector" d="M19 0C13.9609 0 9.12816 2.00178 5.56497 5.56497C2.00178 9.12816 0 13.9609 0 19C0 24.0391 2.00178 28.8718 5.56497 32.435C9.12816 35.9982 13.9609 38 19 38C24.0391 38 28.8718 35.9982 32.435 32.435C35.9982 28.8718 38 24.0391 38 19C38 16.5049 37.5085 14.0342 36.5537 11.729C35.5989 9.42383 34.1993 7.32929 32.435 5.56497C30.6707 3.80066 28.5762 2.40113 26.271 1.44629C23.9658 0.49145 21.4951 0 19 0ZM23.61 8C25.6013 9.95076 26.8676 12.5223 27.2 15.29C27.3315 17.8713 26.5053 20.4103 24.88 22.42C24.3563 21.3652 23.6827 20.3918 22.88 19.53C21.3914 18.0077 19.5705 16.8509 17.56 16.15C17.48 15 17.71 10.91 23.65 8.02L23.61 8ZM21.41 20.92C23.3678 23.1273 24.4585 25.9697 24.48 28.92C23.6187 29.3533 22.6812 29.6148 21.72 29.69H21.61C17.81 30.19 14.78 29.44 12.61 27.46C9.2 24.38 8.61 19.08 8.49 16.99C10.83 16.84 17.48 16.78 21.41 20.92ZM26.14 34.42C26.3721 32.9949 26.4924 31.5538 26.5 30.11C27.7358 29.3535 28.8514 28.4165 29.81 27.33C29.986 27.1323 30.0765 26.8728 30.0615 26.6085C30.0465 26.3441 29.9273 26.0966 29.73 25.92C29.6319 25.8313 29.5171 25.763 29.3923 25.7189C29.2676 25.6749 29.1354 25.6561 29.0033 25.6635C28.8712 25.671 28.7419 25.7045 28.6229 25.7623C28.5039 25.8201 28.3976 25.9008 28.31 26C27.7318 26.6567 27.0885 27.2531 26.39 27.78C26.2811 26.6869 26.06 25.6078 25.73 24.56C28.29 21.56 29.48 18.4 29.23 15.16C28.8171 11.6544 27.1302 8.42288 24.49 6.08C24.3517 5.96839 24.1861 5.89565 24.0104 5.86929C23.8346 5.84292 23.655 5.86388 23.49 5.93C16.77 8.93 15.69 13.39 15.59 15.57C12.8859 14.9488 10.0948 14.7999 7.34 15.13C7.10155 15.1662 6.8842 15.2873 6.728 15.471C6.5718 15.6548 6.48727 15.8888 6.49 16.13C6.49 16.47 6.3 24.5 11.29 29.01C13.93 31.39 17.49 32.32 21.87 31.75C22.7829 31.6857 23.6803 31.48 24.53 31.14C24.4487 32.5173 24.2717 33.8873 24 35.24C22.4047 35.7232 20.7469 35.9692 19.08 35.97C14.5713 35.97 10.2473 34.1789 7.05918 30.9908C3.87107 27.8027 2.08 23.4787 2.08 18.97C2.08 14.4613 3.87107 10.1373 7.05918 6.94918C10.2473 3.76106 14.5713 1.97 19.08 1.97C23.5887 1.97 27.9127 3.76106 31.1008 6.94918C34.2889 10.1373 36.08 14.4613 36.08 18.97C36.0772 22.2269 35.1389 25.4144 33.3767 28.1533C31.6146 30.8923 29.1027 33.0674 26.14 34.42Z" fill="#1A342B"/>
<path id="Vector_2" d="M20 26.95H20.21C20.4425 26.9551 20.6696 26.8791 20.8521 26.7349C21.0346 26.5907 21.1612 26.3874 21.21 26.16C21.2666 25.9014 21.2184 25.631 21.0759 25.4079C20.9334 25.1848 20.7084 25.0274 20.45 24.97C19.0867 24.6147 17.8088 23.989 16.6922 23.1301C15.5756 22.2711 14.643 21.1965 13.95 19.97C13.8301 19.7344 13.6219 19.5559 13.3708 19.4735C13.1197 19.391 12.8462 19.4113 12.61 19.53C12.4921 19.5893 12.3871 19.6714 12.3011 19.7715C12.215 19.8716 12.1497 19.9878 12.1088 20.1133C12.0679 20.2388 12.0522 20.3712 12.0627 20.5028C12.0732 20.6343 12.1097 20.7625 12.17 20.88C12.9873 22.376 14.1046 23.6872 15.4519 24.7316C16.7992 25.7761 18.3475 26.5313 20 26.95Z" fill="#1A342B"/>
<path id="Vector_3" d="M22.9768 17.1679C23.1044 17.1324 23.2237 17.072 23.3277 16.9901C23.4318 16.9082 23.5185 16.8064 23.5829 16.6907C23.6473 16.575 23.6881 16.4477 23.7029 16.3161C23.7177 16.1845 23.7062 16.0513 23.6691 15.9242C23.4119 14.567 23.6767 13.1627 24.4106 11.9925C24.4726 11.8756 24.5109 11.7477 24.5231 11.616C24.5353 11.4843 24.5213 11.3515 24.4819 11.2252C24.4424 11.099 24.3783 10.9818 24.2933 10.8805C24.2082 10.7792 24.1039 10.6958 23.9864 10.635C23.7512 10.513 23.4772 10.4893 23.2245 10.5691C22.9719 10.649 22.7612 10.8258 22.6389 11.0609C21.637 12.6991 21.3122 14.6629 21.7332 16.5365C21.7926 16.7062 21.8968 16.8569 22.0346 16.9724C22.1725 17.088 22.339 17.1642 22.5166 17.1931C22.6699 17.2206 22.8275 17.212 22.9768 17.1679Z" fill="#1A342B"/>
</g>
</svg>
