<svg width="38" height="38" viewBox="0 0 38 38" fill="none" xmlns="http://www.w3.org/2000/svg">
<g id="Group 1144">
<path id="Vector" d="M19 0C13.9609 0 9.12816 2.00178 5.56497 5.56497C2.00178 9.12816 0 13.9609 0 19C0.00996928 22.5889 1.03622 26.1017 2.95995 29.1315C4.88368 32.1613 7.6262 34.5843 10.87 36.12C10.9417 36.1663 11.019 36.2033 11.1 36.23C13.5754 37.3789 16.271 37.976 19 37.98C24.0391 37.98 28.8718 35.9782 32.435 32.415C35.9982 28.8518 38 24.0191 38 18.98C37.9947 13.9443 35.9906 9.11677 32.428 5.5579C28.8653 1.99903 24.0357 -2.78983e-06 19 0ZM15.48 17.61C15.5147 17.7368 15.5741 17.8555 15.6547 17.9593C15.7353 18.0631 15.8356 18.15 15.9499 18.215C16.0641 18.28 16.1901 18.3219 16.3205 18.3382C16.4509 18.3545 16.5833 18.3449 16.71 18.31C16.8368 18.2753 16.9555 18.2159 17.0593 18.1353C17.1631 18.0547 17.25 17.9544 17.315 17.8401C17.38 17.7259 17.4219 17.5999 17.4382 17.4695C17.4545 17.3391 17.4449 17.2067 17.41 17.08C16.9331 15.4358 16.0372 13.9437 14.81 12.75C15.47 11.24 17.64 7.3 22.32 7.3H22.43C23.366 8.92938 23.7546 10.8161 23.5386 12.6827C23.3226 14.5493 22.5134 16.2974 21.23 17.67C19.0926 18.6398 17.168 20.0226 15.5669 21.7387C13.9657 23.4549 12.7195 25.4706 11.9 27.67C11.6068 27.3852 11.3329 27.0812 11.08 26.76C8.48 23.47 7.63 18.03 8.59 10.98C10.54 11.86 14.48 13.95 15.48 17.61ZM22.21 19.31L22.42 19.22C24.7444 18.195 27.2338 17.5955 29.77 17.45C29.65 19.6 29.01 24.77 25.65 27.8C23.46 29.8 20.42 30.53 16.56 30.03C15.4949 29.8922 14.4719 29.5273 13.56 28.96C14.2417 26.8334 15.3645 24.8747 16.8551 23.2118C18.3457 21.549 20.1704 20.2194 22.21 19.31ZM19 35.98C16.758 35.9805 14.5383 35.5352 12.47 34.67C12.5546 33.4285 12.7317 32.1951 13 30.98C14.0408 31.5577 15.1866 31.9215 16.37 32.05C20.77 32.63 24.37 31.71 27 29.32C32 24.81 31.81 16.78 31.8 16.44C31.8 16.1748 31.6946 15.9204 31.5071 15.7329C31.3196 15.5454 31.0652 15.44 30.8 15.44C28.64 15.4702 26.4953 15.8068 24.43 16.44C25.2382 14.7482 25.6034 12.8789 25.4915 11.0074C25.3795 9.13583 24.7941 7.32337 23.79 5.74C23.7051 5.61678 23.5937 5.51418 23.4639 5.43976C23.3341 5.36534 23.1892 5.321 23.04 5.31C17.32 4.91 14.37 9.17 13.23 11.38C11.6542 10.2187 9.90637 9.31107 8.05 8.68999C7.91338 8.64876 7.76953 8.63725 7.62809 8.65622C7.48665 8.67519 7.35092 8.72421 7.23 8.8C7.10843 8.87541 7.00446 8.97604 6.9251 9.09507C6.84575 9.2141 6.79286 9.34877 6.77 9.49C5.41 17.85 6.34 24.11 9.52 28.09C10.0156 28.7169 10.579 29.287 11.2 29.79C10.8719 31.0678 10.638 32.368 10.5 33.68C7.92043 32.1907 5.77744 30.0498 4.28567 27.4716C2.79389 24.8935 2.00569 21.9686 2 18.99C2 14.4813 3.79107 10.1573 6.97918 6.96918C10.1673 3.78107 14.4913 1.99 19 1.99C23.5087 1.99 27.8327 3.78107 31.0208 6.96918C34.2089 10.1573 36 14.4813 36 18.99C35.9973 23.4969 34.2051 27.8184 31.0173 31.0043C27.8294 34.1903 23.5069 35.98 19 35.98Z" fill="#1A342B"/>
<path id="Vector_2" d="M18.4498 28.3099C18.5918 28.3098 18.7321 28.2794 18.8615 28.2207C18.9908 28.1621 19.1061 28.0766 19.1998 27.9699C21.1647 25.8111 23.4849 24.005 26.0598 22.6299C26.2937 22.5136 26.4728 22.3104 26.5588 22.0637C26.6447 21.817 26.6308 21.5465 26.5198 21.3099C26.4035 21.0735 26.1985 20.8925 25.9494 20.8064C25.7004 20.7203 25.4274 20.7359 25.1898 20.85C22.3701 22.334 19.8345 24.3042 17.6998 26.67C17.525 26.869 17.4363 27.1292 17.4532 27.3936C17.4701 27.6579 17.5911 27.9048 17.7898 28.08C17.975 28.2335 18.2093 28.3152 18.4498 28.3099Z" fill="#1A342B"/>
<path id="Vector_3" d="M11.3598 21.49C11.3598 21.7553 11.4652 22.0096 11.6527 22.1972C11.8402 22.3847 12.0946 22.49 12.3598 22.49C12.625 22.49 12.8794 22.3847 13.0669 22.1972C13.2545 22.0096 13.3598 21.7553 13.3598 21.49C13.4798 17.62 12.1298 15.76 11.9698 15.56C11.808 15.3538 11.5716 15.2194 11.3116 15.1858C11.0517 15.1521 10.7889 15.2219 10.5798 15.38C10.3705 15.539 10.2322 15.7739 10.1948 16.034C10.1573 16.2942 10.2238 16.5586 10.3798 16.77C11.1877 18.2038 11.5302 19.8532 11.3598 21.49Z" fill="#1A342B"/>
<path id="Vector_4" d="M18.6393 15.3102C18.7157 15.3199 18.793 15.3199 18.8693 15.3102C19.1005 15.3158 19.3265 15.2412 19.5088 15.099C19.6911 14.9568 19.8185 14.7558 19.8693 14.5302C20.2087 13.2483 20.7965 12.0456 21.5993 10.9902C21.6824 10.8879 21.7444 10.7702 21.7818 10.6439C21.8193 10.5175 21.8314 10.385 21.8174 10.254C21.8035 10.123 21.7638 9.99598 21.7006 9.88034C21.6374 9.76471 21.552 9.6627 21.4493 9.58017C21.2433 9.41553 20.9806 9.33893 20.7184 9.36702C20.4562 9.39512 20.2158 9.52563 20.0493 9.73017C19.0489 11.019 18.3239 12.4996 17.9193 14.0802C17.8848 14.2082 17.876 14.3419 17.8936 14.4734C17.9112 14.6048 17.9547 14.7315 18.0218 14.8459C18.0888 14.9604 18.1779 15.0604 18.2839 15.1401C18.3899 15.2198 18.5107 15.2776 18.6393 15.3102Z" fill="#1A342B"/>
</g>
</svg>
