<svg width="60" height="60" viewBox="0 0 60 60" fill="none" xmlns="http://www.w3.org/2000/svg">
<g id="Group 993">
<g id="Group 860">
<path id="Vector" d="M46.7683 50.5498H13.4561V54.5618H46.7683V50.5498Z" stroke="#204740" stroke-linecap="round" stroke-linejoin="round"/>
<path id="Vector_2" d="M6 34.9968V39.8681C5.99993 41.5704 6.41263 43.2473 7.20269 44.7551C7.99275 46.263 9.13661 47.5568 10.5363 48.5256L13.4488 50.5499H46.7611L49.6737 48.5256C51.0734 47.5568 52.2172 46.263 53.0073 44.7551C53.7973 43.2473 54.21 41.5704 54.21 39.8681V34.9968H6Z" stroke="#204740" stroke-linecap="round" stroke-linejoin="round"/>
<path id="Vector_3" d="M18.6835 15.7333C19.4598 14.957 19.1555 13.3941 18.0039 12.2424C16.8523 11.0908 15.2894 10.7865 14.5131 11.5628C13.7368 12.3391 14.041 13.902 15.1927 15.0537C16.3443 16.2053 17.9072 16.5095 18.6835 15.7333Z" fill="#65AF7C" stroke="#204740" stroke-linecap="round" stroke-linejoin="round"/>
<path id="Vector_4" d="M46.1368 18.3344C47.4164 17.0548 47.7529 15.3167 46.8885 14.4523C46.024 13.5879 44.286 13.9244 43.0064 15.204C41.7268 16.4836 41.3902 18.2217 42.2546 19.0861C43.1191 19.9506 44.8572 19.614 46.1368 18.3344Z" fill="#65AF7C" stroke="#204740" stroke-linecap="round" stroke-linejoin="round"/>
<path id="Vector_5" d="M25.223 11.427C26.1358 11.427 26.8758 10.687 26.8758 9.77415C26.8758 8.86129 26.1358 8.12128 25.223 8.12128C24.3101 8.12128 23.5701 8.86129 23.5701 9.77415C23.5701 10.687 24.3101 11.427 25.223 11.427Z" stroke="#204740" stroke-linecap="round" stroke-linejoin="round"/>
<path id="Vector_6" d="M35.4459 7.30574C36.3587 7.30574 37.0987 6.56573 37.0987 5.65287C37.0987 4.74002 36.3587 4 35.4459 4C34.533 4 33.793 4.74002 33.793 5.65287C33.793 6.56573 34.533 7.30574 35.4459 7.30574Z" stroke="#204740" stroke-linecap="round" stroke-linejoin="round"/>
<path id="Vector_7" d="M20.8471 28.2688C20.3497 28.2663 19.8561 28.3552 19.3909 28.5309C19.7103 27.7061 19.7455 26.7984 19.491 25.9513C19.2365 25.1042 18.7069 24.3662 17.9858 23.854C17.2647 23.3418 16.3934 23.0847 15.5097 23.1234C14.6261 23.162 13.7806 23.4943 13.107 24.0675C13.0206 23.9627 12.9282 23.863 12.8303 23.7689C12.0747 23.0694 11.0774 22.6897 10.0478 22.7095C9.01825 22.7294 8.03638 23.1472 7.30823 23.8754C6.58008 24.6035 6.16227 25.5854 6.14243 26.6149C6.12258 27.6445 6.50229 28.6417 7.20183 29.3974C7.296 29.493 7.39562 29.5829 7.50031 29.6668C6.85978 30.4177 6.52142 31.3799 6.55103 32.3664C6.58063 33.3528 6.97616 34.293 7.66056 35.0041" stroke="#204740" stroke-linecap="round" stroke-linejoin="round"/>
<path id="Vector_8" d="M11.6006 28.1887L18.4087 34.9968" stroke="#204740" stroke-linecap="round" stroke-linejoin="round"/>
<path id="Vector_9" d="M15.5526 32.1279C14.8035 31.6651 13.9372 31.4273 13.0568 31.4428C12.1764 31.4583 11.3191 31.7264 10.5867 32.2153" stroke="#204740" stroke-linecap="round" stroke-linejoin="round"/>
<path id="Vector_10" d="M18.4073 34.9968C18.4073 34.9968 16.5213 32.6012 17.1621 29.9872" stroke="#204740" stroke-linecap="round" stroke-linejoin="round"/>
<path id="Vector_11" d="M39.9824 28.2688C40.2835 28.3113 40.579 28.387 40.8634 28.4946C40.5412 27.6686 40.5043 26.7587 40.7586 25.9094C41.0128 25.0601 41.5436 24.3201 42.2667 23.8071C42.9897 23.2941 43.8636 23.0375 44.7492 23.0781C45.6348 23.1186 46.4814 23.4541 47.1546 24.0311C47.2419 23.9291 47.3293 23.8272 47.424 23.7325C48.1739 23.0022 49.1811 22.5965 50.2278 22.6031C51.2745 22.6097 52.2766 23.0281 53.0173 23.7678C53.7579 24.5075 54.1776 25.509 54.1855 26.5557C54.1935 27.6024 53.7891 28.6102 53.0597 29.361C52.9578 29.4557 52.8631 29.5504 52.7612 29.6305C53.3992 30.3829 53.7353 31.3453 53.7043 32.3313C53.6734 33.3173 53.2777 34.2568 52.5937 34.9677" stroke="#204740" stroke-linecap="round" stroke-linejoin="round"/>
<path id="Vector_12" d="M48.6255 28.1887L41.8174 34.9968" stroke="#204740" stroke-linecap="round" stroke-linejoin="round"/>
<path id="Vector_13" d="M44.6787 32.1279C45.4278 31.6651 46.2941 31.4273 47.1744 31.4428C48.0548 31.4583 48.9122 31.7264 49.6445 32.2153" stroke="#204740" stroke-linecap="round" stroke-linejoin="round"/>
<path id="Vector_14" d="M41.8174 34.9968C41.8174 34.9968 43.7033 32.6012 43.0553 29.9872" stroke="#204740" stroke-linecap="round" stroke-linejoin="round"/>
<path id="Vector_15" d="M38.4532 34.9968C39.463 33.7564 40.0499 32.2256 40.128 30.628C40.128 30.4387 40.128 30.2567 40.128 30.0673C40.1278 28.7988 39.8805 27.5424 39.3998 26.3684C39.0898 25.6621 38.7398 24.9741 38.3514 24.3078C37.7858 23.389 37.3196 22.4126 36.9606 21.3952C36.6374 20.4565 36.4558 19.4749 36.4218 18.4827C36.422 17.6776 36.2611 16.8806 35.9487 16.1386C35.6363 15.3965 35.1786 14.7245 34.6026 14.1621C34.0265 13.5996 33.3438 13.158 32.5946 12.8634C31.8454 12.5688 31.0448 12.427 30.2399 12.4464C28.6507 12.5231 27.1521 13.2089 26.0552 14.3614C24.9583 15.5139 24.3473 17.0445 24.3492 18.6356C24.1925 20.6902 23.535 22.6751 22.4342 24.417C21.3417 26.1167 20.7233 28.0775 20.643 30.0965C20.6402 30.4614 20.6596 30.8261 20.7012 31.1887C20.8444 32.592 21.1346 33.8253 22.0002 34.9391" stroke="#204740" stroke-linecap="round" stroke-linejoin="round"/>
<path id="Vector_16" d="M34.5001 35C35.6502 33.5182 36.4616 31.5716 36.4432 29.696C36.3561 28.1292 35.6945 26.6495 34.5849 25.5399C33.4753 24.4303 32.0668 24.0262 30.5 23.9391C28.9327 24.0247 27.381 24.4282 26.2711 25.5382C25.1612 26.6481 24.5 28.1286 24.4145 29.696C24.3979 31.363 25.0773 33.5506 26.0001 34.9391" fill="#65AF7C" stroke="#204740" stroke-linecap="round" stroke-linejoin="round"/>
</g>
</g>
</svg>
