<svg width="40" height="40" viewBox="0 0 40 40" fill="none" xmlns="http://www.w3.org/2000/svg">
<path d="M20 39C14.9609 39 10.1282 36.9982 6.56497 33.435C3.00178 29.8718 1 25.0391 1 20C1 14.9609 3.00178 10.1282 6.56497 6.56497C10.1282 3.00178 14.9609 1 20 1C25.0391 1 29.8718 3.00178 33.435 6.56497C36.9982 10.1282 39 14.9609 39 20C39 25.0391 36.9982 29.8718 33.435 33.435C29.8718 36.9982 25.0391 39 20 39ZM20 3C15.4913 3 11.1673 4.79107 7.97918 7.97919C4.79107 11.1673 3 15.4913 3 20C3 24.5087 4.79107 28.8327 7.97918 32.0208C11.1673 35.2089 15.4913 37 20 37C24.5087 37 28.8327 35.2089 32.0208 32.0208C35.2089 28.8327 37 24.5087 37 20C36.9947 15.4948 35.2013 11.1759 32.0138 7.99211C28.8262 4.80832 24.5052 3.02 20 3.02V3Z" fill="#1A342B"/>
<path d="M18.1396 33.17C17.3482 33.1677 16.5608 33.0567 15.7996 32.84C14.209 32.4166 12.7842 31.521 11.713 30.2713C10.6419 29.0216 9.97473 27.4766 9.7996 25.84C9.75108 25.4586 9.7277 25.0745 9.7296 24.69C9.81121 22.5954 10.4461 20.5597 11.5696 18.79C12.5303 17.2852 13.1104 15.5691 13.2596 13.79C13.2581 12.0155 13.9434 10.3092 15.1718 9.02855C16.4002 7.74793 18.0765 6.99232 19.8496 6.92C20.7486 6.89736 21.643 7.05566 22.4796 7.3855C23.3162 7.71533 24.0779 8.20996 24.7196 8.84C25.3589 9.46844 25.8654 10.2189 26.209 11.0469C26.5525 11.875 26.7262 12.7636 26.7196 13.66C26.7517 14.5087 26.9101 15.3479 27.1896 16.15C27.4969 17.0343 27.8993 17.8826 28.3896 18.68C28.7921 19.3727 29.156 20.0871 29.4796 20.82C29.9888 22.0571 30.2504 23.3822 30.2496 24.72C30.2496 24.92 30.2496 25.12 30.2496 25.31C30.1604 27.0596 29.5132 28.7346 28.4029 30.0897C27.2926 31.4447 25.7775 32.4086 24.0796 32.84C22.7987 33.1909 21.4548 33.2456 20.1496 33C19.488 33.1312 18.8138 33.1882 18.1396 33.17ZM20.0496 19.59C18.8181 19.66 17.6559 20.1827 16.7865 21.0577C15.9171 21.9326 15.4018 23.0981 15.3396 24.33C15.3266 25.7185 15.7269 27.0796 16.4896 28.24C17.3399 29.5455 18.6439 30.4896 20.1496 30.89C21.4083 30.4811 22.509 29.6914 23.2996 28.63C24.2532 27.4008 24.7641 25.8857 24.7496 24.33C24.6877 23.0997 24.1738 21.9356 23.3064 21.0608C22.4391 20.1861 21.2793 19.6624 20.0496 19.59ZM19.9996 8.85H19.8796C18.624 8.91437 17.4416 9.4609 16.579 10.3756C15.7165 11.2904 15.2402 12.5027 15.2496 13.76C15.1051 15.8889 14.4389 17.9495 13.3096 19.76C12.346 21.2268 11.7967 22.9267 11.7196 24.68C11.7196 25 11.7196 25.3 11.7196 25.61C11.8452 26.815 12.3228 27.9564 13.0928 28.8918C13.8628 29.8272 14.8911 30.5152 16.0496 30.87C15.5846 30.4057 15.1752 29.8889 14.8296 29.33C13.844 27.8499 13.325 26.1082 13.3396 24.33C13.4207 22.5822 14.1461 20.9262 15.3759 19.6816C16.6057 18.437 18.2529 17.6919 19.9996 17.59H20.0696C21.8199 17.6871 23.4719 18.4302 24.7059 19.6752C25.9399 20.9203 26.6681 22.5789 26.7496 24.33C26.7718 26.3382 26.1126 28.2947 24.8796 29.88C24.669 30.1504 24.4419 30.4076 24.1996 30.65C25.349 30.2447 26.3503 29.5039 27.0741 28.5234C27.7979 27.5429 28.2109 26.3678 28.2596 25.15C28.2596 24.99 28.2596 24.83 28.2596 24.67C28.2549 23.5934 28.0444 22.5276 27.6396 21.53C27.3613 20.8944 27.0441 20.2765 26.6896 19.68C26.1199 18.7314 25.6507 17.726 25.2896 16.68C24.9503 15.6836 24.7615 14.6421 24.7296 13.59C24.7315 12.9578 24.6058 12.3317 24.3601 11.7493C24.1144 11.1668 23.7537 10.6398 23.2996 10.2C22.4196 9.33404 21.2342 8.8491 19.9996 8.85Z" fill="#1A342B"/>
</svg>
