<svg width="12" height="7" viewBox="0 0 12 7" fill="none" xmlns="http://www.w3.org/2000/svg">
<path id="Path Copy 8" d="M0.225549 0.245678C0.0811407 0.394624 -2.79896e-07 0.596736 -2.70683e-07 0.807494C-2.61471e-07 1.01825 0.0811408 1.22036 0.225549 1.36931L5.44925 6.76711C5.59349 6.91622 5.78923 7 5.99334 7C6.19745 7 6.39319 6.91622 6.53744 6.76711L11.7611 1.36931C11.9636 1.17038 12.0455 0.873728 11.9753 0.594452C11.905 0.315176 11.6936 0.0972314 11.423 0.0251775C11.1524 -0.046876 10.8652 0.0383019 10.6729 0.247664L5.99334 5.08364L1.31374 0.247664C1.16975 0.0982894 0.974152 0.0141482 0.770042 0.0137758C0.565932 0.0134039 0.370051 0.0968304 0.225549 0.245678Z" fill="#65AF7C"/>
</svg>
