<svg width="60" height="60" viewBox="0 0 60 60" fill="none" xmlns="http://www.w3.org/2000/svg">
<g id="Group 992">
<g id="Group 863">
<path id="Vector 10" d="M29 32C22.6 34.4 19 33 18 32L19.5 44C21.1 48.4 25.1667 49.5 27 49.5H33C37.8 48.7 40 45.1667 40.5 43.5L42 32C40.3333 31 35.4 29.6 29 32Z" fill="#65AF7C"/>
<g id="Group 862">
<path id="Vector" d="M50.6983 41.2031C51.5182 40.3832 51.7351 39.2708 51.1828 38.7185C50.6305 38.1662 49.5182 38.3832 48.6983 39.2031C47.8784 40.023 47.6614 41.1353 48.2137 41.6876C48.766 42.2399 49.8784 42.023 50.6983 41.2031Z" stroke="#204740" stroke-linecap="round" stroke-linejoin="round"/>
<path id="Vector_2" d="M11.4739 27.0262C12.1992 26.6075 12.2828 25.3947 11.6608 24.3173C11.0387 23.2399 9.94661 22.7059 9.22139 23.1246C8.49616 23.5434 8.41245 24.7562 9.03448 25.8336C9.6565 26.911 10.7487 27.4449 11.4739 27.0262Z" stroke="#204740" stroke-width="1.09" stroke-linecap="round" stroke-linejoin="round"/>
<path id="Vector_3" d="M42.4708 27.1743H45.2337C45.5818 27.1733 45.9267 27.241 46.2486 27.3736C46.5705 27.5062 46.863 27.7009 47.1095 27.9467C47.356 28.1926 47.5516 28.4846 47.685 28.8061C47.8184 29.1277 47.8872 29.4723 47.8872 29.8205V34.1943C47.8852 34.8968 47.6048 35.5699 47.1074 36.0659C46.61 36.562 45.9362 36.8406 45.2337 36.8406H41.3264" stroke="#204740" stroke-linecap="round" stroke-linejoin="round"/>
<path id="Vector_4" d="M46.4222 19.9064C41.8151 27.8231 33.6505 27.8012 29.816 27.8012C22.6356 27.8012 16.8184 26.0298 16.8184 23.8502C16.8184 21.6705 22.6502 19.9064 29.816 19.9064C36.9819 19.9064 42.8137 21.6705 42.8137 23.8502L40.7653 41.732C40.5198 43.8991 39.4847 45.8998 37.8576 47.3521C36.2305 48.8043 34.1256 49.6064 31.9447 49.605H27.6874C25.5057 49.6066 23.3998 48.8047 21.7715 47.3526C20.1433 45.9005 19.1066 43.8997 18.8595 41.732L17.4015 27.9908" stroke="#204740" stroke-width="1.09" stroke-linecap="round" stroke-linejoin="round"/>
<path id="Vector_5" d="M6 9.18303C6 9.18303 10.2136 6.77011 13.7346 8.91331C17.2555 11.0565 16.439 13.4694 15.3893 14.942C14.3395 16.4145 11.9193 17.4788 9.92192 15.5179C7.5017 13.156 9.68864 10.5244 6 9.18303Z" stroke="#204740" stroke-width="1.09" stroke-linecap="round" stroke-linejoin="round"/>
<path id="Vector_6" d="M10.9785 10.7868C10.9785 10.7868 16.0814 13.7465 17.0655 18.1349" stroke="#204740" stroke-width="1.09" stroke-linecap="round" stroke-linejoin="round"/>
<path id="Vector_7" d="M6.62006 33.9173C6.62006 33.9173 8.69036 32.3282 10.7169 33.1884C12.7435 34.0486 12.481 35.419 12.029 36.272C11.9125 36.5312 11.7391 36.7607 11.5215 36.9435C11.304 37.1263 11.0479 37.2577 10.7725 37.3277C10.4971 37.3978 10.2095 37.4048 9.931 37.3482C9.65252 37.2916 9.39041 37.1729 9.1642 37.0009C7.70624 35.9075 8.67579 34.3474 6.62006 33.9173Z" fill="#65AF7C" stroke="#204740" stroke-width="1.09" stroke-linecap="round" stroke-linejoin="round"/>
<path id="Vector_8" d="M9.38293 34.3984C9.38293 34.3984 12.2989 35.6013 13.1518 37.8611" stroke="#204740" stroke-width="1.09" stroke-linecap="round" stroke-linejoin="round"/>
<path id="Vector_9" d="M34.4234 6.52228C34.4234 6.52228 31.8209 6.40564 30.6691 8.2937C29.5174 10.1818 30.4941 11.1294 31.3543 11.5741C31.5991 11.7162 31.8726 11.8014 32.1547 11.8235C32.4368 11.8456 32.7202 11.804 32.984 11.7019C33.2479 11.5997 33.4854 11.4395 33.679 11.2332C33.8726 11.0268 34.0174 10.7796 34.1026 10.5098C34.6785 8.78212 32.9873 8.06043 34.4234 6.52228Z" stroke="#204740" stroke-width="1.09" stroke-linecap="round" stroke-linejoin="round"/>
<path id="Vector_10" d="M32.4325 8.4978C32.4325 8.4978 30.7413 11.1513 31.3245 13.4986" stroke="#204740" stroke-width="1.09" stroke-linecap="round" stroke-linejoin="round"/>
<path id="Vector_11" d="M52.9317 7.54285C52.9317 7.54285 49.7242 6.57332 47.6977 8.55614C45.6711 10.539 46.5823 12.0334 47.5154 12.8571C47.7745 13.1131 48.0879 13.3073 48.4324 13.4252C48.777 13.5432 49.1436 13.5819 49.5052 13.5385C49.8667 13.495 50.2138 13.3706 50.5206 13.1743C50.8274 12.9781 51.086 12.7152 51.277 12.4052C52.5381 10.4296 50.6573 9.00081 52.9317 7.54285Z" fill="#65AF7C" stroke="#204740" stroke-width="1.09" stroke-linecap="round" stroke-linejoin="round"/>
<path id="Vector_12" d="M49.8339 9.37256C49.8339 9.37256 46.918 12.15 46.918 15.2481" stroke="#204740" stroke-width="1.09" stroke-linecap="round" stroke-linejoin="round"/>
<path id="Vector_13" d="M20.9882 4C20.9882 4 23.4886 6.47853 22.7961 9.27781C22.1036 12.0771 22.6211 14.6941 24.0426 15.6491" stroke="#204740" stroke-width="1.09" stroke-linecap="round" stroke-linejoin="round"/>
<path id="Vector_14" d="M40.5684 4.21136C40.5684 4.21136 41.8952 7.4772 40.1602 9.77349C38.4253 12.0698 37.8784 14.6868 38.8042 16.1229" stroke="#204740" stroke-width="1.09" stroke-linecap="round" stroke-linejoin="round"/>
<path id="Vector_15" d="M40.466 43.2264C48.6306 44.1741 54.3167 46.208 54.3167 48.5626C54.3167 51.8211 43.5059 54.46 30.1728 54.46C16.8398 54.46 6.03631 51.8211 6.03631 48.5626C6.03631 46.2663 11.3943 44.2762 19.2162 43.2993" stroke="#204740" stroke-linecap="round" stroke-linejoin="round"/>
</g>
</g>
</g>
</svg>
