<svg width="179" height="163" viewBox="0 0 179 163" fill="none" xmlns="http://www.w3.org/2000/svg">
<g id="Group 987">
<path id="Vector" d="M116.865 20.3058C90.6127 18.4108 49.4793 17.0243 16.4675 51.9558C-16.5444 86.8873 8.8298 138.161 31.4721 140.614C54.1144 143.067 98.0371 152.345 106.224 153.986C114.412 155.626 157.235 159.983 173.331 129.982C189.427 99.9804 161.025 85.7798 161.6 55.2291C162.174 24.6784 131.016 21.3313 116.865 20.3058Z" fill="url(#paint0_linear_328_779)" fill-opacity="0.22"/>
<path id="Vector_2" d="M117.267 13.7593C112.845 11.8642 89.0378 3.39802 63.9425 16.7619C38.8473 30.1258 4.20294 40.2246 9.3795 75.6893C14.5561 111.154 29.5688 146.89 51.12 159.983C72.6712 173.076 149.606 138.431 158.064 126.979C166.522 115.527 175.792 100.243 172.519 79.2333C169.246 58.2235 142.944 24.7769 117.267 13.7593Z" fill="url(#paint1_linear_328_779)" fill-opacity="0.22"/>
<path id="Vector_3" d="M84.0216 4.30037C77.6966 0.969649 59.5583 -4.72371 48.2863 7.30296C37.0144 19.3296 21.7307 41.6766 18.9988 69.5036C16.267 97.3307 11.2508 109.93 12.6327 123.525C14.1277 138.233 30.0985 166.258 60.8297 160.983C91.5609 155.708 110.298 169.187 125.213 158.26C140.127 147.333 172.942 131.655 176.174 90.6693C179.407 49.6834 94.2517 9.69022 84.0216 4.30037Z" fill="url(#paint2_linear_328_779)" fill-opacity="0.22"/>
</g>
<defs>
<linearGradient id="paint0_linear_328_779" x1="92.6579" y1="158.799" x2="47.9628" y2="33.1269" gradientUnits="userSpaceOnUse">
<stop stop-color="#B8D7A9"/>
<stop offset="1" stop-color="#73D89B"/>
</linearGradient>
<linearGradient id="paint1_linear_328_779" x1="36.3942" y1="133.033" x2="146.817" y2="47.85" gradientUnits="userSpaceOnUse">
<stop stop-color="#B8D7A9"/>
<stop offset="1" stop-color="#73D89B"/>
</linearGradient>
<linearGradient id="paint2_linear_328_779" x1="48.4884" y1="153.015" x2="145.766" y2="35.756" gradientUnits="userSpaceOnUse">
<stop stop-color="#B8D7A9"/>
<stop offset="1" stop-color="#73D89B"/>
</linearGradient>
</defs>
</svg>
