<svg width="48" height="48" viewBox="0 0 48 48" fill="none" xmlns="http://www.w3.org/2000/svg">
<g id="Group 762">
<circle id="Ellipse 77" cx="24" cy="24" r="24" fill="#65AF7C"/>
<g id="Mask group">
<mask id="mask0_326_747" style="mask-type:alpha" maskUnits="userSpaceOnUse" x="0" y="0" width="48" height="48">
<circle id="Ellipse 77_2" cx="24" cy="24" r="24" fill="#4385F5"/>
</mask>
<g mask="url(#mask0_326_747)">
<g id="Group 749">
<path id="Vector" d="M24.6226 31.7167L27.8411 28.4974C28.3072 28.0314 28.9392 27.7697 29.5983 27.7697C30.2573 27.7697 30.8894 28.0314 31.3554 28.4974L39.2976 36.4396C39.9532 37.0956 40.3216 37.985 40.3218 38.9125V52.4444H24.6226V31.7167Z" fill="white"/>
<path id="Vector_2" d="M22.9906 31.7167L19.7713 28.4974C19.3053 28.0314 18.6732 27.7697 18.0142 27.7697C17.3551 27.7697 16.7231 28.0314 16.257 28.4974L8.31562 36.4396C7.9907 36.7643 7.73295 37.1498 7.55707 37.5741C7.38119 37.9984 7.29063 38.4532 7.29058 38.9125V52.4444H22.9906V31.7167Z" fill="white"/>
<path id="Vector_3" d="M28.2615 36.2806C28.0932 36.2807 27.928 36.3254 27.7827 36.4104C27.6374 36.4953 27.5173 36.6174 27.4348 36.7641H24.6219V37.6973H27.4348C27.5169 37.8428 27.636 37.964 27.78 38.0488C27.9241 38.1335 28.0879 38.1787 28.2549 38.1799C28.422 38.1811 28.5865 38.1382 28.7317 38.0555C28.8768 37.9728 28.9976 37.8533 29.0818 37.7089C29.1661 37.5646 29.2107 37.4006 29.2113 37.2336C29.2119 37.0665 29.1684 36.9022 29.0851 36.7573C29.0019 36.6124 28.882 36.492 28.7373 36.4083C28.5927 36.3247 28.4286 36.2806 28.2615 36.2806Z" fill="#65AF7C"/>
<path id="Vector_4" d="M22.9898 36.7641H20.1056C20.0024 36.5811 19.8416 36.4374 19.6481 36.3555C19.4546 36.2736 19.2395 36.2581 19.0363 36.3114C18.8331 36.3647 18.6533 36.4839 18.525 36.6502C18.3966 36.8165 18.327 37.0207 18.327 37.2308C18.327 37.4408 18.3966 37.645 18.525 37.8113C18.6533 37.9777 18.8331 38.0968 19.0363 38.1501C19.2395 38.2034 19.4546 38.1879 19.6481 38.106C19.8416 38.0241 20.0024 37.8804 20.1056 37.6974H22.9898V36.7641Z" fill="#65AF7C"/>
<path id="Vector_5" d="M28.2615 40.4226C28.0932 40.4226 27.928 40.4674 27.7827 40.5524C27.6374 40.6373 27.5173 40.7594 27.4348 40.906H24.6219V41.8385H27.4348C27.5168 41.9841 27.6359 42.1055 27.7799 42.1903C27.9238 42.2752 28.0877 42.3206 28.2548 42.3219C28.422 42.3232 28.5865 42.2803 28.7318 42.1977C28.877 42.115 28.9979 41.9955 29.0822 41.8511C29.1665 41.7068 29.2112 41.5428 29.2118 41.3756C29.2123 41.2085 29.1688 41.0441 29.0855 40.8992C29.0023 40.7543 28.8822 40.6339 28.7376 40.5502C28.5929 40.4665 28.4287 40.4225 28.2615 40.4226Z" fill="#65AF7C"/>
<path id="Vector_6" d="M22.99 40.906H20.1058C20.0027 40.7232 19.842 40.5796 19.6487 40.4978C19.4554 40.4159 19.2405 40.4004 19.0374 40.4537C18.8344 40.507 18.6547 40.626 18.5265 40.7922C18.3983 40.9584 18.3288 41.1624 18.3288 41.3723C18.3288 41.5822 18.3983 41.7862 18.5265 41.9523C18.6547 42.1185 18.8344 42.2375 19.0374 42.2908C19.2405 42.3441 19.4554 42.3286 19.6487 42.2468C19.842 42.1649 20.0027 42.0213 20.1058 41.8385H22.99V40.906Z" fill="#65AF7C"/>
<path id="Vector_7" d="M7.72941 15.6176C7.80561 15.0695 8.75117 7.37473 17.693 4.64621C25.6033 2.23233 31.7445 4.02757 36.0159 8.04333C39.7514 11.5544 40.5028 18.7173 38.161 21.9932C35.8192 25.2691 32.5655 26.1982 27.7992 26.3277C23.0329 26.4571 16.2165 26.5473 16.2165 26.5473C16.2165 26.5473 6.14392 27.0782 7.72941 15.6176Z" fill="white"/>
<path id="Vector_8" d="M15.9644 23.5697C14.0462 23.4722 9.27337 22.6856 9.11195 18.3003C8.95054 13.915 11.3202 8.64231 17.5515 7.49928C23.7829 6.35625 30.5239 6.79707 33.83 11.0537C36.7847 14.8589 36.1833 21.5712 30.3739 22.811C24.5646 24.0507 19.6934 23.7598 15.9644 23.5697Z" fill="#65AF7C"/>
<path id="Vector_9" d="M13.5667 17.3727C13.5296 17.3727 13.4926 17.3694 13.4561 17.3629C13.2848 17.3336 13.1321 17.2375 13.0316 17.0957C12.9311 16.9539 12.891 16.778 12.9202 16.6066C13.0537 15.8289 13.4215 15.1105 13.9744 14.5476C14.5273 13.9846 15.2389 13.6039 16.014 13.4563C16.7892 13.3088 17.5909 13.4015 18.3119 13.7219C19.033 14.0424 19.6389 14.5755 20.0488 15.2497C20.139 15.3984 20.1664 15.5767 20.1251 15.7456C20.0838 15.9145 19.977 16.06 19.8284 16.1502C19.6797 16.2404 19.5014 16.2679 19.3325 16.2265C19.1636 16.1852 19.0181 16.0785 18.9279 15.9298C18.6571 15.4828 18.2562 15.1292 17.7788 14.9165C17.3014 14.7038 16.7704 14.6421 16.2569 14.7398C15.7435 14.8374 15.2722 15.0897 14.9062 15.4627C14.5401 15.8358 14.2969 16.3118 14.2091 16.827C14.1833 16.979 14.1047 17.117 13.9873 17.2168C13.8698 17.3166 13.7209 17.3718 13.5667 17.3727Z" fill="white"/>
<path id="Vector_10" d="M24.558 16.5574C24.4891 16.5572 24.4205 16.5464 24.3548 16.5254C24.2729 16.4988 24.1971 16.4562 24.1316 16.4003C24.0661 16.3443 24.0123 16.276 23.9733 16.1992C23.9343 16.1224 23.9108 16.0387 23.9041 15.9528C23.8974 15.8669 23.9077 15.7806 23.9345 15.6987C24.1794 14.9476 24.648 14.2894 25.2775 13.8123C25.9071 13.3351 26.6675 13.0618 27.4567 13.029C28.246 12.9962 29.0264 13.2054 29.6934 13.6287C30.3604 14.052 30.882 14.669 31.1884 15.3972C31.2507 15.5563 31.2484 15.7336 31.1819 15.891C31.1154 16.0485 30.99 16.1738 30.8325 16.2401C30.675 16.3065 30.4977 16.3087 30.3386 16.2463C30.1795 16.1839 30.051 16.0618 29.9807 15.906C29.7778 15.4244 29.4326 15.0162 28.9913 14.7363C28.55 14.4563 28.0337 14.3179 27.5116 14.3395C26.9894 14.3612 26.4864 14.5419 26.0698 14.8574C25.6532 15.173 25.343 15.6083 25.1808 16.1051C25.1379 16.2365 25.0546 16.351 24.9428 16.4323C24.8309 16.5135 24.6963 16.5573 24.558 16.5574Z" fill="white"/>
</g>
</g>
</g>
</g>
</svg>
