<svg width="30" height="30" viewBox="0 0 30 30" fill="none" xmlns="http://www.w3.org/2000/svg">
<g id="ico_wellness_sel">
<g id="Group 906">
<path id="Vector" d="M18.3812 11.5656C17.6163 9.48332 16.4684 7.56265 14.9967 5.90283C13.5255 7.56229 12.3783 9.48266 11.6143 11.5646C8.78687 9.47831 4.90234 10.0144 4.90234 10.0144C4.90234 10.0144 5.04636 16.1232 9.14192 20.2158C9.91271 20.9864 10.9519 21.4288 12.0417 21.4503C13.1314 21.4717 14.1872 21.0705 14.9877 20.3308H15.0027C15.8053 21.0708 16.8628 21.472 17.9542 21.4505C19.0457 21.4291 20.0866 20.9867 20.8595 20.2158C24.9551 16.1152 25.1001 10.0144 25.1001 10.0144C25.1001 10.0144 21.2136 9.47732 18.3812 11.5656Z" fill="#C1E1CE"/>
<path id="Vector_2" d="M7.56248 25.8903H4.90012C4.66139 25.8903 4.43245 25.7955 4.26364 25.6267C4.09483 25.4579 4 25.2289 4 24.9902C4 24.7515 4.09483 24.5225 4.26364 24.3537C4.43245 24.1849 4.66139 24.0901 4.90012 24.0901H7.56248C7.80121 24.0901 8.03016 24.1849 8.19896 24.3537C8.36777 24.5225 8.4626 24.7515 8.4626 24.9902C8.4626 25.2289 8.36777 25.4579 8.19896 25.6267C8.03016 25.7955 7.80121 25.8903 7.56248 25.8903Z" fill="#65AF7C"/>
<path id="Vector_3" d="M25.0999 25.8903H22.4265C22.1878 25.8903 21.9588 25.7955 21.79 25.6267C21.6212 25.4579 21.5264 25.2289 21.5264 24.9902C21.5264 24.7515 21.6212 24.5225 21.79 24.3537C21.9588 24.1849 22.1878 24.0901 22.4265 24.0901H25.0999C25.3386 24.0901 25.5676 24.1849 25.7364 24.3537C25.9052 24.5225 26 24.7515 26 24.9902C26 25.2289 25.9052 25.4579 25.7364 25.6267C25.5676 25.7955 25.3386 25.8903 25.0999 25.8903Z" fill="#65AF7C"/>
<path id="Vector_4" d="M15.9542 25.8901H14.031C13.7923 25.8901 13.5633 25.7953 13.3945 25.6265C13.2257 25.4576 13.1309 25.2287 13.1309 24.99C13.1309 24.7512 13.2257 24.5223 13.3945 24.3535C13.5633 24.1847 13.7923 24.0898 14.031 24.0898H15.9542C16.193 24.0898 16.4219 24.1847 16.5907 24.3535C16.7595 24.5223 16.8544 24.7512 16.8544 24.99C16.8544 25.2287 16.7595 25.4576 16.5907 25.6265C16.4219 25.7953 16.193 25.8901 15.9542 25.8901Z" fill="#65AF7C"/>
<path id="Vector_5" d="M10.8064 25.8921C11.3041 25.8921 11.7075 25.4886 11.7075 24.991C11.7075 24.4933 11.3041 24.0898 10.8064 24.0898C10.3087 24.0898 9.90527 24.4933 9.90527 24.991C9.90527 25.4886 10.3087 25.8921 10.8064 25.8921Z" fill="#65AF7C"/>
<path id="Vector_6" d="M19.1851 25.8923C19.6828 25.8923 20.0862 25.4889 20.0862 24.9912C20.0862 24.4935 19.6828 24.0901 19.1851 24.0901C18.6874 24.0901 18.284 24.4935 18.284 24.9912C18.284 25.4889 18.6874 25.8923 19.1851 25.8923Z" fill="#65AF7C"/>
<path id="Vector_7" d="M25.2229 9.12406C25.0669 9.10305 21.7375 8.66799 18.8221 10.2242C18.0366 8.41594 16.9654 6.74573 15.6496 5.27754C15.5656 5.1898 15.4647 5.11999 15.353 5.07229C15.2412 5.02459 15.121 5 14.9995 5C14.8781 5 14.7578 5.02459 14.6461 5.07229C14.5344 5.11999 14.4335 5.1898 14.3495 5.27754C13.0342 6.74662 11.964 8.4179 11.18 10.2272C8.26563 8.668 4.93718 9.10206 4.77916 9.12706C4.56061 9.15765 4.36092 9.26745 4.21802 9.43561C4.07513 9.60377 3.99898 9.81857 4.00405 10.0392C4.01005 10.3032 4.20408 16.5581 8.50466 20.8587C9.34406 21.7051 10.4538 22.2304 11.6405 22.3429C12.8273 22.4555 14.016 22.1483 14.9995 21.4747C15.9831 22.1483 17.1718 22.4555 18.3586 22.3429C19.5453 22.2304 20.655 21.7051 21.4944 20.8587C25.795 16.5581 25.995 10.3032 25.995 10.0392C26.0009 9.81851 25.9256 9.60336 25.7832 9.43463C25.6408 9.26591 25.4414 9.15537 25.2229 9.12406ZM14.9995 7.30582C16.1267 8.76702 18.318 12.1235 18.318 16.117C18.317 16.9813 17.9792 17.8112 17.3762 18.4305C16.7732 19.0497 15.9525 19.4095 15.0886 19.4335H15.0365H14.9655H14.9125C14.0477 19.41 13.2262 19.0502 12.6226 18.4305C12.0189 17.8108 11.6808 16.9801 11.6801 16.115C11.6801 12.1225 13.8734 8.76702 14.9995 7.30582ZM9.77983 19.5845C6.87344 16.6781 6.08633 12.6075 5.87931 10.8533C6.96145 10.8353 8.89071 10.9643 10.5439 11.9324C10.113 13.2852 9.8891 14.6953 9.87985 16.115C9.88056 17.0132 10.1175 17.8954 10.5669 18.6731C11.0163 19.4507 11.6623 20.0965 12.4402 20.5456C11.9533 20.5919 11.4622 20.5297 11.0022 20.3635C10.5422 20.1973 10.1247 19.9313 9.77983 19.5845ZM20.2252 19.5845C19.8803 19.9321 19.4624 20.1986 19.0017 20.3646C18.5411 20.5307 18.0492 20.5922 17.5619 20.5446C18.3388 20.0951 18.9839 19.4493 19.4324 18.6718C19.8809 17.8943 20.1171 17.0126 20.1172 16.115C20.1104 14.6953 19.8889 13.2848 19.4601 11.9314C21.1074 10.9693 23.0406 10.8313 24.1258 10.8533C23.9157 12.6145 23.1286 16.6791 20.2232 19.5845H20.2252Z" fill="#65AF7C"/>
</g>
</g>
</svg>
