<svg width="30" height="30" viewBox="0 0 30 30" fill="none" xmlns="http://www.w3.org/2000/svg">
<g id="ico_soda_sel">
<g id="Group 856">
<g id="Group 827">
<path id="Vector 9" d="M13.5 14C10.7 12.8 9.16667 14.1666 8 15L9 25H20L21.5 13C19.5 14.5 17 15.5 13.5 14Z" fill="url(#paint0_linear_380_2905)" fill-opacity="0.3"/>
<path id="Vector 8" d="M12.5 15C9.3 16.6 8.33333 15 7.5 14L9 25H20L21 15.5C19.5 14.5 16.5 13 12.5 15Z" fill="url(#paint1_linear_380_2905)" fill-opacity="0.3"/>
</g>
<path id="Vector" d="M24.7496 6.76125C24.5433 6.64146 24.2979 6.60851 24.0673 6.66962C23.8367 6.73074 23.6398 6.88092 23.5199 7.08716C23.2193 7.60815 22.8655 8.09663 22.4642 8.54477C21.985 8.07823 21.2219 7.68366 20.1749 7.36108C18.6413 6.89621 16.6198 6.63928 14.4814 6.63928C13.5707 6.63798 12.6606 6.68671 11.7552 6.78525L11.3383 4.72181C11.2972 4.51821 11.1869 4.3351 11.0262 4.20353C10.8655 4.07197 10.6642 4.00005 10.4565 4H5.89975C5.7816 4 5.6646 4.02328 5.55543 4.0685C5.44627 4.11372 5.34708 4.17999 5.26353 4.26354C5.17998 4.34709 5.11371 4.44628 5.06849 4.55544C5.02327 4.6646 5 4.7816 5 4.89975C5 5.01791 5.02327 5.13492 5.06849 5.24408C5.11371 5.35325 5.17998 5.45243 5.26353 5.53598C5.34708 5.61953 5.44627 5.6858 5.55543 5.73102C5.6646 5.77624 5.7816 5.79951 5.89975 5.79951H9.71971L9.97564 7.06317C9.55476 7.15014 9.15687 7.24911 8.78797 7.36308C6.87149 7.94592 5.89975 8.79069 5.89975 9.8744C5.89975 10.9581 6.87149 11.8029 8.78797 12.3847C9.5618 12.6116 10.3519 12.7787 11.1513 12.8846L13.4367 24.1965H10.2756L8.12215 13.5394C8.07399 13.3063 7.93544 13.1018 7.73682 12.9706C7.53821 12.8395 7.29572 12.7924 7.06244 12.8396C6.82935 12.8877 6.62483 13.0263 6.49367 13.2249C6.36251 13.4235 6.31539 13.666 6.36263 13.8993L8.662 25.2782C8.70308 25.4818 8.81333 25.6649 8.97405 25.7965C9.13477 25.928 9.33606 25.9999 9.54376 26H19.4261C19.637 25.9998 19.8411 25.9255 20.0028 25.7901C20.1646 25.6547 20.2736 25.4668 20.3108 25.2592L22.9511 10.5802C23.7984 9.84239 24.5152 8.96703 25.0715 7.99092C25.1916 7.7851 25.2252 7.54004 25.1649 7.30951C25.1045 7.07898 24.9552 6.8818 24.7496 6.76125ZM9.63574 10.7532C8.37208 10.4143 7.85922 10.0364 7.72526 9.8724C7.85922 9.70744 8.37208 9.32955 9.63574 8.99064C9.85667 8.93166 10.0906 8.87767 10.3355 8.82669L10.7754 11.0021C10.3695 10.9281 9.98864 10.8481 9.63574 10.7532ZM18.6733 24.1955H15.2742L13.0258 13.0635C13.5027 13.0905 13.9895 13.1045 14.4834 13.1045H14.5294C15.929 13.1045 18.4533 13.0985 20.8817 11.9278L18.6733 24.1955ZM14.5294 11.305H14.4814C13.8586 11.305 13.2457 11.281 12.6539 11.235L12.1131 8.55676C12.9 8.47757 13.6905 8.43819 14.4814 8.43879C16.2809 8.43879 17.9985 8.63874 19.3281 8.99064C20.3278 9.25757 20.8547 9.55049 21.0996 9.74244C18.8302 11.297 16.1789 11.305 14.5294 11.305Z" fill="#65AF7C"/>
</g>
</g>
<defs>
<linearGradient id="paint0_linear_380_2905" x1="10.024" y1="24.347" x2="15.8062" y2="14.2829" gradientUnits="userSpaceOnUse">
<stop stop-color="#B8D7A9"/>
<stop offset="1" stop-color="#73D89B"/>
</linearGradient>
<linearGradient id="paint1_linear_380_2905" x1="9.524" y1="24.347" x2="15.3062" y2="14.2829" gradientUnits="userSpaceOnUse">
<stop stop-color="#B8D7A9"/>
<stop offset="1" stop-color="#73D89B"/>
</linearGradient>
</defs>
</svg>
