<svg width="28" height="28" viewBox="0 0 28 28" fill="none" xmlns="http://www.w3.org/2000/svg">
<path id="Vector" d="M23.2488 27.9962C22.9448 27.9962 22.6532 27.8754 22.4382 27.6604C22.2232 27.4454 22.1024 27.1538 22.1024 26.8498C22.1024 26.5457 22.2232 26.2542 22.4382 26.0392C22.6532 25.8242 22.9448 25.7034 23.2488 25.7034C23.8994 25.7027 24.5232 25.4441 24.9833 24.9842C25.4434 24.5243 25.7024 23.9007 25.7034 23.2501V9.55709C25.7027 8.90563 25.4436 8.28106 24.983 7.82041C24.5223 7.35976 23.8977 7.10067 23.2463 7.09999H21.0809C20.8565 7.09988 20.6371 7.03392 20.4498 6.9103C20.2626 6.78667 20.1158 6.61081 20.0275 6.40451L18.6391 3.16023C18.5289 2.90223 18.3453 2.68232 18.1112 2.52786C17.877 2.3734 17.6025 2.29121 17.322 2.29152H10.6666C10.3861 2.29138 10.1117 2.37364 9.87756 2.52808C9.64341 2.68252 9.45982 2.90233 9.34951 3.16023L7.96236 6.40451C7.87402 6.61101 7.72699 6.787 7.53949 6.91065C7.35199 7.03429 7.13231 7.10013 6.90771 7.09999H4.7423C4.09118 7.10067 3.46689 7.35962 3.00648 7.82003C2.54607 8.28045 2.28711 8.90471 2.28644 9.55582V23.2488C2.28712 23.8995 2.54596 24.5233 3.00617 24.9833C3.46638 25.4432 4.09033 25.7018 4.741 25.7021H6.9064C8.62755 25.7017 10.3298 25.3429 11.9047 24.6487C11.6996 24.4589 11.5034 24.2666 11.3124 24.059C9.48195 22.0986 8.47442 19.6288 8.47442 17.1054C8.47806 15.6408 9.0593 14.2368 10.0919 13.1982C11.1246 12.1596 12.5253 11.5703 13.9898 11.5582H14.0561C15.5209 11.5719 16.9213 12.163 17.953 13.2031C18.9847 14.2431 19.5645 15.6481 19.5664 17.1131C19.5664 19.8466 18.3321 22.6272 16.0699 24.6958C17.086 25.1461 18.1621 25.4464 19.2645 25.5875C19.5656 25.6283 19.8382 25.787 20.0224 26.0287C20.2065 26.2704 20.2872 26.5754 20.2466 26.8765C20.2058 27.1776 20.047 27.4502 19.8053 27.6344C19.5636 27.8185 19.2587 27.8992 18.9575 27.8586C17.2143 27.6374 15.5319 27.0747 14.0064 26.2027C12.0792 27.3185 9.69211 28 6.91275 28H4.74734C3.4888 27.999 2.28211 27.4987 1.39207 26.6089C0.502023 25.7191 0.00134924 24.5125 0 23.2539V9.56092C-1.13052e-06 8.30126 0.499959 7.0931 1.39008 6.20179C2.28019 5.31048 3.48768 4.8089 4.74734 4.80721H6.15489L7.24525 2.25967C7.53148 1.58929 8.00829 1.01775 8.61654 0.616032C9.22478 0.214311 9.93764 0.000101462 10.6666 6.88637e-06H17.3195C18.0497 -0.00139776 18.7642 0.212111 19.3739 0.613926C19.9837 1.01574 20.4617 1.58809 20.7484 2.25967L21.8388 4.80721H23.2463C24.5054 4.80856 25.7126 5.30925 26.6031 6.19945C27.4935 7.08966 27.9945 8.29671 27.9962 9.55582V23.2488C27.9952 24.5076 27.4947 25.7145 26.6046 26.6046C25.7145 27.4947 24.5076 27.9952 23.2488 27.9962ZM14.023 13.851C13.1602 13.855 12.3341 14.2004 11.7253 14.8117C11.1164 15.4229 10.7742 16.2503 10.7735 17.1131C10.7735 19.3447 11.8678 21.7407 13.9962 23.4348C15.9527 21.9585 17.2736 19.8071 17.2736 17.1131C17.2726 16.2502 16.9302 15.4228 16.3211 14.8116C15.712 14.2004 14.8858 13.855 14.023 13.851Z" fill="#1A342B"/>
</svg>
