<svg width="45" height="44" viewBox="0 0 45 44" fill="none" xmlns="http://www.w3.org/2000/svg">
<g id="Group 1149">
<path id="Vector" d="M36.6343 30.1027C35.3822 30.44 34.0918 30.6142 32.7951 30.621C32.9487 29.6612 32.7087 28.212 31.5858 26.1004C29.9807 23.291 27.9871 20.7222 25.6639 18.4701C23.4112 16.1503 20.8424 14.1599 18.0336 12.5578C14.5783 10.7054 12.9467 11.2333 12.1885 12.0011C11.4302 12.769 10.9024 14.391 12.7452 17.8463C14.3559 20.6715 16.3558 23.2562 18.6862 25.5246C20.4714 27.3098 23.4852 30.3235 27.6699 31.7248L19.7996 34.7673C13.4746 32.3582 9.3667 24.344 8.55088 22.6452L10.1729 17.6255C10.2483 17.3837 10.225 17.1219 10.1081 16.8971C9.99128 16.6724 9.79032 16.503 9.54906 16.4258C9.30723 16.347 9.04404 16.3675 8.8173 16.4827C8.59055 16.5979 8.41879 16.7983 8.33973 17.04L0.0375611 42.7432C-0.0109868 42.9115 -0.0125017 43.09 0.0331807 43.2592C0.0788631 43.4284 0.169999 43.5819 0.296704 43.7029C0.387026 43.7977 0.495777 43.873 0.616269 43.9241C0.73676 43.9753 0.866446 44.0013 0.997349 44.0005C1.11538 43.9967 1.23203 43.974 1.34287 43.9333L11.459 40.0078L31.0483 32.435C33.0875 32.6437 35.1477 32.4712 37.1238 31.9263C37.3691 31.861 37.5786 31.7011 37.7064 31.4816C37.8341 31.2622 37.8696 31.001 37.8052 30.7554C37.7338 30.5153 37.5713 30.3127 37.3526 30.1908C37.1338 30.0688 36.876 30.0372 36.6343 30.1027ZM17.3137 35.6887L11.0079 38.117C6.87125 37.5411 5.55634 33.7307 5.24921 32.7422L7.71586 25.2174C9.29951 28.0872 12.582 33.1069 17.3137 35.6887ZM4.3854 35.5351C5.24759 37.1119 6.56104 38.3953 8.15737 39.2207L2.47542 41.4186L4.3854 35.5351ZM30.8659 30.4483C25.6543 29.6996 22.0455 26.1004 20.0395 24.0849C17.8439 21.9699 15.957 19.5563 14.4344 16.9153C13.2922 14.7653 13.273 13.5944 13.5418 13.3257C13.6974 13.2138 13.8885 13.1626 14.0793 13.1817C15.1617 13.293 16.205 13.6474 17.1314 14.2183C19.7721 15.7341 22.1885 17.611 24.3106 19.7946C26.4971 21.9141 28.3743 24.3309 29.887 26.9738C30.9235 28.8934 31.0387 30.0356 30.8659 30.4483Z" fill="#65AF7C"/>
<path id="Vector_2" d="M43.6025 15.8306C43.3758 15.7168 43.1133 15.6973 42.8723 15.7764C42.6313 15.8555 42.4314 16.0269 42.3164 16.2529C42.1054 16.7745 41.7932 17.2491 41.3978 17.6494C41.0025 18.0497 40.5318 18.3678 40.0129 18.5852C39.5548 18.6847 39.0789 18.6649 38.6308 18.5276L38.3428 18.4604C37.7481 18.2841 37.1299 18.2 36.5096 18.2109C35.8514 18.2495 35.2142 18.457 34.6595 18.8134C34.1047 19.1698 33.6511 19.663 33.3423 20.2456C33.2841 20.3578 33.2486 20.4803 33.2379 20.6062C33.2271 20.732 33.2413 20.8588 33.2796 20.9792C33.318 21.0996 33.3797 21.2112 33.4613 21.3077C33.5429 21.4041 33.6427 21.4835 33.7551 21.5413C33.8925 21.609 34.0434 21.6451 34.1966 21.6469C34.3728 21.6473 34.5457 21.5991 34.6964 21.5077C34.8471 21.4163 34.9697 21.2851 35.0508 21.1286C35.2098 20.8521 35.4352 20.6195 35.7067 20.4519C35.9781 20.2843 36.2871 20.187 36.6056 20.1689C37.0542 20.1756 37.4998 20.2434 37.9301 20.3704L38.2373 20.4376C39.025 20.6589 39.8586 20.6589 40.6463 20.4376C41.403 20.1454 42.0939 19.7055 42.6789 19.1436C43.2638 18.5817 43.7311 17.909 44.0536 17.1647C44.1167 17.0485 44.1551 16.9205 44.1665 16.7888C44.1778 16.6571 44.1618 16.5244 44.1194 16.3991C44.0771 16.2739 44.0093 16.1587 43.9203 16.0609C43.8314 15.9631 43.7232 15.8847 43.6025 15.8306Z" fill="#65AF7C"/>
<path id="Vector_3" d="M20.682 11.2322C20.7862 11.231 20.8896 11.2148 20.9892 11.1842C21.1105 11.1433 21.2223 11.0785 21.3182 10.9937C21.4141 10.909 21.4921 10.8059 21.5475 10.6905C21.603 10.5751 21.6348 10.4498 21.6411 10.322C21.6474 10.1941 21.6281 10.0663 21.5842 9.94606C21.486 9.63824 21.467 9.3106 21.5291 8.9935C21.5912 8.6764 21.7323 8.3801 21.9394 8.13206C22.2495 7.81122 22.6013 7.53359 22.9855 7.30664L23.2543 7.13388C23.9562 6.71752 24.5305 6.11666 24.9147 5.39667C25.2265 4.64687 25.387 3.84283 25.387 3.03079C25.387 2.21875 25.2265 1.41472 24.9147 0.664915C24.8728 0.545608 24.8077 0.435764 24.7231 0.3417C24.6386 0.247635 24.5363 0.171203 24.4221 0.116797C24.308 0.0623907 24.1842 0.0310817 24.0579 0.0246713C23.9316 0.0182609 23.8053 0.0368765 23.6862 0.0794443C23.5643 0.118455 23.4514 0.181446 23.3542 0.264717C23.2571 0.347988 23.1775 0.449856 23.1203 0.564325C23.063 0.678793 23.0293 0.80355 23.021 0.93126C23.0127 1.05897 23.03 1.18705 23.0719 1.30797C23.5317 2.34081 23.5661 3.51317 23.1679 4.57125C22.9334 4.96648 22.6033 5.2965 22.2081 5.53104L21.9586 5.6942C21.42 6.01835 20.929 6.41565 20.4997 6.87474C20.0741 7.37792 19.7852 7.98218 19.6608 8.62935C19.5364 9.27653 19.5807 9.94483 19.7894 10.5699C19.8511 10.7593 19.9702 10.9247 20.1301 11.0434C20.2901 11.1621 20.4829 11.228 20.682 11.2322Z" fill="#65AF7C"/>
<path id="Vector_4" d="M31.7106 15.0719C31.8878 15.2528 32.1293 15.3563 32.3824 15.3599C32.5824 15.3586 32.7771 15.2948 32.9391 15.1775L43.7367 7.49921C43.8508 7.41877 43.946 7.3144 44.0156 7.19339C44.0852 7.07238 44.1276 6.93764 44.1398 6.79856C44.1513 6.65954 44.1324 6.51969 44.0843 6.38874C44.0362 6.25779 43.9602 6.13889 43.8615 6.04033L38.1028 0.281602C38.0042 0.182895 37.8853 0.10686 37.7543 0.0587901C37.6234 0.0107203 37.4835 -0.00822956 37.3445 0.00326287C37.2062 0.0143222 37.072 0.0552287 36.951 0.123163C36.8301 0.191097 36.7253 0.284445 36.6439 0.396776L28.8888 11.1272C28.7567 11.3126 28.6948 11.5389 28.7142 11.7657C28.7335 11.9924 28.8328 12.205 28.9944 12.3653L31.7106 15.0719ZM37.5365 2.46992L41.702 6.6354L32.488 13.1428L30.9331 11.5879L37.5365 2.46992Z" fill="#65AF7C"/>
<path id="Vector_5" d="M12.15 6.10824H13.0234V6.98165C13.0234 7.2362 13.1245 7.48032 13.3045 7.66032C13.4845 7.84031 13.7286 7.94143 13.9832 7.94143C14.2377 7.94143 14.4818 7.84031 14.6618 7.66032C14.8418 7.48032 14.943 7.2362 14.943 6.98165V6.10824H15.8164C16.0709 6.10824 16.315 6.00712 16.495 5.82712C16.675 5.64713 16.7762 5.403 16.7762 5.14845C16.7762 4.8939 16.675 4.64977 16.495 4.46978C16.315 4.28978 16.0709 4.18866 15.8164 4.18866H14.943V3.31526C14.943 3.06071 14.8418 2.81658 14.6618 2.63658C14.4818 2.45659 14.2377 2.35547 13.9832 2.35547C13.7286 2.35547 13.4845 2.45659 13.3045 2.63658C13.1245 2.81658 13.0234 3.06071 13.0234 3.31526V4.18866H12.15C11.8954 4.18866 11.6513 4.28978 11.4713 4.46978C11.2913 4.64977 11.1902 4.8939 11.1902 5.14845C11.1902 5.27449 11.215 5.3993 11.2632 5.51575C11.3115 5.63219 11.3822 5.738 11.4713 5.82712C11.5604 5.91625 11.6662 5.98694 11.7827 6.03518C11.8991 6.08341 12.0239 6.10824 12.15 6.10824Z" fill="#65AF7C"/>
<path id="Vector_6" d="M41.5588 25.466H40.6854V24.5926C40.6854 24.338 40.5843 24.0939 40.4043 23.9139C40.2243 23.7339 39.9802 23.6328 39.7256 23.6328C39.471 23.6328 39.2269 23.7339 39.0469 23.9139C38.8669 24.0939 38.7658 24.338 38.7658 24.5926V25.466H37.8924C37.6379 25.466 37.3937 25.5671 37.2137 25.7471C37.0337 25.9271 36.9326 26.1712 36.9326 26.4258C36.9326 26.6803 37.0337 26.9245 37.2137 27.1045C37.3937 27.2845 37.6379 27.3856 37.8924 27.3856H38.7658V28.259C38.7658 28.5135 38.8669 28.7577 39.0469 28.9377C39.2269 29.1177 39.471 29.2188 39.7256 29.2188C39.9802 29.2188 40.2243 29.1177 40.4043 28.9377C40.5843 28.7577 40.6854 28.5135 40.6854 28.259V27.3856H41.5588C41.8133 27.3856 42.0575 27.2845 42.2375 27.1045C42.4175 26.9245 42.5186 26.6803 42.5186 26.4258C42.5186 26.1712 42.4175 25.9271 42.2375 25.7471C42.0575 25.5671 41.8133 25.466 41.5588 25.466Z" fill="#65AF7C"/>
<path id="Vector_7" d="M31.5092 38.9893H30.6262V38.1063C30.6262 37.8517 30.5251 37.6076 30.3451 37.4276C30.1651 37.2476 29.921 37.1465 29.6665 37.1465C29.4119 37.1465 29.1678 37.2476 28.9878 37.4276C28.8078 37.6076 28.7067 37.8517 28.7067 38.1063V38.9893H27.8717C27.6171 38.9893 27.373 39.0904 27.193 39.2704C27.013 39.4504 26.9119 39.6945 26.9119 39.9491C26.9119 40.2036 27.013 40.4477 27.193 40.6277C27.373 40.8077 27.6171 40.9089 27.8717 40.9089H28.7451V41.7823C28.7451 42.0368 28.8462 42.2809 29.0262 42.4609C29.2062 42.6409 29.4503 42.742 29.7048 42.742C29.9594 42.742 30.2035 42.6409 30.3835 42.4609C30.5635 42.2809 30.6646 42.0368 30.6646 41.7823V40.9089H31.5476C31.8022 40.9089 32.0463 40.8077 32.2263 40.6277C32.4063 40.4477 32.5074 40.2036 32.5074 39.9491C32.5075 39.8197 32.4815 39.6917 32.4309 39.5727C32.3803 39.4537 32.3061 39.3461 32.2129 39.2564C32.1196 39.1668 32.0093 39.0969 31.8883 39.051C31.7674 39.0051 31.6385 38.9841 31.5092 38.9893Z" fill="#65AF7C"/>
<path id="Vector_8" d="M1.18049 11.8661H2.0635V12.8258C2.0635 13.0804 2.16462 13.3245 2.34461 13.5045C2.52461 13.6845 2.76873 13.7856 3.02328 13.7856C3.27783 13.7856 3.52196 13.6845 3.70196 13.5045C3.88195 13.3245 3.98307 13.0804 3.98307 12.8258V11.8661H4.83728C5.09183 11.8661 5.33596 11.7649 5.51595 11.5849C5.69595 11.4049 5.79707 11.1608 5.79707 10.9063C5.79707 10.6517 5.69595 10.4076 5.51595 10.2276C5.33596 10.0476 5.09183 9.94648 4.83728 9.94648H3.98307V9.07307C3.98307 8.81852 3.88195 8.57439 3.70196 8.3944C3.52196 8.2144 3.27783 8.11328 3.02328 8.11328C2.76873 8.11328 2.52461 8.2144 2.34461 8.3944C2.16462 8.57439 2.0635 8.81852 2.0635 9.07307V9.94648H1.18049C0.925939 9.94648 0.681814 10.0476 0.501818 10.2276C0.321823 10.4076 0.220703 10.6517 0.220703 10.9063C0.220703 11.1608 0.321823 11.4049 0.501818 11.5849C0.681814 11.7649 0.925939 11.8661 1.18049 11.8661Z" fill="#65AF7C"/>
</g>
</svg>
