<svg width="22" height="22" viewBox="0 0 22 22" fill="none" xmlns="http://www.w3.org/2000/svg">
<g id="ico_Share">
<path id="Vector" d="M10.6048 17.8082C10.5073 17.8081 10.4111 17.7863 10.323 17.7443C10.2099 17.691 10.1143 17.6065 10.0472 17.5009C9.98019 17.3953 9.94453 17.2728 9.94439 17.1477V13.9724H7.39579C7.22063 13.9724 7.05264 13.9029 6.92878 13.779C6.80492 13.6551 6.73534 13.4872 6.73534 13.312C6.73534 13.1368 6.80492 12.9688 6.92878 12.845C7.05264 12.7211 7.22063 12.6515 7.39579 12.6515H10.6048C10.78 12.6515 10.948 12.7211 11.0719 12.845C11.1957 12.9688 11.2653 13.1368 11.2653 13.312V15.749L17.3612 10.7355L10.9321 5.4519C10.7587 6.12557 10.6668 6.81765 10.6584 7.51324H10.6643C11.7129 7.51324 12.3682 7.74879 12.9392 8.2933C13.2727 8.6075 13.4748 9.0364 13.5047 9.49364C13.5347 9.95087 13.3903 10.4025 13.1006 10.7575C12.4402 11.5728 11.3673 11.6469 10.4904 10.9388C10.108 10.6298 9.66261 10.042 9.45714 8.9332C8.68221 9.06529 7.59025 9.39698 6.62233 10.2203C5.05046 11.5581 4.25425 13.7714 4.25425 16.7984C4.25425 16.9736 4.18467 17.1416 4.06081 17.2654C3.93695 17.3893 3.76896 17.4589 3.5938 17.4589C3.41864 17.4589 3.25065 17.3893 3.12679 17.2654C3.00293 17.1416 2.93335 16.9736 2.93335 16.7984C2.93335 13.3663 3.88734 10.8147 5.76669 9.21426C7.00466 8.16048 8.39527 7.76273 9.34265 7.61377C9.33898 6.42569 9.5782 5.11874 9.99282 4.08257C10.0315 3.98613 10.0924 3.90017 10.1706 3.8317C10.2487 3.76322 10.342 3.71416 10.4427 3.68849C10.5438 3.66204 10.6497 3.65997 10.7518 3.68242C10.8538 3.70487 10.9491 3.75121 11.0297 3.81765L18.826 10.2292C18.9013 10.2911 18.9619 10.369 19.0035 10.4572C19.0451 10.5454 19.0667 10.6417 19.0667 10.7392C19.0672 10.8373 19.0459 10.9343 19.0043 11.0232C18.9626 11.112 18.9017 11.1905 18.826 11.2528L11.0297 17.6644C10.9092 17.7604 10.7589 17.8113 10.6048 17.8082ZM10.7802 8.83267C10.8881 9.32214 11.0686 9.70519 11.3189 9.90699C11.4333 10.0002 11.7819 10.282 12.0725 9.92242C12.1532 9.82472 12.1932 9.69969 12.1841 9.57331C12.1751 9.44693 12.1178 9.32888 12.0241 9.24362C11.8039 9.03668 11.5353 8.85102 10.7766 8.83267H10.7802Z" fill="#1A342B"/>
</g>
</svg>
