<svg width="30" height="30" viewBox="0 0 30 30" fill="none" xmlns="http://www.w3.org/2000/svg">
<g id="ico_AIvoice">
<g id="Group 1021">
<g id="ico_voice">
<path id="Vector" d="M14.5369 22.7243C16.1276 22.5767 17.606 21.8409 18.6829 20.6609C19.7598 19.4809 20.3577 17.9415 20.3596 16.344C20.3596 16.1693 20.2902 16.0018 20.1667 15.8783C20.0432 15.7548 19.8757 15.6854 19.701 15.6854C19.5263 15.6854 19.3588 15.7548 19.2353 15.8783C19.1118 16.0018 19.0424 16.1693 19.0424 16.344C19.0407 17.5918 18.5813 18.7955 17.7513 19.7272C16.9213 20.6589 15.7784 21.2537 14.5391 21.399C14.5391 20.9153 14.5391 20.4836 14.526 20.0987C14.624 20.0709 14.7228 20.0401 14.8187 20.005C16.228 19.5081 17.0703 18.4068 17.0703 17.0582V12.1773C17.0767 11.7536 16.9988 11.3329 16.8411 10.9396C16.6834 10.5463 16.4491 10.1883 16.1517 9.88646C15.8544 9.58458 15.5 9.34485 15.1091 9.18122C14.7183 9.01759 14.2988 8.93332 13.875 8.93332C13.4513 8.93332 13.0318 9.01759 12.641 9.18122C12.2501 9.34485 11.8957 9.58458 11.5984 9.88646C11.301 10.1883 11.0667 10.5463 10.909 10.9396C10.7513 11.3329 10.6734 11.7536 10.6798 12.1773V15.2939C10.6798 15.4686 10.7492 15.6361 10.8727 15.7596C10.9962 15.8831 11.1637 15.9525 11.3384 15.9525C11.513 15.9525 11.6806 15.8831 11.8041 15.7596C11.9276 15.6361 11.997 15.4686 11.997 15.2939V12.1773C11.992 11.9276 12.037 11.6793 12.1291 11.4472C12.2213 11.215 12.3589 11.0035 12.5337 10.8251C12.7086 10.6468 12.9173 10.5051 13.1476 10.4083C13.378 10.3116 13.6252 10.2618 13.875 10.2618C14.1248 10.2618 14.3721 10.3116 14.6024 10.4083C14.8328 10.5051 15.0415 10.6468 15.2163 10.8251C15.3912 11.0035 15.5288 11.215 15.621 11.4472C15.7131 11.6793 15.7581 11.9276 15.7531 12.1773V17.0582C15.7531 18.0827 14.9562 18.5466 14.4359 18.7413C14.3269 17.85 14.0979 17.3429 13.6237 16.9565C12.9651 16.4223 11.9348 16.4816 11.3179 17.0882L11.3113 17.0941C10.7083 17.708 10.6483 18.7376 11.1788 19.3962C11.5594 19.8696 12.2999 20.2209 13.2161 20.2531C13.2227 20.5912 13.2249 20.9702 13.2256 21.3888C11.9853 21.2447 10.841 20.6502 10.01 19.7182C9.1789 18.7863 8.71888 17.5817 8.71718 16.333C8.71718 16.1583 8.6478 15.9908 8.52429 15.8673C8.40078 15.7438 8.23326 15.6744 8.05859 15.6744C7.88392 15.6744 7.71641 15.7438 7.5929 15.8673C7.46939 15.9908 7.4 16.1583 7.4 16.333C7.40193 17.9307 7.99992 19.4701 9.07695 20.6501C10.154 21.8302 11.6326 22.5659 13.2234 22.7133C13.2234 23.017 13.2234 23.3368 13.2234 23.6763C13.2234 23.7004 13.2234 23.7253 13.2234 23.7495H10.4851C10.3105 23.7495 10.1429 23.8189 10.0194 23.9424C9.89593 24.0659 9.82654 24.2334 9.82654 24.4081C9.82654 24.5827 9.89593 24.7503 10.0194 24.8738C10.1429 24.9973 10.3105 25.0667 10.4851 25.0667H17.2708C17.4455 25.0667 17.613 24.9973 17.7365 24.8738C17.86 24.7503 17.9294 24.5827 17.9294 24.4081C17.9294 24.2334 17.86 24.0659 17.7365 23.9424C17.613 23.8189 17.4455 23.7495 17.2708 23.7495H14.5318C14.5318 23.7253 14.5362 23.7004 14.5362 23.6763C14.5362 23.3477 14.5362 23.0279 14.5369 22.7243ZM12.2011 18.5825C12.0892 18.4434 12.1133 18.1654 12.248 18.0285C12.3826 17.8917 12.6629 17.8683 12.799 17.9795C12.9739 18.1215 13.0771 18.4324 13.1378 18.9352C12.7317 18.9103 12.376 18.802 12.2011 18.5825Z" fill="#456C51"/>
</g>
<path id="Vector_2" d="M17.5972 8.19355C17.5014 8.19355 17.4096 8.15552 17.3419 8.08783C17.2743 8.02014 17.2362 7.92833 17.2362 7.83261C17.2356 7.33544 17.0378 6.85883 16.6863 6.50728C16.3347 6.15573 15.8581 5.95795 15.3609 5.95731C15.2652 5.95731 15.1734 5.91929 15.1057 5.8516C15.038 5.78391 15 5.6921 15 5.59637C15 5.50065 15.038 5.40884 15.1057 5.34115C15.1734 5.27346 15.2652 5.23543 15.3609 5.23543C15.858 5.23501 16.3347 5.03741 16.6862 4.68599C17.0378 4.33457 17.2356 3.85803 17.2362 3.36094C17.2362 3.26521 17.2743 3.17341 17.3419 3.10572C17.4096 3.03803 17.5014 3 17.5972 3C17.6929 3 17.7847 3.03803 17.8524 3.10572C17.9201 3.17341 17.9581 3.26521 17.9581 3.36094C17.9585 3.85796 18.1562 4.33449 18.5076 4.68594C18.8591 5.03738 19.3356 5.23501 19.8326 5.23543C19.9283 5.23543 20.0201 5.27346 20.0878 5.34115C20.1555 5.40884 20.1935 5.50065 20.1935 5.59637C20.1935 5.6921 20.1555 5.78391 20.0878 5.8516C20.0201 5.91929 19.9283 5.95731 19.8326 5.95731C19.3355 5.95795 18.859 6.15576 18.5076 6.50733C18.1561 6.8589 17.9585 7.33552 17.9581 7.83261C17.9579 7.92827 17.9198 8.01995 17.8522 8.0876C17.7845 8.15524 17.6928 8.19334 17.5972 8.19355ZM16.6804 5.59637C17.0578 5.82057 17.373 6.13577 17.5972 6.51316C17.8208 6.13563 18.1358 5.82037 18.5132 5.59637C18.1357 5.3729 17.8207 5.05786 17.5972 4.68038C17.3738 5.05743 17.0594 5.37238 16.6828 5.59637H16.6804Z" fill="#456C51"/>
<path id="Vector_3" d="M22.7924 11.9032C22.6693 11.9032 22.5512 11.8544 22.4642 11.7673C22.3772 11.6803 22.3283 11.5623 22.3283 11.4392C22.3275 10.8 22.0732 10.1872 21.6212 9.73519C21.1692 9.2832 20.5564 9.02891 19.9172 9.02809C19.7941 9.02809 19.6761 8.9792 19.589 8.89217C19.502 8.80514 19.4531 8.6871 19.4531 8.56402C19.4531 8.44095 19.502 8.32291 19.589 8.23588C19.6761 8.14885 19.7941 8.09996 19.9172 8.09996C20.5563 8.09941 21.1691 7.84535 21.6211 7.39353C22.0731 6.9417 22.3275 6.32901 22.3283 5.6899C22.3283 5.56682 22.3772 5.44879 22.4642 5.36176C22.5512 5.27473 22.6693 5.22583 22.7924 5.22583C22.9154 5.22583 23.0335 5.27473 23.1205 5.36176C23.2075 5.44879 23.2564 5.56682 23.2564 5.6899C23.257 6.32892 23.5111 6.94161 23.9629 7.39346C24.4148 7.84532 25.0275 8.09941 25.6665 8.09996C25.7896 8.09996 25.9076 8.14885 25.9946 8.23588C26.0817 8.32291 26.1305 8.44095 26.1305 8.56402C26.1305 8.6871 26.0817 8.80514 25.9946 8.89217C25.9076 8.9792 25.7896 9.02809 25.6665 9.02809C25.0274 9.02891 24.4147 9.28323 23.9628 9.73525C23.511 10.1873 23.257 10.8001 23.2564 11.4392C23.2561 11.5622 23.2072 11.6801 23.1202 11.767C23.0332 11.854 22.9153 11.903 22.7924 11.9032ZM21.6136 8.56402C22.0988 8.85227 22.5041 9.25753 22.7924 9.74275C23.0799 9.25735 23.4849 8.85203 23.9701 8.56402C23.4847 8.2767 23.0797 7.87165 22.7924 7.38632C22.5052 7.8711 22.101 8.27604 21.6167 8.56402H21.6136Z" fill="#456C51"/>
</g>
</g>
</svg>
