<svg width="30" height="30" viewBox="0 0 30 30" fill="none" xmlns="http://www.w3.org/2000/svg">
<g id="ico_yoga_sel">
<g id="Group 945">
<path id="Vector" d="M15.703 15.8871C15.3461 15.8833 14.9928 15.8153 14.6599 15.6865C14.3267 15.8154 13.973 15.8833 13.6158 15.8871C13.1093 15.8871 11.3311 15.8159 9.72933 14.8932C8.10352 13.9554 7.24298 12.4861 7.24298 10.6356C7.24298 8.10012 9.18873 7.2827 10.6089 6.68594C12.4002 5.93472 12.5787 5.58268 12.5787 4.90267C12.5787 4.66326 12.6738 4.43367 12.8431 4.26439C13.0124 4.0951 13.242 4 13.4814 4C13.7208 4 13.9504 4.0951 14.1197 4.26439C14.289 4.43367 14.3841 4.66326 14.3841 4.90267C14.3841 7.06004 12.6058 7.81126 11.308 8.35086C9.86473 8.95263 9.04831 9.36185 9.04831 10.6356C9.04831 11.8392 9.56685 12.7148 10.631 13.3286C11.2312 13.6593 11.8846 13.8826 12.5617 13.9885C12.1134 13.3366 11.8335 12.5844 11.8335 11.8512C11.8333 11.2086 12.0235 10.5804 12.3802 10.0459C12.8816 9.32373 13.684 8.92456 14.6448 8.92054H14.6749C15.6328 8.92054 16.4371 9.32173 16.9386 10.0459C17.2953 10.5804 17.4855 11.2086 17.4852 11.8512C17.4852 12.5834 17.2074 13.3326 16.7611 13.9835C18.1131 13.7588 20.2715 13.0267 20.2715 10.6356C20.2715 9.36185 19.4551 8.95665 18.0118 8.35086C16.714 7.80625 14.9367 7.06004 14.9367 4.90267C14.9367 4.66326 15.0318 4.43367 15.2011 4.26439C15.3704 4.0951 15.6 4 15.8394 4C16.0788 4 16.3084 4.0951 16.4777 4.26439C16.6469 4.43367 16.742 4.66326 16.742 4.90267C16.742 5.77324 17.3117 6.09921 18.7109 6.68594C20.1311 7.28772 22.0768 8.10012 22.0768 10.6356C22.0768 12.4831 21.2173 13.9554 19.5905 14.8932C17.9857 15.8119 16.2105 15.8871 15.703 15.8871ZM14.6599 10.7299C13.7382 10.7299 13.6389 11.5132 13.6389 11.8512C13.6389 12.3958 14.0902 13.144 14.6599 13.6204C15.2286 13.144 15.6799 12.3958 15.6799 11.8512C15.6789 11.5092 15.5786 10.7259 14.6599 10.7259V10.7299Z" fill="#65AF7C"/>
<path id="Vector_2" d="M20.7455 26.0001C19.1779 26.0001 17.9824 25.6441 17.192 24.942C17.1034 24.8632 17.0311 24.7678 16.9793 24.6611C16.9275 24.5544 16.8973 24.4386 16.8903 24.3202C16.8833 24.2018 16.8997 24.0832 16.9386 23.9712C16.9774 23.8591 17.038 23.7558 17.1168 23.6672C17.1956 23.5785 17.291 23.5062 17.3977 23.4545C17.5044 23.4027 17.6202 23.3724 17.7386 23.3655C17.857 23.3585 17.9756 23.3749 18.0876 23.4138C18.1997 23.4526 18.303 23.5132 18.3916 23.592C18.8279 23.9801 19.6643 24.1938 20.7455 24.1938C21.2146 24.1932 21.6643 24.0067 21.996 23.675C22.3277 23.3433 22.5142 22.8936 22.5148 22.4245C22.5142 21.9555 22.3277 21.5058 21.996 21.1741C21.6643 20.8424 21.2146 20.6558 20.7455 20.6553C19.554 20.6553 18.4738 21.4858 17.1058 22.5379C15.0998 24.0794 12.6055 25.9991 8.55551 25.9991C7.60984 25.9948 6.70446 25.6157 6.03793 24.9449C5.3714 24.274 4.99814 23.3662 5.00001 22.4205C4.99894 21.4758 5.37272 20.5693 6.0393 19.8999C6.70589 19.2305 7.61083 18.8529 8.55551 18.85C9.25057 18.85 9.87341 19.0756 10.5945 19.3364C11.0138 19.4879 11.4461 19.6443 11.9556 19.7807C12.5102 19.9302 13.0237 19.865 13.3597 19.6042C13.488 19.5034 13.5906 19.3735 13.6589 19.2253C13.7273 19.0771 13.7595 18.9148 13.7529 18.7517V17.492C13.7529 17.2526 13.848 17.023 14.0173 16.8537C14.1865 16.6844 14.4161 16.5893 14.6555 16.5893C14.8949 16.5893 15.1245 16.6844 15.2938 16.8537C15.4631 17.023 15.5582 17.2526 15.5582 17.492V18.7547C15.5634 19.1949 15.4665 19.6303 15.2751 20.0267C15.0837 20.4232 14.8029 20.7698 14.4549 21.0394C13.6656 21.6412 12.5814 21.8228 11.4802 21.5279C10.8964 21.3714 10.405 21.1939 9.97571 21.0364C9.39199 20.8248 8.93062 20.6583 8.5515 20.6583C8.08554 20.661 7.63964 20.8483 7.31156 21.1792C6.98348 21.5101 6.8 21.9576 6.80133 22.4235C6.80041 22.6552 6.84513 22.8848 6.93293 23.0992C7.02074 23.3136 7.14992 23.5086 7.31309 23.6731C7.47626 23.8376 7.67023 23.9683 7.88392 24.0578C8.09761 24.1473 8.32684 24.1938 8.55852 24.1948C11.9947 24.1948 14.127 22.5549 16.0085 21.1076C17.518 19.9472 18.9432 18.851 20.7485 18.851C21.6962 18.852 22.6048 19.229 23.275 19.8991C23.9451 20.5692 24.322 21.4778 24.3231 22.4255C24.322 23.3738 23.9447 24.2828 23.2739 24.953C22.6031 25.6232 21.6938 25.9998 20.7455 26.0001Z" fill="#65AF7C"/>
</g>
</g>
</svg>
