<svg width="30" height="30" viewBox="0 0 30 30" fill="none" xmlns="http://www.w3.org/2000/svg">
<g id="ico_daily wisdom">
<path id="Vector" d="M14.7332 25.1006C14.5606 25.1008 14.3915 25.0512 14.2462 24.9578C14.1009 24.8645 13.9856 24.7312 13.914 24.5741C13.8152 24.3571 13.8066 24.1097 13.8902 23.8864C13.9738 23.663 14.1426 23.4821 14.3596 23.3832C17.2089 22.0844 19.5367 20.4031 21.277 18.381C23.1013 16.263 23.7896 14.3478 24.0454 13.113C24.437 11.2218 24.1173 9.68326 23.0953 8.54035C21.9913 7.30552 20.1271 6.64914 18.2259 6.82598C17.613 6.8779 17.0133 7.03364 16.4526 7.28654C17.3841 8.43657 17.8848 9.87578 17.8683 11.3557C17.8675 12.108 17.5699 12.8297 17.0402 13.364C16.5104 13.8982 15.7913 14.2018 15.039 14.2089H14.966C14.2137 14.2018 13.4946 13.8982 12.9648 13.364C12.435 12.8297 12.1375 12.108 12.1367 11.3557C12.1367 9.82512 12.6362 8.39048 13.5524 7.28654C12.9916 7.03377 12.392 6.87804 11.7791 6.82598C9.88087 6.65014 8.01364 7.30552 6.9097 8.54035C5.88667 9.68326 5.56698 11.2218 5.9596 13.113C6.2723 14.6246 7.55808 18.4969 12.7441 21.8127C12.945 21.9412 13.0865 22.1443 13.1377 22.3771C13.1888 22.61 13.1454 22.8537 13.0169 23.0545C12.9533 23.154 12.8708 23.2401 12.774 23.3077C12.6772 23.3753 12.568 23.4232 12.4527 23.4486C12.3374 23.474 12.2182 23.4765 12.1019 23.4558C11.9856 23.4352 11.8746 23.3918 11.7751 23.3283C6.01555 19.6438 4.55794 15.212 4.19828 13.4786C3.55789 10.3886 4.58991 8.43545 5.56897 7.34149C7.04657 5.69006 9.49024 4.80691 11.9459 5.03569C13.0271 5.12282 14.073 5.46151 15 6.02474C15.9274 5.46163 16.9736 5.12296 18.0551 5.03569C20.5097 4.80691 22.9504 5.69006 24.432 7.34149C25.4101 8.43545 26.4421 10.3886 25.8017 13.4786C25.3731 15.5467 24.2782 17.6477 22.6357 19.5549C20.7235 21.7747 18.189 23.613 15.1009 25.0197C14.9854 25.0723 14.8601 25.0999 14.7332 25.1006ZM15.004 12.4127H15.014C15.2939 12.4121 15.5622 12.3007 15.7601 12.1028C15.958 11.9049 16.0694 11.6366 16.07 11.3567C16.07 10.1578 15.6873 9.12979 15.004 8.35352C14.3216 9.12979 13.939 10.1598 13.939 11.3567C13.9395 11.6366 14.051 11.9049 14.2489 12.1028C14.4468 12.3007 14.7151 12.4121 14.995 12.4127H15.004Z" fill="#1A342B"/>
</g>
</svg>
