<svg width="18" height="18" viewBox="0 0 18 18" fill="none" xmlns="http://www.w3.org/2000/svg">
<g id="Group 1194">
<path id="Vector" d="M10.0387 15.7471H7.96088C7.78588 15.7471 7.61804 15.8166 7.49429 15.9403C7.37054 16.0641 7.30103 16.2319 7.30103 16.4069C7.30103 16.5819 7.37054 16.7498 7.49429 16.8735C7.61804 16.9973 7.78588 17.0668 7.96088 17.0668H10.0394C10.2144 17.0668 10.3823 16.9973 10.506 16.8735C10.6298 16.7498 10.6993 16.5819 10.6993 16.4069C10.6993 16.3202 10.6822 16.2343 10.649 16.1542C10.6158 16.0741 10.5671 16.0013 10.5058 15.9401C10.4444 15.8788 10.3716 15.8302 10.2914 15.7971C10.2113 15.764 10.1254 15.747 10.0387 15.7471Z" fill="#1A342B"/>
<path id="Vector_2" d="M16.484 7.3056L15.4238 7.1817C15.2818 6.68183 15.0807 6.20065 14.8248 5.74834L15.4905 4.90666C15.5907 4.77978 15.6408 4.62057 15.6313 4.4592C15.6219 4.29784 15.5535 4.14556 15.4392 4.03125L13.9692 2.56124C13.8549 2.44694 13.7026 2.3786 13.5412 2.36914C13.3799 2.35968 13.2207 2.40977 13.0938 2.50992L12.236 3.18737C11.7888 2.94067 11.3144 2.74704 10.8224 2.61037L10.6941 1.51646C10.6752 1.35588 10.5981 1.20781 10.4772 1.10037C10.3564 0.992918 10.2003 0.933568 10.0387 0.933594H7.96083C7.79926 0.933747 7.64337 0.993168 7.5227 1.1006C7.40202 1.20803 7.32496 1.356 7.30611 1.51646L7.17414 2.63602C6.69516 2.77595 6.2337 2.97003 5.7987 3.21451L4.90643 2.50992C4.77956 2.40977 4.62032 2.35968 4.45896 2.36914C4.29759 2.3786 4.14531 2.44694 4.03101 2.56124L2.56466 4.03125C2.45037 4.14556 2.38202 4.29784 2.37256 4.4592C2.3631 4.62057 2.41319 4.77978 2.51334 4.90666L3.22892 5.81214C2.99135 6.24275 2.80297 6.69872 2.66732 7.17144L1.51989 7.3056C1.35864 7.32363 1.20968 7.40045 1.10148 7.52137C0.993283 7.64228 0.933427 7.79882 0.93335 7.96107V10.0396C0.933427 10.2019 0.993283 10.3584 1.10148 10.4793C1.20968 10.6002 1.35864 10.677 1.51989 10.6951L2.66512 10.8292C2.80089 11.3031 2.98926 11.7603 3.22672 12.1922L2.51334 13.0948C2.41319 13.2216 2.3631 13.3809 2.37256 13.5422C2.38202 13.7036 2.45037 13.8559 2.56466 13.9702L4.03101 15.4402C4.15476 15.5637 4.32248 15.633 4.49732 15.633H4.5457C4.60848 15.6332 4.67097 15.6243 4.73119 15.6066C6.26456 15.1523 7.71161 14.4459 9.01294 13.5163C10.3185 14.4498 11.7723 15.156 13.313 15.6051H13.3174L13.3328 15.6088C13.3482 15.6088 13.3636 15.6169 13.3797 15.6198H13.4068L13.4428 15.6242C13.4538 15.6242 13.4655 15.6242 13.4765 15.6242H13.5066C13.5183 15.6242 13.5293 15.6242 13.541 15.6242H13.5703L13.6026 15.6191L13.6349 15.6139L13.662 15.6073L13.6979 15.5978L13.7192 15.5897C13.7324 15.5856 13.7454 15.5807 13.758 15.5751L13.7764 15.567C13.7896 15.5604 13.8028 15.5546 13.816 15.5472L13.8336 15.537C13.846 15.5296 13.8585 15.5223 13.8702 15.5142L13.8922 15.4981L13.9208 15.4768L13.9531 15.4475L13.967 15.435V15.4314L15.4333 13.965C15.5476 13.8507 15.616 13.6984 15.6255 13.5371C15.6349 13.3757 15.5848 13.2165 15.4847 13.0896L14.8248 12.2501C15.0809 11.7969 15.282 11.3147 15.4238 10.8138L16.4818 10.6899C16.6424 10.6711 16.7904 10.5939 16.8979 10.4731C17.0053 10.3522 17.0647 10.1962 17.0646 10.0345V7.96107C17.0647 7.79972 17.0057 7.64392 16.8987 7.52314C16.7917 7.40236 16.6442 7.32497 16.484 7.3056ZM9.01513 11.8278C7.92563 10.86 7.32883 9.86219 7.32883 8.99924C7.32883 7.88628 8.18152 7.30414 9.02393 7.30414C9.84582 7.30414 10.719 7.89802 10.719 8.99924C10.719 9.85999 10.1164 10.8556 9.01513 11.8278ZM15.7471 9.45307L14.8175 9.56158C14.6798 9.57782 14.5508 9.637 14.4487 9.7307C14.3465 9.8244 14.2765 9.94787 14.2485 10.0836C14.1117 10.7458 13.8489 11.3756 13.4743 11.9385C13.3975 12.0544 13.3593 12.1916 13.3651 12.3305C13.3709 12.4694 13.4204 12.6029 13.5066 12.712L14.0931 13.4518L13.3189 14.226C12.1703 13.8533 11.0794 13.3223 10.0775 12.6483C11.365 11.4561 12.0409 10.2024 12.0409 8.99924C12.0409 7.11205 10.5086 5.98442 9.02613 5.98442C7.56492 5.98442 6.01131 7.04093 6.01131 8.99924C6.01131 10.2801 6.77968 11.5485 7.95496 12.6475C6.94721 13.3255 5.85016 13.8602 4.69527 14.2363L3.91078 13.4518L4.54205 12.6534C4.62745 12.5452 4.67683 12.413 4.68328 12.2753C4.68972 12.1377 4.6529 12.0014 4.57797 11.8857C4.22298 11.3391 3.97263 10.7312 3.83966 10.0931C3.81153 9.95753 3.74144 9.83423 3.63933 9.74067C3.53722 9.64711 3.40826 9.58805 3.27072 9.57186L2.25453 9.45307V8.54835L3.27219 8.42883C3.40953 8.41273 3.53833 8.35388 3.64042 8.26061C3.74251 8.16733 3.81272 8.04434 3.84113 7.909C3.97457 7.27161 4.22514 6.66453 4.58016 6.1186C4.65509 6.00292 4.69192 5.86668 4.68548 5.72901C4.67904 5.59134 4.62964 5.45914 4.54423 5.35097L3.91078 4.54888L4.5501 3.90955L5.34193 4.53495C5.45103 4.62113 5.58455 4.67064 5.72345 4.67643C5.86235 4.68223 5.99955 4.644 6.11544 4.56721C6.66365 4.20424 7.27484 3.94688 7.91757 3.80837C8.05158 3.77879 8.17303 3.70816 8.26502 3.60631C8.35701 3.50447 8.41495 3.37648 8.43079 3.24016L8.54664 2.25331H9.45138L9.56501 3.22183C9.58132 3.3601 9.64097 3.48967 9.73539 3.59199C9.82982 3.69432 9.95418 3.76415 10.0907 3.7915C10.7451 3.92267 11.3686 4.17694 11.928 4.54081C12.0438 4.6159 12.1802 4.65282 12.318 4.64638C12.4558 4.63994 12.5882 4.59045 12.6964 4.50488L13.4501 3.90955L14.0902 4.54888L13.5036 5.29158C13.4173 5.40074 13.3677 5.53441 13.3619 5.67347C13.3561 5.81253 13.3944 5.94985 13.4714 6.06581C13.846 6.62778 14.1091 7.25652 14.2463 7.91781C14.2745 8.05341 14.3446 8.17673 14.4467 8.27029C14.5488 8.36385 14.6777 8.42291 14.8153 8.43911L15.7464 8.54835L15.7471 9.45307Z" fill="#1A342B"/>
</g>
</svg>
