<svg width="30" height="30" viewBox="0 0 30 30" fill="none" xmlns="http://www.w3.org/2000/svg">
<g id="ico_water_sel">
<g id="Group 828">
<g id="Group 827">
<path id="Vector 9" d="M13 14C10.2 12.8 7.16667 14.1666 6 15L7 25H20.5L22 13C20 14.5 16.5 15.5 13 14Z" fill="url(#paint0_linear_380_2902)" fill-opacity="0.3"/>
<path id="Vector 8" d="M12 15C8.8 16.6 6.33333 15 5.5 14L7 25H20.5L21.5 15.5C20 14.5 16 13 12 15Z" fill="url(#paint1_linear_380_2902)" fill-opacity="0.3"/>
</g>
<path id="Vector" d="M20.5784 26H6.90172C6.68044 25.9999 6.46695 25.9183 6.30205 25.7707C6.13715 25.6231 6.03239 25.42 6.0078 25.2001L4.51295 12.1083C4.49902 11.9906 4.50848 11.8713 4.54078 11.7573C4.57308 11.6433 4.62758 11.5368 4.70117 11.4438C4.77475 11.3509 4.86596 11.2735 4.96956 11.2159C5.07316 11.1584 5.18712 11.1218 5.30488 11.1084C5.42258 11.0945 5.54186 11.104 5.65589 11.1363C5.76993 11.1686 5.87645 11.2231 5.96935 11.2967C6.06226 11.3702 6.13972 11.4614 6.19729 11.5651C6.25485 11.6687 6.29138 11.7826 6.30478 11.9004L7.70465 24.1992H19.7735L21.4363 9.63457C20.8119 9.96647 20.1586 10.2409 19.4845 10.4545C17.2677 11.1634 15.0999 11.1684 13.7921 11.1684H13.7381C11.2913 11.1684 8.97852 10.8754 7.22669 10.3435C5.0859 9.69356 4 8.76466 4 7.58477C4 6.40488 5.0859 5.47598 7.22669 4.82604C8.97852 4.29309 11.2913 4.00012 13.7381 4.00012C16.1848 4.00012 18.4976 4.29309 20.2494 4.82604C21.5083 5.208 22.4032 5.68696 22.9262 6.25591C23.4343 5.70448 23.8793 5.09812 24.2531 4.44807C24.3124 4.3458 24.3914 4.25624 24.4854 4.1845C24.5794 4.11276 24.6866 4.06026 24.8009 4.02999C24.9152 3.99971 25.0344 3.99227 25.1516 4.00808C25.2688 4.02388 25.3817 4.06263 25.4839 4.1221C25.5862 4.18148 25.6758 4.26043 25.7475 4.35444C25.8192 4.44845 25.8717 4.55567 25.902 4.66999C25.9323 4.7843 25.9397 4.90347 25.9239 5.02066C25.9081 5.13786 25.8694 5.25078 25.8099 5.35299C25.1761 6.45859 24.3619 7.45049 23.4011 8.28771L21.4733 25.2021C21.4483 25.4218 21.3432 25.6246 21.1781 25.7718C21.013 25.919 20.7996 26.0002 20.5784 26ZM5.80483 7.58577C5.86083 7.72176 6.34278 8.22871 7.97662 8.68567C9.53747 9.12462 11.5843 9.36661 13.7401 9.36661H13.7661C15.0459 9.36661 16.9728 9.3666 18.9386 8.73866C19.8782 8.44787 20.767 8.01308 21.5733 7.44979C21.3563 7.23281 20.7834 6.84984 19.5055 6.48488C17.9447 6.04592 15.8978 5.80295 13.7431 5.80295C11.5883 5.80295 9.54347 6.04592 7.97962 6.48488C6.34278 6.94283 5.86083 7.44978 5.80483 7.58577Z" fill="#65AF7C"/>
</g>
</g>
<defs>
<linearGradient id="paint0_linear_380_2902" x1="9.524" y1="24.347" x2="15.3062" y2="14.2829" gradientUnits="userSpaceOnUse">
<stop stop-color="#B8D7A9"/>
<stop offset="1" stop-color="#73D89B"/>
</linearGradient>
<linearGradient id="paint1_linear_380_2902" x1="9.02401" y1="24.347" x2="14.8062" y2="14.2829" gradientUnits="userSpaceOnUse">
<stop stop-color="#B8D7A9"/>
<stop offset="1" stop-color="#73D89B"/>
</linearGradient>
</defs>
</svg>
