<svg width="26" height="26" viewBox="0 0 26 26" fill="none" xmlns="http://www.w3.org/2000/svg">
<path d="M11.4243 8.99095C12.4579 8.99095 13.2957 8.64167 13.2957 8.21081C13.2957 7.77995 12.4579 7.43066 11.4243 7.43066C10.3907 7.43066 9.5528 7.77995 9.5528 8.21081C9.5528 8.64167 10.3907 8.99095 11.4243 8.99095Z" fill="#A7998F"/>
<path d="M21.7515 10.527H11.4241C7.51821 10.527 5.02609 9.15477 5.02609 8.2108C5.02609 7.73665 5.65107 7.17061 6.65745 6.7372C7.91781 6.1937 9.61072 5.89378 11.425 5.89378C15.3309 5.89378 17.8239 7.26596 17.8239 8.20993V8.49772C17.8239 8.70463 17.9061 8.90306 18.0524 9.04936C18.1987 9.19567 18.3971 9.27787 18.604 9.27787C18.8109 9.27787 19.0094 9.19567 19.1557 9.04936C19.302 8.90306 19.3842 8.70463 19.3842 8.49772V8.20993C19.3842 5.69614 15.2832 4.3335 11.425 4.3335C7.56675 4.3335 3.46667 5.69267 3.46667 8.20993C3.46667 10.7272 7.56675 12.0864 11.425 12.0864H20.9722V19.3192H18.4887V17.8456C18.4887 17.6386 18.4065 17.4402 18.2602 17.2939C18.1139 17.1476 17.9155 17.0654 17.7086 17.0654C17.5017 17.0654 17.3033 17.1476 17.157 17.2939C17.0107 17.4402 16.9285 17.6386 16.9285 17.8456V19.3192H15.1185L15.1861 16.5393C15.1887 16.4368 15.171 16.3348 15.1341 16.2392C15.0972 16.1436 15.0419 16.0562 14.9712 15.982C14.9005 15.9077 14.8159 15.8482 14.7222 15.8067C14.6285 15.7652 14.5275 15.7425 14.4251 15.74C14.3226 15.7375 14.2207 15.7552 14.125 15.7921C14.0294 15.8289 13.942 15.8843 13.8678 15.955C13.7936 16.0257 13.734 16.1103 13.6925 16.204C13.651 16.2977 13.6283 16.3987 13.6259 16.5011L13.5582 19.3192H11.8835V17.8456C11.8835 17.6386 11.8013 17.4402 11.655 17.2939C11.5087 17.1476 11.3103 17.0654 11.1034 17.0654C10.8965 17.0654 10.6981 17.1476 10.5517 17.2939C10.4054 17.4402 10.3233 17.6386 10.3233 17.8456V19.2836C9.73843 19.2446 9.15675 19.1678 8.58181 19.0539V16.5228C8.58181 16.3159 8.49961 16.1174 8.3533 15.9711C8.207 15.8248 8.00857 15.7426 7.80166 15.7426C7.59476 15.7426 7.39632 15.8248 7.25002 15.9711C7.10371 16.1174 7.02152 16.3159 7.02152 16.5228V18.6196C5.74816 18.1437 5.02783 17.5136 5.02783 17.0056V12.5319C5.02783 12.325 4.94563 12.1266 4.79932 11.9803C4.65302 11.834 4.45459 11.7518 4.24768 11.7518C4.04078 11.7518 3.84234 11.834 3.69604 11.9803C3.54973 12.1266 3.46754 12.325 3.46754 12.5319V17.0056C3.46754 18.6526 5.21505 19.7985 7.50174 20.3992C7.57261 20.4284 7.64737 20.4471 7.72365 20.4547C8.80364 20.7113 9.90778 20.8528 11.0176 20.8768C11.0462 20.8768 11.0757 20.882 11.1043 20.882C11.1329 20.882 11.1372 20.882 11.1537 20.882H11.4259H21.7532C21.9601 20.882 22.1585 20.7999 22.3048 20.6535C22.4512 20.5072 22.5333 20.3088 22.5333 20.1019V11.3071C22.5333 11.2045 22.5131 11.1029 22.4738 11.0081C22.4345 10.9134 22.3769 10.8273 22.3042 10.7548C22.2316 10.6824 22.1454 10.625 22.0505 10.5858C21.9557 10.5467 21.8541 10.5267 21.7515 10.527Z" fill="#A7998F"/>
</svg>
