<svg width="30" height="30" viewBox="0 0 30 30" fill="none" xmlns="http://www.w3.org/2000/svg">
<g id="ico_time">
<g id="Group 845">
<path id="Vector" d="M22.7245 11.2826C22.5971 11.0807 22.3947 10.9377 22.1618 10.885C21.929 10.8322 21.6847 10.8741 21.4827 11.0015C21.3827 11.0646 21.2961 11.1469 21.2279 11.2436C21.1597 11.3402 21.1112 11.4494 21.0852 11.5648C21.0591 11.6802 21.0561 11.7996 21.0763 11.9162C21.0964 12.0328 21.1393 12.1442 21.2026 12.2442C21.9882 13.4889 22.4046 14.931 22.4033 16.4029C22.4009 18.4699 21.5787 20.4516 20.117 21.9132C18.6552 23.3747 16.6734 24.1967 14.6064 24.1989C12.5395 24.1965 10.5579 23.3743 9.09642 21.9128C7.63491 20.4513 6.81279 18.4698 6.81041 16.4029C6.81041 16.3809 6.81041 16.3559 6.81041 16.3348C6.7964 16.1347 6.51522 11.3317 11.6135 9.20231C12.2915 8.92141 13.0044 8.73325 13.7328 8.64295C13.8179 10.2039 14.09 11.0865 14.9336 11.9671C15.1797 12.2236 15.4747 12.4283 15.8013 12.5689C16.1278 12.7095 16.4793 12.7831 16.8348 12.7856C17.2005 12.7877 17.5629 12.7175 17.9014 12.5791C18.2398 12.4407 18.5476 12.2368 18.807 11.9791L18.819 11.9661C19.3225 11.4515 19.6028 10.7591 19.5991 10.0392C19.5953 9.31932 19.3079 8.62992 18.799 8.12062C17.9725 7.29409 16.7657 6.90885 15.4889 6.81279C15.4889 6.52761 15.4889 6.21841 15.4889 5.88319V5.80115H18.4598C18.6987 5.80115 18.9277 5.70626 19.0966 5.53737C19.2655 5.36848 19.3604 5.13942 19.3604 4.90057C19.3604 4.66173 19.2655 4.43266 19.0966 4.26377C18.9277 4.09488 18.6987 4 18.4598 4H11.3353C11.0964 4 10.8674 4.09488 10.6985 4.26377C10.5296 4.43266 10.4347 4.66173 10.4347 4.90057C10.4347 5.13942 10.5296 5.36848 10.6985 5.53737C10.8674 5.70626 11.0964 5.80115 11.3353 5.80115H13.6878V5.87919C13.6878 6.22341 13.6878 6.54762 13.6878 6.85181C12.7351 6.95172 11.8009 7.18342 10.912 7.54025C7.60991 8.91513 6.18201 11.2616 5.56061 12.9887C5.15745 14.0905 4.9686 15.2592 5.00425 16.4319C5.0143 18.9715 6.02957 21.4037 7.82803 23.1967C9.62649 24.9897 12.0618 25.9976 14.6014 26C17.1468 25.9989 19.5878 24.9876 21.3881 23.1882C23.1885 21.3888 24.2011 18.9483 24.2035 16.4029C24.2054 14.5905 23.6925 12.8148 22.7245 11.2826ZM17.5302 9.39442C17.7046 9.56941 17.8024 9.80635 17.8024 10.0534C17.8024 10.3004 17.7046 10.5373 17.5302 10.7123C17.3504 10.8888 17.1078 10.9867 16.8558 10.9844C16.7389 10.9841 16.6233 10.9603 16.5157 10.9146C16.4081 10.8689 16.3108 10.8022 16.2294 10.7183C15.7711 10.242 15.595 9.77067 15.529 8.62795C16.4195 8.73201 17.142 9.00718 17.5302 9.39843V9.39442Z" fill="#1A342B"/>
<path id="Vector_2" d="M13.701 14.3265V17.7627L11.6477 18.9634C11.4417 19.0841 11.292 19.2817 11.2316 19.5126C11.1712 19.7436 11.2049 19.9892 11.3255 20.1952C11.405 20.331 11.5188 20.4436 11.6554 20.5217C11.792 20.5998 11.9466 20.6408 12.104 20.6405C12.2637 20.6408 12.4205 20.5983 12.5583 20.5174L15.0599 19.0535C15.1953 18.9741 15.3077 18.8607 15.3858 18.7245C15.4639 18.5883 15.5051 18.434 15.5052 18.277V14.3245C15.5052 14.0857 15.4103 13.8566 15.2414 13.6877C15.0725 13.5188 14.8434 13.4239 14.6046 13.4239C14.4859 13.4235 14.3683 13.4466 14.2586 13.4918C14.1488 13.537 14.0491 13.6035 13.9651 13.6873C13.8812 13.7712 13.8146 13.8709 13.7693 13.9806C13.7239 14.0902 13.7007 14.2078 13.701 14.3265Z" fill="#1A342B"/>
</g>
</g>
</svg>
