<svg width="44" height="44" viewBox="0 0 44 44" fill="none" xmlns="http://www.w3.org/2000/svg">
<g id="Group 1225">
<path id="Vector" d="M21.999 21.0004C19.4805 20.9972 17.0661 19.9953 15.2852 18.2145C13.5044 16.4337 12.5025 14.0193 12.4994 11.5008C12.502 8.98214 13.5037 6.56742 15.2847 4.78647C17.0656 3.00552 19.4803 2.00383 21.999 2.00118C22.2643 2.00118 22.5189 1.89578 22.7065 1.70814C22.8942 1.52049 22.9996 1.26596 22.9996 1.00059C22.9996 0.735218 22.8942 0.48074 22.7065 0.293093C22.5189 0.105446 22.2643 0 21.999 0C16.1661 0.00635736 10.5739 2.32641 6.44966 6.45107C2.32537 10.5757 0.00582678 16.1681 0 22.001C0.00371096 27.8343 2.32265 33.4277 6.44746 37.5525C10.5723 41.6773 16.1656 43.9963 21.999 44C25.0482 43.9968 27.9716 42.7841 30.1277 40.628C32.2839 38.4719 33.4966 35.5484 33.4998 32.4992C33.4961 29.4503 32.2831 26.5274 30.1271 24.3717C27.971 22.216 25.0479 21.0036 21.999 21.0004ZM21.8969 36.7977C20.7572 36.7967 19.6645 36.3434 18.8586 35.5375C18.0527 34.7316 17.5994 33.6389 17.5984 32.4992C17.5994 31.3597 18.0527 30.2671 18.8587 29.4615C19.6647 28.6559 20.7574 28.2032 21.8969 28.2026C23.0361 28.2037 24.1283 28.6567 24.9339 29.4623C25.7394 30.2678 26.1924 31.36 26.1935 32.4992C26.193 33.6387 25.7402 34.7315 24.9346 35.5374C24.129 36.3434 23.0364 36.7967 21.8969 36.7977Z" fill="#F3F7ED"/>
<g id="Group 1223">
<path id="Vector_2" d="M21.9069 44C21.6416 44 21.3871 43.8946 21.1994 43.7069C21.0118 43.5193 20.9063 43.2648 20.9063 42.9994C20.9063 42.734 21.0118 42.4795 21.1994 42.2919C21.3871 42.1042 21.6416 41.9988 21.9069 41.9988C24.4256 41.9962 26.8403 40.9945 28.6212 39.2135C30.4022 37.4326 31.4039 35.0179 31.4065 32.4992C31.4034 29.9809 30.4015 27.5667 28.6206 25.7862C26.8397 24.0057 24.4252 23.0042 21.9069 23.0016C18.858 22.9973 15.9352 21.7843 13.7793 19.6284C11.6234 17.4725 10.4104 14.5497 10.4061 11.5008C10.4099 8.45172 11.6227 5.52861 13.7787 3.3726C15.9348 1.21658 18.8579 0.00370707 21.9069 0C27.7402 0.00582768 33.3328 2.32567 37.4576 6.45039C41.5823 10.5751 43.9021 16.1677 43.908 22.001C43.9016 27.8339 41.5815 33.426 37.4568 37.5503C33.3322 41.6746 27.7398 43.9942 21.9069 44ZM21.9069 2.00118C19.3883 2.00383 16.9736 3.00552 15.1926 4.78647C13.4117 6.56742 12.41 8.98214 12.4073 11.5008C12.4105 14.0193 13.4124 16.4337 15.1932 18.2145C16.974 19.9953 19.3885 20.9972 21.9069 21.0004C24.9558 21.0036 27.8789 22.216 30.035 24.3717C32.1911 26.5274 33.404 29.4503 33.4077 32.4992C33.4108 35.2542 32.4204 37.9179 30.6181 40.0016C34.0015 38.3629 36.8548 35.8044 38.8514 32.619C40.8479 29.4337 41.9068 25.7503 41.9068 21.991C41.9009 16.6894 39.7916 11.6068 36.0419 7.85899C32.2922 4.11115 27.2085 2.00436 21.9069 2.00118Z" fill="#65AF7C"/>
<path id="Vector_3" d="M21.8047 15.8236C20.665 15.8226 19.5723 15.3694 18.7664 14.5635C17.9604 13.7576 17.5072 12.6648 17.5061 11.5251C17.5072 10.3854 17.9604 9.29263 18.7664 8.48673C19.5723 7.68083 20.665 7.22762 21.8047 7.22656C22.944 7.22815 24.0363 7.68162 24.8418 8.48746C25.6472 9.29331 26.1002 10.3857 26.1012 11.5251C26.1007 12.6646 25.6479 13.7574 24.8424 14.5633C24.0368 15.3693 22.9442 15.8226 21.8047 15.8236ZM21.8047 9.21973C21.1955 9.22026 20.6115 9.46245 20.1808 9.89318C19.7501 10.3239 19.5078 10.9079 19.5073 11.5171C19.5078 12.1262 19.7501 12.7103 20.1808 13.141C20.6115 13.5717 21.1955 13.8139 21.8047 13.8144C22.4136 13.8139 22.9975 13.5716 23.4279 13.1408C23.8583 12.7101 24.1001 12.126 24.1001 11.5171C24.0979 10.9095 23.8552 10.3276 23.4251 9.8985C22.9949 9.46945 22.4122 9.22827 21.8047 9.22774V9.21973Z" fill="#65AF7C"/>
</g>
</g>
</svg>
