<svg width="30" height="30" viewBox="0 0 30 30" fill="none" xmlns="http://www.w3.org/2000/svg">
<g id="ico_tea_nor">
<g id="Group 854">
<g id="Group 827">
<path id="Vector 9" d="M12.5 14C9.7 12.8 6.66667 14.1666 5.5 15L7 23L13 25L18 23.5L22 13C20 14.5 16 15.5 12.5 14Z" fill="url(#paint0_linear_494_3239)" fill-opacity="0.3"/>
<path id="Vector 8" d="M11.5 15C8.3 16.6 5.83333 15 5 14L7 23L13 25L18 23.5L21 15.5C19.5 14.5 15.5 13 11.5 15Z" fill="url(#paint1_linear_494_3239)" fill-opacity="0.3"/>
</g>
<path id="Vector" d="M23.4392 10.9212H22.0878C21.9878 9.58275 21.8347 8.48139 21.7237 7.81117C22.4984 7.09665 23.1593 6.2678 23.6833 5.35339C23.7427 5.25112 23.7815 5.13815 23.7972 5.02092C23.813 4.90369 23.8056 4.7845 23.7753 4.67015C23.745 4.55581 23.6925 4.44855 23.6208 4.3545C23.549 4.26045 23.4595 4.18143 23.3572 4.12199C23.2549 4.06255 23.142 4.02383 23.0247 4.00805C22.9075 3.99227 22.7883 3.99974 22.674 4.03002C22.5596 4.0603 22.4523 4.11281 22.3583 4.18455C22.2642 4.25628 22.1852 4.34583 22.1258 4.4481C21.8138 4.99243 21.445 5.50212 21.0254 5.96859C20.5383 5.48144 19.75 5.0683 18.6667 4.7412C17.0932 4.26404 15.0185 4.00096 12.8248 4.00096C10.6311 4.00096 8.55646 4.26404 6.98296 4.7412C5.02533 5.33539 4.03301 6.19567 4.03301 7.29702C4.03301 8.39837 5.02533 9.25864 6.98296 9.85383C8.55646 10.331 10.6311 10.5941 12.8248 10.5941H12.8708C14.4393 10.5941 17.3883 10.5861 20.0781 9.01957C20.3602 11.1633 20.6783 15.1575 19.755 18.5136C19.7435 18.5463 19.7342 18.5797 19.727 18.6136C19.3769 19.854 18.8558 21.0034 18.0975 21.9337C16.8491 23.4652 15.1246 24.2094 12.8248 24.2094C8.00729 24.2094 5.84059 20.4462 5.80058 12.0055C5.80058 11.7667 5.70572 11.5378 5.53689 11.3689C5.36805 11.2001 5.13906 11.1052 4.90029 11.1052H4.89529C4.65738 11.1066 4.42968 11.202 4.26192 11.3707C4.09416 11.5394 4 11.7676 4 12.0055C4.011 14.5063 4.17106 18.1605 5.41146 21.0474C6.82191 24.3335 9.3127 26 12.8248 26C15.6607 26 17.9055 25.0107 19.495 23.0591C20.2952 22.0837 20.8634 20.9314 21.2715 19.699H23.4402C24.1178 19.6982 24.7674 19.4287 25.2466 18.9495C25.7257 18.4704 25.9952 17.8208 25.996 17.1432V13.468C25.9929 12.7918 25.7222 12.1443 25.2431 11.6671C24.764 11.1899 24.1154 10.9217 23.4392 10.9212ZM12.8728 8.79349H12.8238C8.49144 8.79349 6.15369 7.76016 5.84959 7.29301C6.14969 6.83087 8.49144 5.79253 12.8238 5.79253C16.7711 5.79253 19.0618 6.6498 19.669 7.15197C17.3253 8.78549 14.5804 8.79349 12.8728 8.79349ZM24.1945 17.1522C24.1942 17.3524 24.1145 17.5443 23.973 17.6859C23.8314 17.8275 23.6394 17.9071 23.4392 17.9074H21.7447C22.1008 16.1588 22.1968 14.3493 22.1688 12.7218H23.4392C23.6394 12.722 23.8314 12.8017 23.973 12.9432C24.1145 13.0848 24.1942 13.2768 24.1945 13.477V17.1522Z" fill="#C5C5C5"/>
</g>
</g>
<defs>
<linearGradient id="paint0_linear_494_3239" x1="9.024" y1="24.347" x2="14.8062" y2="14.2829" gradientUnits="userSpaceOnUse">
<stop stop-color="#C5C5C5"/>
<stop offset="1" stop-color="#C5C5C5"/>
</linearGradient>
<linearGradient id="paint1_linear_494_3239" x1="8.52401" y1="24.347" x2="14.3062" y2="14.2829" gradientUnits="userSpaceOnUse">
<stop stop-color="#C5C5C5"/>
<stop offset="1" stop-color="#C5C5C5"/>
</linearGradient>
</defs>
</svg>
