<svg width="30" height="30" viewBox="0 0 30 30" fill="none" xmlns="http://www.w3.org/2000/svg">
<g id="ico_take photo">
<path id="Vector" d="M22.2718 26C22.0328 26 21.8036 25.9051 21.6346 25.7362C21.4657 25.5672 21.3707 25.3381 21.3707 25.0992C21.3707 24.8603 21.4657 24.6311 21.6346 24.4622C21.8036 24.2933 22.0328 24.1984 22.2718 24.1984C22.7833 24.1978 23.2736 23.9945 23.6353 23.6329C23.997 23.2713 24.2004 22.781 24.201 22.2696V11.5108C24.2004 10.9993 23.9971 10.5088 23.6354 10.1469C23.2738 9.78496 22.7834 9.58113 22.2718 9.58007H20.5698C20.3936 9.58007 20.2212 9.52838 20.0741 9.43143C19.9269 9.33447 19.8114 9.1965 19.7419 9.03458L18.6507 6.48527C18.5642 6.28235 18.42 6.10934 18.2359 5.98778C18.0518 5.86622 17.8361 5.80148 17.6155 5.80164H12.3885C12.168 5.80161 11.9522 5.8664 11.7682 5.98794C11.5842 6.10948 11.4399 6.28243 11.3534 6.48527L10.2631 9.03458C10.1935 9.19665 10.0779 9.33474 9.93053 9.43171C9.78318 9.52868 9.61059 9.58026 9.43418 9.58007H7.73224C7.22039 9.58087 6.72975 9.78457 6.36791 10.1465C6.00607 10.5085 5.80258 10.9991 5.80205 11.5108V22.2696C5.80258 22.781 6.006 23.2713 6.36768 23.6329C6.72936 23.9945 7.21975 24.1978 7.73124 24.1984H9.43318C10.786 24.1981 12.124 23.9159 13.3616 23.3696C13.2015 23.2215 13.0463 23.0673 12.8961 22.9072C11.4575 21.3658 10.6656 19.426 10.6656 17.4432C10.6668 16.2922 11.1223 15.1881 11.933 14.3708C12.7437 13.5535 13.8442 13.0891 14.9955 13.0783H15.0476C16.199 13.0888 17.2997 13.5532 18.1107 14.3705C18.9216 15.1878 19.3772 16.292 19.3785 17.4432C19.3785 19.5912 18.4084 21.7762 16.6304 23.4006C17.429 23.7544 18.2747 23.9904 19.1412 24.1013C19.2585 24.1171 19.3715 24.1559 19.4738 24.2154C19.576 24.2749 19.6656 24.3539 19.7373 24.4481C19.8091 24.5422 19.8615 24.6495 19.8918 24.7638C19.922 24.8782 19.9294 24.9975 19.9136 25.1147C19.8977 25.2319 19.859 25.3449 19.7994 25.4472C19.7399 25.5494 19.6609 25.639 19.5667 25.7107C19.4726 25.7824 19.3653 25.8349 19.2509 25.8651C19.1364 25.8953 19.0172 25.9027 18.8999 25.8869C17.5299 25.7131 16.2075 25.2709 15.0085 24.5857C13.4938 25.4625 11.6177 25.998 9.43318 25.998H7.73124C6.74198 25.9969 5.79354 25.6036 5.09403 24.9042C4.39451 24.2049 4.00106 23.2566 4 22.2676V11.5108C4.00106 10.5214 4.39459 9.57286 5.09426 8.87316C5.79393 8.17345 6.74262 7.77976 7.73224 7.77843H8.8385L9.69547 5.77662C9.92071 5.24934 10.2959 4.79984 10.7745 4.48399C11.2532 4.16813 11.8141 3.99983 12.3875 4H17.6165C18.1899 3.99962 18.7507 4.16771 19.2294 4.4834C19.708 4.79909 20.0833 5.24844 20.3085 5.77561L21.1655 7.77743H22.2668C23.2566 7.77849 24.2055 8.17207 24.9054 8.8718C25.6053 9.57153 25.9989 10.5203 26 11.5098V22.2686C25.9992 23.2573 25.6063 24.2053 24.9074 24.9048C24.2085 25.6043 23.2607 25.9981 22.2718 26ZM15.0235 14.8799C14.3454 14.8831 13.6962 15.1545 13.2176 15.6348C12.7391 16.1151 12.4701 16.7653 12.4696 17.4432C12.4696 19.1958 13.3296 21.0785 15.0025 22.4107C16.5403 21.2507 17.5784 19.5601 17.5784 17.4432C17.5776 16.7652 17.3085 16.115 16.8298 15.6347C16.3511 15.1544 15.7017 14.8831 15.0235 14.8799Z" fill="#456C51"/>
</g>
</svg>
