<svg width="30" height="30" viewBox="0 0 30 30" fill="none" xmlns="http://www.w3.org/2000/svg">
<path d="M12.03 9.17427L20.3018 13.808C20.5136 13.9266 20.6899 14.0996 20.8126 14.3091C20.9353 14.5186 21 14.7571 21 15C21 15.2429 20.9353 15.4814 20.8126 15.6909C20.6899 15.9004 20.5136 16.0734 20.3018 16.192L12.03 20.8257C11.8225 20.9422 11.5881 21.0022 11.3502 20.9999C11.1124 20.9976 10.8792 20.9331 10.674 20.8126C10.4688 20.6922 10.2986 20.5201 10.1803 20.3134C10.0621 20.1067 9.99992 19.8727 10 19.6345V10.3655C9.99992 10.1273 10.0621 9.89326 10.1803 9.68659C10.2986 9.47991 10.4688 9.30781 10.674 9.18737C10.8792 9.06694 11.1124 9.00236 11.3502 9.00006C11.5881 8.99777 11.8225 9.05783 12.03 9.17427Z" stroke="#1A342B" stroke-width="2" stroke-linecap="round" stroke-linejoin="round"/>
</svg>
