<svg width="44" height="39" viewBox="0 0 44 39" fill="none" xmlns="http://www.w3.org/2000/svg">
<g id="Group 1230">
<path id="Vector" d="M22 6.89852C22.9142 6.89746 23.7906 6.5338 24.4371 5.88736C25.0835 5.24092 25.4471 4.36445 25.4482 3.45024C25.4477 2.53569 25.0843 1.65872 24.4378 1.01185C23.7913 0.364972 22.9145 0.00106452 22 0C21.0852 0.00106365 20.2082 0.364931 19.5614 1.01175C18.9146 1.65857 18.5508 2.5355 18.5497 3.45024C18.5508 4.3648 18.9147 5.24155 19.5616 5.88805C20.2084 6.53455 21.0854 6.89799 22 6.89852Z" fill="#65AF7C"/>
<path id="Vector_2" d="M22 31.291C21.0854 31.2915 20.2084 31.6549 19.5616 32.3014C18.9147 32.9479 18.5508 33.8247 18.5497 34.7392C18.5508 35.654 18.9146 36.531 19.5614 37.1778C20.2082 37.8246 21.0852 38.1885 22 38.1895C22.9145 38.1885 23.7913 37.8246 24.4378 37.1777C25.0843 36.5308 25.4477 35.6538 25.4482 34.7392C25.4471 33.825 25.0835 32.9486 24.4371 32.3022C23.7906 31.6557 22.9142 31.2921 22 31.291Z" fill="#65AF7C"/>
<path id="Vector_3" d="M36.3798 19.6256C36.221 19.4447 36.0582 19.2679 35.8955 19.0931C36.0582 18.9203 36.221 18.7434 36.3798 18.5626C39.9968 14.4512 42.6192 8.60567 43.9756 1.65894C44.0009 1.52866 44.0001 1.39463 43.9733 1.26465C43.9465 1.13466 43.8942 1.01128 43.8195 0.901609C43.7448 0.791936 43.6491 0.698171 43.5379 0.6257C43.4267 0.553228 43.3023 0.503465 43.1718 0.479356C43.0415 0.454055 42.9075 0.454833 42.7775 0.481612C42.6475 0.508391 42.5241 0.560678 42.4145 0.635413C42.3048 0.710148 42.211 0.805831 42.1385 0.917014C42.066 1.0282 42.0163 1.15264 41.9922 1.28314C40.6197 8.31628 37.9994 13.9147 34.4547 17.7045C30.906 14.5396 26.6439 12.8818 21.996 12.8818C17.3481 12.8818 13.078 14.5376 9.53727 17.7045C5.99257 13.9147 3.37222 8.32432 1.99975 1.28314C1.97563 1.15284 1.92599 1.02863 1.85365 0.917602C1.78131 0.806571 1.68768 0.710908 1.57823 0.636198C1.46878 0.561488 1.34564 0.509168 1.21588 0.48225C1.08613 0.455332 0.952366 0.454349 0.822229 0.479356C0.691721 0.503465 0.567282 0.553228 0.4561 0.6257C0.344917 0.698171 0.249185 0.791936 0.17445 0.901609C0.0997153 1.01128 0.0474282 1.13466 0.0206493 1.26465C-0.00612966 1.39463 -0.00685922 1.52866 0.0184416 1.65894C1.37483 8.60567 4.00117 14.4512 7.61419 18.5626C7.77294 18.7434 7.93574 18.9203 8.09851 19.0931C7.93574 19.2679 7.77294 19.4447 7.61419 19.6256C3.99715 23.7349 1.38488 29.5805 0.0184416 36.5293C-0.00685922 36.6595 -0.00612966 36.7935 0.0206493 36.9235C0.0474282 37.0535 0.0997153 37.1769 0.17445 37.2866C0.249185 37.3963 0.344917 37.49 0.4561 37.5625C0.567282 37.635 0.691721 37.6847 0.822229 37.7088C1.08362 37.7595 1.35445 37.7045 1.57524 37.5556C1.79603 37.4068 1.94871 37.1764 1.99975 36.9151C3.37222 29.8819 5.99257 24.2835 9.53727 20.4937C13.086 23.6566 17.3481 25.3164 21.996 25.3164C26.6439 25.3164 30.912 23.6586 34.4547 20.4937C37.9994 24.2835 40.6197 29.8739 41.9922 36.9151C42.0385 37.142 42.1618 37.346 42.3413 37.4924C42.5207 37.6389 42.7452 37.7189 42.9768 37.7188C43.0442 37.7191 43.1115 37.713 43.1778 37.7007C43.3083 37.6766 43.4327 37.6269 43.5439 37.5544C43.6551 37.482 43.7508 37.3882 43.8255 37.2785C43.9003 37.1689 43.9526 37.0455 43.9793 36.9155C44.0061 36.7855 44.0069 36.6515 43.9816 36.5212C42.6191 29.5845 39.9928 23.7349 36.3798 19.6256ZM10.976 19.0931C14.1068 16.3542 17.8424 14.8833 22 14.8833C26.1576 14.8833 29.8912 16.3542 33.022 19.0931C29.8912 21.834 26.1556 23.313 22 23.313C17.8444 23.313 14.1068 21.834 10.976 19.0931Z" fill="#65AF7C"/>
</g>
</svg>
