<svg width="30" height="30" viewBox="0 0 30 30" fill="none" xmlns="http://www.w3.org/2000/svg">
<g id="ico_search">
<path id="Vector" d="M25.1468 26C25.0282 26 24.9107 25.9767 24.8011 25.9312C24.6915 25.8858 24.5919 25.8192 24.5081 25.7353C22.8495 24.0757 21.1378 22.364 19.6998 21.0684L19.6346 21.1236C18.6168 21.9869 17.5649 22.4272 16.509 22.4272C15.7868 22.4264 15.0941 22.1408 14.5812 21.6324C14.0683 21.124 13.7766 20.4338 13.7695 19.7117V19.6736C13.773 19.2865 13.856 18.9042 14.0135 18.5506C14.171 18.1969 14.3996 17.8795 14.685 17.6179C14.9386 17.3808 15.2394 17.1999 15.5677 17.0869C15.896 16.9739 16.2444 16.9314 16.5902 16.9621C17.3724 17.0343 18.3391 17.5878 19.5755 18.5846C19.776 18.3399 19.9766 18.0725 20.1771 17.7824C21.1628 16.3785 21.6171 14.4602 21.3925 12.6452C21.2545 11.5624 20.8874 10.5215 20.3155 9.59179C19.6876 8.56752 18.8343 7.70003 17.8205 7.05534C16.8068 6.41066 15.6593 6.00578 14.4654 5.87154C13.306 5.72699 12.1288 5.84875 11.0235 6.22755C9.91822 6.60635 8.91386 7.23223 8.08682 8.05757C6.62363 9.52391 5.80188 11.5108 5.80188 13.5823C5.80188 15.6538 6.62363 17.6407 8.08682 19.107C9.12949 20.1512 10.4476 20.8773 11.8873 21.2008C12.0029 21.2268 12.1123 21.2754 12.2091 21.3438C12.3059 21.4121 12.3884 21.4988 12.4517 21.599C12.515 21.6992 12.558 21.8109 12.5781 21.9277C12.5983 22.0445 12.5952 22.1641 12.5692 22.2798C12.5431 22.3955 12.4945 22.5049 12.4261 22.6019C12.3577 22.6988 12.2708 22.7813 12.1705 22.8446C12.0702 22.9079 11.9584 22.9509 11.8415 22.9709C11.7246 22.991 11.6049 22.9879 11.4892 22.9616C9.71772 22.5611 8.09628 21.666 6.81331 20.3805C5.0118 18.5757 4 16.1298 4 13.5798C4 11.0297 5.0118 8.58386 6.81331 6.77905C7.8324 5.75905 9.07078 4.98499 10.4342 4.51581C11.7976 4.04664 13.25 3.89471 14.681 4.07159C16.146 4.23735 17.5539 4.73509 18.7975 5.52694C20.0411 6.31879 21.0878 7.38388 21.8578 8.64117C22.5637 9.79148 23.0169 11.0788 23.1874 12.4176C23.4642 14.6638 22.8926 17.0544 21.6572 18.8122C21.4175 19.1541 21.1819 19.468 20.9473 19.7558C22.2789 20.9591 23.8693 22.5375 25.7846 24.4537C25.8684 24.5375 25.9349 24.6371 25.9803 24.7466C26.0257 24.8561 26.049 24.9735 26.049 25.092C26.049 25.2105 26.0257 25.3279 25.9803 25.4374C25.9349 25.547 25.8684 25.6465 25.7846 25.7303C25.7013 25.815 25.602 25.8824 25.4926 25.9287C25.3832 25.975 25.2656 25.9992 25.1468 26ZM15.5744 19.6896C15.5763 19.9365 15.6755 20.1726 15.8505 20.3466C16.0255 20.5207 16.2622 20.6186 16.509 20.6192C17.0766 20.6192 17.6752 20.3705 18.302 19.8781C17.0986 18.9265 16.5973 18.7751 16.4258 18.756C16.3297 18.7492 16.2333 18.7628 16.1429 18.7959C16.0525 18.8291 15.9701 18.8812 15.9013 18.9486C15.7993 19.0433 15.7176 19.1579 15.6614 19.2854C15.6052 19.4128 15.5756 19.5504 15.5744 19.6896Z" fill="#65AF7C"/>
</g>
</svg>
