<svg width="70" height="70" viewBox="0 0 70 70" fill="none" xmlns="http://www.w3.org/2000/svg">
<rect width="70" height="70" rx="14" fill="#D1E5D1"/>
<path d="M43.2665 12C37.1743 13.6584 39.0967 21.057 35.4008 21.8016C34.343 21.9623 33.262 21.8654 32.2497 21.5189C31.2374 21.1724 30.3237 20.5867 29.5862 19.8115C27.2711 17.4965 27.9345 14.1864 27.9345 14.1864C27.9345 14.1864 31.2446 13.5095 33.5596 15.8381C34.6137 16.9522 35.2807 18.3764 35.4617 19.8995C35.5633 20.9352 35.8002 24.4145 32.1584 23.1825C30.7205 22.6755 29.2086 22.4102 27.6841 22.3973C25.9643 22.3964 24.2612 22.7344 22.6721 23.3919C21.083 24.0494 19.6391 25.0135 18.4227 26.2293C17.2063 27.445 16.2414 28.8885 15.5831 30.4772C14.9248 32.066 14.5859 33.7689 14.5859 35.4887C14.6026 39.2563 15.3695 42.9829 16.842 46.4509C18.3145 49.919 20.4631 53.0589 23.1623 55.6875C23.8454 56.4462 24.6807 57.0522 25.6138 57.4663C26.5469 57.8804 27.5568 58.0931 28.5776 58.0906C29.6582 58.106 30.7265 57.8598 31.6913 57.3731C32.6553 56.8677 33.7304 56.6117 34.8186 56.6284C35.8486 56.6523 36.8581 56.9215 37.7632 57.4137C38.6934 57.8784 39.7223 58.1107 40.7619 58.0906C41.7802 58.0935 42.788 57.8837 43.7205 57.4746C44.653 57.0654 45.4898 56.466 46.1772 55.7146C48.8753 53.0823 51.023 49.9398 52.4954 46.4698C53.9677 42.9998 54.7354 39.2716 54.7536 35.5022C54.7518 32.0295 53.371 28.6997 50.9148 26.2448C48.4586 23.7899 45.1281 22.4108 41.6554 22.4108" stroke="#456C51" stroke-width="2" stroke-linecap="round" stroke-linejoin="round"/>
<path d="M25.207 50.6055C26.1235 51.6359 27.2887 52.4143 28.5916 52.8663" stroke="#456C51" stroke-width="2" stroke-linecap="round" stroke-linejoin="round"/>
<path d="M19 37C19 39.4707 20.5433 43.9248 22.8245 47.5191" stroke="#456C51" stroke-width="2" stroke-linecap="round" stroke-linejoin="round"/>
</svg>
