<svg width="30" height="30" viewBox="0 0 30 30" fill="none" xmlns="http://www.w3.org/2000/svg">
<g id="ico_AIidentify">
<g id="Group 825">
<path id="Vector" d="M17.5534 25.5161C17.3761 25.5161 17.2061 25.4457 17.0808 25.3203C16.9555 25.195 16.885 25.025 16.885 24.8477C16.885 24.6705 16.9555 24.5005 17.0808 24.3751C17.2061 24.2498 17.3761 24.1794 17.5534 24.1794C17.9328 24.179 18.2965 24.0281 18.5648 23.7598C18.8331 23.4915 18.984 23.1278 18.9844 22.7484V14.7661C18.984 14.3865 18.8332 14.0226 18.5649 13.7541C18.2967 13.4856 17.9329 13.3344 17.5534 13.3336H16.2909C16.1602 13.3336 16.0324 13.2952 15.9232 13.2233C15.814 13.1513 15.7284 13.049 15.6768 12.9288L14.8674 11.0374C14.8033 10.8869 14.6963 10.7585 14.5597 10.6683C14.4232 10.5781 14.2631 10.5301 14.0995 10.5302H10.2223C10.0587 10.5302 9.89871 10.5783 9.76219 10.6684C9.62567 10.7586 9.51867 10.8869 9.45447 11.0374L8.64577 12.9288C8.59416 13.0491 8.50838 13.1515 8.39907 13.2235C8.28977 13.2954 8.16175 13.3337 8.03089 13.3336H6.76845C6.38878 13.3342 6.02484 13.4853 5.75644 13.7538C5.48804 14.0224 5.33709 14.3864 5.3367 14.7661V22.7484C5.33709 23.1278 5.48799 23.4915 5.75627 23.7598C6.02455 24.0281 6.3883 24.179 6.76771 24.1794H8.03015C9.03366 24.1792 10.0261 23.9698 10.9442 23.5645C10.8253 23.4546 10.7102 23.3402 10.5988 23.2214C9.5317 22.0778 8.9443 20.6386 8.9443 19.1675C8.94524 18.3135 9.28308 17.4944 9.88444 16.888C10.4858 16.2816 11.3021 15.937 12.1561 15.929H12.1947C13.0488 15.9368 13.8653 16.2814 14.4668 16.8877C15.0684 17.4941 15.4063 18.3134 15.4072 19.1675C15.4072 20.7612 14.6877 22.3823 13.3688 23.5875C13.9612 23.85 14.5885 24.0251 15.2312 24.1074C15.3182 24.1191 15.4021 24.1479 15.4779 24.192C15.5538 24.2362 15.6202 24.2948 15.6734 24.3646C15.7266 24.4345 15.7656 24.5141 15.788 24.5989C15.8104 24.6838 15.8159 24.7723 15.8042 24.8593C15.7924 24.9462 15.7636 25.0301 15.7195 25.1059C15.6754 25.1818 15.6167 25.2482 15.5469 25.3014C15.4771 25.3546 15.3974 25.3936 15.3126 25.416C15.2277 25.4384 15.1393 25.4439 15.0523 25.4322C14.036 25.3032 13.0551 24.9752 12.1657 24.4668C11.0422 25.1173 9.65052 25.5146 8.03015 25.5146H6.76771C6.03391 25.5138 5.33039 25.222 4.81151 24.7031C4.29264 24.1842 4.00079 23.4807 4 22.7469V14.7661C4.00079 14.032 4.29269 13.3282 4.81168 12.8091C5.33068 12.2899 6.03439 11.9978 6.76845 11.9969H7.58904L8.22471 10.5116C8.39178 10.1204 8.67012 9.78694 9.02514 9.5526C9.38015 9.31825 9.7962 9.19339 10.2216 9.19351H14.1002C14.5256 9.19323 14.9416 9.31794 15.2966 9.55216C15.6517 9.78638 15.93 10.1198 16.0971 10.5109L16.7328 11.9961H17.5497C18.2839 11.9969 18.9878 12.2889 19.5069 12.8081C20.0261 13.3272 20.3181 14.0311 20.3189 14.7653V22.7476C20.3183 23.4812 20.0268 24.1846 19.5084 24.7035C18.99 25.2225 18.2869 25.5147 17.5534 25.5161ZM12.1769 17.2657C11.6739 17.268 11.1923 17.4694 10.8373 17.8258C10.4823 18.1821 10.2829 18.6645 10.2825 19.1675C10.2825 20.4678 10.9204 21.8647 12.1613 22.8531C13.3019 21.9924 14.072 20.7381 14.072 19.1675C14.0714 18.6645 13.8718 18.1821 13.5167 17.8257C13.1616 17.4694 12.6799 17.268 12.1769 17.2657Z" fill="#456C51"/>
<path id="Vector_2" d="M18.4673 9.19355C18.3716 9.19355 18.2798 9.15552 18.2121 9.08783C18.1444 9.02014 18.1064 8.92833 18.1064 8.83261C18.1057 8.33544 17.9079 7.85883 17.5564 7.50728C17.2048 7.15573 16.7282 6.95795 16.2311 6.95731C16.1353 6.95731 16.0435 6.91929 15.9758 6.8516C15.9081 6.78391 15.8701 6.6921 15.8701 6.59637C15.8701 6.50065 15.9081 6.40884 15.9758 6.34115C16.0435 6.27346 16.1353 6.23543 16.2311 6.23543C16.7281 6.23501 17.2048 6.03741 17.5563 5.68599C17.9079 5.33457 18.1057 4.85803 18.1064 4.36094C18.1064 4.26521 18.1444 4.17341 18.2121 4.10572C18.2798 4.03803 18.3716 4 18.4673 4C18.563 4 18.6548 4.03803 18.7225 4.10572C18.7902 4.17341 18.8282 4.26521 18.8282 4.36094C18.8287 4.85796 19.0263 5.33449 19.3777 5.68594C19.7292 6.03738 20.2057 6.23501 20.7027 6.23543C20.7985 6.23543 20.8903 6.27346 20.958 6.34115C21.0256 6.40884 21.0637 6.50065 21.0637 6.59637C21.0637 6.6921 21.0256 6.78391 20.958 6.8516C20.8903 6.91929 20.7985 6.95731 20.7027 6.95731C20.2056 6.95795 19.7291 7.15576 19.3777 7.50733C19.0263 7.8589 18.8287 8.33552 18.8282 8.83261C18.828 8.92827 18.7899 9.01995 18.7223 9.0876C18.6546 9.15524 18.563 9.19334 18.4673 9.19355ZM17.5505 6.59637C17.9279 6.82057 18.2431 7.13577 18.4673 7.51316C18.691 7.13563 19.0059 6.82037 19.3833 6.59637C19.0058 6.3729 18.6908 6.05786 18.4673 5.68038C18.244 6.05743 17.9296 6.37238 17.5529 6.59637H17.5505Z" fill="#456C51"/>
<path id="Vector_3" d="M23.6625 12.9032C23.5394 12.9032 23.4213 12.8544 23.3343 12.7673C23.2473 12.6803 23.1984 12.5623 23.1984 12.4392C23.1976 11.8 22.9433 11.1872 22.4913 10.7352C22.0393 10.2832 21.4265 10.0289 20.7873 10.0281C20.6642 10.0281 20.5462 9.9792 20.4592 9.89217C20.3721 9.80514 20.3232 9.6871 20.3232 9.56402C20.3232 9.44095 20.3721 9.32291 20.4592 9.23588C20.5462 9.14885 20.6642 9.09996 20.7873 9.09996C21.4264 9.09941 22.0392 8.84535 22.4912 8.39353C22.9433 7.9417 23.1976 7.32901 23.1984 6.6899C23.1984 6.56682 23.2473 6.44879 23.3343 6.36176C23.4213 6.27473 23.5394 6.22583 23.6625 6.22583C23.7855 6.22583 23.9036 6.27473 23.9906 6.36176C24.0776 6.44879 24.1265 6.56682 24.1265 6.6899C24.1271 7.32892 24.3812 7.94161 24.833 8.39346C25.2849 8.84532 25.8976 9.09941 26.5366 9.09996C26.6597 9.09996 26.7777 9.14885 26.8647 9.23588C26.9518 9.32291 27.0007 9.44095 27.0007 9.56402C27.0007 9.6871 26.9518 9.80514 26.8647 9.89217C26.7777 9.9792 26.6597 10.0281 26.5366 10.0281C25.8975 10.0289 25.2848 10.2832 24.833 10.7353C24.3811 11.1873 24.1271 11.8001 24.1265 12.4392C24.1263 12.5622 24.0773 12.6801 23.9903 12.767C23.9033 12.854 23.7855 12.903 23.6625 12.9032ZM22.4837 9.56402C22.969 9.85227 23.3742 10.2575 23.6625 10.7428C23.95 10.2574 24.355 9.85203 24.8402 9.56402C24.3548 9.2767 23.9498 8.87165 23.6625 8.38632C23.3753 8.8711 22.9711 9.27604 22.4868 9.56402H22.4837Z" fill="#456C51"/>
</g>
</g>
</svg>
