<svg width="26" height="26" viewBox="0 0 26 26" fill="none" xmlns="http://www.w3.org/2000/svg">
<path d="M16.318 21.6668H9.13211C7.86025 21.665 6.641 21.159 5.74151 20.2598C4.84202 19.3606 4.33565 18.1415 4.33336 16.8697C4.33035 14.9528 4.79638 13.0643 5.69081 11.3689C5.77912 11.203 5.92973 11.0788 6.10953 11.0239C6.28933 10.9689 6.4836 10.9876 6.64962 11.0759C6.8156 11.1642 6.93973 11.3148 6.99469 11.4946C7.04965 11.6744 7.03094 11.8686 6.94269 12.0347C6.15728 13.5251 5.74832 15.185 5.75148 16.8697C5.75314 17.7658 6.10982 18.6248 6.74343 19.2586C7.37704 19.8923 8.23595 20.2492 9.13211 20.2511H16.318C17.2142 20.2492 18.0731 19.8923 18.7067 19.2586C19.3403 18.6248 19.697 17.7658 19.6987 16.8697C19.7131 14.7167 19.0408 12.6151 17.7795 10.8702L17.7007 10.7639C17.4742 10.9999 17.2024 11.1878 16.9017 11.3165C16.6009 11.445 16.2772 11.5117 15.9501 11.5123C15.4845 11.5117 15.038 11.3276 14.7073 10.9999C14.3767 10.6721 14.1885 10.2273 14.1838 9.76174V9.75228V9.73573C14.1885 9.27027 14.3767 8.82548 14.7074 8.49788C15.0381 8.17028 15.4846 7.98633 15.9501 7.98594C16.4354 7.98594 16.9144 8.14351 17.3926 8.45864C17.548 7.93777 17.6535 7.40331 17.7078 6.86247C17.7239 6.72255 17.7099 6.5808 17.6669 6.4467C17.6238 6.3126 17.5526 6.18924 17.458 6.08487C17.3649 5.97948 17.2502 5.89522 17.1218 5.83775C16.9934 5.78027 16.8542 5.75091 16.7135 5.75161H8.73819C8.59759 5.75091 8.45845 5.7802 8.33007 5.83753C8.20168 5.89487 8.087 5.97891 7.99368 6.08408C7.89913 6.18863 7.82795 6.31213 7.78489 6.44635C7.74182 6.58057 7.72786 6.72243 7.74393 6.86247C7.85896 7.9103 8.08113 8.72887 8.40414 9.29454C8.49752 9.45774 8.52225 9.65134 8.4729 9.83277C8.42356 10.0142 8.30417 10.1686 8.141 10.262C8.06015 10.3082 7.97099 10.338 7.87861 10.3498C7.78623 10.3615 7.69244 10.355 7.6026 10.3304C7.51276 10.3059 7.42863 10.264 7.35501 10.2069C7.28139 10.1499 7.21972 10.079 7.17353 9.99809C6.75283 9.26303 6.47078 8.2601 6.33448 7.01689C6.29758 6.67887 6.33224 6.33688 6.43622 6.01314C6.54019 5.68941 6.71115 5.39119 6.93797 5.13788C7.16471 4.88489 7.44221 4.68251 7.75239 4.54391C8.06256 4.40532 8.39846 4.33362 8.73819 4.3335H16.712C17.0518 4.33371 17.3878 4.40544 17.6981 4.54403C18.0083 4.68261 18.286 4.88495 18.513 5.13788C18.7406 5.39169 18.9122 5.69062 19.0166 6.01519C19.121 6.33976 19.1558 6.68269 19.1188 7.02162C19.0109 8.008 18.8108 8.84075 18.5224 9.51199C18.6587 9.6735 18.795 9.84919 18.9321 10.0375C20.368 12.0248 21.1333 14.4179 21.1168 16.8697C21.1145 18.1415 20.6081 19.3606 19.7086 20.2598C18.8091 21.159 17.5899 21.665 16.318 21.6668ZM15.6019 9.74992C15.6027 9.8418 15.6397 9.92965 15.7049 9.9944C15.7701 10.0591 15.8582 10.0956 15.9501 10.0958C16.2345 10.0958 16.4969 9.96815 16.7277 9.72707C16.4685 9.53168 16.203 9.40484 15.9501 9.40484C15.8583 9.40484 15.7702 9.44109 15.705 9.50572C15.6398 9.57034 15.6027 9.65811 15.6019 9.74992Z" fill="#1A342B"/>
<path d="M9.6871 15.6092L9.22778 16.0685V17.4417H8.21304V13.2661H9.22778V15.194L11.1738 13.2661H12.0451L10.3859 14.9206L12.2358 17.4417H11.0367L9.6871 15.6092Z" fill="#1A342B" stroke="#1A342B" stroke-width="0.4"/>
<path d="M13.7727 17.2449C13.4191 17.0876 13.12 16.8291 12.9132 16.502C12.7066 16.1582 12.6022 15.7628 12.6122 15.3619C12.6021 14.9611 12.7065 14.5656 12.9132 14.2219C13.1219 13.893 13.4235 13.6334 13.7798 13.4759C14.1956 13.2923 14.6466 13.2024 15.101 13.2127C15.4607 13.2065 15.8186 13.2652 16.1575 13.386C16.4412 13.4865 16.6956 13.6557 16.8981 13.8784C17.0852 14.0923 17.2038 14.3574 17.2384 14.6395H16.4403C16.3934 14.3314 16.2354 14.0512 15.996 13.8516C15.7665 13.6704 15.4729 13.5798 15.1152 13.5798C14.6498 13.5798 14.2869 13.7351 14.0264 14.0455C13.7659 14.3559 13.6346 14.7915 13.6325 15.3525C13.6325 15.9092 13.7606 16.3449 14.0169 16.6595C14.2732 16.9741 14.6283 17.1317 15.0821 17.1322C15.2632 17.1343 15.4437 17.1131 15.6194 17.0692C15.7896 17.0215 15.9534 16.9532 16.1071 16.8659C16.1149 16.8617 16.1214 16.8554 16.126 16.8478C16.1306 16.8402 16.133 16.8315 16.1331 16.8226V15.5739H14.7071V15.228H17.1494V16.8573C16.8975 17.0791 16.5985 17.2408 16.2749 17.33C15.889 17.447 15.4877 17.5052 15.0845 17.5025C14.6336 17.5135 14.1859 17.4256 13.7727 17.2449Z" fill="#1A342B" stroke="#1A342B" stroke-width="0.4"/>
</svg>
