<svg width="30" height="30" viewBox="0 0 30 30" fill="none" xmlns="http://www.w3.org/2000/svg">
<g id="ico_gym_nor">
<g id="Group 914">
<path id="Vector" d="M18.8285 25H10.537C9.06951 24.9978 7.66268 24.414 6.6248 23.3765C5.58693 22.339 5.00266 20.9323 5.00002 19.4648C4.99654 17.253 5.53428 15.074 6.56631 13.1178C6.6682 12.9263 6.84198 12.7831 7.04945 12.7197C7.25691 12.6562 7.48107 12.6778 7.67262 12.7796C7.86415 12.8815 8.00736 13.0553 8.07078 13.2628C8.13419 13.4703 8.11262 13.6944 8.01079 13.886C7.10454 15.6057 6.63267 17.5209 6.63631 19.4648C6.63823 20.4988 7.04979 21.49 7.78087 22.2212C8.51196 22.9525 9.50301 23.3643 10.537 23.3664H18.8285C19.8625 23.3643 20.8536 22.9525 21.5847 22.2212C22.3157 21.49 22.7273 20.4988 22.7292 19.4648C22.7459 16.9806 21.9702 14.5557 20.5148 12.5424L20.4239 12.4197C20.1625 12.692 19.849 12.9089 19.5019 13.0573C19.1548 13.2056 18.7814 13.2825 18.404 13.2833C17.8668 13.2826 17.3515 13.0701 16.97 12.692C16.5884 12.3138 16.3714 11.8005 16.3659 11.2634V11.2524V11.2334C16.3714 10.6963 16.5885 10.1831 16.97 9.80506C17.3516 9.42706 17.8669 9.21481 18.404 9.21435C18.9639 9.21435 19.5166 9.39616 20.0684 9.75978C20.2477 9.15877 20.3694 8.54209 20.432 7.91805C20.4506 7.7566 20.4345 7.59304 20.3849 7.43831C20.3352 7.28358 20.253 7.14125 20.1439 7.02082C20.0364 6.89921 19.9041 6.80199 19.7559 6.73567C19.6078 6.66935 19.4471 6.63547 19.2848 6.63629H10.0825C9.92028 6.63548 9.75974 6.66928 9.6116 6.73543C9.46347 6.80158 9.33114 6.89856 9.22346 7.01991C9.11437 7.14054 9.03224 7.28304 8.98255 7.43791C8.93286 7.59278 8.91675 7.75646 8.93529 7.91805C9.06801 9.12708 9.32437 10.0716 9.69708 10.7243C9.80482 10.9126 9.83335 11.136 9.77642 11.3453C9.71948 11.5547 9.58173 11.7328 9.39346 11.8406C9.30016 11.8939 9.19728 11.9283 9.09069 11.9419C8.9841 11.9554 8.87588 11.9478 8.77222 11.9196C8.66856 11.8913 8.57149 11.8428 8.48654 11.7771C8.40159 11.7113 8.33044 11.6294 8.27714 11.5361C7.79171 10.6879 7.46627 9.5307 7.309 8.09622C7.26642 7.7062 7.30642 7.3116 7.42639 6.93806C7.54636 6.56452 7.74362 6.22042 8.00534 5.92814C8.26697 5.63623 8.58716 5.4027 8.94505 5.24279C9.30295 5.08287 9.69052 5.00015 10.0825 5H19.283C19.6751 5.00025 20.0628 5.08301 20.4208 5.24292C20.7789 5.40283 21.0992 5.63629 21.3611 5.92814C21.6238 6.22099 21.8218 6.56591 21.9422 6.94042C22.0627 7.31493 22.1029 7.71061 22.0602 8.10168C21.9356 9.23981 21.7047 10.2007 21.372 10.9752C21.5293 11.1615 21.6865 11.3643 21.8447 11.5815C23.5015 13.8745 24.3845 16.6359 24.3655 19.4648C24.3629 20.9323 23.7786 22.339 22.7407 23.3765C21.7028 24.414 20.296 24.9978 18.8285 25ZM18.0022 11.2497C18.0031 11.3557 18.0458 11.4571 18.1211 11.5318C18.1963 11.6065 18.2979 11.6486 18.404 11.6488C18.7321 11.6488 19.0348 11.5015 19.3012 11.2234C19.0021 10.9979 18.6958 10.8516 18.404 10.8516C18.298 10.8516 18.1964 10.8934 18.1211 10.9679C18.0459 11.0425 18.0031 11.1438 18.0022 11.2497Z" fill="#C5C5C5"/>
<path id="Vector_2" d="M11.1774 18.0102L10.6474 18.5401V20.1246H9.47656V15.3066H10.6474V17.5311L12.8928 15.3066H13.8982L11.9837 17.2156L14.1182 20.1246H12.7346L11.1774 18.0102Z" fill="#C5C5C5" stroke="#C5C5C5" stroke-width="0.4"/>
<path id="Vector_3" d="M15.8916 19.8976C15.4835 19.7161 15.1384 19.4178 14.8998 19.0403C14.6615 18.6437 14.541 18.1875 14.5525 17.7249C14.5409 17.2624 14.6614 16.8061 14.8998 16.4096C15.1406 16.03 15.4886 15.7304 15.8997 15.5487C16.3795 15.3369 16.8999 15.2332 17.4242 15.2451C17.8393 15.2379 18.2522 15.3057 18.6432 15.4451C18.9706 15.561 19.2642 15.7562 19.4978 16.0132C19.7137 16.26 19.8505 16.5659 19.8905 16.8913H18.9696C18.9155 16.5359 18.7331 16.2125 18.4569 15.9823C18.1921 15.7732 17.8533 15.6687 17.4406 15.6687C16.9036 15.6687 16.4849 15.8478 16.1843 16.2059C15.8837 16.5641 15.7322 17.0668 15.7297 17.714C15.7297 18.3564 15.8776 18.8591 16.1734 19.2221C16.4691 19.5852 16.8788 19.767 17.4024 19.7676C17.6113 19.7699 17.8197 19.7455 18.0224 19.6949C18.2188 19.6398 18.4077 19.561 18.5851 19.4603C18.5941 19.4554 18.6016 19.4482 18.6069 19.4394C18.6122 19.4306 18.615 19.4206 18.6151 19.4103V17.9695H16.9697V17.5704H19.7877V19.4503C19.4971 19.7063 19.1521 19.8928 18.7787 19.9957C18.3335 20.1308 17.8704 20.1979 17.4051 20.1948C16.8849 20.2076 16.3683 20.1061 15.8916 19.8976Z" fill="#C5C5C5" stroke="#C5C5C5" stroke-width="0.4"/>
</g>
</g>
</svg>
