<svg width="18" height="18" viewBox="0 0 18 18" fill="none" xmlns="http://www.w3.org/2000/svg">
<g id="Group 1288">
<path id="Vector" d="M3.29083 12.3537H13.0453C13.1974 12.3537 13.3448 12.3013 13.4627 12.2052C13.5805 12.1091 13.6616 11.9753 13.6922 11.8263L15.6548 2.25375H16.4066C16.5816 2.25375 16.7495 2.1842 16.8733 2.06042C16.9971 1.93663 17.0667 1.76873 17.0667 1.59367C17.0667 1.41861 16.9971 1.25071 16.8733 1.12693C16.7495 1.00314 16.5816 0.933594 16.4066 0.933594H15.1165C14.9643 0.933563 14.8168 0.986107 14.6989 1.08233C14.5811 1.17856 14.5001 1.31256 14.4696 1.46166L12.507 11.0335H3.68616L2.51269 8.83325C2.14598 7.86147 2.21931 7.15519 2.46721 6.7122C2.56491 7.07718 2.74001 7.41686 2.9806 7.70818C3.03121 7.76906 3.08476 7.82846 3.13903 7.88274C3.42811 8.1701 3.81932 8.33115 4.22693 8.3306C4.63454 8.33005 5.0253 8.16795 5.31361 7.8798L5.32314 7.87027C5.882 7.29747 5.89301 6.38803 5.34588 5.74336C5.04998 5.39127 4.66903 5.12063 4.23916 4.95713C4.47544 4.7732 4.76702 4.67471 5.06644 4.6777H12.1806C12.3557 4.6777 12.5236 4.60815 12.6474 4.48436C12.7711 4.36058 12.8407 4.19268 12.8407 4.01762C12.8407 3.84256 12.7711 3.67466 12.6474 3.55088C12.5236 3.42709 12.3557 3.35754 12.1806 3.35754H5.06644C4.55576 3.35531 4.05521 3.49983 3.62431 3.77392C3.19342 4.04801 2.85034 4.44012 2.6359 4.90359C2.63003 4.91533 2.6249 4.92779 2.61903 4.94026C2.47349 4.99201 2.33345 5.0581 2.20098 5.13755C1.24754 5.70595 0.440769 7.14859 1.29374 9.34224C1.30318 9.36736 1.3142 9.39186 1.32674 9.41558L2.70777 12.0024C2.76387 12.1084 2.84779 12.1971 2.95052 12.259C3.05325 12.3209 3.1709 12.3536 3.29083 12.3537ZM4.3785 6.95056C4.33744 6.99044 4.28245 7.01274 4.22521 7.01274C4.16797 7.01274 4.113 6.99044 4.07194 6.95056C4.04773 6.92636 4.0228 6.89922 3.99859 6.86989C3.83453 6.67317 3.73244 6.43224 3.70523 6.17754C3.95382 6.25772 4.17473 6.40644 4.34256 6.60659C4.42691 6.7012 4.47385 6.85302 4.3785 6.9491V6.95056Z" fill="#1A342B"/>
<path id="Vector_2" d="M11.6296 17.0477C12.113 17.0471 12.5764 16.855 12.9185 16.5134C13.2605 16.1718 13.4532 15.7085 13.4543 15.2251C13.4538 14.7414 13.2613 14.2776 12.9193 13.9355C12.5772 13.5934 12.1134 13.401 11.6296 13.4004C11.1458 13.401 10.682 13.5934 10.3399 13.9355C9.99787 14.2776 9.80543 14.7414 9.80485 15.2251C9.80602 15.7085 9.99872 16.1718 10.3407 16.5134C10.6828 16.855 11.1462 17.0471 11.6296 17.0477ZM11.6296 14.7183C11.7634 14.7185 11.8916 14.7718 11.9862 14.8664C12.0808 14.9609 12.134 15.0892 12.1342 15.2229C12.134 15.3567 12.0808 15.4849 11.9862 15.5795C11.8916 15.6741 11.7634 15.7273 11.6296 15.7275C11.4958 15.7273 11.3676 15.6741 11.273 15.5795C11.1784 15.4849 11.1252 15.3567 11.125 15.2229C11.1256 15.0895 11.179 14.9617 11.2736 14.8676C11.3681 14.7734 11.4962 14.7205 11.6296 14.7205V14.7183Z" fill="#1A342B"/>
<path id="Vector_3" d="M4.83198 17.0479C5.31576 17.0473 5.77956 16.8549 6.12164 16.5128C6.46372 16.1708 6.65616 15.707 6.65674 15.2232C6.65616 14.7394 6.46372 14.2756 6.12164 13.9335C5.77956 13.5915 5.31576 13.399 4.83198 13.3984C4.34821 13.399 3.88442 13.5915 3.54234 13.9335C3.20026 14.2756 3.00783 14.7394 3.00724 15.2232C3.00783 15.707 3.20026 16.1708 3.54234 16.5128C3.88442 16.8549 4.34821 17.0473 4.83198 17.0479ZM4.83198 14.7186C4.96575 14.7188 5.09399 14.772 5.18858 14.8666C5.28316 14.9612 5.33639 15.0894 5.33658 15.2232C5.33639 15.357 5.28316 15.4852 5.18858 15.5798C5.09399 15.6744 4.96575 15.7276 4.83198 15.7278C4.69822 15.7276 4.57 15.6744 4.47541 15.5798C4.38082 15.4852 4.32759 15.357 4.3274 15.2232C4.32817 15.0898 4.38165 14.9621 4.47618 14.868C4.5707 14.7739 4.6986 14.721 4.83198 14.7208V14.7186Z" fill="#1A342B"/>
</g>
</svg>
