<svg width="30" height="30" viewBox="0 0 30 30" fill="none" xmlns="http://www.w3.org/2000/svg">
<g id="ico_send">
<path id="Vector" d="M17.0226 26C16.7875 26.0001 16.5616 25.9083 16.3932 25.7442C16.2248 25.5801 16.1272 25.3567 16.1212 25.1216C16.1181 25.0032 16.1384 24.8854 16.1809 24.7749C16.2234 24.6643 16.2872 24.5632 16.3688 24.4774C16.4504 24.3915 16.5481 24.3226 16.6563 24.2745C16.7645 24.2264 16.8812 24.2002 16.9996 24.1972C17.918 24.1741 18.8625 23.6854 19.804 22.7439C21.8141 20.7337 23.3936 15.5866 24.1388 8.6217C24.1799 8.24419 24.1356 7.86225 24.009 7.50421C23.8824 7.14618 23.6769 6.82122 23.4076 6.55345C23.14 6.28393 22.8151 6.07823 22.457 5.95164C22.0989 5.82506 21.7169 5.78085 21.3394 5.82231C11.4789 6.87897 8.1787 9.20963 7.21719 10.1631C6.25568 11.1166 5.77493 12.1152 5.82 13.0977C5.89411 14.7213 7.33037 15.9222 7.34439 15.9342C7.36794 15.9532 7.39035 15.9736 7.41149 15.9953C8.21493 16.8037 9.22648 17.374 10.3341 17.6429C10.3341 17.5677 10.3411 17.4916 10.3461 17.4155C10.4843 15.2832 11.3667 13.2089 12.7048 11.8718C13.4193 11.1593 14.3868 10.7587 15.3958 10.7576C16.4048 10.7565 17.3732 11.1549 18.0893 11.8658C18.8001 12.5819 19.1986 13.5503 19.1975 14.5593C19.1963 15.5683 18.7957 16.5358 18.0833 17.2503C16.7442 18.5884 14.6719 19.4707 12.5385 19.609L12.3152 19.62C12.5848 20.7269 13.1538 21.7384 13.9598 22.5436C13.9898 22.575 14.0176 22.6084 14.0429 22.6437C14.2429 22.8884 14.4674 23.1119 14.713 23.3108C14.8978 23.4622 15.0149 23.6809 15.0385 23.9187C15.0622 24.1564 14.9905 24.3938 14.8392 24.5788C14.6877 24.7636 14.469 24.8807 14.2313 24.9043C13.9935 24.928 13.7561 24.8563 13.5712 24.705C13.2325 24.4297 12.9224 24.121 12.6457 23.7835C11.4899 22.6165 10.7207 21.1225 10.4423 19.5038C8.81892 19.2258 7.3207 18.4543 6.15152 17.2943C5.85104 17.0379 4.11932 15.4665 4.00615 13.1959C3.92902 11.6755 4.57804 10.2232 5.93417 8.8791C7.31234 7.51196 9.67805 6.37518 12.9642 5.48378C15.9239 4.68252 19.0398 4.24984 21.133 4.02548C21.7783 3.95514 22.4311 4.03087 23.0431 4.24707C23.6552 4.46327 24.2107 4.8144 24.6686 5.27444C25.1286 5.73215 25.4797 6.28751 25.6959 6.89937C25.9122 7.51123 25.9879 8.16389 25.9176 8.809C25.6932 10.9123 25.2585 14.0372 24.4663 16.9838C23.5819 20.277 22.4371 22.6417 21.0609 24.0149C19.7809 25.2939 18.4238 25.9609 17.0266 25.996L17.0226 26ZM15.401 12.5599C15.1373 12.5594 14.8761 12.611 14.6324 12.7117C14.3887 12.8125 14.1673 12.9603 13.9808 13.1468C12.9582 14.1694 12.2551 15.8511 12.1469 17.5327C12.1399 17.6329 12.1349 17.733 12.1329 17.8332C14.0008 17.7891 15.7716 17.0319 16.8183 15.9833C17.1939 15.6065 17.4049 15.0961 17.4049 14.564C17.4049 14.032 17.1939 13.5216 16.8183 13.1448C16.632 12.959 16.411 12.8118 16.1678 12.7114C15.9247 12.611 15.6641 12.5595 15.401 12.5599Z" fill="#456C51"/>
</g>
</svg>
