<svg width="70" height="70" viewBox="0 0 70 70" fill="none" xmlns="http://www.w3.org/2000/svg">
<rect width="70" height="70" rx="14" fill="#D1E5D1"/>
<path d="M17.2493 41.5468L19.1527 50.8403L41.8378 28.1552C42.4235 27.5656 42.8538 26.8399 43.0902 26.0431C43.3267 25.2464 43.3618 24.4034 43.1926 23.5898L40.8082 12L19.8098 33.0323C18.7111 34.1284 17.902 35.4803 17.4551 36.9664C17.0082 38.4526 16.9375 40.0266 17.2493 41.5468Z" stroke="#456C51" stroke-width="2" stroke-linecap="round" stroke-linejoin="round"/>
<path d="M27.9654 24.8359C26.868 25.9327 26.0601 27.2849 25.6144 28.771C25.1687 30.2572 25.099 31.8308 25.4118 33.3505L26.482 38.5662C26.7388 39.8199 26.6807 41.1178 26.3131 42.3436C25.9455 43.5694 25.2797 44.685 24.3754 45.5905L23.1426 46.8233" stroke="#456C51" stroke-width="2" stroke-linecap="round" stroke-linejoin="round"/>
<path d="M36.2769 16.5586C35.1782 17.6547 34.3691 19.0066 33.9222 20.4927C33.4753 21.9789 33.4046 23.5529 33.7164 25.0731L34.7867 30.2889C35.0466 31.5415 34.99 32.8392 34.6222 34.0645C34.2544 35.2897 33.5869 36.404 32.6801 37.3064L31.4473 38.546" stroke="#456C51" stroke-width="2" stroke-linecap="round" stroke-linejoin="round"/>
<path d="M28.4463 52.7439L19.1528 50.8405L41.8379 28.1554C42.4276 27.5697 43.1533 27.1394 43.95 26.903C44.7468 26.6665 45.5897 26.6314 46.4034 26.8006L58.027 29.1647L36.9947 50.1631C35.8972 51.2707 34.5406 52.0869 33.0478 52.5375C31.5551 52.9882 29.9734 53.0591 28.4463 52.7439Z" stroke="#456C51" stroke-width="2" stroke-linecap="round" stroke-linejoin="round"/>
<path d="M45.1568 42.0273C44.0601 43.1248 42.7079 43.9327 41.2217 44.3784C39.7356 44.8241 38.162 44.8938 36.6423 44.581L31.4266 43.5108C30.1728 43.254 28.875 43.3121 27.6492 43.6797C26.4233 44.0473 25.3078 44.7131 24.4022 45.6174L23.1694 46.8502" stroke="#456C51" stroke-width="2" stroke-linecap="round" stroke-linejoin="round"/>
<path d="M53.4345 33.7168C52.3373 34.8139 50.9854 35.6221 49.4995 36.0689C48.0137 36.5157 46.4402 36.5873 44.9199 36.2772L39.7381 35.2002C38.4843 34.9441 37.1867 35.0024 35.961 35.37C34.7352 35.7376 33.6196 36.403 32.7138 37.3069L31.481 38.5464" stroke="#456C51" stroke-width="2" stroke-linecap="round" stroke-linejoin="round"/>
<path d="M19.153 50.8398L12 57.9996" stroke="#456C51" stroke-width="2" stroke-linecap="round" stroke-linejoin="round"/>
<path d="M54.9794 25.7835C54.1056 21.8548 52.9473 19.9446 51.2878 18.468C49.2557 16.6255 46.0924 16.2936 45.2253 19.4163C44.5073 21.9835 46.9459 25.1671 50.1769 24.9842C50.1769 24.9842 54.1192 24.9233 55.9007 20.1749C56.9266 17.5472 57.6273 14.8038 57.987 12.0059C55.1898 12.3696 52.4469 13.0701 49.8179 14.0922" stroke="#456C51" stroke-width="2" stroke-linecap="round" stroke-linejoin="round"/>
</svg>
