<svg width="18" height="18" viewBox="0 0 18 18" fill="none" xmlns="http://www.w3.org/2000/svg">
<g id="Group 1316">
<path id="Vector" d="M14.6845 6.16162L14.4579 7.58034C14.2084 9.14003 13.4112 10.5597 12.2094 11.5847C11.0075 12.6096 9.47975 13.1726 7.90023 13.1726C6.60212 13.1727 5.33243 12.7924 4.24811 12.0787C3.16379 11.365 2.31237 10.3493 1.79907 9.15697C1.79907 9.15697 5.77296 9.96205 8.30358 8.51961C10.8342 7.07716 11.6213 6.24098 14.6845 6.16162Z" fill="url(#paint0_linear_3893_3722)" fill-opacity="0.3"/>
<path id="Vector_2" d="M14.4581 7.58023C14.2087 9.13993 13.4114 10.5596 12.2096 11.5846C11.0077 12.6095 9.47996 13.1725 7.90044 13.1725C6.34821 13.1725 4.84498 12.6289 3.65183 11.636C2.45868 10.6431 1.65096 9.26372 1.36892 7.73732L1.14966 6.55097C1.14966 6.55097 3.73263 5.9627 7.80388 7.62196C11.1715 8.99977 14.4581 7.58023 14.4581 7.58023Z" fill="url(#paint1_linear_3893_3722)" fill-opacity="0.3"/>
<path id="Vector_3" d="M17.5802 0.0999176C17.4965 0.0512497 17.4041 0.019542 17.3082 0.00660796C17.2123 -0.00632611 17.1148 -0.000233256 17.0213 0.024538C16.9278 0.0493094 16.84 0.0922731 16.7631 0.150974C16.6862 0.209674 16.6216 0.282961 16.573 0.366643C16.2672 0.89875 15.9027 1.39493 15.4865 1.84591C15.0583 1.37955 14.3282 0.989276 13.2962 0.675096C11.8628 0.239826 9.97112 9.98471e-05 7.96904 9.98471e-05C5.96696 9.98471e-05 4.07452 0.239826 2.64108 0.675096C0.888543 1.20691 0 1.967 0 2.93245C0 3.8979 0.888543 4.65798 2.64108 5.19062C4.07452 5.62589 5.96614 5.86561 7.96904 5.86561H7.99031C9.05803 5.86561 10.8441 5.86561 12.6711 5.28143C13.191 5.11661 13.6957 4.90748 14.1798 4.65635L13.7307 7.46433C13.5139 8.85331 12.8065 10.1186 11.7369 11.0308C10.6672 11.943 9.3061 12.4417 7.90032 12.4364C6.51996 12.4368 5.18304 11.9537 4.12183 11.071C3.06062 10.1882 2.34217 8.96161 2.09127 7.60424L1.87198 6.41706C1.8364 6.22519 1.72612 6.05528 1.56534 5.94467C1.40457 5.83406 1.20645 5.7918 1.01453 5.82716C0.822504 5.86255 0.652401 5.97277 0.541623 6.13356C0.430845 6.29436 0.388466 6.49257 0.42381 6.68461L0.643076 7.87178C0.933759 9.44279 1.72648 10.877 2.90207 11.9589C4.07767 13.0408 5.57264 13.712 7.16233 13.8715V16.5273H3.12789C2.9326 16.5273 2.7453 16.6049 2.6072 16.743C2.46911 16.8811 2.39153 17.0683 2.39153 17.2636C2.39153 17.4589 2.46911 17.6462 2.6072 17.7843C2.7453 17.9224 2.9326 18 3.12789 18H12.6654C12.8607 18 13.048 17.9224 13.1861 17.7843C13.3242 17.6462 13.4017 17.4589 13.4017 17.2636C13.4017 17.0683 13.3242 16.8811 13.1861 16.743C13.048 16.6049 12.8607 16.5273 12.6654 16.5273H8.63341V13.8715C10.1277 13.7214 11.5407 13.1195 12.6842 12.1459C14.0189 11.0067 14.9044 9.42941 15.1821 7.69669L15.8481 3.52972C16.645 2.84023 17.3194 2.02084 17.8428 1.10628C17.9412 0.937938 17.9688 0.737455 17.9195 0.548799C17.8703 0.360143 17.7483 0.198714 17.5802 0.0999176ZM12.2227 3.87908C10.6265 4.3888 9.05885 4.39289 8.01404 4.39289H7.96904C6.20505 4.39289 4.5327 4.19489 3.25307 3.8349C1.91617 3.45853 1.52181 3.04372 1.47518 2.9349C1.52181 2.82363 1.91617 2.40963 3.25307 2.03491C4.53025 1.67491 6.20505 1.47691 7.96904 1.47691C9.73303 1.47691 11.4054 1.67491 12.6842 2.03491C13.7298 2.32863 14.1986 2.6469 14.3754 2.82445C13.7164 3.28465 12.9903 3.64038 12.2227 3.87908Z" fill="#65AF7C"/>
</g>
<defs>
<linearGradient id="paint0_linear_3893_3722" x1="4.6371" y1="12.7564" x2="7.85186" y2="5.68629" gradientUnits="userSpaceOnUse">
<stop stop-color="#FFFCF5"/>
<stop offset="1" stop-color="#FFFCF5"/>
</linearGradient>
<linearGradient id="paint1_linear_3893_3722" x1="4.08085" y1="12.7734" x2="7.01212" y2="5.8297" gradientUnits="userSpaceOnUse">
<stop stop-color="#FFFCF5"/>
<stop offset="1" stop-color="#FFFCF5"/>
</linearGradient>
</defs>
</svg>
