<svg width="30" height="30" viewBox="0 0 30 30" fill="none" xmlns="http://www.w3.org/2000/svg">
<g id="ico_medication_nor">
<g id="Group 879">
<path id="Vector" d="M4.90049 7.98116H6.18019V9.26187C6.18019 9.50069 6.27506 9.72973 6.44394 9.8986C6.61281 10.0675 6.84185 10.1624 7.08068 10.1624C7.3195 10.1624 7.54855 10.0675 7.71742 9.8986C7.8863 9.72973 7.98117 9.50069 7.98117 9.26187V7.98116H9.26187C9.50069 7.98116 9.72974 7.8863 9.89861 7.71742C10.0675 7.54855 10.1624 7.3195 10.1624 7.08067C10.1624 6.84185 10.0675 6.61281 9.89861 6.44394C9.72974 6.27506 9.50069 6.18018 9.26187 6.18018H7.98117V4.90049C7.98117 4.66167 7.8863 4.43262 7.71742 4.26374C7.54855 4.09487 7.3195 4 7.08068 4C6.84185 4 6.61281 4.09487 6.44394 4.26374C6.27506 4.43262 6.18019 4.66167 6.18019 4.90049V6.18018H4.90049C4.66167 6.18018 4.43262 6.27506 4.26375 6.44394C4.09487 6.61281 4 6.84185 4 7.08067C4 7.3195 4.09487 7.54855 4.26375 7.71742C4.43262 7.8863 4.66167 7.98116 4.90049 7.98116Z" fill="#B5C2B3"/>
<path id="Vector_2" d="M25.0885 22.0188H23.8088V20.7381C23.8088 20.4993 23.7139 20.2703 23.545 20.1014C23.3761 19.9325 23.1471 19.8376 22.9083 19.8376C22.6695 19.8376 22.4404 19.9325 22.2715 20.1014C22.1027 20.2703 22.0078 20.4993 22.0078 20.7381V22.0188H20.7271C20.4883 22.0188 20.2592 22.1137 20.0903 22.2826C19.9215 22.4515 19.8266 22.6805 19.8266 22.9193C19.8266 23.1582 19.9215 23.3872 20.0903 23.5561C20.2592 23.7249 20.4883 23.8198 20.7271 23.8198H22.0078V25.0995C22.0078 25.3383 22.1027 25.5674 22.2715 25.7363C22.4404 25.9051 22.6695 26 22.9083 26C23.1471 26 23.3761 25.9051 23.545 25.7363C23.7139 25.5674 23.8088 25.3383 23.8088 25.0995V23.8198H25.0885C25.3273 23.8198 25.5563 23.7249 25.7252 23.5561C25.8941 23.3872 25.989 23.1582 25.989 22.9193C25.989 22.6805 25.8941 22.4515 25.7252 22.2826C25.5563 22.1137 25.3273 22.0188 25.0885 22.0188Z" fill="#B5C2B3"/>
<path id="Vector_3" d="M20.6331 17.1282C20.5495 17.0445 20.4502 16.9781 20.3409 16.9329C20.2316 16.8876 20.1145 16.8643 19.9962 16.8643C19.878 16.8643 19.7608 16.8876 19.6516 16.9329C19.5423 16.9781 19.443 17.0445 19.3594 17.1282L13.6563 22.8313C12.7934 23.6928 11.6238 24.1766 10.4045 24.1766C9.18516 24.1766 8.01565 23.6928 7.15273 22.8313C6.29124 21.9683 5.80738 20.7988 5.80738 19.5795C5.80738 18.3601 6.29124 17.1906 7.15273 16.3277C7.28882 16.1909 7.45067 16.0825 7.62894 16.0086C7.8072 15.9348 7.99834 15.897 8.1913 15.8975H21.7827C22.2123 15.8987 22.6378 15.8147 23.0347 15.6503C23.4316 15.486 23.792 15.2445 24.095 14.94C25.2943 13.7393 25.968 12.1116 25.968 10.4145C25.968 8.7174 25.2943 7.0897 24.095 5.88902C22.8943 4.68965 21.2666 4.01596 19.5695 4.01596C17.8724 4.01596 16.2447 4.68965 15.044 5.88902L9.34093 11.5921C9.25728 11.6757 9.19092 11.775 9.14565 11.8843C9.10037 11.9936 9.07707 12.1107 9.07707 12.229C9.07707 12.3473 9.10037 12.4644 9.14565 12.5737C9.19092 12.6829 9.25728 12.7822 9.34093 12.8658C9.42455 12.9495 9.52383 13.0158 9.6331 13.0611C9.74237 13.1064 9.85949 13.1297 9.97777 13.1297C10.0961 13.1297 10.2132 13.1064 10.3224 13.0611C10.4317 13.0158 10.531 12.9495 10.6146 12.8658L16.3177 7.16272C17.1806 6.30123 18.3502 5.81736 19.5695 5.81736C20.7888 5.81736 21.9584 6.30123 22.8213 7.16272C23.6828 8.02564 24.1666 9.19515 24.1666 10.4145C24.1666 11.6338 23.6828 12.8034 22.8213 13.6663C22.6853 13.8032 22.5235 13.9118 22.3452 13.9857C22.1669 14.0595 21.9757 14.0972 21.7827 14.0965H8.18629C7.75671 14.0953 7.33116 14.1793 6.93426 14.3437C6.53736 14.508 6.177 14.7495 5.87403 15.054C4.67466 16.2547 4.00098 17.8824 4.00098 19.5795C4.00098 21.2766 4.67466 22.9043 5.87403 24.105C6.46794 24.6995 7.17347 25.1709 7.95009 25.492C8.72671 25.8131 9.55912 25.9776 10.3995 25.976C11.2399 25.9776 12.0723 25.8131 12.8489 25.492C13.6255 25.1709 14.3311 24.6995 14.925 24.105L20.6281 18.4018C20.7121 18.3186 20.7788 18.2195 20.8245 18.1104C20.8702 18.0013 20.894 17.8843 20.8944 17.766C20.8949 17.6478 20.8721 17.5306 20.8272 17.4211C20.7824 17.3117 20.7164 17.2121 20.6331 17.1282Z" fill="#B5C2B3"/>
</g>
</g>
</svg>
