<svg width="44" height="44" viewBox="0 0 44 44" fill="none" xmlns="http://www.w3.org/2000/svg">
<g id="Group 1231">
<path id="Vector" d="M35.9024 22.0642C35.9013 21.156 35.5401 20.2853 34.8979 19.6431C34.2557 19.001 33.3851 18.6397 32.4769 18.6387C31.5689 18.6397 30.6985 19.0011 30.0566 19.6433C29.4148 20.2855 29.054 21.1562 29.0535 22.0642C29.0535 22.9725 29.414 23.8436 30.0559 24.4863C30.6979 25.1289 31.5686 25.4905 32.4769 25.4916C33.3856 25.491 34.2569 25.1297 34.8992 24.487C35.5416 23.8443 35.9024 22.9728 35.9024 22.0642Z" fill="#65AF7C"/>
<path id="Vector_2" d="M22.438 36.6148C22.425 34.4091 21.8918 32.2376 20.8818 30.2766C20.8543 30.1971 20.8167 30.1214 20.7701 30.0512C19.793 28.2211 18.528 26.5599 17.0235 25.1315C15.8382 23.9893 14.547 22.9626 13.1671 22.0652C14.547 21.167 15.8382 20.1395 17.0235 18.9968C20.5666 15.5674 22.438 11.5973 22.438 7.51346C22.425 5.0552 21.7726 2.64266 20.5447 0.512976C20.4805 0.398725 20.3945 0.298217 20.2915 0.21723C20.1885 0.136243 20.0705 0.0763475 19.9443 0.0409615C19.8182 0.00557549 19.6862 -0.00459829 19.5561 0.011007C19.426 0.0266123 19.3003 0.0676771 19.1861 0.131897C19.0718 0.196061 18.9713 0.28211 18.8903 0.385122C18.8093 0.488133 18.7494 0.606135 18.7141 0.732301C18.6787 0.858468 18.6685 0.990341 18.6841 1.12044C18.6997 1.25055 18.7408 1.3763 18.805 1.49052C19.8643 3.32206 20.4288 5.39771 20.4429 7.51346C20.4429 15.0028 13.1352 19.7928 11.22 20.92C9.99105 20.1978 6.55363 17.9713 4.23742 14.496H15.1661C15.4306 14.496 15.6844 14.391 15.8714 14.2039C16.0585 14.0168 16.1636 13.7631 16.1636 13.4985C16.1636 13.234 16.0585 12.9803 15.8714 12.7932C15.6844 12.6061 15.4306 12.501 15.1661 12.501H3.11619C2.38349 10.94 2.0002 9.23788 1.99302 7.51346C1.99328 6.97951 2.03057 6.44623 2.1047 5.91745H16.7801C17.0446 5.91745 17.2984 5.81238 17.4854 5.62531C17.6725 5.43824 17.7776 5.1845 17.7776 4.91994C17.7776 4.65538 17.6725 4.40169 17.4854 4.21462C17.2984 4.02755 17.0446 3.92243 16.7801 3.92243H2.56357C2.82432 3.11568 3.16239 2.33601 3.57306 1.59426C3.63594 1.47915 3.67549 1.35276 3.68947 1.22234C3.70345 1.09191 3.69156 0.96002 3.6545 0.834195C3.61743 0.708371 3.55595 0.591082 3.4735 0.489061C3.39106 0.38704 3.2893 0.30228 3.17406 0.239635C3.05885 0.176439 2.93228 0.13664 2.80165 0.122496C2.67101 0.108353 2.53888 0.120148 2.41282 0.157224C2.28676 0.1943 2.16928 0.255941 2.0671 0.338558C1.96493 0.421175 1.88008 0.523135 1.81743 0.638639C1.10907 1.90936 0.593402 3.27827 0.287271 4.70052C0.287271 4.71448 0.287271 4.73044 0.287271 4.7444C0.0970775 5.6572 0.000826718 6.58705 0 7.51945C0.0134786 9.71818 0.543073 11.8831 1.54614 13.8397C1.57484 13.9224 1.61439 14.0009 1.66381 14.0731C2.64122 15.9071 3.90766 17.5716 5.41446 19.0028C6.59972 20.1455 7.89101 21.173 9.27084 22.0711C7.89099 22.9686 6.5997 23.9953 5.41446 25.1375C1.87131 28.5669 0 32.539 0 36.6208C0.0115686 39.0259 0.637128 41.3881 1.81743 43.4836C1.90367 43.6404 2.0305 43.7711 2.18458 43.862C2.33867 43.9529 2.51437 44.0007 2.69327 44.0004C2.86049 44.0001 3.025 43.9583 3.17206 43.8787C3.28756 43.816 3.38957 43.7312 3.47219 43.629C3.55481 43.5268 3.6164 43.4093 3.65347 43.2833C3.69055 43.1572 3.70234 43.0251 3.6882 42.8944C3.67406 42.7638 3.63426 42.6373 3.57106 42.5221C2.55314 40.7209 2.01199 38.6897 1.99896 36.6208C1.99896 29.1315 9.30676 24.3415 11.224 23.2143C12.4509 23.9365 15.8803 26.1569 18.1946 29.6243H7.49924C7.23468 29.6243 6.98099 29.7294 6.79392 29.9165C6.60685 30.1035 6.50173 30.3572 6.50173 30.6218C6.50173 30.8863 6.60685 31.1401 6.79392 31.3271C6.98099 31.5142 7.23468 31.6193 7.49924 31.6193H19.3177C20.0545 33.1841 20.4399 34.8912 20.4469 36.6208C20.4473 37.1501 20.4107 37.6787 20.3372 38.2028H5.86334C5.59878 38.2028 5.34504 38.308 5.15797 38.495C4.9709 38.6821 4.86583 38.9358 4.86583 39.2003C4.86583 39.4649 4.9709 39.7186 5.15797 39.9057C5.34504 40.0928 5.59878 40.1979 5.86334 40.1979H19.8803C19.6234 41.0029 19.2894 41.7813 18.8828 42.5221C18.8196 42.6373 18.7798 42.7638 18.7657 42.8944C18.7515 43.0251 18.7633 43.1572 18.8004 43.2833C18.8375 43.4093 18.8991 43.5268 18.9817 43.629C19.0643 43.7312 19.1663 43.816 19.2818 43.8787C19.3969 43.9415 19.5233 43.9811 19.6538 43.9951C19.7842 44.0091 19.9161 43.9972 20.0419 43.9601C20.1677 43.9231 20.285 43.8615 20.387 43.7791C20.489 43.6967 20.5738 43.5949 20.6365 43.4797C21.3418 42.2096 21.8554 40.8422 22.1606 39.4218C22.1606 39.4079 22.1606 39.3919 22.1606 39.3779C22.3477 38.4689 22.4407 37.5429 22.438 36.6148Z" fill="#65AF7C"/>
<path id="Vector_3" d="M34.468 36.6141C35.8467 35.7159 37.1373 34.6892 38.3224 33.5477C41.8656 30.1183 43.7389 26.1462 43.7389 22.0644C43.7389 17.9826 41.8656 14.0085 38.3224 10.5791C37.1373 9.43759 35.8467 8.41087 34.468 7.51272C36.078 6.46733 38.6795 4.51024 40.7244 1.70125C40.802 1.59525 40.8579 1.47495 40.8888 1.3473C40.9198 1.21965 40.9252 1.08716 40.9048 0.957407C40.8844 0.827652 40.8386 0.703186 40.77 0.591183C40.7014 0.47918 40.6113 0.381849 40.505 0.30474C40.3989 0.227185 40.2787 0.171307 40.1511 0.140356C40.0234 0.109404 39.8909 0.10399 39.7612 0.12438C39.6314 0.14477 39.5069 0.190589 39.3949 0.259199C39.2829 0.32781 39.1855 0.417881 39.1084 0.524211C36.8221 3.66636 33.676 5.68728 32.5149 6.36758C31.3419 5.68129 28.1478 3.63244 25.8476 0.41847C25.7712 0.311365 25.6744 0.220428 25.5628 0.150876C25.4511 0.0813247 25.3268 0.0345066 25.197 0.0131829C25.0672 -0.00814074 24.9345 -0.00355093 24.8065 0.0266259C24.6785 0.0568028 24.5577 0.111967 24.451 0.189013C24.3439 0.26537 24.253 0.362156 24.1835 0.4738C24.1139 0.585444 24.0671 0.709741 24.0458 0.839537C24.0245 0.969333 24.029 1.10209 24.0592 1.23011C24.0894 1.35814 24.1446 1.47892 24.2216 1.58553C26.2785 4.45835 28.9299 6.45736 30.5638 7.51671C29.1844 8.41476 27.8932 9.44148 26.7074 10.5831C23.1643 14.0125 21.293 17.9846 21.293 22.0684C21.293 26.1522 23.1643 30.1223 26.7074 33.5517C27.8932 34.6933 29.1844 35.72 30.5638 36.6181C28.9578 37.6615 26.3623 39.6106 24.3194 42.4036C24.2417 42.5095 24.1857 42.6296 24.1546 42.7572C24.1235 42.8848 24.1179 43.0173 24.1381 43.147C24.1583 43.2768 24.204 43.4013 24.2724 43.5133C24.3408 43.6254 24.4307 43.7229 24.5369 43.8001C24.7068 43.9276 24.913 43.9975 25.1254 43.9996C25.2802 43.9996 25.433 43.9636 25.5715 43.8943C25.71 43.8251 25.8305 43.7245 25.9234 43.6006C28.2097 40.4684 31.3439 38.4535 32.507 37.7732C33.6661 38.4515 36.7942 40.4644 39.0785 43.5886C39.1559 43.6947 39.2535 43.7844 39.3657 43.8526C39.4778 43.9209 39.6023 43.9663 39.7321 43.9863C39.8618 44.0063 39.9942 44.0005 40.1217 43.9692C40.2492 43.938 40.3693 43.8819 40.475 43.8041C40.5811 43.7267 40.6708 43.6291 40.739 43.517C40.8072 43.4048 40.8527 43.2803 40.8727 43.1506C40.8927 43.0208 40.8869 42.8884 40.8556 42.7609C40.8244 42.6334 40.7683 42.5134 40.6905 42.4076C38.6596 39.6026 36.072 37.6614 34.468 36.6141ZM23.2959 22.0644C23.2959 14.5731 30.6037 9.78309 32.5209 8.65591C34.4381 9.78309 41.7459 14.5731 41.7459 22.0644C41.7459 29.5557 34.4362 34.3437 32.5209 35.4709C30.6017 34.3437 23.294 29.5537 23.294 22.0644H23.2959Z" fill="#65AF7C"/>
</g>
</svg>
