<svg width="30" height="30" viewBox="0 0 30 30" fill="none" xmlns="http://www.w3.org/2000/svg">
<g id="ico_restart">
<path id="Vector" d="M15.0804 4.00001C12.4816 3.99713 9.98243 4.99909 8.1054 6.79636C6.22837 8.59364 5.1189 11.047 5.00901 13.6435C4.89913 16.2399 5.79735 18.7782 7.51581 20.7277C9.23428 22.6771 11.6399 23.8867 14.2296 24.1034L13.8728 24.4601C13.7891 24.5439 13.7226 24.6433 13.6773 24.7528C13.632 24.8622 13.6086 24.9795 13.6086 25.098C13.6086 25.3372 13.7037 25.5666 13.8728 25.7358C14.042 25.905 14.2714 26 14.5107 26C14.7499 26 14.9794 25.905 15.1485 25.7358L17.0074 23.8749C17.0912 23.7911 17.1577 23.6917 17.203 23.5822C17.2484 23.4728 17.2717 23.3555 17.2717 23.237C17.2717 23.1186 17.2484 23.0013 17.203 22.8918C17.1577 22.7824 17.0912 22.6829 17.0074 22.5992L15.1475 20.7393C14.9784 20.5701 14.7489 20.4751 14.5097 20.4751C14.2704 20.4751 14.041 20.5701 13.8718 20.7393C13.7027 20.9084 13.6076 21.1379 13.6076 21.3771C13.6076 21.6164 13.7027 21.8458 13.8718 22.015L14.1374 22.2805C12.3543 22.0751 10.6867 21.2946 9.38659 20.0571C8.08653 18.8196 7.22478 17.1924 6.93169 15.4216C6.63859 13.6509 6.93008 11.8328 7.76208 10.2424C8.59408 8.65205 9.92134 7.37584 11.5431 6.60682C13.1649 5.8378 14.993 5.61779 16.7509 5.98007C18.5088 6.34235 20.101 7.26721 21.2865 8.61478C22.4721 9.96236 23.1866 11.6594 23.3221 13.4491C23.4575 15.2389 23.0064 17.024 22.037 18.5346C21.9704 18.6342 21.9243 18.7461 21.9015 18.8637C21.8786 18.9813 21.8794 19.1023 21.9038 19.2196C21.9282 19.337 21.9757 19.4482 22.0436 19.547C22.1115 19.6457 22.1984 19.7299 22.2992 19.7947C22.4 19.8595 22.5127 19.9035 22.6307 19.9243C22.7487 19.945 22.8696 19.942 22.9865 19.9155C23.1033 19.889 23.2137 19.8394 23.3112 19.7697C23.4087 19.7 23.4913 19.6116 23.5542 19.5097C24.5307 17.9883 25.0797 16.2322 25.1434 14.4255C25.2072 12.6189 24.7835 10.8283 23.9167 9.24191C23.05 7.65548 21.7721 6.33162 20.2173 5.40929C18.6626 4.48695 16.8882 4.00017 15.0804 4.00001Z" fill="#1A342B"/>
</g>
</svg>
