<svg width="30" height="30" viewBox="0 0 30 30" fill="none" xmlns="http://www.w3.org/2000/svg">
<path d="M21.9479 11.5312L21.6709 13.2652C21.366 15.1715 20.3916 16.9067 18.9227 18.1594C17.4538 19.4121 15.5865 20.1002 13.6559 20.1002C12.0694 20.1003 10.5175 19.6355 9.19224 18.7633C7.86696 17.891 6.82633 16.6495 6.19897 15.1922C6.19897 15.1922 11.0559 16.1762 14.1489 14.4132C17.2419 12.6502 18.2039 11.6282 21.9479 11.5312Z" fill="url(#paint0_linear_1610_7275)" fill-opacity="0.3"/>
<path d="M21.6712 13.2646C21.3663 15.1709 20.3919 16.9061 18.923 18.1587C17.454 19.4114 15.5868 20.0995 13.6562 20.0995C11.7591 20.0996 9.92178 19.4351 8.46348 18.2216C7.00519 17.0081 6.01797 15.3222 5.67327 13.4566L5.40527 12.0066C5.40527 12.0066 8.56224 11.2876 13.5382 13.3156C17.6542 14.9996 21.6712 13.2646 21.6712 13.2646Z" fill="url(#paint1_linear_1610_7275)" fill-opacity="0.3"/>
<path d="M25.4869 4.12212C25.3846 4.06264 25.2717 4.02388 25.1545 4.00808C25.0373 3.99227 24.9181 3.99971 24.8038 4.02999C24.6895 4.06027 24.5823 4.11278 24.4882 4.18452C24.3942 4.25627 24.3153 4.34584 24.2559 4.44812C23.8821 5.09847 23.4367 5.70492 22.9279 6.25611C22.4046 5.68611 21.5122 5.20912 20.2509 4.82512C18.4989 4.29312 16.1869 4.00012 13.7399 4.00012C11.2929 4.00012 8.97998 4.29312 7.22798 4.82512C5.086 5.47511 4 6.40411 4 7.5841C4 8.7641 5.086 9.69309 7.22798 10.3441C8.97998 10.8761 11.2919 11.1691 13.7399 11.1691H13.7659C15.0709 11.1691 17.2539 11.1691 19.4869 10.4551C20.1223 10.2536 20.7392 9.99803 21.3309 9.69109L20.7819 13.1231C20.517 14.8207 19.6524 16.3672 18.3451 17.4821C17.0377 18.597 15.3741 19.2065 13.656 19.2C11.9688 19.2006 10.3348 18.6101 9.03779 17.5312C7.74075 16.4523 6.86265 14.9531 6.55599 13.2941L6.28798 11.8431C6.24449 11.6086 6.1097 11.4009 5.9132 11.2657C5.71669 11.1305 5.47455 11.0789 5.23998 11.1221C5.00528 11.1653 4.79738 11.3 4.66198 11.4966C4.52659 11.6931 4.47479 11.9354 4.51799 12.1701L4.78598 13.6211C5.14126 15.5412 6.11014 17.2941 7.54698 18.6165C8.98381 19.9388 10.811 20.7591 12.754 20.954V24.2H7.82298C7.58428 24.2 7.35536 24.2948 7.18658 24.4636C7.0178 24.6324 6.92298 24.8613 6.92298 25.1C6.92298 25.3387 7.0178 25.5676 7.18658 25.7364C7.35536 25.9052 7.58428 26 7.82298 26H19.4799C19.7186 26 19.9475 25.9052 20.1163 25.7364C20.2851 25.5676 20.3799 25.3387 20.3799 25.1C20.3799 24.8613 20.2851 24.6324 20.1163 24.4636C19.9475 24.2948 19.7186 24.2 19.4799 24.2H14.5519V20.954C16.3783 20.7706 18.1053 20.0349 19.5029 18.845C21.1342 17.4526 22.2165 15.5248 22.5559 13.4071L23.3699 8.3141C24.3438 7.47139 25.1682 6.46992 25.8079 5.35211C25.9281 5.14637 25.9618 4.90133 25.9017 4.67075C25.8415 4.44017 25.6923 4.24287 25.4869 4.12212ZM18.9389 8.7411C16.9879 9.36409 15.0719 9.36909 13.7949 9.36909H13.7399C11.5839 9.36909 9.53997 9.12709 7.97598 8.6871C6.34199 8.2271 5.85999 7.7201 5.80299 7.5871C5.85999 7.4511 6.34199 6.94511 7.97598 6.48711C9.53697 6.04711 11.5839 5.80511 13.7399 5.80511C15.8959 5.80511 17.9399 6.04711 19.5029 6.48711C20.7809 6.84611 21.3539 7.2351 21.5699 7.4521C20.7644 8.01458 19.877 8.44936 18.9389 8.7411Z" fill="#65AF7C"/>
<defs>
<linearGradient id="paint0_linear_1610_7275" x1="9.66768" y1="19.5915" x2="13.5968" y2="10.9503" gradientUnits="userSpaceOnUse">
<stop stop-color="#B8D7A9"/>
<stop offset="1" stop-color="#73D89B"/>
</linearGradient>
<linearGradient id="paint1_linear_1610_7275" x1="8.98784" y1="19.6117" x2="12.5705" y2="11.125" gradientUnits="userSpaceOnUse">
<stop stop-color="#B8D7A9"/>
<stop offset="1" stop-color="#73D89B"/>
</linearGradient>
</defs>
</svg>
