<svg width="26" height="26" viewBox="0 0 26 26" fill="none" xmlns="http://www.w3.org/2000/svg">
<path d="M13.6094 13.769C13.3001 13.7656 12.9939 13.7068 12.7054 13.5951C12.4166 13.7068 12.1102 13.7657 11.8006 13.769C11.3616 13.769 9.82043 13.7073 8.43227 12.9076C7.02324 12.0948 6.27744 10.8214 6.27744 9.21766C6.27744 7.02023 7.96375 6.31181 9.19459 5.79461C10.747 5.14355 10.9018 4.83845 10.9018 4.24911C10.9018 4.04163 10.9842 3.84264 11.1309 3.69593C11.2776 3.54922 11.4766 3.4668 11.6841 3.4668C11.8916 3.4668 12.0905 3.54922 12.2373 3.69593C12.384 3.84264 12.4664 4.04163 12.4664 4.24911C12.4664 6.11883 10.9252 6.76989 9.80044 7.23754C8.54961 7.75908 7.84206 8.11373 7.84206 9.21766C7.84206 10.2607 8.29145 11.0196 9.21371 11.5516C9.73391 11.8382 10.3002 12.0317 10.887 12.1235C10.4984 11.5585 10.2559 10.9066 10.2559 10.2712C10.2557 9.71427 10.4206 9.1698 10.7297 8.70655C11.1643 8.0807 11.8597 7.73475 12.6924 7.73127H12.7185C13.5486 7.73127 14.2457 8.07896 14.6803 8.70655C14.9894 9.1698 15.1543 9.71427 15.1541 10.2712C15.1541 10.9057 14.9133 11.555 14.5265 12.1192C15.6982 11.9245 17.5688 11.2899 17.5688 9.21766C17.5688 8.11373 16.8612 7.76256 15.6104 7.23754C14.4856 6.76554 12.9453 6.11883 12.9453 4.24911C12.9453 4.04163 13.0278 3.84264 13.1745 3.69593C13.3212 3.54922 13.5202 3.4668 13.7276 3.4668C13.9351 3.4668 14.1341 3.54922 14.2808 3.69593C14.4275 3.84264 14.51 4.04163 14.51 4.24911C14.51 5.0036 15.0037 5.28611 16.2163 5.79461C17.4471 6.31615 19.1334 7.02023 19.1334 9.21766C19.1334 10.8188 18.3885 12.0948 16.9786 12.9076C15.5878 13.7038 14.0493 13.769 13.6094 13.769ZM12.7054 9.29936C11.9066 9.29936 11.8205 9.97824 11.8205 10.2712C11.8205 10.7432 12.2117 11.3916 12.7054 11.8045C13.1983 11.3916 13.5894 10.7432 13.5894 10.2712C13.5886 9.97476 13.5016 9.29589 12.7054 9.29589V9.29936Z" fill="#A7998F"/>
<path d="M17.9795 22.5335C16.6209 22.5335 15.5847 22.2249 14.8998 21.6164C14.8229 21.5482 14.7603 21.4655 14.7154 21.373C14.6705 21.2805 14.6443 21.1801 14.6383 21.0775C14.6322 20.9749 14.6464 20.8722 14.6801 20.7751C14.7138 20.6779 14.7663 20.5884 14.8346 20.5116C14.9028 20.4348 14.9855 20.3721 15.078 20.3273C15.1705 20.2824 15.2709 20.2562 15.3735 20.2501C15.4761 20.2441 15.5789 20.2583 15.676 20.292C15.7731 20.3257 15.8626 20.3781 15.9394 20.4464C16.3175 20.7828 17.0424 20.968 17.9795 20.968C18.386 20.9675 18.7757 20.8058 19.0632 20.5184C19.3506 20.2309 19.5123 19.8412 19.5128 19.4347C19.5123 19.0281 19.3506 18.6384 19.0632 18.3509C18.7757 18.0635 18.386 17.9018 17.9795 17.9013C16.9468 17.9013 16.0107 18.6211 14.825 19.5329C13.0865 20.8689 10.9248 22.5326 7.41479 22.5326C6.59521 22.5289 5.81054 22.2003 5.23288 21.6189C4.65522 21.0375 4.33173 20.2508 4.33335 19.4312C4.33242 18.6124 4.65636 17.8268 5.23407 17.2466C5.81178 16.6665 6.59606 16.3392 7.41479 16.3367C8.01717 16.3367 8.55696 16.5323 9.18194 16.7583C9.54528 16.8895 9.91992 17.0251 10.3615 17.1433C10.8422 17.2729 11.2872 17.2164 11.5784 16.9904C11.6896 16.903 11.7785 16.7904 11.8378 16.662C11.897 16.5335 11.9249 16.3928 11.9192 16.2515V15.1598C11.9192 14.9523 12.0016 14.7533 12.1483 14.6066C12.295 14.4599 12.494 14.3774 12.7015 14.3774C12.909 14.3774 13.1079 14.4599 13.2547 14.6066C13.4014 14.7533 13.4838 14.9523 13.4838 15.1598V16.2541C13.4883 16.6356 13.4043 17.013 13.2384 17.3566C13.0725 17.7001 12.8292 18.0006 12.5276 18.2342C11.8435 18.7558 10.9039 18.9131 9.94948 18.6576C9.44358 18.522 9.01766 18.3681 8.64563 18.2316C8.13973 18.0482 7.73988 17.9039 7.41131 17.9039C7.00748 17.9062 6.62103 18.0686 6.33669 18.3553C6.05236 18.6421 5.89334 19.0299 5.8945 19.4338C5.8937 19.6346 5.93245 19.8335 6.00855 20.0194C6.08465 20.2052 6.19661 20.3742 6.33802 20.5167C6.47943 20.6593 6.64754 20.7726 6.83274 20.8501C7.01794 20.9277 7.21661 20.968 7.4174 20.9688C10.3954 20.9688 12.2434 19.5477 13.8741 18.2933C15.1823 17.2876 16.4175 16.3376 17.9821 16.3376C18.8034 16.3385 19.5909 16.6652 20.1716 17.2459C20.7524 17.8267 21.0791 18.6142 21.08 19.4355C21.0791 20.2573 20.7521 21.0451 20.1707 21.626C19.5894 22.2069 18.8013 22.5332 17.9795 22.5335Z" fill="#A7998F"/>
</svg>
