<svg width="38" height="40" viewBox="0 0 38 40" fill="none" xmlns="http://www.w3.org/2000/svg">
<g id="Group 1021">
<path id="Vector" d="M7.93468 39.8002C5.93711 39.7978 4.02204 39.0031 2.60954 37.5906C1.19704 36.1782 0.402422 34.2631 0.399994 32.2655V7.73488C0.402422 5.73731 1.19704 3.82224 2.60954 2.40974C4.02204 0.997246 5.93711 0.202623 7.93468 0.200195C9.93225 0.202623 11.8473 0.997246 13.2598 2.40974C14.6723 3.82224 15.4669 5.73731 15.4693 7.73488V32.277C15.4639 34.2726 14.6679 36.1847 13.2558 37.5947C11.8436 39.0048 9.93026 39.7978 7.93468 39.8002ZM7.93468 4.32194C7.03151 4.32255 6.1655 4.68158 5.52687 5.32021C4.88824 5.95884 4.52918 6.82483 4.52857 7.72799V32.2701C4.52918 33.1733 4.88824 34.0393 5.52687 34.6779C6.1655 35.3165 7.03151 35.6756 7.93468 35.6762C8.83784 35.6756 9.70382 35.3165 10.3425 34.6779C10.9811 34.0393 11.3401 33.1733 11.3407 32.2701V7.73488C11.3414 7.28709 11.2537 6.84359 11.0828 6.42969C10.912 6.01579 10.6612 5.63957 10.3449 5.32262C10.0286 5.00567 9.65292 4.75415 9.23936 4.58244C8.8258 4.41074 8.38246 4.32224 7.93468 4.32194Z" fill="#1A342B"/>
<path id="Vector_2" d="M29.5432 39.8002C27.5456 39.7978 25.6306 39.0031 24.2181 37.5906C22.8056 36.1782 22.011 34.2631 22.0085 32.2655V7.73488C22.011 5.73731 22.8056 3.82224 24.2181 2.40974C25.6306 0.997246 27.5456 0.202623 29.5432 0.200195C31.5412 0.202016 33.4568 0.996397 34.8698 2.40896C36.2828 3.82152 37.0777 5.73691 37.0802 7.73488V32.277C37.0747 34.273 36.2784 36.1854 34.8658 37.5955C33.4531 39.0056 31.5392 39.7984 29.5432 39.8002ZM29.5432 4.32194C28.6402 4.32316 27.7746 4.68238 27.1361 5.32088C26.4976 5.95938 26.1383 6.82501 26.1371 7.72799V32.2701C26.1383 33.1731 26.4976 34.0387 27.1361 34.6772C27.7746 35.3157 28.6402 35.675 29.5432 35.6762C30.4466 35.6756 31.3128 35.3166 31.9518 34.6781C32.5908 34.0395 32.9504 33.1735 32.9516 32.2701V7.73488C32.9519 7.28698 32.864 6.84344 32.6928 6.42952C32.5217 6.0156 32.2707 5.63943 31.9542 5.32251C31.6377 5.00558 31.2619 4.75407 30.8482 4.58239C30.4345 4.41071 29.9911 4.32225 29.5432 4.32194Z" fill="#1A342B"/>
</g>
</svg>
