<svg width="30" height="30" viewBox="0 0 30 30" fill="none" xmlns="http://www.w3.org/2000/svg">
<g id="ico_yoga_nor">
<g id="Group 913">
<path id="Vector" d="M15.7302 15.8065C15.4057 15.803 15.0845 15.7412 14.7819 15.6241C14.479 15.7412 14.1575 15.803 13.8327 15.8065C13.3723 15.8065 11.7557 15.7417 10.2996 14.9029C8.82156 14.0504 8.03925 12.7146 8.03925 11.0324C8.03925 8.72738 9.80811 7.98427 11.0992 7.44176C12.7276 6.75884 12.8899 6.4388 12.8899 5.82061C12.8899 5.60297 12.9764 5.39424 13.1303 5.24035C13.2842 5.08646 13.4929 5 13.7105 5C13.9282 5 14.1369 5.08646 14.2908 5.24035C14.4447 5.39424 14.5312 5.60297 14.5312 5.82061C14.5312 7.78186 12.9146 8.46478 11.7347 8.95532C10.4226 9.50239 9.68046 9.87441 9.68046 11.0324C9.68046 12.1265 10.1518 12.9225 11.1193 13.4805C11.6649 13.7812 12.2589 13.9842 12.8744 14.0805C12.4669 13.4878 12.2125 12.804 12.2125 12.1375C12.2123 11.5533 12.3852 10.9822 12.7094 10.4962C13.1653 9.83976 13.8947 9.47687 14.7682 9.47322H14.7956C15.6663 9.47322 16.3976 9.83793 16.8535 10.4962C17.1777 10.9822 17.3506 11.5533 17.3504 12.1375C17.3504 12.8031 17.0978 13.4842 16.6921 14.0759C17.9212 13.8717 19.8833 13.2061 19.8833 11.0324C19.8833 9.87441 19.1411 9.50604 17.8291 8.95532C16.6492 8.46022 15.0335 7.78186 15.0335 5.82061C15.0335 5.60297 15.12 5.39424 15.2739 5.24035C15.4278 5.08646 15.6365 5 15.8542 5C16.0718 5 16.2805 5.08646 16.4344 5.24035C16.5883 5.39424 16.6748 5.60297 16.6748 5.82061C16.6748 6.61204 17.1927 6.90837 18.4646 7.44176C19.7557 7.98883 21.5245 8.72738 21.5245 11.0324C21.5245 12.7119 20.7431 14.0504 19.2642 14.9029C17.8054 15.7381 16.1915 15.8065 15.7302 15.8065ZM14.7819 11.1181C13.944 11.1181 13.8537 11.8302 13.8537 12.1375C13.8537 12.6326 14.264 13.3127 14.7819 13.7458C15.2989 13.3127 15.7092 12.6326 15.7092 12.1375C15.7083 11.8265 15.6171 11.1144 14.7819 11.1144V11.1181Z" fill="#C5C5C5"/>
<path id="Vector_2" d="M20.3141 25.0002C18.889 25.0002 17.8022 24.6765 17.0837 24.0382C17.0031 23.9666 16.9373 23.8799 16.8903 23.7829C16.8432 23.6859 16.8157 23.5806 16.8093 23.473C16.803 23.3653 16.8179 23.2575 16.8533 23.1557C16.8886 23.0538 16.9436 22.9599 17.0153 22.8793C17.0869 22.7987 17.1736 22.733 17.2706 22.6859C17.3676 22.6389 17.4729 22.6114 17.5806 22.605C17.6882 22.5987 17.796 22.6136 17.8978 22.6489C17.9997 22.6843 18.0936 22.7393 18.1742 22.811C18.5708 23.1638 19.3312 23.358 20.3141 23.358C20.7405 23.3576 21.1494 23.1879 21.4509 22.8864C21.7524 22.5849 21.922 22.1761 21.9225 21.7497C21.922 21.3232 21.7524 20.9144 21.4509 20.6129C21.1494 20.3114 20.7405 20.1417 20.3141 20.1413C19.2309 20.1413 18.2489 20.8962 17.0053 21.8527C15.1817 23.2541 12.9141 24.9992 9.23228 24.9992C8.37259 24.9954 7.54951 24.6507 6.94357 24.0409C6.33764 23.431 5.99831 22.6057 6.00001 21.746C5.99904 20.8872 6.33883 20.0631 6.94482 19.4545C7.55081 18.846 8.37348 18.5027 9.23228 18.5001C9.86415 18.5001 10.4304 18.7052 11.0859 18.9423C11.4671 19.0799 11.86 19.2222 12.3232 19.3462C12.8275 19.482 13.2943 19.4228 13.5997 19.1857C13.7164 19.094 13.8096 18.976 13.8718 18.8412C13.9339 18.7065 13.9632 18.559 13.9572 18.4107V17.2655C13.9572 17.0479 14.0436 16.8391 14.1975 16.6852C14.3514 16.5313 14.5601 16.4449 14.7778 16.4449C14.9954 16.4449 15.2041 16.5313 15.358 16.6852C15.5119 16.8391 15.5984 17.0479 15.5984 17.2655V18.4134C15.6031 18.8136 15.515 19.2094 15.341 19.5698C15.167 19.9302 14.9118 20.2454 14.5954 20.4905C13.8778 21.0375 12.8922 21.2026 11.8911 20.9345C11.3604 20.7923 10.9136 20.6309 10.5234 20.4877C9.99271 20.2953 9.57329 20.144 9.22864 20.144C8.80503 20.1464 8.39967 20.3167 8.10142 20.6175C7.80316 20.9183 7.63636 21.3251 7.63757 21.7487C7.63673 21.9594 7.67739 22.1681 7.75721 22.363C7.83704 22.5579 7.95447 22.7352 8.10281 22.8847C8.25114 23.0342 8.42748 23.153 8.62175 23.2344C8.81601 23.3158 9.0244 23.3581 9.23502 23.3589C12.3588 23.3589 14.2972 21.8682 16.0078 20.5525C17.38 19.4975 18.6756 18.501 20.3169 18.501C21.1784 18.5019 22.0044 18.8446 22.6136 19.4538C23.2228 20.063 23.5655 20.889 23.5665 21.7506C23.5655 22.6126 23.2224 23.439 22.6126 24.0483C22.0028 24.6576 21.1761 24.9999 20.3141 25.0002Z" fill="#C5C5C5"/>
</g>
</g>
</svg>
