<svg width="16" height="16" viewBox="0 0 16 16" fill="none" xmlns="http://www.w3.org/2000/svg">
<path d="M7.99964 0C5.87853 0.00212024 3.84492 0.845717 2.34514 2.34564C0.845352 3.84556 0.00192722 5.87925 0 8.00036C0.00211993 10.1213 0.845621 12.1549 2.34538 13.6546C3.84515 15.1544 5.87866 15.9979 7.99964 16C10.1208 15.9981 12.1544 15.1547 13.6544 13.6549C15.1543 12.1551 15.9979 10.1215 16 8.00036C15.9981 5.87913 15.1546 3.84532 13.6546 2.34538C12.1547 0.845439 10.1209 0.00192752 7.99964 0ZM1.31034 8.00036C1.31037 6.9548 1.55565 5.92382 2.02647 4.99026C2.4973 4.05671 3.18053 3.2466 4.02129 2.62505C4.01976 2.62832 4.01855 2.63174 4.01767 2.63524C4.00311 2.66873 3.99 2.70367 3.97617 2.73789C3.96234 2.7721 3.95069 2.80049 3.93904 2.83252C3.92739 2.86455 3.91429 2.90532 3.90264 2.93808C3.89099 2.97084 3.88008 3.00214 3.86989 3.0349C3.85969 3.06766 3.84876 3.10769 3.83857 3.14264C3.82838 3.17758 3.81892 3.20815 3.81092 3.24091C3.80291 3.27367 3.79344 3.31371 3.7847 3.35156C3.77597 3.38942 3.7687 3.41781 3.76142 3.45129C3.75414 3.48478 3.74759 3.52846 3.74103 3.56631C3.73448 3.60417 3.72793 3.63256 3.72284 3.66532C3.71774 3.69807 3.71192 3.7483 3.70682 3.7898C3.70173 3.83129 3.69808 3.85168 3.69516 3.88298C3.69007 3.93102 3.68716 3.97907 3.68425 4.02857C3.68425 4.05405 3.67915 4.07953 3.67842 4.10501C3.67405 4.17781 3.67261 4.2506 3.67261 4.32922C3.67377 5.47654 4.13 6.57654 4.9412 7.38788C5.75241 8.19922 6.85233 8.65564 7.99964 8.65699C8.7993 8.65776 9.56602 8.97561 10.1317 9.54085C10.6973 10.1061 11.0157 10.8726 11.0171 11.6722C11.0163 12.4723 10.6981 13.2393 10.1324 13.805C9.56672 14.3707 8.79968 14.6889 7.99964 14.6897C6.22618 14.6875 4.52597 13.9821 3.27194 12.7281C2.01792 11.474 1.31246 9.77382 1.31034 8.00036ZM11.9787 13.3749L11.9824 13.3648C11.9969 13.3313 12.01 13.2963 12.0239 13.2621C12.0377 13.2279 12.0493 13.1995 12.061 13.1675C12.0726 13.1354 12.085 13.0947 12.0974 13.0626C12.1098 13.0306 12.1199 12.9979 12.1301 12.9651C12.1403 12.9323 12.1505 12.8923 12.1607 12.8581C12.1709 12.8239 12.1804 12.7926 12.1891 12.7591C12.1978 12.7256 12.2066 12.6863 12.2153 12.6484C12.224 12.6106 12.2313 12.5822 12.2386 12.5487C12.2459 12.5152 12.2524 12.4715 12.259 12.4337C12.2655 12.3958 12.2721 12.3674 12.2772 12.3347C12.2823 12.3019 12.2874 12.2524 12.2925 12.2117C12.2976 12.1709 12.3019 12.149 12.3048 12.117C12.3092 12.0704 12.3121 12.0238 12.3158 11.9772C12.3158 11.9503 12.3201 11.9234 12.3216 11.8964C12.3216 11.8236 12.3274 11.7509 12.3274 11.6722C12.3261 10.5249 11.8696 9.42499 11.0583 8.61378C10.247 7.80258 9.14696 7.34635 7.99964 7.34519C7.1998 7.34404 6.43304 7.02573 5.86753 6.46009C5.30202 5.89444 4.98391 5.12762 4.98295 4.32777C4.98372 3.52786 5.30177 2.76092 5.86732 2.19523C6.43287 1.62954 7.19974 1.31131 7.99964 1.31034C9.77336 1.31227 11.4739 2.01773 12.7281 3.27193C13.9823 4.52614 14.6877 6.22665 14.6897 8.00036C14.6895 9.0458 14.4442 10.0766 13.9734 11.0101C13.5025 11.9435 12.8194 12.7535 11.9787 13.3749Z" fill="#1A342B"/>
<path d="M7.96331 2.52734C7.4839 2.52792 7.02429 2.71862 6.68529 3.05761C6.3463 3.3966 6.15561 3.85621 6.15503 4.33562C6.15561 4.81509 6.34629 5.27477 6.68526 5.61388C7.02423 5.95298 7.48383 6.14384 7.96331 6.14461C8.44291 6.14404 8.90269 5.95326 9.24182 5.61413C9.58095 5.275 9.77172 4.81521 9.7723 4.33562C9.77172 3.85608 9.58093 3.39637 9.24178 3.05736C8.90263 2.71834 8.44284 2.52773 7.96331 2.52734ZM7.96331 4.83427C7.83118 4.83408 7.70454 4.78146 7.61118 4.68796C7.51782 4.59447 7.46537 4.46774 7.46537 4.33562C7.46556 4.20362 7.51809 4.07708 7.61143 3.98374C7.70476 3.8904 7.83131 3.83788 7.96331 3.83769C8.09543 3.83769 8.22215 3.89012 8.31565 3.98348C8.40915 4.07684 8.46176 4.20349 8.46195 4.33562C8.46195 4.46787 8.40943 4.5947 8.31592 4.68822C8.2224 4.78174 8.09556 4.83427 7.96331 4.83427Z" fill="#1A342B"/>
<path d="M9.7723 11.6716C9.77172 11.192 9.58093 10.7323 9.24178 10.3933C8.90263 10.0543 8.44284 9.86367 7.96331 9.86328C7.4839 9.86386 7.02429 10.0546 6.68529 10.3935C6.3463 10.7325 6.15561 11.1921 6.15503 11.6716C6.15561 12.151 6.34629 12.6107 6.68526 12.9498C7.02423 13.2889 7.48383 13.4798 7.96331 13.4806C8.44291 13.48 8.90269 13.2892 9.24182 12.9501C9.58095 12.6109 9.77172 12.1512 9.7723 11.6716ZM7.96331 12.1702C7.83118 12.17 7.70454 12.1174 7.61118 12.0239C7.51782 11.9304 7.46537 11.8037 7.46537 11.6716C7.46556 11.5396 7.51809 11.413 7.61143 11.3197C7.70476 11.2263 7.83131 11.1738 7.96331 11.1736C8.09543 11.1736 8.22215 11.2261 8.31565 11.3194C8.40915 11.4128 8.46176 11.5394 8.46195 11.6716C8.46195 11.8038 8.40943 11.9306 8.31592 12.0242C8.2224 12.1177 8.09556 12.1702 7.96331 12.1702Z" fill="#1A342B"/>
</svg>
