<svg width="30" height="30" viewBox="0 0 30 30" fill="none" xmlns="http://www.w3.org/2000/svg">
<g id="ico_voice">
<path id="Vector" d="M15.7322 22.8058C17.9013 22.6046 19.9173 21.6012 21.3858 19.9921C22.8543 18.383 23.6696 16.2839 23.6722 14.1055C23.6722 13.8673 23.5776 13.6388 23.4091 13.4704C23.2407 13.302 23.0123 13.2074 22.7741 13.2074C22.5359 13.2074 22.3075 13.302 22.1391 13.4704C21.9706 13.6388 21.876 13.8673 21.876 14.1055C21.8737 15.807 21.2472 17.4485 20.1154 18.719C18.9836 19.9894 17.4251 20.8006 15.7352 20.9987C15.7352 20.3391 15.7352 19.7504 15.7172 19.2255C15.8509 19.1876 15.9856 19.1457 16.1163 19.0978C18.0382 18.4202 19.1868 16.9184 19.1868 15.0794V8.42361C19.1955 7.84587 19.0893 7.27217 18.8742 6.73587C18.6592 6.19957 18.3396 5.71138 17.9342 5.29973C17.5287 4.88808 17.0454 4.56118 16.5124 4.33805C15.9794 4.11491 15.4074 4 14.8296 4C14.2518 4 13.6798 4.11491 13.1468 4.33805C12.6138 4.56118 12.1305 4.88808 11.725 5.29973C11.3196 5.71138 11 6.19957 10.785 6.73587C10.5699 7.27217 10.4637 7.84587 10.4724 8.42361V12.6735C10.4724 12.9117 10.567 13.1401 10.7355 13.3086C10.9039 13.477 11.1323 13.5716 11.3705 13.5716C11.6087 13.5716 11.8371 13.477 12.0055 13.3086C12.174 13.1401 12.2686 12.9117 12.2686 12.6735V8.42361C12.2619 8.08304 12.3231 7.74456 12.4488 7.42795C12.5745 7.11135 12.7621 6.82299 13.0005 6.57976C13.239 6.33652 13.5236 6.1433 13.8377 6.01139C14.1517 5.87949 14.489 5.81154 14.8296 5.81154C15.1702 5.81154 15.5075 5.87949 15.8215 6.01139C16.1356 6.1433 16.4202 6.33652 16.6587 6.57976C16.8971 6.82299 17.0847 7.11135 17.2104 7.42795C17.3361 7.74456 17.3973 8.08304 17.3906 8.42361V15.0794C17.3906 16.4764 16.3039 17.109 15.5945 17.3745C15.4458 16.1591 15.1335 15.4675 14.4868 14.9407C13.5888 14.2122 12.1838 14.2931 11.3426 15.1203L11.3336 15.1283C10.5113 15.9655 10.4295 17.3695 11.153 18.2675C11.6719 18.9132 12.6817 19.3921 13.931 19.436C13.94 19.8971 13.943 20.414 13.944 20.9847C12.2526 20.7882 10.6923 19.9776 9.55903 18.7067C8.42577 17.4359 7.79846 15.7932 7.79616 14.0905C7.79616 13.8523 7.70154 13.6239 7.53312 13.4554C7.36469 13.287 7.13626 13.1924 6.89808 13.1924C6.65989 13.1924 6.43146 13.287 6.26304 13.4554C6.09462 13.6239 6 13.8523 6 14.0905C6.00263 16.2691 6.81807 18.3683 8.28675 19.9775C9.75544 21.5866 11.7717 22.5898 13.941 22.7909C13.941 23.205 13.941 23.641 13.941 24.1041C13.941 24.137 13.941 24.1709 13.941 24.2038H10.207C9.96881 24.2038 9.74038 24.2985 9.57196 24.4669C9.40354 24.6353 9.30892 24.8637 9.30892 25.1019C9.30892 25.3401 9.40354 25.5685 9.57196 25.737C9.74038 25.9054 9.96881 26 10.207 26H19.4602C19.6984 26 19.9268 25.9054 20.0952 25.737C20.2637 25.5685 20.3583 25.3401 20.3583 25.1019C20.3583 24.8637 20.2637 24.6353 20.0952 24.4669C19.9268 24.2985 19.6984 24.2038 19.4602 24.2038H15.7252C15.7252 24.1709 15.7312 24.137 15.7312 24.1041C15.7312 23.656 15.7312 23.2199 15.7322 22.8058ZM12.547 17.1579C12.3943 16.9683 12.4272 16.5891 12.6109 16.4025C12.7945 16.2159 13.1766 16.184 13.3622 16.3357C13.6007 16.5293 13.7414 16.9534 13.8243 17.6389C13.2704 17.605 12.7855 17.4573 12.547 17.1579Z" fill="#456C51"/>
</g>
</svg>
