<svg width="30" height="30" viewBox="0 0 30 30" fill="none" xmlns="http://www.w3.org/2000/svg">
<g id="ico_assessment">
<g id="Group 765">
<path id="Vector" d="M11.3952 22.7618C11.1564 22.7619 10.9274 22.6672 10.7584 22.4985C10.667 22.4073 10.5963 22.2975 10.551 22.1765C10.5057 22.0556 10.487 21.9264 10.496 21.7975L10.7264 18.4471C10.7416 18.2301 10.8348 18.026 10.9887 17.8724L18.3695 10.4916C18.7215 10.1406 19.168 9.8995 19.6546 9.79764C20.1411 9.69577 20.6468 9.73753 21.1101 9.91783C21.2334 9.16534 21.5892 8.47031 22.1274 7.93019C22.3383 7.7182 22.589 7.55012 22.8652 7.43565C23.1414 7.32118 23.4376 7.26261 23.7366 7.26332C24.3332 7.26157 24.9062 7.49591 25.3307 7.91518L25.3407 7.92519L25.3497 7.9342C25.7692 8.36291 26.0028 8.93963 26 9.5394C25.9972 10.1392 25.7581 10.7137 25.3347 11.1384C24.7926 11.6788 24.0939 12.0345 23.338 12.1548C23.5135 12.6164 23.5522 13.1188 23.4496 13.6018C23.3469 14.0848 23.1073 14.528 22.7593 14.8784L15.3765 22.2612C15.2224 22.415 15.0179 22.5078 14.8007 22.5225L11.4513 22.7528C11.4363 22.7618 11.4163 22.7618 11.3952 22.7618ZM12.5017 18.9097L12.3655 20.8914L14.3461 20.7552L21.4906 13.6107C21.6057 13.4955 21.6804 13.3462 21.7037 13.1851C21.727 13.0239 21.6975 12.8596 21.6198 12.7165C21.4884 12.4793 21.3782 12.2311 21.2903 11.9745C21.0303 11.8851 20.7786 11.7728 20.5383 11.6391C20.3955 11.5609 20.2311 11.5311 20.0699 11.5542C19.9087 11.5773 19.7593 11.6521 19.6442 11.7673L12.5017 18.9097ZM23.7366 9.06769C23.6742 9.06757 23.6125 9.07981 23.5549 9.1037C23.4973 9.12759 23.4451 9.16266 23.4011 9.20688C23.0818 9.52842 22.8915 9.95598 22.8664 10.4085C23.3188 10.3844 23.7464 10.1948 24.068 9.87577C24.156 9.7869 24.2054 9.66689 24.2054 9.54183C24.2054 9.41677 24.156 9.29675 24.068 9.20788C23.9803 9.11937 23.8612 9.069 23.7366 9.06769Z" fill="#1A342B"/>
<path id="Vector_2" d="M20.3997 26.0282H7.71092C6.72688 26.0271 5.78345 25.6357 5.08772 24.9397C4.39199 24.2438 4.0008 23.3003 4 22.3163V7.71192C4.0008 6.72788 4.39199 5.78435 5.08772 5.08843C5.78345 4.39251 6.72688 4.00106 7.71092 4H20.1894C20.4284 4 20.6577 4.09495 20.8267 4.26396C20.9957 4.43297 21.0906 4.66218 21.0906 4.90119C21.0906 5.1402 20.9957 5.36943 20.8267 5.53844C20.6577 5.70744 20.4284 5.80239 20.1894 5.80239H7.70992C7.20373 5.80292 6.71845 6.0043 6.36062 6.36232C6.00279 6.72034 5.80165 7.20574 5.80138 7.71192V22.3163C5.80191 22.8224 6.00313 23.3076 6.3609 23.6655C6.71868 24.0235 7.20381 24.225 7.70992 24.2258H20.3997C20.9059 24.225 21.3911 24.0235 21.7491 23.6656C22.107 23.3077 22.3084 22.8224 22.3092 22.3163V18.334C22.3092 18.095 22.4042 17.8658 22.5732 17.6967C22.7422 17.5277 22.9714 17.4328 23.2104 17.4328C23.4494 17.4328 23.6787 17.5277 23.8477 17.6967C24.0167 17.8658 24.1116 18.095 24.1116 18.334V22.3163C24.1106 23.3004 23.7191 24.2439 23.0233 24.9398C22.3274 25.6357 21.3838 26.0271 20.3997 26.0282Z" fill="#1A342B"/>
<path id="Vector_3" d="M14.2611 10.045H8.30119C8.06218 10.045 7.83295 9.95006 7.66395 9.78105C7.49494 9.61205 7.4 9.38282 7.4 9.14381C7.4 8.9048 7.49494 8.67558 7.66395 8.50658C7.83295 8.33757 8.06218 8.24261 8.30119 8.24261H14.2611C14.5001 8.24261 14.7293 8.33757 14.8983 8.50658C15.0673 8.67558 15.1623 8.9048 15.1623 9.14381C15.1623 9.38282 15.0673 9.61205 14.8983 9.78105C14.7293 9.95006 14.5001 10.045 14.2611 10.045Z" fill="#1A342B"/>
<path id="Vector_4" d="M11.6606 13.841H8.30119C8.06218 13.841 7.83295 13.7461 7.66395 13.5771C7.49494 13.4081 7.4 13.1788 7.4 12.9398C7.4 12.7008 7.49494 12.4716 7.66395 12.3026C7.83295 12.1336 8.06218 12.0386 8.30119 12.0386H11.6606C11.8996 12.0386 12.1289 12.1336 12.2979 12.3026C12.4669 12.4716 12.5618 12.7008 12.5618 12.9398C12.5618 13.1788 12.4669 13.4081 12.2979 13.5771C12.1289 13.7461 11.8996 13.841 11.6606 13.841Z" fill="#1A342B"/>
</g>
</g>
</svg>
