<svg width="26" height="26" viewBox="0 0 26 26" fill="none" xmlns="http://www.w3.org/2000/svg">
<path d="M15.7595 22.5335C15.5525 22.5335 15.3541 22.4512 15.2077 22.3049C15.0614 22.1585 14.9791 21.96 14.9791 21.7531V21.1461C14.9796 20.7279 15.1459 20.327 15.4416 20.0313C15.7373 19.7356 16.1382 19.5693 16.5564 19.5688H18.8109C18.8152 19.5686 18.8192 19.5668 18.8223 19.5638C18.8253 19.5607 18.8272 19.5567 18.8274 19.5523V17.5042C18.8278 17.0862 18.994 16.6854 19.2895 16.3898C19.5851 16.0941 19.9857 15.9277 20.4037 15.927H20.7584C20.7797 15.9276 20.8008 15.9225 20.8194 15.9121C20.8381 15.9017 20.8535 15.8865 20.8642 15.868C20.875 15.8498 20.8807 15.829 20.8807 15.8077C20.8807 15.7865 20.875 15.7657 20.8642 15.7475L19.11 12.4195C18.8646 11.9546 18.7171 11.4444 18.6765 10.9203C18.6057 10.0651 18.3645 9.2327 17.967 8.47217C17.5696 7.71164 17.0239 7.03835 16.3622 6.49198C15.696 5.94213 14.9251 5.53333 14.0963 5.29038C13.2674 5.04742 12.3978 4.97537 11.5402 5.0786C8.64146 5.40897 6.28724 7.75015 5.94126 10.6463C5.83029 11.5588 5.91606 12.4845 6.19276 13.3611C6.46946 14.2378 6.93067 15.045 7.54541 15.7284C7.73964 15.9287 8.64665 16.9874 8.64665 19.2835V21.7531C8.64665 21.96 8.56442 22.1585 8.41807 22.3049C8.27171 22.4512 8.07323 22.5335 7.86626 22.5335C7.65928 22.5335 7.4608 22.4512 7.31445 22.3049C7.1681 22.1585 7.08586 21.96 7.08586 21.7531V19.2827C7.08586 17.6074 6.50316 16.9016 6.43032 16.8201C6.41968 16.8105 6.40983 16.8001 6.40086 16.7889C5.63193 15.9394 5.0546 14.9345 4.70797 13.8424C4.36133 12.7503 4.2535 11.5964 4.39178 10.459C4.82533 6.8527 7.75352 3.93662 11.3642 3.52214C12.43 3.39555 13.5105 3.48667 14.5401 3.78998C15.5698 4.09329 16.5271 4.60249 17.3541 5.2867C18.1771 5.96657 18.8557 6.80418 19.3501 7.75022C19.8445 8.69627 20.1447 9.73165 20.2329 10.7954C20.2579 11.1086 20.3465 11.4133 20.4931 11.6912L22.2472 15.0191C22.3836 15.2753 22.4509 15.5626 22.4425 15.8526C22.4341 16.1427 22.3504 16.4256 22.1995 16.6736C22.0506 16.9228 21.8393 17.1289 21.5864 17.2715C21.3335 17.4141 21.0479 17.4884 20.7575 17.4869H20.4029C20.3987 17.4871 20.3947 17.489 20.3918 17.492C20.3889 17.4951 20.3873 17.4992 20.3873 17.5034V19.5515C20.3868 19.9697 20.2205 20.3706 19.9248 20.6663C19.6291 20.962 19.2282 21.1283 18.81 21.1287H16.5555C16.5533 21.1286 16.5512 21.129 16.5491 21.1297C16.547 21.1305 16.5451 21.1317 16.5436 21.1333C16.542 21.1349 16.5409 21.1367 16.5401 21.1388C16.5393 21.1408 16.5389 21.143 16.5391 21.1452V21.7522C16.5392 21.8547 16.5191 21.9562 16.48 22.0509C16.4409 22.1456 16.3835 22.2317 16.3111 22.3043C16.2387 22.3768 16.1528 22.4344 16.0581 22.4737C15.9635 22.5131 15.862 22.5333 15.7595 22.5335Z" fill="#A7998F"/>
<path d="M13.7973 17.8631H10.3956C10.1886 17.8631 9.99014 17.7808 9.84379 17.6345C9.69743 17.4881 9.6152 17.2896 9.6152 17.0827V16.0638C9.6152 15.8568 9.69743 15.6583 9.84379 15.512C9.99014 15.3656 10.1886 15.2834 10.3956 15.2834C10.6026 15.2834 10.8011 15.3656 10.9474 15.512C11.0938 15.6583 11.176 15.8568 11.176 16.0638V16.3023H13.0169V15.6719C10.3861 15.4074 9.15303 14.0357 8.68826 13.3307C8.2972 12.7419 7.7778 11.8263 7.7778 10.6834C7.7795 10.0925 7.90198 9.50814 8.13773 8.96627C8.37347 8.42439 8.71751 7.93643 9.1487 7.53235C9.58095 7.12602 10.0928 6.8138 10.6519 6.61544C11.211 6.41708 11.8052 6.3369 12.3969 6.37997C13.4429 6.45339 14.4265 6.90468 15.1643 7.64972C15.9022 8.39476 16.344 9.38269 16.4073 10.4294C16.4621 11.3242 16.2356 12.2138 15.7595 12.9734C15.756 12.9801 15.7519 12.9865 15.7474 12.9925C15.652 13.1365 15.5011 13.3394 15.4083 13.4608C15.2967 13.6004 15.1961 13.7486 15.1074 13.9039C15.0719 13.9672 15.039 14.0305 15.0069 14.0929C15.1705 14.075 15.3396 14.0521 15.5141 14.0244C15.7186 13.9925 15.9273 14.043 16.0944 14.165C16.2616 14.2869 16.3735 14.4703 16.4055 14.6747C16.4374 14.879 16.387 15.0877 16.2652 15.2548C16.1434 15.4219 15.9603 15.5339 15.7561 15.5661C15.3416 15.6311 14.9496 15.6736 14.5776 15.6962V17.0835C14.5774 17.2904 14.4951 17.4886 14.3488 17.6348C14.2024 17.781 14.0041 17.8631 13.7973 17.8631ZM12.0951 7.92949C11.3963 7.92703 10.7232 8.19269 10.2144 8.67173C9.93667 8.92855 9.71541 9.24032 9.56464 9.58724C9.41387 9.93415 9.33688 10.3086 9.33859 10.6869C9.33859 11.2436 9.5389 11.7933 9.98892 12.4714C10.3236 12.9769 11.2332 13.9594 13.2952 14.1302C13.4181 13.7912 13.5674 13.4624 13.7417 13.1469C13.869 12.9213 14.014 12.7061 14.1753 12.5035C14.2481 12.409 14.3713 12.2433 14.4415 12.1367C14.7413 11.6531 14.8837 11.0884 14.849 10.5204C14.8086 9.85248 14.5268 9.22201 14.0561 8.74646C13.5853 8.27092 12.9577 7.98272 12.2902 7.93556C12.2261 7.93122 12.1584 7.92949 12.0951 7.92949Z" fill="#A7998F"/>
</svg>
