<svg width="22" height="22" viewBox="0 0 22 22" fill="none" xmlns="http://www.w3.org/2000/svg">
<path d="M16.0937 14.7347C16.6401 14.2755 17.0282 13.6491 17.0282 12.7219C17.0314 12.2201 16.8767 11.7301 16.5862 11.321C16.2957 10.9119 15.884 10.6044 15.4093 10.442C15.1833 8.62215 13.7904 7.88128 12.481 7.35534C13.0216 6.89908 13.4053 6.27631 13.4053 5.35426C13.4053 4.00309 12.3358 2.94386 10.9677 2.93359H10.9376C9.56887 2.94386 8.50011 4.00309 8.50011 5.35426C8.50011 6.29611 8.91385 6.92622 9.49407 7.38394C8.32042 7.88568 7.02353 8.63095 6.76313 10.3342C6.19177 10.4193 5.67027 10.7076 5.29434 11.1462C4.91841 11.5848 4.71324 12.1442 4.71654 12.7219C4.71654 13.6689 5.13542 14.3026 5.72078 14.764C4.40995 15.3318 2.93335 16.2018 2.93335 18.3708C2.93335 18.5459 3.00288 18.7138 3.12669 18.8376C3.2505 18.9614 3.41844 19.031 3.59353 19.031C3.76862 19.031 3.93653 18.9614 4.06033 18.8376C4.18414 18.7138 4.25371 18.5459 4.25371 18.3708C4.25371 16.8597 5.2073 16.3954 6.76166 15.7616C6.90836 15.7015 7.06314 15.6391 7.21718 15.5731C7.38222 15.6406 7.54506 15.7037 7.7035 15.7653C9.33782 16.4013 10.3398 16.8656 10.3398 18.3708C10.3398 18.5459 10.4094 18.7138 10.5332 18.8376C10.657 18.9614 10.8249 19.031 11 19.031C11.1751 19.031 11.343 18.9614 11.4668 18.8376C11.5906 18.7138 11.6602 18.5459 11.6602 18.3708C11.6602 16.8597 12.6138 16.3954 14.1681 15.7616C14.3148 15.7015 14.4696 15.6391 14.6236 15.5731C14.7887 15.6406 14.9516 15.7037 15.11 15.7653C16.7443 16.4013 17.7463 16.8656 17.7463 18.3708C17.7463 18.5459 17.8159 18.7138 17.9397 18.8376C18.0635 18.9614 18.2314 19.031 18.4065 19.031C18.5816 19.031 18.7495 18.9614 18.8733 18.8376C18.9971 18.7138 19.0667 18.5459 19.0667 18.3708C19.0652 16.1526 17.5262 15.3178 16.0937 14.7347ZM10.9523 4.25396C11.5876 4.25396 12.0849 4.73882 12.0849 5.35426C12.0849 6.01444 11.7423 6.37534 10.9846 6.74797C10.1814 6.37093 9.81829 6.01444 9.81829 5.35426C9.82049 4.73882 10.3171 4.25616 10.9523 4.25396ZM7.20325 14.1222C6.40003 13.7407 6.0369 13.3798 6.0369 12.7189C6.0369 12.1035 6.53351 11.6186 7.16875 11.6186C7.80399 11.6186 8.30133 12.1028 8.30133 12.7189C8.30133 13.3886 7.96172 13.7466 7.20325 14.1222ZM10.9934 16.2568C10.4125 15.5064 9.53148 15.075 8.68718 14.7317C9.23367 14.2726 9.62169 13.6461 9.62169 12.7189C9.62494 12.2307 9.47875 11.7533 9.20273 11.3506C8.92672 10.9479 8.53411 10.6393 8.07761 10.4663C8.27567 9.34835 9.17792 8.92583 10.5408 8.37862C10.6875 8.31847 10.8445 8.25685 10.9993 8.19156C11.1651 8.25832 11.3294 8.3214 11.4885 8.38228C12.8727 8.91336 13.8021 9.32487 14.0559 10.3526C13.5094 10.4614 13.0179 10.7572 12.6657 11.189C12.3136 11.6208 12.1227 12.1617 12.126 12.7189C12.126 13.6659 12.5448 14.2997 13.1302 14.7611C12.3629 15.0941 11.545 15.5276 10.9934 16.2597V16.2568ZM14.6097 14.1222C13.8065 13.7407 13.4434 13.3798 13.4434 12.7189C13.4434 12.1035 13.94 11.6186 14.5753 11.6186C15.2105 11.6186 15.7078 12.1028 15.7078 12.7189C15.7078 13.3886 15.3653 13.7466 14.6097 14.1222Z" fill="#1A342B"/>
</svg>
