<svg width="42" height="44" viewBox="0 0 42 44" fill="none" xmlns="http://www.w3.org/2000/svg">
<g id="Group 1229">
<path id="Vector" d="M25.0449 44C20.7751 43.9947 16.6816 42.296 13.6625 39.2766C10.6435 36.2571 8.94532 32.1635 8.94055 27.8937C8.94055 22.5662 11.5413 16.2905 16.6847 9.23455C19.0009 6.05304 21.5642 3.05896 24.3507 0.280106C24.5372 0.10041 24.786 0 25.0449 0C25.3039 0 25.5527 0.10041 25.7391 0.280106C28.5273 3.05802 31.0913 6.05218 33.4072 9.23455C38.5446 16.2885 41.1513 22.5662 41.1513 27.8937C41.146 32.1637 39.4474 36.2574 36.428 39.2767C33.4086 42.2961 29.315 43.9947 25.0449 44ZM25.0449 2.41868C22.1181 5.4355 10.9411 17.6228 10.9411 27.8937C10.9453 31.6331 12.4325 35.2182 15.0766 37.8626C17.7206 40.507 21.3055 41.9947 25.0449 41.9995C28.7847 41.9952 32.3701 40.5078 35.0146 37.8633C37.659 35.2189 39.1465 31.6335 39.1508 27.8937C39.1508 17.6268 27.9737 5.4355 25.0449 2.41267V2.41868Z" fill="#65AF7C"/>
<path id="Vector_2" d="M9.4266 3.47347C9.24018 3.29377 8.99134 3.19336 8.73241 3.19336C8.47349 3.19336 8.22465 3.29377 8.03823 3.47347C7.71014 3.78955 0 11.3016 0 17.9614C0.00264635 20.2767 0.923456 22.4966 2.56046 24.1339C4.19747 25.7713 6.41707 26.6926 8.73241 26.6958C11.0481 26.6931 13.2682 25.7721 14.9056 24.1346C16.5431 22.4972 17.4641 20.2771 17.4668 17.9614C17.4748 11.3016 9.76269 3.78955 9.4266 3.47347Z" fill="#65AF7C"/>
<path id="Vector_3" d="M25.045 40.1362C24.7797 40.1362 24.5252 40.0308 24.3377 39.8432C24.1501 39.6556 24.0447 39.4012 24.0447 39.1359C24.0447 38.8706 24.1501 38.6162 24.3377 38.4286C24.5252 38.241 24.7797 38.1356 25.045 38.1356C25.8721 38.1358 26.6962 38.0364 27.4996 37.8395C27.7572 37.7761 28.0295 37.8176 28.2564 37.955C28.4834 38.0923 28.6466 38.3141 28.71 38.5717C28.7734 38.8293 28.7318 39.1015 28.5945 39.3285C28.4572 39.5555 28.2354 39.7187 27.9778 39.7821C27.0179 40.0173 26.0332 40.1362 25.045 40.1362Z" fill="#65AF7C"/>
<path id="Vector_4" d="M31.2125 38.2937C31.0467 38.2938 30.8835 38.2527 30.7376 38.1742C30.5916 38.0956 30.4674 37.982 30.3763 37.8436C30.2308 37.622 30.1792 37.3517 30.2329 37.0921C30.2865 36.8326 30.441 36.6049 30.6623 36.4592C32.0847 35.5284 33.2525 34.2576 34.0601 32.7619C34.8678 31.2662 35.2896 29.5927 35.2876 27.8929C35.2876 27.6276 35.393 27.3731 35.5806 27.1855C35.7682 26.9979 36.0226 26.8926 36.2879 26.8926C36.5532 26.8926 36.8076 26.9979 36.9952 27.1855C37.1828 27.3731 37.2882 27.6276 37.2882 27.8929C37.2903 29.9239 36.7862 31.9235 35.8215 33.7108C34.8567 35.4981 33.4618 37.0168 31.7626 38.1296C31.5992 38.2369 31.408 38.2939 31.2125 38.2937Z" fill="#65AF7C"/>
</g>
</svg>
