<svg width="30" height="30" viewBox="0 0 30 30" fill="none" xmlns="http://www.w3.org/2000/svg">
<g id="ico_keyboard">
<g id="Group 871">
<path id="Vector" d="M21.0945 26H8.90446C7.60412 25.9987 6.35742 25.4815 5.43795 24.562C4.51847 23.6426 4.00132 22.3959 4 21.0955V8.90446C4.00159 7.6042 4.51882 6.35767 5.43824 5.43825C6.35766 4.51883 7.6042 4.00159 8.90446 4H21.0945C22.3948 4.00159 23.6413 4.51883 24.5608 5.43825C25.4802 6.35767 25.9974 7.6042 25.999 8.90446V21.0955C25.9977 22.3959 25.4805 23.6426 24.561 24.562C23.6416 25.4815 22.3949 25.9987 21.0945 26ZM8.90446 5.80164C8.08154 5.80164 7.29233 6.12854 6.71043 6.71043C6.12854 7.29233 5.80164 8.08154 5.80164 8.90446V21.0955C5.80164 21.9185 6.12854 22.7077 6.71043 23.2896C7.29233 23.8715 8.08154 24.1984 8.90446 24.1984H21.0945C21.9175 24.1984 22.7067 23.8715 23.2886 23.2896C23.8705 22.7077 24.1974 21.9185 24.1974 21.0955V8.90446C24.1974 8.08154 23.8705 7.29233 23.2886 6.71043C22.7067 6.12854 21.9175 5.80164 21.0945 5.80164H8.90446Z" fill="white"/>
<path id="Vector_2" d="M20.6042 20.7294H9.39398C9.15507 20.7294 8.92594 20.6345 8.75701 20.4655C8.58807 20.2966 8.49316 20.0675 8.49316 19.8286C8.49316 19.5896 8.58807 19.3605 8.75701 19.1916C8.92594 19.0226 9.15507 18.9277 9.39398 18.9277H20.6042C20.8431 18.9277 21.0722 19.0226 21.2411 19.1916C21.4101 19.3605 21.505 19.5896 21.505 19.8286C21.505 20.0675 21.4101 20.2966 21.2411 20.4655C21.0722 20.6345 20.8431 20.7294 20.6042 20.7294Z" fill="white"/>
<path id="Vector_3" d="M11.2234 9.67139H9.67203C9.31382 9.67139 9.02344 9.96177 9.02344 10.32V11.8714C9.02344 12.2296 9.31382 12.52 9.67203 12.52H11.2234C11.5816 12.52 11.872 12.2296 11.872 11.8714V10.32C11.872 9.96177 11.5816 9.67139 11.2234 9.67139Z" fill="white"/>
<path id="Vector_4" d="M15.7693 9.67139H14.2179C13.8597 9.67139 13.5693 9.96177 13.5693 10.32V11.8714C13.5693 12.2296 13.8597 12.52 14.2179 12.52H15.7693C16.1275 12.52 16.4179 12.2296 16.4179 11.8714V10.32C16.4179 9.96177 16.1275 9.67139 15.7693 9.67139Z" fill="white"/>
<path id="Vector_5" d="M20.3455 9.67139H18.7941C18.4359 9.67139 18.1455 9.96177 18.1455 10.32V11.8714C18.1455 12.2296 18.4359 12.52 18.7941 12.52H20.3455C20.7037 12.52 20.9941 12.2296 20.9941 11.8714V10.32C20.9941 9.96177 20.7037 9.67139 20.3455 9.67139Z" fill="white"/>
<path id="Vector_6" d="M11.2234 13.8672H9.67203C9.31382 13.8672 9.02344 14.1576 9.02344 14.5158V16.0672C9.02344 16.4254 9.31382 16.7158 9.67203 16.7158H11.2234C11.5816 16.7158 11.872 16.4254 11.872 16.0672V14.5158C11.872 14.1576 11.5816 13.8672 11.2234 13.8672Z" fill="white"/>
<path id="Vector_7" d="M15.7693 13.8672H14.2179C13.8597 13.8672 13.5693 14.1576 13.5693 14.5158V16.0672C13.5693 16.4254 13.8597 16.7158 14.2179 16.7158H15.7693C16.1275 16.7158 16.4179 16.4254 16.4179 16.0672V14.5158C16.4179 14.1576 16.1275 13.8672 15.7693 13.8672Z" fill="white"/>
<path id="Vector_8" d="M20.3455 13.8672H18.7941C18.4359 13.8672 18.1455 14.1576 18.1455 14.5158V16.0672C18.1455 16.4254 18.4359 16.7158 18.7941 16.7158H20.3455C20.7037 16.7158 20.9941 16.4254 20.9941 16.0672V14.5158C20.9941 14.1576 20.7037 13.8672 20.3455 13.8672Z" fill="white"/>
</g>
</g>
</svg>
