<svg width="30" height="30" viewBox="0 0 30 30" fill="none" xmlns="http://www.w3.org/2000/svg">
<g id="ico_juice_sel">
<g id="Group 873">
<g id="Group 827">
<path id="Vector 9" d="M14.875 14.9166C12.3084 13.8166 9.52781 15.0694 8.45836 15.8333L9.37503 25H21.7501L23.1251 14C21.2917 15.375 18.0834 16.2916 14.875 14.9166Z" fill="url(#paint0_linear_380_2907)" fill-opacity="0.3"/>
<path id="Vector 8" d="M13.9583 15.8334C11.025 17.3001 8.76389 15.8334 8 14.9167L9.375 25.0001H21.75L22.6667 16.2918C21.2917 15.3751 17.625 14.0001 13.9583 15.8334Z" fill="url(#paint1_linear_380_2907)" fill-opacity="0.3"/>
</g>
<path id="Vector" d="M25.518 7.30989C25.3118 7.19015 25.0665 7.15721 24.836 7.2183C24.6054 7.27939 24.4086 7.42953 24.2888 7.63569C24.0034 8.13065 23.6686 8.5954 23.2894 9.0228C22.1432 7.9235 19.5838 7.42382 17.3462 7.25592L17.5131 5.79885H20.7021C20.9406 5.79885 21.1694 5.70409 21.3381 5.53541C21.5067 5.36674 21.6015 5.13797 21.6015 4.89943C21.6015 4.66088 21.5067 4.43211 21.3381 4.26343C21.1694 4.09476 20.9406 4 20.7021 4H16.7106C16.4895 4.0001 16.2761 4.08169 16.1113 4.22918C15.9465 4.37666 15.8418 4.5797 15.8172 4.79949L15.5434 7.19096C14.3155 7.18787 13.0894 7.28277 11.8767 7.47478C11.8856 6.88021 11.7753 6.2899 11.5521 5.73872C11.329 5.18755 10.9976 4.68671 10.5775 4.26582C10.494 4.18227 10.3948 4.116 10.2857 4.07078C10.1765 4.02556 10.0596 4.00228 9.94143 4.00228C9.82329 4.00228 9.70631 4.02556 9.59716 4.07078C9.48802 4.116 9.38886 4.18227 9.30533 4.26582L4.26354 9.30162C4.17999 9.38514 4.11371 9.48431 4.06849 9.59345C4.02327 9.70259 4 9.81957 4 9.93771C4 10.0559 4.02327 10.1728 4.06849 10.282C4.11371 10.3911 4.17999 10.4903 4.26354 10.5738C4.67766 10.9882 5.16955 11.3167 5.71097 11.5405C6.25239 11.7644 6.83268 11.879 7.41853 11.878C7.61909 11.8776 7.81941 11.8639 8.01815 11.837C9.39128 12.9493 12.3154 13.419 14.8198 13.495L13.5976 24.1951H10.5995L9.48921 14.4663C9.47582 14.3486 9.43931 14.2348 9.38178 14.1312C9.32425 14.0277 9.24683 13.9365 9.15398 13.8629C9.06112 13.7894 8.95464 13.7349 8.84067 13.7026C8.7267 13.6704 8.60748 13.6609 8.48985 13.6748C8.37215 13.6882 8.25827 13.7247 8.15472 13.7823C8.05118 13.8398 7.96002 13.9172 7.88647 14.0101C7.81293 14.1029 7.75845 14.2094 7.72617 14.3234C7.69389 14.4373 7.68443 14.5566 7.69835 14.6742L8.89759 25.2005C8.92216 25.4203 9.02686 25.6233 9.19167 25.7708C9.35648 25.9183 9.56986 25.9999 9.79102 26H21.3057C21.5279 26.0014 21.7427 25.9204 21.9088 25.7728C22.0749 25.6252 22.1804 25.4213 22.2051 25.2005L23.8251 11.0095C24.6275 10.3028 25.3082 9.46883 25.8398 8.5411C25.8996 8.43915 25.9387 8.3264 25.9548 8.20933C25.971 8.09226 25.964 7.97315 25.9341 7.85881C25.9042 7.74447 25.8521 7.63713 25.7807 7.54295C25.7093 7.44876 25.62 7.36957 25.518 7.30989ZM21.9273 10.215C20.2444 11.3583 18.3476 11.6261 16.8385 11.6891L17.1383 9.03878C19.8126 9.21567 21.4006 9.81629 21.9273 10.215ZM9.825 6.28154C10.0584 6.77793 10.1332 7.33419 10.0391 7.8746C9.94508 8.415 9.68676 8.91329 9.29934 9.30162C8.91125 9.68908 8.41313 9.94745 7.87286 10.0415C7.33259 10.1356 6.77646 10.0608 6.28026 9.82728L9.825 6.28154ZM10.1438 10.9486C10.294 10.8327 10.4369 10.7075 10.5715 10.5738C10.9169 10.2288 11.2032 9.82941 11.419 9.39156C12.7082 9.12781 14.0206 8.99389 15.3365 8.99182L15.0267 11.7051C12.8491 11.6551 11.1771 11.3223 10.1438 10.9486ZM20.5122 24.1951H15.4104L16.6327 13.495C18.0478 13.45 19.9935 13.2451 21.8693 12.3137L20.5122 24.1951Z" fill="#65AF7C"/>
</g>
</g>
<defs>
<linearGradient id="paint0_linear_380_2907" x1="11.6887" y1="24.4014" x2="16.9891" y2="15.176" gradientUnits="userSpaceOnUse">
<stop stop-color="#B8D7A9"/>
<stop offset="1" stop-color="#73D89B"/>
</linearGradient>
<linearGradient id="paint1_linear_380_2907" x1="11.2303" y1="24.4015" x2="16.5307" y2="15.1761" gradientUnits="userSpaceOnUse">
<stop stop-color="#B8D7A9"/>
<stop offset="1" stop-color="#73D89B"/>
</linearGradient>
</defs>
</svg>
