<svg width="30" height="30" viewBox="0 0 30 30" fill="none" xmlns="http://www.w3.org/2000/svg">
<path d="M14.6364 15.909C12.3455 14.9272 9.86364 16.0454 8.90909 16.7272L9.72727 24.9091H20.7727L22 15.0909C20.3636 16.3182 17.5 17.1363 14.6364 15.909Z" fill="url(#paint0_linear_380_2904)" fill-opacity="0.3"/>
<path d="M13.8182 16.7272C11.2 18.0363 9.18182 16.7272 8.5 15.9091L9.72727 24.9091H20.7727L21.5909 17.1363C20.3636 16.3181 17.0909 15.0909 13.8182 16.7272Z" fill="url(#paint1_linear_380_2904)" fill-opacity="0.3"/>
<path d="M22.675 13.7933C22.0331 13.7945 21.4147 13.552 20.9447 13.1148C20.3562 12.5584 19.9849 11.7417 19.8238 10.6248H5.90071C5.66183 10.6248 5.43275 10.5299 5.26383 10.361C5.09492 10.1921 5 9.96299 5 9.72411C5 9.48522 5.09492 9.25612 5.26383 9.08721C5.43275 8.91829 5.66183 8.82339 5.90071 8.82339H7.10166L8.35769 4.64208C8.4198 4.4349 8.55438 4.25698 8.73685 4.14085C8.91932 4.02472 9.13745 3.97812 9.35144 4.00958L20.9606 5.71893C21.1956 5.75363 21.4074 5.87973 21.5498 6.06979C21.6923 6.25984 21.7539 6.49847 21.7213 6.73374C21.6209 7.4271 21.5574 8.1253 21.5311 8.8254C22.7661 8.84341 23.5477 8.96951 24.3454 9.80117C24.7195 10.1955 24.9489 10.705 24.996 11.2465C25.0431 11.7881 24.9051 12.3296 24.6045 12.7825C24.4198 13.0596 24.176 13.2923 23.8907 13.464C23.6054 13.6356 23.2855 13.742 22.9542 13.7753C22.8615 13.7865 22.7684 13.7925 22.675 13.7933ZM21.6462 10.6288C21.7703 11.2573 21.9754 11.6106 22.1826 11.8068C22.26 11.8741 22.3504 11.9249 22.4481 11.9561C22.5459 11.9872 22.649 11.998 22.7511 11.9879C22.8218 11.9832 22.8904 11.9622 22.9515 11.9264C23.0127 11.8906 23.0647 11.8411 23.1034 11.7817C23.1766 11.6708 23.2109 11.5386 23.2009 11.406C23.191 11.2735 23.1373 11.1479 23.0483 11.0492C22.7421 10.7269 22.5349 10.6468 21.6462 10.6288ZM8.98719 8.8274H19.7357C19.7477 8.37704 19.7811 7.89366 19.8358 7.37725L9.86489 5.90909L8.98719 8.8274Z" fill="#65AF7C"/>
<path d="M20.4693 26H9.50354C9.28422 26 9.07245 25.92 8.90791 25.775C8.74337 25.63 8.6374 25.43 8.60987 25.2124L7.06265 13.0828C7.0326 12.8459 7.09785 12.6068 7.24404 12.418C7.39023 12.2292 7.60536 12.1062 7.84222 12.076C7.95959 12.061 8.07881 12.0692 8.19298 12.1003C8.30716 12.1313 8.4141 12.1846 8.50769 12.257C8.60128 12.3294 8.67964 12.4195 8.73839 12.5222C8.79713 12.6249 8.8351 12.7382 8.85005 12.8556L10.2932 24.1986H19.6706L20.7965 15.1004C20.8258 14.864 20.9475 14.6488 21.1351 14.5019C21.3226 14.3551 21.5608 14.2885 21.7973 14.3168C22.0337 14.346 22.2489 14.4678 22.3957 14.6553C22.5426 14.8429 22.6092 15.081 22.5809 15.3175L21.3569 25.2054C21.3311 25.4232 21.2267 25.6241 21.0632 25.7704C20.8998 25.9167 20.6886 25.9984 20.4693 26Z" fill="#65AF7C"/>
<defs>
<linearGradient id="paint0_linear_380_2904" x1="11.7924" y1="24.3748" x2="16.5233" y2="16.1405" gradientUnits="userSpaceOnUse">
<stop stop-color="#B8D7A9"/>
<stop offset="1" stop-color="#73D89B"/>
</linearGradient>
<linearGradient id="paint1_linear_380_2904" x1="11.3833" y1="24.3748" x2="16.1142" y2="16.1405" gradientUnits="userSpaceOnUse">
<stop stop-color="#B8D7A9"/>
<stop offset="1" stop-color="#73D89B"/>
</linearGradient>
</defs>
</svg>
