<svg width="12" height="12" viewBox="0 0 12 12" fill="none" xmlns="http://www.w3.org/2000/svg">
<g id="Group 1282">
<path id="Vector" d="M5.71957 10.1354C5.80243 10.194 5.90139 10.2255 6.00285 10.2255C6.10431 10.2255 6.20327 10.194 6.28613 10.1354C7.08716 9.54476 7.8182 8.86463 8.46506 8.10824C8.50697 8.05918 8.53881 8.00235 8.55874 7.94098C8.57868 7.87962 8.58633 7.81493 8.58126 7.75061C8.57619 7.68629 8.55851 7.6236 8.52921 7.56611C8.49991 7.50863 8.45955 7.45748 8.41048 7.41559C8.31143 7.33113 8.1829 7.28944 8.05313 7.29968C7.92337 7.30991 7.80298 7.37123 7.71839 7.47017C7.20043 8.07134 6.62675 8.62217 6.00504 9.11529C5.46865 8.68941 4.96742 8.22103 4.5062 7.7147C3.72622 6.8512 2.79668 5.53795 2.79668 4.18375C2.79769 3.33315 3.13602 2.51768 3.73749 1.91622C4.33895 1.31475 5.15443 0.976402 6.00504 0.975391C6.85564 0.97698 7.67089 1.31588 8.27194 1.91776C8.873 2.51963 9.2108 3.33534 9.21123 4.18594C9.21123 4.80381 9.07476 5.25903 8.80567 5.54013C8.58734 5.7661 8.28058 5.88073 7.88923 5.88073C7.52409 5.87183 7.16464 5.78824 6.83305 5.63511C7.04629 5.4701 7.21787 5.25739 7.33399 5.01405C7.45012 4.77071 7.50754 4.50353 7.50169 4.23397C7.50169 3.38685 6.8658 2.74714 6.02087 2.74114H6.00122C5.60766 2.74502 5.2315 2.90394 4.95437 3.18342C4.67725 3.4629 4.52149 3.84039 4.52094 4.23397C4.52094 4.5893 4.64374 4.95119 4.87135 5.29287C4.69123 5.30761 4.52585 5.31198 4.39594 5.31198C4.26566 5.31198 4.14072 5.36373 4.04859 5.45586C3.95647 5.54798 3.9047 5.67293 3.9047 5.80322C3.9047 5.93351 3.95647 6.05845 4.04859 6.15058C4.14072 6.24271 4.26566 6.29446 4.39594 6.29446C4.84642 6.3012 5.29606 6.25299 5.73487 6.15091C6.38385 6.60122 7.18347 6.86813 7.88923 6.86813C8.54913 6.86813 9.1108 6.64597 9.51471 6.22514C9.96556 5.75519 10.1937 5.07072 10.1937 4.19085C10.1924 3.07977 9.75046 2.01456 8.96481 1.22891C8.17915 0.443252 7.11393 0.00130011 6.00285 0C4.89262 0.00129683 3.82817 0.442574 3.04265 1.22717C2.25714 2.01176 1.81461 3.07571 1.81201 4.18594C1.81201 7.3419 5.55964 10.0263 5.71957 10.1354ZM5.9379 5.04288C5.67263 4.78416 5.50396 4.49706 5.50396 4.23397C5.5041 4.09899 5.55762 3.96954 5.65281 3.87383C5.748 3.77813 5.87715 3.72394 6.01212 3.72308C6.24683 3.72308 6.51976 3.85844 6.51976 4.23397C6.51921 4.63242 6.27305 4.88514 5.93737 5.04507L5.9379 5.04288Z" fill="#1A342B"/>
<path id="Vector_2" d="M9.92966 8.10144C9.80466 8.06475 9.67021 8.07922 9.55587 8.14166C9.44153 8.2041 9.35668 8.3094 9.31997 8.43439C9.30182 8.49632 9.29606 8.56123 9.303 8.62539C9.30993 8.68955 9.32943 8.75172 9.36041 8.80834C9.39138 8.86496 9.4332 8.91492 9.48348 8.95537C9.53377 8.99582 9.59153 9.02596 9.65347 9.04408C10.6753 9.34319 11.018 9.69361 11.018 9.80824C11.018 9.88029 10.803 10.2171 9.75117 10.5418C8.75668 10.8491 7.42487 11.0183 6.0019 11.0183C4.57893 11.0183 3.24712 10.8491 2.25262 10.5418C1.20082 10.2143 0.985765 9.88029 0.985765 9.80824C0.985765 9.69416 1.32963 9.34374 2.35033 9.04408C2.41227 9.02596 2.47003 8.99582 2.52031 8.95537C2.5706 8.91492 2.61245 8.86496 2.64342 8.80834C2.67439 8.75172 2.69389 8.68955 2.70082 8.62539C2.70776 8.56123 2.70198 8.49632 2.68382 8.43439C2.6657 8.37245 2.63557 8.31469 2.59512 8.2644C2.55467 8.21411 2.50471 8.17229 2.44809 8.14132C2.39147 8.11035 2.32929 8.09084 2.26512 8.0839C2.20096 8.07696 2.13607 8.08274 2.07414 8.10089C1.12877 8.37763 0 8.89889 0 9.80769C0 10.2946 0.340044 10.9796 1.95951 11.4801C3.04516 11.8152 4.47959 12.0003 5.99862 12.0003C7.51765 12.0003 8.95208 11.8152 10.0377 11.4801C11.6572 10.9796 11.9973 10.2946 11.9973 9.80769C12.0016 8.89889 10.8745 8.37817 9.92966 8.10144Z" fill="#1A342B"/>
</g>
</svg>
