<svg width="70" height="70" viewBox="0 0 70 70" fill="none" xmlns="http://www.w3.org/2000/svg">
<rect width="70" height="70" rx="14" fill="#D1E5D1"/>
<path d="M35 58C47.7025 58 58 47.7025 58 35C58 22.2975 47.7025 12 35 12C22.2975 12 12 22.2975 12 35C12 47.7025 22.2975 58 35 58Z" stroke="#456C51" stroke-width="2" stroke-linecap="round" stroke-linejoin="round"/>
<path d="M51.264 18.7441L44.2095 25.7919" stroke="#456C51" stroke-width="2" stroke-linecap="round" stroke-linejoin="round"/>
<path d="M23.6963 46.3047L18.7358 51.2652" stroke="#456C51" stroke-width="2" stroke-linecap="round" stroke-linejoin="round"/>
<path d="M44.6771 19.4141C42.0003 24.0154 37.2566 24.0019 35.0271 24.0019C30.8527 24.0019 27.4711 22.9718 27.4711 21.7046C27.4711 20.4373 30.8527 19.4141 35 19.4141C39.1473 19.4141 42.556 20.4373 42.556 21.7046L45.7139 29.6672C46.1158 30.681 46.3227 31.7616 46.3238 32.8522V46.9273C46.322 48.1501 45.835 49.3222 44.9698 50.1862C44.1045 51.0502 42.9317 51.5355 41.7089 51.5355H28.2843C27.0616 51.5355 25.8888 51.0502 25.0235 50.1862C24.1582 49.3222 23.6712 48.1501 23.6694 46.9273V33.2385C23.6687 31.8971 23.982 30.5743 24.5843 29.3758L25.876 26.7924" stroke="#456C51" stroke-width="2" stroke-linecap="round" stroke-linejoin="round"/>
<path d="M23.6968 34.2492C23.6968 34.2492 28.3252 38.3694 34.9325 34.2492C41.5397 30.129 46.3512 34.2492 46.3512 34.2492" stroke="#456C51" stroke-width="2" stroke-linecap="round" stroke-linejoin="round"/>
</svg>
