<svg width="30" height="30" viewBox="0 0 30 30" fill="none" xmlns="http://www.w3.org/2000/svg">
<g id="ico_body type">
<g id="Group 844">
<path id="Vector" d="M14.9997 11.2061C13.876 11.2074 12.7988 11.6543 12.0042 12.4489C11.2096 13.2435 10.7626 14.3208 10.7613 15.4445C10.7626 16.5682 11.2096 17.6455 12.0042 18.4401C12.7988 19.2346 13.876 19.6816 14.9997 19.6829C16.1236 19.6819 17.2012 19.235 17.996 18.4404C18.7907 17.6458 19.2379 16.5684 19.2392 15.4445C19.2379 14.3206 18.7907 13.2432 17.996 12.4486C17.2012 11.654 16.1236 11.2071 14.9997 11.2061ZM14.9997 17.8789C14.3543 17.8781 13.7356 17.6214 13.2792 17.165C12.8229 16.7086 12.5661 16.0899 12.5653 15.4445C12.5661 14.7991 12.8229 14.1803 13.2792 13.724C13.7356 13.2676 14.3543 13.0109 14.9997 13.0101C15.6453 13.0106 16.2643 13.2672 16.7209 13.7236C17.1775 14.18 17.4344 14.7989 17.4352 15.4445C17.4344 16.0901 17.1775 16.709 16.7209 17.1654C16.2643 17.6218 15.6453 17.8784 14.9997 17.8789Z" fill="#1A342B"/>
<path id="Vector_2" d="M26 12.6573C25.9995 12.0178 25.7453 11.4047 25.2932 10.9524C24.8411 10.5001 24.2281 10.2457 23.5886 10.2449C23.5465 10.2449 23.5054 10.2449 23.4634 10.2449C22.0834 8.01041 19.8799 6.40841 17.3287 5.78498C17.1903 5.27301 16.8872 4.82083 16.4662 4.49823C16.0453 4.17563 15.5298 4.00054 14.9995 4C14.4693 4.00076 13.9541 4.17595 13.5334 4.49853C13.1126 4.82112 12.8097 5.27318 12.6713 5.78498C10.12 6.40811 7.91634 8.01018 6.53666 10.2449C6.49456 10.2449 6.45347 10.2449 6.41138 10.2449C5.77191 10.2457 5.15887 10.5001 4.7068 10.9524C4.25472 11.4047 4.00053 12.0178 4 12.6573C4.00024 13.0594 4.10128 13.455 4.29387 13.808C4.48646 14.1609 4.76446 14.46 5.10246 14.6778C5.08341 14.9334 5.0724 15.1889 5.0724 15.4445C5.06691 17.8073 5.90938 20.0936 7.44668 21.8878C7.33973 22.1633 7.28502 22.4563 7.28532 22.7518C7.28612 23.3911 7.54043 24.0039 7.99247 24.456C8.44452 24.908 9.05739 25.1623 9.69668 25.1631C10.2488 25.1634 10.7842 24.9737 11.2131 24.6259C12.4146 25.1239 13.7029 25.3787 15.0035 25.3756C16.3041 25.3787 17.5924 25.1239 18.7939 24.6259C19.2219 24.974 19.7567 25.1637 20.3083 25.1631C20.9477 25.1626 21.5607 24.9084 22.0128 24.4563C22.4649 24.0042 22.7192 23.3911 22.7197 22.7518C22.7197 22.4571 22.6657 22.165 22.5603 21.8898C24.0984 20.0951 24.9412 17.8081 24.9356 15.4445C24.9356 15.1889 24.9246 14.9334 24.9056 14.6778C25.2421 14.459 25.5185 14.1596 25.7097 13.8067C25.9008 13.4538 26.0006 13.0586 26 12.6573ZM24.196 12.6573C24.1957 12.8183 24.1316 12.9726 24.0178 13.0864C23.904 13.2003 23.7496 13.2644 23.5886 13.2646C23.4276 13.2644 23.2733 13.2003 23.1595 13.0864C23.0456 12.9726 22.9815 12.8183 22.9813 12.6573C22.9813 12.4961 23.0452 12.3415 23.1591 12.2275C23.273 12.1134 23.4275 12.0492 23.5886 12.0489C23.7498 12.0492 23.9043 12.1134 24.0182 12.2275C24.132 12.3415 24.196 12.4961 24.196 12.6573ZM14.9995 5.80803C15.1607 5.80803 15.3153 5.87198 15.4293 5.98586C15.5434 6.09973 15.6076 6.2542 15.6079 6.41538C15.6076 6.57655 15.5434 6.73103 15.4293 6.8449C15.3153 6.95877 15.1607 7.02274 14.9995 7.02274C14.8385 7.02247 14.6842 6.9584 14.5703 6.84456C14.4565 6.73071 14.3924 6.57638 14.3922 6.41538C14.3924 6.25438 14.4565 6.10005 14.5703 5.98621C14.6842 5.87237 14.8385 5.8083 14.9995 5.80803ZM6.41138 12.0489C6.57255 12.0492 6.72703 12.1134 6.8409 12.2275C6.95477 12.3415 7.01872 12.4961 7.01872 12.6573C7.01846 12.8183 6.95439 12.9726 6.84054 13.0864C6.7267 13.2003 6.57237 13.2644 6.41138 13.2646C6.25038 13.2644 6.09604 13.2003 5.9822 13.0864C5.86835 12.9726 5.80428 12.8183 5.80402 12.6573C5.80402 12.4961 5.86797 12.3415 5.98184 12.2275C6.09572 12.1134 6.2502 12.0492 6.41138 12.0489ZM9.08532 22.7518C9.08559 22.5908 9.14966 22.4364 9.2635 22.3226C9.37735 22.2087 9.53168 22.1447 9.69268 22.1444C9.85386 22.1444 10.0084 22.2084 10.1225 22.3222C10.2366 22.4361 10.3008 22.5906 10.301 22.7518C10.3008 22.9129 10.2366 23.0674 10.1225 23.1813C10.0084 23.2952 9.85386 23.3591 9.69268 23.3591C9.53168 23.3589 9.37735 23.2948 9.2635 23.1809C9.14966 23.0671 9.08559 22.9128 9.08532 22.7518ZM20.3043 23.3591C20.1433 23.3589 19.989 23.2948 19.8751 23.1809C19.7613 23.0671 19.6972 22.9128 19.697 22.7518C19.6972 22.5908 19.7613 22.4364 19.8751 22.3226C19.989 22.2087 20.1433 22.1447 20.3043 22.1444C20.4653 22.1447 20.6196 22.2087 20.7335 22.3226C20.8473 22.4364 20.9114 22.5908 20.9117 22.7518C20.9114 22.9128 20.8473 23.0671 20.7335 23.1809C20.6196 23.2948 20.4653 23.3589 20.3043 23.3591ZM21.3136 20.5619C20.9972 20.4158 20.6528 20.3402 20.3043 20.3404C19.6649 20.3409 19.0519 20.5951 18.5998 21.0473C18.1477 21.4994 17.8935 22.1124 17.8929 22.7518C17.893 22.8466 17.8987 22.9413 17.91 23.0354C16.9825 23.3918 15.9971 23.5736 15.0035 23.5716C14.0078 23.5741 13.0203 23.392 12.091 23.0344C12.1026 22.9406 12.1087 22.8462 12.1091 22.7518C12.1083 22.1123 11.8538 21.4993 11.4016 21.0472C10.9493 20.5951 10.3361 20.3409 9.69668 20.3404C9.34881 20.34 9.00506 20.4156 8.68945 20.5619C7.51274 19.1164 6.87219 17.3084 6.87641 15.4445C6.87641 15.3032 6.87641 15.1619 6.88844 15.0215C7.43473 14.9117 7.92619 14.6162 8.27948 14.1853C8.63276 13.7544 8.82613 13.2145 8.82675 12.6573C8.82683 12.0507 8.59772 11.4665 8.18532 11.0216C9.28305 9.33873 10.9614 8.11837 12.9008 7.593C13.1103 7.96721 13.4157 8.27882 13.7856 8.49568C14.1556 8.71254 14.5767 8.82683 15.0055 8.82675C15.4343 8.82672 15.8554 8.7124 16.2253 8.49555C16.5952 8.27869 16.9007 7.96715 17.1102 7.593C19.0496 8.11837 20.728 9.33873 21.8257 11.0216C21.4133 11.4665 21.1842 12.0507 21.1843 12.6573C21.1848 13.2144 21.3781 13.7541 21.7312 14.185C22.0842 14.6159 22.5755 14.9115 23.1216 15.0215C23.1296 15.1619 23.1346 15.3032 23.1346 15.4445C23.1372 17.3095 22.4937 19.1178 21.3136 20.5619Z" fill="#1A342B"/>
</g>
</g>
</svg>
