<svg width="30" height="30" viewBox="0 0 30 30" fill="none" xmlns="http://www.w3.org/2000/svg">
<g id="ico_gut health">
<g id="Group 764">
<path id="Vector" d="M23.5114 15.7247C23.9375 15.1442 24.1943 14.457 24.2533 13.7394C24.3122 13.0217 24.171 12.3018 23.8454 11.6596C23.5197 11.0174 23.0223 10.4781 22.4085 10.1016C21.7948 9.72514 21.0886 9.52623 20.3685 9.52702H18.2596C18.8834 8.9288 19.3796 8.21055 19.7185 7.41551C20.0573 6.62046 20.2318 5.76507 20.2314 4.90082C20.2314 4.66191 20.1365 4.43279 19.9676 4.26385C19.7986 4.09491 19.5695 4 19.3306 4C19.0917 4 18.8626 4.09491 18.6936 4.26385C18.5247 4.43279 18.4298 4.66191 18.4298 4.90082C18.4282 6.12728 17.9403 7.30304 17.073 8.17028C16.2058 9.03752 15.03 9.52543 13.8036 9.52702H11.1832C10.9443 9.52702 10.7152 9.62193 10.5462 9.79087C10.3773 9.95981 10.2824 10.1889 10.2824 10.4278C10.2824 10.6668 10.3773 10.8959 10.5462 11.0648C10.7152 11.2338 10.9443 11.3287 11.1832 11.3287H20.3715C20.6506 11.3226 20.928 11.3723 21.1876 11.4748C21.4471 11.5774 21.6836 11.7307 21.8831 11.9259C22.0826 12.1211 22.2411 12.3542 22.3493 12.6114C22.4575 12.8687 22.5133 13.145 22.5133 13.4241C22.5133 13.7032 22.4575 13.9794 22.3493 14.2367C22.2411 14.494 22.0826 14.727 21.8831 14.9222C21.6836 15.1174 21.4471 15.2707 21.1876 15.3733C20.928 15.4759 20.6506 15.5256 20.3715 15.5195H11.1832C10.9443 15.5195 10.7152 15.6144 10.5462 15.7833C10.3773 15.9523 10.2824 16.1814 10.2824 16.4203C10.2824 16.6592 10.3773 16.8883 10.5462 17.0573C10.7152 17.2262 10.9443 17.3211 11.1832 17.3211H22.2653C22.5443 17.315 22.8217 17.3647 23.0813 17.4673C23.3409 17.5698 23.5773 17.7232 23.7768 17.9184C23.9763 18.1136 24.1348 18.3466 24.243 18.6039C24.3512 18.8611 24.407 19.1374 24.407 19.4165C24.407 19.6956 24.3512 19.9719 24.243 20.2291C24.1348 20.4864 23.9763 20.7195 23.7768 20.9146C23.5773 21.1098 23.3409 21.2632 23.0813 21.3658C22.8217 21.4683 22.5443 21.518 22.2653 21.5119H17.8012C16.85 21.513 15.9381 21.8912 15.2655 22.5637C14.5928 23.2362 14.2143 24.148 14.213 25.0992C14.213 25.3381 14.3079 25.5672 14.4768 25.7362C14.6457 25.9051 14.8749 26 15.1138 26C15.3527 26 15.5818 25.9051 15.7507 25.7362C15.9197 25.5672 16.0146 25.3381 16.0146 25.0992C16.0151 24.6256 16.2036 24.1716 16.5385 23.8368C16.8735 23.502 17.3276 23.3138 17.8012 23.3136H22.2653C23.1895 23.3139 24.0837 22.9857 24.7883 22.3876C25.4928 21.7895 25.9619 20.9604 26.1116 20.0484C26.2614 19.1364 26.0821 18.2009 25.6058 17.4089C25.1295 16.6168 24.3872 16.0199 23.5114 15.7247Z" fill="#1A342B"/>
<path id="Vector_2" d="M17.5438 20.3168H19.907C20.1459 20.3168 20.375 20.2219 20.5439 20.053C20.7129 19.8841 20.8078 19.6549 20.8078 19.416C20.8078 19.1771 20.7129 18.948 20.5439 18.779C20.375 18.6101 20.1459 18.5152 19.907 18.5152H8.89696C8.61793 18.5213 8.3405 18.4716 8.08094 18.369C7.82137 18.2665 7.5849 18.1131 7.38541 17.9179C7.18592 17.7227 7.02742 17.4897 6.91921 17.2324C6.811 16.9752 6.75526 16.6989 6.75526 16.4198C6.75526 16.1407 6.811 15.8644 6.91921 15.6072C7.02742 15.3499 7.18592 15.1168 7.38541 14.9217C7.5849 14.7265 7.82137 14.5731 8.08094 14.4705C8.3405 14.368 8.61793 14.3183 8.89696 14.3244H19.907C20.1459 14.3244 20.375 14.2295 20.5439 14.0605C20.7129 13.8916 20.8078 13.6625 20.8078 13.4236C20.8078 13.1847 20.7129 12.9555 20.5439 12.7866C20.375 12.6177 20.1459 12.5227 19.907 12.5227H10.7877C10.2399 12.5108 9.71854 12.2847 9.33534 11.8931C8.95215 11.5014 8.73757 10.9753 8.73757 10.4273C8.73757 9.8794 8.95215 9.35326 9.33534 8.9616C9.71854 8.56994 10.2399 8.34391 10.7877 8.33194H13.0507C13.9604 8.33088 14.8325 7.96904 15.4757 7.32581C16.119 6.68258 16.4808 5.81048 16.4819 4.90082C16.4819 4.66191 16.3869 4.43279 16.218 4.26385C16.0491 4.09491 15.8199 4 15.581 4C15.3421 4 15.113 4.09491 14.9441 4.26385C14.7751 4.43279 14.6802 4.66191 14.6802 4.90082C14.68 5.3329 14.5082 5.74722 14.2027 6.05274C13.8971 6.35827 13.4828 6.53004 13.0507 6.5303H10.7877C10.0677 6.53016 9.36172 6.72956 8.7482 7.10636C8.13467 7.48317 7.63757 8.02265 7.3121 8.66488C6.98663 9.30712 6.84551 10.027 6.90442 10.7446C6.96333 11.4622 7.21996 12.1494 7.64582 12.7299C6.7711 13.0264 6.03013 13.6239 5.55504 14.4159C5.07996 15.208 4.90166 16.143 5.05193 17.0543C5.20221 17.9656 5.6713 18.7939 6.37554 19.3914C7.07977 19.989 7.97337 20.3169 8.89696 20.3168H12.9837C12.3313 20.9309 11.8114 21.6719 11.4561 22.4944C11.1009 23.3168 10.9177 24.2033 10.9178 25.0992C10.9178 25.3381 11.0127 25.5672 11.1816 25.7362C11.3506 25.9051 11.5797 26 11.8186 26C12.0575 26 12.2867 25.9051 12.4556 25.7362C12.6245 25.5672 12.7194 25.3381 12.7194 25.0992C12.721 23.8313 13.2254 22.6158 14.1219 21.7193C15.0184 20.8228 16.2339 20.3184 17.5018 20.3168H17.5438Z" fill="#1A342B"/>
</g>
</g>
</svg>
