<svg width="30" height="30" viewBox="0 0 30 30" fill="none" xmlns="http://www.w3.org/2000/svg">
<g id="ico_wellness_nor">
<g id="Group 877">
<path id="Vector" d="M7.56611 24.0809H4.90425C4.66557 24.0809 4.43666 24.1757 4.26789 24.3445C4.09911 24.5133 4.0043 24.7422 4.0043 24.9808C4.0043 25.2195 4.09911 25.4484 4.26789 25.6172C4.43666 25.786 4.66557 25.8808 4.90425 25.8808H7.56611C7.80479 25.8808 8.03367 25.786 8.20244 25.6172C8.37122 25.4484 8.46605 25.2195 8.46605 24.9808C8.46605 24.7422 8.37122 24.5133 8.20244 24.3445C8.03367 24.1757 7.80479 24.0809 7.56611 24.0809Z" fill="#B5C2B3"/>
<path id="Vector_2" d="M25.099 24.0809H22.4282C22.1895 24.0809 21.9606 24.1757 21.7918 24.3445C21.6231 24.5133 21.5283 24.7422 21.5283 24.9808C21.5283 25.2195 21.6231 25.4484 21.7918 25.6172C21.9606 25.786 22.1895 25.8808 22.4282 25.8808H25.1C25.3387 25.8808 25.5676 25.786 25.7364 25.6172C25.9052 25.4484 26 25.2195 26 24.9808C26 24.8626 25.9767 24.7455 25.9314 24.6362C25.8861 24.527 25.8197 24.4277 25.736 24.3441C25.6524 24.2606 25.5531 24.1943 25.4438 24.1491C25.3344 24.104 25.2173 24.0808 25.099 24.0809Z" fill="#B5C2B3"/>
<path id="Vector_3" d="M15.9556 24.0809H14.0337C13.795 24.0809 13.5661 24.1757 13.3973 24.3445C13.2285 24.5133 13.1337 24.7422 13.1337 24.9808C13.1337 25.2195 13.2285 25.4484 13.3973 25.6172C13.5661 25.786 13.795 25.8808 14.0337 25.8808H15.9556C16.1942 25.8808 16.4232 25.786 16.5919 25.6172C16.7607 25.4484 16.8555 25.2195 16.8555 24.9808C16.8555 24.7422 16.7607 24.5133 16.5919 24.3445C16.4232 24.1757 16.1942 24.0809 15.9556 24.0809Z" fill="#B5C2B3"/>
<path id="Vector_4" d="M25.735 9.37174C25.6486 9.2863 25.5459 9.21902 25.4331 9.17385C25.3202 9.12869 25.1995 9.10655 25.078 9.10876C25.009 9.10876 23.3781 9.15575 21.2122 9.74772C20.9823 9.81084 20.7867 9.96266 20.6686 10.1698C20.5505 10.377 20.5195 10.6226 20.5823 10.8527C20.6456 11.0825 20.7975 11.2777 21.0047 11.3956C21.2118 11.5136 21.4573 11.5445 21.6872 11.4816C22.4817 11.2646 23.2902 11.1029 24.1071 10.9976C23.8711 12.8265 23.0491 16.7503 20.2243 19.5751C19.8794 19.92 19.4626 20.1846 19.0037 20.3498C18.5448 20.5151 18.055 20.5769 17.5694 20.5311C18.3438 20.0818 18.9868 19.4371 19.4341 18.6616C19.8813 17.886 20.1172 17.0066 20.1183 16.1113C20.1183 10.0297 15.8346 5.46998 15.6526 5.27899C15.5686 5.19088 15.4676 5.12071 15.3557 5.07276C15.2438 5.02481 15.1233 5.00006 15.0016 5C14.8799 5.00006 14.7594 5.02481 14.6475 5.07276C14.5356 5.12071 14.4346 5.19088 14.3506 5.27899C14.1686 5.46998 9.88491 10.0297 9.88491 16.1113C9.88563 17.0071 10.1214 17.887 10.5687 18.6631C11.016 19.4392 11.6591 20.0844 12.4338 20.5341C12.3338 20.5441 12.2288 20.5501 12.1258 20.5501C11.6898 20.5512 11.2579 20.4658 10.8551 20.299C10.4522 20.1322 10.0865 19.8872 9.77891 19.5781C6.95407 16.7533 6.13211 12.8275 5.89613 10.9996C6.71328 11.1054 7.52215 11.2675 8.31698 11.4846C8.54621 11.546 8.79041 11.5143 8.99641 11.3965C9.20241 11.2787 9.35353 11.0843 9.41692 10.8556C9.47974 10.6256 9.44869 10.38 9.33057 10.1728C9.21245 9.96567 9.01695 9.81384 8.78697 9.75072C6.6241 9.15876 4.98718 9.11376 4.92019 9.11176C4.79859 9.10892 4.6777 9.13076 4.56479 9.17596C4.45187 9.22116 4.34929 9.28879 4.26324 9.37474C4.17729 9.46079 4.10965 9.56337 4.06445 9.67629C4.01925 9.7892 3.99741 9.91011 4.00024 10.0317C4.00624 10.2967 4.20023 16.5493 8.49998 20.8501C8.9741 21.3268 9.53806 21.7049 10.1592 21.9623C10.7804 22.2198 11.4464 22.3516 12.1188 22.35C13.1448 22.3526 14.1477 22.0448 14.9956 21.467C15.981 22.1344 17.168 22.4379 18.3528 22.3257C19.5377 22.2135 20.6466 21.6925 21.4892 20.8521C25.789 16.5523 25.989 10.2987 25.989 10.0337C25.9937 9.91191 25.9735 9.79044 25.9299 9.67665C25.8862 9.56286 25.8199 9.45913 25.735 9.37174ZM15.0016 18.8832C14.7136 18.3795 14.5621 17.8094 14.5621 17.2293C14.5621 16.6491 14.7136 16.079 15.0016 15.5754C15.2898 16.0789 15.4414 16.6491 15.4414 17.2293C15.4414 17.8095 15.2898 18.3796 15.0016 18.8832ZM15.0016 7.29986C16.1285 8.76078 18.3194 12.1156 18.3194 16.1083C18.3194 16.6193 18.2012 17.1234 17.9742 17.5811C17.7471 18.0389 17.4173 18.438 17.0105 18.7472C17.2865 17.8569 17.3144 16.9081 17.0912 16.0032C16.8679 15.0982 16.402 14.2713 15.7435 13.6115L15.6296 13.4995C15.4616 13.3361 15.2365 13.2447 15.0021 13.2447C14.7678 13.2447 14.5426 13.3361 14.3746 13.4995C14.3356 13.5375 14.2976 13.5745 14.2607 13.6125C13.6019 14.272 13.1356 15.0989 12.9122 16.0039C12.6887 16.909 12.7166 17.8578 12.9927 18.7482C12.5859 18.439 12.2561 18.0399 12.029 17.5821C11.802 17.1244 11.6838 16.6203 11.6838 16.1093C11.6838 12.1116 13.8757 8.75978 15.0016 7.29986Z" fill="#B5C2B3"/>
<path id="Vector_5" d="M10.8089 24.0798C10.5702 24.0798 10.3413 24.1747 10.1725 24.3434C10.0037 24.5122 9.90894 24.7411 9.90894 24.9798C9.90894 25.2185 10.0037 25.4474 10.1725 25.6161C10.3413 25.7849 10.5702 25.8797 10.8089 25.8797C11.0476 25.8797 11.2765 25.7849 11.4452 25.6161C11.614 25.4474 11.7088 25.2185 11.7088 24.9798C11.7088 24.7411 11.614 24.5122 11.4452 24.3434C11.2765 24.1747 11.0476 24.0798 10.8089 24.0798Z" fill="#B5C2B3"/>
<path id="Vector_6" d="M19.1864 24.0798C18.9477 24.0798 18.7188 24.1747 18.5501 24.3434C18.3813 24.5122 18.2865 24.7411 18.2865 24.9798C18.2865 25.2185 18.3813 25.4474 18.5501 25.6161C18.7188 25.7849 18.9477 25.8797 19.1864 25.8797C19.4251 25.8797 19.654 25.7849 19.8228 25.6161C19.9915 25.4474 20.0864 25.2185 20.0864 24.9798C20.0864 24.7411 19.9915 24.5122 19.8228 24.3434C19.654 24.1747 19.4251 24.0798 19.1864 24.0798Z" fill="#B5C2B3"/>
</g>
</g>
</svg>
