<svg width="172" height="196" viewBox="0 0 172 196" fill="none" xmlns="http://www.w3.org/2000/svg">
<path d="M126.347 156.934L126.44 156.673C125.439 156.396 124.503 155.923 123.685 155.282C122.867 154.641 122.184 153.846 121.675 152.94C121.166 152.035 120.841 151.038 120.718 150.006C120.595 148.974 120.678 147.929 120.96 146.929L135.255 96.422C135.606 95.183 135.709 93.8868 135.558 92.6079C135.406 91.3291 135.004 90.0927 134.373 88.9701C133.741 87.8475 132.895 86.8608 131.881 86.0667C130.867 85.2726 129.706 84.6868 128.465 84.3431C125.969 83.6463 123.299 83.9672 121.04 85.2354C118.78 86.5037 117.115 88.6158 116.41 91.1092L99.9502 149L126.347 156.934Z" fill="#65AF7C"/>
<path d="M64.116 66.4269L81.3171 5.31783C81.5235 4.57064 81.8754 3.87159 82.3528 3.26083C82.8301 2.65007 83.4235 2.13965 84.0987 1.75887C84.7739 1.3781 85.5177 1.13448 86.2873 1.04201C87.057 0.949549 87.8373 1.01006 88.5834 1.22006L166.131 22.8524C166.879 23.0615 167.579 23.416 168.19 23.8956C168.801 24.3753 169.311 24.9707 169.692 25.6478C170.072 26.325 170.316 27.0705 170.408 27.8418C170.5 28.613 170.439 29.3949 170.229 30.1427L136.137 151.408C135.867 152.388 135.406 153.304 134.78 154.104C134.153 154.905 133.374 155.572 132.488 156.069C131.601 156.565 130.625 156.881 129.615 156.997C128.606 157.113 127.583 157.027 126.607 156.745H126.416C125.41 156.469 124.468 155.998 123.645 155.357C122.822 154.716 122.134 153.919 121.62 153.011C121.106 152.103 120.777 151.102 120.652 150.067C120.526 149.031 120.607 147.981 120.889 146.977C124.439 134.54 131.467 109.906 135.184 96.4216C135.872 93.9511 135.551 91.3084 134.291 89.0746C133.031 86.8408 130.935 85.1987 128.465 84.5095H128.227C125.725 83.8049 123.045 84.1216 120.777 85.39C118.508 86.6584 116.834 88.7751 116.124 91.2756L88.2261 190.48C88.0197 191.227 87.6677 191.926 87.1904 192.537C86.713 193.147 86.1197 193.658 85.4445 194.039C84.7693 194.419 84.0255 194.663 83.2559 194.755C82.4862 194.848 81.7059 194.787 80.9597 194.577L5.31784 173.469C4.57064 173.263 3.8716 172.911 3.26085 172.433C2.65009 171.956 2.13966 171.363 1.75889 170.687C1.37812 170.012 1.13448 169.268 1.04201 168.499C0.949547 167.729 1.01006 166.949 1.22007 166.203L27.9032 71.3109C28.9311 67.6782 31.3544 64.5997 34.644 62.7473C37.9336 60.895 41.8225 60.4192 45.4616 61.4239L128.179 84.5095" fill="#FFFCF5"/>
<path d="M64.116 66.4269L81.3171 5.31783C81.5235 4.57064 81.8754 3.87159 82.3528 3.26083C82.8301 2.65007 83.4235 2.13965 84.0987 1.75887C84.7739 1.3781 85.5177 1.13448 86.2873 1.04201C87.057 0.949549 87.8373 1.01006 88.5834 1.22006L166.131 22.8524C166.879 23.0615 167.579 23.416 168.19 23.8956C168.801 24.3753 169.311 24.9707 169.692 25.6478C170.072 26.325 170.316 27.0705 170.408 27.8418C170.5 28.613 170.439 29.3949 170.229 30.1427L136.137 151.408C135.867 152.388 135.406 153.304 134.78 154.104C134.153 154.905 133.374 155.572 132.488 156.069C131.601 156.565 130.625 156.881 129.615 156.997C128.606 157.113 127.583 157.027 126.607 156.745H126.416C125.41 156.469 124.468 155.998 123.645 155.357C122.822 154.716 122.134 153.919 121.62 153.011C121.106 152.103 120.777 151.102 120.652 150.067C120.526 149.031 120.607 147.981 120.889 146.977C124.439 134.54 131.467 109.906 135.184 96.4216C135.872 93.9511 135.551 91.3084 134.291 89.0746C133.031 86.8408 130.935 85.1987 128.465 84.5095H128.227C125.725 83.8049 123.045 84.1216 120.777 85.39C118.508 86.6584 116.834 88.7751 116.124 91.2756L88.2261 190.48C88.0197 191.227 87.6677 191.926 87.1904 192.537C86.713 193.147 86.1197 193.658 85.4445 194.039C84.7693 194.419 84.0255 194.663 83.2559 194.755C82.4862 194.848 81.7059 194.787 80.9597 194.577L5.31784 173.469C4.57064 173.263 3.8716 172.911 3.26085 172.433C2.65009 171.956 2.13966 171.363 1.75889 170.687C1.37812 170.012 1.13448 169.268 1.04201 168.499C0.949547 167.729 1.01006 166.949 1.22007 166.203L27.9032 71.3109C28.9311 67.6782 31.3544 64.5997 34.644 62.7473C37.9336 60.895 41.8225 60.4192 45.4616 61.4239L128.179 84.5095" stroke="#456C51" stroke-width="1.5" stroke-linecap="round" stroke-linejoin="round"/>
<path d="M95.304 33.5973C100.896 33.5973 105.429 29.064 105.429 23.472C105.429 17.8799 100.896 13.3467 95.304 13.3467C89.712 13.3467 85.1787 17.8799 85.1787 23.472C85.1787 29.064 89.712 33.5973 95.304 33.5973Z" fill="#65AF7C"/>
<path d="M49.37 85.248L102.188 99.9952" stroke="#456C51" stroke-linecap="round" stroke-linejoin="round"/>
<path d="M82.3914 38.0049L151.625 57.3025" stroke="#456C51" stroke-linecap="round" stroke-linejoin="round"/>
<path d="M45.057 100.591L97.8753 115.314" stroke="#456C51" stroke-linecap="round" stroke-linejoin="round"/>
<path d="M40.6506 116.268L93.4689 130.991" stroke="#456C51" stroke-linecap="round" stroke-linejoin="round"/>
<path d="M36.2443 131.968L89.0387 146.691" stroke="#456C51" stroke-linecap="round" stroke-linejoin="round"/>
<path d="M32.0027 147.024L84.821 161.772" stroke="#456C51" stroke-linecap="round" stroke-linejoin="round"/>
<path d="M27.5963 162.677L80.4146 177.4" stroke="#456C51" stroke-linecap="round" stroke-linejoin="round"/>
<path d="M38.3856 86.7493C40.8988 86.7493 42.9361 84.712 42.9361 82.1989C42.9361 79.6857 40.8988 77.6484 38.3856 77.6484C35.8725 77.6484 33.8352 79.6857 33.8352 82.1989C33.8352 84.712 35.8725 86.7493 38.3856 86.7493Z" stroke="#456C51" stroke-linecap="round" stroke-linejoin="round"/>
<path d="M34.0754 102.068C36.5886 102.068 38.6259 100.03 38.6259 97.5172C38.6259 95.0041 36.5886 92.9668 34.0754 92.9668C31.5623 92.9668 29.525 95.0041 29.525 97.5172C29.525 100.03 31.5623 102.068 34.0754 102.068Z" stroke="#456C51" stroke-linecap="round" stroke-linejoin="round"/>
<path d="M29.6691 117.768C32.1822 117.768 34.2195 115.731 34.2195 113.217C34.2195 110.704 32.1822 108.667 29.6691 108.667C27.1559 108.667 25.1187 110.704 25.1187 113.217C25.1187 115.731 27.1559 117.768 29.6691 117.768Z" stroke="#456C51" stroke-linecap="round" stroke-linejoin="round"/>
<path d="M25.2367 133.445C27.7498 133.445 29.7871 131.407 29.7871 128.894C29.7871 126.381 27.7498 124.344 25.2367 124.344C22.7236 124.344 20.6863 126.381 20.6863 128.894C20.6863 131.407 22.7236 133.445 25.2367 133.445Z" stroke="#456C51" stroke-linecap="round" stroke-linejoin="round"/>
<path d="M21.0184 148.526C23.5315 148.526 25.5688 146.488 25.5688 143.975C25.5688 141.462 23.5315 139.425 21.0184 139.425C18.5053 139.425 16.468 141.462 16.468 143.975C16.468 146.488 18.5053 148.526 21.0184 148.526Z" stroke="#456C51" stroke-linecap="round" stroke-linejoin="round"/>
<path d="M16.6121 164.154C19.1252 164.154 21.1625 162.116 21.1625 159.603C21.1625 157.09 19.1252 155.053 16.6121 155.053C14.0989 155.053 12.0616 157.09 12.0616 159.603C12.0616 162.116 14.0989 164.154 16.6121 164.154Z" stroke="#456C51" stroke-linecap="round" stroke-linejoin="round"/>
<path d="M79.2686 49.1543L148.478 68.4519" stroke="#456C51" stroke-linecap="round" stroke-linejoin="round"/>
<path d="M76.4092 59.3271L120.365 71.5728" stroke="#456C51" stroke-linecap="round" stroke-linejoin="round"/>
<path d="M115.362 28.8019C114.719 28.6253 114.191 28.3614 113.779 28.0103C113.372 27.6606 113.099 27.2429 112.962 26.7571C112.824 26.2713 112.834 25.743 112.99 25.1721C113.146 24.6064 113.407 24.1499 113.773 23.8025C114.141 23.45 114.589 23.2275 115.118 23.1349C115.648 23.0372 116.232 23.0759 116.87 23.2511C117.631 23.4602 118.209 23.7931 118.603 24.2499C118.998 24.7067 119.161 25.2299 119.093 25.8197L118.183 25.5696C118.212 25.1019 118.104 24.7074 117.861 24.3861C117.618 24.0596 117.256 23.8299 116.772 23.6972C116.15 23.5262 115.607 23.5984 115.145 23.9138C114.683 24.224 114.352 24.7468 114.15 25.4823C113.948 26.2177 113.962 26.8384 114.194 27.3445C114.431 27.852 114.863 28.1919 115.49 28.3643C115.768 28.4406 116.028 28.4815 116.269 28.4871C116.513 28.4875 116.772 28.4508 117.046 28.3769L117.51 26.6875L115.651 26.1768L115.764 25.768L118.765 26.5923L118.182 28.7137C117.83 28.888 117.402 28.9836 116.9 29.0004C116.399 29.0122 115.886 28.946 115.362 28.8019ZM120.251 30.1448C119.747 30.0064 119.386 29.769 119.169 29.4328C118.953 29.0914 118.907 28.6944 119.031 28.2418L119.69 25.8427L120.685 26.1161L120.005 28.5923C119.915 28.9215 119.92 29.194 120.021 29.4098C120.129 29.6219 120.329 29.7682 120.622 29.8487C120.967 29.9434 121.273 29.8974 121.54 29.7108C121.812 29.5256 122.004 29.2272 122.117 28.8158L122.706 26.6712L123.702 26.9446L122.663 30.7246L121.668 30.4512L121.844 29.8109C121.665 29.9996 121.432 30.1236 121.144 30.1829C120.862 30.2437 120.564 30.231 120.251 30.1448ZM124.763 31.3844C124.393 31.2827 124.139 31.1106 124.001 30.868C123.863 30.6255 123.845 30.3165 123.949 29.9411L124.595 27.5882L123.924 27.4039L124.149 27.0675L124.712 27.2222L125.282 26.2339L125.984 26.4267L125.692 27.4913L126.741 27.7795L126.523 28.118L125.59 27.8616L124.92 30.2993C124.799 30.7416 124.91 31.01 125.255 31.1047C125.435 31.1541 125.631 31.1554 125.843 31.1085L125.737 31.4943C125.474 31.527 125.149 31.4904 124.763 31.3844ZM129.531 26.8036L130.672 27.1172L130.045 29.4006L133.108 30.2419L133.735 27.9585L134.877 28.2721L133.393 33.6721L132.252 33.3584L132.987 30.6816L129.924 29.8403L129.189 32.5172L128.047 32.2036L129.531 26.8036ZM136.416 34.1871C137.11 34.3778 137.605 34.179 137.899 33.5906L138.663 33.8004C138.456 34.1915 138.133 34.4487 137.696 34.5718C137.263 34.6964 136.77 34.6824 136.214 34.5298C135.767 34.4069 135.397 34.2224 135.105 33.9763C134.82 33.7265 134.627 33.4303 134.528 33.0877C134.43 32.74 134.435 32.3681 134.544 31.9721C134.654 31.571 134.84 31.246 135.102 30.9971C135.364 30.7483 135.681 30.5894 136.054 30.5203C136.434 30.4476 136.847 30.4727 137.295 30.5956C137.979 30.7835 138.457 31.0973 138.729 31.537C139.006 31.9781 139.059 32.5183 138.889 33.1574L135.549 32.2399L135.536 32.2861C135.402 32.7747 135.405 33.1849 135.547 33.5168C135.694 33.845 135.984 34.0684 136.416 34.1871ZM137.224 30.9743C136.879 30.8797 136.575 30.9121 136.31 31.0716C136.051 31.2274 135.839 31.4955 135.674 31.8759L138.034 32.5244C138.093 32.1091 138.054 31.7692 137.916 31.5046C137.784 31.2415 137.553 31.0647 137.224 30.9743ZM140.462 35.6968C139.928 35.5499 139.554 35.3394 139.342 35.0654C139.129 34.7913 139.075 34.4666 139.178 34.0912C139.285 33.7003 139.527 33.4433 139.904 33.32C140.286 33.1981 140.78 33.2206 141.387 33.3873L142.436 33.6755L142.508 33.4132C142.59 33.1149 142.568 32.8653 142.44 32.6644C142.314 32.4583 142.092 32.3115 141.773 32.2239C141.464 32.1392 141.196 32.1485 140.969 32.2519C140.748 32.3516 140.577 32.5398 140.457 32.8165L139.701 32.6089C139.869 32.2181 140.148 31.96 140.536 31.8344C140.925 31.7088 141.399 31.723 141.96 31.877C142.572 32.0451 143.007 32.2919 143.266 32.6175C143.53 32.9445 143.602 33.3291 143.48 33.7714L143.141 35.0057C143.017 35.4582 142.941 35.8854 142.914 36.2872L141.98 36.0308C141.982 35.8212 141.998 35.6236 142.027 35.4379C141.817 35.6181 141.577 35.7264 141.307 35.7629C141.037 35.7994 140.755 35.7773 140.462 35.6968ZM140.784 35.4034C141.118 35.4952 141.409 35.4728 141.657 35.3362C141.911 35.1959 142.08 34.9714 142.165 34.6629L142.332 34.0535L141.561 33.8415C141.18 33.737 140.873 33.7299 140.638 33.8202C140.404 33.9054 140.25 34.0843 140.175 34.3568C140.102 34.6243 140.115 34.8465 140.216 35.0235C140.322 35.2019 140.511 35.3285 140.784 35.4034ZM145.249 31.2623L146.244 31.5357L144.797 36.8045L143.802 36.5312L145.249 31.2623ZM147.074 37.5131C146.704 37.4114 146.45 37.2392 146.312 36.9967C146.174 36.7541 146.157 36.4451 146.26 36.0697L146.906 33.7169L146.235 33.5325L146.46 33.1961L147.023 33.3508L147.593 32.3625L148.295 32.5554L148.003 33.6199L149.052 33.9081L148.835 34.2466L147.901 33.9902L147.231 36.4279C147.11 36.8702 147.222 37.1387 147.566 37.2333C147.746 37.2828 147.942 37.2841 148.154 37.2372L148.048 37.6229C147.785 37.6556 147.46 37.619 147.074 37.5131ZM149.879 32.5342L150.882 32.8097L150.293 34.9542C150.474 34.7605 150.707 34.6339 150.995 34.5745C151.283 34.51 151.585 34.5209 151.898 34.6071C152.397 34.7441 152.755 34.9807 152.973 35.317C153.192 35.6481 153.24 36.0348 153.119 36.4771L152.451 38.9071L151.448 38.6316L152.135 36.1322C152.222 35.8133 152.215 35.5485 152.112 35.3379C152.01 35.1272 151.815 34.9823 151.527 34.9032C151.182 34.8085 150.872 34.8589 150.597 35.0544C150.324 35.2448 150.131 35.5457 150.018 35.9571L149.435 38.0785L148.432 37.803L149.879 32.5342ZM114.515 35.2976L111.645 34.5093L110.595 35.7058L109.808 35.4897L114.12 30.7839L114.815 30.9746L115.956 37.1785L114.784 36.8564L114.515 35.2976ZM114.427 34.8007L113.933 31.9188L111.982 34.1289L114.427 34.8007ZM118.039 37.8337C117.494 37.684 117.086 37.4669 116.816 37.1825C116.552 36.8943 116.429 36.5479 116.446 36.1433L117.21 36.3531C117.185 36.623 117.252 36.8542 117.409 37.0467C117.568 37.2341 117.82 37.3751 118.164 37.4698C118.483 37.5574 118.753 37.5623 118.973 37.4846C119.199 37.4083 119.341 37.2621 119.401 37.0461C119.492 36.7119 119.201 36.394 118.526 36.0924C117.901 35.8101 117.471 35.5427 117.236 35.2902C117.002 35.0376 116.925 34.7622 117.007 34.4639C117.097 34.1348 117.328 33.9189 117.699 33.8162C118.07 33.7135 118.554 33.7441 119.151 33.9079C119.727 34.0661 120.158 34.2896 120.443 34.5783C120.734 34.8683 120.855 35.203 120.806 35.5823L120.05 35.3746C120.067 35.1136 119.995 34.892 119.835 34.7098C119.676 34.5224 119.445 34.387 119.142 34.3036C118.849 34.2231 118.606 34.2091 118.415 34.2616C118.225 34.309 118.106 34.4201 118.058 34.5949C118.03 34.6978 118.031 34.7923 118.063 34.8784C118.101 34.9608 118.19 35.0515 118.328 35.1504C118.469 35.2443 118.683 35.3585 118.973 35.4933C119.567 35.7671 119.98 36.0439 120.213 36.3235C120.452 36.5995 120.527 36.902 120.437 37.2312C120.331 37.6169 120.07 37.8606 119.655 37.9623C119.246 38.0602 118.708 38.0174 118.039 37.8337ZM122.511 39.0621C121.966 38.9123 121.558 38.6953 121.288 38.4108C121.024 38.1227 120.901 37.7763 120.918 37.3717L121.682 37.5815C121.657 37.8514 121.724 38.0826 121.881 38.2751C122.04 38.4625 122.291 38.6035 122.636 38.6982C122.955 38.7858 123.225 38.7907 123.445 38.713C123.671 38.6367 123.813 38.4905 123.872 38.2745C123.964 37.9402 123.673 37.6223 122.998 37.3208C122.373 37.0385 121.943 36.7711 121.708 36.5186C121.473 36.266 121.397 35.9906 121.479 35.6923C121.569 35.3632 121.8 35.1472 122.171 35.0445C122.542 34.9418 123.026 34.9724 123.623 35.1363C124.199 35.2945 124.63 35.518 124.915 35.8066C125.206 36.0967 125.327 36.4314 125.278 36.8107L124.522 36.603C124.539 36.342 124.467 36.1204 124.307 35.9381C124.148 35.7507 123.917 35.6154 123.614 35.532C123.32 35.4515 123.078 35.4375 122.887 35.49C122.697 35.5374 122.578 35.6485 122.53 35.8233C122.501 35.9262 122.503 36.0207 122.535 36.1068C122.573 36.1892 122.661 36.2799 122.8 36.3788C122.94 36.4726 123.155 36.5869 123.444 36.7217C124.038 36.9955 124.452 37.2722 124.685 37.5519C124.924 37.8279 124.999 38.1304 124.908 38.4595C124.802 38.8453 124.542 39.089 124.127 39.1906C123.718 39.2886 123.18 39.2457 122.511 39.0621ZM127.613 40.0654C128.308 40.2561 128.802 40.0573 129.096 39.4689L129.86 39.6787C129.653 40.0698 129.331 40.327 128.893 40.4501C128.461 40.5747 127.967 40.5607 127.411 40.4081C126.964 40.2852 126.594 40.1007 126.302 39.8546C126.017 39.6048 125.825 39.3086 125.725 38.966C125.627 38.6183 125.632 38.2464 125.741 37.8504C125.851 37.4493 126.037 37.1243 126.299 36.8754C126.561 36.6266 126.879 36.4677 127.252 36.3986C127.631 36.3259 128.045 36.351 128.492 36.4739C129.176 36.6618 129.654 36.9756 129.926 37.4153C130.203 37.8564 130.256 38.3966 130.086 39.0357L126.746 38.1182L126.733 38.1644C126.599 38.653 126.603 39.0632 126.744 39.3952C126.892 39.7233 127.181 39.9467 127.613 40.0654ZM128.421 36.8526C128.077 36.758 127.772 36.7904 127.507 36.9499C127.248 37.1057 127.036 37.3738 126.871 37.7542L129.232 38.4027C129.29 37.9874 129.251 37.6475 129.113 37.3829C128.981 37.1198 128.75 36.9431 128.421 36.8526ZM132.073 41.6885C131.527 41.5388 131.12 41.3217 130.849 41.0373C130.586 40.7491 130.462 40.4028 130.479 39.9982L131.243 40.208C131.219 40.4778 131.285 40.709 131.443 40.9015C131.601 41.0889 131.853 41.23 132.197 41.3246C132.516 41.4122 132.786 41.4171 133.006 41.3394C133.232 41.2631 133.374 41.117 133.434 40.901C133.526 40.5667 133.234 40.2488 132.559 39.9472C131.934 39.665 131.504 39.3976 131.27 39.145C131.035 38.8925 130.958 38.617 131.04 38.3187C131.131 37.9896 131.361 37.7737 131.733 37.671C132.104 37.5683 132.588 37.5989 133.184 37.7627C133.76 37.921 134.191 38.1444 134.477 38.4331C134.768 38.7232 134.889 39.0578 134.84 39.4371L134.084 39.2294C134.1 38.9685 134.028 38.7468 133.868 38.5646C133.71 38.3772 133.478 38.2418 133.175 38.1585C132.882 38.0779 132.64 38.0639 132.448 38.1164C132.258 38.1638 132.139 38.2749 132.091 38.4498C132.063 38.5526 132.065 38.6471 132.096 38.7332C132.134 38.8156 132.223 38.9063 132.362 39.0053C132.502 39.0991 132.717 39.2134 133.006 39.3481C133.6 39.6219 134.013 39.8987 134.246 40.1784C134.486 40.4543 134.56 40.7569 134.47 41.086C134.364 41.4717 134.103 41.7154 133.688 41.8171C133.28 41.915 132.741 41.8722 132.073 41.6885ZM136.544 42.9169C135.999 42.7672 135.592 42.5501 135.321 42.2657C135.058 41.9775 134.934 41.6311 134.951 41.2265L135.715 41.4363C135.691 41.7062 135.757 41.9374 135.914 42.1299C136.073 42.3173 136.325 42.4583 136.669 42.553C136.988 42.6406 137.258 42.6455 137.478 42.5678C137.704 42.4915 137.846 42.3454 137.906 42.1294C137.998 41.7951 137.706 41.4772 137.031 41.1756C136.406 40.8934 135.976 40.6259 135.742 40.3734C135.507 40.1208 135.43 39.8454 135.512 39.5471C135.603 39.218 135.833 39.0021 136.204 38.8994C136.576 38.7967 137.059 38.8273 137.656 38.9911C138.232 39.1494 138.663 39.3728 138.949 39.6615C139.24 39.9515 139.361 40.2862 139.312 40.6655L138.556 40.4578C138.572 40.1968 138.5 39.9752 138.34 39.793C138.181 39.6056 137.95 39.4702 137.647 39.3868C137.354 39.3063 137.111 39.2923 136.92 39.3448C136.73 39.3922 136.611 39.5033 136.563 39.6781C136.535 39.781 136.536 39.8755 136.568 39.9616C136.606 40.044 136.695 40.1347 136.834 40.2336C136.974 40.3275 137.188 40.4417 137.478 40.5765C138.072 40.8503 138.485 41.1271 138.718 41.4067C138.958 41.6827 139.032 41.9852 138.942 42.3144C138.836 42.7001 138.575 42.9438 138.16 43.0455C137.752 43.1434 137.213 43.1006 136.544 42.9169ZM140.317 39.805L141.304 40.0763L141.143 40.6626C141.291 40.4874 141.494 40.3718 141.753 40.3157C142.013 40.2544 142.287 40.2633 142.575 40.3424C142.951 40.4455 143.236 40.6042 143.432 40.8183C143.634 41.0287 143.75 41.2817 143.779 41.5774C143.973 41.3153 144.201 41.1485 144.464 41.077C144.732 41.0068 145.018 41.0134 145.322 41.0968C145.846 41.2409 146.206 41.4698 146.402 41.7836C146.603 42.0987 146.64 42.4878 146.513 42.9506L145.843 45.3883L144.841 45.1128L145.529 42.6057C145.615 42.292 145.61 42.0305 145.513 41.8212C145.415 41.612 145.238 41.472 144.981 41.4014C144.672 41.3166 144.392 41.3891 144.141 41.6188C143.897 41.8447 143.705 42.2097 143.567 42.7137L143.043 44.6191L142.071 44.3521L142.669 42.1767C142.785 41.755 142.799 41.4105 142.712 41.1432C142.625 40.876 142.443 40.7042 142.165 40.6279C141.872 40.5474 141.611 40.6028 141.381 40.7942C141.153 40.9804 140.98 41.287 140.863 41.7138L140.274 43.8584L139.279 43.585L140.317 39.805ZM148.778 45.8791C149.472 46.0698 149.966 45.871 150.261 45.2826L151.025 45.4924C150.818 45.8835 150.495 46.1407 150.058 46.2638C149.625 46.3884 149.131 46.3744 148.576 46.2218C148.128 46.0989 147.759 45.9144 147.467 45.6683C147.182 45.4185 146.989 45.1223 146.89 44.7797C146.792 44.432 146.797 44.0601 146.906 43.6641C147.016 43.2629 147.202 42.938 147.464 42.6891C147.726 42.4403 148.043 42.2814 148.416 42.2123C148.796 42.1396 149.209 42.1647 149.657 42.2876C150.341 42.4755 150.819 42.7893 151.09 43.229C151.367 43.6701 151.421 44.2103 151.251 44.8494L147.911 43.9319L147.898 43.9781C147.764 44.4667 147.767 44.8769 147.908 45.2088C148.056 45.537 148.346 45.7604 148.778 45.8791ZM149.586 42.6663C149.241 42.5717 148.936 42.6041 148.671 42.7636C148.413 42.9194 148.201 43.1875 148.036 43.5679L150.396 44.2163C150.455 43.8011 150.415 43.4612 150.278 43.1966C150.146 42.9335 149.915 42.7567 149.586 42.6663ZM152.387 43.1206L153.382 43.3939L153.206 44.0342C153.385 43.8456 153.616 43.7209 153.898 43.6601C154.185 43.6008 154.486 43.6142 154.8 43.7003C155.304 43.8388 155.664 44.0761 155.882 44.4124C156.099 44.7486 156.146 45.143 156.021 45.5956L155.36 48.0025L154.365 47.7291L155.047 45.2451C155.136 44.9211 155.127 44.6531 155.019 44.441C154.913 44.2237 154.713 44.0749 154.42 43.9943C154.076 43.8997 153.77 43.9457 153.503 44.1323C153.236 44.3189 153.046 44.6179 152.933 45.0294L152.344 47.1739L151.349 46.9006L152.387 43.1206ZM157.375 48.6389C157.005 48.5372 156.751 48.3651 156.613 48.1225C156.475 47.8799 156.457 47.571 156.56 47.1955L157.207 44.8427L156.535 44.6583L156.761 44.3219L157.324 44.4766L157.894 43.4884L158.596 43.6812L158.303 44.7458L159.353 45.0339L159.135 45.3724L158.202 45.116L157.532 47.5537C157.411 47.996 157.522 48.2645 157.867 48.3591C158.047 48.4086 158.243 48.4099 158.455 48.363L158.349 48.7487C158.085 48.7815 157.761 48.7449 157.375 48.6389Z" fill="#456C51"/>
<path d="M100.364 25.6011C100.776 25.2709 101.088 24.8328 101.266 24.3357C101.444 23.8385 101.481 23.3018 101.372 22.7851C101.263 22.2684 101.013 21.7919 100.65 21.4088C100.287 21.0256 99.8242 20.7507 99.314 20.6146L97.8201 20.2143C98.3755 19.9089 98.8633 19.4943 99.2543 18.9955C99.6452 18.4966 99.9311 17.9238 100.095 17.3116C100.14 17.1423 100.116 16.962 100.029 16.8103C99.9413 16.6586 99.797 16.5479 99.6278 16.5025C99.4585 16.4572 99.2782 16.4809 99.1265 16.5685C98.9748 16.6561 98.8641 16.8004 98.8187 16.9696C98.5848 17.8381 98.016 18.5783 97.2371 19.028C96.4582 19.4777 95.5328 19.6002 94.6637 19.3685L92.8076 18.8712C92.6383 18.8258 92.458 18.8496 92.3063 18.9372C92.1546 19.0248 92.0438 19.1691 91.9985 19.3383C91.9532 19.5075 91.9769 19.6878 92.0645 19.8396C92.1521 19.9913 92.2964 20.102 92.4656 20.1474L98.9741 21.8913C99.1729 21.9399 99.36 22.0278 99.5244 22.1497C99.6888 22.2716 99.8272 22.4252 99.9315 22.6013C100.036 22.7774 100.104 22.9726 100.132 23.1753C100.159 23.3781 100.146 23.5844 100.093 23.7821C100.041 23.9798 99.9486 24.1649 99.8231 24.3266C99.6976 24.4883 99.5411 24.6233 99.3628 24.7237C99.1844 24.8241 98.9878 24.8878 98.7845 24.9112C98.5812 24.9346 98.3752 24.9171 98.1787 24.8599L91.6702 23.1159C91.501 23.0706 91.3206 23.0943 91.1689 23.1819C91.0172 23.2695 90.9065 23.4138 90.8611 23.583C90.8158 23.7522 90.8395 23.9326 90.9271 24.0843C91.0147 24.236 91.159 24.3467 91.3282 24.3921L99.1782 26.4955C99.377 26.5441 99.5641 26.632 99.7285 26.7539C99.8929 26.8758 100.031 27.0293 100.136 27.2054C100.24 27.3815 100.308 27.5767 100.336 27.7795C100.363 27.9823 100.351 28.1885 100.298 28.3862C100.245 28.5839 100.153 28.769 100.027 28.9307C99.9017 29.0924 99.7452 29.2274 99.5668 29.3278C99.3885 29.4282 99.1919 29.492 98.9885 29.5154C98.7852 29.5387 98.5793 29.5213 98.3828 29.464L95.2207 28.6167C94.5467 28.4369 93.829 28.5318 93.2248 28.8805C92.6207 29.2291 92.1795 29.8032 91.9981 30.4767C91.9527 30.6459 91.9765 30.8262 92.0641 30.978C92.1517 31.1297 92.296 31.2404 92.4652 31.2858C92.6344 31.3311 92.8147 31.3074 92.9665 31.2198C93.1182 31.1322 93.2289 30.9879 93.2743 30.8186C93.3645 30.4833 93.5842 30.1974 93.885 30.0239C94.1858 29.8503 94.5432 29.8032 94.8787 29.8929L98.0408 30.7402C98.6954 30.9158 99.3911 30.8531 100.004 30.5631C100.616 30.2732 101.106 29.7749 101.385 29.1574C101.664 28.5398 101.715 27.8431 101.528 27.1917C101.341 26.5402 100.928 25.9765 100.364 25.6011Z" fill="#FFFCF5"/>
<path d="M95.2652 27.721L96.9391 28.1695C97.1084 28.2149 97.2887 28.1911 97.4404 28.1035C97.5922 28.0159 97.7029 27.8717 97.7482 27.7024C97.7936 27.5332 97.7698 27.3529 97.6822 27.2011C97.5946 27.0494 97.4503 26.9387 97.2811 26.8934L89.4822 24.8036C89.2834 24.755 89.0963 24.6672 88.9319 24.5452C88.7675 24.4233 88.6291 24.2698 88.5249 24.0937C88.4206 23.9176 88.3526 23.7224 88.3247 23.5196C88.2969 23.3169 88.3099 23.1106 88.3629 22.9129C88.4158 22.7152 88.5077 22.5301 88.6332 22.3684C88.7587 22.2067 88.9152 22.0717 89.0936 21.9713C89.2719 21.8709 89.4685 21.8071 89.6719 21.7838C89.8752 21.7604 90.0811 21.7778 90.2776 21.8351L98.0765 23.9248C98.2457 23.9702 98.4261 23.9464 98.5778 23.8588C98.7295 23.7712 98.8402 23.6269 98.8856 23.4577C98.9309 23.2885 98.9072 23.1081 98.8196 22.9564C98.732 22.8047 98.5877 22.694 98.4185 22.6486L91.9589 20.9178C91.5731 20.8053 91.2467 20.5463 91.0496 20.1961C90.8525 19.846 90.8004 19.4325 90.9044 19.0444C91.0084 18.6563 91.2602 18.3243 91.606 18.1196C91.9518 17.9149 92.364 17.8537 92.7543 17.9492L94.3573 18.3788C95.0019 18.5507 95.6883 18.4599 96.266 18.1264C96.8437 17.7928 97.2655 17.2437 97.439 16.5996C97.4843 16.4303 97.4606 16.25 97.373 16.0983C97.2854 15.9466 97.1411 15.8359 96.9718 15.7905C96.8026 15.7452 96.6223 15.7689 96.4706 15.8565C96.3188 15.9441 96.2081 16.0884 96.1628 16.2576C96.0806 16.5636 95.8803 16.8245 95.6059 16.9829C95.3314 17.1414 95.0054 17.1844 94.6993 17.1026L93.0962 16.6731C92.5862 16.5363 92.0483 16.5436 91.5422 16.694C91.0361 16.8445 90.5816 17.1323 90.2292 17.5254C89.8767 17.9186 89.6401 18.4017 89.5457 18.9212C89.4512 19.4407 89.5025 19.9762 89.694 20.4682C89.0181 20.5122 88.3799 20.7948 87.893 21.2657C87.4062 21.7365 87.1024 22.365 87.0359 23.039C86.9694 23.7131 87.1444 24.3888 87.5299 24.9457C87.9153 25.5027 88.486 25.9046 89.1403 26.0798L92.0351 26.8555C91.4564 27.1666 90.9475 27.5929 90.5398 28.108C90.132 28.6232 89.834 29.2163 89.664 29.8509C89.6187 30.0202 89.6424 30.2005 89.73 30.3522C89.8176 30.5039 89.9619 30.6147 90.1311 30.66C90.3004 30.7054 90.4807 30.6816 90.6324 30.594C90.7841 30.5064 90.8948 30.3621 90.9402 30.1929C91.182 29.2951 91.7699 28.5298 92.5751 28.065C93.3803 27.6001 94.3371 27.4735 95.2354 27.713L95.2652 27.721Z" fill="#FFFCF5"/>
</svg>
