<svg width="30" height="30" viewBox="0 0 30 30" fill="none" xmlns="http://www.w3.org/2000/svg">
<path d="M14.8843 15.7438C13.0099 14.9405 10.9793 15.8554 10.1983 16.4132L10.8678 23.1075H19.9049L20.9091 15.0744C19.5702 16.0785 17.2273 16.7479 14.8843 15.7438Z" fill="url(#paint0_linear_494_3245)" fill-opacity="0.3"/>
<path d="M14.2149 16.4132C12.0727 17.4843 10.4215 16.4132 9.86362 15.7438L10.8678 23.1074H19.9049L20.5744 16.7479C19.5702 16.0785 16.8925 15.0744 14.2149 16.4132Z" fill="url(#paint1_linear_494_3245)" fill-opacity="0.3"/>
<path d="M21.4614 14.0127C20.9362 14.0137 20.4302 13.8153 20.0456 13.4576C19.5642 13.0023 19.2604 12.3341 19.1285 11.4203H7.73695C7.5415 11.4203 7.35407 11.3427 7.21586 11.2045C7.07766 11.0663 7 10.8788 7 10.6834C7 10.4879 7.07766 10.3005 7.21586 10.1623C7.35407 10.0241 7.5415 9.94641 7.73695 9.94641H8.71954L9.7472 6.52534C9.79801 6.35583 9.90813 6.21026 10.0574 6.11524C10.2067 6.02022 10.3852 5.9821 10.5603 6.00784L20.0587 7.4064C20.251 7.43479 20.4242 7.53796 20.5408 7.69346C20.6573 7.84896 20.7077 8.04421 20.681 8.23669C20.5989 8.80399 20.547 9.37525 20.5255 9.94805C21.5359 9.96279 22.1754 10.066 22.828 10.7464C23.1342 11.069 23.3219 11.4859 23.3604 11.929C23.3989 12.3721 23.286 12.8151 23.0401 13.1857C22.889 13.4124 22.6895 13.6028 22.456 13.7433C22.2226 13.8837 21.9609 13.9707 21.6898 13.998C21.614 14.0071 21.5378 14.012 21.4614 14.0127ZM20.6196 11.4236C20.7211 11.9378 20.889 12.2269 21.0585 12.3873C21.1218 12.4424 21.1958 12.484 21.2758 12.5095C21.3557 12.535 21.4401 12.5439 21.5236 12.5356C21.5814 12.5317 21.6376 12.5145 21.6876 12.4852C21.7376 12.456 21.7802 12.4154 21.8118 12.3669C21.8717 12.2761 21.8998 12.168 21.8917 12.0595C21.8835 11.951 21.8396 11.8483 21.7668 11.7675C21.5163 11.5038 21.3467 11.4383 20.6196 11.4236ZM10.2622 9.94969H19.0565C19.0663 9.58121 19.0936 9.18572 19.1384 8.7632L10.9804 7.56198L10.2622 9.94969Z" fill="#A7998F"/>
<path d="M19.6567 24H10.6847C10.5053 24 10.332 23.9345 10.1974 23.8159C10.0628 23.6973 9.97605 23.5336 9.95352 23.3555L8.68762 13.4313C8.66304 13.2375 8.71642 13.0419 8.83603 12.8874C8.95564 12.7329 9.13165 12.6323 9.32545 12.6076C9.42148 12.5953 9.51902 12.6021 9.61244 12.6275C9.70586 12.6529 9.79335 12.6964 9.86992 12.7557C9.9465 12.8149 10.0106 12.8887 10.0587 12.9727C10.1067 13.0567 10.1378 13.1494 10.15 13.2455L11.3308 22.5261H19.0032L19.9244 15.0821C19.9484 14.8887 20.048 14.7126 20.2014 14.5924C20.3549 14.4723 20.5497 14.4178 20.7433 14.4409C20.9367 14.4649 21.1127 14.5645 21.2329 14.718C21.353 14.8714 21.4075 15.0662 21.3844 15.2598L20.3829 23.3498C20.3618 23.528 20.2764 23.6924 20.1426 23.8121C20.0089 23.9318 19.8361 23.9986 19.6567 24Z" fill="#A7998F"/>
<defs>
<linearGradient id="paint0_linear_494_3245" x1="12.5574" y1="22.6306" x2="16.9564" y2="15.6121" gradientUnits="userSpaceOnUse">
<stop stop-color="#A7998F"/>
<stop offset="1" stop-color="#A7998F"/>
</linearGradient>
<linearGradient id="paint1_linear_494_3245" x1="12.2227" y1="22.6703" x2="16.0934" y2="15.9332" gradientUnits="userSpaceOnUse">
<stop stop-color="#A7998F"/>
<stop offset="1" stop-color="#A7998F"/>
</linearGradient>
</defs>
</svg>
