<svg width="30" height="30" viewBox="0 0 30 30" fill="none" xmlns="http://www.w3.org/2000/svg">
<g id="ico_medication_sel">
<g id="Group 909">
<path id="Vector" d="M22.6689 15.086L6.91583 15.2862L15.6824 6.5196C16.7143 5.48907 18.113 4.91025 19.5714 4.91025C21.0297 4.91025 22.4285 5.48907 23.4604 6.5196C24.4909 7.55149 25.0697 8.95022 25.0697 10.4086C25.0697 11.8669 24.4909 13.2656 23.4604 14.2975L22.6689 15.086Z" fill="#C1E1CE"/>
<path id="Vector_2" d="M4.90057 7.98154H6.18139V9.26236C6.18139 9.5012 6.27627 9.73026 6.44516 9.89915C6.61405 10.068 6.84311 10.1629 7.08196 10.1629C7.32081 10.1629 7.54987 10.068 7.71876 9.89915C7.88765 9.73026 7.98253 9.5012 7.98253 9.26236V7.98154H9.26235C9.50119 7.98154 9.73026 7.88666 9.89915 7.71777C10.068 7.54888 10.1629 7.31981 10.1629 7.08096C10.1629 6.84212 10.068 6.61305 9.89915 6.44416C9.73026 6.27527 9.50119 6.18039 9.26235 6.18039H7.98253V4.90057C7.98253 4.66173 7.88765 4.43267 7.71876 4.26378C7.54987 4.09489 7.32081 4 7.08196 4C6.84311 4 6.61405 4.09489 6.44516 4.26378C6.27627 4.43267 6.18139 4.66173 6.18139 4.90057V6.18039H4.90057C4.66173 6.18039 4.43266 6.27527 4.26377 6.44416C4.09488 6.61305 4 6.84212 4 7.08096C4 7.31981 4.09488 7.54888 4.26377 7.71777C4.43266 7.88666 4.66173 7.98154 4.90057 7.98154Z" fill="#65AF7C"/>
<path id="Vector_3" d="M25.0915 22.0185H23.8107V20.7386C23.8107 20.4998 23.7158 20.2707 23.5469 20.1019C23.378 19.933 23.1489 19.8381 22.9101 19.8381C22.6712 19.8381 22.4422 19.933 22.2733 20.1019C22.1044 20.2707 22.0095 20.4998 22.0095 20.7386V22.0185H20.7297C20.4909 22.0185 20.2618 22.1133 20.0929 22.2822C19.924 22.4511 19.8291 22.6802 19.8291 22.919C19.8291 23.1579 19.924 23.3869 20.0929 23.5558C20.2618 23.7247 20.4909 23.8196 20.7297 23.8196H22.0095V25.0994C22.0095 25.3383 22.1044 25.5673 22.2733 25.7362C22.4422 25.9051 22.6712 26 22.9101 26C23.1489 26 23.378 25.9051 23.5469 25.7362C23.7158 25.5673 23.8107 25.3383 23.8107 25.0994V23.8196H25.0915C25.3303 23.8196 25.5594 23.7247 25.7283 23.5558C25.8972 23.3869 25.9921 23.1579 25.9921 22.919C25.9921 22.6802 25.8972 22.4511 25.7283 22.2822C25.5594 22.1133 25.3303 22.0185 25.0915 22.0185Z" fill="#65AF7C"/>
<path id="Vector_4" d="M24.0968 14.9309C25.2354 13.718 25.8573 12.1096 25.8309 10.4462C25.8045 8.78276 25.1318 7.1949 23.9553 6.01873C22.7787 4.84256 21.1906 4.1704 19.5272 4.14454C17.8638 4.11869 16.2556 4.74116 15.043 5.88019L5.87718 15.046C4.74486 16.2598 4.12806 17.8658 4.15682 19.5255C4.18557 21.1852 4.85763 22.7689 6.03132 23.9427C7.205 25.1165 8.78861 25.7887 10.4483 25.8177C12.108 25.8466 13.714 25.23 14.9279 24.0978L24.0938 14.932L24.0968 14.9309ZM13.6581 22.823C12.7843 23.6284 11.6329 24.0647 10.4448 24.0405C9.25669 24.0163 8.12397 23.5336 7.28367 22.6933C6.44337 21.853 5.96062 20.7203 5.93645 19.5322C5.91228 18.344 6.34856 17.1926 7.15399 16.3188C7.29002 16.1819 7.45188 16.0734 7.63017 15.9996C7.80847 15.9257 7.99966 15.888 8.19265 15.8886H20.5925L13.6581 22.823ZM21.7853 14.0874H9.38441L16.3188 7.153C16.7392 6.69696 17.2474 6.33058 17.8129 6.07586C18.3784 5.82114 18.9895 5.68334 19.6096 5.67072C20.2297 5.65811 20.846 5.77094 21.4214 6.00245C21.9968 6.23396 22.5195 6.57938 22.958 7.01794C23.3966 7.45651 23.742 7.97918 23.9735 8.55458C24.205 9.12997 24.3179 9.74623 24.3052 10.3663C24.2926 10.9864 24.1548 11.5976 23.9001 12.1631C23.6454 12.7286 23.279 13.2368 22.823 13.6571C22.6869 13.7936 22.5251 13.9016 22.347 13.9752C22.1689 14.0487 21.978 14.0861 21.7853 14.0854V14.0874Z" fill="#65AF7C"/>
</g>
</g>
</svg>
