<svg width="30" height="30" viewBox="0 0 30 30" fill="none" xmlns="http://www.w3.org/2000/svg">
<g id="ico_dietary_sel">
<g id="Group 910">
<rect id="Rectangle 742" x="6" y="15" width="18" height="10" fill="#C1E1CE"/>
<g id="Group 833">
<path id="Vector" d="M4.8989 13.3132C4.70085 13.3129 4.50841 13.2473 4.35137 13.1266C4.19432 13.006 4.08143 12.8369 4.03016 12.6456C3.969 12.4152 4.00165 12.17 4.12096 11.9636C4.24028 11.7572 4.43652 11.6066 4.6667 11.5446L11.973 9.58797C12.2711 9.50885 12.5594 9.39673 12.8327 9.25368C12.1244 8.71198 11.6115 7.9546 11.3714 7.09583C11.2042 6.46806 11.2909 5.79967 11.6129 5.23542C11.935 4.67118 12.4663 4.25651 13.0919 4.08125H13.1049H13.1129C13.7444 3.91522 14.4158 4.00581 14.9807 4.33323C15.5455 4.66066 15.9578 5.19831 16.1275 5.82874C16.3505 6.69368 16.2833 7.6079 15.9364 8.43097C16.2371 8.4179 16.5355 8.37157 16.8261 8.29285L24.1424 6.33218C24.3728 6.27102 24.618 6.30367 24.8244 6.42299C25.0307 6.5423 25.1814 6.73854 25.2433 6.96872C25.3045 7.19911 25.2718 7.44435 25.1525 7.65071C25.0332 7.85707 24.837 8.00772 24.6068 8.06966L17.2905 10.0293C16.4525 10.2662 15.5702 10.3005 14.7163 10.1294C14.0591 10.7018 13.2774 11.1131 12.4334 11.3305L5.1271 13.2881C5.05233 13.3057 4.9757 13.3141 4.8989 13.3132ZM13.5753 5.80673C13.4057 5.8538 13.2616 5.96584 13.174 6.11855C13.0865 6.27126 13.0628 6.45231 13.1079 6.62243C13.2706 7.1933 13.645 7.68054 14.1548 7.98459C14.4462 7.46775 14.5293 6.85915 14.387 6.28313C14.3407 6.11386 14.2291 5.96988 14.0768 5.88279C13.9255 5.79395 13.7453 5.76842 13.5753 5.81173V5.80673Z" fill="#65AF7C"/>
<path id="Vector_2" d="M21.6623 26H8.3619C7.32643 25.9987 6.33364 25.5872 5.6008 24.8557C4.86795 24.1242 4.45473 23.1321 4.45155 22.0966V14.6423C4.45155 14.4034 4.54645 14.1742 4.71538 14.0053C4.88431 13.8364 5.11343 13.7415 5.35233 13.7415H24.6689C24.9078 13.7415 25.1369 13.8364 25.3058 14.0053C25.4747 14.1742 25.5696 14.4034 25.5696 14.6423V22.0966C25.5665 23.1316 25.1537 24.1232 24.4215 24.8546C23.6893 25.5861 22.6972 25.9979 21.6623 26ZM6.24909 15.535V22.0966C6.25174 22.6552 6.47554 23.1899 6.87151 23.5838C7.26748 23.9777 7.80337 24.1987 8.3619 24.1984H21.6623C22.2202 24.1977 22.7552 23.9762 23.1505 23.5824C23.5457 23.1887 23.7692 22.6546 23.7721 22.0966V15.543L6.24909 15.535Z" fill="#65AF7C"/>
</g>
</g>
</g>
</svg>
