<svg width="30" height="30" viewBox="0 0 30 30" fill="none" xmlns="http://www.w3.org/2000/svg">
<g id="ico_customworkout_sel">
<g id="Group 989">
<path id="Vector" d="M13.1819 10.3741C14.3745 10.3741 15.3412 9.97104 15.3412 9.47389C15.3412 8.97675 14.3745 8.57373 13.1819 8.57373C11.9893 8.57373 11.0225 8.97675 11.0225 9.47389C11.0225 9.97104 11.9893 10.3741 13.1819 10.3741Z" fill="#65AF7C"/>
<path id="Vector_2" d="M25.0978 12.1463H13.1817C8.67484 12.1463 5.79933 10.563 5.79933 9.47381C5.79933 8.92671 6.52045 8.27359 7.68166 7.7735C9.13593 7.14639 11.0893 6.80033 13.1827 6.80033C17.6895 6.80033 20.566 8.38361 20.566 9.47281V9.80488C20.566 10.0436 20.6608 10.2726 20.8297 10.4414C20.9985 10.6102 21.2274 10.705 21.4662 10.705C21.7049 10.705 21.9339 10.6102 22.1027 10.4414C22.2715 10.2726 22.3663 10.0436 22.3663 9.80488V9.47281C22.3663 6.57228 17.6345 5 13.1827 5C8.73085 5 4 6.56828 4 9.47281C4 12.3773 8.73085 13.9456 13.1827 13.9456H24.1987V22.2911H21.3331V20.5908C21.3331 20.3521 21.2383 20.1231 21.0695 19.9543C20.9007 19.7855 20.6717 19.6907 20.433 19.6907C20.1942 19.6907 19.9653 19.7855 19.7965 19.9543C19.6277 20.1231 19.5328 20.3521 19.5328 20.5908V22.2911H17.4444L17.5225 19.0836C17.5254 18.9653 17.505 18.8477 17.4624 18.7374C17.4199 18.627 17.356 18.5262 17.2744 18.4405C17.1929 18.3549 17.0953 18.2862 16.9871 18.2383C16.879 18.1904 16.7625 18.1643 16.6443 18.1614C16.5261 18.1585 16.4084 18.1789 16.2981 18.2214C16.1878 18.264 16.0869 18.3279 16.0013 18.4094C15.9156 18.491 15.8469 18.5886 15.799 18.6967C15.7511 18.8048 15.725 18.9213 15.7221 19.0396L15.6441 22.2911H13.7118V20.5908C13.7118 20.3521 13.6169 20.1231 13.4481 19.9543C13.2793 19.7855 13.0503 19.6907 12.8116 19.6907C12.5729 19.6907 12.3439 19.7855 12.1751 19.9543C12.0063 20.1231 11.9114 20.3521 11.9114 20.5908V22.2501C11.2366 22.2051 10.5655 22.1166 9.90208 21.9851V19.0646C9.90208 18.8258 9.80723 18.5969 9.63842 18.4281C9.4696 18.2592 9.24065 18.1644 9.00191 18.1644C8.76317 18.1644 8.53421 18.2592 8.36539 18.4281C8.19658 18.5969 8.10175 18.8258 8.10175 19.0646V21.484C6.63248 20.9349 5.80133 20.2078 5.80133 19.6217V14.4597C5.80133 14.221 5.70648 13.992 5.53767 13.8232C5.36886 13.6544 5.1399 13.5596 4.90116 13.5596C4.66243 13.5596 4.43346 13.6544 4.26465 13.8232C4.09583 13.992 4.001 14.221 4.001 14.4597V19.6217C4.001 21.522 6.01736 22.8443 8.65584 23.5374C8.73762 23.5711 8.82388 23.5926 8.91189 23.6014C10.158 23.8975 11.432 24.0608 12.7126 24.0885C12.7456 24.0885 12.7796 24.0945 12.8126 24.0945C12.8456 24.0945 12.8506 24.0945 12.8696 24.0945H13.1837H25.0998C25.3386 24.0945 25.5675 23.9996 25.7364 23.8308C25.9052 23.662 26 23.4331 26 23.1943V13.0465C26 12.9281 25.9766 12.8109 25.9313 12.7015C25.8859 12.5922 25.8194 12.4929 25.7356 12.4092C25.6518 12.3256 25.5524 12.2594 25.4429 12.2143C25.3335 12.1691 25.2162 12.146 25.0978 12.1463Z" fill="#65AF7C"/>
</g>
</g>
</svg>
