<svg width="30" height="30" viewBox="0 0 30 30" fill="none" xmlns="http://www.w3.org/2000/svg">
<g id="ico_bottom_home_nor">
<path id="Vector" d="M7.37127 25.0623V15.1794H4.8993C4.71867 15.1794 4.54222 15.125 4.39294 15.0233C4.24366 14.9216 4.12847 14.7773 4.06237 14.6092C3.99627 14.4411 3.98233 14.257 4.02236 14.0808C4.06239 13.9047 4.15454 13.7447 4.28681 13.6217L14.3865 4.24037C14.5528 4.08586 14.7715 4 14.9985 4C15.2255 4 15.4442 4.08586 15.6105 4.24037L25.7132 13.6217C25.8454 13.7446 25.9375 13.9045 25.9776 14.0806C26.0176 14.2566 26.0038 14.4407 25.9378 14.6087C25.8718 14.7768 25.7568 14.9211 25.6077 15.0229C25.4586 15.1247 25.2822 15.1792 25.1017 15.1794H22.6327V25.0623C22.6327 25.3008 22.538 25.5295 22.3693 25.6981C22.2007 25.8668 21.972 25.9615 21.7335 25.9615C21.495 25.9615 21.2662 25.8668 21.0976 25.6981C20.9289 25.5295 20.8342 25.3008 20.8342 25.0623V14.2801C20.8342 14.0416 20.9289 13.8129 21.0976 13.6442C21.2662 13.4756 21.495 13.3809 21.7335 13.3809H22.8156L15.002 6.12582L7.19242 13.3809H8.27053C8.50903 13.3809 8.73776 13.4756 8.9064 13.6442C9.07505 13.8129 9.16979 14.0416 9.16979 14.2801V24.163H11.5328C12.4321 24.163 13.1825 23.7773 13.772 23.2997C13.7201 23.2298 13.6721 23.1578 13.6171 23.0849C12.594 21.6251 11.9325 19.7336 11.9325 18.2658C11.9343 17.4571 12.2548 16.6816 12.8246 16.1076C13.3943 15.5336 14.1673 15.2072 14.976 15.1994H15.017C15.8262 15.2073 16.5997 15.534 17.1695 16.1087C17.7393 16.6833 18.0595 17.4596 18.0605 18.2688C18.0605 19.7356 17.403 21.6261 16.3859 23.0859C16.3349 23.1588 16.2859 23.2308 16.232 23.3007C17.1392 24.0291 17.9885 24.166 18.4971 24.166C18.7356 24.166 18.9644 24.2607 19.133 24.4294C19.3016 24.598 19.3964 24.8268 19.3964 25.0653C19.3964 25.3038 19.3016 25.5325 19.133 25.7011C18.9644 25.8698 18.7356 25.9645 18.4971 25.9645C17.2482 25.9645 16.0511 25.4969 15.005 24.6206C13.9649 25.4969 12.7748 25.9645 11.5328 25.9645H8.27053C8.15219 25.9645 8.035 25.9412 7.9257 25.8958C7.81641 25.8504 7.71714 25.7839 7.6336 25.7001C7.55005 25.6162 7.48388 25.5168 7.43886 25.4073C7.39384 25.2979 7.37088 25.1806 7.37127 25.0623ZM13.731 18.2678C13.731 19.1581 14.1237 20.6169 15 21.9248C15.8703 20.6169 16.262 19.1581 16.262 18.2678C16.2667 18.0987 16.2375 17.9303 16.176 17.7726C16.1146 17.6149 16.0221 17.4711 15.9042 17.3498C15.7862 17.2284 15.6451 17.132 15.4892 17.0661C15.3333 17.0003 15.1657 16.9663 14.9965 16.9663C14.8273 16.9663 14.6597 17.0003 14.5038 17.0661C14.3479 17.132 14.2068 17.2284 14.0888 17.3498C13.9709 17.4711 13.8784 17.6149 13.817 17.7726C13.7555 17.9303 13.7263 18.0987 13.731 18.2678Z" fill="#B5C2B3"/>
</g>
</svg>
