<svg width="30" height="30" viewBox="0 0 30 30" fill="none" xmlns="http://www.w3.org/2000/svg">
<g id="ico_bottom_home_sel">
<g id="Group 692">
<path id="Vector" d="M18.4679 25.9549C17.2272 25.9549 16.0375 25.4874 14.9967 24.6114C13.9508 25.4845 12.7541 25.9549 11.5025 25.9549C11.2641 25.9549 11.0354 25.8602 10.8668 25.6916C10.6982 25.523 10.6035 25.2944 10.6035 25.0559C10.6035 24.8175 10.6982 24.5888 10.8668 24.4202C11.0354 24.2516 11.2641 24.1569 11.5025 24.1569C12.4105 24.1569 13.1717 23.7703 13.766 23.2899C13.7141 23.2209 13.6661 23.15 13.6132 23.0781C12.6013 21.6147 11.942 19.7248 11.942 18.2634C11.9431 17.4541 12.2632 16.6778 12.8331 16.1031C13.4029 15.5284 14.1764 15.2017 14.9857 15.1938H15.0256C15.8349 15.2017 16.6084 15.5284 17.1783 16.1031C17.7481 16.6778 18.0683 17.4541 18.0693 18.2634C18.0693 19.7298 17.408 21.6207 16.3841 23.0811C16.3332 23.154 16.2843 23.2249 16.2293 23.2949C16.8187 23.7733 17.5718 24.1579 18.4679 24.1579C18.7063 24.1579 18.935 24.2526 19.1035 24.4212C19.2721 24.5898 19.3669 24.8185 19.3669 25.0569C19.3669 25.2954 19.2721 25.524 19.1035 25.6926C18.935 25.8612 18.7063 25.9559 18.4679 25.9559V25.9549ZM15.0057 16.9908C14.6694 16.9927 14.3475 17.1275 14.1103 17.366C13.8732 17.6045 13.7401 17.9271 13.7401 18.2634C13.7401 19.1524 14.1316 20.6108 15.0017 21.9184C15.8777 20.6118 16.2713 19.1524 16.2713 18.2634C16.2721 17.9266 16.1393 17.6032 15.9021 17.3641C15.6648 17.125 15.3425 16.9897 15.0057 16.9878V16.9908Z" fill="#456C51"/>
<path id="Vector_2" d="M21.7296 25.9549C21.4912 25.9549 21.2625 25.8602 21.0939 25.6916C20.9253 25.523 20.8306 25.2943 20.8306 25.0559V14.2778C20.8306 14.0394 20.9253 13.8107 21.0939 13.6421C21.2625 13.4735 21.4912 13.3788 21.7296 13.3788H22.8114L14.999 6.12177L7.18761 13.3758H8.27041C8.50885 13.3758 8.73751 13.4705 8.90611 13.6391C9.07471 13.8077 9.16942 14.0364 9.16942 14.2748V25.0559C9.16942 25.2943 9.07471 25.523 8.90611 25.6916C8.73751 25.8602 8.50885 25.9549 8.27041 25.9549C8.03198 25.9549 7.80331 25.8602 7.63472 25.6916C7.46612 25.523 7.3714 25.2943 7.3714 25.0559V15.1768H4.89913C4.71841 15.1768 4.54189 15.1224 4.39258 15.0206C4.24326 14.9188 4.1281 14.7743 4.0621 14.6061C3.9961 14.4379 3.98233 14.2537 4.0226 14.0775C4.06286 13.9013 4.15528 13.7414 4.2878 13.6185L14.3887 4.23985C14.5549 4.08567 14.7733 4 15 4C15.2267 4 15.4451 4.08567 15.6113 4.23985L25.7122 13.6185C25.8447 13.7414 25.9371 13.9013 25.9774 14.0775C26.0177 14.2537 26.0039 14.4379 25.9379 14.6061C25.8719 14.7743 25.7567 14.9188 25.6074 15.0206C25.4581 15.1224 25.2816 15.1768 25.1009 15.1768H22.6286V25.0559C22.6286 25.2943 22.5339 25.523 22.3653 25.6916C22.1967 25.8602 21.968 25.9549 21.7296 25.9549Z" fill="#456C51"/>
</g>
</g>
</svg>
