<svg width="70" height="70" viewBox="0 0 70 70" fill="none" xmlns="http://www.w3.org/2000/svg">
<rect width="70" height="70" rx="14" fill="#D1E5D1"/>
<path d="M37.1235 44.1025C37.1862 44.2554 37.1859 44.4268 37.1228 44.5795C37.0597 44.7322 36.9389 44.8538 36.7866 44.9178C36.6338 44.9805 36.4623 44.9802 36.3097 44.9171C36.157 44.854 36.0354 44.7332 35.9714 44.5809C35.8366 44.2575 35.7018 43.2334 36.0253 43.0784C36.3487 42.9234 37.0224 43.8196 37.1235 44.1025Z" fill="#456C51"/>
<path d="M27.5896 44.5795C27.5255 44.7318 27.404 44.8526 27.2513 44.9157C27.0986 44.9788 26.9272 44.979 26.7743 44.9164C26.622 44.8523 26.5012 44.7307 26.4381 44.5781C26.375 44.4254 26.3748 44.254 26.4374 44.1011C26.5655 43.7844 27.219 42.9422 27.5357 43.077C27.8524 43.2117 27.7378 44.2561 27.5896 44.5795Z" fill="#456C51"/>
<path d="M41.0243 41.2038C41.1408 41.3211 41.2061 41.4798 41.2061 41.6451C41.2061 41.8104 41.1408 41.969 41.0243 42.0864C40.907 42.2028 40.7483 42.2682 40.583 42.2682C40.4177 42.2682 40.2591 42.2028 40.1417 42.0864C39.8991 41.8371 39.3736 40.9208 39.6162 40.6782C39.8587 40.4357 40.7818 40.9545 41.0243 41.2038Z" fill="#456C51"/>
<path d="M43.5177 37.0341C43.5937 37.0651 43.6627 37.1108 43.7209 37.1687C43.779 37.2266 43.8251 37.2955 43.8565 37.3713C43.8878 37.4471 43.9038 37.5285 43.9034 37.6105C43.9031 37.6926 43.8865 37.7737 43.8546 37.8493C43.7905 38.0016 43.6689 38.1224 43.5163 38.1855C43.3636 38.2486 43.1922 38.2489 43.0393 38.1862C42.7226 38.0515 41.8872 37.4046 42.0152 37.088C42.1432 36.7713 43.201 36.8993 43.5177 37.0341Z" fill="#456C51"/>
<path d="M43.0392 27.5136C43.192 27.451 43.3634 27.4512 43.5161 27.5143C43.6688 27.5774 43.7904 27.6982 43.8544 27.8505C43.9171 28.0034 43.9168 28.1748 43.8537 28.3274C43.7907 28.4801 43.6698 28.6017 43.5175 28.6658C43.2009 28.7938 42.17 28.9285 42.015 28.6119C41.8601 28.2952 42.7225 27.6484 43.0392 27.5136Z" fill="#456C51"/>
<path d="M44.225 32.2227C44.3073 32.2227 44.3887 32.2389 44.4648 32.2704C44.5408 32.3018 44.6099 32.348 44.6681 32.4062C44.7262 32.4644 44.7724 32.5334 44.8039 32.6095C44.8354 32.6855 44.8516 32.767 44.8516 32.8493C44.8498 33.0143 44.783 33.1719 44.6657 33.288C44.5484 33.404 44.39 33.4691 44.225 33.4691C43.8814 33.4691 42.8774 33.1929 42.8774 32.8493C42.8774 32.5056 43.8814 32.2227 44.225 32.2227Z" fill="#456C51"/>
<path d="M32.4071 45.287C32.4071 45.4514 32.3418 45.6091 32.2256 45.7253C32.1093 45.8415 31.9516 45.9069 31.7872 45.9069C31.6222 45.9069 31.4639 45.8418 31.3465 45.7257C31.2292 45.6097 31.1624 45.452 31.1606 45.287C31.1606 44.9434 31.4436 43.9395 31.7872 43.9395C32.1309 43.9395 32.4071 44.9434 32.4071 45.287Z" fill="#456C51"/>
<path d="M47.1291 17.4883L16.4053 48.2121C20.48 52.2853 26.0057 54.5735 31.7672 54.5735C37.5287 54.5735 43.0543 52.2853 47.1291 48.2121C51.2023 44.1373 53.4905 38.6117 53.4905 32.8502C53.4905 27.0887 51.2023 21.563 47.1291 17.4883Z" stroke="#456C51" stroke-width="2" stroke-linecap="round" stroke-linejoin="round"/>
<path d="M49.5749 15.0605L14 50.6355C18.7188 55.3506 25.1167 57.9991 31.7875 57.9991C38.4582 57.9991 44.8561 55.3506 49.5749 50.6355C54.2917 45.9175 56.9414 39.5193 56.9414 32.848C56.9414 26.1767 54.2917 19.7785 49.5749 15.0605Z" stroke="#456C51" stroke-width="2" stroke-linecap="round" stroke-linejoin="round"/>
<path d="M49.5746 15.0619C48.099 13.4853 45.6263 11.3696 42.6482 12.1782C38.7134 13.2562 39.8319 16.9889 41.3883 17.4875C42.9447 17.986 44.4607 17.0158 44.1575 15.1899C43.733 12.6633 38.3765 11.3696 35.7286 16.5374" stroke="#456C51" stroke-width="2" stroke-linecap="round" stroke-linejoin="round"/>
</svg>
