<svg width="30" height="30" viewBox="0 0 30 30" fill="none" xmlns="http://www.w3.org/2000/svg">
<g id="ico_back">
<path id="Path Copy 8" d="M17.7543 20.7745C17.6054 20.9189 17.4033 21 17.1925 21C16.9818 21 16.7796 20.9189 16.6307 20.7745L11.2329 15.5508C11.0838 15.4065 11 15.2108 11 15.0067C11 14.8025 11.0838 14.6068 11.2329 14.4626L16.6307 9.23887C16.8296 9.03645 17.1263 8.95447 17.4055 9.02472C17.6848 9.09498 17.9028 9.30643 17.9748 9.57702C18.0469 9.84761 17.9617 10.1348 17.7523 10.3271L12.9164 15.0067L17.7523 19.6863C17.9017 19.8303 17.9859 20.0258 17.9862 20.23C17.9866 20.4341 17.9032 20.6299 17.7543 20.7745Z" fill="#1A342B"/>
</g>
</svg>
