<svg width="30" height="30" viewBox="0 0 30 30" fill="none" xmlns="http://www.w3.org/2000/svg">
<g id="ico_run_nor">
<g id="Group 912">
<path id="Vector" d="M24.1896 22.3664H15.0662C14.3587 22.3682 13.6578 22.2297 13.0042 21.9589C12.3506 21.6882 11.7571 21.2905 11.2581 20.789L6.82238 16.3523C6.25447 15.7831 5.93555 15.0118 5.93555 14.2077C5.93555 13.4036 6.25447 12.6323 6.82238 12.063L7.42825 11.4563C7.50428 11.3802 7.59455 11.3199 7.6939 11.2787C7.79325 11.2376 7.89974 11.2164 8.00728 11.2164C8.11482 11.2164 8.2213 11.2376 8.32066 11.2787C8.42001 11.3199 8.51028 11.3802 8.58631 11.4563C8.66236 11.5323 8.72269 11.6226 8.76386 11.7219C8.80502 11.8213 8.8262 11.9278 8.8262 12.0353C8.8262 12.1428 8.80502 12.2493 8.76386 12.3487C8.72269 12.448 8.66236 12.5383 8.58631 12.6143L7.97953 13.2202C7.71833 13.4823 7.57166 13.8372 7.57166 14.2072C7.57166 14.5773 7.71833 14.9322 7.97953 15.1943L12.4162 19.6309C12.7634 19.98 13.1764 20.2568 13.6312 20.4453C14.0861 20.6338 14.5738 20.7302 15.0662 20.7289H23.3709V17.9789C23.3695 17.4968 23.1773 17.0348 22.8364 16.694C22.4955 16.3531 22.0336 16.1609 21.5515 16.1595H20.6845C20.4675 16.1593 20.2593 16.0729 20.1059 15.9193L17.2513 13.0665C14.0928 13.0546 11.4946 12.8845 10.373 11.7619C9.85257 11.2404 9.55888 10.5346 9.55564 9.79779C9.55241 9.061 9.83989 8.35267 10.3557 7.82654L10.3648 7.81744L10.373 7.80925L10.3821 7.80015C10.9084 7.28429 11.6168 6.99679 12.3538 7.00003C13.0907 7.00326 13.7966 7.29698 14.3184 7.81744L17.9299 11.429C18.3502 11.429 18.7659 11.429 19.168 11.4235C19.6757 11.4235 20.1869 11.4181 20.6954 11.4181C20.9126 11.4181 21.1208 11.5043 21.2744 11.6579C21.4279 11.8114 21.5142 12.0197 21.5142 12.2368C21.5142 12.4539 21.4279 12.6622 21.2744 12.8157C21.1208 12.9693 20.9126 13.0555 20.6954 13.0555C20.317 13.0555 19.9386 13.0555 19.5601 13.0555L21.0157 14.5111H21.5433C22.4594 14.5132 23.3375 14.8781 23.9853 15.526C24.6331 16.1738 24.998 17.0518 25.0002 17.968V21.5368C25.0016 21.6445 24.9818 21.7515 24.9418 21.8515C24.9018 21.9516 24.8425 22.0428 24.7672 22.1199C24.6919 22.1969 24.6021 22.2584 24.503 22.3007C24.4039 22.343 24.2974 22.3653 24.1896 22.3664ZM11.5265 8.97277C11.3096 9.19005 11.1878 9.48451 11.1878 9.79151C11.1878 10.0985 11.3096 10.393 11.5265 10.6102C12.0568 11.1415 13.6925 11.338 15.5774 11.4026L13.1603 8.97277C13.053 8.86507 12.9254 8.77971 12.7848 8.72162C12.6443 8.66354 12.4936 8.63388 12.3416 8.63436C12.1901 8.63426 12.0401 8.6641 11.9002 8.72218C11.7604 8.78025 11.6333 8.86542 11.5265 8.97277Z" fill="#C5C5C5"/>
<path id="Vector_2" d="M17.0714 15.9512H14.517C14.2998 15.9512 14.0916 15.8649 13.938 15.7114C13.7845 15.5579 13.6982 15.3496 13.6982 15.1325C13.6982 14.9153 13.7845 14.7071 13.938 14.5535C14.0916 14.4 14.2998 14.3137 14.517 14.3137H17.0714C17.2886 14.3137 17.4968 14.4 17.6504 14.5535C17.8039 14.7071 17.8902 14.9153 17.8902 15.1325C17.8902 15.3496 17.8039 15.5579 17.6504 15.7114C17.4968 15.8649 17.2886 15.9512 17.0714 15.9512Z" fill="#C5C5C5"/>
<path id="Vector_3" d="M9.3857 22.3664H5.81874C5.6016 22.3664 5.39335 22.2802 5.2398 22.1266C5.08626 21.9731 5 21.7648 5 21.5477C5 21.3305 5.08626 21.1223 5.2398 20.9688C5.39335 20.8152 5.6016 20.7289 5.81874 20.7289H9.3857C9.60284 20.7289 9.8111 20.8152 9.96464 20.9688C10.1182 21.1223 10.2044 21.3305 10.2044 21.5477C10.2044 21.7648 10.1182 21.9731 9.96464 22.1266C9.8111 22.2802 9.60284 22.3664 9.3857 22.3664Z" fill="#C5C5C5"/>
<path id="Vector_4" d="M6.81487 19.6373H5.81874C5.6016 19.6373 5.39335 19.551 5.2398 19.3975C5.08626 19.244 5 19.0357 5 18.8186C5 18.6014 5.08626 18.3932 5.2398 18.2396C5.39335 18.0861 5.6016 17.9998 5.81874 17.9998H6.81487C7.03201 17.9998 7.24026 18.0861 7.3938 18.2396C7.54735 18.3932 7.63361 18.6014 7.63361 18.8186C7.63361 18.9261 7.61243 19.0325 7.57128 19.1319C7.53014 19.2312 7.46983 19.3215 7.3938 19.3975C7.31778 19.4735 7.22752 19.5338 7.12819 19.575C7.02885 19.6161 6.92239 19.6373 6.81487 19.6373Z" fill="#C5C5C5"/>
</g>
</g>
</svg>
