<svg width="70" height="70" viewBox="0 0 70 70" fill="none" xmlns="http://www.w3.org/2000/svg">
<rect width="70" height="70" rx="14" fill="#D1E5D1"/>
<path d="M48.3049 49.033C42.5432 54.4975 35.9101 53.2547 34.6065 49.2019C33.4515 45.6355 37.896 43.6226 39.9224 46.8581C40.4989 47.7591 40.7557 48.8278 40.6515 49.8923C40.5474 50.9569 40.0884 51.9556 39.3482 52.7278C33.2893 59.1042 23.0358 60.0633 16.5582 53.5856C13.6395 50.6649 12 46.7047 12 42.5756C12 38.4465 13.6395 34.4864 16.5582 31.5656C24.6637 23.4871 35.5657 26.9522 42.2257 21.7579C42.5184 21.5264 42.8852 21.4091 43.258 21.4277C43.6307 21.4463 43.9839 21.5997 44.2521 21.8592L46.2785 23.8856L48.3049 25.912C48.5712 26.1836 48.7281 26.5439 48.7456 26.924C48.763 27.3041 48.6398 27.6772 48.3994 27.9721C45.1074 32.2047 46.4869 38.1702 44.1933 44" stroke="#456C51" stroke-width="2" stroke-linecap="round" stroke-linejoin="round"/>
<path d="M51.1215 15.8861L44.7114 22.2962L47.9199 25.4912L54.3368 19.0743C54.5469 19.2846 54.7964 19.4515 55.0711 19.5654C55.3458 19.6792 55.6402 19.7378 55.9376 19.7378C56.2349 19.7378 56.5294 19.6792 56.8041 19.5654C57.0787 19.4515 57.3283 19.2846 57.5384 19.0743C57.7488 18.8641 57.9157 18.6146 58.0296 18.3399C58.1434 18.0652 58.202 17.7708 58.202 17.4734C58.202 17.1761 58.1434 16.8817 58.0296 16.607C57.9157 16.3323 57.7488 16.0827 57.5384 15.8726C57.3283 15.6622 57.0787 15.4953 56.8041 15.3815C56.5294 15.2676 56.2349 15.209 55.9376 15.209C55.6402 15.209 55.3458 15.2676 55.0711 15.3815C54.7964 15.4953 54.5469 15.6622 54.3368 15.8726C54.762 15.447 55.0009 14.87 55.0009 14.2684C55.0009 13.6667 54.762 13.0897 54.3368 12.6641C53.9112 12.2389 53.3342 12 52.7325 12C52.1309 12 51.5539 12.2389 51.1283 12.6641C50.9153 12.8747 50.746 13.1253 50.6303 13.4015C50.5145 13.6778 50.4546 13.9742 50.454 14.2737C50.4534 14.5732 50.5121 14.8699 50.6266 15.1466C50.7412 15.4234 50.9094 15.6747 51.1215 15.8861Z" stroke="#456C51" stroke-width="2" stroke-linecap="round" stroke-linejoin="round"/>
<path d="M17 43.724C16.9961 42.1179 17.3104 40.5268 17.9249 39.0429C18.5394 37.5589 19.4418 36.2114 20.58 35.0781" stroke="#456C51" stroke-width="2" stroke-linecap="round" stroke-linejoin="round"/>
<path d="M22.6533 33.405C23.6124 32.7962 24.6512 32.3234 25.7402 32" stroke="#456C51" stroke-width="2" stroke-linecap="round" stroke-linejoin="round"/>
<path d="M24.9999 54C25.5522 54 25.9999 53.5523 25.9999 53C25.9999 52.4477 25.5522 52 24.9999 52C24.4476 52 23.9999 52.4477 23.9999 53C23.9999 53.5523 24.4476 54 24.9999 54Z" fill="#456C51"/>
<path d="M30.9999 53C31.5522 53 31.9999 52.5523 31.9999 52C31.9999 51.4477 31.5522 51 30.9999 51C30.4476 51 29.9999 51.4477 29.9999 52C29.9999 52.5523 30.4476 53 30.9999 53Z" fill="#456C51"/>
<path d="M21.9999 51C22.5522 51 22.9999 50.5523 22.9999 50C22.9999 49.4477 22.5522 49 21.9999 49C21.4476 49 20.9999 49.4477 20.9999 50C20.9999 50.5523 21.4476 51 21.9999 51Z" fill="#456C51"/>
</svg>
