<svg width="22" height="22" viewBox="0 0 22 22" fill="none" xmlns="http://www.w3.org/2000/svg">
<path d="M6.89995 19.0537C6.46945 19.0547 6.04477 18.9542 5.66035 18.7605C5.21718 18.5404 4.84523 18.1996 4.58738 17.7772C4.32953 17.3549 4.19628 16.8684 4.203 16.3736V14.2279C4.00581 14.2191 3.80203 14.2147 3.59311 14.2147C3.41813 14.2147 3.25031 14.1452 3.12658 14.0215C3.00286 13.8978 2.93335 13.7299 2.93335 13.555C2.93335 13.38 3.00286 13.2122 3.12658 13.0884C3.25031 12.9647 3.41813 12.8952 3.59311 12.8952C3.78224 12.8952 3.98675 12.8989 4.203 12.9077V5.33585C4.20378 4.69897 4.45713 4.0884 4.90747 3.63805C5.35781 3.18771 5.96838 2.93437 6.60526 2.93359H16.6534C17.2903 2.93437 17.9008 3.18771 18.3512 3.63805C18.8015 4.0884 19.0549 4.69897 19.0556 5.33585V15.9807C19.0556 16.1557 18.9861 16.3235 18.8624 16.4472C18.7387 16.5709 18.5709 16.6404 18.3959 16.6404C18.2209 16.6404 18.0531 16.5709 17.9294 16.4472C17.8056 16.3235 17.7361 16.1557 17.7361 15.9807V5.33585C17.7357 5.04881 17.6215 4.77363 17.4186 4.57066C17.2156 4.3677 16.9404 4.2535 16.6534 4.25311H6.60526C6.31822 4.2535 6.04306 4.3677 5.84009 4.57066C5.63712 4.77363 5.52291 5.04881 5.52252 5.33585V13.033C6.98865 13.2529 8.55302 13.8057 9.19738 15.1017C9.52433 15.7578 9.62182 16.4418 9.4796 17.0773C9.35713 17.6478 9.03212 18.1546 8.56474 18.5039C8.08263 18.86 7.49931 19.0526 6.89995 19.0537ZM5.52252 14.3665V16.3707C5.51634 16.6213 5.58211 16.8684 5.71203 17.0827C5.84195 17.2971 6.03058 17.4698 6.25559 17.5802C6.49764 17.7032 6.76954 17.7551 7.03987 17.7301C7.3102 17.705 7.56793 17.604 7.7833 17.4387C8.18575 17.1455 8.41373 16.4858 8.01568 15.6882C7.69826 15.049 6.80758 14.5886 5.52252 14.3657V14.3665Z" fill="#1A342B"/>
<path d="M15.4489 8.06366H7.80966C7.63468 8.06366 7.46687 7.99415 7.34314 7.87042C7.21941 7.74669 7.1499 7.57888 7.1499 7.4039C7.1499 7.22892 7.21941 7.06111 7.34314 6.93738C7.46687 6.81365 7.63468 6.74414 7.80966 6.74414H15.4489C15.6239 6.74414 15.7917 6.81365 15.9154 6.93738C16.0392 7.06111 16.1087 7.22892 16.1087 7.4039C16.1087 7.57888 16.0392 7.74669 15.9154 7.87042C15.7917 7.99415 15.6239 8.06366 15.4489 8.06366Z" fill="#1A342B"/>
<path d="M11.6297 10.8488H7.80966C7.63468 10.8488 7.46687 10.7793 7.34314 10.6556C7.21941 10.5318 7.1499 10.364 7.1499 10.1891C7.1499 10.0141 7.21941 9.84626 7.34314 9.72254C7.46687 9.59881 7.63468 9.5293 7.80966 9.5293H11.6297C11.8046 9.5293 11.9724 9.59881 12.0962 9.72254C12.2199 9.84626 12.2894 10.0141 12.2894 10.1891C12.2894 10.364 12.2199 10.5318 12.0962 10.6556C11.9724 10.7793 11.8046 10.8488 11.6297 10.8488Z" fill="#1A342B"/>
<path d="M15.9694 19.0672H10.5608C10.3858 19.0672 10.218 18.9977 10.0943 18.8739C9.97057 18.7502 9.90104 18.5824 9.90104 18.4074C9.90104 18.2324 9.97057 18.0646 10.0943 17.9409C10.218 17.8172 10.3858 17.7477 10.5608 17.7477H15.9694C16.4377 17.7471 16.8868 17.5608 17.218 17.2296C17.5492 16.8984 17.7355 16.4494 17.736 15.981C17.7355 15.5127 17.5491 15.0637 17.2179 14.7326C16.8867 14.4016 16.4377 14.2154 15.9694 14.215H10.0807C9.90568 14.215 9.73786 14.1455 9.61413 14.0218C9.4904 13.8981 9.4209 13.7302 9.4209 13.5553C9.4209 13.3803 9.4904 13.2125 9.61413 13.0887C9.73786 12.965 9.90568 12.8955 10.0807 12.8955H15.9694C16.7875 12.8963 17.5719 13.2216 18.1505 13.8C18.7291 14.3785 19.0546 15.1628 19.0556 15.981C19.0546 16.7992 18.7291 17.5836 18.1506 18.1622C17.572 18.7407 16.7876 19.0662 15.9694 19.0672Z" fill="#1A342B"/>
</svg>
