<svg width="30" height="30" viewBox="0 0 30 30" fill="none" xmlns="http://www.w3.org/2000/svg">
<g id="ico_skin_sel">
<g id="Group 908">
<path id="Vector" d="M19.5862 13.5845C19.5685 14.787 19.0783 15.9343 18.2216 16.7784C17.3649 17.6225 16.2105 18.0957 15.0079 18.0957C13.8052 18.0957 12.6508 17.6225 11.7941 16.7784C10.9374 15.9343 10.4473 14.787 10.4295 13.5845C10.4295 11.0563 15.0084 4.90012 15.0084 4.90012C15.0084 4.90012 19.5862 11.0563 19.5862 13.5845Z" fill="#C1E1CE"/>
<path id="Vector_2" d="M25.1149 14.6584H21.9763C21.7374 14.6584 21.5083 14.7533 21.3393 14.9222C21.1704 15.0912 21.0755 15.3203 21.0755 15.5592C21.0755 15.7981 21.1704 16.0272 21.3393 16.1961C21.5083 16.365 21.7374 16.4599 21.9763 16.4599H25.1149C25.3538 16.4599 25.5829 16.365 25.7519 16.1961C25.9208 16.0272 26.0157 15.7981 26.0157 15.5592C26.0157 15.3203 25.9208 15.0912 25.7519 14.9222C25.5829 14.7533 25.3538 14.6584 25.1149 14.6584Z" fill="#65AF7C"/>
<path id="Vector_3" d="M8.03943 14.6584H4.90076C4.66187 14.6584 4.43275 14.7533 4.26383 14.9222C4.0949 15.0912 4 15.3203 4 15.5592C4 15.7981 4.0949 16.0272 4.26383 16.1961C4.43275 16.365 4.66187 16.4599 4.90076 16.4599H8.03943C8.27832 16.4599 8.50744 16.365 8.67636 16.1961C8.84529 16.0272 8.94019 15.7981 8.94019 15.5592C8.94019 15.3203 8.84529 15.0912 8.67636 14.9222C8.50744 14.7533 8.27832 14.6584 8.03943 14.6584Z" fill="#65AF7C"/>
<path id="Vector_4" d="M6.90247 20.2381C6.72432 20.2381 6.55017 20.291 6.40204 20.3899C6.25391 20.4889 6.13845 20.6296 6.07028 20.7942C6.0021 20.9588 5.98426 21.1399 6.01902 21.3146C6.05377 21.4893 6.13956 21.6498 6.26554 21.7758C6.39151 21.9018 6.55201 21.9876 6.72674 22.0223C6.90147 22.0571 7.08259 22.0393 7.24718 21.9711C7.41177 21.9029 7.55245 21.7875 7.65143 21.6393C7.75041 21.4912 7.80324 21.317 7.80324 21.1389C7.80324 21.0206 7.77994 20.9035 7.73467 20.7942C7.6894 20.6849 7.62305 20.5856 7.53941 20.502C7.45577 20.4183 7.35647 20.352 7.24718 20.3067C7.13789 20.2614 7.02076 20.2381 6.90247 20.2381Z" fill="#65AF7C"/>
<path id="Vector_5" d="M12.3061 20.2381C12.1279 20.2381 11.9538 20.291 11.8056 20.3899C11.6575 20.4889 11.542 20.6296 11.4739 20.7942C11.4057 20.9588 11.3879 21.1399 11.4226 21.3146C11.4574 21.4893 11.5432 21.6498 11.6691 21.7758C11.7951 21.9018 11.9556 21.9876 12.1303 22.0223C12.3051 22.0571 12.4862 22.0393 12.6508 21.9711C12.8154 21.9029 12.956 21.7875 13.055 21.6393C13.154 21.4912 13.2068 21.317 13.2068 21.1389C13.2068 20.9 13.1119 20.6709 12.943 20.502C12.7741 20.333 12.545 20.2381 12.3061 20.2381Z" fill="#65AF7C"/>
<path id="Vector_6" d="M23.1132 20.2381C22.935 20.2381 22.7609 20.291 22.6127 20.3899C22.4646 20.4889 22.3491 20.6296 22.281 20.7942C22.2128 20.9588 22.195 21.1399 22.2297 21.3146C22.2645 21.4893 22.3503 21.6498 22.4762 21.7758C22.6022 21.9018 22.7627 21.9876 22.9374 22.0223C23.1122 22.0571 23.2933 22.0393 23.4579 21.9711C23.6225 21.9029 23.7631 21.7875 23.8621 21.6393C23.9611 21.4912 24.0139 21.317 24.0139 21.1389C24.0139 20.9 23.919 20.6709 23.7501 20.502C23.5812 20.333 23.3521 20.2381 23.1132 20.2381Z" fill="#65AF7C"/>
<path id="Vector_7" d="M17.7097 20.2381C17.5315 20.2381 17.3574 20.291 17.2092 20.3899C17.0611 20.4889 16.9456 20.6296 16.8775 20.7942C16.8093 20.9588 16.7915 21.1399 16.8262 21.3146C16.861 21.4893 16.9468 21.6498 17.0727 21.7758C17.1987 21.9018 17.3592 21.9876 17.5339 22.0223C17.7087 22.0571 17.8898 22.0393 18.0544 21.9711C18.219 21.9029 18.3596 21.7875 18.4586 21.6393C18.5576 21.4912 18.6104 21.317 18.6104 21.1389C18.6104 20.9 18.5155 20.6709 18.3466 20.502C18.1777 20.333 17.9486 20.2381 17.7097 20.2381Z" fill="#65AF7C"/>
<path id="Vector_8" d="M9.60377 24.1985C9.42561 24.1985 9.25146 24.2513 9.10333 24.3503C8.9552 24.4493 8.83975 24.59 8.77157 24.7545C8.70339 24.9191 8.68556 25.1003 8.72031 25.275C8.75507 25.4497 8.84086 25.6102 8.96683 25.7362C9.09281 25.8622 9.25331 25.9479 9.42804 25.9827C9.60277 26.0175 9.78388 25.9996 9.94847 25.9314C10.1131 25.8633 10.2537 25.7478 10.3527 25.5997C10.4517 25.4516 10.5045 25.2774 10.5045 25.0993C10.5045 24.8604 10.4096 24.6312 10.2407 24.4623C10.0718 24.2934 9.84266 24.1985 9.60377 24.1985Z" fill="#65AF7C"/>
<path id="Vector_9" d="M20.412 24.1985C20.2338 24.1985 20.0597 24.2513 19.9115 24.3503C19.7634 24.4493 19.6479 24.59 19.5798 24.7545C19.5116 24.9191 19.4938 25.1003 19.5285 25.275C19.5633 25.4497 19.6491 25.6102 19.775 25.7362C19.901 25.8622 20.0615 25.9479 20.2362 25.9827C20.411 26.0175 20.5921 25.9996 20.7567 25.9314C20.9213 25.8633 21.0619 25.7478 21.1609 25.5997C21.2599 25.4516 21.3127 25.2774 21.3127 25.0993C21.3127 24.8604 21.2178 24.6312 21.0489 24.4623C20.88 24.2934 20.6509 24.1985 20.412 24.1985Z" fill="#65AF7C"/>
<path id="Vector_10" d="M15.0084 24.1985C14.8302 24.1985 14.6561 24.2513 14.5079 24.3503C14.3598 24.4493 14.2443 24.59 14.1762 24.7545C14.108 24.9191 14.0902 25.1003 14.1249 25.275C14.1597 25.4497 14.2455 25.6102 14.3714 25.7362C14.4974 25.8622 14.6579 25.9479 14.8326 25.9827C15.0074 26.0175 15.1885 25.9996 15.3531 25.9314C15.5177 25.8633 15.6583 25.7478 15.7573 25.5997C15.8563 25.4516 15.9091 25.2774 15.9091 25.0993C15.9091 24.8604 15.8142 24.6312 15.6453 24.4623C15.4764 24.2934 15.2473 24.1985 15.0084 24.1985Z" fill="#65AF7C"/>
<path id="Vector_11" d="M20.483 13.4404C20.4744 13.11 20.4362 12.7811 20.3689 12.4575H25.1149C25.3538 12.4575 25.5829 12.3626 25.7518 12.1937C25.9208 12.0248 26.0157 11.7957 26.0157 11.5568C26.0157 11.3179 25.9208 11.0887 25.7518 10.9198C25.5829 10.7509 25.3538 10.656 25.1149 10.656H19.6222C18.3482 7.92368 16.0782 4.83006 15.7309 4.36366C15.6471 4.25084 15.5381 4.15917 15.4125 4.09603C15.287 4.03288 15.1484 4 15.0078 4C14.8673 4 14.7287 4.03288 14.6031 4.09603C14.4776 4.15917 14.3685 4.25084 14.2847 4.36366C13.9384 4.83006 11.6675 7.92368 10.3934 10.656H4.90076C4.66187 10.656 4.43275 10.7509 4.26383 10.9198C4.0949 11.0887 4 11.3179 4 11.5568C4 11.7957 4.0949 12.0248 4.26383 12.1937C4.43275 12.3626 4.66187 12.4575 4.90076 12.4575H9.64679C9.57945 12.7811 9.54126 13.11 9.53269 13.4404C9.53269 13.4894 9.53269 13.5404 9.53269 13.5855C9.55216 15.0258 10.138 16.4006 11.1634 17.4122C12.1888 18.4239 13.5714 18.9911 15.0118 18.9911C16.4523 18.9911 17.8348 18.4239 18.8603 17.4122C19.8857 16.4006 20.4715 15.0258 20.491 13.5855C20.487 13.5404 20.485 13.4884 20.483 13.4404ZM15.5668 17.2206C15.0428 17.3011 14.5075 17.2673 13.9977 17.1216C13.4879 16.976 13.0156 16.7218 12.6132 16.3765C12.2108 16.0313 11.8879 15.6031 11.6664 15.1213C11.445 14.6396 11.3303 14.1157 11.3302 13.5855C11.3302 12.1783 13.3589 8.80742 15.0083 6.44342C16.6567 8.80742 18.6855 12.1783 18.6855 13.5855C18.6839 14.4635 18.3689 15.312 17.7971 15.9783C17.2253 16.6446 16.4344 17.0848 15.5668 17.2196V17.2206Z" fill="#65AF7C"/>
</g>
</g>
</svg>
