<svg width="30" height="30" viewBox="0 0 30 30" fill="none" xmlns="http://www.w3.org/2000/svg">
<g id="ico_bowel movement_sel">
<g id="Group 915">
<path id="Vector 13" d="M20.5 10.5C20.5 8.1 18.8333 6.16667 18 5.5C18 6 17.1 7.2 13.5 8C9.9 8.8 9.33333 12 9.5 13.5L7.5 17L14.5 21.5L22.5 17.5C21.8333 16.1667 20.5 12.9 20.5 10.5Z" fill="#C1E1CE"/>
<g id="Group 896">
<path id="Vector" d="M25.9942 21.4152C25.9856 20.6152 25.7735 19.8305 25.3779 19.1351C24.9822 18.4397 24.4161 17.8564 23.7328 17.4402C23.6452 16.2965 23.1767 15.2152 22.4022 14.3691C22.1302 14.0725 21.8288 13.8046 21.5024 13.5693C21.7047 12.5633 21.7759 11.5353 21.7144 10.5111C21.5324 7.71179 20.2707 5.50238 18.0653 4.13474C17.926 4.04921 17.7663 4.00272 17.6028 4.00012C17.4394 3.99752 17.2782 4.03891 17.1362 4.11996C16.9943 4.20101 16.8767 4.31872 16.7959 4.4608C16.715 4.60287 16.6739 4.76408 16.6767 4.92752C16.6726 5.35487 16.5948 5.7783 16.4467 6.17919C16.1038 7.05996 15.516 7.19792 15.1041 7.22492C14.9411 7.23591 14.7292 7.23591 14.5042 7.23691C13.3046 7.23691 11.505 7.24592 10.1624 8.62955C9.14965 9.67628 8.64178 11.2669 8.61279 13.4753C8.23467 13.7339 7.88808 14.0359 7.58006 14.375C6.81889 15.2069 6.35269 16.2661 6.25341 17.3893C5.57293 17.8059 5.00927 18.3884 4.61517 19.0822C4.22107 19.7759 4.00941 20.5584 4 21.3562V21.4092C4.01999 23.8995 6.03747 25.997 8.42384 25.997C10.2874 25.997 12.0869 25.2402 14.0964 23.5806C14.4882 24.2055 14.8961 24.8523 15.352 25.5441C15.5031 25.7526 15.7289 25.8948 15.9822 25.941C16.2356 25.9872 16.497 25.9338 16.7119 25.7921C16.9269 25.6503 17.0789 25.431 17.1362 25.18C17.1935 24.9289 17.1517 24.6654 17.0196 24.4444C16.5667 23.7616 16.1618 23.1158 15.7699 22.4909L15.599 22.218L15.7049 22.118C18.1113 19.7107 20.5337 18.8369 21.5734 18.8369C22.8621 18.8369 23.9928 20.0576 23.9978 21.4512C23.9928 22.8118 22.8621 24.0025 21.5734 24.0025C20.7906 24.0025 20.1688 23.9185 19.6169 23.7386C19.3678 23.6662 19.1003 23.6934 18.8709 23.8146C18.6415 23.9358 18.4682 24.1414 18.3876 24.388C18.307 24.6346 18.3254 24.9029 18.439 25.1361C18.5525 25.3694 18.7523 25.5494 18.9961 25.6381C19.7549 25.885 20.5737 26 21.5734 26C23.9598 26 25.9722 23.9325 25.9972 21.4762V21.4232L25.9942 21.4152ZM11.472 9.89222C12.2778 9.05844 13.5175 9.05544 14.5122 9.05244C14.7662 9.05244 15.0061 9.05244 15.2261 9.03644C16.9786 8.92147 17.8554 7.75378 18.2413 6.57909C19.226 7.58883 19.7829 8.92647 19.8998 10.578C19.9452 11.2769 19.9167 11.9786 19.8149 12.6715C18.5052 12.1716 16.8966 11.9177 14.9991 11.9157H14.9871C13.2376 11.9157 11.738 12.13 10.4883 12.5585C10.6053 11.3398 10.9342 10.4471 11.472 9.89222ZM8.42284 23.9975C7.13518 23.9975 6.00347 22.7769 5.99848 21.3822C5.99348 19.9876 7.13518 18.7679 8.42284 18.7679C10.4953 18.7679 11.561 19.7376 13.0066 21.8861C11.2981 23.3367 9.85047 23.9975 8.42284 23.9975ZM18.3962 17.7072C17.0516 18.357 15.7039 19.3208 14.4853 20.5064C12.9676 18.307 11.3591 16.7734 8.42284 16.7734C8.57318 16.3687 8.80296 15.9982 9.09866 15.6837C10.1724 14.53 12.2078 13.9182 14.9841 13.9152H14.9971C17.7774 13.9152 19.8149 14.529 20.8956 15.6847C21.2072 16.0136 21.4456 16.4048 21.5954 16.8324H21.5784C20.6956 16.8274 19.5719 17.1403 18.3962 17.7072Z" fill="#65AF7C"/>
</g>
</g>
</g>
</svg>
