<svg width="30" height="30" viewBox="0 0 30 30" fill="none" xmlns="http://www.w3.org/2000/svg">
<g id="ico_period_nor">
<g id="Group 911">
<path id="Vector" d="M15.0473 25.998C13.7403 25.9964 12.4873 25.4765 11.5632 24.5523C10.639 23.6282 10.1191 22.3752 10.1175 21.0682V13.4724C10.1167 12.6194 9.7775 11.8016 9.17434 11.1984C8.57117 10.5953 7.75333 10.2561 6.90033 10.2553C6.66155 10.2553 6.43254 10.1604 6.2637 9.99157C6.09486 9.82273 6 9.59373 6 9.35495C6 9.11617 6.09486 8.88716 6.2637 8.71832C6.43254 8.54947 6.66155 8.45462 6.90033 8.45462C8.23073 8.45595 9.50626 8.98504 10.447 9.92577C11.3877 10.8665 11.9168 12.142 11.9181 13.4724V21.0682C11.9184 21.6927 12.1054 22.3029 12.4552 22.8203C12.805 23.3377 13.3016 23.7386 13.881 23.9714C14.4605 24.2043 15.0964 24.2586 15.707 24.1271C16.3175 23.9957 16.8748 23.6847 17.3071 23.234C17.8446 22.6786 18.1544 21.9419 18.1754 21.1692C16.953 21.1272 15.8616 20.7061 15.2654 19.9688C14.5161 19.0385 14.6001 17.5869 15.4484 16.7176L15.4634 16.7026C16.3338 15.8313 17.8033 15.7413 18.7386 16.5025C19.3899 17.0327 19.692 17.875 19.846 19.1295L19.876 19.1185C20.6283 18.8534 21.8908 18.1752 21.8908 16.6096V8.56266C21.8908 7.83013 21.5998 7.1276 21.0818 6.60963C20.5638 6.09165 19.8613 5.80065 19.1288 5.80065C18.3962 5.80065 17.6937 6.09165 17.1757 6.60963C16.6578 7.1276 16.3668 7.83013 16.3668 8.56266V14.0647C16.3668 14.3034 16.2719 14.5324 16.1031 14.7013C15.9342 14.8701 15.7052 14.965 15.4664 14.965C15.2277 14.965 14.9987 14.8701 14.8298 14.7013C14.661 14.5324 14.5661 14.3034 14.5661 14.0647V8.56266C14.5661 7.35256 15.0468 6.19204 15.9025 5.33637C16.7582 4.48071 17.9187 4 19.1288 4C20.3389 4 21.4994 4.48071 22.3551 5.33637C23.2107 6.19204 23.6914 7.35256 23.6914 8.56266V16.6066C23.6914 18.5313 22.491 20.1079 20.4743 20.8141C20.3095 20.8721 20.1428 20.9231 19.9741 20.9672C19.9878 21.6232 19.8704 22.2753 19.6288 22.8854C19.3872 23.4954 19.0263 24.0511 18.5671 24.5199C18.108 24.9886 17.5599 25.361 16.9549 25.6151C16.35 25.8693 15.7004 26.0001 15.0443 26L15.0473 25.998ZM16.7479 17.9651C16.5318 18.1812 16.4948 18.6123 16.6739 18.8354C16.9 19.1165 17.4202 19.3156 18.0674 19.3636C17.9844 18.6633 17.8473 18.0871 17.6092 17.8941C17.3851 17.718 16.962 17.753 16.7429 17.9651H16.7479Z" fill="#B5C2B3"/>
</g>
</g>
</svg>
