<svg width="22" height="22" viewBox="0 0 22 22" fill="none" xmlns="http://www.w3.org/2000/svg">
<g id="ico_Physician Certification">
<path id="Vector" d="M11.0011 2.93359C8.86237 2.9367 6.8121 3.78769 5.29977 5.30002C3.78744 6.81235 2.93646 8.86262 2.93335 11.0014C2.93335 11.2473 2.96637 13.4555 4.12992 15.1123C4.63205 15.8283 5.11582 16.3948 5.58124 16.8118C5.60779 16.9558 5.64584 17.0974 5.69503 17.2354C6.1098 18.4033 7.22269 19.0816 8.69823 19.0816C8.78192 19.0816 8.86636 19.0816 8.95225 19.075C9.03892 19.0706 9.12387 19.0492 9.20225 19.0119C9.28063 18.9746 9.3509 18.9223 9.40905 18.8579C9.4672 18.7935 9.51208 18.7182 9.54114 18.6364C9.5702 18.5547 9.58287 18.468 9.57842 18.3813C9.574 18.2946 9.55256 18.2097 9.5153 18.1313C9.47804 18.0529 9.42571 17.9826 9.36129 17.9245C9.29687 17.8663 9.22162 17.8214 9.13984 17.7924C9.05807 17.7633 8.97137 17.7507 8.8847 17.7551C8.51203 17.7843 8.13733 17.737 7.78355 17.6164C7.96894 17.5657 8.14323 17.4808 8.29742 17.366C8.66037 17.0996 8.90285 16.7002 8.97166 16.2552C9.04047 15.8103 8.92999 15.3563 8.66447 14.9927L8.65714 14.9831C8.39143 14.6265 7.99573 14.3891 7.55599 14.3224C7.33564 14.2875 7.11055 14.2967 6.89379 14.3495C6.67703 14.4023 6.47291 14.4977 6.29332 14.63C6.10095 14.7729 5.94066 14.9544 5.82276 15.163C5.62896 14.9325 5.42195 14.6638 5.20466 14.3555C4.44853 13.2778 4.25032 11.7399 4.25032 11.0014C4.25207 9.21258 4.96339 7.49755 6.22819 6.23262C7.49298 4.96769 9.20792 4.25619 10.9967 4.25424C12.7854 4.25619 14.5002 4.96759 15.765 6.23236C17.0298 7.49714 17.7412 9.21198 17.7431 11.0006C17.7431 14.0839 16.9826 15.914 15.4828 16.4381C14.5153 16.7758 13.6909 16.7105 13.0324 16.2436C12.2983 15.7246 11.882 14.7989 11.7271 14.0582C12.7245 13.8857 13.629 13.367 14.2814 12.5932C14.9339 11.8195 15.2925 10.8404 15.2941 9.82828V8.18242C15.2936 7.67152 15.0903 7.18172 14.7291 6.82046C14.3678 6.4592 13.878 6.25599 13.3671 6.2554H12.2014C12.0262 6.2554 11.8581 6.32501 11.7342 6.44892C11.6103 6.57282 11.5407 6.74087 11.5407 6.9161C11.5407 7.09132 11.6103 7.25937 11.7342 7.38327C11.8581 7.50718 12.0262 7.57679 12.2014 7.57679H13.3671C13.5277 7.57698 13.6816 7.64085 13.7952 7.75439C13.9087 7.86792 13.9726 8.02186 13.9728 8.18242V9.82828C13.972 10.6164 13.6586 11.3719 13.1013 11.9292C12.5441 12.4865 11.7885 12.7999 11.0004 12.8007C10.212 12.8003 9.45608 12.487 8.8985 11.9297C8.34092 11.3724 8.02732 10.6166 8.02654 9.82828V8.18242C8.02673 8.02186 8.09059 7.86792 8.20413 7.75439C8.31767 7.64085 8.47161 7.57698 8.63217 7.57679H9.82215C9.99737 7.57679 10.1654 7.50718 10.2893 7.38327C10.4132 7.25937 10.4828 7.09132 10.4828 6.9161C10.4828 6.74087 10.4132 6.57282 10.2893 6.44892C10.1654 6.32501 9.99737 6.2554 9.82215 6.2554H8.63217C8.12127 6.25599 7.63147 6.4592 7.27021 6.82046C6.90895 7.18172 6.70574 7.67152 6.70516 8.18242V9.82828C6.70655 10.8614 7.07979 11.8594 7.75661 12.6399C8.43343 13.4204 9.3686 13.9311 10.3911 14.0787C10.554 15.1065 11.109 16.5013 12.2696 17.322C12.9759 17.8234 14.1827 18.2932 15.9203 17.689C17.1764 17.2486 18.0683 16.2575 18.5726 14.7365C18.9052 13.733 19.0667 12.5122 19.0667 11.0043C19.0655 8.86507 18.2156 6.81371 16.7034 5.30055C15.1912 3.7874 13.1404 2.93612 11.0011 2.93359ZM7.08102 15.6989C7.12074 15.6694 7.16592 15.6481 7.21394 15.6363C7.26195 15.6244 7.31184 15.6223 7.3607 15.6299C7.45887 15.6444 7.5473 15.6972 7.60663 15.7767C7.66422 15.8575 7.68764 15.9578 7.67184 16.0557C7.65603 16.1537 7.60227 16.2415 7.5222 16.3001C7.49268 16.3229 7.45838 16.3386 7.42187 16.3461C7.38536 16.3536 7.34762 16.3527 7.31152 16.3434C7.15299 16.3081 7.0032 16.2412 6.87106 16.1467C6.9041 15.9345 6.98706 15.7686 7.08102 15.6989Z" fill="#1A342B"/>
</g>
</svg>
