<svg width="24" height="24" viewBox="0 0 24 24" fill="none" xmlns="http://www.w3.org/2000/svg">
<path d="M12.0006 12.8733C10.1573 12.8747 8.35174 12.3503 6.796 11.3615C5.28452 10.4003 4.06719 9.04109 3.27768 7.43322C3.19457 7.26206 3.18256 7.06497 3.24421 6.88496C3.30586 6.70496 3.43617 6.55664 3.60676 6.47236C3.77792 6.38926 3.97501 6.37722 4.15502 6.43887C4.33503 6.50053 4.48334 6.63086 4.56762 6.80146C5.24096 8.17149 6.27879 9.32953 7.56712 10.1484C8.89257 10.9908 10.431 11.4372 12.0015 11.4352C13.5717 11.4373 15.1099 10.9909 16.435 10.1484C17.7233 9.32953 18.7611 8.17149 19.4345 6.80146C19.5188 6.63086 19.6671 6.50053 19.8471 6.43887C20.0271 6.37722 20.2242 6.38926 20.3953 6.47236C20.5659 6.55664 20.6962 6.70496 20.7579 6.88496C20.8195 7.06497 20.8075 7.26206 20.7244 7.43322C19.9349 9.04109 18.7176 10.4003 17.2061 11.3615C15.6501 12.3504 13.8443 12.8749 12.0006 12.8733Z" fill="#A7998F"/>
<path d="M12.0007 17.6438C11.8095 17.6438 11.6263 17.5679 11.4911 17.4327C11.356 17.2976 11.28 17.1143 11.28 16.9232V14.5563C11.28 14.3651 11.356 14.1818 11.4911 14.0467C11.6263 13.9116 11.8095 13.8356 12.0007 13.8356C12.1918 13.8356 12.3751 13.9116 12.5103 14.0467C12.6454 14.1818 12.7213 14.3651 12.7213 14.5563V16.9232C12.7213 17.1143 12.6454 17.2976 12.5103 17.4327C12.3751 17.5679 12.1918 17.6438 12.0007 17.6438Z" fill="#A7998F"/>
<path d="M20.079 15.5459C19.888 15.5458 19.7048 15.4697 19.5698 15.3346L17.8955 13.6611C17.8285 13.5941 17.7754 13.5147 17.7392 13.4272C17.703 13.3398 17.6843 13.2461 17.6843 13.1514C17.6843 13.0568 17.703 12.963 17.7392 12.8756C17.7754 12.7881 17.8285 12.7087 17.8955 12.6418C17.9624 12.5748 18.0419 12.5217 18.1293 12.4855C18.2168 12.4493 18.3105 12.4306 18.4052 12.4306C18.4998 12.4306 18.5935 12.4493 18.681 12.4855C18.7684 12.5217 18.8479 12.5748 18.9148 12.6418L20.5891 14.3161C20.7241 14.4512 20.7998 14.6343 20.7998 14.8253C20.7998 15.0163 20.7241 15.1994 20.5891 15.3346C20.5221 15.4016 20.4426 15.4548 20.3551 15.491C20.2676 15.5273 20.1738 15.546 20.079 15.5459Z" fill="#A7998F"/>
<path d="M3.92079 15.5459C3.82605 15.546 3.7322 15.5273 3.64468 15.491C3.55716 15.4548 3.47767 15.4016 3.41072 15.3346C3.27577 15.1994 3.19995 15.0163 3.19995 14.8253C3.19995 14.6343 3.27577 14.4512 3.41072 14.3161L5.08503 12.6418C5.15195 12.5748 5.23138 12.5217 5.31883 12.4855C5.40628 12.4493 5.5 12.4306 5.59466 12.4306C5.68932 12.4306 5.78304 12.4493 5.87049 12.4855C5.95794 12.5217 6.03741 12.5748 6.10433 12.6418C6.17128 12.7087 6.22437 12.7881 6.2606 12.8756C6.29683 12.963 6.31546 13.0568 6.31546 13.1514C6.31546 13.2461 6.29683 13.3398 6.2606 13.4272C6.22437 13.5147 6.17128 13.5941 6.10433 13.6611L4.43003 15.3346C4.29501 15.4697 4.11185 15.5458 3.92079 15.5459Z" fill="#A7998F"/>
</svg>
