<svg width="30" height="30" viewBox="0 0 30 30" fill="none" xmlns="http://www.w3.org/2000/svg">
<g id="ico_dietary_nor">
<g id="Group 880">
<path id="Vector" d="M25.0939 11.8429H17.5093C16.6388 11.8538 15.778 11.6583 14.9975 11.2725C14.2125 11.6586 13.3474 11.854 12.4726 11.8429H4.90209C4.66284 11.8429 4.43339 11.7478 4.26422 11.5786C4.09504 11.4095 4 11.18 4 10.9408C4 10.7015 4.09504 10.4721 4.26422 10.3029C4.43339 10.1337 4.66284 10.0387 4.90209 10.0387H12.4726C12.7815 10.0401 13.0895 10.0065 13.3908 9.93845C12.846 9.23066 12.5462 8.36486 12.5368 7.47173C12.5378 6.82031 12.7955 6.19554 13.2541 5.73285C13.7126 5.27017 14.3351 5.00686 14.9865 5H15.0225C15.6739 5.00686 16.2964 5.27017 16.7549 5.73285C17.2135 6.19554 17.4712 6.82031 17.4722 7.47173C17.4619 8.36677 17.1595 9.23394 16.6112 9.94145C16.9072 10.0087 17.2098 10.0423 17.5133 10.0417H25.0979C25.3372 10.0417 25.5666 10.1367 25.7358 10.3059C25.905 10.4751 26 10.7045 26 10.9438C25.9996 11.0623 25.9758 11.1796 25.9301 11.289C25.8843 11.3984 25.8175 11.4976 25.7333 11.5811C25.6491 11.6646 25.5494 11.7307 25.4397 11.7756C25.3299 11.8205 25.2124 11.8434 25.0939 11.8429ZM15.0045 6.80418C14.8282 6.8055 14.6596 6.87639 14.5354 7.0014C14.4111 7.12642 14.3412 7.29546 14.341 7.47173C14.3527 8.06362 14.5888 8.62894 15.0015 9.05339C15.4173 8.63051 15.6558 8.06468 15.668 7.47173C15.6678 7.29546 15.5979 7.12642 15.4737 7.0014C15.3494 6.87639 15.1808 6.8055 15.0045 6.80418Z" fill="#B5C2B3"/>
<path id="Vector_2" d="M21.8581 25.3321H8.53818C7.49963 25.331 6.50392 24.918 5.76956 24.1836C5.03519 23.4493 4.62216 22.4536 4.62109 21.415V13.9497C4.62109 13.7104 4.71614 13.481 4.88531 13.3118C5.05449 13.1427 5.28394 13.0476 5.52318 13.0476H24.868C25.1073 13.0476 25.3367 13.1427 25.5059 13.3118C25.6751 13.481 25.7701 13.7104 25.7701 13.9497V21.415C25.7691 22.4527 25.3567 23.4476 24.6234 24.1819C23.8902 24.9161 22.8957 25.3297 21.8581 25.3321ZM6.42227 14.8518V21.415C6.42307 21.9757 6.64634 22.5131 7.04307 22.9092C7.43979 23.3054 7.97752 23.5279 8.53818 23.5279H21.8581C22.4182 23.5271 22.9551 23.3042 23.3512 22.9082C23.7473 22.5121 23.9702 21.9751 23.971 21.415V14.8518H6.42227Z" fill="#B5C2B3"/>
</g>
</g>
</svg>
