<svg width="21" height="21" viewBox="0 0 21 21" fill="none" xmlns="http://www.w3.org/2000/svg">
<g id="Group 1146">
<path id="Vector" d="M10.5 21C16.299 21 21 16.299 21 10.5C21 4.70101 16.299 0 10.5 0C4.70101 0 0 4.70101 0 10.5C0 16.299 4.70101 21 10.5 21Z" fill="#FDD734"/>
<path id="Vector_2" d="M10.4995 18.5298C14.9342 18.5298 18.5292 14.9348 18.5292 10.5001C18.5292 6.06537 14.9342 2.47034 10.4995 2.47034C6.06476 2.47034 2.46973 6.06537 2.46973 10.5001C2.46973 14.9348 6.06476 18.5298 10.4995 18.5298Z" fill="#F39D08"/>
<path id="Vector_3" d="M10.4995 3.66955C12.5241 3.66832 14.4742 4.43356 15.9577 5.81144C17.4411 7.18931 18.348 9.07767 18.496 11.0969C18.496 10.898 18.5292 10.699 18.5292 10.5001C18.5292 8.37045 17.6832 6.32806 16.1773 4.82219C14.6715 3.31632 12.6291 2.47034 10.4995 2.47034C8.36984 2.47034 6.32745 3.31632 4.82158 4.82219C3.31571 6.32806 2.46973 8.37045 2.46973 10.5001C2.46973 10.699 2.46973 10.898 2.50288 11.0969C2.65089 9.07767 3.55779 7.18931 5.04126 5.81144C6.52473 4.43356 8.4748 3.66832 10.4995 3.66955Z" fill="#E78101"/>
<path id="Vector_4" d="M7.81366 13.6776C7.29308 13.0971 7.02295 12.3343 7.06208 11.5555V7.60974H8.71997V11.7766C8.693 12.3133 8.82569 12.846 9.10129 13.3074C9.27192 13.5121 9.49173 13.6703 9.74013 13.7669C9.98853 13.8636 10.2574 13.8956 10.5216 13.86C10.7821 13.8897 11.0459 13.8549 11.2897 13.7585C11.5336 13.6621 11.7499 13.5072 11.9197 13.3074C12.2073 12.8445 12.3444 12.3039 12.3121 11.76V7.60974H13.97V11.5555C14.0082 12.3332 13.7404 13.095 13.2239 13.6776C12.7321 14.2303 11.8313 14.479 10.5381 14.479C9.24497 14.479 8.28892 14.2082 7.81366 13.6776Z" fill="#E78101"/>
<path id="Vector_5" d="M7.81366 13.1361C7.29308 12.5555 7.02295 11.7928 7.06208 11.014V7.06818H8.71997V11.235C8.69277 11.77 8.82551 12.301 9.10129 12.7603C9.27192 12.965 9.49173 13.1232 9.74013 13.2198C9.98853 13.3165 10.2574 13.3485 10.5216 13.3129C10.782 13.3417 11.0455 13.3064 11.2892 13.21C11.5329 13.1137 11.7493 12.9593 11.9197 12.7603C12.2059 12.2969 12.3429 11.7567 12.3121 11.2129V7.06818H13.97V11.014C14.0082 11.7917 13.7404 12.5534 13.2239 13.1361C12.7321 13.6887 11.8313 13.9319 10.5381 13.9319C9.24497 13.9319 8.28892 13.6666 7.81366 13.1361Z" fill="#FDD734"/>
<g id="Clip path group">
<mask id="mask0_1269_6195" style="mask-type:luminance" maskUnits="userSpaceOnUse" x="0" y="0" width="21" height="21">
<g id="clip-path">
<path id="Vector_6" d="M10.5 0C8.4233 0 6.39323 0.615814 4.66652 1.76957C2.9398 2.92332 1.59399 4.5632 0.799269 6.48182C0.00454946 8.40045 -0.203385 10.5116 0.201759 12.5484C0.606904 14.5852 1.60693 16.4562 3.07538 17.9246C4.54383 19.3931 6.41475 20.3931 8.45155 20.7982C10.4884 21.2034 12.5996 20.9954 14.5182 20.2007C16.4368 19.406 18.0767 18.0602 19.2304 16.3335C20.3842 14.6068 21 12.5767 21 10.5C21 7.71522 19.8938 5.04451 17.9246 3.07538C15.9555 1.10625 13.2848 0 10.5 0ZM10.5 18.5297C8.91187 18.5297 7.3594 18.0588 6.03892 17.1765C4.71844 16.2942 3.68925 15.0401 3.08149 13.5728C2.47374 12.1056 2.31473 10.4911 2.62456 8.93347C2.93439 7.37586 3.69914 5.9451 4.82212 4.82212C5.9451 3.69914 7.37586 2.93438 8.93348 2.62455C10.4911 2.31472 12.1056 2.47374 13.5728 3.08149C15.0401 3.68924 16.2942 4.71843 17.1765 6.03892C18.0588 7.3594 18.5297 8.91187 18.5297 10.5C18.5283 12.6292 17.6818 14.6707 16.1763 16.1763C14.6707 17.6818 12.6292 18.5283 10.5 18.5297Z" fill="white"/>
</g>
</mask>
<g mask="url(#mask0_1269_6195)">
<g id="Group">
<path id="Vector_7" d="M21.9856 1.63012L18.707 -1.64844L-0.710301 17.7689L2.56825 21.0474L21.9856 1.63012Z" fill="#FEEC9A"/>
<path id="Vector_8" d="M23.476 3.11753L22.374 2.01556L2.95669 21.4329L4.05866 22.5349L23.476 3.11753Z" fill="#FEEC9A"/>
<path id="Vector_9" d="M18.3139 -2.04335L17.2119 -3.14532L-2.20542 16.272L-1.10345 17.374L18.3139 -2.04335Z" fill="#FEEC9A"/>
</g>
</g>
</g>
</g>
</svg>
