<svg width="26" height="26" viewBox="0 0 26 26" fill="none" xmlns="http://www.w3.org/2000/svg">
<path d="M21.7606 20.716H13.063C12.3885 20.7177 11.7204 20.5857 11.0973 20.3276C10.4741 20.0694 9.90837 19.6904 9.43267 19.2122L5.20399 14.9827C4.66259 14.44 4.35855 13.7047 4.35855 12.9381C4.35855 12.1716 4.66259 11.4363 5.20399 10.8936L5.78158 10.3152C5.85406 10.2427 5.94011 10.1851 6.03483 10.1459C6.12954 10.1067 6.23105 10.0865 6.33358 10.0865C6.4361 10.0865 6.53761 10.1067 6.63233 10.1459C6.72704 10.1851 6.81309 10.2427 6.88558 10.3152C6.95808 10.3876 7.0156 10.4737 7.05484 10.5684C7.09408 10.6631 7.11428 10.7646 7.11428 10.8672C7.11428 10.9697 7.09408 11.0712 7.05484 11.1659C7.0156 11.2606 6.95808 11.3467 6.88558 11.4192L6.30713 11.9967C6.05811 12.2466 5.91829 12.585 5.91829 12.9377C5.91829 13.2905 6.05811 13.6288 6.30713 13.8787L10.5367 18.1082C10.8677 18.441 11.2614 18.7049 11.695 18.8846C12.1286 19.0642 12.5936 19.1561 13.063 19.155H20.98V16.5333C20.9787 16.0737 20.7955 15.6333 20.4705 15.3083C20.1455 14.9834 19.7051 14.8002 19.2455 14.7988H18.4191C18.2121 14.7986 18.0137 14.7163 17.8675 14.5699L15.1461 11.8502C12.135 11.8389 9.65816 11.6767 8.58885 10.6066C8.09273 10.1093 7.81275 9.43648 7.80966 8.73409C7.80658 8.03169 8.08064 7.35642 8.57237 6.85485L8.58104 6.84618L8.58885 6.83837L8.59752 6.8297C9.09923 6.33792 9.77465 6.06384 10.4772 6.06692C11.1797 6.07001 11.8527 6.35001 12.3501 6.84618L15.793 10.2891C16.1937 10.2891 16.59 10.2891 16.9734 10.2839C17.4573 10.2839 17.9447 10.2787 18.4295 10.2787C18.6365 10.2787 18.835 10.361 18.9814 10.5073C19.1278 10.6537 19.21 10.8522 19.21 11.0593C19.21 11.2663 19.1278 11.4648 18.9814 11.6112C18.835 11.7575 18.6365 11.8398 18.4295 11.8398C18.0687 11.8398 17.7079 11.8398 17.3471 11.8398L18.7347 13.2274H19.2377C20.1111 13.2294 20.9482 13.5773 21.5658 14.1949C22.1833 14.8125 22.5312 15.6495 22.5333 16.5229V19.9251C22.5346 20.0278 22.5157 20.1298 22.4776 20.2252C22.4395 20.3206 22.3829 20.4075 22.3111 20.481C22.2393 20.5545 22.1537 20.6131 22.0593 20.6534C21.9648 20.6937 21.8633 20.715 21.7606 20.716ZM9.68851 7.94758C9.48176 8.15472 9.36564 8.43543 9.36564 8.7281C9.36564 9.02076 9.48176 9.30147 9.68851 9.50862C10.1941 10.0151 11.7534 10.2024 13.5503 10.264L11.2461 7.94758C11.1438 7.8449 11.0221 7.76353 10.8881 7.70815C10.7541 7.65278 10.6105 7.6245 10.4656 7.62496C10.3212 7.62487 10.1782 7.65332 10.0448 7.70868C9.91147 7.76405 9.79038 7.84524 9.68851 7.94758Z" fill="#1A342B"/>
<path d="M14.975 14.6001H12.5398C12.3328 14.6001 12.1342 14.5179 11.9879 14.3715C11.8415 14.2251 11.7592 14.0266 11.7592 13.8196C11.7592 13.6126 11.8415 13.4141 11.9879 13.2677C12.1342 13.1213 12.3328 13.0391 12.5398 13.0391H14.975C15.182 13.0391 15.3805 13.1213 15.5269 13.2677C15.6733 13.4141 15.7555 13.6126 15.7555 13.8196C15.7555 14.0266 15.6733 14.2251 15.5269 14.3715C15.3805 14.5179 15.182 14.6001 14.975 14.6001Z" fill="#1A342B"/>
<path d="M7.64766 20.7163H4.2472C4.04019 20.7163 3.84166 20.6341 3.69528 20.4877C3.54891 20.3413 3.46667 20.1428 3.46667 19.9358C3.46667 19.7288 3.54891 19.5303 3.69528 19.3839C3.84166 19.2375 4.04019 19.1553 4.2472 19.1553H7.64766C7.85466 19.1553 8.0532 19.2375 8.19957 19.3839C8.34595 19.5303 8.42818 19.7288 8.42818 19.9358C8.42818 20.1428 8.34595 20.3413 8.19957 20.4877C8.0532 20.6341 7.85466 20.7163 7.64766 20.7163Z" fill="#1A342B"/>
<path d="M5.19683 18.1143H4.2472C4.04019 18.1143 3.84166 18.032 3.69528 17.8857C3.54891 17.7393 3.46667 17.5407 3.46667 17.3337C3.46667 17.1267 3.54891 16.9282 3.69528 16.7818C3.84166 16.6355 4.04019 16.5532 4.2472 16.5532H5.19683C5.40384 16.5532 5.60236 16.6355 5.74874 16.7818C5.89512 16.9282 5.97735 17.1267 5.97735 17.3337C5.97735 17.4362 5.95716 17.5377 5.91793 17.6324C5.87871 17.7271 5.82122 17.8132 5.74874 17.8857C5.67626 17.9581 5.59022 18.0156 5.49552 18.0549C5.40082 18.0941 5.29933 18.1143 5.19683 18.1143Z" fill="#1A342B"/>
</svg>
