<svg width="30" height="30" viewBox="0 0 30 30" fill="none" xmlns="http://www.w3.org/2000/svg">
<g id="ico_bottom_plan_nor">
<g id="Group 694">
<path id="Vector" d="M23.4848 26C23.2459 26 23.0167 25.9051 22.8478 25.7362C22.6789 25.5672 22.584 25.3381 22.584 25.0992V5.80166H14.9991C14.3648 5.79941 13.7405 5.95843 13.1846 6.26378C12.6287 6.56913 12.1595 7.01078 11.8212 7.54724C13.1724 7.7224 14.4105 8.33896 15.1993 9.32386C16.2282 10.602 16.2092 12.3006 15.1572 13.3755L15.1422 13.3916C14.5917 13.9407 13.8459 14.249 13.0683 14.249C12.2908 14.249 11.545 13.9407 10.9944 13.3916C10.869 13.2645 10.7504 13.1308 10.6391 12.9912C9.85766 12.0338 9.42713 10.8379 9.41901 9.60211C7.72948 10.2777 6.80164 11.9562 6.80164 14.3514V24.1984H20.2428C20.4818 24.1984 20.7109 24.2933 20.8798 24.4622C21.0488 24.6311 21.1437 24.8603 21.1437 25.0992C21.1437 25.3381 21.0488 25.5672 20.8798 25.7362C20.7109 25.9051 20.4818 26 20.2428 26H5.90082C5.66191 26 5.43278 25.9051 5.26384 25.7362C5.09491 25.5672 5 25.3381 5 25.0992V14.3514C5 9.74724 7.78453 8.26489 8.98162 7.84551C9.24299 7.75305 9.51056 7.67913 9.78234 7.62432C9.83706 7.47818 9.89878 7.33338 9.96751 7.18992C10.415 6.23401 11.1264 5.4259 12.0178 4.86076C12.9092 4.29562 13.9436 3.99698 14.9991 4.00002H23.4848C23.7237 4.00002 23.9528 4.09493 24.1218 4.26387C24.2907 4.4328 24.3856 4.66193 24.3856 4.90084V25.0992C24.3856 25.2175 24.3623 25.3346 24.317 25.4439C24.2718 25.5532 24.2054 25.6525 24.1218 25.7362C24.0381 25.8198 23.9388 25.8862 23.8295 25.9314C23.7202 25.9767 23.6031 26 23.4848 26ZM11.2257 9.30884C11.1578 10.2315 11.4494 11.1446 12.0394 11.8572C12.1115 11.9466 12.1884 12.0321 12.2696 12.1134C12.4804 12.3238 12.7656 12.4427 13.0635 12.4443C13.3613 12.446 13.6478 12.3304 13.861 12.1224C14.3495 11.635 14.1693 10.9133 13.797 10.4499C13.2465 9.76626 12.2656 9.35889 11.2257 9.30884Z" fill="#B5C2B3"/>
<path id="Vector_2" d="M19.5622 17.7996H9.8264C9.58749 17.7996 9.35837 17.7047 9.18943 17.5357C9.02049 17.3668 8.92559 17.1377 8.92559 16.8987C8.92559 16.6598 9.02049 16.4307 9.18943 16.2618C9.35837 16.0928 9.58749 15.9979 9.8264 15.9979H19.5622C19.8012 15.9979 20.0303 16.0928 20.1992 16.2618C20.3682 16.4307 20.4631 16.6598 20.4631 16.8987C20.4631 17.1377 20.3682 17.3668 20.1992 17.5357C20.0303 17.7047 19.8012 17.7996 19.5622 17.7996Z" fill="#B5C2B3"/>
<path id="Vector_3" d="M16.4244 21.2026H9.8264C9.58749 21.2026 9.35837 21.1077 9.18943 20.9388C9.02049 20.7699 8.92559 20.5407 8.92559 20.3018C8.92559 20.0629 9.02049 19.8338 9.18943 19.6648C9.35837 19.4959 9.58749 19.401 9.8264 19.401H16.4244C16.6633 19.401 16.8924 19.4959 17.0614 19.6648C17.2303 19.8338 17.3252 20.0629 17.3252 20.3018C17.3252 20.5407 17.2303 20.7699 17.0614 20.9388C16.8924 21.1077 16.6633 21.2026 16.4244 21.2026Z" fill="#B5C2B3"/>
</g>
</g>
</svg>
