<svg width="30" height="30" viewBox="0 0 30 30" fill="none" xmlns="http://www.w3.org/2000/svg">
<g id="ico_bottom_plan_sel">
<g id="Group 872">
<path id="Vector" d="M20.1628 17.7964H9.22441C8.98547 17.7964 8.75631 17.7015 8.58735 17.5326C8.41839 17.3636 8.32347 17.1345 8.32347 16.8955C8.32347 16.6566 8.41839 16.4274 8.58735 16.2584C8.75631 16.0895 8.98547 15.9946 9.22441 15.9946H20.1628C20.4018 15.9946 20.6309 16.0895 20.7999 16.2584C20.9688 16.4274 21.0638 16.6566 21.0638 16.8955C21.0638 17.1345 20.9688 17.3636 20.7999 17.5326C20.6309 17.7015 20.4018 17.7964 20.1628 17.7964Z" fill="#456C51"/>
<path id="Vector_2" d="M17.0245 21.2H9.22441C8.98547 21.2 8.75631 21.1051 8.58735 20.9361C8.41839 20.7671 8.32347 20.538 8.32347 20.299C8.32347 20.0601 8.41839 19.8309 8.58735 19.662C8.75631 19.493 8.98547 19.3981 9.22441 19.3981H17.0245C17.2635 19.3981 17.4927 19.493 17.6616 19.662C17.8306 19.8309 17.9255 20.0601 17.9255 20.299C17.9255 20.538 17.8306 20.7671 17.6616 20.9361C17.4927 21.1051 17.2635 21.2 17.0245 21.2Z" fill="#456C51"/>
<path id="Vector_3" d="M23.4853 25.999C23.2463 25.999 23.0172 25.9041 22.8482 25.7351C22.6793 25.5662 22.5843 25.337 22.5843 25.0981V5.79791H14.9984C14.3642 5.79546 13.7397 5.95432 13.1838 6.25954C12.6278 6.56476 12.1585 7.00632 11.8201 7.54274C13.1715 7.71792 14.4098 8.33556 15.1996 9.31558C16.2307 10.5969 16.2087 12.2987 15.1536 13.3738L15.1426 13.3848L15.1346 13.3928L15.1246 13.4029C14.5722 13.9439 13.8289 14.2455 13.0557 14.2421C12.2825 14.2387 11.5418 13.9307 10.9943 13.3848C10.8691 13.2575 10.7505 13.1238 10.6389 12.9844C9.85703 12.027 9.42641 10.8309 9.41861 9.59488C7.72785 10.2746 6.80188 11.9533 6.80188 14.3498V25.0991C6.80188 25.338 6.70696 25.5672 6.538 25.7361C6.36904 25.9051 6.13988 26 5.90094 26C5.662 26 5.43284 25.9051 5.26388 25.7361C5.09492 25.5672 5 25.338 5 25.0991V14.3498C5 9.74504 7.78391 8.26249 8.98115 7.84305C9.24277 7.75149 9.51034 7.67791 9.78199 7.62283C9.83738 7.47667 9.89911 7.33185 9.96718 7.18836C10.4151 6.23209 11.1271 5.42383 12.0192 4.85892C12.9114 4.29401 13.9465 3.996 15.0024 4.00004H23.4893C23.7282 4.00004 23.9574 4.09497 24.1264 4.26393C24.2953 4.43289 24.3902 4.66204 24.3902 4.90098V25.1021C24.3897 25.2204 24.3659 25.3374 24.3201 25.4465C24.2744 25.5556 24.2076 25.6547 24.1235 25.738C24.0395 25.8212 23.9399 25.8872 23.8304 25.9319C23.7209 25.9767 23.6036 25.9995 23.4853 25.999ZM11.2245 9.30558C11.1571 10.2283 11.4487 11.1413 12.0383 11.8542C12.1105 11.9437 12.1874 12.0292 12.2686 12.1105C12.4811 12.3227 12.7691 12.442 13.0694 12.442C13.3697 12.442 13.6578 12.3227 13.8703 12.1105C14.3528 11.622 14.1706 10.9042 13.8012 10.4418C13.2456 9.76205 12.2646 9.35563 11.2245 9.30558Z" fill="#456C51"/>
<path id="Vector_4" d="M20.2429 25.999H9.22441C8.98547 25.999 8.75631 25.9041 8.58735 25.7351C8.41839 25.5662 8.32347 25.337 8.32347 25.0981C8.32347 24.8591 8.41839 24.6299 8.58735 24.461C8.75631 24.292 8.98547 24.1971 9.22441 24.1971H20.2429C20.4819 24.1971 20.711 24.292 20.88 24.461C21.0489 24.6299 21.1438 24.8591 21.1438 25.0981C21.1438 25.337 21.0489 25.5662 20.88 25.7351C20.711 25.9041 20.4819 25.999 20.2429 25.999Z" fill="#456C51"/>
</g>
</g>
</svg>
