<svg width="26" height="26" viewBox="0 0 26 26" fill="none" xmlns="http://www.w3.org/2000/svg">
<path d="M20.3449 19.0725C21.7616 17.3664 22.5362 15.2182 22.5342 13.0006C22.5341 11.4878 22.1737 9.99684 21.4828 8.65105C20.792 7.30526 19.7906 6.14335 18.5614 5.26149C18.5379 5.24239 18.5133 5.22472 18.4877 5.20857C16.8833 4.07341 14.9658 3.46477 13.0005 3.4668C11.0339 3.46428 9.11531 4.0736 7.51058 5.21031C7.48418 5.22675 7.45896 5.24501 7.4351 5.26496C6.20721 6.1469 5.20687 7.30845 4.51681 8.65358C3.82675 9.9987 3.46679 11.4888 3.46668 13.0006C3.46465 15.2182 4.23928 17.3665 5.65606 19.0725C5.68367 19.1116 5.71472 19.1482 5.74885 19.1818C6.64247 20.2326 7.75381 21.0766 9.00594 21.6553C10.2581 22.234 11.6211 22.5337 13.0005 22.5335C14.3797 22.5338 15.7426 22.2342 16.9946 21.6554C18.2466 21.0767 19.3578 20.2326 20.2512 19.1818C20.286 19.1486 20.3174 19.112 20.3449 19.0725ZM20.2277 16.3635C19.7784 15.3278 18.944 14.2505 17.9326 13.0179C17.1467 12.0638 16.6314 11.1096 16.3981 10.2205C18.0184 10.6178 19.555 11.3007 20.9356 12.2372C20.9599 12.4879 20.9729 12.7429 20.9729 13.0006C20.9733 14.1628 20.718 15.311 20.2252 16.3635H20.2277ZM13.7811 8.26968V5.06632C14.6423 5.14992 15.4839 5.37439 16.2723 5.73076C15.7598 6.09138 15.3563 6.58587 15.1057 7.16026C14.9393 7.53916 14.8226 7.93802 14.7587 8.34688C14.4349 8.31161 14.1081 8.28587 13.7785 8.26968H13.7811ZM11.2439 8.34688C11.18 7.93802 11.0634 7.53916 10.897 7.16026C10.6464 6.58587 10.2428 6.09138 9.73028 5.73076C10.5187 5.37424 11.3603 5.14976 12.2215 5.06632V8.26968C11.8919 8.28587 11.5651 8.31161 11.2413 8.34688H11.2439ZM20.4299 10.1086C19.1307 9.41096 17.7391 8.90133 16.2966 8.59496C16.3402 8.31842 16.4195 8.04871 16.5325 7.7926C16.6543 7.51778 16.8386 7.27516 17.0707 7.08407C17.3027 6.89297 17.5762 6.75868 17.8692 6.69185C19.0165 7.57824 19.902 8.75903 20.4316 10.1086H20.4299ZM8.13166 6.69185C8.42472 6.75874 8.69812 6.89306 8.93017 7.08415C9.16221 7.27523 9.34647 7.51781 9.46832 7.7926C9.5806 8.049 9.6599 8.3186 9.70428 8.59496C8.26183 8.90133 6.8702 9.41096 5.57105 10.1086C6.09945 8.75954 6.9834 7.57881 8.12904 6.69185H8.13166ZM5.06445 12.2372C6.44549 11.3009 7.98229 10.618 9.6028 10.2205C9.36946 11.1131 8.85335 12.0603 8.06834 13.0179C7.05607 14.2505 6.22244 15.3278 5.77312 16.3635C5.28113 15.3108 5.02677 14.1626 5.02803 13.0006C5.02542 12.7429 5.03845 12.4879 5.06187 12.2372H5.06445ZM7.0075 18.2519C6.8236 17.3463 7.39086 16.3046 9.27489 14.0085C10.5561 12.4472 11.0965 11.0645 11.2552 9.91777C11.5744 9.87903 11.8959 9.85011 12.2198 9.83103V20.9339C10.2036 20.7358 8.33875 19.7767 7.00487 18.2519H7.0075ZM13.7811 20.9348V9.8319C14.1044 9.84925 14.4259 9.87816 14.7457 9.91864C14.9044 11.0654 15.4448 12.4489 16.726 14.0094C18.61 16.3046 19.1773 17.3472 18.9934 18.2528C17.6595 19.7775 15.7947 20.7366 13.7785 20.9348H13.7811Z" fill="#A7998F"/>
</svg>
