<svg width="16" height="16" viewBox="0 0 16 16" fill="none" xmlns="http://www.w3.org/2000/svg">
<g id="Group 1357">
<path id="Vector" d="M6.8519 9.7881C6.67839 9.78814 6.51198 9.71932 6.38917 9.59675C6.32334 9.53096 6.27226 9.4519 6.23939 9.36483C6.20652 9.27776 6.1926 9.18469 6.19854 9.09181L6.35279 6.68207C6.36299 6.52314 6.43074 6.37337 6.54339 6.26081L12.6121 0.191353C12.673 0.130575 12.7453 0.082392 12.8248 0.0495587C12.9043 0.0167253 12.9896 -0.000114847 13.0756 5.89469e-07C13.2491 -3.95759e-05 13.4155 0.0687827 13.5383 0.191353L15.7938 2.44684C15.8546 2.50765 15.9029 2.57985 15.9358 2.65931C15.9687 2.73877 15.9857 2.82394 15.9857 2.90995C15.9857 2.99596 15.9687 3.08112 15.9358 3.16058C15.9029 3.24005 15.8546 3.31224 15.7938 3.37305L9.72438 9.4425C9.61181 9.55516 9.46204 9.62293 9.30311 9.63313L6.89336 9.78737L6.8519 9.7881ZM7.6435 7.0153L7.55255 8.43553L8.97353 8.34459L14.4049 2.91322L13.0756 1.58321L7.6435 7.0153Z" fill="#1A342B"/>
<path id="Vector_2" d="M2.04475 15.9985C1.24951 15.9985 0.764965 15.6245 0.524864 15.367C0.295138 15.116 0.133196 14.8105 0.0543904 14.4795C-0.0244153 14.1485 -0.0174769 13.8029 0.0744983 13.4753C0.292772 12.7361 0.802053 12.2035 1.54273 11.935C2.22156 11.6891 3.07645 11.6782 4.04704 11.8841C4.25076 11.1907 4.55056 10.5017 5.18864 10.0353C5.25827 9.98468 5.33717 9.9483 5.42088 9.92822C5.50458 9.90814 5.59144 9.90476 5.67645 9.91828C5.76147 9.93179 5.84298 9.96194 5.91633 10.007C5.98968 10.052 6.05341 10.1111 6.10391 10.1808C6.15452 10.2504 6.1909 10.3294 6.21098 10.4131C6.23106 10.4968 6.23445 10.5836 6.22093 10.6686C6.20741 10.7536 6.17727 10.8352 6.13222 10.9085C6.08717 10.9819 6.0281 11.0456 5.95839 11.0961C5.62953 11.3355 5.44909 11.7589 5.30357 12.2508C6.37966 12.64 7.54888 13.2468 8.7472 14.0523C10.2518 15.0629 12.364 14.8671 15.0262 13.4702C15.18 13.3895 15.3595 13.3733 15.5253 13.425C15.6911 13.4767 15.8296 13.5922 15.9102 13.7459C15.9909 13.8997 16.0071 14.0793 15.9554 14.2451C15.9037 14.4108 15.7882 14.5493 15.6345 14.6299C12.5139 16.2663 9.95061 16.4373 8.01671 15.1393C6.86859 14.368 5.84492 13.8485 4.96746 13.5204C4.66406 14.5506 4.14819 15.6114 2.66248 15.933C2.4595 15.9768 2.2524 15.9988 2.04475 15.9985ZM2.77233 13.0489C2.50621 13.0427 2.241 13.0818 1.98801 13.1646C1.63805 13.2912 1.42996 13.5066 1.33319 13.842C1.3037 13.9519 1.30224 14.0674 1.32893 14.1779C1.35562 14.2885 1.40963 14.3907 1.48599 14.475C1.72245 14.7289 2.10734 14.71 2.38818 14.6489C3.17687 14.4779 3.46717 13.9839 3.71164 13.1501C3.40259 13.0858 3.08798 13.0519 2.77233 13.0489Z" fill="#1A342B"/>
</g>
</svg>
