<svg width="18" height="18" viewBox="0 0 18 18" fill="none" xmlns="http://www.w3.org/2000/svg">
<g id="Group 1309">
<path id="Vector" d="M8.99926 0.933594C6.86069 0.935731 4.81033 1.78622 3.29814 3.29841C1.78594 4.8106 0.935487 6.86096 0.93335 8.99953C0.935098 11.1383 1.7854 13.1891 3.29763 14.7016C4.80987 16.2141 6.86044 17.0648 8.99926 17.0669C11.1381 17.065 13.1888 16.2145 14.7011 14.7021C16.2135 13.1897 17.064 11.1391 17.066 9.00026C17.064 6.86144 16.2135 4.81078 14.7011 3.29841C13.1888 1.78604 11.1381 0.935537 8.99926 0.933594ZM2.25455 8.99953C2.25469 7.94542 2.50204 6.90604 2.97676 5.96489C3.45148 5.02373 4.14032 4.20703 4.98795 3.5804L4.98354 3.58994C4.9696 3.62444 4.95565 3.65967 4.94243 3.69417C4.92922 3.72867 4.91674 3.75729 4.90426 3.78959C4.89179 3.82189 4.88006 3.86299 4.86832 3.89602C4.85657 3.92905 4.84555 3.96061 4.83527 3.99291C4.825 4.0252 4.81401 4.06631 4.80373 4.10154C4.79346 4.13677 4.78391 4.1676 4.7751 4.20136C4.76629 4.23513 4.75821 4.27476 4.7494 4.31293C4.74059 4.3511 4.73327 4.37973 4.72593 4.41349C4.71859 4.44725 4.71198 4.48689 4.70464 4.52946C4.6973 4.57203 4.69214 4.59552 4.687 4.62929C4.68187 4.66305 4.67601 4.71296 4.67088 4.7548C4.66574 4.79664 4.66206 4.81719 4.65912 4.84875C4.65398 4.89646 4.65103 4.94564 4.64736 4.99555C4.64736 5.02124 4.64299 5.04693 4.64152 5.06895C4.63785 5.14235 4.63636 5.21575 4.63636 5.29429C4.63733 6.45117 5.0973 7.56041 5.91527 8.37851C6.73324 9.19662 7.84237 9.65676 8.99926 9.65793C9.80586 9.6589 10.5792 9.97975 11.1495 10.5501C11.7199 11.1205 12.0407 11.8938 12.0417 12.7004C12.0417 13.5075 11.7212 14.2817 11.1508 14.8527C10.5803 15.4238 9.80643 15.7449 8.99926 15.7457C7.21084 15.7436 5.49633 15.0321 4.23187 13.7674C2.96741 12.5026 2.2563 10.7879 2.25455 8.99953ZM13.0113 14.4194L13.015 14.4091C13.0297 14.3746 13.0429 14.3401 13.0568 14.3056C13.0708 14.2711 13.0825 14.2425 13.0942 14.2102C13.106 14.1779 13.1185 14.1368 13.1309 14.1045C13.1434 14.0722 13.1537 14.0392 13.164 14.0061C13.1743 13.9731 13.1845 13.9327 13.1948 13.8982C13.2051 13.8637 13.2146 13.8315 13.2235 13.7984C13.2323 13.7654 13.2411 13.725 13.2499 13.6869C13.2587 13.6487 13.266 13.6201 13.2726 13.5863C13.2792 13.5525 13.2873 13.5085 13.2939 13.4696C13.3005 13.4307 13.3064 13.4035 13.3123 13.3698C13.3181 13.336 13.3225 13.2876 13.3277 13.2465C13.3328 13.2054 13.3365 13.1826 13.3401 13.151C13.3446 13.1041 13.3475 13.0571 13.3511 13.0101C13.3511 12.9829 13.3556 12.9558 13.357 12.9279C13.3607 12.8545 13.3629 12.7811 13.3629 12.7026C13.3615 11.5457 12.9014 10.4366 12.0833 9.61851C11.2653 8.80046 10.1561 8.34029 8.99926 8.33893C8.19272 8.33795 7.4195 8.01708 6.84926 7.4467C6.27902 6.87632 5.95834 6.10303 5.95756 5.29649C5.95853 4.49008 6.27933 3.71698 6.84955 3.14676C7.41976 2.57654 8.19285 2.25577 8.99926 2.25479C10.7875 2.25674 12.5021 2.96794 13.7666 4.23238C15.0312 5.49682 15.7426 7.21124 15.7448 8.99953C15.7447 10.0538 15.4974 11.0933 15.0227 12.0346C14.548 12.9759 13.859 13.7927 13.0113 14.4194Z" fill="#1A342B"/>
<path id="Vector_2" d="M8.96265 3.48242C8.47921 3.48281 8.01569 3.67503 7.67385 4.01687C7.33201 4.35871 7.13979 4.82224 7.1394 5.30568C7.13979 5.78912 7.33201 6.25264 7.67385 6.59449C8.01569 6.93633 8.47921 7.12855 8.96265 7.12894C9.44616 7.12855 9.90978 6.93635 10.2517 6.59453C10.5937 6.25271 10.7861 5.78919 10.7866 5.30568C10.7861 4.82217 10.5937 4.35865 10.2517 4.01683C9.90978 3.675 9.44616 3.48281 8.96265 3.48242ZM8.96265 5.80774C8.82956 5.80754 8.70198 5.75458 8.60787 5.66047C8.51376 5.56636 8.4608 5.43877 8.46061 5.30568C8.4608 5.17259 8.51376 5.045 8.60787 4.95089C8.70198 4.85677 8.82956 4.80382 8.96265 4.80362C9.09587 4.80362 9.22366 4.85649 9.31793 4.95063C9.4122 5.04476 9.46525 5.17246 9.46545 5.30568C9.46525 5.4389 9.4122 5.5666 9.31793 5.66073C9.22366 5.75486 9.09587 5.80774 8.96265 5.80774Z" fill="#1A342B"/>
<path id="Vector_3" d="M10.7866 12.7022C10.7861 12.2187 10.5937 11.7551 10.2517 11.4133C9.90978 11.0715 9.44616 10.8793 8.96265 10.8789C8.47921 10.8793 8.01569 11.0715 7.67385 11.4134C7.33201 11.7552 7.13979 12.2187 7.1394 12.7022C7.13979 13.1857 7.33199 13.6493 7.67381 13.9912C8.01563 14.3332 8.47914 14.5256 8.96265 14.5262C9.44622 14.5256 9.90984 14.3332 10.2518 13.9913C10.5937 13.6493 10.7861 13.1857 10.7866 12.7022ZM8.96265 13.205C8.82949 13.2046 8.70193 13.1514 8.60784 13.0572C8.51374 12.963 8.4608 12.8353 8.46061 12.7022C8.4608 12.5691 8.51376 12.4415 8.60787 12.3474C8.70198 12.2533 8.82956 12.2003 8.96265 12.2001C9.09587 12.2001 9.22366 12.253 9.31793 12.3471C9.4122 12.4412 9.46525 12.5689 9.46545 12.7022C9.46525 12.8355 9.41222 12.9632 9.31797 13.0575C9.22372 13.1517 9.09594 13.2048 8.96265 13.205Z" fill="#1A342B"/>
</g>
</svg>
