<svg width="30" height="30" viewBox="0 0 30 30" fill="none" xmlns="http://www.w3.org/2000/svg">
<g id="ico_bottom_log_nor">
<g id="Group 843">
<path id="Vector" d="M21.4714 4.00006H11.4544C10.6101 3.99566 9.78182 4.23006 9.06503 4.67621C8.34824 5.12237 7.77221 5.7621 7.40339 6.52158C7.29529 6.55161 7.18718 6.58464 7.08007 6.62168C5.15115 7.30136 4 9.19424 4 11.6867V21.4795C4 22.6742 4.47458 23.8199 5.31934 24.6646C6.16409 25.5094 7.30983 25.984 8.50449 25.984H13.3894C13.6283 25.984 13.8574 25.8891 14.0264 25.7201C14.1953 25.5512 14.2903 25.322 14.2903 25.0831C14.2903 24.8442 14.1953 24.615 14.0264 24.4461C13.8574 24.2771 13.6283 24.1822 13.3894 24.1822H8.50449C7.78769 24.1822 7.10025 23.8974 6.5934 23.3906C6.08654 22.8837 5.8018 22.1963 5.8018 21.4795V11.6867C5.8018 10.8269 5.97897 9.40746 7.03903 8.65071C7.13323 9.40872 7.4463 10.1229 7.93993 10.7058C8.01901 10.8059 8.10109 10.8909 8.18417 10.974C8.40283 11.1938 8.6629 11.3679 8.94933 11.4865C9.23575 11.605 9.54285 11.6656 9.85284 11.6647C10.4719 11.6667 11.0667 11.4238 11.5075 10.989L11.5165 10.98C12.3663 10.1142 12.3884 8.7508 11.5665 7.72978C11.0637 7.12372 10.3776 6.69729 9.61159 6.51458C10.1144 6.06223 10.7671 5.81255 11.4434 5.81388H21.4714C22.1882 5.81388 22.8757 6.09862 23.3825 6.60548C23.8894 7.11233 24.1741 7.79978 24.1741 8.51658V21.4955C24.1741 22.2123 23.8894 22.8998 23.3825 23.4066C22.8757 23.9135 22.1882 24.1982 21.4714 24.1982H16.6286C16.3897 24.1982 16.1605 24.2931 15.9916 24.4621C15.8226 24.631 15.7277 24.8602 15.7277 25.0991C15.7277 25.338 15.8226 25.5672 15.9916 25.7361C16.1605 25.9051 16.3897 26 16.6286 26H21.4714C22.6661 26 23.8118 25.5254 24.6566 24.6807C25.5013 23.8359 25.9759 22.6902 25.9759 21.4955V8.50156C25.9751 7.30741 25.5002 6.16245 24.6555 5.31834C23.8108 4.47424 22.6656 4.00006 21.4714 4.00006ZM10.1722 8.84389C10.3253 9.03408 10.5115 9.42848 10.2402 9.70376C10.1356 9.80755 9.9942 9.86579 9.84683 9.86579C9.69946 9.86579 9.55806 9.80755 9.45344 9.70376C9.40724 9.65803 9.36347 9.60991 9.32231 9.55961C8.99448 9.17888 8.81499 8.69267 8.8168 8.19025C9.37136 8.2423 9.87386 8.47252 10.1732 8.84389H10.1722Z" fill="#B5C2B3"/>
<path id="Vector_2" d="M15.9089 16.5035H18.6767C18.9156 16.5035 19.1447 16.4086 19.3137 16.2397C19.4826 16.0707 19.5776 15.8416 19.5776 15.6026C19.5776 15.3637 19.4826 15.1346 19.3137 14.9656C19.1447 14.7967 18.9156 14.7017 18.6767 14.7017H15.9089V11.934C15.9089 11.695 15.814 11.4659 15.645 11.297C15.4761 11.128 15.2469 11.0331 15.008 11.0331C14.7691 11.0331 14.5399 11.128 14.371 11.297C14.202 11.4659 14.1071 11.695 14.1071 11.934V14.7017H11.3393C11.1004 14.7017 10.8713 14.7967 10.7023 14.9656C10.5334 15.1346 10.4384 15.3637 10.4384 15.6026C10.4384 15.8416 10.5334 16.0707 10.7023 16.2397C10.8713 16.4086 11.1004 16.5035 11.3393 16.5035H14.1071V19.2713C14.1071 19.5102 14.202 19.7394 14.371 19.9083C14.5399 20.0773 14.7691 20.1722 15.008 20.1722C15.2469 20.1722 15.4761 20.0773 15.645 19.9083C15.814 19.7394 15.9089 19.5102 15.9089 19.2713V16.5035Z" fill="#B5C2B3"/>
</g>
</g>
</svg>
