<svg width="22" height="22" viewBox="0 0 22 22" fill="none" xmlns="http://www.w3.org/2000/svg">
<path d="M16.527 18.7883H5.47341C5.04052 18.7896 4.61455 18.6865 4.23648 18.4889C3.85841 18.2912 3.54097 18.0056 3.3147 17.6597C3.08578 17.3152 2.95531 16.9212 2.93589 16.5157C2.91646 16.1103 3.00873 15.7069 3.20379 15.3446L8.73167 4.98189C8.94111 4.58575 9.26476 4.25257 9.66592 4.0201C10.0671 3.78764 10.5297 3.6652 11.0013 3.66668C11.4729 3.6652 11.9355 3.78764 12.3366 4.0201C12.7378 4.25257 13.0615 4.58575 13.2709 4.98189L18.7966 15.3446C18.9915 15.707 19.0837 16.1104 19.0641 16.5158C19.0446 16.9213 18.914 17.3152 18.6849 17.6597C18.4587 18.0055 18.1414 18.291 17.7635 18.4887C17.3855 18.6863 16.9597 18.7895 16.527 18.7883ZM11.0013 4.90615C10.775 4.90377 10.5527 4.96172 10.3602 5.07328C10.1677 5.18483 10.0131 5.34539 9.91422 5.53621L4.38634 15.8989C4.29135 16.0721 4.24626 16.2656 4.25553 16.4602C4.26481 16.6547 4.32812 16.8437 4.43922 17.0083C4.5465 17.175 4.69833 17.3125 4.87972 17.4073C5.0611 17.5021 5.26575 17.5509 5.47341 17.5488H16.527C16.7346 17.551 16.9393 17.5023 17.1208 17.4075C17.3022 17.3127 17.454 17.1751 17.5611 17.0083C17.6723 16.8437 17.7358 16.6548 17.7452 16.4603C17.7546 16.2657 17.7096 16.0722 17.6148 15.8989L12.0891 5.53621C11.9902 5.34539 11.8356 5.18483 11.6431 5.07328C11.4506 4.96172 11.2283 4.90377 11.002 4.90615H11.0013Z" fill="#FD8A5E"/>
<path d="M10.9962 15.8833C10.8802 15.8874 10.7646 15.8695 10.6562 15.8306C10.5478 15.7918 10.4488 15.7329 10.3653 15.6575C10.2854 15.5857 10.2223 15.4992 10.18 15.4035C10.1376 15.3077 10.1169 15.2047 10.1192 15.1011C10.1169 14.9973 10.1375 14.8942 10.1799 14.7983C10.2222 14.7024 10.2854 14.6158 10.3653 14.544C10.449 14.4687 10.5479 14.41 10.6563 14.3713C10.7647 14.3327 10.8803 14.3148 10.9962 14.3188C11.1148 14.3135 11.2333 14.3307 11.3446 14.3694C11.4559 14.4081 11.5578 14.4675 11.644 14.544C11.7225 14.6166 11.7843 14.7034 11.8256 14.7992C11.8669 14.895 11.8868 14.9978 11.8842 15.1011C11.8867 15.2043 11.8667 15.3068 11.8254 15.4025C11.7841 15.4982 11.7224 15.5849 11.644 15.6575C11.558 15.7343 11.4563 15.794 11.3449 15.8328C11.2335 15.8717 11.1149 15.8889 10.9962 15.8833ZM10.3968 13.5462L10.2367 8.81211H11.788L11.6168 13.5462H10.3968Z" fill="#FD8A5E"/>
</svg>
