<svg width="44" height="45" viewBox="0 0 44 45" fill="none" xmlns="http://www.w3.org/2000/svg">
<g id="Group 1226">
<path id="Vector" d="M16.4391 9.40514C15.1924 9.40355 13.9973 8.90757 13.1157 8.02601C12.2341 7.14445 11.7382 5.94928 11.7366 4.70257C11.7382 3.45586 12.2341 2.26063 13.1157 1.37907C13.9973 0.497515 15.1924 0.00158851 16.4391 0C17.686 0.00105982 18.8815 0.496814 19.7632 1.37849C20.6449 2.26016 21.1406 3.45569 21.1417 4.70257C21.1406 5.94944 20.6449 7.14493 19.7632 8.0266C18.8815 8.90827 17.686 9.40408 16.4391 9.40514ZM16.4391 2.00109C15.723 2.00215 15.0365 2.28707 14.5301 2.79347C14.0237 3.29986 13.7387 3.98642 13.7377 4.70257C13.7387 5.41872 14.0237 6.10522 14.5301 6.61162C15.0365 7.11801 15.723 7.40298 16.4391 7.40404C17.1555 7.40351 17.8423 7.11871 18.3488 6.6122C18.8553 6.10569 19.1401 5.41888 19.1406 4.70257C19.1401 3.98625 18.8553 3.29939 18.3488 2.79288C17.8423 2.28637 17.1555 2.00162 16.4391 2.00109Z" fill="#65AF7C"/>
<path id="Vector_2" d="M22.012 44.0182C16.1773 44.0145 10.5824 41.6958 6.45553 37.5711C2.32862 33.4465 0.00689003 27.8529 0 22.0181C0 21.7528 0.105392 21.4983 0.293031 21.3107C0.48067 21.123 0.735185 21.0176 1.00055 21.0176H42.9995C43.2648 21.0176 43.5193 21.123 43.707 21.3107C43.8946 21.4983 44 21.7528 44 22.0181C43.9931 27.8487 41.6747 33.4387 37.553 37.5626C33.4313 41.6866 27.8426 44.0081 22.012 44.0182ZM2.0371 23.0187C2.30004 28.1411 4.51851 32.9673 8.23506 36.5022C11.9516 40.037 16.8829 42.011 22.012 42.0171C27.1409 42.011 32.072 40.0369 35.7882 36.502C39.5044 32.9671 41.7225 28.1409 41.9849 23.0187H2.0371Z" fill="#65AF7C"/>
<path id="Vector_3" d="M32.0875 2.23456C31.9566 2.00622 31.7409 1.83868 31.4872 1.76829C31.2311 1.69987 30.9584 1.73585 30.7288 1.86834L10.7559 13.4007C10.5261 13.5333 10.3584 13.7519 10.2897 14.0082C10.221 14.2645 10.257 14.5376 10.3897 14.7674C11.4927 16.6742 13.0783 18.257 14.9872 19.3565C16.896 20.456 19.0608 21.0334 21.2636 21.0308C23.4567 21.0314 25.6111 20.4529 27.509 19.3539C30.3826 17.6875 32.4783 14.9496 33.3366 11.7405C34.1948 8.53145 33.7457 5.113 32.0875 2.23456Z" fill="#65AF7C"/>
</g>
</svg>
