<svg width="17" height="18" viewBox="0 0 17 18" fill="none" xmlns="http://www.w3.org/2000/svg">
<g id="Group 764">
<path id="Vector" d="M14.2417 9.53168C14.5542 9.10602 14.7425 8.60205 14.7857 8.07579C14.829 7.54953 14.7254 7.02159 14.4866 6.55064C14.2478 6.0797 13.883 5.6842 13.4329 5.40811C12.9828 5.13203 12.465 4.98616 11.9369 4.98674H10.3904C10.8478 4.54805 11.2117 4.02133 11.4602 3.4383C11.7087 2.85527 11.8367 2.22798 11.8364 1.59419C11.8364 1.41899 11.7668 1.25097 11.6429 1.12708C11.519 1.0032 11.351 0.933594 11.1758 0.933594C11.0006 0.933594 10.8325 1.0032 10.7087 1.12708C10.5848 1.25097 10.5152 1.41899 10.5152 1.59419C10.514 2.4936 10.1562 3.35583 9.52023 3.9918C8.88425 4.62777 8.02202 4.98558 7.12262 4.98674H5.20101C5.0258 4.98674 4.85778 5.05635 4.73389 5.18023C4.61 5.30412 4.54041 5.47214 4.54041 5.64734C4.54041 5.82255 4.61 5.99058 4.73389 6.11446C4.85778 6.23835 5.0258 6.30794 5.20101 6.30794H11.9391C12.1437 6.30347 12.3472 6.33992 12.5375 6.41513C12.7279 6.49035 12.9013 6.60281 13.0476 6.74594C13.1939 6.88907 13.3101 7.05998 13.3895 7.24864C13.4688 7.4373 13.5097 7.63991 13.5097 7.84458C13.5097 8.04925 13.4688 8.25185 13.3895 8.44051C13.3101 8.62916 13.1939 8.80007 13.0476 8.9432C12.9013 9.08634 12.7279 9.19881 12.5375 9.27402C12.3472 9.34924 12.1437 9.38568 11.9391 9.3812H5.20101C5.0258 9.3812 4.85778 9.45081 4.73389 9.57469C4.61 9.69858 4.54041 9.8666 4.54041 10.0418C4.54041 10.217 4.61 10.385 4.73389 10.5089C4.85778 10.6328 5.0258 10.7024 5.20101 10.7024H13.3279C13.5325 10.6979 13.7359 10.7344 13.9263 10.8096C14.1166 10.8848 14.29 10.9973 14.4363 11.1404C14.5826 11.2835 14.6989 11.4544 14.7782 11.6431C14.8576 11.8318 14.8984 12.0344 14.8984 12.239C14.8984 12.4437 14.8576 12.6463 14.7782 12.835C14.6989 13.0236 14.5826 13.1945 14.4363 13.3377C14.29 13.4808 14.1166 13.5933 13.9263 13.6685C13.7359 13.7437 13.5325 13.7801 13.3279 13.7757H10.0542C9.35669 13.7764 8.68795 14.0538 8.19466 14.547C7.70137 15.0401 7.4238 15.7088 7.42282 16.4063C7.42282 16.5815 7.49242 16.7496 7.61631 16.8734C7.7402 16.9973 7.90822 17.0669 8.08342 17.0669C8.25863 17.0669 8.42665 16.9973 8.55054 16.8734C8.67443 16.7496 8.74403 16.5815 8.74403 16.4063C8.74441 16.059 8.8826 15.7261 9.12824 15.4806C9.37389 15.2351 9.70692 15.0971 10.0542 15.0969H13.3279C14.0056 15.0971 14.6614 14.8564 15.1781 14.4178C15.6948 13.9792 16.0387 13.3712 16.1485 12.7024C16.2584 12.0336 16.1269 11.3476 15.7776 10.7668C15.4283 10.1859 14.8839 9.74819 14.2417 9.53168Z" fill="#1A342B"/>
<path id="Vector_2" d="M9.86543 12.8993H11.5984C11.7736 12.8993 11.9416 12.8297 12.0655 12.7058C12.1894 12.5819 12.259 12.4139 12.259 12.2387C12.259 12.0635 12.1894 11.8954 12.0655 11.7716C11.9416 11.6477 11.7736 11.5781 11.5984 11.5781H3.52439C3.31978 11.5825 3.11633 11.5461 2.92598 11.4709C2.73563 11.3957 2.56222 11.2832 2.41593 11.1401C2.26963 10.9969 2.1534 10.826 2.07404 10.6374C1.99469 10.4487 1.95381 10.2461 1.95381 10.0414C1.95381 9.83677 1.99469 9.63417 2.07404 9.44551C2.1534 9.25685 2.26963 9.08594 2.41593 8.94281C2.56222 8.79968 2.73563 8.6872 2.92598 8.61199C3.11633 8.53678 3.31978 8.50034 3.52439 8.50481H11.5984C11.7736 8.50481 11.9416 8.43521 12.0655 8.31132C12.1894 8.18743 12.259 8.01941 12.259 7.84421C12.259 7.66901 12.1894 7.50098 12.0655 7.37709C11.9416 7.2532 11.7736 7.18361 11.5984 7.18361H4.91092C4.5092 7.17483 4.12689 7.00908 3.84588 6.72186C3.56487 6.43464 3.40751 6.0488 3.40751 5.64698C3.40751 5.24515 3.56487 4.85932 3.84588 4.5721C4.12689 4.28488 4.5092 4.11913 4.91092 4.11035H6.5705C7.23758 4.10957 7.87713 3.84423 8.34883 3.37252C8.82053 2.90082 9.08588 2.26128 9.08665 1.59419C9.08665 1.41899 9.01705 1.25097 8.89317 1.12708C8.76928 1.0032 8.60125 0.933594 8.42605 0.933594C8.25085 0.933594 8.08282 1.0032 7.95894 1.12708C7.83505 1.25097 7.76545 1.41899 7.76545 1.59419C7.76526 1.91106 7.6393 2.21488 7.41524 2.43894C7.19119 2.66299 6.88736 2.78895 6.5705 2.78915H4.91092C4.38292 2.78904 3.86522 2.93527 3.4153 3.21159C2.96538 3.48792 2.60085 3.88354 2.36217 4.35451C2.12349 4.82548 2.02 5.35338 2.0632 5.87961C2.1064 6.40584 2.2946 6.9098 2.60689 7.33554C1.96543 7.55295 1.42205 7.99113 1.07366 8.57196C0.725263 9.15278 0.594508 9.83847 0.704711 10.5067C0.814914 11.175 1.15891 11.7824 1.67535 12.2206C2.19179 12.6588 2.8471 12.8993 3.52439 12.8993H6.52132C6.04289 13.3496 5.66168 13.893 5.40114 14.4961C5.14059 15.0993 5.00624 15.7493 5.00634 16.4063C5.00634 16.5815 5.07594 16.7496 5.19983 16.8734C5.32371 16.9973 5.49174 17.0669 5.66694 17.0669C5.84214 17.0669 6.01017 16.9973 6.13406 16.8734C6.25795 16.7496 6.32754 16.5815 6.32754 16.4063C6.32871 15.4766 6.69858 14.5852 7.35602 13.9278C8.01347 13.2703 8.90483 12.9004 9.8346 12.8993H9.86543Z" fill="#1A342B"/>
</g>
</svg>
