<svg width="30" height="30" viewBox="0 0 30 30" fill="none" xmlns="http://www.w3.org/2000/svg">
<g id="ico_sparkling_nor">
<g id="Group 857">
<g id="Group 827">
<path id="Vector 9" d="M13.5 14C10.7 12.8 7.66667 14.1666 6.5 15L7.5 25H21L22.5 13C20.5 14.5 17 15.5 13.5 14Z" fill="url(#paint0_linear_494_3260)" fill-opacity="0.3"/>
<path id="Vector 8" d="M12.5 15C9.3 16.6 6.83333 15 6 14L7.5 25H21L22 15.5C20.5 14.5 16.5 13 12.5 15Z" fill="url(#paint1_linear_494_3260)" fill-opacity="0.3"/>
</g>
<g id="Group 852">
<path id="Vector" d="M11.3211 22.3972C10.6846 22.3961 10.0745 22.1428 9.62439 21.6927C9.1743 21.2426 8.92098 20.6325 8.91992 19.996C8.92098 19.3594 9.1743 18.7493 9.62439 18.2992C10.0745 17.8491 10.6846 17.5958 11.3211 17.5947C11.9585 17.5945 12.57 17.8472 13.0211 18.2974C13.4723 18.7477 13.7263 19.3586 13.7274 19.996C13.7263 20.6333 13.4723 21.2442 13.0211 21.6945C12.57 22.1447 11.9585 22.3975 11.3211 22.3972ZM11.3211 19.3902C11.1608 19.3904 11.0071 19.4542 10.8938 19.5676C10.7804 19.681 10.7166 19.8346 10.7164 19.995C10.7164 20.1555 10.78 20.3094 10.8934 20.423C11.0068 20.5365 11.1607 20.6005 11.3211 20.6008C11.401 20.6013 11.4801 20.586 11.554 20.5559C11.6279 20.5257 11.6951 20.4813 11.7517 20.4251C11.8084 20.3689 11.8534 20.3021 11.8842 20.2284C11.9149 20.1548 11.9308 20.0758 11.9309 19.996C11.9309 19.9161 11.9151 19.837 11.8844 19.7632C11.8537 19.6894 11.8088 19.6225 11.7521 19.5662C11.6954 19.5099 11.6282 19.4653 11.5542 19.4351C11.4802 19.4049 11.401 19.3896 11.3211 19.3902Z" fill="#C5C5C5"/>
<path id="Vector_2" d="M16.8375 18.5878C16.2007 18.587 15.5903 18.3336 15.1401 17.8832C14.6899 17.4329 14.4368 16.8223 14.4363 16.1855C14.4371 15.5489 14.6903 14.9386 15.1405 14.4885C15.5906 14.0383 16.2009 13.7851 16.8375 13.7843C17.474 13.7854 18.0842 14.0387 18.5343 14.4888C18.9844 14.9389 19.2377 15.549 19.2387 16.1855C19.2379 16.8222 18.9847 17.4326 18.5346 17.8829C18.0845 18.3332 17.4742 18.5867 16.8375 18.5878ZM16.8375 15.5807C16.6771 15.5807 16.5233 15.6444 16.4098 15.7579C16.2964 15.8713 16.2327 16.0251 16.2327 16.1855C16.2326 16.265 16.2481 16.3438 16.2785 16.4173C16.3088 16.4908 16.3533 16.5576 16.4095 16.6138C16.4657 16.6701 16.5324 16.7147 16.6058 16.7452C16.6793 16.7756 16.758 16.7913 16.8375 16.7913C16.998 16.7911 17.1518 16.7271 17.2652 16.6135C17.3786 16.5 17.4423 16.346 17.4423 16.1855C17.442 16.0252 17.3782 15.8715 17.2649 15.7582C17.1515 15.6448 16.9978 15.581 16.8375 15.5807Z" fill="#C5C5C5"/>
<path id="Vector_3" d="M20.5451 26H6.89425C6.67338 25.9999 6.46029 25.9184 6.2957 25.7711C6.13111 25.6238 6.02656 25.4211 6.00202 25.2016L4.505 12.1336C4.49109 12.0161 4.50053 11.897 4.53277 11.7832C4.56501 11.6694 4.61941 11.5631 4.69286 11.4703C4.7663 11.3776 4.85734 11.3003 4.96075 11.2429C5.06415 11.1854 5.17789 11.1489 5.29542 11.1356C5.4129 11.1217 5.53196 11.1311 5.64578 11.1633C5.7596 11.1956 5.86592 11.25 5.95865 11.3234C6.05139 11.3969 6.1287 11.4879 6.18615 11.5913C6.2436 11.6947 6.28006 11.8085 6.29344 11.926L7.69066 24.2016H19.7437L21.4034 9.66348C20.7802 9.99508 20.1281 10.2693 19.4553 10.4829C17.2267 11.1954 15.05 11.1994 13.7466 11.1954H13.7197C11.2775 11.1954 8.96912 10.903 7.2206 10.3711C5.08385 9.72238 4 8.79621 4 7.61755C4 6.4389 5.08385 5.51274 7.2206 4.86403C8.96912 4.33309 11.2775 4.04067 13.7197 4.04067C16.1618 4.04067 18.4702 4.33309 20.2188 4.86403C21.4753 5.24527 22.3685 5.72332 22.8904 6.29218C23.3978 5.74245 23.8423 5.13792 24.2158 4.48977C24.2712 4.3812 24.3482 4.28504 24.442 4.20716C24.5358 4.12928 24.6445 4.07131 24.7614 4.03678C24.8783 4.00225 25.001 3.99189 25.1221 4.00631C25.2431 4.02074 25.36 4.05966 25.4655 4.1207C25.571 4.18174 25.663 4.26362 25.7359 4.36136C25.8088 4.45909 25.861 4.57064 25.8893 4.68921C25.9177 4.80777 25.9216 4.93087 25.9009 5.051C25.8802 5.17113 25.8352 5.2858 25.7687 5.38799C25.1366 6.49212 24.3243 7.48283 23.3655 8.31916L21.4373 25.2016C21.4128 25.4211 21.3082 25.6238 21.1436 25.7711C20.9791 25.9184 20.766 25.9999 20.5451 26ZM5.79942 7.62055C5.85631 7.75628 6.33735 8.26227 7.96711 8.71837C9.52601 9.1565 11.569 9.39901 13.7197 9.39901H13.7726C15.047 9.39901 16.9602 9.39902 18.9084 8.77126C19.8452 8.47911 20.7313 8.04382 21.5351 7.48082C21.3196 7.26426 20.7467 6.87602 19.4722 6.51674C17.9133 6.07861 15.8704 5.8371 13.7197 5.8371C11.569 5.8371 9.52801 6.07861 7.96711 6.51674C6.34234 6.97782 5.85631 7.48382 5.79942 7.62055Z" fill="#C5C5C5"/>
</g>
</g>
</g>
<defs>
<linearGradient id="paint0_linear_494_3260" x1="10.024" y1="24.347" x2="15.8062" y2="14.2829" gradientUnits="userSpaceOnUse">
<stop stop-color="#C5C5C5"/>
<stop offset="1" stop-color="#C5C5C5"/>
</linearGradient>
<linearGradient id="paint1_linear_494_3260" x1="9.52401" y1="24.347" x2="15.3062" y2="14.2829" gradientUnits="userSpaceOnUse">
<stop stop-color="#C5C5C5"/>
<stop offset="1" stop-color="#C5C5C5"/>
</linearGradient>
</defs>
</svg>
