<svg width="30" height="30" viewBox="0 0 30 30" fill="none" xmlns="http://www.w3.org/2000/svg">
<g id="ico_bottom_me_nor">
<g id="Group 693">
<path id="Vector" d="M23.4846 25.995C23.2458 25.995 23.0167 25.9001 22.8478 25.7312C22.6789 25.5623 22.584 25.3332 22.584 25.0944V20.6123C22.584 18.9342 22.1637 17.6703 21.3361 16.8558C20.3034 15.8391 18.8695 15.749 18.3001 15.755H18.252C17.4741 15.7475 16.7086 15.9505 16.0365 16.3424C16.9371 17.4842 17.4055 18.8441 17.4055 19.9729C17.4047 20.6802 17.1299 21.3596 16.6388 21.8686C16.1477 22.3777 15.4785 22.6766 14.7717 22.7028H14.7156H14.6736H14.6176C13.9104 22.6784 13.2402 22.3809 12.7477 21.8728C12.2553 21.3647 11.9789 20.6855 11.9768 19.9779C11.9768 18.8491 12.4461 17.4892 13.3447 16.3474C12.673 15.9555 11.9078 15.7525 11.1302 15.76H11.0812C10.5138 15.751 9.07978 15.8401 8.04508 16.8608C7.21751 17.6753 6.79823 18.9392 6.79823 20.6173V24.1988H20.2394C20.4783 24.1988 20.7073 24.2936 20.8762 24.4625C21.0451 24.6314 21.14 24.8605 21.14 25.0994C21.14 25.3382 21.0451 25.5673 20.8762 25.7362C20.7073 25.9051 20.4783 26 20.2394 26H5.90061C5.66176 26 5.43268 25.9051 5.26378 25.7362C5.09489 25.5673 5 25.3382 5 25.0994V20.6173C5 18.4388 5.60041 16.7427 6.78522 15.5769C8.30325 14.0829 10.3186 13.9508 11.1122 13.9628H11.1342C12.4066 13.9505 13.6506 14.3384 14.6906 15.0715C15.731 14.3384 16.9754 13.9505 18.248 13.9628H18.2681C19.0636 13.9508 21.078 14.0829 22.596 15.5769C23.7848 16.7377 24.3852 18.4338 24.3852 20.6123V25.0944C24.3852 25.3332 24.2903 25.5623 24.1214 25.7312C23.9525 25.9001 23.7235 25.995 23.4846 25.995ZM14.6946 17.5612C14.0882 18.3708 13.785 19.2954 13.785 19.9779C13.7852 20.221 13.8804 20.4545 14.0504 20.6283C14.2203 20.8022 14.4515 20.9028 14.6946 20.9085C14.9377 20.9028 15.1689 20.8022 15.3388 20.6283C15.5088 20.4545 15.604 20.221 15.6042 19.9779C15.6002 19.2954 15.296 18.3708 14.6906 17.5612H14.6946Z" fill="#B5C2B3"/>
<path id="Vector_2" d="M14.6916 13.3254C13.4553 13.324 12.2699 12.8323 11.3957 11.9581C10.5215 11.0838 10.0298 9.89852 10.0284 8.66218C10.03 7.42601 10.5219 6.24094 11.3961 5.36692C12.2703 4.49291 13.4554 4.00132 14.6916 4C15.9277 4.00132 17.1128 4.49294 17.9868 5.36699C18.8609 6.24103 19.3525 7.4261 19.3538 8.66218C19.3527 9.89843 18.8612 11.0838 17.9872 11.958C17.1131 12.8323 15.9279 13.324 14.6916 13.3254ZM14.6916 5.80123C13.933 5.80202 13.2057 6.10367 12.6691 6.64C12.1326 7.17633 11.8307 7.90356 11.8297 8.66218C11.8305 9.42097 12.1322 10.1485 12.6688 10.685C13.2053 11.2216 13.9328 11.5233 14.6916 11.5241C15.4503 11.5233 16.1777 11.2215 16.7141 10.6849C17.2505 10.1484 17.552 9.42088 17.5526 8.66218C17.5518 7.90365 17.2501 7.17642 16.7137 6.64006C16.1774 6.1037 15.4501 5.80202 14.6916 5.80123Z" fill="#B5C2B3"/>
</g>
</g>
</svg>
