<svg width="70" height="70" viewBox="0 0 70 70" fill="none" xmlns="http://www.w3.org/2000/svg">
<rect width="70" height="70" rx="14" fill="#FEDAC8"/>
<path d="M57.7389 12C57.3886 18.6293 55.8635 23.5137 50.7661 23.4519C46.2939 23.3901 45.9916 19.701 49.5227 18.4095C54.2491 16.6714 58.7144 19.5705 58.7144 24.1732C58.7144 41.9934 43.601 58 24.8946 58C20.4709 58.004 16.0895 57.138 12 55.4513C12 55.4513 40.6126 52.3736 46.0535 26.7425C46.0903 26.564 46.1761 26.3993 46.3012 26.2668C46.4263 26.1343 46.5858 26.0392 46.7619 25.9921C46.938 25.9451 47.1237 25.9479 47.2982 26.0004C47.4728 26.0528 47.6293 26.1528 47.7503 26.2891L49.5227 28.2951C49.6534 28.4455 49.8318 28.5467 50.028 28.5817C50.2242 28.6167 50.4265 28.5834 50.6012 28.4875L53.0331 27.1822C53.2048 27.0897 53.4022 27.0564 53.5947 27.0874C53.7872 27.1185 53.9641 27.2121 54.098 27.3539L55.6093 28.9615" stroke="#FD8A5E" stroke-width="2" stroke-linecap="round" stroke-linejoin="round"/>
<path d="M50.7111 39.6094C50.7111 39.6094 46.0122 48.8423 35.8105 52.7238" stroke="#FD8A5E" stroke-width="2" stroke-linecap="round" stroke-linejoin="round"/>
<path d="M30.9266 30.399C30.6242 29.6533 30.2095 28.9583 29.6969 28.3381C29.9579 30.2822 27.7665 31.1891 27.7665 31.1891C28.1729 29.8414 28.1488 28.4006 27.6978 27.0672C26.1864 22.4026 21.0753 19.1738 21.0753 19.1738C21.601 20.616 21.6468 22.1895 21.2059 23.6598C20.8761 24.7452 19.4197 26.3184 18.458 27.2458C18.1741 27.4802 17.9077 27.7351 17.661 28.0084C16.3319 29.4708 15.5969 31.3769 15.6001 33.353C15.5992 34.3965 15.8039 35.4299 16.2026 36.3942C16.6013 37.3585 17.1862 38.2348 17.9237 38.9729C18.6612 39.7111 19.5369 40.2967 20.5009 40.6962C21.4648 41.0957 22.4981 41.3014 23.5416 41.3014C25.6484 41.2995 27.6683 40.4613 29.1574 38.9709C30.6465 37.4805 31.483 35.4599 31.483 33.353C31.4885 32.3418 31.2996 31.339 30.9266 30.399Z" stroke="#FD8A5E" stroke-width="2" stroke-linecap="round" stroke-linejoin="round"/>
</svg>
