<svg width="30" height="30" viewBox="0 0 30 30" fill="none" xmlns="http://www.w3.org/2000/svg">
<g id="ico_skin_nor">
<g id="Group 878">
<path id="Vector" d="M25.0962 12.1406H21.9649C21.7263 12.1406 21.4974 12.2354 21.3287 12.4042C21.1599 12.5729 21.0651 12.8018 21.0651 13.0404C21.0651 13.279 21.1599 13.5079 21.3287 13.6767C21.4974 13.8454 21.7263 13.9402 21.9649 13.9402H25.1002C25.3388 13.9402 25.5677 13.8454 25.7365 13.6767C25.9052 13.5079 26 13.279 26 13.0404C26 12.9219 25.9766 12.8046 25.9311 12.6951C25.8857 12.5857 25.819 12.4863 25.735 12.4027C25.6511 12.3191 25.5514 12.2529 25.4418 12.2079C25.3321 12.163 25.2147 12.1401 25.0962 12.1406Z" fill="#B5C2B3"/>
<path id="Vector_2" d="M8.03808 12.1406H4.90282C4.66417 12.1406 4.4353 12.2354 4.26656 12.4041C4.09782 12.5729 4.00302 12.8017 4.00302 13.0404C4.00302 13.279 4.09782 13.5079 4.26656 13.6766C4.4353 13.8454 4.66417 13.9402 4.90282 13.9402H8.03808C8.27672 13.9402 8.50559 13.8454 8.67434 13.6766C8.84308 13.5079 8.93788 13.279 8.93788 13.0404C8.93788 12.8017 8.84308 12.5729 8.67434 12.4041C8.50559 12.2354 8.27672 12.1406 8.03808 12.1406Z" fill="#B5C2B3"/>
<path id="Vector_3" d="M6.90236 17.7153C6.66372 17.7153 6.43485 17.8101 6.2661 17.9788C6.09736 18.1476 6.00256 18.3764 6.00256 18.6151C6.00256 18.8537 6.09736 19.0826 6.2661 19.2513C6.43485 19.4201 6.66372 19.5149 6.90236 19.5149C7.141 19.5149 7.36984 19.4201 7.53859 19.2513C7.70733 19.0826 7.80215 18.8537 7.80215 18.6151C7.80215 18.3764 7.70733 18.1476 7.53859 17.9788C7.36984 17.8101 7.141 17.7153 6.90236 17.7153Z" fill="#B5C2B3"/>
<path id="Vector_4" d="M12.3002 17.7153C12.0615 17.7153 11.8327 17.8101 11.6639 17.9788C11.4952 18.1476 11.4004 18.3764 11.4004 18.6151C11.4004 18.8537 11.4952 19.0826 11.6639 19.2513C11.8327 19.4201 12.0615 19.5149 12.3002 19.5149C12.5388 19.5149 12.7677 19.4201 12.9364 19.2513C13.1052 19.0826 13.1999 18.8537 13.1999 18.6151C13.1999 18.3764 13.1052 18.1476 12.9364 17.9788C12.7677 17.8101 12.5388 17.7153 12.3002 17.7153Z" fill="#B5C2B3"/>
<path id="Vector_5" d="M23.0956 17.7153C22.857 17.7153 22.6281 17.8101 22.4594 17.9788C22.2906 18.1476 22.1958 18.3764 22.1958 18.6151C22.1958 18.8537 22.2906 19.0826 22.4594 19.2513C22.6281 19.4201 22.857 19.5149 23.0956 19.5149C23.3343 19.5149 23.5631 19.4201 23.7319 19.2513C23.9006 19.0826 23.9954 18.8537 23.9954 18.6151C23.9954 18.3764 23.9006 18.1476 23.7319 17.9788C23.5631 17.8101 23.3343 17.7153 23.0956 17.7153Z" fill="#B5C2B3"/>
<path id="Vector_6" d="M17.6978 17.7153C17.4592 17.7153 17.2303 17.8101 17.0616 17.9788C16.8928 18.1476 16.798 18.3764 16.798 18.6151C16.798 18.8537 16.8928 19.0826 17.0616 19.2513C17.2303 19.4201 17.4592 19.5149 17.6978 19.5149C17.9365 19.5149 18.1653 19.4201 18.3341 19.2513C18.5028 19.0826 18.5976 18.8537 18.5976 18.6151C18.5976 18.3764 18.5028 18.1476 18.3341 17.9788C18.1653 17.8101 17.9365 17.7153 17.6978 17.7153Z" fill="#B5C2B3"/>
<path id="Vector_7" d="M9.60176 21.6704C9.36312 21.6704 9.13426 21.7652 8.96552 21.934C8.79677 22.1027 8.70197 22.3316 8.70197 22.5702C8.70197 22.8089 8.79677 23.0377 8.96552 23.2065C9.13426 23.3752 9.36312 23.47 9.60176 23.47C9.8404 23.47 10.0693 23.3752 10.238 23.2065C10.4068 23.0377 10.5016 22.8089 10.5016 22.5702C10.5016 22.3316 10.4068 22.1027 10.238 21.934C10.0693 21.7652 9.8404 21.6704 9.60176 21.6704Z" fill="#B5C2B3"/>
<path id="Vector_8" d="M20.3972 21.6704C20.1586 21.6704 19.9297 21.7652 19.761 21.934C19.5922 22.1027 19.4974 22.3316 19.4974 22.5702C19.4974 22.8089 19.5922 23.0377 19.761 23.2065C19.9297 23.3752 20.1586 23.47 20.3972 23.47C20.6359 23.47 20.8647 23.3752 21.0335 23.2065C21.2022 23.0377 21.297 22.8089 21.297 22.5702C21.297 22.3316 21.2022 22.1027 21.0335 21.934C20.8647 21.7652 20.6359 21.6704 20.3972 21.6704Z" fill="#B5C2B3"/>
<path id="Vector_9" d="M14.9995 21.6704C14.7609 21.6704 14.532 21.7652 14.3633 21.934C14.1945 22.1027 14.0997 22.3316 14.0997 22.5702C14.0997 22.8089 14.1945 23.0377 14.3633 23.2065C14.532 23.3752 14.7609 23.47 14.9995 23.47C15.2382 23.47 15.467 23.3752 15.6358 23.2065C15.8045 23.0377 15.8993 22.8089 15.8993 22.5702C15.8993 22.3316 15.8045 22.1027 15.6358 21.934C15.467 21.7652 15.2382 21.6704 14.9995 21.6704Z" fill="#B5C2B3"/>
<path id="Vector_10" d="M14.9995 13.6592C15.7222 13.6582 16.4151 13.3706 16.9261 12.8595C17.4372 12.3485 17.7248 11.6556 17.7258 10.9329C17.7258 9.79613 16.3582 7.40667 15.7693 6.4339C15.6891 6.30146 15.5762 6.19195 15.4413 6.11594C15.3065 6.03993 15.1543 5.99999 14.9995 6C14.8445 5.99982 14.6921 6.03967 14.5571 6.11568C14.422 6.1917 14.3089 6.30132 14.2286 6.4339C13.6408 7.40867 12.2731 9.79813 12.2731 10.9329C12.2739 11.6557 12.5614 12.3487 13.0725 12.8598C13.5836 13.371 14.2766 13.6585 14.9995 13.6592ZM14.9995 8.72937C15.5353 9.74713 15.9203 10.6429 15.9263 10.9289C15.926 11.1746 15.8283 11.4102 15.6545 11.5839C15.4808 11.7577 15.2452 11.8554 14.9995 11.8557C14.7537 11.8554 14.5182 11.7577 14.3444 11.5839C14.1707 11.4102 14.073 11.1746 14.0727 10.9289C14.0777 10.6429 14.4666 9.74713 14.9995 8.72937Z" fill="#B5C2B3"/>
<path id="Vector_11" d="M20.3552 9.9411H25.0962C25.3348 9.9411 25.5637 9.8463 25.7324 9.67756C25.9012 9.50882 25.9959 9.27994 25.9959 9.0413C25.9959 8.80266 25.9012 8.5738 25.7324 8.40506C25.5637 8.23632 25.3348 8.14151 25.0962 8.14151H19.0845H19.0206H18.9916L18.9346 8.14952L18.8986 8.15751L18.8516 8.16951L18.8076 8.1835L18.7706 8.1975C18.7536 8.2035 18.7376 8.2115 18.7206 8.21849L18.7006 8.2275L18.6886 8.23449L18.6426 8.25949L18.6096 8.28048C18.5966 8.28848 18.5856 8.29648 18.5737 8.30547C18.5617 8.31447 18.5477 8.32347 18.5357 8.33347L18.5097 8.35646C18.4957 8.36846 18.4817 8.38046 18.4697 8.39245C18.4577 8.40445 18.4557 8.40746 18.4487 8.41446C18.4417 8.42146 18.4227 8.44144 18.4107 8.45644L18.3907 8.48143C18.3797 8.49543 18.3687 8.50943 18.3587 8.52443L18.3377 8.55742C18.3297 8.57042 18.3217 8.58341 18.3147 8.59641C18.3077 8.60941 18.2997 8.62441 18.2927 8.63941C18.2857 8.6544 18.2817 8.6614 18.2767 8.67239C18.2717 8.68339 18.2637 8.70539 18.2577 8.72138C18.2517 8.73738 18.2487 8.74238 18.2457 8.75338C18.2427 8.76438 18.2357 8.78537 18.2317 8.80237C18.2277 8.81937 18.2247 8.82636 18.2217 8.83936C18.2187 8.85236 18.2217 8.86835 18.2137 8.88234C18.2057 8.89634 18.2137 8.91334 18.2067 8.92834V8.96533V9.02031V9.03331C18.2067 9.04031 18.2067 9.0473 18.2067 9.0543C18.2058 9.07295 18.2058 9.09164 18.2067 9.11029C18.2067 9.12229 18.2067 9.13429 18.2067 9.14628C18.2067 9.15828 18.2067 9.17928 18.2137 9.19627L18.2227 9.23827C18.2227 9.25226 18.2297 9.26625 18.2337 9.28025C18.2377 9.29425 18.2437 9.31224 18.2487 9.32924L18.2607 9.36224C18.2677 9.38023 18.2757 9.39723 18.2837 9.41523L18.2917 9.43322C18.5429 9.93856 18.6726 10.4955 18.6706 11.0598C18.6696 12.0337 18.2822 12.9674 17.5936 13.656C16.905 14.3446 15.9713 14.7319 14.9975 14.733C14.0235 14.7319 13.0897 14.3446 12.401 13.6561C11.7122 12.9675 11.3246 12.0338 11.3233 11.0598C11.3219 10.4956 11.4516 9.93873 11.7022 9.43322L11.7102 9.41523C11.7182 9.39723 11.7262 9.38023 11.7332 9.36224L11.7452 9.32924C11.7512 9.31224 11.7562 9.29625 11.7612 9.28025C11.7662 9.26425 11.7682 9.25226 11.7712 9.23827C11.7752 9.22449 11.7782 9.21046 11.7802 9.19627C11.7802 9.17928 11.7862 9.16328 11.7882 9.14628C11.7902 9.12929 11.7882 9.12229 11.7882 9.11029V9.05331C11.7882 9.04731 11.7882 9.04031 11.7882 9.03331C11.7882 9.02631 11.7882 9.02531 11.7882 9.02031C11.7892 9.002 11.7892 8.98365 11.7882 8.96533V8.92834C11.7882 8.91334 11.7882 8.89834 11.7812 8.88234C11.7742 8.86635 11.7762 8.85336 11.7732 8.83936C11.7702 8.82536 11.7672 8.81437 11.7632 8.80237C11.7592 8.79037 11.7552 8.76938 11.7502 8.75338L11.7382 8.72138C11.7322 8.70539 11.7262 8.68839 11.7192 8.67239L11.7032 8.63941C11.6962 8.62441 11.6892 8.61041 11.6812 8.59641C11.6732 8.58241 11.6652 8.57042 11.6572 8.55742C11.6492 8.54442 11.6442 8.53543 11.6362 8.52443C11.6282 8.51343 11.6152 8.49543 11.6043 8.48143L11.5853 8.45644C11.5733 8.44144 11.5593 8.42845 11.5463 8.41446L11.5263 8.39245L11.4863 8.35646L11.4603 8.33347L11.4223 8.30547L11.3863 8.28048L11.3523 8.25949L11.3063 8.23449L11.2943 8.2275L11.2743 8.21849L11.2253 8.1975L11.1883 8.1835L11.1434 8.16951L11.0974 8.15751L11.0594 8.14952L11.0054 8.14151H10.9734H10.9124H4.89979C4.66115 8.14151 4.43228 8.23632 4.26354 8.40506C4.09479 8.5738 4 8.80266 4 9.0413C4 9.27994 4.09479 9.50882 4.26354 9.67756C4.43228 9.8463 4.66115 9.9411 4.89979 9.9411H9.6407C9.56263 10.3116 9.5231 10.6892 9.52273 11.0678C9.52432 12.519 10.1016 13.9102 11.1278 14.9363C12.154 15.9623 13.5453 16.5393 14.9965 16.5406C16.4475 16.539 17.8385 15.9619 18.8645 14.9359C19.8905 13.9099 20.4676 12.5188 20.4692 11.0678C20.4697 10.6894 20.4315 10.3118 20.3552 9.9411Z" fill="#B5C2B3"/>
</g>
</g>
</svg>
