<svg width="44" height="38" viewBox="0 0 44 38" fill="none" xmlns="http://www.w3.org/2000/svg">
<g id="Group 1228">
<path id="Vector" d="M43.0006 37.8659H0.999363C0.734316 37.8659 0.48015 37.7606 0.292733 37.5732C0.105316 37.3858 0 37.1316 0 36.8666C0 36.6015 0.105316 36.3473 0.292733 36.1599C0.48015 35.9725 0.734316 35.8672 0.999363 35.8672H43.0006C43.2657 35.8672 43.5199 35.9725 43.7073 36.1599C43.8947 36.3473 44 36.6015 44 36.8666C44 37.1316 43.8947 37.3858 43.7073 37.5732C43.5199 37.7606 43.2657 37.8659 43.0006 37.8659Z" fill="#65AF7C"/>
<path id="Vector_2" d="M22.4077 19.6444C20.361 19.6444 19.0478 17.9575 17.7767 16.3265C16.5474 14.7495 15.3782 13.2604 13.7212 13.2604C10.6532 13.2604 10.2355 15.6989 10.1995 15.9767C10.1651 16.2389 10.0283 16.4768 9.81884 16.6383C9.60942 16.7997 9.34451 16.8716 9.0822 16.8382C8.82164 16.8052 8.58455 16.6709 8.42222 16.4644C8.25988 16.2579 8.18538 15.9959 8.21478 15.7349C8.39667 14.1879 9.78374 11.2617 13.7212 11.2617C16.3636 11.2617 17.9526 13.2985 19.3537 15.0973C20.375 16.4085 21.3384 17.6457 22.4077 17.6457C23.1093 17.6457 23.607 17.4718 23.9488 17.118C24.5184 16.5184 24.4684 15.519 24.4684 15.519C24.4525 15.2555 24.5416 14.9964 24.7161 14.7983C24.8906 14.6002 25.1364 14.4792 25.3998 14.4617C25.6621 14.4446 25.9205 14.5315 26.1191 14.7036C26.3178 14.8757 26.4407 15.1191 26.4612 15.3811C26.4752 15.569 26.5631 17.2439 25.4198 18.4731C24.6962 19.2486 23.6829 19.6444 22.4077 19.6444Z" fill="#65AF7C"/>
<path id="Vector_3" d="M35.1994 19.6444C33.1547 19.6444 31.8416 17.9575 30.5704 16.3265C29.3411 14.7495 28.1719 13.2604 26.5129 13.2604C23.4449 13.2604 23.0292 15.6989 22.9912 15.9767C22.9568 16.2385 22.8202 16.4761 22.6112 16.6375C22.4022 16.7989 22.1379 16.8711 21.8759 16.8382C21.6153 16.8052 21.3783 16.6709 21.2159 16.4644C21.0536 16.2579 20.9791 15.9959 21.0085 15.7349C21.1904 14.1879 22.5754 11.2617 26.5129 11.2617C29.1573 11.2617 30.7463 13.2985 32.1474 15.0973C33.1667 16.4085 34.1321 17.6457 35.1994 17.6457C35.903 17.6457 36.3987 17.4718 36.7405 17.118C37.3121 16.5184 37.2621 15.519 37.2621 15.519C37.2462 15.2555 37.3353 14.9964 37.5098 14.7983C37.6843 14.6002 37.9301 14.4792 38.1935 14.4617C38.4558 14.4446 38.7142 14.5315 38.9128 14.7036C39.1115 14.8757 39.2344 15.1191 39.2548 15.3811C39.2688 15.569 39.3548 17.2439 38.2135 18.4731C37.49 19.2486 36.4746 19.6444 35.1994 19.6444Z" fill="#65AF7C"/>
<path id="Vector_4" d="M27.0687 8.38065C25.024 8.38065 23.7109 6.6957 22.4397 5.06474C21.2105 3.48775 20.0412 1.99873 18.3823 1.99873C15.2183 1.99873 14.8745 4.59708 14.8625 4.70701C14.8472 4.83751 14.8062 4.9637 14.742 5.07836C14.6778 5.19301 14.5917 5.29387 14.4884 5.37519C14.3852 5.4565 14.267 5.51666 14.1405 5.55222C14.014 5.58779 13.8817 5.59805 13.7512 5.58243C13.488 5.55139 13.2479 5.41711 13.0838 5.20908C12.9196 5.00106 12.8448 4.73631 12.8758 4.47313C13.0596 2.92411 14.4448 0 18.3823 0C21.0266 0 22.6135 2.03669 24.0147 3.83554C25.036 5.14471 26.0014 6.38192 27.0687 6.38192C27.7703 6.38192 28.268 6.21005 28.6098 5.85628C29.1814 5.25666 29.1314 4.2573 29.1294 4.2573C29.1135 3.99344 29.2029 3.73404 29.3778 3.53588C29.5527 3.33772 29.799 3.21693 30.0628 3.19996C30.3251 3.18287 30.5835 3.26977 30.7822 3.44185C30.9808 3.61394 31.1037 3.85733 31.1241 4.11935C31.1381 4.30723 31.2241 5.9822 30.0828 7.20942C29.3573 7.98693 28.3359 8.38065 27.0687 8.38065Z" fill="#65AF7C"/>
<path id="Vector_5" d="M14.2748 30.8827C12.2301 30.8827 10.917 29.1958 9.6458 27.5648C8.41658 25.9878 7.25731 24.4988 5.59037 24.4988C2.52033 24.4988 2.10462 26.9372 2.06664 27.2151C2.03129 27.4757 1.89454 27.712 1.68612 27.8725C1.4777 28.033 1.21441 28.1049 0.953337 28.0725C0.692776 28.0395 0.455691 27.9053 0.293357 27.6988C0.131023 27.4923 0.0564734 27.2302 0.0858723 26.9692C0.267756 25.4222 1.65488 22.4961 5.59237 22.4961C8.23469 22.4961 9.82367 24.5348 11.2248 26.3316C12.2461 27.6428 13.2095 28.88 14.2768 28.88C14.9804 28.88 15.4761 28.7061 15.8198 28.3523C16.3895 27.7527 16.3395 26.7533 16.3395 26.7533C16.3231 26.4895 16.4119 26.2299 16.5864 26.0313C16.761 25.8328 17.0071 25.7115 17.2709 25.6941C17.5332 25.677 17.7916 25.7639 17.9903 25.9359C18.1889 26.108 18.3118 26.3514 18.3323 26.6134C18.3462 26.8013 18.4342 28.4762 17.2909 29.7055C16.5654 30.487 15.544 30.8827 14.2748 30.8827Z" fill="#65AF7C"/>
<path id="Vector_6" d="M27.0687 30.8826C25.024 30.8826 23.7109 29.1957 22.4397 27.5647C21.2105 25.9877 20.0412 24.4987 18.3823 24.4987C15.2183 24.4987 14.8745 27.097 14.8625 27.207C14.8472 27.3375 14.8062 27.4637 14.742 27.5783C14.6778 27.693 14.5917 27.7939 14.4884 27.8752C14.3852 27.9565 14.267 28.0167 14.1405 28.0522C14.014 28.0878 13.8817 28.098 13.7512 28.0824C13.488 28.0514 13.2479 27.9171 13.0838 27.709C12.9196 27.501 12.8448 27.2363 12.8758 26.9731C13.0596 25.4261 14.4448 22.5 18.3823 22.5C21.0266 22.5 22.6135 24.5387 24.0147 26.3355C25.036 27.6467 26.0014 28.8839 27.0687 28.8839C27.7703 28.8839 28.268 28.71 28.6098 28.3562C29.1814 27.7566 29.1314 26.7572 29.1294 26.7572C29.113 26.4931 29.2021 26.2332 29.3771 26.0346C29.552 25.836 29.7986 25.7149 30.0628 25.698C30.3251 25.6809 30.5835 25.7678 30.7822 25.9398C30.9808 26.1119 31.1037 26.3553 31.1241 26.6173C31.1381 26.8052 31.2241 28.4802 30.0828 29.7094C29.3573 30.4869 28.3359 30.8826 27.0687 30.8826Z" fill="#65AF7C"/>
<path id="Vector_7" d="M39.8627 30.8826C37.818 30.8826 36.5028 29.1957 35.2316 27.5647C34.0044 25.9877 32.8431 24.4987 31.1762 24.4987C28.0102 24.4987 27.6685 27.097 27.6545 27.207C27.6234 27.4701 27.4891 27.7102 27.2811 27.8744C27.073 28.0386 26.8083 28.1134 26.5452 28.0824C26.282 28.0514 26.0419 27.9171 25.8777 27.709C25.7135 27.501 25.6387 27.2363 25.6697 26.9731C25.8516 25.4261 27.2387 22.5 31.1762 22.5C33.8205 22.5 35.4075 24.5387 36.8086 26.3355C37.8299 27.6467 38.7933 28.8839 39.8627 28.8839C40.5642 28.8839 41.0619 28.71 41.4037 28.3562C41.9733 27.7566 41.9234 26.7572 41.9234 26.7572C41.9069 26.4931 41.996 26.2332 42.171 26.0346C42.346 25.836 42.5926 25.7149 42.8567 25.698C43.119 25.6809 43.3775 25.7678 43.5761 25.9398C43.7748 26.1119 43.8976 26.3553 43.9181 26.6173C43.9301 26.8052 44.018 28.4802 42.8748 29.7094C42.1512 30.4869 41.1378 30.8826 39.8627 30.8826Z" fill="#65AF7C"/>
</g>
</svg>
