<svg width="26" height="26" viewBox="0 0 26 26" fill="none" xmlns="http://www.w3.org/2000/svg">
<path d="M5.48532 13.2488C5.44553 13.249 5.40582 13.2461 5.36647 13.2402C5.26502 13.2247 5.1676 13.1894 5.07981 13.1363C4.99202 13.0832 4.91558 13.0133 4.85481 12.9306C4.79404 12.8479 4.75014 12.754 4.72566 12.6544C4.70118 12.5547 4.6966 12.4512 4.71214 12.3498C4.90826 11.0646 5.46453 10.0874 6.36618 9.447C8.24931 8.10711 11.1504 8.64341 12.8842 8.96363C13.2166 9.02525 13.503 9.07819 13.7269 9.10856C14.0226 9.15006 14.3212 9.16863 14.6198 9.1641C14.385 8.96908 14.1715 8.74975 13.9829 8.50978C13.9143 8.42299 13.8093 8.28241 13.7468 8.18435L13.7347 8.16526C13.3968 7.6247 13.236 6.99218 13.2747 6.35589C13.3192 5.61173 13.6327 4.90913 14.1569 4.37905C14.6811 3.84897 15.3801 3.52758 16.1237 3.47478C16.5436 3.4443 16.9653 3.50129 17.362 3.64215C17.7587 3.78301 18.122 4.00468 18.4286 4.29312C18.7359 4.58108 18.9809 4.9289 19.1487 5.31515C19.3164 5.70139 19.4033 6.11789 19.404 6.53899C19.404 7.35299 19.0421 7.99343 18.7696 8.40477L18.7627 8.41518C18.3236 9.07905 17.2319 10.727 14.5278 10.727C14.1896 10.7259 13.8519 10.7022 13.5169 10.6558C13.2565 10.6211 12.9519 10.5647 12.6005 10.4996C11.1104 10.2246 8.61549 9.76375 7.27127 10.7201C6.72021 11.1114 6.38787 11.7224 6.25596 12.5858C6.22779 12.7701 6.13462 12.9383 5.99329 13.0599C5.85196 13.1815 5.67176 13.2485 5.48532 13.2488ZM15.0537 7.32783C15.0928 7.38597 15.1639 7.48403 15.2117 7.54651L15.2195 7.55519C15.5823 8.00167 16.0586 8.3422 16.5984 8.54101C16.9408 8.26377 17.2326 7.92936 17.461 7.55259L17.4679 7.54217C17.7283 7.15166 17.842 6.84186 17.842 6.53899C17.8429 6.33165 17.8008 6.12636 17.7182 5.93618C17.6356 5.746 17.5143 5.57508 17.3621 5.43428C17.2114 5.29265 17.0329 5.18387 16.838 5.11485C16.643 5.04584 16.4358 5.01809 16.2296 5.03336C15.8666 5.06358 15.5264 5.22274 15.2706 5.48204C15.0148 5.74134 14.8603 6.08365 14.835 6.44701C14.8154 6.75613 14.8918 7.06377 15.0537 7.32783Z" fill="#1A342B"/>
<path d="M22.3615 10.8252C22.1332 10.5692 21.8408 10.5223 21.4529 10.636C20.9088 10.7957 19.3406 11.1029 18.0936 10.6872C17.9927 10.6535 17.886 10.6407 17.78 10.6497C17.6741 10.6587 17.571 10.6892 17.4772 10.7394C17.3835 10.7896 17.301 10.8585 17.2347 10.9417C17.1685 11.025 17.12 11.1209 17.0922 11.2235C17.0441 11.4215 17.0733 11.6304 17.1737 11.8077C17.2741 11.985 17.4383 12.1175 17.6328 12.1781C18.2127 12.3732 18.82 12.4746 19.4318 12.4784C20.271 12.4784 21.6256 12.2692 22.1089 12.0445C22.2187 11.9928 22.315 11.9163 22.3901 11.821C22.4652 11.7257 22.517 11.6142 22.5416 11.4954C22.5661 11.3766 22.5626 11.2537 22.5313 11.1364C22.5 11.0192 22.4419 10.9108 22.3615 10.82V10.8252Z" fill="#1A342B"/>
<path d="M4.24787 22.5333C4.14519 22.5333 4.04352 22.5131 3.94867 22.4738C3.85382 22.4345 3.76762 22.3768 3.69507 22.3042C3.54881 22.1577 3.46667 21.9592 3.46667 21.7523C3.46667 21.5453 3.54881 21.3468 3.69507 21.2003L12.4356 12.4572C12.5821 12.311 12.7806 12.229 12.9875 12.229C13.1944 12.229 13.3929 12.311 13.5394 12.4572L17.6563 16.5741C17.9234 16.8402 18.1054 17.1797 18.179 17.5495C18.2525 17.9193 18.2144 18.3027 18.0694 18.6507C17.927 19.0004 17.6836 19.2998 17.3702 19.5105C17.0569 19.7212 16.6879 19.8336 16.3103 19.8336H11.2666C11.0595 19.8336 10.8609 19.7513 10.7144 19.6048C10.5679 19.4583 10.4856 19.2597 10.4856 19.0525C10.4856 18.8454 10.5679 18.6467 10.7144 18.5003C10.8609 18.3538 11.0595 18.2715 11.2666 18.2715H16.3103C16.3787 18.274 16.446 18.2548 16.5029 18.2168C16.5598 18.1788 16.6032 18.1239 16.6271 18.0598C16.6555 17.9974 16.6636 17.9277 16.6504 17.8605C16.6372 17.7932 16.6032 17.7318 16.5533 17.6849L12.9884 14.1208L4.80151 22.3068C4.72864 22.3791 4.64223 22.4363 4.54723 22.4751C4.45223 22.514 4.35051 22.5338 4.24787 22.5333Z" fill="#1A342B"/>
</svg>
