<svg width="22" height="22" viewBox="0 0 22 22" fill="none" xmlns="http://www.w3.org/2000/svg">
<path d="M14.1117 19.0671H7.44054C7.26536 19.0671 7.09736 18.9975 6.97349 18.8737C6.84962 18.7498 6.78003 18.5818 6.78003 18.4066C6.78003 18.2314 6.84962 18.0634 6.97349 17.9395C7.09736 17.8157 7.26536 17.7461 7.44054 17.7461H14.1117C14.2869 17.7461 14.4549 17.8157 14.5787 17.9395C14.7026 18.0634 14.7722 18.2314 14.7722 18.4066C14.7722 18.5818 14.7026 18.7498 14.5787 18.8737C14.4549 18.9975 14.2869 19.0671 14.1117 19.0671Z" fill="#1A342B"/>
<path d="M17.2226 19.0674C17.0474 19.0674 16.8794 18.9978 16.7556 18.8739C16.6317 18.75 16.5621 18.582 16.5621 18.4069V15.1197C16.5621 13.889 16.2539 12.962 15.6469 12.3646C14.8896 11.619 13.8386 11.5537 13.421 11.5574H13.3851C12.8146 11.5518 12.2534 11.7009 11.7609 11.9889C12.4214 12.8255 12.7642 13.8236 12.7642 14.6515C12.7636 15.1701 12.562 15.6684 12.2018 16.0416C11.8416 16.4147 11.3509 16.6338 10.8326 16.6528C10.8189 16.6536 10.8051 16.6536 10.7915 16.6528H10.7606C10.7469 16.6536 10.7332 16.6536 10.7195 16.6528C10.2017 16.6335 9.71153 16.4144 9.3517 16.0416C8.99186 15.6688 8.79034 15.1711 8.78937 14.6529C8.78937 13.8251 9.13431 12.827 9.79262 11.9904C9.3002 11.7024 8.73892 11.5532 8.16849 11.5588H8.12886C7.71347 11.5515 6.66106 11.6175 5.90294 12.3661C5.29601 12.9635 4.98777 13.8904 4.98777 15.1212V18.4069C4.98777 18.582 4.91818 18.75 4.79431 18.8739C4.67044 18.9978 4.50244 19.0674 4.32726 19.0674C4.15208 19.0674 3.98408 18.9978 3.86021 18.8739C3.73634 18.75 3.66675 18.582 3.66675 18.4069V15.1197C3.66675 13.522 4.10709 12.278 4.97603 11.423C6.08935 10.3273 7.56743 10.2305 8.15015 10.24H8.16556C9.09873 10.2309 10.0112 10.5154 10.7738 11.0532C11.5368 10.5155 12.4495 10.231 13.3829 10.24H13.3975C13.981 10.229 15.4583 10.3273 16.5717 11.423C17.4406 12.278 17.8809 13.522 17.8809 15.1197V18.4069C17.8809 18.5816 17.8116 18.7493 17.6883 18.8731C17.5649 18.9969 17.3974 19.0668 17.2226 19.0674ZM10.776 12.882C10.3313 13.4758 10.1089 14.1539 10.1089 14.6552C10.1093 14.8333 10.1792 15.0044 10.3038 15.1317C10.4284 15.2591 10.5979 15.3327 10.776 15.3369C10.9542 15.3327 11.1236 15.2591 11.2483 15.1317C11.3729 15.0044 11.4428 14.8333 11.4432 14.6552C11.4432 14.1502 11.2208 13.4736 10.776 12.8798V12.882Z" fill="#1A342B"/>
<path d="M10.7767 9.77281C9.87006 9.77184 9.00085 9.41131 8.35971 8.77031C7.71857 8.12931 7.35785 7.26018 7.35669 6.35357C7.35785 5.44689 7.71855 4.57768 8.35966 3.93656C9.00078 3.29544 9.86999 2.93476 10.7767 2.93359C11.6833 2.93476 12.5524 3.29547 13.1934 3.93661C13.8344 4.57774 14.1949 5.44696 14.1959 6.35357C14.1949 7.26011 13.8344 8.12924 13.1934 8.77026C12.5523 9.41128 11.6832 9.77184 10.7767 9.77281ZM10.7767 4.25461C10.2202 4.2552 9.68663 4.47652 9.29312 4.87003C8.89962 5.26353 8.67829 5.79707 8.67771 6.35357C8.67829 6.91 8.89964 7.44346 9.29317 7.83685C9.68669 8.23024 10.2202 8.4514 10.7767 8.45179C11.333 8.45121 11.8663 8.22996 12.2597 7.83659C12.6531 7.44322 12.8743 6.90987 12.8749 6.35357C12.8745 5.79714 12.6533 5.2636 12.2599 4.87007C11.8666 4.47655 11.3331 4.2552 10.7767 4.25461Z" fill="#1A342B"/>
</svg>
