<svg width="44" height="38" viewBox="0 0 44 38" fill="none" xmlns="http://www.w3.org/2000/svg">
<g id="Group 1227">
<path id="Vector" d="M24.3415 37.1679C23.875 37.1679 23.4073 37.1465 22.9381 37.1037C18.7142 36.7308 15.1197 34.7722 12.5135 33.3408C11.3347 32.6993 10.3083 32.138 9.5806 31.9155C5.63327 30.7126 4.13574 34.1487 3.97937 34.5477C3.88195 34.7948 3.69039 34.9932 3.44681 35.0992C3.20323 35.2052 2.92755 35.2102 2.6803 35.113C2.4339 35.0163 2.23571 34.8261 2.12905 34.5839C2.02238 34.3416 2.01589 34.067 2.11094 33.82C2.86272 31.8734 5.51898 28.5676 10.17 30.011C11.1002 30.2957 12.2008 30.8971 13.4738 31.5927C18.6861 34.4334 26.5447 38.7296 35.9269 29.9388C41.476 24.7265 43.3965 17.6437 40.9387 11.427C38.6393 5.61327 32.9839 2.00474 26.1798 2.00474C23.0003 2.00474 20.2398 2.86281 17.9724 4.5528C15.9362 6.08214 14.4173 8.19852 13.6201 10.6171C11.9422 15.6049 13.4036 20.9175 17.2547 23.8384C21.5288 27.08 25.5644 25.9915 27.9159 23.8905C30.1753 21.8737 30.8909 19.011 29.654 16.926C29.5185 16.6974 29.4793 16.4243 29.5451 16.1668C29.6109 15.9093 29.7763 15.6884 30.0049 15.5528C30.2335 15.4172 30.5066 15.378 30.7641 15.4438C31.0216 15.5096 31.2425 15.675 31.3781 15.9036C33.1102 18.8225 32.2361 22.7197 29.2511 25.386C26.4444 27.896 21.2923 29.4156 16.0439 25.4362C11.5051 21.994 9.76702 15.7833 11.7196 9.9796C13.3415 5.15419 17.9925 0 26.1798 0C33.8259 0 40.195 4.0957 42.8031 10.6913C45.5697 17.6878 43.4607 25.6246 37.2981 31.4003C33.1924 35.2273 28.8441 37.1679 24.3415 37.1679Z" fill="#65AF7C"/>
<path id="Vector_2" d="M4.85548 14.1172C7.53708 14.1172 9.71095 11.9433 9.71095 9.26173C9.71095 6.58012 7.53708 4.40625 4.85548 4.40625C2.17387 4.40625 0 6.58012 0 9.26173C0 11.9433 2.17387 14.1172 4.85548 14.1172Z" fill="#65AF7C"/>
</g>
</svg>
