<svg width="30" height="30" viewBox="0 0 30 30" fill="none" xmlns="http://www.w3.org/2000/svg">
<g id="ico_run_sel">
<g id="Group 932">
<path id="Vector" d="M25.1083 23.9028H15.0726C14.2944 23.9048 13.5235 23.7524 12.8045 23.4546C12.0855 23.1568 11.4327 22.7194 10.8838 22.1677L6.00459 17.2874C5.3799 16.6612 5.02908 15.8129 5.02908 14.9284C5.02908 14.0439 5.3799 13.1955 6.00459 12.5693L6.67103 11.9018C6.75467 11.8182 6.85396 11.7518 6.96325 11.7065C7.07253 11.6613 7.18966 11.638 7.30796 11.638C7.42625 11.638 7.54339 11.6613 7.65267 11.7065C7.76196 11.7518 7.86125 11.8182 7.94488 11.9018C8.02854 11.9855 8.09491 12.0848 8.14018 12.1941C8.18546 12.3033 8.20877 12.4205 8.20877 12.5388C8.20877 12.6571 8.18546 12.7742 8.14018 12.8835C8.09491 12.9928 8.02854 13.0921 7.94488 13.1757L7.27744 13.8421C6.99012 14.1304 6.82878 14.5208 6.82878 14.9279C6.82878 15.3349 6.99012 15.7253 7.27744 16.0136L12.1577 20.8938C12.5396 21.2778 12.9939 21.5823 13.4942 21.7896C13.9946 21.9969 14.531 22.103 15.0726 22.1016H24.2077V19.0766C24.2061 18.5463 23.9948 18.0382 23.6198 17.6632C23.2448 17.2882 22.7367 17.0769 22.2064 17.0753H21.2527C21.014 17.0751 20.7851 16.9801 20.6163 16.8111L17.4762 13.673C14.0019 13.66 11.144 13.4729 9.91019 12.2381C9.33776 11.6643 9.0147 10.888 9.01114 10.0775C9.00758 9.26708 9.3238 8.48792 9.89118 7.90918L9.90118 7.89918L9.91019 7.89016L9.9202 7.88016C10.4991 7.31272 11.2784 6.99647 12.089 7.00003C12.8997 7.00359 13.6762 7.32668 14.2501 7.89918L18.2227 11.8718C18.685 11.8718 19.1423 11.8718 19.5846 11.8658C20.143 11.8658 20.7054 11.8598 21.2648 11.8598C21.5036 11.8598 21.7327 11.9547 21.9016 12.1236C22.0705 12.2925 22.1654 12.5216 22.1654 12.7604C22.1654 12.9993 22.0705 13.2283 21.9016 13.3972C21.7327 13.5661 21.5036 13.661 21.2648 13.661C20.8485 13.661 20.4322 13.661 20.0159 13.661L21.617 15.2621H22.1974C23.2051 15.2645 24.171 15.6658 24.8836 16.3784C25.5961 17.091 25.9975 18.0568 25.9999 19.0646V22.9902C26.0015 23.1087 25.9797 23.2264 25.9357 23.3365C25.8917 23.4466 25.8264 23.5469 25.7436 23.6316C25.6608 23.7164 25.562 23.784 25.453 23.8306C25.344 23.8771 25.2268 23.9017 25.1083 23.9028ZM11.179 9.17002C10.9405 9.40903 10.8065 9.73293 10.8065 10.0706C10.8065 10.4083 10.9405 10.7322 11.179 10.9712C11.7624 11.5556 13.5616 11.7717 15.635 11.8428L12.9762 9.17002C12.8582 9.05155 12.7178 8.95765 12.5632 8.89376C12.4086 8.82987 12.2429 8.79724 12.0756 8.79777C11.909 8.79766 11.744 8.83049 11.5902 8.89437C11.4363 8.95826 11.2966 9.05194 11.179 9.17002Z" fill="#65AF7C"/>
<path id="Vector_2" d="M17.2788 16.8461H14.469C14.2301 16.8461 14.001 16.7512 13.8321 16.5823C13.6632 16.4135 13.5684 16.1844 13.5684 15.9455C13.5684 15.7067 13.6632 15.4776 13.8321 15.3087C14.001 15.1398 14.2301 15.0449 14.469 15.0449H17.2788C17.5177 15.0449 17.7468 15.1398 17.9157 15.3087C18.0845 15.4776 18.1794 15.7067 18.1794 15.9455C18.1794 16.1844 18.0845 16.4135 17.9157 16.5823C17.7468 16.7512 17.5177 16.8461 17.2788 16.8461Z" fill="#65AF7C"/>
<path id="Vector_3" d="M8.82421 23.9029H4.9006C4.66175 23.9029 4.43268 23.808 4.26378 23.6391C4.09489 23.4702 4 23.2411 4 23.0023C4 22.7634 4.09489 22.5344 4.26378 22.3655C4.43268 22.1966 4.66175 22.1017 4.9006 22.1017H8.82421C9.06307 22.1017 9.29214 22.1966 9.46104 22.3655C9.62993 22.5344 9.72481 22.7634 9.72481 23.0023C9.72481 23.2411 9.62993 23.4702 9.46104 23.6391C9.29214 23.808 9.06307 23.9029 8.82421 23.9029Z" fill="#65AF7C"/>
<path id="Vector_4" d="M5.99633 20.9008H4.9006C4.66175 20.9008 4.43268 20.8059 4.26378 20.637C4.09489 20.4681 4 20.2391 4 20.0002C4 19.7614 4.09489 19.5323 4.26378 19.3634C4.43268 19.1945 4.66175 19.0996 4.9006 19.0996H5.99633C6.23519 19.0996 6.46426 19.1945 6.63315 19.3634C6.80205 19.5323 6.89693 19.7614 6.89693 20.0002C6.89693 20.1185 6.87363 20.2356 6.82837 20.3449C6.78311 20.4541 6.71678 20.5534 6.63315 20.637C6.54952 20.7207 6.45024 20.787 6.34098 20.8323C6.23171 20.8775 6.1146 20.9008 5.99633 20.9008Z" fill="#65AF7C"/>
</g>
</g>
</svg>
