<svg width="24" height="24" viewBox="0 0 24 24" fill="none" xmlns="http://www.w3.org/2000/svg">
<path d="M11.9999 15.9337C10.9972 15.9326 10.0359 15.5339 9.32683 14.8249C8.61774 14.116 8.2188 13.1548 8.21753 12.1521C8.2188 11.1494 8.61774 10.1881 9.32683 9.47921C10.0359 8.77027 10.9972 8.37154 11.9999 8.37048C13.0026 8.37176 13.9638 8.77069 14.6728 9.47977C15.3817 10.1889 15.7804 11.1502 15.7815 12.1529C15.78 13.1553 15.3811 14.1162 14.6722 14.8249C13.9633 15.5337 13.0023 15.9324 11.9999 15.9337ZM11.9999 9.81151C11.3794 9.81236 10.7846 10.0592 10.3458 10.498C9.90705 10.9367 9.6602 11.5316 9.65936 12.1521C9.6602 12.7725 9.90707 13.3673 10.3459 13.8059C10.7846 14.2445 11.3795 14.4912 11.9999 14.4918C12.6202 14.491 13.2148 14.2442 13.6534 13.8056C14.092 13.367 14.3388 12.7724 14.3397 12.1521C14.3388 11.5318 14.092 10.9372 13.6534 10.4985C13.2148 10.0599 12.6202 9.81316 11.9999 9.81231V9.81151Z" fill="#1A342B"/>
<path d="M11.9999 17.9114C10.1558 17.9126 8.34957 17.3877 6.79333 16.3983C5.28187 15.4381 4.06411 14.0801 3.27368 12.4733C3.22517 12.3745 3.19995 12.2658 3.19995 12.1557C3.19995 12.0456 3.22517 11.937 3.27368 11.8381C4.06411 10.2313 5.28187 8.87334 6.79333 7.91314C8.34957 6.92371 10.1558 6.3988 11.9999 6.40003C13.8441 6.3988 15.6503 6.92371 17.2065 7.91314C18.718 8.87334 19.9358 10.2313 20.7262 11.8381C20.7747 11.937 20.7999 12.0456 20.7999 12.1557C20.7999 12.2658 20.7747 12.3745 20.7262 12.4733C19.9358 14.0801 18.718 15.4381 17.2065 16.3983C15.6503 17.3877 13.8441 17.9126 11.9999 17.9114ZM4.72833 12.1521C5.40209 13.3857 6.37769 14.4283 7.56392 15.1824C8.88987 16.025 10.4289 16.4716 11.9999 16.4696C13.5707 16.4715 15.1094 16.0249 16.4352 15.1824C17.6214 14.4283 18.597 13.3857 19.2707 12.1521C18.597 10.9183 17.6214 9.87543 16.4352 9.12107C15.1094 8.27853 13.5707 7.83196 11.9999 7.83384C10.4289 7.83181 8.88987 8.27839 7.56392 9.12107C6.37766 9.87543 5.40206 10.9183 4.72833 12.1521Z" fill="#1A342B"/>
</svg>
