<svg width="28" height="28" viewBox="0 0 28 28" fill="none" xmlns="http://www.w3.org/2000/svg">
<g id="Group 1372">
<path id="Vector" d="M16.84 23.8086C16.2793 23.8049 15.7282 23.6633 15.2352 23.3963C13.9969 22.7383 13.3745 21.9327 13.0843 20.0339C12.6516 20.2299 12.3704 20.3953 12.3602 20.4004C12.1009 20.5582 11.7896 20.6066 11.4947 20.535C11.1998 20.4634 10.9453 20.2777 10.7872 20.0186C10.7089 19.8902 10.6566 19.7476 10.6335 19.599C10.6103 19.4503 10.6165 19.2986 10.652 19.1524C10.6875 19.0062 10.7514 18.8684 10.8401 18.747C10.9288 18.6255 11.0406 18.5226 11.169 18.4443C11.717 18.1254 12.293 17.8571 12.8896 17.6426C12.868 16.996 12.8578 16.2732 12.8578 15.4612V6.95595C12.8578 6.65217 12.9785 6.36083 13.1933 6.14603C13.4081 5.93122 13.6995 5.81055 14.0032 5.81055C14.307 5.81055 14.5983 5.93122 14.8131 6.14603C15.0279 6.36083 15.1486 6.65217 15.1486 6.95595V15.4599C15.1486 16.0835 15.1486 16.6371 15.1664 17.1297C16.4213 17.0419 17.75 17.318 18.7961 18.4227C20.1859 19.8901 20.0064 21.6044 19.2135 22.6416C18.936 23.0074 18.5769 23.3033 18.1648 23.5059C17.7528 23.7085 17.2991 23.8122 16.84 23.8086ZM15.3014 19.409C15.4833 20.9362 15.827 21.1169 16.3093 21.3728C16.9647 21.7215 17.3032 21.3728 17.3911 21.2544C17.5921 20.9897 17.6303 20.5213 17.1365 19.9983C16.658 19.4956 15.9886 19.3619 15.3014 19.409Z" fill="#1A342B"/>
<path id="Vector_2" d="M21.6545 9.94464C21.504 9.94468 21.3549 9.91502 21.2158 9.85737C21.0766 9.79972 20.9503 9.7152 20.8439 9.60866L14.0007 2.76424L7.1563 9.60866C7.04993 9.71506 6.92365 9.79946 6.78466 9.85705C6.64567 9.91463 6.49669 9.94427 6.34624 9.94427C6.1958 9.94427 6.04682 9.91463 5.90783 9.85705C5.76884 9.79946 5.64256 9.71506 5.53619 9.60866C5.42979 9.50229 5.34539 9.37601 5.28781 9.23702C5.23022 9.09803 5.20056 8.94905 5.20056 8.7986C5.20056 8.64816 5.23022 8.49918 5.28781 8.36019C5.34539 8.2212 5.42979 8.09491 5.53619 7.98855L13.19 0.334713C13.2965 0.2284 13.423 0.144119 13.5621 0.0866874C13.7012 0.0292557 13.8502 -0.000200889 14.0007 1.03109e-06C14.3042 -6.92257e-05 14.5953 0.120314 14.8101 0.334713L22.464 7.98855C22.5704 8.09491 22.6548 8.2212 22.7124 8.36019C22.7699 8.49918 22.7996 8.64816 22.7996 8.7986C22.7996 8.94905 22.7699 9.09803 22.7124 9.23702C22.6548 9.37601 22.5704 9.50229 22.464 9.60866C22.2494 9.82352 21.9582 9.94438 21.6545 9.94464Z" fill="#1A342B"/>
<path id="Vector_3" d="M26.8533 28.0001H1.1454C0.841623 28.0001 0.550279 27.8794 0.335474 27.6646C0.120669 27.4498 0 27.1585 0 26.8547V22.0097C0 21.7059 0.120669 21.4145 0.335474 21.1997C0.550279 20.9849 0.841623 20.8643 1.1454 20.8643C1.44918 20.8643 1.74053 20.9849 1.95533 21.1997C2.17014 21.4145 2.29081 21.7059 2.29081 22.0097V25.7144H25.7079V22.0097C25.7079 21.7059 25.8286 21.4145 26.0434 21.1997C26.2582 20.9849 26.5496 20.8643 26.8533 20.8643C27.1571 20.8643 27.4485 20.9849 27.6633 21.1997C27.8781 21.4145 27.9987 21.7059 27.9987 22.0097V26.8598C27.9974 27.1627 27.8761 27.4527 27.6615 27.6664C27.4468 27.8801 27.1562 28.0001 26.8533 28.0001Z" fill="#1A342B"/>
</g>
</svg>
