<svg width="30" height="30" viewBox="0 0 30 30" fill="none" xmlns="http://www.w3.org/2000/svg">
<g id="ico_enter">
<path id="Path Copy 8" d="M11.2457 20.7745C11.3946 20.9189 11.5967 21 11.8075 21C12.0182 21 12.2204 20.9189 12.3693 20.7745L17.7671 15.5508C17.9162 15.4065 18 15.2108 18 15.0067C18 14.8025 17.9162 14.6068 17.7671 14.4626L12.3693 9.23887C12.1704 9.03645 11.8737 8.95447 11.5945 9.02472C11.3152 9.09498 11.0972 9.30643 11.0252 9.57702C10.9531 9.84761 11.0383 10.1348 11.2477 10.3271L16.0836 15.0067L11.2477 19.6863C11.0983 19.8303 11.0141 20.0258 11.0138 20.23C11.0134 20.4341 11.0968 20.6299 11.2457 20.7745Z" fill="#1A342B"/>
</g>
</svg>
