<svg width="70" height="70" viewBox="0 0 70 70" fill="none" xmlns="http://www.w3.org/2000/svg">
<rect width="70" height="70" rx="14" fill="#D1E5D1"/>
<path d="M36.5885 36.3406C38.9054 40.5972 43.5997 43.628 49.8634 43.0757C54.3692 42.6985 58.0465 39.4185 58.0465 34.8993C58.0412 32.7313 57.1757 30.6541 55.6402 29.1236C54.1047 27.5931 52.0246 26.7345 49.8566 26.7363C45.3441 26.7363 41.8419 30.1039 39.7203 38.4689C38.4541 43.4596 38.3733 53.2861 38.3733 58.0007H31.7055C31.7055 49.2854 29.4156 37.4182 27.8868 33.9833C27.1003 32.2742 25.8375 30.8282 24.2499 29.8188C22.6622 28.8093 20.8171 28.2792 18.9358 28.2921C18.0245 28.2921 17.1222 28.4718 16.2805 28.821C15.4388 29.1701 14.6742 29.6818 14.0305 30.3268C13.3868 30.9717 12.8766 31.7373 12.5291 32.5797C12.1816 33.4221 12.0036 34.3248 12.0054 35.236C11.9684 36.1563 12.1224 37.0744 12.4575 37.9323C12.7926 38.7902 13.3017 39.5695 13.9526 40.2211C14.6036 40.8727 15.3824 41.3825 16.24 41.7185C17.0976 42.0544 18.0154 42.2092 18.9358 42.1732C20.7961 42.1732 23.0275 41.3295 24.6554 39.1981" stroke="#456C51" stroke-width="2" stroke-linecap="round" stroke-linejoin="round"/>
<path d="M46.664 43.043C46.3307 44.232 45.618 45.2795 44.6344 46.026C43.6507 46.7725 42.4501 47.1772 41.2153 47.1783C40.3306 47.1808 39.4581 46.9731 38.6694 46.5722" stroke="#456C51" stroke-width="2" stroke-linecap="round" stroke-linejoin="round"/>
<path d="M30.3244 43.7158C29.7223 44.6093 28.9099 45.3413 27.9587 45.8474C27.0075 46.3536 25.9465 46.6184 24.869 46.6186C23.492 46.6203 22.1493 46.1896 21.0303 45.3872C19.9113 44.5848 19.0725 43.4512 18.6323 42.1465" stroke="#456C51" stroke-width="2" stroke-linecap="round" stroke-linejoin="round"/>
<path d="M51.783 26.9654C51.845 26.5846 51.8766 26.1995 51.8773 25.8137C51.8773 23.975 51.1473 22.2115 49.8478 20.9108C48.5483 19.61 46.7856 18.8783 44.9469 18.8765C44.5925 18.8803 44.239 18.9118 43.8895 18.9708C43.4792 17.0005 42.4027 15.2317 40.8411 13.9621C39.2796 12.6924 37.3283 11.9995 35.3157 12C33.3692 12.0038 31.4794 12.656 29.945 13.8538C28.4106 15.0516 27.3191 16.7265 26.8429 18.6139C25.7559 17.9423 24.5039 17.5856 23.2262 17.5834C21.3881 17.5834 19.6253 18.3136 18.3256 19.6133C17.0259 20.913 16.2958 22.6758 16.2958 24.5138C16.2947 25.9222 16.7248 27.2972 17.5283 28.4539" stroke="#456C51" stroke-width="2" stroke-linecap="round" stroke-linejoin="round"/>
</svg>
