<svg width="30" height="30" viewBox="0 0 30 30" fill="none" xmlns="http://www.w3.org/2000/svg">
<g id="ico_symptoms_sel">
<g id="Group 887">
<path id="Vector 12" d="M18.5 4H14.5L14 6.5L7 8.5V13.5L5 17L7 19L13.5 19.5L12 21L10.5 26H14L15.5 22.5H22L24 19.5L22 16.5V13L20.5 10.5H13.5L17 9L18.5 4Z" fill="#C1E1CE"/>
<g id="Group 711">
<path id="Vector" d="M22.5113 15.7247C22.9374 15.1442 23.1942 14.457 23.2532 13.7394C23.3121 13.0217 23.1709 12.3018 22.8453 11.6596C22.5196 11.0174 22.0222 10.4781 21.4085 10.1016C20.7947 9.72514 20.0885 9.52623 19.3685 9.52702H17.2595C17.8833 8.9288 18.3795 8.21055 18.7184 7.41551C19.0573 6.62046 19.2317 5.76507 19.2313 4.90082C19.2313 4.66191 19.1364 4.43279 18.9675 4.26385C18.7985 4.09491 18.5694 4 18.3305 4C18.0916 4 17.8625 4.09491 17.6935 4.26385C17.5246 4.43279 17.4297 4.66191 17.4297 4.90082C17.4281 6.12728 16.9402 7.30304 16.073 8.17028C15.2057 9.03752 14.0299 9.52543 12.8035 9.52702H10.1831C9.94419 9.52702 9.71507 9.62193 9.54613 9.79087C9.37719 9.95981 9.28229 10.1889 9.28229 10.4278C9.28229 10.6668 9.37719 10.8959 9.54613 11.0648C9.71507 11.2338 9.94419 11.3287 10.1831 11.3287H19.3715C19.6505 11.3226 19.9279 11.3723 20.1875 11.4748C20.447 11.5774 20.6835 11.7307 20.883 11.9259C21.0825 12.1211 21.241 12.3542 21.3492 12.6114C21.4574 12.8687 21.5132 13.145 21.5132 13.4241C21.5132 13.7032 21.4574 13.9794 21.3492 14.2367C21.241 14.494 21.0825 14.727 20.883 14.9222C20.6835 15.1174 20.447 15.2707 20.1875 15.3733C19.9279 15.4759 19.6505 15.5256 19.3715 15.5195H10.1831C9.94419 15.5195 9.71507 15.6144 9.54613 15.7833C9.37719 15.9523 9.28229 16.1814 9.28229 16.4203C9.28229 16.6592 9.37719 16.8883 9.54613 17.0573C9.71507 17.2262 9.94419 17.3211 10.1831 17.3211H21.2652C21.5442 17.315 21.8216 17.3647 22.0812 17.4673C22.3408 17.5698 22.5772 17.7232 22.7767 17.9184C22.9762 18.1136 23.1347 18.3466 23.2429 18.6039C23.3511 18.8611 23.4069 19.1374 23.4069 19.4165C23.4069 19.6956 23.3511 19.9719 23.2429 20.2291C23.1347 20.4864 22.9762 20.7195 22.7767 20.9146C22.5772 21.1098 22.3408 21.2632 22.0812 21.3658C21.8216 21.4683 21.5442 21.518 21.2652 21.5119H16.8011C15.85 21.513 14.938 21.8912 14.2654 22.5637C13.5927 23.2362 13.2142 24.148 13.2129 25.0992C13.2129 25.3381 13.3078 25.5672 13.4767 25.7362C13.6456 25.9051 13.8748 26 14.1137 26C14.3526 26 14.5817 25.9051 14.7507 25.7362C14.9196 25.5672 15.0145 25.3381 15.0145 25.0992C15.015 24.6256 15.2035 24.1716 15.5384 23.8368C15.8734 23.502 16.3275 23.3138 16.8011 23.3136H21.2652C22.1894 23.3139 23.0836 22.9857 23.7882 22.3876C24.4928 21.7895 24.9618 20.9604 25.1116 20.0484C25.2613 19.1364 25.082 18.2009 24.6057 17.4089C24.1294 16.6168 23.3871 16.0199 22.5113 15.7247Z" fill="#65AF7C"/>
<path id="Vector_2" d="M16.5438 20.3168H18.907C19.1459 20.3168 19.375 20.2219 19.5439 20.053C19.7129 19.8841 19.8078 19.6549 19.8078 19.416C19.8078 19.1771 19.7129 18.948 19.5439 18.779C19.375 18.6101 19.1459 18.5152 18.907 18.5152H7.89696C7.61793 18.5213 7.3405 18.4716 7.08094 18.369C6.82137 18.2665 6.5849 18.1131 6.38541 17.9179C6.18592 17.7227 6.02742 17.4897 5.91921 17.2324C5.811 16.9752 5.75526 16.6989 5.75526 16.4198C5.75526 16.1407 5.811 15.8644 5.91921 15.6072C6.02742 15.3499 6.18592 15.1168 6.38541 14.9217C6.5849 14.7265 6.82137 14.5731 7.08094 14.4705C7.3405 14.368 7.61793 14.3183 7.89696 14.3244H18.907C19.1459 14.3244 19.375 14.2295 19.5439 14.0605C19.7129 13.8916 19.8078 13.6625 19.8078 13.4236C19.8078 13.1847 19.7129 12.9555 19.5439 12.7866C19.375 12.6177 19.1459 12.5227 18.907 12.5227H9.78768C9.23987 12.5108 8.71854 12.2847 8.33534 11.8931C7.95215 11.5014 7.73757 10.9753 7.73757 10.4273C7.73757 9.8794 7.95215 9.35326 8.33534 8.9616C8.71854 8.56994 9.23987 8.34391 9.78768 8.33194H12.0507C12.9604 8.33088 13.8325 7.96904 14.4757 7.32581C15.119 6.68258 15.4808 5.81048 15.4819 4.90082C15.4819 4.66191 15.3869 4.43279 15.218 4.26385C15.0491 4.09491 14.8199 4 14.581 4C14.3421 4 14.113 4.09491 13.9441 4.26385C13.7751 4.43279 13.6802 4.66191 13.6802 4.90082C13.68 5.3329 13.5082 5.74722 13.2027 6.05274C12.8971 6.35827 12.4828 6.53004 12.0507 6.5303H9.78768C9.06768 6.53016 8.36172 6.72956 7.7482 7.10636C7.13467 7.48317 6.63757 8.02265 6.3121 8.66488C5.98663 9.30712 5.84551 10.027 5.90442 10.7446C5.96333 11.4622 6.21996 12.1494 6.64582 12.7299C5.7711 13.0264 5.03013 13.6239 4.55504 14.4159C4.07996 15.208 3.90166 16.143 4.05193 17.0543C4.20221 17.9656 4.6713 18.7939 5.37554 19.3914C6.07977 19.989 6.97337 20.3169 7.89696 20.3168H11.9837C11.3313 20.9309 10.8114 21.6719 10.4561 22.4944C10.1009 23.3168 9.91766 24.2033 9.91779 25.0992C9.91779 25.3381 10.0127 25.5672 10.1816 25.7362C10.3506 25.9051 10.5797 26 10.8186 26C11.0575 26 11.2867 25.9051 11.4556 25.7362C11.6245 25.5672 11.7194 25.3381 11.7194 25.0992C11.721 23.8313 12.2254 22.6158 13.1219 21.7193C14.0184 20.8228 15.2339 20.3184 16.5018 20.3168H16.5438Z" fill="#65AF7C"/>
</g>
</g>
</g>
</svg>
