<svg width="30" height="30" viewBox="0 0 30 30" fill="none" xmlns="http://www.w3.org/2000/svg">
<g id="ico_add">
<g id="Group 843">
<path id="Vector" d="M21.4906 4.00006H11.4626C10.6174 3.99565 9.78816 4.23031 9.07058 4.67695C8.35301 5.1236 7.77634 5.76403 7.40712 6.52435C7.2989 6.55441 7.19067 6.58748 7.08345 6.62455C5.15241 7.30498 4 9.19994 4 11.6952V21.4987C4 22.6946 4.4751 23.8416 5.32078 24.6873C6.16646 25.533 7.31345 26.0081 8.50943 26.0081H13.3997C13.6389 26.0081 13.8682 25.9131 14.0374 25.7439C14.2065 25.5748 14.3015 25.3454 14.3015 25.1062C14.3015 24.867 14.2065 24.6376 14.0374 24.4685C13.8682 24.2993 13.6389 24.2043 13.3997 24.2043H8.50943C7.79184 24.2043 7.10365 23.9192 6.59624 23.4118C6.08883 22.9044 5.80377 22.2162 5.80377 21.4987V11.6952C5.80377 10.8344 5.98114 9.41339 7.04236 8.6558C7.13667 9.41465 7.45007 10.1296 7.94425 10.7131C8.02341 10.8133 8.10559 10.8985 8.18876 10.9817C8.40766 11.2016 8.66801 11.376 8.95475 11.4947C9.24149 11.6134 9.54892 11.674 9.85925 11.6731C10.479 11.6751 11.0745 11.432 11.5157 10.9967L11.5247 10.9877C12.3755 10.1209 12.3976 8.75601 11.5748 7.73387C11.0714 7.12714 10.3846 6.70024 9.61775 6.51734C10.1211 6.06449 10.7745 5.81453 11.4516 5.81587H21.4906C22.2082 5.81587 22.8964 6.10092 23.4038 6.60833C23.9112 7.11574 24.1962 7.80394 24.1962 8.52153V21.5147C24.1962 22.2323 23.9112 22.9205 23.4038 23.4279C22.8964 23.9353 22.2082 24.2203 21.4906 24.2203H16.6424C16.4032 24.2203 16.1738 24.3154 16.0047 24.4845C15.8356 24.6536 15.7405 24.883 15.7405 25.1222C15.7405 25.3614 15.8356 25.5908 16.0047 25.76C16.1738 25.9291 16.4032 26.0241 16.6424 26.0241H21.4906C22.6865 26.0241 23.8335 25.549 24.6792 24.7033C25.5249 23.8577 26 22.7107 26 21.5147V8.50649C25.9992 7.31104 25.5238 6.16482 24.6782 5.31979C23.8326 4.47476 22.686 4.00006 21.4906 4.00006ZM10.1789 8.8492C10.3322 9.0396 10.5186 9.43443 10.2471 9.71001C10.1423 9.81392 10.0008 9.87221 9.85324 9.87221C9.70571 9.87221 9.56415 9.81392 9.45942 9.71001C9.41317 9.66424 9.36935 9.61606 9.32814 9.5657C8.99995 9.18455 8.82026 8.69781 8.82208 8.19484C9.37724 8.24695 9.8803 8.47742 10.1799 8.8492H10.1789Z" fill="#456C51"/>
<path id="Vector_2" d="M15.922 16.5174H18.6928C18.932 16.5174 19.1614 16.4224 19.3305 16.2532C19.4996 16.0841 19.5947 15.8547 19.5947 15.6155C19.5947 15.3763 19.4996 15.1469 19.3305 14.9778C19.1614 14.8086 18.932 14.7136 18.6928 14.7136H15.922V11.9428C15.922 11.7036 15.827 11.4742 15.6578 11.3051C15.4887 11.136 15.2593 11.0409 15.0201 11.0409C14.7809 11.0409 14.5515 11.136 14.3824 11.3051C14.2132 11.4742 14.1182 11.7036 14.1182 11.9428V14.7136H11.3474C11.1082 14.7136 10.8788 14.8086 10.7097 14.9778C10.5406 15.1469 10.4455 15.3763 10.4455 15.6155C10.4455 15.8547 10.5406 16.0841 10.7097 16.2532C10.8788 16.4224 11.1082 16.5174 11.3474 16.5174H14.1182V19.2882C14.1182 19.5274 14.2132 19.7568 14.3824 19.9259C14.5515 20.095 14.7809 20.1901 15.0201 20.1901C15.2593 20.1901 15.4887 20.095 15.6578 19.9259C15.827 19.7568 15.922 19.5274 15.922 19.2882V16.5174Z" fill="#456C51"/>
</g>
</g>
</svg>
