<svg width="22" height="22" viewBox="0 0 22 22" fill="none" xmlns="http://www.w3.org/2000/svg">
<g id="ico_voice">
<path id="Vector" d="M11.5369 16.7243C13.1276 16.5767 14.606 15.8409 15.6829 14.6609C16.7598 13.4809 17.3577 11.9415 17.3596 10.344C17.3596 10.1693 17.2902 10.0018 17.1667 9.87829C17.0432 9.75478 16.8757 9.6854 16.701 9.6854C16.5263 9.6854 16.3588 9.75478 16.2353 9.87829C16.1118 10.0018 16.0424 10.1693 16.0424 10.344C16.0407 11.5918 15.5813 12.7955 14.7513 13.7272C13.9213 14.6589 12.7784 15.2537 11.5391 15.399C11.5391 14.9153 11.5391 14.4836 11.526 14.0987C11.624 14.0709 11.7228 14.0401 11.8187 14.005C13.228 13.5081 14.0703 12.4068 14.0703 11.0582V6.1773C14.0767 5.75363 13.9988 5.33291 13.8411 4.93962C13.6834 4.54634 13.4491 4.18833 13.1517 3.88646C12.8544 3.58458 12.5 3.34485 12.1091 3.18122C11.7183 3.01759 11.2988 2.93332 10.875 2.93332C10.4513 2.93332 10.0318 3.01759 9.64097 3.18122C9.25011 3.34485 8.89571 3.58458 8.59836 3.88646C8.30102 4.18833 8.06668 4.54634 7.90898 4.93962C7.75128 5.33291 7.67337 5.75363 7.67978 6.1773V9.29391C7.67978 9.46858 7.74917 9.63609 7.87268 9.7596C7.99619 9.88311 8.1637 9.9525 8.33837 9.9525C8.51304 9.9525 8.68056 9.88311 8.80407 9.7596C8.92758 9.63609 8.99696 9.46858 8.99696 9.29391V6.1773C8.99203 5.92755 9.03697 5.67933 9.12914 5.44715C9.2213 5.21498 9.35885 5.00351 9.53374 4.82514C9.70862 4.64677 9.91733 4.50507 10.1476 4.40834C10.378 4.31161 10.6252 4.26178 10.875 4.26178C11.1248 4.26178 11.3721 4.31161 11.6024 4.40834C11.8328 4.50507 12.0415 4.64677 12.2163 4.82514C12.3912 5.00351 12.5288 5.21498 12.621 5.44715C12.7131 5.67933 12.7581 5.92755 12.7531 6.1773V11.0582C12.7531 12.0827 11.9562 12.5466 11.4359 12.7413C11.3269 11.85 11.0979 11.3429 10.6237 10.9565C9.96509 10.4223 8.93476 10.4816 8.31788 11.0882L8.3113 11.0941C7.70832 11.708 7.64832 12.7376 8.17885 13.3962C8.55937 13.8696 9.29992 14.2209 10.2161 14.2531C10.2227 14.5912 10.2249 14.9702 10.2256 15.3888C8.98527 15.2447 7.84101 14.6502 7.00995 13.7182C6.1789 12.7863 5.71888 11.5817 5.71718 10.333C5.71718 10.1583 5.6478 9.99082 5.52429 9.86731C5.40078 9.74381 5.23326 9.67442 5.05859 9.67442C4.88392 9.67442 4.71641 9.74381 4.5929 9.86731C4.46939 9.99082 4.4 10.1583 4.4 10.333C4.40193 11.9307 4.99992 13.4701 6.07695 14.6501C7.15399 15.8302 8.63257 16.5659 10.2234 16.7133C10.2234 17.017 10.2234 17.3368 10.2234 17.6763C10.2234 17.7004 10.2234 17.7253 10.2234 17.7495H7.48513C7.31046 17.7495 7.14295 17.8189 7.01944 17.9424C6.89593 18.0659 6.82654 18.2334 6.82654 18.4081C6.82654 18.5827 6.89593 18.7503 7.01944 18.8738C7.14295 18.9973 7.31046 19.0667 7.48513 19.0667H14.2708C14.4455 19.0667 14.613 18.9973 14.7365 18.8738C14.86 18.7503 14.9294 18.5827 14.9294 18.4081C14.9294 18.2334 14.86 18.0659 14.7365 17.9424C14.613 17.8189 14.4455 17.7495 14.2708 17.7495H11.5318C11.5318 17.7253 11.5362 17.7004 11.5362 17.6763C11.5362 17.3477 11.5362 17.0279 11.5369 16.7243ZM9.20113 12.5825C9.08917 12.4434 9.11331 12.1654 9.24796 12.0285C9.3826 11.8917 9.66287 11.8683 9.79898 11.9795C9.97387 12.1215 10.0771 12.4324 10.1378 12.9352C9.73166 12.9103 9.37602 12.802 9.20113 12.5825Z" fill="#456C51"/>
</g>
</svg>
