<svg width="16" height="16" viewBox="0 0 16 16" fill="none" xmlns="http://www.w3.org/2000/svg">
<g id="icon_down">
<path id="Path Copy 8" d="M2.22555 4.24568C2.08114 4.39462 2 4.59674 2 4.80749C2 5.01825 2.08114 5.22036 2.22555 5.36931L7.44925 10.7671C7.59349 10.9162 7.78923 11 7.99334 11C8.19745 11 8.39319 10.9162 8.53744 10.7671L13.7611 5.36931C13.9636 5.17038 14.0455 4.87373 13.9753 4.59445C13.905 4.31518 13.6936 4.09723 13.423 4.02518C13.1524 3.95312 12.8652 4.0383 12.6729 4.24766L7.99334 9.08364L3.31374 4.24766C3.16975 4.09829 2.97415 4.01415 2.77004 4.01378C2.56593 4.0134 2.37005 4.09683 2.22555 4.24568Z" fill="#1A342B"/>
</g>
</svg>
