<svg width="81" height="42" viewBox="0 0 81 42" fill="none" xmlns="http://www.w3.org/2000/svg">
<g id="img_mild_diarrhoea_nor">
<g id="Group 1043" opacity="0.3">
<path id="Vector 135" d="M2.75273 19.5767C4.23387 18.8361 5.52987 16.9538 5.99272 16.1053C7.61279 13.9027 9.23263 14.7168 11.5469 14.9483C13.8612 15.1797 15.4812 12.8654 17.7955 11.7083C20.1097 10.5511 19.6469 12.4024 23.3497 12.634C27.0526 12.8655 28.4411 9.85685 30.524 9.16254C32.6068 8.46823 34.2268 10.7824 36.0783 10.5511C37.9297 10.3198 40.0125 7.31114 42.3268 8.69971C44.6411 10.0883 51.3525 10.7824 53.2039 9.16254C55.0553 7.54264 57.1382 7.54255 59.221 9.62539C61.3039 11.7082 64.081 11.0139 65.9324 10.7824C67.7838 10.551 68.4781 12.4024 71.7181 12.4024C74.9581 12.4024 79.1238 15.6424 79.8181 17.7253C80.5124 19.8081 79.1238 20.0395 77.2724 20.5024C75.421 20.9653 77.9667 23.7424 79.1238 25.5938C80.2809 27.4452 75.8838 27.9081 71.7181 28.6024C67.5524 29.2967 62.6924 26.0567 60.6096 25.8252C58.5267 25.5938 57.8325 26.5195 58.2953 28.3709C58.7582 30.2224 63.6181 30.2224 61.5353 31.8424C59.4524 33.4624 47.8811 34.1566 45.3354 33.2309C42.7897 32.3052 44.6411 28.6024 47.4182 28.3709C50.1953 28.1395 51.1211 27.9081 52.0468 26.5195C52.9725 25.131 50.8896 22.3538 49.2696 24.2052C47.6496 26.0567 40.0125 30.6852 35.6154 31.6109C31.2183 32.5366 29.8297 30.2224 28.4411 29.0652C27.0526 27.9081 27.0526 28.8338 24.044 31.6109C21.0354 34.3881 18.9526 33.6938 17.7955 32.7681C16.6383 31.8424 15.7126 33.2309 12.7041 34.1566C9.69549 35.0823 8.76978 31.8424 8.53835 30.2224C8.30692 28.6024 5.52987 26.2881 2.75273 24.6681C-0.0244001 23.0481 0.901311 20.5024 2.75273 19.5767Z" fill="#A38877" stroke="#6B4A39" stroke-linecap="round"/>
<g id="Group 1042">
<path id="Vector 135_2" d="M11.3159 14.9481C11.6245 15.7195 11.7325 17.355 9.69592 17.7253C7.15022 18.1881 5.2988 19.5767 5.2988 21.891C5.2988 24.2052 5.99308 25.1309 7.38165 25.3624C8.77021 25.5938 10.3902 25.1309 10.8531 26.0567C11.3159 26.9824 12.2416 28.8338 9.00164 30.4538" stroke="#6B4A39" stroke-linecap="round"/>
<path id="Vector 136" d="M22.6559 12.6339C21.0359 13.4053 17.7034 15.3647 17.3331 17.031C16.8702 19.1138 14.7874 20.0395 12.936 19.5767C11.0845 19.1138 7.15027 20.5024 5.53027 21.891" stroke="#6B4A39" stroke-linecap="round"/>
<path id="Vector 137" d="M22.4245 12.8653C23.4273 13.0967 25.3405 13.9761 24.9702 15.6424C24.5073 17.7252 23.3502 19.1138 21.7302 19.1138C20.1102 19.1138 21.7302 22.8167 24.5073 23.0481C27.2845 23.2795 27.7474 20.7338 28.9045 20.2709C30.0616 19.8081 31.2188 19.3452 30.5245 17.7252C29.8302 16.1052 30.2931 14.9481 32.3759 13.5595C34.4588 12.171 35.3845 11.9395 35.6159 10.7824" stroke="#6B4A39" stroke-linecap="round"/>
<path id="Vector 138" d="M27.0531 11.7081C27.5159 12.711 28.9045 14.5315 30.7559 14.7167" stroke="#6B4A39" stroke-linecap="round"/>
<path id="Vector 139" d="M21.9618 21.891C21.036 21.6596 19.1383 21.4744 18.9532 22.5853C18.7218 23.9739 19.4161 26.0568 18.4903 26.9825C17.5646 27.9082 15.4818 28.6025 15.4818 32.7682" stroke="#6B4A39" stroke-linecap="round"/>
<path id="Vector 140" d="M12.4732 22.5853C13.2446 22.8167 14.8338 23.6035 15.0189 24.8995C15.2504 26.5195 15.0189 27.9081 16.4075 28.371" stroke="#6B4A39" stroke-linecap="round"/>
<path id="Vector 141" d="M36.5417 10.551C37.3131 11.091 38.9486 12.4024 39.3188 13.3281C39.7817 14.4853 40.2445 14.9481 42.096 14.0224C43.9474 13.0967 44.6417 13.0967 46.0302 10.0881" stroke="#6B4A39" stroke-linecap="round"/>
<path id="Vector 142" d="M30.5246 17.7252C30.9875 17.7252 33.3017 16.5681 33.996 17.7252C34.6903 18.8824 34.9217 20.271 37.4674 19.3453C40.0131 18.4196 43.0217 15.4111 45.336 17.0311C47.6502 18.6511 47.4188 19.3453 49.5017 19.3453C51.5845 19.3453 51.1217 21.891 50.196 23.2796" stroke="#6B4A39" stroke-linecap="round"/>
<path id="Vector 143" d="M35.6162 19.5767C34.7676 20.3481 33.3019 22.215 34.2276 23.511C35.3847 25.131 35.1532 25.3624 35.1532 27.2138C35.1532 29.0653 36.7732 30.6853 38.3932 30.6853" stroke="#6B4A39" stroke-linecap="round"/>
<path id="Vector 144" d="M38.1615 19.1138C39.0872 19.8081 40.9849 21.4744 41.17 22.5853C41.4015 23.9738 45.3357 24.6681 45.5672 22.8167C45.7986 20.9653 44.6414 19.3453 46.9557 18.4196" stroke="#6B4A39" stroke-linecap="round"/>
<path id="Vector 145" d="M33.996 23.0481C33.5332 23.511 32.3297 24.4367 31.2189 24.4367C29.8303 24.4367 27.7475 24.6681 27.516 28.6024" stroke="#6B4A39" stroke-linecap="round"/>
<path id="Vector 146" d="M19.4157 25.1309C20.2643 24.8995 22.1929 24.7143 23.1186 25.8252C24.0443 26.936 25.3557 28.7566 25.8957 29.5281" stroke="#6B4A39" stroke-linecap="round"/>
<path id="Vector 147" d="M47.8813 18.8824C47.4956 17.4938 47.3259 14.5779 49.7328 14.0224C52.7413 13.3281 52.0471 15.1796 55.0557 13.5596C58.0642 11.9396 58.99 11.2453 58.99 9.62531" stroke="#6B4A39" stroke-linecap="round"/>
<path id="Vector 148" d="M62.693 11.0139C61.9215 12.4024 59.9158 15.2721 58.0644 15.6424C55.7501 16.1053 52.7416 18.651 53.6673 20.271C54.593 21.891 56.4445 22.8167 58.0644 21.6595C59.6844 20.5024 60.3786 18.8824 62.4615 17.031C64.5443 15.1796 67.5529 14.9481 69.4043 12.171" stroke="#6B4A39" stroke-linecap="round"/>
<path id="Vector 149" d="M52.0474 27.2139C52.4331 27.831 53.4823 29.0653 54.5931 29.0653C55.9817 29.0653 56.9074 28.6024 58.0645 27.4453" stroke="#6B4A39" stroke-linecap="round"/>
<path id="Vector 150" d="M48.113 28.6024C48.8844 28.6796 50.5199 29.343 50.8901 31.3795" stroke="#6B4A39" stroke-linecap="round"/>
<path id="Vector 151" d="M70.793 15.6425C69.4044 15.8739 66.8124 16.6607 67.553 17.9567C68.4787 19.5767 69.1729 20.271 69.1729 21.891C69.1729 23.511 72.8757 23.2796 76.5786 21.4281" stroke="#6B4A39" stroke-linecap="round"/>
<path id="Vector 152" d="M76.347 14.2539C75.6528 15.4882 73.8476 18.003 72.1813 18.1882C70.5151 18.3733 68.8642 18.7282 68.2471 18.8825" stroke="#6B4A39" stroke-linecap="round"/>
<path id="Vector 153" d="M63.156 20.5024C62.616 21.1967 61.86 22.6316 63.156 22.8167C64.776 23.0481 67.3217 22.8167 69.1731 22.3539" stroke="#6B4A39" stroke-linecap="round"/>
<path id="Vector 154" d="M71.0242 23.2795C71.7185 24.6681 74.3567 27.6767 76.5784 27.6767" stroke="#6B4A39" stroke-linecap="round"/>
</g>
</g>
</g>
</svg>
