<svg width="196" height="239" viewBox="0 0 196 239" fill="none" xmlns="http://www.w3.org/2000/svg">
<g id="img_locate_9" clip-path="url(#clip0_446_1820)">
<g id="Group 1050">
<path id="Vector" d="M170.85 65.0104C157.944 61.761 153.073 51.6849 153.073 51.6849C153.073 51.6849 162.47 84.2308 133.783 93.795" stroke="#1A342B" stroke-linecap="round" stroke-linejoin="round"/>
<path id="Vector_2" d="M25.1437 65.0104C38.0551 61.761 42.9263 51.6849 42.9263 51.6849C42.9263 51.6849 33.5289 84.2308 62.2157 93.795" stroke="#1A342B" stroke-linecap="round" stroke-linejoin="round"/>
<path id="Vector_3" d="M138.758 1C138.758 1 143.847 4.83028 164.316 7.90141C186.245 11.2141 194.981 33.7817 194.981 33.7817" stroke="#1A342B" stroke-linecap="round" stroke-linejoin="round"/>
<path id="Vector_4" d="M57.2235 1C57.2235 1 52.1337 4.83028 31.6595 7.90141C9.73031 11.2141 1 33.7817 1 33.7817" stroke="#1A342B" stroke-linecap="round" stroke-linejoin="round"/>
<path id="Vector_5" d="M49.0577 85.594C49.0577 99.3508 52.1173 126.468 42.2483 144.411C32.3793 162.355 28.9055 188.971 30.6999 210.803C31.3613 218.895 32.5001 228.47 33.9552 238" stroke="#1A342B" stroke-linecap="round" stroke-linejoin="round"/>
<path id="Vector_6" d="M162.044 238C163.499 228.47 164.638 218.895 165.299 210.803C167.093 188.948 163.62 162.355 153.751 144.411C143.882 126.468 146.849 99.4543 146.849 85.6975" stroke="#1A342B" stroke-linecap="round" stroke-linejoin="round"/>
<path id="Vector_7" d="M95.9226 238C96.4977 233.06 97.1016 228.407 97.7975 224.559C97.7975 224.559 98.6946 229.735 99.7644 238" stroke="#1A342B" stroke-linecap="round" stroke-linejoin="round"/>
</g>
<g id="Group 1053">
<path id="Vector_8" d="M154.018 144.698L153.759 144.216C151.811 140.582 150.315 136.722 149.306 132.724C140.441 126.335 126.197 117.987 109.087 114.913C109.087 114.913 114.516 128.829 117.912 148.709C130.02 148.14 142.08 146.801 154.018 144.698Z" stroke="#C5C5C5" stroke-linecap="round" stroke-linejoin="round"/>
<path id="Vector_9" d="M120.522 175.978C140.397 172.795 154.755 166.17 161.058 162.826C159.39 156.539 157.024 150.458 154.002 144.698C142.059 146.805 129.993 148.149 117.879 148.72C119.441 157.727 120.324 166.838 120.522 175.978Z" stroke="#C5C5C5" stroke-linecap="round" stroke-linejoin="round"/>
<path id="Vector_10" d="M98.0594 149.232C90.906 149.232 84.2697 149.042 78.2252 148.72C76.6614 157.729 75.7761 166.843 75.5765 175.984C83.0119 177.173 90.5297 177.77 98.0594 177.771C105.587 177.77 113.103 177.173 120.537 175.984C120.339 166.843 119.456 157.729 117.894 148.72C111.826 149.036 105.213 149.232 98.0594 149.232Z" stroke="#C5C5C5" stroke-linecap="round" stroke-linejoin="round"/>
<path id="Vector_11" d="M98.0586 149.231C105.212 149.231 111.848 149.042 117.893 148.72C114.497 128.84 109.073 114.941 109.067 114.924C105.665 116.7 101.896 117.662 98.0586 117.733C94.221 117.662 90.4525 116.7 87.0498 114.924C87.0498 114.924 81.6201 128.828 78.2244 148.72C84.2861 149.036 90.9052 149.231 98.0586 149.231Z" stroke="#C5C5C5" stroke-linecap="round" stroke-linejoin="round"/>
<path id="Vector_12" d="M164.118 177.386C163.39 172.484 162.373 167.63 161.072 162.849C154.752 166.193 140.388 172.818 120.536 176.001C120.646 184.606 120.054 193.205 118.767 201.713C132.229 198.725 149.857 192.101 164.118 177.386Z" fill="#C1E1CE" stroke="#65AF7C" stroke-linecap="round" stroke-linejoin="round"/>
<path id="Vector_13" d="M87.0505 114.918C69.911 117.975 55.6616 126.335 46.796 132.73C45.7974 136.729 44.3075 140.589 42.3603 144.222L42.1018 144.704C54.0451 146.812 66.1106 148.155 78.225 148.726C81.6207 128.823 87.0505 114.918 87.0505 114.918Z" stroke="#C5C5C5" stroke-linecap="round" stroke-linejoin="round"/>
<path id="Vector_14" d="M75.5755 175.978C55.6954 172.79 41.3425 166.165 35.0453 162.827C33.7441 167.608 32.7272 172.462 32 177.363C46.2723 192.118 63.9289 198.743 77.3911 201.702C75.9899 193.202 75.3821 184.591 75.5755 175.978Z" stroke="#C5C5C5" stroke-linecap="round" stroke-linejoin="round"/>
<path id="Vector_15" d="M78.224 148.715C66.1096 148.144 54.0441 146.8 42.1008 144.693C39.0748 150.451 36.7079 156.532 35.045 162.821C41.3653 166.159 55.6951 172.784 75.5753 175.973C75.7751 166.833 76.6604 157.722 78.224 148.715Z" stroke="#C5C5C5" stroke-linecap="round" stroke-linejoin="round"/>
<path id="Vector_16" d="M120.523 175.978C113.09 177.167 105.574 177.764 98.0458 177.765C90.516 177.764 82.9982 177.167 75.5629 175.978C75.3714 184.59 75.9811 193.202 77.3843 201.702C89.3756 204.339 98.0688 204.08 98.0688 204.08C98.0688 204.08 106.762 204.339 118.753 201.69C120.041 193.182 120.632 184.583 120.523 175.978Z" stroke="#C5C5C5" stroke-linecap="round" stroke-linejoin="round"/>
</g>
<path id="Ellipse 168" d="M100.77 158.5C100.77 156.015 99.8741 154 98.7695 154C97.665 154 96.7695 156.015 96.7695 158.5" stroke="#1A342B"/>
<path id="2" d="M100.541 139H94.9277V138.186L97.2188 135.859C97.6445 135.43 98.002 135.047 98.291 134.711C98.584 134.375 98.8066 134.045 98.959 133.721C99.1113 133.393 99.1875 133.033 99.1875 132.643C99.1875 132.158 99.043 131.789 98.7539 131.535C98.4688 131.277 98.0918 131.148 97.623 131.148C97.2129 131.148 96.8496 131.219 96.5332 131.359C96.2168 131.5 95.8926 131.699 95.5605 131.957L95.0391 131.301C95.2656 131.109 95.5117 130.939 95.7773 130.791C96.0469 130.643 96.334 130.525 96.6387 130.439C96.9473 130.354 97.2754 130.311 97.623 130.311C98.1504 130.311 98.6055 130.402 98.9883 130.586C99.3711 130.77 99.666 131.031 99.873 131.371C100.084 131.711 100.189 132.115 100.189 132.584C100.189 133.037 100.1 133.459 99.9199 133.85C99.7402 134.236 99.4883 134.621 99.1641 135.004C98.8398 135.383 98.4609 135.785 98.0273 136.211L96.1641 138.068V138.109H100.541V139Z" fill="#C5C5C5"/>
<path id="5" d="M98.6348 166.762C99.2168 166.762 99.7227 166.861 100.152 167.061C100.582 167.256 100.914 167.541 101.148 167.916C101.387 168.291 101.506 168.746 101.506 169.281C101.506 169.867 101.379 170.373 101.125 170.799C100.871 171.221 100.506 171.547 100.029 171.777C99.5527 172.004 98.9824 172.117 98.3184 172.117C97.873 172.117 97.459 172.078 97.0762 172C96.6934 171.922 96.3711 171.805 96.1094 171.648V170.723C96.3945 170.895 96.7402 171.031 97.1465 171.133C97.5527 171.234 97.9473 171.285 98.3301 171.285C98.7637 171.285 99.1426 171.217 99.4668 171.08C99.7949 170.939 100.049 170.729 100.229 170.447C100.412 170.162 100.504 169.805 100.504 169.375C100.504 168.805 100.328 168.365 99.9766 168.057C99.6289 167.744 99.0781 167.588 98.3242 167.588C98.082 167.588 97.8164 167.607 97.5273 167.646C97.2383 167.686 97 167.729 96.8125 167.775L96.3203 167.453L96.6484 163.434H100.908V164.324H97.4805L97.2637 166.908C97.4121 166.877 97.6035 166.846 97.8379 166.814C98.0723 166.779 98.3379 166.762 98.6348 166.762Z" fill="#C5C5C5"/>
<path id="8" d="M97.7578 187.311C98.2539 187.311 98.6934 187.389 99.0762 187.545C99.459 187.701 99.7578 187.932 99.9727 188.236C100.191 188.537 100.301 188.908 100.301 189.35C100.301 189.697 100.225 190.002 100.072 190.264C99.9238 190.521 99.7227 190.748 99.4688 190.943C99.2148 191.135 98.9336 191.307 98.625 191.459C98.9922 191.627 99.3223 191.816 99.6152 192.027C99.9121 192.238 100.146 192.486 100.318 192.771C100.49 193.057 100.576 193.395 100.576 193.785C100.576 194.266 100.459 194.682 100.225 195.033C99.9941 195.381 99.6699 195.648 99.252 195.836C98.834 196.023 98.3438 196.117 97.7812 196.117C97.1758 196.117 96.6602 196.027 96.2344 195.848C95.8125 195.664 95.4902 195.402 95.2676 195.062C95.0488 194.719 94.9395 194.307 94.9395 193.826C94.9395 193.432 95.0234 193.09 95.1914 192.801C95.3594 192.508 95.582 192.256 95.8594 192.045C96.1367 191.834 96.4395 191.656 96.7676 191.512C96.4824 191.355 96.2207 191.178 95.9824 190.979C95.748 190.779 95.5605 190.547 95.4199 190.281C95.2832 190.012 95.2148 189.699 95.2148 189.344C95.2148 188.91 95.3242 188.543 95.543 188.242C95.7656 187.938 96.0684 187.707 96.4512 187.551C96.8379 187.391 97.2734 187.311 97.7578 187.311ZM95.8945 193.832C95.8945 194.27 96.0488 194.631 96.3574 194.916C96.666 195.197 97.1328 195.338 97.7578 195.338C98.3516 195.338 98.8105 195.197 99.1348 194.916C99.459 194.631 99.6211 194.258 99.6211 193.797C99.6211 193.512 99.5469 193.262 99.3984 193.047C99.25 192.828 99.0391 192.633 98.7656 192.461C98.4922 192.289 98.1699 192.133 97.7988 191.992L97.5879 191.916C97.2285 192.064 96.9219 192.23 96.668 192.414C96.418 192.594 96.2266 192.799 96.0938 193.029C95.9609 193.26 95.8945 193.527 95.8945 193.832ZM97.7461 188.107C97.2852 188.107 96.9082 188.219 96.6152 188.441C96.3223 188.66 96.1758 188.977 96.1758 189.391C96.1758 189.688 96.2461 189.939 96.3867 190.146C96.5312 190.35 96.7266 190.525 96.9727 190.674C97.2188 190.818 97.4941 190.953 97.7988 191.078C98.0957 190.953 98.3594 190.816 98.5898 190.668C98.8203 190.516 99.002 190.336 99.1348 190.129C99.2676 189.922 99.334 189.674 99.334 189.385C99.334 188.971 99.1875 188.654 98.8945 188.436C98.6055 188.217 98.2227 188.107 97.7461 188.107Z" fill="#C5C5C5"/>
<path id="3" d="M136.225 132.432C136.225 132.814 136.15 133.146 136.002 133.428C135.854 133.709 135.646 133.939 135.381 134.119C135.115 134.295 134.803 134.418 134.443 134.488V134.535C135.123 134.621 135.633 134.84 135.973 135.191C136.316 135.543 136.488 136.004 136.488 136.574C136.488 137.07 136.371 137.51 136.137 137.893C135.906 138.275 135.551 138.576 135.07 138.795C134.594 139.01 133.982 139.117 133.236 139.117C132.783 139.117 132.363 139.08 131.977 139.006C131.594 138.936 131.227 138.816 130.875 138.648V137.734C131.23 137.91 131.617 138.049 132.035 138.15C132.453 138.248 132.857 138.297 133.248 138.297C134.029 138.297 134.594 138.143 134.941 137.834C135.289 137.521 135.463 137.096 135.463 136.557C135.463 136.186 135.365 135.887 135.17 135.66C134.979 135.43 134.701 135.262 134.338 135.156C133.979 135.047 133.545 134.992 133.037 134.992H132.182V134.16H133.043C133.508 134.16 133.902 134.092 134.227 133.955C134.551 133.818 134.797 133.627 134.965 133.381C135.137 133.131 135.223 132.836 135.223 132.496C135.223 132.062 135.078 131.729 134.789 131.494C134.5 131.256 134.107 131.137 133.611 131.137C133.307 131.137 133.029 131.168 132.779 131.23C132.529 131.293 132.295 131.379 132.076 131.488C131.857 131.598 131.639 131.725 131.42 131.869L130.928 131.201C131.24 130.959 131.621 130.75 132.07 130.574C132.52 130.398 133.029 130.311 133.6 130.311C134.475 130.311 135.131 130.51 135.568 130.908C136.006 131.307 136.225 131.814 136.225 132.432Z" fill="#C5C5C5"/>
<path id="6" d="M136.016 159.338C136.016 158.822 136.051 158.318 136.121 157.826C136.195 157.334 136.318 156.877 136.49 156.455C136.662 156.029 136.896 155.656 137.193 155.336C137.49 155.016 137.859 154.766 138.301 154.586C138.746 154.402 139.279 154.311 139.9 154.311C140.076 154.311 140.266 154.32 140.469 154.34C140.672 154.355 140.84 154.383 140.973 154.422V155.26C140.828 155.209 140.662 155.172 140.475 155.148C140.291 155.125 140.105 155.113 139.918 155.113C139.191 155.113 138.619 155.271 138.201 155.588C137.787 155.904 137.488 156.334 137.305 156.877C137.121 157.416 137.016 158.023 136.988 158.699H137.053C137.174 158.504 137.328 158.328 137.516 158.172C137.703 158.012 137.93 157.885 138.195 157.791C138.465 157.697 138.777 157.65 139.133 157.65C139.633 157.65 140.068 157.752 140.439 157.955C140.814 158.158 141.104 158.453 141.307 158.84C141.514 159.227 141.617 159.695 141.617 160.246C141.617 160.836 141.508 161.346 141.289 161.775C141.07 162.205 140.758 162.537 140.352 162.771C139.949 163.002 139.469 163.117 138.91 163.117C138.492 163.117 138.107 163.037 137.756 162.877C137.404 162.717 137.098 162.479 136.836 162.162C136.578 161.846 136.377 161.453 136.232 160.984C136.088 160.512 136.016 159.963 136.016 159.338ZM138.898 162.297C139.43 162.297 139.855 162.127 140.176 161.787C140.496 161.447 140.656 160.934 140.656 160.246C140.656 159.684 140.514 159.238 140.229 158.91C139.943 158.582 139.514 158.418 138.939 158.418C138.549 158.418 138.209 158.5 137.92 158.664C137.631 158.824 137.406 159.027 137.246 159.273C137.086 159.52 137.006 159.77 137.006 160.023C137.006 160.281 137.043 160.543 137.117 160.809C137.195 161.074 137.312 161.32 137.469 161.547C137.625 161.773 137.822 161.955 138.061 162.092C138.299 162.229 138.578 162.297 138.898 162.297Z" fill="#C5C5C5"/>
<path id="9" d="M143.664 180.084C143.664 180.592 143.627 181.09 143.553 181.578C143.482 182.066 143.357 182.523 143.178 182.949C143.002 183.375 142.758 183.752 142.445 184.08C142.137 184.404 141.746 184.658 141.273 184.842C140.801 185.025 140.23 185.117 139.562 185.117C139.395 185.117 139.199 185.107 138.977 185.088C138.758 185.072 138.578 185.049 138.438 185.018V183.869C138.586 183.912 138.752 183.947 138.936 183.975C139.123 183.998 139.309 184.01 139.492 184.01C140.215 184.01 140.777 183.875 141.18 183.605C141.586 183.336 141.873 182.965 142.041 182.492C142.213 182.02 142.311 181.482 142.334 180.881H142.264C142.15 181.068 142.008 181.24 141.836 181.396C141.664 181.549 141.451 181.672 141.197 181.766C140.943 181.855 140.635 181.9 140.271 181.9C139.779 181.9 139.35 181.797 138.982 181.59C138.619 181.383 138.336 181.082 138.133 180.688C137.934 180.289 137.834 179.811 137.834 179.252C137.834 178.646 137.949 178.125 138.18 177.688C138.41 177.25 138.736 176.914 139.158 176.68C139.58 176.441 140.076 176.322 140.646 176.322C141.076 176.322 141.473 176.4 141.836 176.557C142.203 176.709 142.523 176.943 142.797 177.26C143.07 177.572 143.283 177.965 143.436 178.438C143.588 178.906 143.664 179.455 143.664 180.084ZM140.664 177.459C140.23 177.459 139.877 177.605 139.604 177.898C139.33 178.188 139.193 178.633 139.193 179.234C139.193 179.723 139.311 180.109 139.545 180.395C139.779 180.68 140.139 180.822 140.623 180.822C140.959 180.822 141.248 180.754 141.49 180.617C141.736 180.477 141.926 180.299 142.059 180.084C142.195 179.869 142.264 179.65 142.264 179.428C142.264 179.197 142.23 178.967 142.164 178.736C142.102 178.506 142.004 178.295 141.871 178.104C141.738 177.912 141.57 177.758 141.367 177.641C141.168 177.52 140.934 177.459 140.664 177.459Z" fill="#1A342B"/>
<path id="1" d="M62.5488 139H61.5996V132.93C61.5996 132.699 61.5996 132.502 61.5996 132.338C61.6035 132.17 61.6074 132.018 61.6113 131.881C61.6191 131.74 61.6289 131.598 61.6406 131.453C61.5195 131.578 61.4062 131.686 61.3008 131.775C61.1953 131.861 61.0645 131.969 60.9082 132.098L59.9297 132.883L59.4199 132.221L61.7402 130.434H62.5488V139Z" fill="#C5C5C5"/>
<path id="4" d="M59.9688 161.014H58.6855V163H57.7363V161.014H53.5938V160.193L57.6719 154.387H58.6855V160.135H59.9688V161.014ZM57.7363 160.135V157.334C57.7363 157.119 57.7383 156.926 57.7422 156.754C57.7461 156.578 57.752 156.416 57.7598 156.268C57.7676 156.115 57.7734 155.971 57.7773 155.834C57.7852 155.697 57.791 155.562 57.7949 155.43H57.748C57.6738 155.586 57.5879 155.752 57.4902 155.928C57.3965 156.1 57.3008 156.254 57.2031 156.391L54.5605 160.135H57.7363Z" fill="#C5C5C5"/>
<path id="7" d="M53.0352 185L56.5508 177.324H51.8809V176.434H57.5938V177.184L54.1016 185H53.0352Z" fill="#C5C5C5"/>
</g>
<defs>
<clipPath id="clip0_446_1820">
<rect width="196" height="239" fill="white"/>
</clipPath>
</defs>
</svg>
