<svg width="60" height="60" viewBox="0 0 60 60" fill="none" xmlns="http://www.w3.org/2000/svg">
<path d="M11.6111 9.73438C11.6111 9.73438 9.96293 13.8455 6.14811 13.4381C6.14811 13.4381 3.98148 38.9751 3 43.6973C3 43.6973 11.6852 45.7899 17.3518 44.5492C19.1989 44.0507 21.149 44.0815 22.9794 44.6382C24.8098 45.1948 26.4469 46.2549 27.7037 47.6973C28.6102 47.4301 29.5612 47.3483 30.5 47.4566C31.4667 47.7579 32.4506 48.5837 33.0759 49.3799C33.0759 49.3799 37.537 47.1418 40.4815 48.0492C43.4259 48.9566 44.537 52.4936 49.4259 53.0492C51.7503 53.4496 54.1317 53.374 56.4259 52.827L57 21.6418C53.2963 22.4751 47.0555 18.7344 42.463 16.0862C41.0194 15.3798 39.4169 15.0612 37.8129 15.1618C36.2089 15.2625 34.6587 15.7789 33.3148 16.6603C29.1481 11.9196 22.4444 12.6973 18.3333 12.4381C15.8534 12.3133 13.4868 11.3614 11.6111 9.73438Z" fill="#FFFCF5" stroke="#456C51" stroke-linecap="round" stroke-linejoin="round"/>
<path d="M8.88924 12.9375C8.88924 12.9375 7.24112 36.6968 6.25964 41.4375C9.74959 42.0217 13.3186 41.9401 16.7781 41.1968C18.7474 40.7394 20.8022 40.8083 22.7364 41.3967C24.6705 41.9851 26.4157 43.0721 27.7966 44.5486C28.7034 44.2829 29.6541 44.2011 30.5929 44.3079C31.5648 44.609 32.4232 45.1963 33.0559 45.9931C33.0559 45.9931 37.63 43.9931 40.5745 44.9005C43.5189 45.8079 44.6485 49.3449 49.5374 49.8819C51.8471 50.3322 54.2342 50.1726 56.4633 49.419" stroke="#456C51" stroke-linecap="round" stroke-linejoin="round"/>
<path d="M49.537 49.8095C44.6482 49.2725 43.5185 45.7354 40.5741 44.828C37.6296 43.9206 33.0556 45.9206 33.0556 45.9206C32.4229 45.1239 31.5644 44.5365 30.5926 44.2354C29.6537 44.1286 28.703 44.2105 27.7963 44.4762C26.4153 42.9997 24.6701 41.9126 22.736 41.3243C20.8019 40.7359 18.747 40.667 16.7778 41.1243C13.3182 41.8676 9.74923 41.9493 6.25928 41.3651C7.07409 37.4762 8.46293 19.1429 8.92589 12.791C8.09748 13.3103 7.12197 13.5444 6.14811 13.4577C6.14811 13.4577 3.98148 38.9947 3 43.7169C3 43.7169 11.6852 45.8095 17.3518 44.5688C19.1972 44.0681 21.1462 44.096 22.9765 44.6494C24.8068 45.2027 26.4448 46.2592 27.7037 47.6984C28.6102 47.4312 29.5612 47.3493 30.5 47.4577C31.4667 47.7589 32.319 48.3466 32.9444 49.1429C32.9444 49.1429 37.537 47.1429 40.4815 48.0503C43.4259 48.9577 44.537 52.4947 49.4259 53.0503C51.7502 53.4522 54.1319 53.3766 56.4259 52.828V49.4392C54.1802 50.039 51.8342 50.1651 49.537 49.8095Z" fill="#65AF7C" stroke="#456C51" stroke-linejoin="round"/>
<path d="M56.2772 45.9587C54.2155 46.377 52.0953 46.4209 50.018 46.0883C46.7772 45.4958 43.6291 41.6439 39.2958 40.2365C37.9294 39.8721 36.4964 39.8347 35.1129 40.1275C33.7294 40.4203 32.4344 41.0349 31.3328 41.9217C29.7877 40.0986 27.8155 38.6863 25.5921 37.8106C21.4254 35.9587 19.6291 37.8106 15.5365 38.218C13.4936 38.5398 11.4128 38.5398 9.36987 38.218C9.81432 33.3106 11.3513 14.4402 11.6106 9.8291C13.4688 11.4859 15.8296 12.4706 18.3143 12.6254C22.4254 12.8846 29.1291 12.1069 33.2958 16.8476C34.6397 15.9662 36.1898 15.4498 37.7938 15.3492C39.3978 15.2485 41.0004 15.5671 42.4439 16.2735C47.0365 18.8291 53.2402 22.5698 56.981 21.8291L56.2772 45.9587Z" fill="#FFFCF5" stroke="#456C51" stroke-linecap="round" stroke-linejoin="round"/>
<path d="M33.2945 16.752L31.3315 41.9001" stroke="#456C51" stroke-linecap="round" stroke-linejoin="round"/>
<circle cx="45.379" cy="15.8861" r="8.88608" fill="#65AF7C" stroke="#456C51"/>
<path d="M41.9631 15.8857H48.7986" stroke="#FFFCF5" stroke-linecap="round"/>
<path d="M45.381 12.4688L45.381 19.3042" stroke="#FFFCF5" stroke-linecap="round"/>
</svg>
