<svg width="81" height="42" viewBox="0 0 81 42" fill="none" xmlns="http://www.w3.org/2000/svg">
<g id="img_normal_smooth_nor">
<g id="Group 1040" opacity="0.3">
<path id="Vector 108" d="M42.1492 10.9435C32.0913 8.20039 18.2997 12.0864 12.6612 14.3723C8.69897 15.9724 0.820257 20.5441 1.00313 26.0303C1.23172 32.888 11.5182 33.5737 20.6618 32.2022C29.8054 30.8307 38.2632 30.3735 51.5214 32.2022C64.7796 34.0309 77.352 26.4875 79.4093 22.3728C81.4666 18.2582 77.8091 13.0007 73.6945 13.2293C69.5799 13.4579 54.7216 14.3723 42.1492 10.9435Z" fill="#A38877" stroke="#6B4A39"/>
<g id="Group 1039">
<path id="Vector 131" d="M14.258 24.2015C12.6579 25.5731 10.4177 28.3619 14.258 28.5447C19.0584 28.7733 26.8305 25.8017 35.0597 27.1732" stroke="#6B4A39" stroke-linecap="round"/>
<path id="Vector 132" d="M47.175 27.6303C50.299 28.3923 57.5072 29.459 61.3475 27.6303" stroke="#6B4A39" stroke-linecap="round"/>
<path id="Vector 133" d="M22.0304 16.2009C23.1734 16.2009 36.8887 13.915 43.975 16.2009C51.0613 18.4868 62.2622 19.4011 67.9769 17.801" stroke="#6B4A39" stroke-linecap="round"/>
</g>
</g>
</g>
</svg>
