<svg width="168" height="88" viewBox="0 0 168 88" fill="none" xmlns="http://www.w3.org/2000/svg">
<g id="img_mild_onstipation_sel" clip-path="url(#clip0_424_1922)">
<g id="Group 1030">
<path id="Vector 70" d="M21.3659 27.8271L21.3433 27.8328L21.321 27.8395C19.5549 28.3693 16.8731 29.4729 14.5088 31.0873C12.1782 32.6787 9.94991 34.9087 9.47597 37.7524C9.25187 39.0969 8.79047 39.9382 8.22759 40.5852C7.71049 41.1796 7.10069 41.6271 6.36148 42.1697C6.24556 42.2548 6.12645 42.3422 6.00402 42.4329C5.1289 43.0811 4.15532 43.8524 3.30983 45.0272C2.4598 46.2083 1.77616 47.7432 1.3733 49.8918C0.587803 54.081 0.83335 58.21 2.12568 61.4069C3.42659 64.6249 5.84621 66.9916 9.36604 67.285C12.3541 67.534 15.1934 68.0304 17.5779 68.7641C19.9837 69.5043 21.8294 70.4568 22.9279 71.5553C23.7285 72.3559 25.0166 72.986 26.4617 73.454C27.9362 73.9315 29.6892 74.2767 31.5256 74.4407C35.1646 74.7656 39.3194 74.3939 42.3528 72.7393C43.3728 72.1829 44.2314 71.69 44.9558 71.2741C45.2276 71.118 45.4806 70.9728 45.7161 70.8391C46.5999 70.3375 47.2146 70.0129 47.7293 69.8233C48.2148 69.6444 48.574 69.6005 48.944 69.6474C49.3412 69.6978 49.8246 69.8619 50.5462 70.2227L50.57 70.2346C53.6411 71.7702 64.1031 77.0014 75.6537 72.8012C80.9952 70.8589 84.587 71.2195 88.4429 72.1376C89.2859 72.3383 90.1501 72.569 91.0525 72.8099C94.3145 73.6807 98.0756 74.6847 103.137 74.8872C109.679 75.1489 115.031 73.3127 119.283 71.7896C119.435 71.7353 119.585 71.6815 119.733 71.6283C121.689 70.9264 123.352 70.3295 124.826 70.0222C126.4 69.6941 127.593 69.7349 128.568 70.2227C131.32 71.5983 135.073 72.1108 139.011 71.6514C142.963 71.1904 147.179 69.7423 150.875 67.1022C152.567 65.8936 154.364 65.0074 156.152 64.1995C156.562 64.0145 156.974 63.8322 157.386 63.6502C158.743 63.051 160.092 62.4548 161.297 61.777C162.89 60.8811 164.337 59.7884 165.377 58.2202C166.424 56.6408 167 54.666 167 52.1026C167 47.0233 164.616 41.0058 161.454 36.1665C159.865 33.7341 158.051 31.5554 156.189 29.9085C154.346 28.2778 152.367 27.0911 150.446 26.7956C148.299 26.4653 146.186 26.3415 144.279 26.2298C143.249 26.1694 142.278 26.1126 141.396 26.0286C138.778 25.7792 136.766 25.2933 135.239 23.9849C133.321 22.3406 130.513 21.0187 127.632 20.233C124.755 19.4484 121.667 19.1606 119.172 19.7149C114.598 20.7314 108.969 21.6126 104.308 17.8838C101.561 15.6858 97.1616 14.3873 92.9113 13.8722C88.6611 13.357 84.2863 13.5926 81.5269 14.6964C80.1371 15.2523 78.8169 16.14 77.5609 17.0463C77.2346 17.2816 76.9134 17.5177 76.5947 17.7518C75.6544 18.4428 74.7357 19.1179 73.7723 19.7143C71.2462 21.2781 68.6927 22.1223 65.5731 20.7853C58.2427 17.6437 48.2652 17.6105 41.3498 21.8661C40.5365 22.3666 39.7889 22.833 39.0944 23.2661C34.0686 26.4011 31.8302 27.7973 27.6881 27.7973C26.0223 27.7973 25.0735 27.7106 24.3532 27.6447C24.219 27.6325 24.0928 27.6209 23.9713 27.6108C23.1201 27.5399 22.5017 27.5433 21.3659 27.8271Z" fill="#6B4A39" stroke="#6B4A39" stroke-width="2"/>
<g id="Mask group">
<mask id="mask0_424_1922" style="mask-type:alpha" maskUnits="userSpaceOnUse" x="1" y="14" width="166" height="61">
<path id="Vector 71" d="M10.4619 37.9167C11.2725 33.053 18.2303 29.8106 21.6079 28.7973C23.6345 28.2908 23.6345 28.7973 27.6876 28.7973C32.754 28.7973 35.2872 26.7709 41.8734 22.7178C48.4597 18.6647 58.0858 18.6647 65.1787 21.7045C72.2717 24.7443 76.8314 17.6514 81.8978 15.6248C86.9641 13.5983 98.6168 14.6116 103.683 18.6647C108.75 22.7178 114.829 21.7044 119.389 20.6911C123.949 19.6778 131.042 21.7044 134.588 24.7442C138.134 27.784 143.707 26.7707 150.294 27.784C156.88 28.7973 166 42.4765 166 52.1026C166 61.7287 157.387 61.2221 150.294 66.2884C143.201 71.3548 134.081 71.8614 129.015 69.3282C123.949 66.7951 115.842 74.3946 103.177 73.888C90.5106 73.3813 86.4575 67.8083 75.3115 71.8614C64.1655 75.9145 54.0327 70.8482 50.9929 69.3282C47.9531 67.8083 47.4464 68.8216 41.8734 71.8614C36.3004 74.9013 26.1677 73.3813 23.6345 70.8482C21.1013 68.315 15.5282 66.7951 9.4486 66.2884C3.36895 65.7818 0.835768 58.1822 2.35568 50.076C3.87559 41.9698 9.4486 43.9964 10.4619 37.9167Z" fill="#6B4A39" stroke="#6B4A39"/>
</mask>
<g mask="url(#mask0_424_1922)">
<g id="Group 1027">
<path id="Vector 71_2" d="M32.7539 34.8771C29.9167 30.4186 22.1145 27.2775 19.0747 26.2642C11.7791 28.2908 9.61743 34.2015 9.44855 36.9036C16.5415 45.5164 33.2605 47.543 34.7804 45.0098C36.3003 42.4766 36.3003 40.4501 32.7539 34.8771Z" fill="#A38877"/>
<path id="Vector 72" d="M7.92864 46.5299C1.849 47.7458 2.69339 60.2091 3.87555 66.2887L15.0216 71.3549C18.568 67.8085 25.1543 59.1958 23.1278 53.1162C20.5946 45.5166 15.5282 45.01 7.92864 46.5299Z" fill="#A38877"/>
<path id="Vector 73" d="M29.2074 52.1029C24.3436 56.5613 23.8032 69.1597 24.141 74.9016H47.4463C45.4198 73.3819 44.9132 67.3018 44.9132 62.7421C44.9132 58.1824 46.4331 52.1029 44.9132 50.0764C43.3932 48.0498 35.287 46.5299 29.2074 52.1029Z" fill="#A38877"/>
<path id="Vector 74" d="M39.8466 40.9565C36.1988 33.2556 37.3134 23.5619 38.3267 19.6777C46.4327 16.0299 59.6055 17.1445 65.1786 18.1578C73.7915 29.8105 67.7118 36.3967 65.1786 37.41C62.6454 38.4233 63.1521 42.983 59.099 47.0361C55.0459 51.0892 44.4063 50.5826 39.8466 40.9565Z" fill="#A38877"/>
<path id="Vector 75" d="M49.9795 60.209C49.9795 67.0993 54.7081 72.8749 57.0724 74.9015C59.4367 75.577 65.28 76.6239 69.7384 75.408C75.3114 73.8881 85.9508 66.2885 85.4441 59.7022C84.9375 53.116 73.7915 50.5829 68.7251 50.0763C63.6587 49.5696 49.9795 51.5962 49.9795 60.209Z" fill="#A38877"/>
<path id="Vector 76" d="M72.7781 27.784C72.3728 26.1627 72.947 19.34 73.2847 16.1313C82.6067 10.457 99.1232 12.7537 106.216 14.6114C107.061 19.0023 108.141 29.1012 105.71 34.3703C102.67 40.9565 95.5769 40.4499 91.5238 37.9167C87.4707 35.3835 83.4176 33.8636 78.3512 33.357C73.2848 32.8503 73.2847 29.8105 72.7781 27.784Z" fill="#A38877"/>
<path id="Vector 77" d="M110.269 32.8505C112.295 25.1496 116.18 20.1846 117.868 18.6647C125.569 17.854 132.561 21.029 135.094 22.7178C136.107 39.4368 125.468 43.9965 119.895 43.4899C114.322 42.9832 107.736 42.4766 110.269 32.8505Z" fill="#A38877"/>
<g id="Vector 78">
<path d="M79.3645 36.397C73.6901 35.5863 69.2317 38.7613 67.7118 40.4501C67.2052 40.9567 66.1919 42.5779 66.1919 45.0098C66.1919 48.0496 73.7915 48.5563 81.8976 48.5563C90.0038 48.5563 88.9906 44.5032 88.4839 42.9833C87.9773 41.4633 86.4574 37.4102 79.3645 36.397Z" fill="#A38877"/>
<path d="M88.9906 57.6757C87.7746 66.9978 95.2391 75.408 99.1233 78.4478L119.895 75.9147C125.468 67.8085 121.922 57.6757 119.895 51.5961C117.869 45.5164 105.203 41.97 100.643 42.4766C96.0835 42.9833 90.5105 46.0231 88.9906 57.6757Z" fill="#A38877"/>
</g>
<g id="Vector 79">
<path d="M137.628 34.877C140.06 32.4452 141.681 26.7708 142.188 24.2376L154.347 23.2244C154.854 25.7576 153.841 38.9301 151.307 42.4766C148.774 46.023 144.721 47.5429 143.201 46.5297C141.681 45.5164 139.148 45.0098 134.588 43.9965C130.029 42.9832 134.588 37.9168 137.628 34.877Z" fill="#A38877"/>
<path d="M156.374 43.9965C160.832 41.5646 166.338 45.0098 168.533 47.0363C169.344 53.9266 164.818 61.391 162.453 64.262C158.907 64.262 152.321 58.689 151.307 54.1292C150.294 49.5695 150.801 47.0363 156.374 43.9965Z" fill="#A38877"/>
</g>
<path id="Vector 80" d="M124.454 47.5429C125.67 44.7057 129.69 45.3474 131.547 46.023C146.138 49.6707 152.826 61.391 154.346 66.7951C153.164 68.4839 149.685 72.1655 145.227 73.3814C140.768 74.5974 131.548 73.8881 127.495 73.3814C129.014 70.3416 129.014 59.7022 126.988 57.6757C124.961 55.6491 122.935 51.0893 124.454 47.5429Z" fill="#A38877"/>
</g>
</g>
</g>
</g>
</g>
<defs>
<clipPath id="clip0_424_1922">
<rect width="168" height="88" fill="white"/>
</clipPath>
</defs>
</svg>
