<svg width="276" height="78" viewBox="0 0 276 78" fill="none" xmlns="http://www.w3.org/2000/svg">
<path d="M63.9919 27.2916L72.0005 31.7782C72.0005 31.7782 48.7823 49.5002 42.8376 76.1955L7.37109 58.9221L9.61439 54.615L63.9919 27.2916Z" fill="#65AF7C"/>
<path d="M69.757 22.6033C69.757 22.6033 45.2154 39.6523 37.8349 68.1197L1 50.5323C1 50.5323 13.4952 15.9855 33.3932 3.80444L69.757 22.6033Z" fill="#FFFCF5" stroke="#456C51" stroke-linecap="round" stroke-linejoin="round"/>
<path d="M31.666 15.0658L52.596 25.8785" stroke="#456C51" stroke-linecap="round" stroke-linejoin="round"/>
<path d="M27.293 19.8213L48.2229 30.634" stroke="#456C51" stroke-linecap="round" stroke-linejoin="round"/>
<path d="M39.742 44.0045V38.1944L31.9353 40.2358V33.3713L23.2313 36.2876V29.8269L16.0977 32.2272" stroke="#456C51" stroke-linecap="round" stroke-linejoin="round"/>
<path d="M69.5 59.0005C83 66.5005 114.629 73.3775 139.5 46.5005C170.5 13.0005 188 8.00039 218 20.5004C226.5 24.0421 226 35.5003 219 35.5003C201 35.5003 214 15 232.5 10C247.3 6 266.333 5.33333 274 5.5" stroke="#C1E1CE" stroke-width="2" stroke-linecap="round" stroke-dasharray="4 8"/>
<path d="M96 55C101.833 56.3333 117 55 131 39" stroke="#C1E1CE" stroke-width="2" stroke-linecap="round" stroke-dasharray="4 8"/>
</svg>
