<svg width="81" height="42" viewBox="0 0 81 42" fill="none" xmlns="http://www.w3.org/2000/svg">
<g id="img_servere_diarrhoea_nor">
<g id="Group 1047" opacity="0.3">
<g id="Group 1045">
<path id="Vector 155" d="M44.6261 9.91495C37.9438 8.05874 21.7329 9.4509 14.4628 10.379C12.2199 10.611 7.73395 11.5855 7.73395 13.6274C7.73395 16.1797 13.0705 16.4117 14.4628 18.0359C15.8551 19.66 12.8386 20.3561 10.5184 20.3561C8.19811 20.3561 0.773293 21.7483 1.00532 26.1568C1.23734 30.5652 8.19811 29.4051 11.6785 30.7973C15.1589 32.1894 16.551 32.1894 24.904 31.9574C33.2569 31.7254 33.7209 27.5489 35.3451 25.6927C36.9693 23.8365 42.7699 23.8365 46.7144 24.3005C50.6588 24.7646 50.6588 25.4607 59.4758 27.5489C68.2928 29.6371 77.5738 25.6927 79.43 22.9084C81.2862 20.1241 78.2699 17.5718 75.2535 16.4117C72.2372 15.2515 66.9006 15.9476 57.1555 15.9476C47.4104 15.9476 52.9791 12.2352 44.6261 9.91495Z" fill="#A38877" stroke="#6B4A39" stroke-linecap="round"/>
<path id="Vector 158" d="M37.4332 28.7092C40.2175 27.0386 45.7088 27.085 48.1064 27.317C54.8352 28.7093 51.8188 31.4934 49.9626 32.1895C48.1064 32.8856 42.5378 33.1176 39.0574 32.8856C35.577 32.6535 33.9528 30.7974 37.4332 28.7092Z" fill="#A38877" stroke="#6B4A39" stroke-linecap="round"/>
</g>
<g id="Group 1044">
<path id="Vector 156" d="M17.9436 14.3235C18.949 14.6329 21.5168 15.2516 23.7442 15.2516C26.5285 15.2516 30.473 15.9477 29.7769 17.8039C29.0808 19.6601 26.9926 18.732 24.4403 19.6601C21.888 20.5882 20.2638 20.8203 19.1037 19.6601" stroke="#6B4A39" stroke-linecap="round"/>
<path id="Vector 157" d="M11.2148 25.6927C13.1483 25.3834 17.3402 25.0431 18.6396 26.1568C20.2638 27.5489 27.6886 27.085 29.3128 26.6209" stroke="#6B4A39" stroke-linecap="round"/>
<path id="Vector 159" d="M57.6197 20.5883C58.8571 20.1242 61.6569 19.4745 62.9562 20.5883C64.5804 21.9804 71.3092 21.9805 73.8615 21.2844" stroke="#6B4A39" stroke-linecap="round"/>
</g>
</g>
</g>
</svg>
