<svg width="196" height="239" viewBox="0 0 196 239" fill="none" xmlns="http://www.w3.org/2000/svg">
<g id="img_locate_4" clip-path="url(#clip0_446_1815)">
<g id="Group 1051">
<g id="Group 1050">
<path id="Vector" d="M170.85 65.0104C157.944 61.761 153.073 51.6849 153.073 51.6849C153.073 51.6849 162.47 84.2308 133.783 93.795" stroke="#1A342B" stroke-linecap="round" stroke-linejoin="round"/>
<path id="Vector_2" d="M25.1436 65.0104C38.055 61.761 42.9262 51.6849 42.9262 51.6849C42.9262 51.6849 33.5288 84.2308 62.2157 93.795" stroke="#1A342B" stroke-linecap="round" stroke-linejoin="round"/>
<path id="Vector_3" d="M138.758 1C138.758 1 143.847 4.83028 164.316 7.90141C186.245 11.2141 194.981 33.7817 194.981 33.7817" stroke="#1A342B" stroke-linecap="round" stroke-linejoin="round"/>
<path id="Vector_4" d="M57.2235 1C57.2235 1 52.1337 4.83028 31.6595 7.90141C9.73031 11.2141 1 33.7817 1 33.7817" stroke="#1A342B" stroke-linecap="round" stroke-linejoin="round"/>
<path id="Vector_5" d="M49.0577 85.594C49.0577 99.3508 52.1173 126.468 42.2483 144.411C32.3793 162.355 28.9055 188.971 30.6999 210.803C31.3613 218.895 32.5001 228.47 33.9551 238" stroke="#1A342B" stroke-linecap="round" stroke-linejoin="round"/>
<path id="Vector_6" d="M162.044 238C163.499 228.47 164.638 218.895 165.299 210.803C167.093 188.948 163.62 162.355 153.751 144.411C143.882 126.468 146.849 99.4543 146.849 85.6975" stroke="#1A342B" stroke-linecap="round" stroke-linejoin="round"/>
<path id="Vector_7" d="M95.9226 238C96.4977 233.06 97.1016 228.407 97.7975 224.559C97.7975 224.559 98.6946 229.735 99.7644 238" stroke="#1A342B" stroke-linecap="round" stroke-linejoin="round"/>
</g>
<path id="Ellipse 168" d="M100.77 158.5C100.77 156.015 99.8741 154 98.7695 154C97.665 154 96.7695 156.015 96.7695 158.5" stroke="#1A342B"/>
</g>
<g id="Group 1049">
<path id="Vector_8" d="M153.889 144.894L153.63 144.411C151.68 140.774 150.183 136.911 149.173 132.909C140.299 126.513 126.042 118.157 108.915 115.08C108.915 115.08 114.35 129.009 117.749 148.908C129.869 148.34 141.94 146.999 153.889 144.894Z" stroke="#C5C5C5" stroke-linecap="round" stroke-linejoin="round"/>
<path id="Vector_9" d="M117.729 148.914C119.293 157.932 120.177 167.054 120.375 176.203C140.268 173.017 154.641 166.386 160.95 163.039C159.28 156.746 156.911 150.66 153.887 144.894C141.932 147.001 129.855 148.344 117.729 148.914Z" stroke="#C5C5C5" stroke-linecap="round" stroke-linejoin="round"/>
<path id="Vector_10" d="M97.8783 149.432C90.7181 149.432 84.0755 149.242 78.0252 148.92C76.4599 157.937 75.5737 167.059 75.374 176.209C82.8164 177.399 90.3414 177.997 97.8783 177.998C105.413 177.997 112.936 177.399 120.377 176.209C120.179 167.059 119.295 157.937 117.731 148.92C111.658 149.236 105.038 149.432 97.8783 149.432Z" stroke="#C5C5C5" stroke-linecap="round" stroke-linejoin="round"/>
<path id="Vector_11" d="M97.8775 149.432C105.038 149.432 111.68 149.242 117.731 148.92C114.332 129.021 108.903 115.109 108.897 115.092C105.491 116.87 101.719 117.833 97.8775 117.904C94.0362 117.832 90.2642 116.869 86.8583 115.092C86.8583 115.092 81.4234 129.01 78.0244 148.92C84.0919 149.237 90.7173 149.432 97.8775 149.432Z" stroke="#C5C5C5" stroke-linecap="round" stroke-linejoin="round"/>
<path id="Vector_12" d="M120.365 176.204C120.562 184.824 119.953 193.444 118.548 201.952M120.365 176.204C112.925 177.394 105.402 177.992 97.8668 177.992C90.3299 177.991 82.8049 177.393 75.3625 176.204C75.1708 184.824 75.7811 193.444 77.1856 201.952C89.1883 204.591 97.8898 204.332 97.8898 204.332C97.8898 204.332 136.998 205.483 164.028 177.59C163.3 172.683 162.283 167.825 160.98 163.039C154.642 166.386 140.27 173.012 120.365 176.204Z" stroke="#C5C5C5" stroke-linecap="round" stroke-linejoin="round"/>
<path id="Vector_13" d="M77.1968 201.952C75.7924 193.444 75.1821 184.824 75.3738 176.204C55.4747 173.012 41.1083 166.381 34.805 163.039C33.5026 167.825 32.4847 172.684 31.7568 177.59C46.0427 192.359 63.7161 198.99 77.1968 201.952Z" stroke="#C5C5C5" stroke-linecap="round" stroke-linejoin="round"/>
<path id="Vector_14" d="M86.8585 115.086C69.7028 118.145 55.4398 126.513 46.5658 132.914C45.5662 136.917 44.0749 140.781 42.1259 144.417L41.8671 144.9C53.8218 147.009 65.8988 148.354 78.0247 148.926C81.4236 129.004 86.8585 115.086 86.8585 115.086Z" stroke="#C5C5C5" stroke-linecap="round" stroke-linejoin="round"/>
<path id="Vector_15" d="M78.0245 148.914C65.8986 148.343 53.8216 146.998 41.867 144.888C38.8381 150.652 36.4689 156.739 34.8045 163.033C41.1308 166.375 55.4742 173.006 75.3733 176.198C75.5733 167.05 76.4594 157.93 78.0245 148.914Z" fill="#C1E1CE" stroke="#65AF7C" stroke-linecap="round" stroke-linejoin="round"/>
</g>
<path id="2" d="M100.541 139H94.9277V138.186L97.2188 135.859C97.6445 135.43 98.002 135.047 98.291 134.711C98.584 134.375 98.8066 134.045 98.959 133.721C99.1113 133.393 99.1875 133.033 99.1875 132.643C99.1875 132.158 99.043 131.789 98.7539 131.535C98.4688 131.277 98.0918 131.148 97.623 131.148C97.2129 131.148 96.8496 131.219 96.5332 131.359C96.2168 131.5 95.8926 131.699 95.5605 131.957L95.0391 131.301C95.2656 131.109 95.5117 130.939 95.7773 130.791C96.0469 130.643 96.334 130.525 96.6387 130.439C96.9473 130.354 97.2754 130.311 97.623 130.311C98.1504 130.311 98.6055 130.402 98.9883 130.586C99.3711 130.77 99.666 131.031 99.873 131.371C100.084 131.711 100.189 132.115 100.189 132.584C100.189 133.037 100.1 133.459 99.9199 133.85C99.7402 134.236 99.4883 134.621 99.1641 135.004C98.8398 135.383 98.4609 135.785 98.0273 136.211L96.1641 138.068V138.109H100.541V139Z" fill="#C5C5C5"/>
<path id="5" d="M98.6348 166.762C99.2168 166.762 99.7227 166.861 100.152 167.061C100.582 167.256 100.914 167.541 101.148 167.916C101.387 168.291 101.506 168.746 101.506 169.281C101.506 169.867 101.379 170.373 101.125 170.799C100.871 171.221 100.506 171.547 100.029 171.777C99.5527 172.004 98.9824 172.117 98.3184 172.117C97.873 172.117 97.459 172.078 97.0762 172C96.6934 171.922 96.3711 171.805 96.1094 171.648V170.723C96.3945 170.895 96.7402 171.031 97.1465 171.133C97.5527 171.234 97.9473 171.285 98.3301 171.285C98.7637 171.285 99.1426 171.217 99.4668 171.08C99.7949 170.939 100.049 170.729 100.229 170.447C100.412 170.162 100.504 169.805 100.504 169.375C100.504 168.805 100.328 168.365 99.9766 168.057C99.6289 167.744 99.0781 167.588 98.3242 167.588C98.082 167.588 97.8164 167.607 97.5273 167.646C97.2383 167.686 97 167.729 96.8125 167.775L96.3203 167.453L96.6484 163.434H100.908V164.324H97.4805L97.2637 166.908C97.4121 166.877 97.6035 166.846 97.8379 166.814C98.0723 166.779 98.3379 166.762 98.6348 166.762Z" fill="#C5C5C5"/>
<path id="8" d="M97.7578 187.311C98.2539 187.311 98.6934 187.389 99.0762 187.545C99.459 187.701 99.7578 187.932 99.9727 188.236C100.191 188.537 100.301 188.908 100.301 189.35C100.301 189.697 100.225 190.002 100.072 190.264C99.9238 190.521 99.7227 190.748 99.4688 190.943C99.2148 191.135 98.9336 191.307 98.625 191.459C98.9922 191.627 99.3223 191.816 99.6152 192.027C99.9121 192.238 100.146 192.486 100.318 192.771C100.49 193.057 100.576 193.395 100.576 193.785C100.576 194.266 100.459 194.682 100.225 195.033C99.9941 195.381 99.6699 195.648 99.252 195.836C98.834 196.023 98.3438 196.117 97.7812 196.117C97.1758 196.117 96.6602 196.027 96.2344 195.848C95.8125 195.664 95.4902 195.402 95.2676 195.062C95.0488 194.719 94.9395 194.307 94.9395 193.826C94.9395 193.432 95.0234 193.09 95.1914 192.801C95.3594 192.508 95.582 192.256 95.8594 192.045C96.1367 191.834 96.4395 191.656 96.7676 191.512C96.4824 191.355 96.2207 191.178 95.9824 190.979C95.748 190.779 95.5605 190.547 95.4199 190.281C95.2832 190.012 95.2148 189.699 95.2148 189.344C95.2148 188.91 95.3242 188.543 95.543 188.242C95.7656 187.938 96.0684 187.707 96.4512 187.551C96.8379 187.391 97.2734 187.311 97.7578 187.311ZM95.8945 193.832C95.8945 194.27 96.0488 194.631 96.3574 194.916C96.666 195.197 97.1328 195.338 97.7578 195.338C98.3516 195.338 98.8105 195.197 99.1348 194.916C99.459 194.631 99.6211 194.258 99.6211 193.797C99.6211 193.512 99.5469 193.262 99.3984 193.047C99.25 192.828 99.0391 192.633 98.7656 192.461C98.4922 192.289 98.1699 192.133 97.7988 191.992L97.5879 191.916C97.2285 192.064 96.9219 192.23 96.668 192.414C96.418 192.594 96.2266 192.799 96.0938 193.029C95.9609 193.26 95.8945 193.527 95.8945 193.832ZM97.7461 188.107C97.2852 188.107 96.9082 188.219 96.6152 188.441C96.3223 188.66 96.1758 188.977 96.1758 189.391C96.1758 189.688 96.2461 189.939 96.3867 190.146C96.5312 190.35 96.7266 190.525 96.9727 190.674C97.2188 190.818 97.4941 190.953 97.7988 191.078C98.0957 190.953 98.3594 190.816 98.5898 190.668C98.8203 190.516 99.002 190.336 99.1348 190.129C99.2676 189.922 99.334 189.674 99.334 189.385C99.334 188.971 99.1875 188.654 98.8945 188.436C98.6055 188.217 98.2227 188.107 97.7461 188.107Z" fill="#C5C5C5"/>
<path id="3" d="M136.225 132.432C136.225 132.814 136.15 133.146 136.002 133.428C135.854 133.709 135.646 133.939 135.381 134.119C135.115 134.295 134.803 134.418 134.443 134.488V134.535C135.123 134.621 135.633 134.84 135.973 135.191C136.316 135.543 136.488 136.004 136.488 136.574C136.488 137.07 136.371 137.51 136.137 137.893C135.906 138.275 135.551 138.576 135.07 138.795C134.594 139.01 133.982 139.117 133.236 139.117C132.783 139.117 132.363 139.08 131.977 139.006C131.594 138.936 131.227 138.816 130.875 138.648V137.734C131.23 137.91 131.617 138.049 132.035 138.15C132.453 138.248 132.857 138.297 133.248 138.297C134.029 138.297 134.594 138.143 134.941 137.834C135.289 137.521 135.463 137.096 135.463 136.557C135.463 136.186 135.365 135.887 135.17 135.66C134.979 135.43 134.701 135.262 134.338 135.156C133.979 135.047 133.545 134.992 133.037 134.992H132.182V134.16H133.043C133.508 134.16 133.902 134.092 134.227 133.955C134.551 133.818 134.797 133.627 134.965 133.381C135.137 133.131 135.223 132.836 135.223 132.496C135.223 132.062 135.078 131.729 134.789 131.494C134.5 131.256 134.107 131.137 133.611 131.137C133.307 131.137 133.029 131.168 132.779 131.23C132.529 131.293 132.295 131.379 132.076 131.488C131.857 131.598 131.639 131.725 131.42 131.869L130.928 131.201C131.24 130.959 131.621 130.75 132.07 130.574C132.52 130.398 133.029 130.311 133.6 130.311C134.475 130.311 135.131 130.51 135.568 130.908C136.006 131.307 136.225 131.814 136.225 132.432Z" fill="#C5C5C5"/>
<path id="6" d="M136.016 159.338C136.016 158.822 136.051 158.318 136.121 157.826C136.195 157.334 136.318 156.877 136.49 156.455C136.662 156.029 136.896 155.656 137.193 155.336C137.49 155.016 137.859 154.766 138.301 154.586C138.746 154.402 139.279 154.311 139.9 154.311C140.076 154.311 140.266 154.32 140.469 154.34C140.672 154.355 140.84 154.383 140.973 154.422V155.26C140.828 155.209 140.662 155.172 140.475 155.148C140.291 155.125 140.105 155.113 139.918 155.113C139.191 155.113 138.619 155.271 138.201 155.588C137.787 155.904 137.488 156.334 137.305 156.877C137.121 157.416 137.016 158.023 136.988 158.699H137.053C137.174 158.504 137.328 158.328 137.516 158.172C137.703 158.012 137.93 157.885 138.195 157.791C138.465 157.697 138.777 157.65 139.133 157.65C139.633 157.65 140.068 157.752 140.439 157.955C140.814 158.158 141.104 158.453 141.307 158.84C141.514 159.227 141.617 159.695 141.617 160.246C141.617 160.836 141.508 161.346 141.289 161.775C141.07 162.205 140.758 162.537 140.352 162.771C139.949 163.002 139.469 163.117 138.91 163.117C138.492 163.117 138.107 163.037 137.756 162.877C137.404 162.717 137.098 162.479 136.836 162.162C136.578 161.846 136.377 161.453 136.232 160.984C136.088 160.512 136.016 159.963 136.016 159.338ZM138.898 162.297C139.43 162.297 139.855 162.127 140.176 161.787C140.496 161.447 140.656 160.934 140.656 160.246C140.656 159.684 140.514 159.238 140.229 158.91C139.943 158.582 139.514 158.418 138.939 158.418C138.549 158.418 138.209 158.5 137.92 158.664C137.631 158.824 137.406 159.027 137.246 159.273C137.086 159.52 137.006 159.77 137.006 160.023C137.006 160.281 137.043 160.543 137.117 160.809C137.195 161.074 137.312 161.32 137.469 161.547C137.625 161.773 137.822 161.955 138.061 162.092C138.299 162.229 138.578 162.297 138.898 162.297Z" fill="#C5C5C5"/>
<path id="9" d="M143.553 180.084C143.553 180.604 143.516 181.109 143.441 181.602C143.371 182.094 143.248 182.553 143.072 182.979C142.9 183.404 142.666 183.777 142.369 184.098C142.072 184.418 141.699 184.67 141.25 184.854C140.805 185.033 140.271 185.123 139.65 185.123C139.482 185.123 139.291 185.111 139.076 185.088C138.861 185.068 138.686 185.039 138.549 185V184.156C138.693 184.207 138.863 184.248 139.059 184.279C139.254 184.307 139.445 184.32 139.633 184.32C140.363 184.32 140.938 184.164 141.355 183.852C141.773 183.535 142.074 183.107 142.258 182.568C142.441 182.025 142.545 181.416 142.568 180.74H142.498C142.381 180.928 142.227 181.102 142.035 181.262C141.848 181.418 141.619 181.545 141.35 181.643C141.08 181.736 140.766 181.783 140.406 181.783C139.91 181.783 139.477 181.682 139.105 181.479C138.738 181.275 138.451 180.98 138.244 180.594C138.041 180.207 137.939 179.74 137.939 179.193C137.939 178.604 138.051 178.094 138.273 177.664C138.5 177.23 138.816 176.896 139.223 176.662C139.629 176.428 140.107 176.311 140.658 176.311C141.08 176.311 141.467 176.391 141.818 176.551C142.17 176.711 142.475 176.951 142.732 177.271C142.994 177.588 143.195 177.98 143.336 178.449C143.48 178.918 143.553 179.463 143.553 180.084ZM140.658 177.137C140.139 177.137 139.717 177.307 139.393 177.646C139.072 177.986 138.912 178.498 138.912 179.182C138.912 179.748 139.051 180.195 139.328 180.523C139.605 180.852 140.033 181.016 140.611 181.016C141.01 181.016 141.354 180.936 141.643 180.775C141.936 180.615 142.16 180.412 142.316 180.166C142.477 179.92 142.557 179.668 142.557 179.41C142.557 179.152 142.518 178.891 142.439 178.625C142.365 178.359 142.25 178.115 142.094 177.893C141.938 177.666 141.74 177.484 141.502 177.348C141.264 177.207 140.982 177.137 140.658 177.137Z" fill="#C5C5C5"/>
<path id="1" d="M62.5488 139H61.5996V132.93C61.5996 132.699 61.5996 132.502 61.5996 132.338C61.6035 132.17 61.6074 132.018 61.6113 131.881C61.6191 131.74 61.6289 131.598 61.6406 131.453C61.5195 131.578 61.4062 131.686 61.3008 131.775C61.1953 131.861 61.0645 131.969 60.9082 132.098L59.9297 132.883L59.4199 132.221L61.7402 130.434H62.5488V139Z" fill="#C5C5C5"/>
<path id="4" d="M59.9863 161.119H58.8262V163H57.4668V161.119H53.5703V160.076L57.4844 154.41H58.8262V159.977H59.9863V161.119ZM57.4668 159.977V157.85C57.4668 157.674 57.4688 157.496 57.4727 157.316C57.4805 157.133 57.4883 156.957 57.4961 156.789C57.5039 156.621 57.5117 156.467 57.5195 156.326C57.5273 156.182 57.5332 156.062 57.5371 155.969H57.4902C57.416 156.125 57.334 156.285 57.2441 156.449C57.1543 156.609 57.0586 156.766 56.957 156.918L54.8477 159.977H57.4668Z" fill="#1A342B"/>
<path id="7" d="M53.0352 185L56.5508 177.324H51.8809V176.434H57.5938V177.184L54.1016 185H53.0352Z" fill="#C5C5C5"/>
</g>
<defs>
<clipPath id="clip0_446_1815">
<rect width="196" height="239" fill="white"/>
</clipPath>
</defs>
</svg>
