<svg width="81" height="42" viewBox="0 0 81 42" fill="none" xmlns="http://www.w3.org/2000/svg">
<g id="img_normal_cracked_nor">
<g id="Group 1048" opacity="0.3">
<path id="Vector 95" d="M36.8289 8.32634C42.5218 7.37752 54.382 8.72168 59.6005 9.51236C71.9351 11.6471 80 18.5262 80 21.6098C80 24.6935 77.3908 27.7771 72.6467 30.3863C67.9026 32.9956 55.8052 33.9444 45.6054 32.5212C35.4057 31.098 19.513 33.2328 11.9225 33.2328C4.33197 33.2328 0.773908 30.1491 1.01111 23.7446C1.24832 17.3401 14.0573 12.5961 20.9362 10.9356C27.8151 9.2752 29.7128 9.51236 36.8289 8.32634Z" fill="#A38877" stroke="#6B4A39"/>
<g id="Group 1031">
<path id="Vector 94" d="M75.482 20.1865C75.8773 20.9772 75.9564 22.5111 73.1099 22.3214" stroke="#6B4A39"/>
<path id="Vector 96" d="M41.5613 9.98669C40.8497 10.9355 39.8535 13.2601 41.5613 14.968C43.6962 17.1028 47.4915 15.4424 48.4403 14.2564C49.3891 13.0703 50.1007 11.6471 49.8635 10.2239" stroke="#6B4A39"/>
<path id="Vector 97" d="M40.6124 12.3588C36.659 12.4378 27.8034 13.2601 24.0081 15.9168C19.264 19.2377 15.9432 16.3912 16.6548 26.1166" stroke="#6B4A39"/>
<path id="Vector 98" d="M49.8636 11.8844C51.0496 12.5169 53.6588 14.3988 54.6077 16.8657" stroke="#6B4A39"/>
<path id="Vector 99" d="M53.1847 14.4937C53.4219 14.0193 54.0386 13.023 54.6079 12.8333C55.3195 12.596 57.9288 13.5449 59.8264 14.4937C61.724 15.4425 62.6728 14.9681 62.6728 17.1029C62.6728 19.2377 70.0262 19.4749 74.533 16.3913" stroke="#6B4A39"/>
<path id="Vector 100" d="M62.6724 17.3401C61.6446 18.0517 59.5414 19.5698 59.3516 19.9493C59.1144 20.4237 61.012 22.0842 63.1468 22.7958" stroke="#6B4A39"/>
<path id="Vector 101" d="M5.26947 25.8794C6.61363 25.2468 9.91867 24.3613 12.3856 25.8794" stroke="#6B4A39"/>
<path id="Vector 102" d="M43.6964 15.9169L43.222 22.7958C42.4313 23.1911 40.5179 23.7446 39.1896 22.7958C37.5291 21.6098 34.9199 21.847 33.4967 23.5074C32.0734 25.1678 31.8362 27.0655 27.8038 26.8282" stroke="#6B4A39"/>
<path id="Vector 103" d="M41.5615 14.968C38.636 15.7587 32.4529 17.6721 31.1246 19.0005C29.4642 20.6609 25.6689 20.4237 24.2457 16.3912" stroke="#6B4A39"/>
<path id="Vector 104" d="M45.3569 15.9169C46.7802 16.6285 49.674 18.3363 49.8638 19.4749C50.101 20.8982 46.7802 23.2702 46.543 23.9818C46.3057 24.6934 47.9662 28.2515 51.7614 28.2515" stroke="#6B4A39"/>
<path id="Vector 105" d="M59.3519 20.1865H55.0822C54.766 20.74 54.1809 22.0842 54.3706 23.033C54.6078 24.219 55.0822 25.1678 54.3706 25.6422" stroke="#6B4A39"/>
<path id="Vector 106" d="M54.8453 24.219C55.8732 24.1399 58.261 24.1241 59.5894 24.6934" stroke="#6B4A39"/>
</g>
</g>
</g>
</svg>
