<svg width="60" height="60" viewBox="0 0 60 60" fill="none" xmlns="http://www.w3.org/2000/svg">
<path d="M46.8902 42.8242C39.7933 49.5194 33.2381 49.7933 29.9757 49.7933C26.7133 49.7933 20.1642 49.5011 13.0673 42.8303C11.4118 44.145 10.4562 45.6666 10.4562 47.2857C10.4562 52.2097 19.2025 56.2024 29.9879 56.2024C40.7732 56.2024 49.5135 52.2097 49.5135 47.2857C49.5378 45.6605 48.5823 44.1389 46.8902 42.8242Z" fill="#65AF7C"/>
<path d="M53.981 25.3213C53.981 28.9306 43.2443 31.8582 30 31.8582C16.7557 31.8582 6.01904 28.9306 6.01904 25.3213C6.01904 25.3213 5.30691 35.2728 12.5925 42.4062C19.8781 49.5396 26.6585 49.844 30 49.844C33.3415 49.844 40.1219 49.5396 47.4075 42.4062C54.6931 35.2728 53.981 25.3213 53.981 25.3213Z" fill="#FFFCF5" stroke="#456C51" stroke-linecap="round" stroke-linejoin="round"/>
<path d="M31.3964 34.3995C39.7449 34.3923 46.8601 33.1682 50.8486 31.1966" stroke="#456C51" stroke-linecap="round" stroke-linejoin="round"/>
<path d="M33.5298 18.8243C32.2394 18.7696 31.3515 18.7789 30.0003 18.7789C26.176 18.7648 22.8451 18.9893 19.0592 19.5302" stroke="#456C51" stroke-linejoin="round"/>
<path d="M16.2349 19.883C9.90491 21.0638 6.01892 23.0698 6.01892 25.3218C6.01892 28.9311 16.7556 31.8587 29.9999 31.8587C43.2442 31.8587 53.9808 28.9311 53.9808 25.3218C53.9808 22.2298 46.5658 19.5059 35.9996 18.8242" fill="#FFFCF5"/>
<path d="M16.2349 19.883C9.90491 21.0638 6.01892 23.0698 6.01892 25.3218C6.01892 28.9311 16.7556 31.8587 29.9999 31.8587C43.2442 31.8587 53.9808 28.9311 53.9808 25.3218C53.9808 22.2298 46.5658 19.5059 35.9996 18.8242" stroke="#456C51" stroke-linejoin="round"/>
<path d="M33.1761 19.8808C31.9953 19.82 31.2344 19.787 29.9806 19.787C26.4802 19.7693 23.5719 20.0222 20.1173 20.5867" stroke="#456C51" stroke-linejoin="round"/>
<path d="M16.9407 21.2932C12.3028 22.3462 9.76196 23.7073 9.76196 25.5211C9.76196 28.6861 18.8248 30.5427 29.9997 30.5427C41.1746 30.5427 50.2374 28.6861 50.2374 25.5211C50.2374 22.8796 44.5755 20.8978 35.9996 20.2344" stroke="#456C51" stroke-linejoin="round"/>
<path d="M11.3268 4C11.3268 4 7.67482 17.8408 13.3536 24.0856C19.0323 30.3304 25.4475 29.6 27.6204 29.6C27.6204 29.6 13.451 22.4118 12.0389 8.60142C12.0389 8.60142 14.7656 18.9485 26.4092 25.9542C26.4092 25.9542 27.5169 17.0982 24.3337 13.2029C21.1504 9.30747 15.07 8.45535 11.3268 4Z" fill="#65AF7C"/>
<path d="M28.6296 26.367C28.6296 26.367 27.8688 22.922 28.9339 20.8526C29.9991 18.7832 34.4422 12.3984 32.2815 8.18652C32.2815 8.18652 39.3723 12.9949 38.2098 19.7509C37.0473 26.507 30.5164 27.14 30.5164 27.14C30.5164 27.14 35.6778 22.636 35.6291 18.0102C35.5804 13.3844 34.564 12.3984 34.564 12.3984C34.564 12.3984 35.8665 21.303 28.6296 26.367Z" fill="#65AF7C"/>
<path d="M53.9814 10.404C53.9814 9.16422 53.4889 7.97525 52.6123 7.09861C51.7357 6.22198 50.5467 5.7295 49.307 5.7295C48.6926 5.7287 48.0841 5.84902 47.5163 6.08358C46.9484 6.31813 46.4324 6.66232 45.9977 7.09646C45.563 7.5306 45.2181 8.04618 44.9828 8.61371C44.7475 9.18124 44.6264 9.78959 44.6264 10.404C44.6293 11.2647 44.8717 12.1077 45.3264 12.8386L36.4279 29.1505C39.2068 29.0914 41.9575 28.5795 44.5716 27.635L49.8669 15.048C51.0026 14.9123 52.0489 14.3644 52.8073 13.5084C53.5658 12.6523 53.9835 11.5477 53.9814 10.404Z" fill="#65AF7C"/>
<path d="M45.771 10.4043C45.7718 9.93885 45.8645 9.47816 46.0437 9.04863C46.2229 8.6191 46.4851 8.22917 46.8154 7.9012C47.1456 7.57323 47.5373 7.31367 47.9681 7.13741C48.3988 6.96116 48.8601 6.87167 49.3255 6.87407C49.8333 6.87497 50.3352 6.98281 50.7985 7.19057" stroke="#FFFCF5" stroke-linecap="round" stroke-linejoin="round"/>
<path d="M45.2036 15.3398L38.3258 29.0285" stroke="#FFFCF5" stroke-linecap="round" stroke-linejoin="round"/>
</svg>
