<svg width="168" height="88" viewBox="0 0 168 88" fill="none" xmlns="http://www.w3.org/2000/svg">
<g id="img_lacking_fibre_sel">
<g id="Group 1038">
<g id="Union">
<path fill-rule="evenodd" clip-rule="evenodd" d="M17.1315 31.3263C11.2983 31.7152 5.30315 38.6177 3.0347 42.0204C-3.44109 55.4038 6.95388 55.7505 14.4686 56.0011C15.4151 56.0327 16.3158 56.0627 17.1315 56.1171C22.073 56.4465 28.8007 56.776 33.5317 55.7436C33.0728 60.773 35.6948 65.8388 38.5194 65.8388H63.7964C69.6295 65.8388 72.5461 63.4084 72.5461 57.5752C72.5461 56.1418 72.37 54.8552 72.0466 53.6865H81.7821C87.1291 53.6865 88.5874 44.4505 86.157 40.0757C83.7265 35.7008 73.5185 33.2703 68.1714 35.7008C64.1972 37.5072 62.6398 37.434 59.3079 37.2773C58.1569 37.2232 56.7941 37.1591 55.0468 37.1591C50.5275 37.1591 48.1519 42.0718 47.1971 45.7801C46.9123 45.677 46.613 45.5583 46.2969 45.4229C44.3014 44.5677 41.4874 45.7499 39.4252 47.0165C38.9235 44.1352 37.6373 40.8746 36.3984 37.7339C36.1282 37.0489 35.8602 36.3696 35.6031 35.7012C33.4287 30.0476 26.1962 30.6193 19.4751 31.1505C18.6838 31.2131 17.8995 31.2751 17.1315 31.3263Z" fill="#A38877"/>
<path d="M3.0347 42.0204L2.20265 41.4657L2.1645 41.5229L2.13454 41.5848L3.0347 42.0204ZM17.1315 31.3263L17.198 32.3241L17.198 32.3241L17.1315 31.3263ZM14.4686 56.0011L14.4352 57.0006L14.4352 57.0006L14.4686 56.0011ZM17.1315 56.1171L17.065 57.1149L17.065 57.1149L17.1315 56.1171ZM33.5317 55.7436L34.5276 55.8345L34.6516 54.4757L33.3185 54.7666L33.5317 55.7436ZM72.0466 53.6865V52.6865H70.7323L71.0828 53.9531L72.0466 53.6865ZM86.157 40.0757L85.2828 40.5613L85.2828 40.5613L86.157 40.0757ZM68.1714 35.7008L67.7576 34.7904L67.7576 34.7904L68.1714 35.7008ZM59.3079 37.2773L59.3548 36.2784L59.3548 36.2784L59.3079 37.2773ZM47.1971 45.7801L46.8568 46.7204L47.8912 47.0947L48.1655 46.0294L47.1971 45.7801ZM46.2969 45.4229L46.6908 44.5037L46.6908 44.5037L46.2969 45.4229ZM39.4252 47.0165L38.44 47.1881L38.6928 48.6399L39.9486 47.8687L39.4252 47.0165ZM36.3984 37.7339L37.3286 37.3669L37.3286 37.3669L36.3984 37.7339ZM35.6031 35.7012L34.6698 36.0601L34.6698 36.0601L35.6031 35.7012ZM19.4751 31.1505L19.3963 30.1537L19.3963 30.1537L19.4751 31.1505ZM3.86675 42.5751C4.95995 40.9353 6.96962 38.4285 9.40518 36.2954C11.868 34.1385 14.6164 32.4962 17.198 32.3241L17.065 30.3285C13.8134 30.5453 10.6477 32.5486 8.08748 34.7909C5.50005 37.057 3.37791 39.7028 2.20265 41.4657L3.86675 42.5751ZM14.5019 55.0017C12.613 54.9387 10.6098 54.8708 8.7431 54.6031C6.86539 54.3337 5.23592 53.8753 4.05392 53.0995C2.92125 52.3561 2.17838 51.3123 2.02808 49.7217C1.8715 48.0647 2.3515 45.7283 3.93486 42.456L2.13454 41.5848C0.480014 45.0042 -0.169045 47.7299 0.0369503 49.9098C0.249219 52.1562 1.36056 53.7241 2.95649 54.7715C4.50309 55.7867 6.47663 56.2984 8.45912 56.5828C10.4526 56.8688 12.5668 56.9382 14.4352 57.0006L14.5019 55.0017ZM17.198 55.1193C16.3626 55.0636 15.4442 55.0331 14.5019 55.0017L14.4352 57.0006C15.3859 57.0323 16.2691 57.0618 17.065 57.1149L17.198 55.1193ZM33.3185 54.7666C28.75 55.7635 22.1675 55.4506 17.198 55.1193L17.065 57.1149C21.9786 57.4425 28.8514 57.7884 33.7449 56.7206L33.3185 54.7666ZM38.5194 64.8388C38.1235 64.8388 37.654 64.6615 37.1405 64.2145C36.6272 63.7677 36.1217 63.0928 35.6879 62.2286C34.8196 60.4986 34.3152 58.1615 34.5276 55.8345L32.5358 55.6527C32.2892 58.355 32.8664 61.0655 33.9005 63.1258C34.418 64.1568 35.0688 65.0627 35.8273 65.723C36.5854 66.3829 37.503 66.8388 38.5194 66.8388V64.8388ZM63.7964 64.8388H38.5194V66.8388H63.7964V64.8388ZM71.5461 57.5752C71.5461 60.3379 70.8569 62.0812 69.6829 63.1573C68.4906 64.2503 66.6013 64.8388 63.7964 64.8388V66.8388C66.8246 66.8388 69.3101 66.2122 71.0344 64.6316C72.777 63.0342 73.5461 60.6456 73.5461 57.5752H71.5461ZM71.0828 53.9531C71.3803 55.0284 71.5461 56.2249 71.5461 57.5752H73.5461C73.5461 56.0588 73.3596 54.6819 73.0104 53.4198L71.0828 53.9531ZM72.0466 54.6865H81.7821V52.6865H72.0466V54.6865ZM81.7821 54.6865C85.1692 54.6865 87.0921 51.7571 87.855 48.769C88.6298 45.7344 88.401 42.0558 87.0311 39.59L85.2828 40.5613C86.3434 42.4704 86.6007 45.5972 85.9172 48.2743C85.2218 50.9979 83.742 52.6865 81.7821 52.6865V54.6865ZM87.0311 39.59C86.3047 38.2824 85.0466 37.1967 83.5766 36.3405C82.0955 35.478 80.3306 34.8078 78.4925 34.3641C74.855 33.4861 70.7138 33.4467 67.7576 34.7904L68.5852 36.6112C70.9761 35.5244 74.6124 35.485 78.0233 36.3083C79.7094 36.7153 81.2864 37.3212 82.57 38.0688C83.8646 38.8228 84.794 39.6815 85.2828 40.5613L87.0311 39.59ZM67.7576 34.7904C65.8193 35.6715 64.5316 36.0659 63.356 36.2355C62.1646 36.4074 61.04 36.3577 59.3548 36.2784L59.2609 38.2762C60.9076 38.3536 62.2278 38.4189 63.6416 38.215C65.0712 38.0088 66.5493 37.5366 68.5852 36.6112L67.7576 34.7904ZM59.3548 36.2784C58.2023 36.2242 56.8194 36.1591 55.0468 36.1591V38.1591C56.7688 38.1591 58.1114 38.2221 59.2609 38.2762L59.3548 36.2784ZM55.0468 36.1591C52.3717 36.1591 50.3833 37.6287 48.9874 39.4761C47.6008 41.3113 46.7246 43.6048 46.2287 45.5307L48.1655 46.0294C48.6244 44.2471 49.4134 42.23 50.5831 40.6818C51.7436 39.1459 53.2026 38.1591 55.0468 38.1591V36.1591ZM45.903 46.342C46.2346 46.4841 46.5519 46.61 46.8568 46.7204L47.5374 44.8397C47.2726 44.7439 46.9913 44.6325 46.6908 44.5037L45.903 46.342ZM39.9486 47.8687C40.9341 47.2633 42.0678 46.6988 43.1616 46.3853C44.2734 46.0667 45.21 46.045 45.903 46.342L46.6908 44.5037C45.3883 43.9455 43.9203 44.0874 42.6106 44.4627C41.283 44.8432 39.9785 45.5031 38.9018 46.1644L39.9486 47.8687ZM35.4681 38.1008C36.7181 41.2696 37.9594 44.4279 38.44 47.1881L40.4104 46.845C39.8876 43.8426 38.5565 40.4797 37.3286 37.3669L35.4681 38.1008ZM34.6698 36.0601C34.9287 36.7332 35.1982 37.4166 35.4681 38.1008L37.3286 37.3669C37.0581 36.6812 36.7918 36.0059 36.5365 35.3422L34.6698 36.0601ZM19.5539 32.1474C22.9501 31.879 26.3036 31.6201 29.0762 32.0923C31.8013 32.5565 33.7565 33.6855 34.6698 36.0601L36.5365 35.3422C35.2753 32.0632 32.527 30.6513 29.412 30.1207C26.3445 29.5982 22.7212 29.8908 19.3963 30.1537L19.5539 32.1474ZM17.198 32.3241C17.9733 32.2724 18.7637 32.2099 19.5539 32.1474L19.3963 30.1537C18.6039 30.2163 17.8258 30.2778 17.065 30.3285L17.198 32.3241Z" fill="#6B4A39"/>
</g>
<g id="Group 1035">
<path id="Vector 115" d="M52.1315 45.9097C51.1593 48.9883 48.4371 55.5344 45.3261 57.0899C41.4374 59.0343 41.4374 64.8674 44.84 65.8396" stroke="#6B4A39" stroke-width="2" stroke-linecap="round"/>
<path id="Vector 116" d="M47.2702 55.6316C49.7007 54.9834 56.1172 54.0763 58.4505 55.6318C61.367 57.5762 63.7975 60.9787 59.9087 65.8396" stroke="#6B4A39" stroke-width="2" stroke-linecap="round"/>
<path id="Vector 117" d="M67.6863 46.8818C65.0938 48.5022 59.6171 53.2983 58.4505 55.6316" stroke="#6B4A39" stroke-width="2" stroke-linecap="round"/>
<path id="Vector 114" d="M74.9771 35.2156C73.6808 38.9423 72.3522 47.1735 77.4075 50.2845" stroke="#6B4A39" stroke-width="2" stroke-linecap="round"/>
<path id="Vector 111" d="M9.3545 42.5069C11.785 41.2106 17.5209 39.007 21.0208 40.5625" stroke="#6B4A39" stroke-width="2" stroke-linecap="round"/>
<path id="Vector 110" d="M26.3677 30.8406C23.9373 34.0813 19.368 42.3125 20.5346 49.3123" stroke="#6B4A39" stroke-width="2" stroke-linecap="round"/>
</g>
<path id="Vector 124" d="M33.6587 56.1177C34.4689 53.5252 36.7697 48.0485 39.4918 46.8819" stroke="#6B4A39" stroke-width="2"/>
<path id="Vector 125" d="M47.2698 45.4229C47.4318 46.2331 48.728 46.9787 52.6168 45.4231C57.4778 43.4788 62.3387 42.9928 65.2553 44.9371C68.1719 46.8815 70.1163 48.3398 72.0606 53.6868" stroke="#6B4A39" stroke-width="2"/>
<path id="Vector 126" d="M102.684 23.063C96.4622 22.2853 94.2586 28.8962 93.9345 32.2989C92.9624 38.1319 96.365 38.1321 99.2816 38.1321H117.267C122.128 38.1321 125.045 35.7016 125.045 30.8407C125.045 25.9797 119.212 22.577 115.323 23.5492C111.434 24.5214 110.462 24.0352 102.684 23.063Z" fill="#A38877" stroke="#6B4A39" stroke-width="2"/>
<g id="Group 1036">
<path id="Vector 121" d="M110.948 24.0354C111.11 26.3038 109.49 30.8407 101.712 30.8407" stroke="#6B4A39" stroke-width="2" stroke-linecap="round"/>
<path id="Vector 122" d="M109.004 28.8964C109.814 29.2205 111.531 30.2575 111.92 31.813" stroke="#6B4A39" stroke-width="2" stroke-linecap="round"/>
</g>
<path id="Vector 127" d="M108.032 43.4792C99.4764 42.7014 94.421 51.9049 92.9627 56.6038C90.5322 64.3813 100.254 62.9231 103.657 62.9231H129.42C135.739 62.9231 135.739 60.4926 138.656 56.6038C141.572 52.715 151.78 55.6316 161.502 54.1733C171.224 52.7151 165.391 44.9375 163.933 40.5627C162.474 36.1878 156.155 32.7853 147.405 31.8131C138.656 30.8409 134.767 37.1601 130.392 42.5072C126.017 47.8542 118.726 44.4514 108.032 43.4792Z" fill="#A38877" stroke="#6B4A39" stroke-width="2" stroke-linecap="round"/>
<g id="Group 1037">
<path id="Vector 124_2" d="M116.781 45.4233C117.591 46.8816 118.336 50.0899 114.837 51.2565C110.462 52.7148 108.031 55.1453 108.031 62.9228" stroke="#6B4A39" stroke-width="2" stroke-linecap="round"/>
<path id="Vector 125_2" d="M115.323 51.2566C116.619 52.877 120.281 55.8259 124.559 54.6593C129.906 53.201 133.795 50.2844 134.767 47.854C135.544 45.9096 132.498 43.155 130.878 42.0208" stroke="#6B4A39" stroke-width="2" stroke-linecap="round"/>
<path id="Vector 126_2" d="M94.9068 52.229C96.203 51.7429 99.2816 50.8679 101.226 51.2568" stroke="#6B4A39" stroke-width="2" stroke-linecap="round"/>
<path id="Vector 127_2" d="M124.072 54.6592C124.882 56.7657 125.628 61.3674 122.128 62.9229" stroke="#6B4A39" stroke-width="2" stroke-linecap="round"/>
<path id="Vector 128" d="M134.767 48.8261C136.387 49.4742 139.822 51.5482 140.6 54.6593" stroke="#6B4A39" stroke-width="2" stroke-linecap="round"/>
<path id="Vector 129" d="M145.947 31.8127C146.757 34.0812 147.697 39.007 144.975 40.5625C141.572 42.5069 146.433 52.7149 155.183 51.2566" stroke="#6B4A39" stroke-width="2" stroke-linecap="round"/>
<path id="Vector 130" d="M135.252 37.1599C135.414 38.9422 137.391 42.4097 144.002 42.0208" stroke="#6B4A39" stroke-width="2" stroke-linecap="round"/>
</g>
</g>
</g>
</svg>
