<svg width="81" height="42" viewBox="0 0 81 42" fill="none" xmlns="http://www.w3.org/2000/svg">
<g id="img_lacking_fibre_nor">
<g id="Group 1038" opacity="0.3">
<g id="Union">
<path fill-rule="evenodd" clip-rule="evenodd" d="M8.67704 14.9625C5.90102 15.1475 3.04789 18.4325 1.96832 20.0518C-1.11354 26.421 3.83348 26.586 7.40975 26.7053L7.4098 26.7053C7.86022 26.7203 8.28889 26.7346 8.67704 26.7605C11.0288 26.9173 14.2306 27.0741 16.4821 26.5827C16.2637 28.9763 17.5115 31.3872 18.8558 31.3872H30.8852C33.6612 31.3872 35.0492 30.2305 35.0492 27.4545C35.0492 26.7724 34.9654 26.1601 34.8115 25.6039H39.4445C41.9892 25.6039 42.6832 21.2084 41.5266 19.1264C40.3699 17.0444 35.5119 15.8877 32.9672 17.0444C31.0758 17.9041 30.3346 17.8693 28.749 17.7947C28.2012 17.7689 27.5527 17.7384 26.7211 17.7384C24.5704 17.7384 23.4398 20.0763 22.9854 21.8411C22.8499 21.7921 22.7075 21.7356 22.5572 21.6712C21.6075 21.2641 20.2682 21.8269 19.2867 22.4297C19.048 21.0584 18.4359 19.5066 17.8463 18.0119L17.8462 18.0119C17.7177 17.6859 17.5901 17.3626 17.4678 17.0445C16.4329 14.3539 12.991 14.626 9.7924 14.8788C9.4158 14.9086 9.04257 14.9381 8.67704 14.9625Z" fill="#A38877"/>
<path d="M1.96832 20.0518L1.5523 19.7745L1.53322 19.8031L1.51824 19.834L1.96832 20.0518ZM8.67704 14.9625L8.7103 15.4613L8.7103 15.4613L8.67704 14.9625ZM7.40975 26.7053L7.43675 26.2059L7.42642 26.2056L7.40975 26.7053ZM7.4098 26.7053L7.38281 27.2047L7.39314 27.205L7.4098 26.7053ZM8.67704 26.7605L8.64378 27.2594L8.64378 27.2594L8.67704 26.7605ZM16.4821 26.5827L16.9801 26.6282L17.0421 25.9488L16.3755 26.0942L16.4821 26.5827ZM34.8115 25.6039V25.1039H34.1544L34.3296 25.7372L34.8115 25.6039ZM41.5266 19.1264L41.9636 18.8836L41.9636 18.8836L41.5266 19.1264ZM32.9672 17.0444L32.7603 16.5892L32.7603 16.5892L32.9672 17.0444ZM28.749 17.7947L28.7255 18.2941L28.7255 18.2941L28.749 17.7947ZM22.9854 21.8411L22.8153 22.3113L23.3325 22.4984L23.4696 21.9658L22.9854 21.8411ZM22.5572 21.6712L22.3602 22.1307L22.3602 22.1307L22.5572 21.6712ZM19.2867 22.4297L18.7942 22.5154L18.9205 23.2414L19.5484 22.8557L19.2867 22.4297ZM17.8463 18.0119L17.3748 18.1783L17.3778 18.1869L17.3811 18.1954L17.8463 18.0119ZM17.8462 18.0119L18.3177 17.8454L18.3147 17.8369L18.3114 17.8284L17.8462 18.0119ZM17.4678 17.0445L17.0011 17.224L17.0011 17.224L17.4678 17.0445ZM9.7924 14.8788L9.753 14.3804L9.753 14.3804L9.7924 14.8788ZM2.38435 20.3292C2.90362 19.5503 3.85867 18.359 5.01594 17.3454C6.18681 16.32 7.48976 15.5427 8.7103 15.4613L8.64378 14.4636C7.0883 14.5673 5.57668 15.525 4.35709 16.5931C3.12389 17.6732 2.1126 18.934 1.5523 19.7745L2.38435 20.3292ZM7.42642 26.2056C6.52725 26.1756 5.57523 26.1433 4.6884 26.0161C3.79605 25.8881 3.02472 25.6706 2.4666 25.3043C1.93313 24.9541 1.58404 24.4637 1.51326 23.7146C1.43934 22.9324 1.66573 21.8251 2.4184 20.2696L1.51824 19.834C0.729989 21.4631 0.419062 22.765 0.517692 23.8087C0.619458 24.8856 1.15279 25.6381 1.91788 26.1403C2.65831 26.6263 3.60167 26.8705 4.54641 27.006C5.49666 27.1423 6.50412 27.1754 7.39309 27.205L7.42642 26.2056ZM7.43679 26.206L7.43674 26.206L7.38276 27.2046L7.38282 27.2046L7.43679 26.206ZM8.7103 26.2616C8.31226 26.2351 7.8748 26.2205 7.42647 26.2056L7.39314 27.205C7.84564 27.2201 8.26553 27.2342 8.64378 27.2594L8.7103 26.2616ZM16.3755 26.0942C14.2053 26.5678 11.076 26.4193 8.7103 26.2616L8.64378 27.2594C10.9816 27.4153 14.256 27.5803 16.5888 27.0712L16.3755 26.0942ZM18.8558 30.8872C18.6749 30.8872 18.4568 30.8062 18.2154 30.596C17.9741 30.3859 17.7352 30.0675 17.5298 29.6582C17.1186 28.8389 16.8794 27.7311 16.9801 26.6282L15.9842 26.5373C15.8664 27.8279 16.1419 29.1223 16.6361 30.1068C16.8834 30.5995 17.1949 31.0334 17.5588 31.3502C17.9225 31.6669 18.3646 31.8872 18.8558 31.8872V30.8872ZM30.8852 30.8872H18.8558V31.8872H30.8852V30.8872ZM34.5492 27.4545C34.5492 28.7656 34.2222 29.5874 33.6704 30.0933C33.1094 30.6076 32.2174 30.8872 30.8852 30.8872V31.8872C32.3291 31.8872 33.5191 31.5885 34.3461 30.8304C35.1823 30.0639 35.5492 28.9194 35.5492 27.4545H34.5492ZM34.3296 25.7372C34.4706 26.2467 34.5492 26.8139 34.5492 27.4545H35.5492C35.5492 26.7308 35.4603 26.0734 35.2934 25.4705L34.3296 25.7372ZM34.8115 26.1039H39.4445V25.1039H34.8115V26.1039ZM39.4445 26.1039C41.0737 26.1039 41.9941 24.6948 42.358 23.2696C42.7279 21.8211 42.6193 20.0638 41.9636 18.8836L41.0895 19.3693C41.5905 20.2711 41.7133 21.7525 41.3891 23.0222C41.059 24.3152 40.3601 25.1039 39.4445 25.1039V26.1039ZM41.9636 18.8836C41.6151 18.2562 41.0124 17.7367 40.3107 17.328C39.6035 16.9162 38.7613 16.5965 37.8847 16.3849C36.1509 15.9664 34.1739 15.9467 32.7603 16.5892L33.1741 17.4996C34.3051 16.9855 36.0295 16.9658 37.6501 17.357C38.4506 17.5502 39.1989 17.8378 39.8074 18.1922C40.4214 18.5498 40.8597 18.9557 41.0895 19.3693L41.9636 18.8836ZM32.7603 16.5892C31.839 17.008 31.2285 17.1948 30.6721 17.275C30.1077 17.3564 29.5749 17.333 28.7725 17.2952L28.7255 18.2941C29.5087 18.331 30.1393 18.3622 30.8148 18.2648C31.4983 18.1662 32.204 17.9405 33.1741 17.4996L32.7603 16.5892ZM28.7725 17.2952C28.2239 17.2694 27.5653 17.2384 26.7211 17.2384V18.2384C27.54 18.2384 28.1785 18.2684 28.7255 18.2941L28.7725 17.2952ZM26.7211 17.2384C25.438 17.2384 24.4853 17.9436 23.8182 18.8265C23.1557 19.7034 22.7377 20.7981 22.5012 21.7164L23.4696 21.9658C23.6876 21.1193 24.062 20.1627 24.6161 19.4294C25.1655 18.7022 25.8535 18.2384 26.7211 18.2384V17.2384ZM22.3602 22.1307C22.5184 22.1985 22.6697 22.2586 22.8153 22.3113L23.1556 21.3709C23.0301 21.3255 22.8967 21.2727 22.7541 21.2116L22.3602 22.1307ZM19.5484 22.8557C20.0164 22.5683 20.5539 22.3008 21.0716 22.1524C21.5983 22.0014 22.0377 21.9925 22.3602 22.1307L22.7541 21.2116C22.1269 20.9428 21.4218 21.0117 20.7961 21.1911C20.1614 21.373 19.5386 21.6882 19.0251 22.0036L19.5484 22.8557ZM17.3811 18.1954C17.9763 19.7041 18.566 21.2047 18.7942 22.5154L19.7793 22.3439C19.5301 20.9121 18.8955 19.3092 18.3114 17.8284L17.3811 18.1954ZM17.3748 18.1783L17.3748 18.1783L18.3178 17.8455L18.3177 17.8454L17.3748 18.1783ZM17.0011 17.224C17.1244 17.5444 17.2527 17.8697 17.3811 18.1953L18.3114 17.8284C18.1826 17.502 18.0559 17.1807 17.9345 16.865L17.0011 17.224ZM9.8318 15.3773C11.4489 15.2494 13.0416 15.1266 14.3575 15.3508C15.6497 15.5709 16.5706 16.1047 17.0011 17.224L17.9345 16.865C17.3301 15.2936 16.0126 14.6183 14.5254 14.365C13.062 14.1157 11.3345 14.2554 9.753 14.3804L9.8318 15.3773ZM8.7103 15.4613C9.07943 15.4367 9.45576 15.407 9.8318 15.3773L9.753 14.3804C9.37583 14.4102 9.00571 14.4394 8.64378 14.4636L8.7103 15.4613Z" fill="#6B4A39"/>
</g>
<g id="Group 1035">
<path id="Vector 115" d="M25.3341 21.903C24.8714 23.3681 23.576 26.4834 22.0954 27.2237C20.2447 28.149 20.2447 30.925 21.8641 31.3877" stroke="#6B4A39" stroke-linecap="round"/>
<path id="Vector 116" d="M23.0208 26.5295C24.1774 26.2211 27.2311 25.7894 28.3415 26.5296C29.7295 27.455 30.8861 29.0742 29.0355 31.3876" stroke="#6B4A39" stroke-linecap="round"/>
<path id="Vector 117" d="M32.7366 22.3656C31.5028 23.1367 28.8964 25.4192 28.3412 26.5296" stroke="#6B4A39" stroke-linecap="round"/>
<path id="Vector 114" d="M36.2064 16.8135C35.5895 18.587 34.9572 22.5043 37.3631 23.9849" stroke="#6B4A39" stroke-linecap="round"/>
<path id="Vector 111" d="M4.97636 20.2834C6.13303 19.6665 8.86279 18.6178 10.5284 19.3581" stroke="#6B4A39" stroke-linecap="round"/>
<path id="Vector 110" d="M13.0732 14.7314C11.9165 16.2737 9.74196 20.191 10.2972 23.5222" stroke="#6B4A39" stroke-linecap="round"/>
</g>
<path id="Vector 124" d="M16.5426 26.7608C16.9282 25.5271 18.0232 22.9207 19.3187 22.3655" stroke="#6B4A39"/>
<path id="Vector 125" d="M23.0199 21.6712C23.097 22.0568 23.7139 22.4116 25.5646 21.6713C27.8779 20.746 30.1913 20.5147 31.5793 21.44C32.9673 22.3654 33.8926 23.0594 34.818 25.604" stroke="#6B4A39"/>
<path id="Vector 126" d="M49.3922 11.03C46.4311 10.6599 45.3824 13.806 45.2282 15.4254C44.7655 18.2013 46.3849 18.2014 47.7729 18.2014H56.3323C58.6456 18.2014 60.0337 17.0448 60.0337 14.7314C60.0337 12.4181 57.2576 10.7987 55.4069 11.2614C53.5563 11.7241 53.0936 11.4927 49.3922 11.03Z" fill="#A38877" stroke="#6B4A39"/>
<g id="Group 1036">
<path id="Vector 121" d="M53.3246 11.4928C53.4017 12.5724 52.6306 14.7315 48.9292 14.7315" stroke="#6B4A39" stroke-linecap="round"/>
<path id="Vector 122" d="M52.3996 13.8062C52.7851 13.9604 53.6025 14.454 53.7876 15.1942" stroke="#6B4A39" stroke-linecap="round"/>
</g>
<path id="Vector 127" d="M51.9368 20.7462C47.8653 20.3761 45.4595 24.756 44.7655 26.9922C43.6088 30.6936 48.2355 29.9996 49.8548 29.9996H62.1156C65.1229 29.9996 65.1229 28.8429 66.511 26.9922C67.899 25.1415 72.757 26.5296 77.3837 25.8356C82.0104 25.1416 79.2344 21.4402 78.5404 19.3582C77.8464 17.2762 74.839 15.6569 70.675 15.1942C66.511 14.7316 64.6603 17.7389 62.5783 20.2836C60.4962 22.8283 57.0262 21.2089 51.9368 20.7462Z" fill="#A38877" stroke="#6B4A39" stroke-linecap="round"/>
<g id="Group 1037">
<path id="Vector 124_2" d="M56.1007 21.6714C56.4862 22.3655 56.8409 23.8923 55.1753 24.4475C53.0933 25.1415 51.9366 26.2981 51.9366 29.9995" stroke="#6B4A39" stroke-linecap="round"/>
<path id="Vector 125_2" d="M55.4069 24.4476C56.0238 25.2187 57.7666 26.6221 59.8023 26.0669C62.347 25.3729 64.1977 23.9849 64.6603 22.8282C65.0305 21.9029 63.5808 20.592 62.8097 20.0522" stroke="#6B4A39" stroke-linecap="round"/>
<path id="Vector 126_2" d="M45.6909 24.9102C46.3078 24.6789 47.7729 24.2625 48.6982 24.4475" stroke="#6B4A39" stroke-linecap="round"/>
<path id="Vector 127_2" d="M59.5706 26.0668C59.9562 27.0692 60.3109 29.2592 58.6453 29.9995" stroke="#6B4A39" stroke-linecap="round"/>
<path id="Vector 128" d="M64.6601 23.2907C65.4312 23.5992 67.066 24.5862 67.4361 26.0667" stroke="#6B4A39" stroke-linecap="round"/>
<path id="Vector 129" d="M69.9807 15.1941C70.3663 16.2737 70.8135 18.6179 69.518 19.3581C67.8987 20.2835 70.212 25.1415 74.3761 24.4475" stroke="#6B4A39" stroke-linecap="round"/>
<path id="Vector 130" d="M64.8916 17.7386C64.9687 18.5869 65.9094 20.2371 69.0556 20.052" stroke="#6B4A39" stroke-linecap="round"/>
</g>
</g>
</g>
</svg>
