<svg width="168" height="88" viewBox="0 0 168 88" fill="none" xmlns="http://www.w3.org/2000/svg">
<g id="img_normal_smooth_sel">
<g id="Group 1040">
<path id="Vector 108" d="M87.4654 21.9825C66.331 16.2185 37.3513 24.3841 25.5032 29.1874C17.1776 32.5496 0.622313 42.156 1.00657 53.6838C1.4869 68.0936 23.1016 69.5346 42.3147 66.6527C61.5277 63.7707 79.2998 62.81 107.159 66.6527C135.018 70.4953 161.436 54.6445 165.759 45.9986C170.082 37.3527 162.396 26.3052 153.75 26.7856C145.105 27.2659 113.883 29.1874 87.4654 21.9825Z" fill="#A38877" stroke="#6B4A39" stroke-width="2"/>
<g id="Group 1039">
<path id="Vector 131" d="M28.8586 49.8411C25.4963 52.7231 20.7891 58.5831 28.8586 58.9673C38.9454 59.4477 55.2766 53.2034 72.5684 56.0854" stroke="#6B4A39" stroke-width="2" stroke-linecap="round"/>
<path id="Vector 132" d="M98.0258 57.046C104.59 58.647 119.737 60.8886 127.806 57.046" stroke="#6B4A39" stroke-width="2" stroke-linecap="round"/>
<path id="Vector 133" d="M45.1905 33.0297C47.5921 33.0297 76.4117 28.2265 91.3019 33.0297C106.192 37.833 129.728 39.7542 141.736 36.392" stroke="#6B4A39" stroke-width="2" stroke-linecap="round"/>
</g>
</g>
</g>
</svg>
