<svg width="168" height="88" viewBox="0 0 168 88" fill="none" xmlns="http://www.w3.org/2000/svg">
<g id="img_normal_cracked_sel">
<g id="Group 1048">
<path id="Vector 95" d="M76.286 17.6857C88.2483 15.692 113.17 18.5164 124.135 20.1779C150.053 24.6636 167 39.1182 167 45.5978C167 52.0774 161.517 58.5569 151.549 64.0397C141.58 69.5224 116.16 71.5161 94.7279 68.5255C73.2955 65.5349 39.9008 70.0208 23.9511 70.0208C8.00135 70.0208 0.52492 63.5412 1.02335 50.0837C1.52178 36.6261 28.4369 26.6575 42.8913 23.1685C57.3458 19.6795 61.3332 20.1779 76.286 17.6857Z" fill="#A38877" stroke="#6B4A39" stroke-width="2"/>
<g id="Group 1031">
<path id="Vector 94" d="M157.507 42.6074C158.337 44.2688 158.503 47.492 152.522 47.0932" stroke="#6B4A39" stroke-width="2"/>
<path id="Vector 96" d="M86.2307 21.1749C84.7355 23.1686 82.6421 28.0532 86.2307 31.6419C90.7166 36.1278 98.6915 32.6388 100.685 30.1466C102.679 27.6545 104.174 24.6639 103.676 21.6734" stroke="#6B4A39" stroke-width="2"/>
<path id="Vector 97" d="M84.2369 26.1592C75.9298 26.3253 57.3218 28.0532 49.3469 33.6356C39.3784 40.6136 32.4004 34.6325 33.8957 55.068" stroke="#6B4A39" stroke-width="2"/>
<path id="Vector 98" d="M103.676 25.1624C106.168 26.4915 111.651 30.4457 113.645 35.6293" stroke="#6B4A39" stroke-width="2"/>
<path id="Vector 99" d="M110.654 30.6451C111.153 29.6483 112.449 27.5549 113.645 27.1561C115.14 26.6577 120.623 28.6514 124.61 30.6451C128.598 32.6389 130.591 31.6419 130.591 36.1278C130.591 40.6136 146.043 41.1121 155.513 34.6325" stroke="#6B4A39" stroke-width="2"/>
<path id="Vector 100" d="M130.591 36.6262C128.431 38.1215 124.012 41.3114 123.613 42.1089C123.114 43.1058 127.102 46.5948 131.588 48.0901" stroke="#6B4A39" stroke-width="2"/>
<path id="Vector 101" d="M9.97174 54.5694C12.7962 53.2403 19.7409 51.3795 24.9246 54.5694" stroke="#6B4A39" stroke-width="2"/>
<path id="Vector 102" d="M90.7171 33.6356L89.7203 48.09C88.0589 48.9208 84.0382 50.0838 81.247 48.09C77.758 45.5979 72.2753 46.0963 69.2847 49.5853C66.2942 53.0743 65.7957 57.0618 57.3224 56.5633" stroke="#6B4A39" stroke-width="2"/>
<path id="Vector 103" d="M86.2313 31.6419C80.084 33.3033 67.0916 37.324 64.3004 40.1152C60.8114 43.6042 52.8366 43.1058 49.846 34.6325" stroke="#6B4A39" stroke-width="2"/>
<path id="Vector 104" d="M94.2061 33.6356C97.1967 35.1309 103.278 38.7196 103.676 41.112C104.175 44.1026 97.1967 49.0869 96.6983 50.5822C96.1998 52.0775 99.6888 59.5539 107.664 59.5539" stroke="#6B4A39" stroke-width="2"/>
<path id="Vector 105" d="M123.613 42.6074H114.642C113.977 43.7704 112.748 46.5948 113.146 48.5885C113.645 51.0806 114.642 53.0744 113.146 54.0712" stroke="#6B4A39" stroke-width="2"/>
<path id="Vector 106" d="M114.143 51.0807C116.303 50.9145 121.321 50.8813 124.112 52.0775" stroke="#6B4A39" stroke-width="2"/>
</g>
</g>
</g>
</svg>
