<svg width="81" height="42" viewBox="0 0 81 42" fill="none" xmlns="http://www.w3.org/2000/svg">
<g id="img_severe_constipation_sel">
<g id="Group 1029" opacity="0.3">
<path id="Vector 55" d="M38.7727 20.5219C40.6152 18.3108 44.3004 17.6045 45.9126 17.5277C49.3675 17.5277 52.8222 18.9096 53.5131 23.2857C54.2041 27.6618 50.7493 29.2741 49.137 29.2741H40.6152C37.621 29.2741 36.4694 23.2857 38.7727 20.5219Z" fill="#A38877" stroke="#6B4A39"/>
<g id="Union">
<path fill-rule="evenodd" clip-rule="evenodd" d="M61.5743 12C59.2711 12.0768 54.5726 13.1516 54.204 16.8367C53.7434 21.4432 56.9679 22.1341 58.5801 22.1341H63.4169C63.5448 22.1383 63.6749 22.1405 63.8064 22.1404C63.9637 24.8203 65.4008 27.2012 67.5625 27.2012H75.3935C76.5452 27.2012 80 26.2799 80 22.8251C80 19.3703 77.236 16.8366 72.3993 15.9154C71.2351 15.6467 69.2665 15.4721 67.5354 15.9581C66.8841 14.2745 65.1336 12 61.5743 12Z" fill="#A38877"/>
<path d="M54.204 16.8367L53.7065 16.787L53.7065 16.787L54.204 16.8367ZM61.5743 12V11.5H61.566L61.5577 11.5003L61.5743 12ZM63.4169 22.1341L63.433 21.6344L63.4249 21.6341H63.4169V22.1341ZM63.8064 22.1404L64.3055 22.1111L64.2779 21.64L63.8059 21.6404L63.8064 22.1404ZM72.3993 15.9154L72.2868 16.4026L72.2962 16.4048L72.3057 16.4066L72.3993 15.9154ZM67.5354 15.9581L67.0691 16.1385L67.233 16.5623L67.6706 16.4395L67.5354 15.9581ZM54.7016 16.8865C54.8618 15.2839 55.9574 14.2129 57.3836 13.5143C58.8127 12.8143 60.4895 12.5364 61.591 12.4997L61.5577 11.5003C60.356 11.5403 58.5319 11.8383 56.9437 12.6162C55.3528 13.3955 53.9148 14.7045 53.7065 16.787L54.7016 16.8865ZM58.5801 21.6341C57.8257 21.6341 56.748 21.4692 55.9242 20.8201C55.1361 20.1991 54.4844 19.0582 54.7016 16.8865L53.7065 16.787C53.4631 19.2217 54.1933 20.7295 55.3053 21.6056C56.3816 22.4536 57.7224 22.6341 58.5801 22.6341V21.6341ZM63.4169 21.6341H58.5801V22.6341H63.4169V21.6341ZM63.8059 21.6404C63.6805 21.6405 63.556 21.6384 63.433 21.6344L63.4007 22.6339C63.5336 22.6382 63.6693 22.6406 63.8069 22.6404L63.8059 21.6404ZM67.5625 26.7012C66.6878 26.7012 65.9259 26.2251 65.3428 25.3896C64.7565 24.5494 64.3799 23.3779 64.3055 22.1111L63.3072 22.1697C63.3902 23.5828 63.8108 24.9417 64.5228 25.9619C65.238 26.9868 66.2756 27.7012 67.5625 27.7012V26.7012ZM75.3935 26.7012H67.5625V27.7012H75.3935V26.7012ZM79.5 22.8251C79.5 24.3523 78.7499 25.3022 77.854 25.8909C76.9333 26.4959 75.8785 26.7012 75.3935 26.7012V27.7012C76.0603 27.7012 77.3086 27.4459 78.4032 26.7266C79.5227 25.9909 80.5 24.7527 80.5 22.8251H79.5ZM72.3057 16.4066C74.6642 16.8558 76.4693 17.6897 77.6767 18.7898C78.8737 19.8804 79.5 21.2455 79.5 22.8251H80.5C80.5 20.9498 79.7443 19.3208 78.3501 18.0506C76.9663 16.7897 74.9711 15.8963 72.4928 15.4242L72.3057 16.4066ZM67.6706 16.4395C69.295 15.9834 71.1733 16.1456 72.2868 16.4026L72.5117 15.4282C71.2968 15.1479 69.238 14.9608 67.4003 15.4767L67.6706 16.4395ZM61.5743 12.5C64.8671 12.5 66.468 14.5847 67.0691 16.1385L68.0017 15.7777C67.3003 13.9643 65.4002 11.5 61.5743 11.5V12.5Z" fill="#6B4A39"/>
</g>
<path id="Vector 53" d="M6.07348 18.9804C10.4094 17.5678 12.6767 18.4545 13.7518 18.9805C16.4618 20.3057 17.6361 22.1587 16.9135 26.0434C16.0101 30.8993 7.42845 30.0164 3.36353 28.6921C-0.701397 27.3677 0.653578 20.7461 6.07348 18.9804Z" fill="#A38877" stroke="#6B4A39"/>
<path id="Vector 54" d="M29.0994 14.9941C26.5198 14.9941 24.2626 15.4548 22.1897 17.9883C18.5046 23.516 23.111 26.9708 29.0994 26.7405C35.0877 26.5102 36.6151 22.0529 36.009 19.8309C35.3179 17.2974 32.3239 14.9941 29.0994 14.9941Z" fill="#A38877" stroke="#6B4A39"/>
<path id="Vector 58" d="M67.7935 15.9155C66.3348 16.6064 63.6939 18.8636 63.8781 22.3645" stroke="#6B4A39"/>
</g>
</g>
</svg>
