<svg width="81" height="42" viewBox="0 0 81 42" fill="none" xmlns="http://www.w3.org/2000/svg">
<g id="img_mild_onstipation_nor">
<g id="Group 1030" opacity="0.3">
<path id="Vector 70" d="M10.3561 13.3452L10.3448 13.348L10.3337 13.3513C9.48189 13.6069 8.18884 14.1389 7.0486 14.9175C5.92517 15.6847 4.84698 16.7621 4.61752 18.1389C4.51016 18.7831 4.28942 19.185 4.02073 19.4938C3.77321 19.7783 3.48141 19.9925 3.12538 20.2538C3.06955 20.2948 3.01213 20.337 2.95306 20.3807C2.53133 20.6931 2.06066 21.0658 1.65184 21.6339C1.24074 22.2051 0.91065 22.9467 0.716253 23.9835C0.337576 26.0031 0.45566 27.9949 1.07955 29.5382C1.70773 31.0921 2.87767 32.238 4.58131 32.38C6.01904 32.4998 7.38477 32.7386 8.53129 33.0914C9.68846 33.4475 10.5738 33.9049 11.0996 34.4307C11.4882 34.8193 12.1117 35.1238 12.8085 35.3494C13.5199 35.5799 14.3653 35.7463 15.2507 35.8254C17.0046 35.982 19.0093 35.8031 20.4744 35.004C20.9657 34.736 21.3794 34.4985 21.7282 34.2982C21.8591 34.2231 21.9808 34.1532 22.094 34.0889C22.5197 33.8473 22.8144 33.6918 23.0606 33.6011C23.2923 33.5157 23.4622 33.4953 23.6368 33.5174C23.825 33.5413 24.0555 33.6192 24.4023 33.7926L24.4141 33.7985C25.8935 34.5382 30.9368 37.06 36.5058 35.0349C39.0734 34.1013 40.7989 34.2746 42.653 34.716C43.0582 34.8125 43.4739 34.9235 43.9082 35.0394C45.4789 35.4587 47.2923 35.9428 49.7316 36.0404C52.8854 36.1665 55.4654 35.2813 57.5128 34.5479C57.5856 34.5218 57.6576 34.4959 57.7288 34.4704C58.6711 34.1323 59.4708 33.8453 60.1791 33.6976C60.935 33.54 61.5045 33.5604 61.9688 33.7926C63.2976 34.4569 65.1088 34.7038 67.0072 34.4823C68.9128 34.26 70.9461 33.5618 72.7285 32.2886C73.5417 31.7078 74.4053 31.2816 75.2661 30.8928C75.4629 30.8039 75.6613 30.7162 75.8596 30.6286C76.5128 30.3401 77.1637 30.0525 77.7448 29.7256C78.513 29.2935 79.2127 28.7656 79.7154 28.0072C80.2219 27.2432 80.5 26.2886 80.5 25.0514C80.5 22.6009 79.3501 19.7 77.8267 17.3683C77.0609 16.1961 76.1866 15.1457 75.2886 14.3514C74.3997 13.5652 73.4436 12.9912 72.5139 12.8482C71.4795 12.689 70.4598 12.6293 69.5412 12.5754C69.0453 12.5464 68.5788 12.519 68.1554 12.4787C66.8956 12.3587 65.9316 12.1252 65.2012 11.4991C64.2748 10.7051 62.9201 10.0676 61.5312 9.68876C60.1444 9.31054 58.654 9.17136 57.4491 9.43911C55.2465 9.9286 52.5446 10.3505 50.3079 8.56108C48.981 7.4996 46.8588 6.87382 44.811 6.6256C42.7633 6.3774 40.6533 6.49051 39.3204 7.02364C38.649 7.2922 38.0118 7.72083 37.4069 8.15726C37.2495 8.2708 37.0947 8.38457 36.9412 8.4974C36.4886 8.82998 36.047 9.15443 35.5839 9.44115C34.3701 10.1926 33.1472 10.5959 31.6531 9.95557C28.1192 8.44104 23.3087 8.42442 19.9729 10.4772C19.5813 10.7182 19.2213 10.9427 18.8871 11.1512C16.4665 12.661 15.3935 13.3302 13.4047 13.3302C12.6035 13.3302 12.1474 13.2885 11.8006 13.2568C11.736 13.2509 11.6752 13.2454 11.6166 13.2405C11.2051 13.2062 10.9053 13.2079 10.3561 13.3452Z" fill="#6B4A39" stroke="#6B4A39"/>
<g id="Mask group">
<mask id="mask0_424_2110" style="mask-type:alpha" maskUnits="userSpaceOnUse" x="0" y="6" width="81" height="31">
<path id="Vector 71" d="M5.11048 18.2211C5.50079 15.8793 8.85088 14.3181 10.4771 13.8302C11.4529 13.5864 11.4529 13.8302 13.4044 13.8302C15.8438 13.8302 17.0635 12.8545 20.2347 10.903C23.4059 8.95151 28.0408 8.95151 31.4559 10.4151C34.8711 11.8788 37.0665 8.46363 39.5059 7.48788C41.9453 6.51212 47.5559 7 49.9953 8.95151C52.4347 10.903 55.3619 10.4151 57.5574 9.92721C59.7528 9.43933 63.168 10.4151 64.8755 11.8787C66.5831 13.3424 69.2664 12.8545 72.4377 13.3424C75.6089 13.8302 79.9998 20.4166 79.9998 25.0514C79.9998 29.6863 75.8528 29.4423 72.4377 31.8817C69.0225 34.3211 64.6316 34.565 62.1922 33.3453C59.7528 32.1256 55.8498 35.7847 49.7513 35.5408C43.6529 35.2969 41.7014 32.6135 36.3347 34.565C30.968 36.5166 26.0893 34.0772 24.6256 33.3453C23.162 32.6135 22.9181 33.1014 20.2347 34.565C17.5514 36.0287 12.6726 35.2969 11.4529 34.0772C10.2332 32.8575 7.54987 32.1256 4.62261 31.8817C1.69534 31.6378 0.475644 27.9787 1.20746 24.0757C1.93928 20.1726 4.62261 21.1484 5.11048 18.2211Z" fill="#6B4A39" stroke="#6B4A39"/>
</mask>
<g mask="url(#mask0_424_2110)">
<g id="Group 1027">
<path id="Vector 71_2" d="M15.8437 16.7576C14.4777 14.6109 10.721 13.0985 9.25738 12.6106C5.74466 13.5864 4.70386 16.4323 4.62254 17.7333C8.03769 21.8803 16.0877 22.856 16.8195 21.6363C17.5513 20.4166 17.5513 19.4409 15.8437 16.7576Z" fill="#A38877"/>
<path id="Vector 72" d="M3.89074 22.3683C0.963475 22.9537 1.37004 28.9546 1.93923 31.8819L7.30589 34.3212C9.01346 32.6136 12.1847 28.4667 11.2089 25.5395C9.98921 21.8804 7.54983 21.6364 3.89074 22.3683Z" fill="#A38877"/>
<path id="Vector 73" d="M14.1362 25.0516C11.7944 27.1982 11.5342 33.2642 11.6968 36.0288H22.918C21.9422 35.2971 21.6983 32.3696 21.6983 30.1742C21.6983 27.9787 22.4301 25.0516 21.6983 24.0758C20.9665 23.1001 17.0634 22.3682 14.1362 25.0516Z" fill="#A38877"/>
<path id="Vector 74" d="M19.2588 19.6847C17.5024 15.9768 18.0391 11.3095 18.527 9.43928C22.4299 7.68292 28.7724 8.21958 31.4558 8.70746C35.6028 14.3181 32.6755 17.4893 31.4558 17.9771C30.2361 18.465 30.4801 20.6605 28.5286 22.612C26.5771 24.5635 21.4542 24.3196 19.2588 19.6847Z" fill="#A38877"/>
<path id="Vector 75" d="M24.1377 28.9546C24.1377 32.2721 26.4144 35.053 27.5528 36.0288C28.6912 36.354 31.5046 36.8581 33.6513 36.2727C36.3346 35.5409 41.4573 31.8818 41.2134 28.7106C40.9695 25.5394 35.6028 24.3197 33.1634 24.0758C30.724 23.8319 24.1377 24.8076 24.1377 28.9546Z" fill="#A38877"/>
<path id="Vector 76" d="M35.1149 13.3423C34.9197 12.5617 35.1962 9.27668 35.3588 7.73174C39.8472 4.99962 47.7997 6.10548 51.2149 6.99992C51.6215 9.11406 52.1419 13.9766 50.971 16.5135C49.5073 19.6847 46.0922 19.4408 44.1407 18.2211C42.1892 17.0014 40.2376 16.2696 37.7983 16.0257C35.3589 15.7817 35.3588 14.3181 35.1149 13.3423Z" fill="#A38877"/>
<path id="Vector 77" d="M53.1662 15.7818C54.1419 12.0739 56.0121 9.68332 56.8253 8.9515C60.5332 8.5612 63.8995 10.0899 65.1192 10.903C65.6071 18.953 60.4844 21.1484 57.801 20.9045C55.1177 20.6606 51.9465 20.4166 53.1662 15.7818Z" fill="#A38877"/>
<g id="Vector 78">
<path d="M38.2861 17.4893C35.554 17.099 33.4073 18.6277 32.6755 19.4409C32.4316 19.6848 31.9437 20.4654 31.9437 21.6363C31.9437 23.0999 35.6028 23.3439 39.5058 23.3439C43.4088 23.3439 42.921 21.3924 42.677 20.6606C42.4331 19.9287 41.7013 17.9772 38.2861 17.4893Z" fill="#A38877"/>
<path d="M42.921 27.7348C42.3355 32.2233 45.9295 36.2726 47.7997 37.7363L57.8012 36.5166C60.4846 32.6136 58.777 27.7348 57.8012 24.8075C56.8255 21.8802 50.727 20.1727 48.5316 20.4166C46.3361 20.6606 43.6528 22.1242 42.921 27.7348Z" fill="#A38877"/>
</g>
<g id="Vector 79">
<path d="M66.3393 16.7576C67.5102 15.5867 68.2908 12.8545 68.5348 11.6349L74.3893 11.147C74.6333 12.3667 74.1454 18.7091 72.9257 20.4167C71.706 22.1242 69.7545 22.856 69.0227 22.3682C68.2909 21.8803 67.0712 21.6363 64.8757 21.1485C62.6803 20.6606 64.8757 18.2212 66.3393 16.7576Z" fill="#A38877"/>
<path d="M75.3651 21.1485C77.5118 19.9776 80.1626 21.6363 81.2196 22.6121C81.6099 25.9297 79.4307 29.5237 78.2924 30.906C76.5848 30.906 73.4136 28.2227 72.9257 26.0272C72.4378 23.8318 72.6818 22.6121 75.3651 21.1485Z" fill="#A38877"/>
</g>
<path id="Vector 80" d="M59.9964 22.856C60.5818 21.4899 62.5171 21.7989 63.4115 22.1241C70.4369 23.8805 73.657 29.5236 74.3889 32.1257C73.8197 32.9388 72.1446 34.7114 69.998 35.2969C67.8513 35.8823 63.4116 35.5408 61.4601 35.2969C62.1919 33.8332 62.1918 28.7105 61.216 27.7348C60.2403 26.759 59.2645 24.5635 59.9964 22.856Z" fill="#A38877"/>
</g>
</g>
</g>
</g>
</g>
</svg>
