<svg width="228" height="216" viewBox="0 0 228 216" fill="none" xmlns="http://www.w3.org/2000/svg">
<g clip-path="url(#clip0_2242_9290)">
<mask id="mask0_2242_9290" style="mask-type:alpha" maskUnits="userSpaceOnUse" x="0" y="0" width="228" height="216">
<path d="M0 0H228V216H0V0Z" fill="#F8EFE9"/>
</mask>
<g mask="url(#mask0_2242_9290)">
<circle cx="158.5" cy="141.5" r="141.5" fill="#C1E1CE"/>
<path d="M150.024 62.3062C145.879 65.7801 135.589 69.9531 127.589 58.8534" stroke="#1A342B" stroke-width="3" stroke-linecap="round" stroke-linejoin="round"/>
<path d="M100.306 56.1793C96.8897 60.3721 87.5704 66.4095 77.6222 57.0163" stroke="#1A342B" stroke-width="3" stroke-linecap="round" stroke-linejoin="round"/>
<path d="M52 99C53.5 110 66.499 135.874 105 131C144.5 126 168.833 90.6667 176.5 71" stroke="#1A342B" stroke-width="3" stroke-linecap="round" stroke-linejoin="round"/>
<path d="M173 61C173.833 64.8333 176.9 73.8 182.5 79" stroke="#1A342B" stroke-width="3" stroke-linecap="round" stroke-linejoin="round"/>
<path d="M112.5 61L102.52 81.9917C100.062 87.162 102.438 93.3365 107.728 95.5254L112.5 97.5" stroke="#1A342B" stroke-width="3" stroke-linecap="round" stroke-linejoin="round"/>
</g>
</g>
<defs>
<clipPath id="clip0_2242_9290">
<rect width="228" height="216" fill="white"/>
</clipPath>
</defs>
</svg>
