<svg width="168" height="88" viewBox="0 0 168 88" fill="none" xmlns="http://www.w3.org/2000/svg">
<g id="img_mild_diarrhoea_sel">
<g id="Group 1043">
<path id="Vector 135" d="M4.68296 40.3257C7.79522 38.7696 10.5185 34.8144 11.491 33.0313C14.8952 28.4031 18.299 30.1138 23.1619 30.6001C28.0248 31.0864 31.4288 26.2235 36.2917 23.7921C41.1546 21.3606 40.1821 25.2507 47.9627 25.7372C55.7434 26.2238 58.6611 19.9017 63.0378 18.4428C67.4144 16.9839 70.8184 21.8466 74.7087 21.3606C78.5991 20.8746 82.9757 14.5525 87.8386 17.4703C92.7015 20.388 106.804 21.8466 110.694 18.4428C114.585 15.039 118.961 15.0388 123.338 19.4154C127.715 23.792 133.55 22.3329 137.44 21.8466C141.331 21.3604 142.79 25.2507 149.598 25.2507C156.406 25.2507 165.159 32.0588 166.618 36.4354C168.077 40.812 165.159 41.2983 161.269 42.2709C157.378 43.2435 162.727 49.079 165.159 52.9693C167.59 56.8596 158.351 57.8322 149.598 59.2911C140.844 60.75 130.632 53.9419 126.256 53.4556C121.879 52.9693 120.42 54.9145 121.393 58.8048C122.365 62.6951 132.577 62.6951 128.201 66.0992C123.824 69.5032 99.5096 70.9621 94.1604 69.0169C88.8112 67.0717 92.7015 59.2911 98.537 58.8048C104.373 58.3185 106.318 57.8322 108.263 54.9145C110.208 51.9967 105.831 46.1612 102.427 50.0515C99.0233 53.9419 82.9757 63.6677 73.7362 65.6129C64.4966 67.558 61.5789 62.6951 58.6611 60.2637C55.7434 57.8322 55.7434 59.7774 49.4216 65.6129C43.0998 71.4484 38.7232 69.9895 36.2917 68.0443C33.8603 66.0992 31.9151 69.0169 25.5933 70.9621C19.2715 72.9072 17.3264 66.0992 16.8401 62.6951C16.3538 59.2911 10.5185 54.4282 4.68296 51.0241C-1.15254 47.6201 0.792628 42.2709 4.68296 40.3257Z" fill="#A38877" stroke="#6B4A39" stroke-width="2" stroke-linecap="round"/>
<g id="Group 1042">
<path id="Vector 135_2" d="M22.6765 30.5999C23.3249 32.2209 23.5519 35.6573 19.2725 36.4354C13.9233 37.408 10.033 40.3257 10.033 45.1887C10.033 50.0516 11.4918 51.9967 14.4096 52.483C17.3273 52.9693 20.7314 51.9967 21.7039 53.9419C22.6765 55.8871 24.6217 59.7774 17.8136 63.1814" stroke="#6B4A39" stroke-width="2" stroke-linecap="round"/>
<path id="Vector 136" d="M46.5049 25.737C43.1008 27.358 36.0982 31.4752 35.3202 34.9765C34.3476 39.3532 29.971 41.2983 26.0806 40.3257C22.1903 39.3532 13.9234 42.2709 10.5193 45.1887" stroke="#6B4A39" stroke-width="2" stroke-linecap="round"/>
<path id="Vector 137" d="M46.0186 26.2232C48.1258 26.7095 52.1459 28.5574 51.3678 32.0587C50.3952 36.4353 47.9637 39.353 44.5597 39.353C41.1557 39.353 44.5597 47.1337 50.3952 47.62C56.2307 48.1063 57.2034 42.7571 59.6348 41.7845C62.0663 40.8119 64.4977 39.8393 63.0389 36.4353C61.58 33.0313 62.5526 30.5998 66.9292 27.6821C71.3058 24.7643 73.251 24.278 73.7373 21.8466" stroke="#6B4A39" stroke-width="2" stroke-linecap="round"/>
<path id="Vector 138" d="M55.7445 23.7918C56.7171 25.8991 59.6349 29.7246 63.5252 30.1136" stroke="#6B4A39" stroke-width="2" stroke-linecap="round"/>
<path id="Vector 139" d="M45.0463 45.1887C43.1011 44.7024 39.1135 44.3133 38.7245 46.6475C38.2382 49.5653 39.6971 53.942 37.7519 55.8872C35.8068 57.8323 31.4301 59.2912 31.4301 68.0444" stroke="#6B4A39" stroke-width="2" stroke-linecap="round"/>
<path id="Vector 140" d="M25.1084 46.6476C26.7293 47.1339 30.0685 48.7873 30.4576 51.5105C30.9439 54.9145 30.4576 57.8323 33.3753 58.8049" stroke="#6B4A39" stroke-width="2" stroke-linecap="round"/>
<path id="Vector 141" d="M75.6826 21.3603C77.3036 22.495 80.74 25.2506 81.5181 27.1958C82.4907 29.6272 83.4633 30.5998 87.3536 28.6546C91.2439 26.7095 92.7028 26.7095 95.6206 20.3877" stroke="#6B4A39" stroke-width="2" stroke-linecap="round"/>
<path id="Vector 142" d="M63.0391 36.4353C64.0116 36.4353 68.8746 34.0039 70.3334 36.4353C71.7923 38.8668 72.2786 41.7847 77.6278 39.8396C82.977 37.8944 89.2988 31.5726 94.1617 34.9767C99.0246 38.3807 98.5383 39.8396 102.915 39.8396C107.292 39.8396 106.319 45.1887 104.374 48.1064" stroke="#6B4A39" stroke-width="2" stroke-linecap="round"/>
<path id="Vector 143" d="M73.7378 40.3258C71.9547 41.9468 68.8749 45.8695 70.8201 48.5928C73.2515 51.9968 72.765 52.4831 72.765 56.3734C72.765 60.2637 76.1691 63.6678 79.5731 63.6678" stroke="#6B4A39" stroke-width="2" stroke-linecap="round"/>
<path id="Vector 144" d="M79.0862 39.3531C81.0314 40.812 85.019 44.3133 85.408 46.6475C85.8943 49.5652 94.1612 51.0241 94.6475 47.1338C95.1338 43.2434 92.7024 39.8394 97.5653 37.8942" stroke="#6B4A39" stroke-width="2" stroke-linecap="round"/>
<path id="Vector 145" d="M70.3334 47.6201C69.3609 48.5926 66.8321 50.5378 64.4979 50.5378C61.5802 50.5378 57.2036 51.0241 56.7173 59.291" stroke="#6B4A39" stroke-width="2" stroke-linecap="round"/>
<path id="Vector 146" d="M39.6964 51.9966C41.4795 51.5103 45.5319 51.1213 47.4771 53.4555C49.4222 55.7897 52.1779 59.6152 53.3126 61.2362" stroke="#6B4A39" stroke-width="2" stroke-linecap="round"/>
<path id="Vector 147" d="M99.5102 38.8669C98.6998 35.9491 98.3431 29.8219 103.401 28.6548C109.722 27.1959 108.264 31.0862 114.585 27.6822C120.907 24.2781 122.852 22.8193 122.852 19.4152" stroke="#6B4A39" stroke-width="2" stroke-linecap="round"/>
<path id="Vector 148" d="M130.633 22.3329C129.012 25.2507 124.798 31.2807 120.908 32.0588C116.045 33.0314 109.723 38.3806 111.668 41.7846C113.613 45.1886 117.504 47.1338 120.908 44.7023C124.311 42.2709 125.77 38.8669 130.147 34.9765C134.524 31.0862 140.845 30.5999 144.736 24.7644" stroke="#6B4A39" stroke-width="2" stroke-linecap="round"/>
<path id="Vector 149" d="M108.264 56.3734C109.075 57.6702 111.279 60.2637 113.613 60.2637C116.531 60.2637 118.476 59.2912 120.908 56.8597" stroke="#6B4A39" stroke-width="2" stroke-linecap="round"/>
<path id="Vector 150" d="M99.997 59.2911C101.618 59.4532 105.054 60.8473 105.833 65.1266" stroke="#6B4A39" stroke-width="2" stroke-linecap="round"/>
<path id="Vector 151" d="M147.654 32.0588C144.736 32.5451 139.289 34.1985 140.846 36.9217C142.791 40.3257 144.249 41.7846 144.249 45.1886C144.249 48.5927 152.03 48.1064 159.811 44.2161" stroke="#6B4A39" stroke-width="2" stroke-linecap="round"/>
<path id="Vector 152" d="M159.324 29.1411C157.865 31.7347 154.072 37.019 150.571 37.4081C147.07 37.7971 143.601 38.5427 142.304 38.8669" stroke="#6B4A39" stroke-width="2" stroke-linecap="round"/>
<path id="Vector 153" d="M131.606 42.271C130.472 43.7299 128.883 46.7449 131.606 47.1339C135.01 47.6202 140.359 47.1339 144.25 46.1613" stroke="#6B4A39" stroke-width="2" stroke-linecap="round"/>
<path id="Vector 154" d="M148.139 48.1064C149.598 51.0242 155.142 57.346 159.81 57.346" stroke="#6B4A39" stroke-width="2" stroke-linecap="round"/>
</g>
</g>
</g>
</svg>
