<svg width="168" height="88" viewBox="0 0 168 88" fill="none" xmlns="http://www.w3.org/2000/svg">
<g id="img_severe_constipation_sel">
<g id="Group 1029">
<path id="Vector 55" d="M80.131 42.8528C83.991 38.2207 91.7111 36.741 95.0887 36.5802C102.326 36.5802 109.564 39.4752 111.011 48.6429C112.459 57.8105 105.221 61.188 101.844 61.188H83.991C77.7184 61.188 75.3059 48.6429 80.131 42.8528Z" fill="#A38877" stroke="#6B4A39" stroke-width="2"/>
<g id="Union">
<path fill-rule="evenodd" clip-rule="evenodd" d="M127.899 25C123.074 25.1608 113.231 27.4125 112.459 35.1326C111.494 44.7828 118.249 46.2303 121.626 46.2303H131.759C132.027 46.2389 132.299 46.2437 132.575 46.2435C132.904 51.8576 135.915 56.8455 140.444 56.8455H156.849C159.262 56.8455 166.499 54.9155 166.499 47.6779C166.499 40.4403 160.709 35.1325 150.576 33.2026C148.137 32.6397 144.013 32.2739 140.387 33.292C139.023 29.765 135.355 25 127.899 25Z" fill="#A38877"/>
<path d="M112.459 35.1326L111.464 35.0331L112.459 35.1326ZM127.899 25V24H127.882L127.866 24.0006L127.899 25ZM131.759 46.2303L131.791 45.2308L131.775 45.2303H131.759V46.2303ZM132.575 46.2435L133.573 46.1849L133.518 45.2426L132.574 45.2435L132.575 46.2435ZM150.576 33.2026L150.352 34.177L150.37 34.1813L150.389 34.1849L150.576 33.2026ZM140.387 33.292L139.454 33.6528L139.782 34.5004L140.657 34.2548L140.387 33.292ZM113.454 35.2321C113.792 31.8519 116.103 29.597 119.099 28.1296C122.1 26.6595 125.62 26.0765 127.932 25.9994L127.866 24.0006C125.353 24.0843 121.539 24.7076 118.219 26.3335C114.894 27.9623 111.898 30.6932 111.464 35.0331L113.454 35.2321ZM121.626 45.2303C120.041 45.2303 117.771 44.884 116.033 43.5148C114.366 42.2018 112.997 39.7942 113.454 35.2321L111.464 35.0331C110.955 40.1212 112.481 43.2625 114.795 45.0858C117.038 46.8528 119.834 47.2303 121.626 47.2303V45.2303ZM131.759 45.2303H121.626V47.2303H131.759V45.2303ZM132.574 45.2435C132.311 45.2437 132.049 45.2391 131.791 45.2308L131.727 47.2298C132.005 47.2387 132.288 47.2437 132.576 47.2435L132.574 45.2435ZM140.444 55.8455C138.592 55.8455 136.982 54.8369 135.755 53.0775C134.52 51.3088 133.729 48.8457 133.573 46.1849L131.577 46.3021C131.75 49.2554 132.629 52.0933 134.115 54.2221C135.607 56.3602 137.767 57.8455 140.444 57.8455V55.8455ZM156.849 55.8455H140.444V57.8455H156.849V55.8455ZM165.499 47.6779C165.499 50.8963 163.917 52.8999 162.03 54.1401C160.093 55.413 157.874 55.8455 156.849 55.8455V57.8455C158.237 57.8455 160.843 57.313 163.128 55.8115C165.463 54.2774 167.499 51.6971 167.499 47.6779H165.499ZM150.389 34.1849C155.336 35.127 159.126 36.877 161.664 39.189C164.181 41.4823 165.499 44.3548 165.499 47.6779H167.499C167.499 43.7634 165.922 40.3632 163.011 37.7107C160.12 35.077 155.95 33.208 150.764 32.2202L150.389 34.1849ZM140.657 34.2548C144.07 33.2965 148.014 33.6375 150.352 34.177L150.801 32.2282C148.261 31.642 143.957 31.2512 140.117 32.3292L140.657 34.2548ZM127.899 26C134.822 26 138.19 30.3854 139.454 33.6528L141.32 32.9312C139.855 29.1446 135.889 24 127.899 24V26Z" fill="#6B4A39"/>
</g>
<path id="Vector 53" d="M11.6286 39.6234C20.712 36.664 25.4618 38.5218 27.7142 39.6237C33.3914 42.3999 35.8515 46.2818 34.3376 54.42C32.4452 64.5927 14.4671 62.7431 5.95142 59.9687C-2.56431 57.1943 0.274271 43.3226 11.6286 39.6234Z" fill="#A38877" stroke="#6B4A39" stroke-width="2"/>
<path id="Vector 54" d="M59.8662 31.2725C54.4621 31.2725 49.7335 32.2375 45.391 37.5451C37.6709 49.1253 47.321 56.3629 59.8662 55.8804C72.4113 55.3979 75.6111 46.0602 74.3414 41.4052C72.8937 36.0976 66.6213 31.2725 59.8662 31.2725Z" fill="#A38877" stroke="#6B4A39" stroke-width="2"/>
<path id="Vector 58" d="M140.928 33.2026C137.872 34.6502 132.339 39.3787 132.725 46.7128" stroke="#6B4A39" stroke-width="2"/>
</g>
</g>
</svg>
