<svg width="343" height="306" viewBox="0 0 343 306" fill="none" xmlns="http://www.w3.org/2000/svg">
<g clip-path="url(#clip0_4623_207)">
<path d="M133.17 278.861C134.092 278.861 134.764 279.042 135.187 279.403C135.613 279.761 135.827 280.276 135.827 280.946C135.827 281.249 135.776 281.537 135.675 281.811C135.578 282.081 135.418 282.32 135.197 282.528C134.975 282.733 134.684 282.896 134.323 283.017C133.965 283.134 133.525 283.192 133.004 283.192H132.135V286H131.305V278.861H133.17ZM133.092 279.569H132.135V282.479H132.912C133.367 282.479 133.746 282.431 134.049 282.333C134.355 282.235 134.585 282.077 134.738 281.859C134.891 281.638 134.967 281.345 134.967 280.98C134.967 280.505 134.816 280.152 134.513 279.921C134.21 279.687 133.737 279.569 133.092 279.569ZM137.709 278.402V280.673C137.709 280.803 137.706 280.935 137.699 281.068C137.693 281.199 137.682 281.319 137.665 281.43H137.719C137.83 281.241 137.97 281.083 138.139 280.956C138.311 280.826 138.507 280.728 138.725 280.663C138.943 280.595 139.174 280.561 139.418 280.561C139.848 280.561 140.206 280.629 140.492 280.766C140.782 280.902 140.999 281.114 141.142 281.4C141.288 281.687 141.362 282.058 141.362 282.514V286H140.561V282.567C140.561 282.121 140.458 281.788 140.253 281.566C140.051 281.345 139.74 281.234 139.321 281.234C138.923 281.234 138.606 281.311 138.368 281.464C138.134 281.614 137.965 281.835 137.861 282.128C137.76 282.421 137.709 282.779 137.709 283.202V286H136.899V278.402H137.709ZM143.547 286H142.731V278.402H143.547V286ZM147.021 280.551C147.477 280.551 147.868 280.652 148.193 280.854C148.519 281.055 148.768 281.339 148.94 281.703C149.113 282.064 149.199 282.488 149.199 282.973V283.476H145.503C145.512 284.104 145.669 284.582 145.971 284.911C146.274 285.24 146.701 285.404 147.251 285.404C147.589 285.404 147.889 285.373 148.149 285.312C148.41 285.25 148.68 285.159 148.96 285.038V285.751C148.69 285.871 148.421 285.959 148.154 286.015C147.89 286.07 147.578 286.098 147.217 286.098C146.702 286.098 146.253 285.993 145.869 285.785C145.488 285.574 145.192 285.264 144.98 284.857C144.769 284.451 144.663 283.952 144.663 283.363C144.663 282.787 144.759 282.289 144.951 281.869C145.146 281.446 145.42 281.12 145.771 280.893C146.126 280.665 146.543 280.551 147.021 280.551ZM147.012 281.215C146.579 281.215 146.234 281.356 145.976 281.64C145.719 281.923 145.566 282.318 145.517 282.826H148.349C148.346 282.507 148.296 282.227 148.198 281.986C148.104 281.742 147.959 281.553 147.763 281.42C147.568 281.283 147.318 281.215 147.012 281.215ZM151.77 288.402C151.067 288.402 150.525 288.271 150.144 288.007C149.763 287.746 149.573 287.38 149.573 286.908C149.573 286.573 149.679 286.286 149.89 286.049C150.105 285.811 150.401 285.653 150.779 285.575C150.639 285.51 150.518 285.412 150.418 285.282C150.32 285.152 150.271 285.002 150.271 284.833C150.271 284.638 150.325 284.467 150.432 284.32C150.543 284.171 150.711 284.027 150.935 283.891C150.655 283.777 150.427 283.585 150.252 283.314C150.079 283.041 149.993 282.724 149.993 282.362C149.993 281.978 150.073 281.651 150.232 281.381C150.392 281.107 150.623 280.899 150.925 280.756C151.228 280.613 151.594 280.541 152.024 280.541C152.118 280.541 152.213 280.546 152.307 280.556C152.405 280.562 152.498 280.574 152.586 280.59C152.673 280.603 152.75 280.619 152.815 280.639H154.651V281.161L153.665 281.283C153.762 281.41 153.844 281.563 153.909 281.742C153.974 281.921 154.006 282.12 154.006 282.338C154.006 282.872 153.826 283.297 153.464 283.612C153.103 283.925 152.607 284.081 151.975 284.081C151.825 284.081 151.672 284.068 151.516 284.042C151.357 284.13 151.235 284.228 151.15 284.335C151.069 284.442 151.028 284.566 151.028 284.706C151.028 284.81 151.059 284.893 151.121 284.955C151.186 285.017 151.279 285.062 151.399 285.092C151.519 285.118 151.664 285.131 151.834 285.131H152.776C153.359 285.131 153.805 285.253 154.114 285.497C154.426 285.741 154.583 286.098 154.583 286.566C154.583 287.159 154.342 287.613 153.86 287.929C153.378 288.244 152.682 288.402 151.77 288.402ZM151.795 287.768C152.237 287.768 152.603 287.722 152.893 287.631C153.186 287.543 153.404 287.414 153.547 287.245C153.694 287.079 153.767 286.881 153.767 286.649C153.767 286.435 153.718 286.272 153.621 286.161C153.523 286.054 153.38 285.982 153.191 285.946C153.002 285.907 152.771 285.888 152.498 285.888H151.57C151.329 285.888 151.119 285.925 150.94 286C150.761 286.075 150.623 286.186 150.525 286.332C150.431 286.479 150.383 286.661 150.383 286.879C150.383 287.169 150.505 287.388 150.75 287.538C150.994 287.691 151.342 287.768 151.795 287.768ZM152.004 283.49C152.392 283.49 152.683 283.393 152.879 283.197C153.074 283.002 153.171 282.717 153.171 282.343C153.171 281.942 153.072 281.643 152.874 281.444C152.675 281.243 152.382 281.142 151.995 281.142C151.624 281.142 151.337 281.246 151.135 281.454C150.937 281.659 150.837 281.96 150.837 282.357C150.837 282.722 150.938 283.002 151.14 283.197C151.342 283.393 151.63 283.49 152.004 283.49ZM161.216 280.551C161.805 280.551 162.25 280.705 162.549 281.015C162.849 281.321 162.998 281.814 162.998 282.494V286H162.198V282.533C162.198 282.1 162.103 281.776 161.914 281.562C161.729 281.343 161.452 281.234 161.084 281.234C160.567 281.234 160.191 281.384 159.956 281.684C159.722 281.983 159.605 282.424 159.605 283.007V286H158.799V282.533C158.799 282.243 158.757 282.003 158.672 281.811C158.591 281.618 158.467 281.475 158.301 281.381C158.138 281.283 157.932 281.234 157.681 281.234C157.326 281.234 157.041 281.308 156.827 281.454C156.612 281.601 156.455 281.819 156.358 282.108C156.263 282.395 156.216 282.748 156.216 283.168V286H155.406V280.648H156.06L156.182 281.405H156.226C156.333 281.22 156.468 281.063 156.631 280.937C156.794 280.81 156.976 280.714 157.178 280.648C157.38 280.583 157.595 280.551 157.823 280.551C158.23 280.551 158.57 280.627 158.843 280.78C159.12 280.93 159.32 281.16 159.444 281.469H159.488C159.663 281.16 159.904 280.93 160.21 280.78C160.516 280.627 160.852 280.551 161.216 280.551ZM163.909 283.676V282.953H166.331V283.676H163.909ZM169.19 286.098C168.513 286.098 167.976 285.867 167.579 285.404C167.185 284.942 166.988 284.255 166.988 283.344C166.988 282.423 167.19 281.728 167.594 281.259C167.997 280.787 168.535 280.551 169.205 280.551C169.488 280.551 169.736 280.588 169.947 280.663C170.159 280.738 170.341 280.839 170.494 280.966C170.647 281.09 170.776 281.231 170.88 281.391H170.938C170.925 281.29 170.912 281.151 170.899 280.976C170.886 280.8 170.88 280.657 170.88 280.546V278.402H171.69V286H171.036L170.914 285.238H170.88C170.779 285.398 170.65 285.543 170.494 285.673C170.341 285.803 170.157 285.907 169.942 285.985C169.731 286.06 169.48 286.098 169.19 286.098ZM169.317 285.424C169.89 285.424 170.296 285.261 170.533 284.936C170.771 284.61 170.89 284.127 170.89 283.485V283.339C170.89 282.659 170.776 282.136 170.548 281.771C170.323 281.407 169.913 281.225 169.317 281.225C168.819 281.225 168.447 281.417 168.199 281.801C167.952 282.182 167.828 282.702 167.828 283.363C167.828 284.021 167.95 284.529 168.194 284.887C168.442 285.245 168.816 285.424 169.317 285.424ZM175.111 280.561C175.749 280.561 176.223 280.704 176.532 280.99C176.841 281.277 176.996 281.734 176.996 282.362V286H176.405L176.249 285.209H176.21C176.06 285.404 175.904 285.569 175.741 285.702C175.578 285.832 175.389 285.932 175.175 286C174.963 286.065 174.703 286.098 174.393 286.098C174.068 286.098 173.778 286.041 173.524 285.927C173.274 285.813 173.075 285.64 172.929 285.409C172.785 285.178 172.714 284.885 172.714 284.53C172.714 283.996 172.925 283.586 173.348 283.3C173.772 283.013 174.416 282.857 175.282 282.831L176.205 282.792V282.465C176.205 282.003 176.106 281.679 175.907 281.493C175.708 281.308 175.429 281.215 175.067 281.215C174.787 281.215 174.52 281.256 174.266 281.337C174.012 281.418 173.772 281.514 173.544 281.625L173.295 281.01C173.536 280.886 173.812 280.78 174.125 280.692C174.437 280.604 174.766 280.561 175.111 280.561ZM176.195 283.363L175.38 283.397C174.712 283.424 174.242 283.533 173.969 283.725C173.695 283.917 173.558 284.188 173.558 284.54C173.558 284.846 173.651 285.072 173.837 285.219C174.022 285.365 174.268 285.438 174.574 285.438C175.049 285.438 175.438 285.307 175.741 285.043C176.044 284.779 176.195 284.384 176.195 283.856V283.363ZM184.176 280.551C184.766 280.551 185.21 280.705 185.509 281.015C185.809 281.321 185.959 281.814 185.959 282.494V286H185.158V282.533C185.158 282.1 185.063 281.776 184.875 281.562C184.689 281.343 184.412 281.234 184.045 281.234C183.527 281.234 183.151 281.384 182.917 281.684C182.682 281.983 182.565 282.424 182.565 283.007V286H181.759V282.533C181.759 282.243 181.717 282.003 181.632 281.811C181.551 281.618 181.427 281.475 181.261 281.381C181.099 281.283 180.892 281.234 180.641 281.234C180.286 281.234 180.002 281.308 179.787 281.454C179.572 281.601 179.416 281.819 179.318 282.108C179.224 282.395 179.176 282.748 179.176 283.168V286H178.366V280.648H179.02L179.142 281.405H179.186C179.294 281.22 179.429 281.063 179.591 280.937C179.754 280.81 179.936 280.714 180.138 280.648C180.34 280.583 180.555 280.551 180.783 280.551C181.19 280.551 181.53 280.627 181.803 280.78C182.08 280.93 182.28 281.16 182.404 281.469H182.448C182.624 281.16 182.865 280.93 183.171 280.78C183.476 280.627 183.812 280.551 184.176 280.551ZM189.838 280.551C190.506 280.551 191.038 280.78 191.435 281.239C191.832 281.698 192.031 282.388 192.031 283.31C192.031 283.918 191.94 284.429 191.757 284.843C191.575 285.256 191.318 285.569 190.986 285.78C190.657 285.992 190.268 286.098 189.819 286.098C189.536 286.098 189.287 286.06 189.072 285.985C188.857 285.91 188.673 285.81 188.52 285.683C188.367 285.556 188.24 285.417 188.139 285.268H188.08C188.09 285.395 188.102 285.548 188.115 285.727C188.131 285.906 188.139 286.062 188.139 286.195V288.393H187.324V280.648H187.993L188.1 281.439H188.139C188.243 281.277 188.37 281.129 188.52 280.995C188.67 280.858 188.852 280.751 189.067 280.673C189.285 280.591 189.542 280.551 189.838 280.551ZM189.697 281.234C189.326 281.234 189.026 281.306 188.798 281.449C188.574 281.592 188.409 281.807 188.305 282.094C188.201 282.377 188.146 282.733 188.139 283.163V283.319C188.139 283.772 188.188 284.154 188.286 284.467C188.386 284.779 188.551 285.017 188.779 285.18C189.01 285.342 189.319 285.424 189.706 285.424C190.038 285.424 190.315 285.334 190.537 285.155C190.758 284.976 190.922 284.727 191.03 284.408C191.14 284.086 191.196 283.716 191.196 283.3C191.196 282.668 191.072 282.167 190.825 281.796C190.58 281.422 190.204 281.234 189.697 281.234ZM195.681 280.551C196.316 280.551 196.796 280.707 197.121 281.02C197.447 281.329 197.61 281.827 197.61 282.514V286H196.809V282.567C196.809 282.121 196.706 281.788 196.501 281.566C196.299 281.345 195.988 281.234 195.569 281.234C194.976 281.234 194.559 281.402 194.319 281.737C194.078 282.073 193.957 282.559 193.957 283.197V286H193.147V280.648H193.801L193.923 281.42H193.967C194.081 281.231 194.226 281.073 194.402 280.946C194.577 280.816 194.774 280.718 194.992 280.653C195.21 280.585 195.44 280.551 195.681 280.551ZM201.04 280.551C201.496 280.551 201.886 280.652 202.212 280.854C202.537 281.055 202.786 281.339 202.959 281.703C203.132 282.064 203.218 282.488 203.218 282.973V283.476H199.521C199.531 284.104 199.688 284.582 199.99 284.911C200.293 285.24 200.719 285.404 201.27 285.404C201.608 285.404 201.908 285.373 202.168 285.312C202.428 285.25 202.699 285.159 202.979 285.038V285.751C202.708 285.871 202.44 285.959 202.173 286.015C201.909 286.07 201.597 286.098 201.235 286.098C200.721 286.098 200.272 285.993 199.888 285.785C199.507 285.574 199.211 285.264 198.999 284.857C198.787 284.451 198.682 283.952 198.682 283.363C198.682 282.787 198.778 282.289 198.97 281.869C199.165 281.446 199.438 281.12 199.79 280.893C200.145 280.665 200.562 280.551 201.04 280.551ZM201.03 281.215C200.597 281.215 200.252 281.356 199.995 281.64C199.738 281.923 199.585 282.318 199.536 282.826H202.368C202.365 282.507 202.314 282.227 202.217 281.986C202.122 281.742 201.978 281.553 201.782 281.42C201.587 281.283 201.336 281.215 201.03 281.215ZM207.757 284.535C207.757 284.877 207.67 285.165 207.498 285.399C207.329 285.631 207.084 285.805 206.765 285.922C206.45 286.039 206.072 286.098 205.633 286.098C205.258 286.098 204.934 286.068 204.661 286.01C204.387 285.951 204.148 285.868 203.943 285.761V285.014C204.161 285.121 204.422 285.219 204.724 285.307C205.027 285.395 205.336 285.438 205.652 285.438C206.114 285.438 206.45 285.364 206.658 285.214C206.866 285.064 206.971 284.861 206.971 284.604C206.971 284.457 206.928 284.328 206.844 284.218C206.762 284.104 206.624 283.995 206.429 283.891C206.233 283.783 205.963 283.666 205.618 283.539C205.276 283.409 204.98 283.28 204.729 283.153C204.482 283.023 204.29 282.865 204.153 282.68C204.02 282.494 203.953 282.253 203.953 281.957C203.953 281.505 204.135 281.158 204.5 280.917C204.868 280.673 205.349 280.551 205.945 280.551C206.267 280.551 206.568 280.583 206.848 280.648C207.132 280.71 207.395 280.795 207.639 280.902L207.366 281.552C207.145 281.457 206.909 281.378 206.658 281.312C206.407 281.247 206.152 281.215 205.891 281.215C205.517 281.215 205.229 281.277 205.027 281.4C204.829 281.524 204.729 281.693 204.729 281.908C204.729 282.074 204.775 282.211 204.866 282.318C204.96 282.426 205.11 282.527 205.315 282.621C205.52 282.715 205.79 282.826 206.126 282.953C206.461 283.077 206.751 283.205 206.995 283.339C207.239 283.469 207.426 283.629 207.556 283.817C207.69 284.003 207.757 284.242 207.757 284.535ZM212.222 284.535C212.222 284.877 212.136 285.165 211.963 285.399C211.794 285.631 211.55 285.805 211.231 285.922C210.915 286.039 210.538 286.098 210.098 286.098C209.724 286.098 209.4 286.068 209.127 286.01C208.853 285.951 208.614 285.868 208.409 285.761V285.014C208.627 285.121 208.887 285.219 209.19 285.307C209.493 285.395 209.802 285.438 210.118 285.438C210.58 285.438 210.915 285.364 211.124 285.214C211.332 285.064 211.436 284.861 211.436 284.604C211.436 284.457 211.394 284.328 211.309 284.218C211.228 284.104 211.089 283.995 210.894 283.891C210.699 283.783 210.429 283.666 210.084 283.539C209.742 283.409 209.446 283.28 209.195 283.153C208.948 283.023 208.755 282.865 208.619 282.68C208.485 282.494 208.419 282.253 208.419 281.957C208.419 281.505 208.601 281.158 208.965 280.917C209.333 280.673 209.815 280.551 210.411 280.551C210.733 280.551 211.034 280.583 211.314 280.648C211.597 280.71 211.861 280.795 212.105 280.902L211.832 281.552C211.61 281.457 211.374 281.378 211.124 281.312C210.873 281.247 210.617 281.215 210.357 281.215C209.983 281.215 209.695 281.277 209.493 281.4C209.294 281.524 209.195 281.693 209.195 281.908C209.195 282.074 209.24 282.211 209.332 282.318C209.426 282.426 209.576 282.527 209.781 282.621C209.986 282.715 210.256 282.826 210.591 282.953C210.927 283.077 211.216 283.205 211.461 283.339C211.705 283.469 211.892 283.629 212.022 283.817C212.156 284.003 212.222 284.242 212.222 284.535Z" fill="#456C51"/>
<path d="M153.203 24.3623C153.203 25.1663 153.056 25.8385 152.763 26.3789C152.471 26.916 152.046 27.3213 151.489 27.5947C150.936 27.8649 150.263 28 149.472 28H147.534V20.8613H149.687C150.413 20.8613 151.038 20.9948 151.562 21.2617C152.086 21.5254 152.49 21.9176 152.773 22.4385C153.06 22.9561 153.203 23.5973 153.203 24.3623ZM152.329 24.3916C152.329 23.7503 152.221 23.2214 152.007 22.8047C151.795 22.388 151.483 22.0788 151.069 21.877C150.659 21.6719 150.156 21.5693 149.56 21.5693H148.364V27.2871H149.375C150.358 27.2871 151.095 27.0446 151.587 26.5596C152.082 26.0745 152.329 25.3519 152.329 24.3916ZM156.37 22.5605C157.008 22.5605 157.481 22.7038 157.791 22.9902C158.1 23.2767 158.254 23.734 158.254 24.3623V28H157.664L157.507 27.209H157.468C157.319 27.4043 157.162 27.5687 157 27.7021C156.837 27.8324 156.648 27.9316 156.433 28C156.222 28.0651 155.961 28.0977 155.652 28.0977C155.326 28.0977 155.037 28.0407 154.783 27.9268C154.532 27.8128 154.334 27.6403 154.187 27.4092C154.044 27.1781 153.972 26.8851 153.972 26.5303C153.972 25.9964 154.184 25.5863 154.607 25.2998C155.03 25.0133 155.675 24.8571 156.541 24.8311L157.463 24.792V24.4648C157.463 24.0026 157.364 23.6787 157.166 23.4932C156.967 23.3076 156.687 23.2148 156.326 23.2148C156.046 23.2148 155.779 23.2555 155.525 23.3369C155.271 23.4183 155.03 23.5143 154.802 23.625L154.553 23.0098C154.794 22.8861 155.071 22.7803 155.383 22.6924C155.696 22.6045 156.025 22.5605 156.37 22.5605ZM157.454 25.3633L156.638 25.3975C155.971 25.4235 155.501 25.5326 155.227 25.7246C154.954 25.9167 154.817 26.1885 154.817 26.54C154.817 26.846 154.91 27.0723 155.095 27.2188C155.281 27.3652 155.527 27.4385 155.833 27.4385C156.308 27.4385 156.697 27.3066 157 27.043C157.302 26.7793 157.454 26.3838 157.454 25.8564V25.3633ZM165.435 22.5508C166.024 22.5508 166.468 22.7054 166.768 23.0146C167.067 23.3206 167.217 23.8138 167.217 24.4941V28H166.416V24.5332C166.416 24.1003 166.322 23.7764 166.133 23.5615C165.948 23.3434 165.671 23.2344 165.303 23.2344C164.786 23.2344 164.41 23.3841 164.175 23.6836C163.941 23.9831 163.824 24.4242 163.824 25.0068V28H163.018V24.5332C163.018 24.2435 162.976 24.0026 162.891 23.8105C162.81 23.6185 162.686 23.4753 162.52 23.3809C162.357 23.2832 162.15 23.2344 161.9 23.2344C161.545 23.2344 161.26 23.3076 161.045 23.4541C160.83 23.6006 160.674 23.8187 160.577 24.1084C160.482 24.3949 160.435 24.748 160.435 25.168V28H159.624V22.6484H160.279L160.401 23.4053H160.445C160.552 23.2197 160.687 23.0635 160.85 22.9365C161.013 22.8096 161.195 22.7135 161.397 22.6484C161.599 22.5833 161.814 22.5508 162.041 22.5508C162.448 22.5508 162.788 22.6273 163.062 22.7803C163.339 22.93 163.539 23.1595 163.662 23.4688H163.706C163.882 23.1595 164.123 22.93 164.429 22.7803C164.735 22.6273 165.07 22.5508 165.435 22.5508ZM171.097 22.5508C171.764 22.5508 172.296 22.7803 172.694 23.2393C173.091 23.6982 173.289 24.3883 173.289 25.3096C173.289 25.9183 173.198 26.4294 173.016 26.8428C172.834 27.2562 172.576 27.5687 172.244 27.7803C171.916 27.9919 171.527 28.0977 171.077 28.0977C170.794 28.0977 170.545 28.0602 170.33 27.9854C170.115 27.9105 169.932 27.8096 169.779 27.6826C169.626 27.5557 169.499 27.4173 169.398 27.2676H169.339C169.349 27.3945 169.36 27.5475 169.373 27.7266C169.39 27.9056 169.398 28.0618 169.398 28.1953V30.3926H168.582V22.6484H169.251L169.359 23.4395H169.398C169.502 23.2767 169.629 23.1286 169.779 22.9951C169.928 22.8584 170.111 22.751 170.325 22.6729C170.543 22.5915 170.801 22.5508 171.097 22.5508ZM170.955 23.2344C170.584 23.2344 170.285 23.306 170.057 23.4492C169.832 23.5924 169.668 23.8073 169.564 24.0938C169.46 24.377 169.404 24.7334 169.398 25.1631V25.3193C169.398 25.7718 169.446 26.1543 169.544 26.4668C169.645 26.7793 169.809 27.0169 170.037 27.1797C170.268 27.3424 170.578 27.4238 170.965 27.4238C171.297 27.4238 171.574 27.3343 171.795 27.1553C172.016 26.9762 172.181 26.7272 172.288 26.4082C172.399 26.0859 172.454 25.7165 172.454 25.2998C172.454 24.6683 172.331 24.167 172.083 23.7959C171.839 23.4215 171.463 23.2344 170.955 23.2344ZM173.951 25.6758V24.9531H176.373V25.6758H173.951ZM178.138 20.4023V22.6729C178.138 22.8031 178.135 22.9349 178.129 23.0684C178.122 23.1986 178.111 23.319 178.095 23.4297H178.148C178.259 23.2409 178.399 23.083 178.568 22.9561C178.741 22.8258 178.936 22.7282 179.154 22.6631C179.372 22.5947 179.603 22.5605 179.847 22.5605C180.277 22.5605 180.635 22.6289 180.922 22.7656C181.211 22.9023 181.428 23.1139 181.571 23.4004C181.718 23.6868 181.791 24.0579 181.791 24.5137V28H180.99V24.5674C180.99 24.1214 180.888 23.7878 180.682 23.5664C180.481 23.3451 180.17 23.2344 179.75 23.2344C179.353 23.2344 179.035 23.3109 178.798 23.4639C178.563 23.6136 178.394 23.835 178.29 24.1279C178.189 24.4209 178.138 24.779 178.138 25.2021V28H177.328V20.4023H178.138ZM185.221 22.5508C185.677 22.5508 186.068 22.6517 186.393 22.8535C186.719 23.0553 186.968 23.3385 187.14 23.7031C187.313 24.0645 187.399 24.4876 187.399 24.9727V25.4756H183.703C183.713 26.1038 183.869 26.5824 184.171 26.9111C184.474 27.2399 184.901 27.4043 185.451 27.4043C185.789 27.4043 186.089 27.3734 186.349 27.3115C186.61 27.2497 186.88 27.1585 187.16 27.0381V27.751C186.89 27.8714 186.621 27.9593 186.354 28.0146C186.09 28.07 185.778 28.0977 185.417 28.0977C184.902 28.0977 184.453 27.9935 184.069 27.7852C183.688 27.5736 183.392 27.2643 183.18 26.8574C182.969 26.4505 182.863 25.9525 182.863 25.3633C182.863 24.7871 182.959 24.2891 183.151 23.8691C183.346 23.446 183.62 23.1204 183.971 22.8926C184.326 22.6647 184.743 22.5508 185.221 22.5508ZM185.212 23.2148C184.779 23.2148 184.434 23.3564 184.176 23.6396C183.919 23.9229 183.766 24.3184 183.717 24.8262H186.549C186.546 24.5072 186.496 24.2272 186.398 23.9863C186.304 23.7422 186.159 23.5534 185.963 23.4199C185.768 23.2832 185.518 23.2148 185.212 23.2148ZM190.478 22.5605C191.116 22.5605 191.59 22.7038 191.899 22.9902C192.208 23.2767 192.363 23.734 192.363 24.3623V28H191.772L191.616 27.209H191.577C191.427 27.4043 191.271 27.5687 191.108 27.7021C190.945 27.8324 190.756 27.9316 190.541 28C190.33 28.0651 190.069 28.0977 189.76 28.0977C189.435 28.0977 189.145 28.0407 188.891 27.9268C188.64 27.8128 188.442 27.6403 188.295 27.4092C188.152 27.1781 188.08 26.8851 188.08 26.5303C188.08 25.9964 188.292 25.5863 188.715 25.2998C189.138 25.0133 189.783 24.8571 190.649 24.8311L191.572 24.792V24.4648C191.572 24.0026 191.472 23.6787 191.274 23.4932C191.075 23.3076 190.795 23.2148 190.434 23.2148C190.154 23.2148 189.887 23.2555 189.633 23.3369C189.379 23.4183 189.138 23.5143 188.911 23.625L188.662 23.0098C188.902 22.8861 189.179 22.7803 189.492 22.6924C189.804 22.6045 190.133 22.5605 190.478 22.5605ZM191.562 25.3633L190.746 25.3975C190.079 25.4235 189.609 25.5326 189.335 25.7246C189.062 25.9167 188.925 26.1885 188.925 26.54C188.925 26.846 189.018 27.0723 189.204 27.2188C189.389 27.3652 189.635 27.4385 189.941 27.4385C190.416 27.4385 190.805 27.3066 191.108 27.043C191.411 26.7793 191.562 26.3838 191.562 25.8564V25.3633ZM195.461 27.4336C195.595 27.4336 195.731 27.4222 195.871 27.3994C196.011 27.3766 196.125 27.349 196.213 27.3164V27.9463C196.119 27.9886 195.987 28.0244 195.818 28.0537C195.652 28.083 195.489 28.0977 195.329 28.0977C195.046 28.0977 194.789 28.0488 194.558 27.9512C194.327 27.8503 194.141 27.681 194.001 27.4434C193.864 27.2057 193.796 26.877 193.796 26.457V23.2832H193.034V22.8877L193.801 22.5703L194.123 21.4082H194.612V22.6484H196.179V23.2832H194.612V26.4326C194.612 26.7679 194.688 27.0186 194.841 27.1846C194.997 27.3506 195.204 27.4336 195.461 27.4336Z" fill="#456C51"/>
<path d="M269.168 233.421C269.168 234.007 269.088 234.537 268.929 235.013C268.769 235.488 268.532 235.89 268.216 236.219C267.903 236.548 267.513 236.787 267.044 236.937L268.724 238.699H267.537L266.155 237.088C266.113 237.088 266.069 237.09 266.023 237.093C265.981 237.096 265.939 237.098 265.896 237.098C265.343 237.098 264.86 237.01 264.446 236.834C264.036 236.658 263.694 236.408 263.421 236.082C263.151 235.757 262.947 235.368 262.811 234.915C262.677 234.463 262.61 233.961 262.61 233.411C262.61 232.682 262.731 232.042 262.972 231.492C263.213 230.942 263.577 230.514 264.065 230.208C264.557 229.902 265.172 229.749 265.911 229.749C266.618 229.749 267.212 229.9 267.693 230.203C268.178 230.506 268.545 230.932 268.792 231.482C269.043 232.029 269.168 232.675 269.168 233.421ZM263.484 233.421C263.484 234.026 263.571 234.55 263.743 234.993C263.916 235.436 264.179 235.778 264.534 236.019C264.892 236.259 265.346 236.38 265.896 236.38C266.45 236.38 266.902 236.259 267.254 236.019C267.609 235.778 267.871 235.436 268.04 234.993C268.209 234.55 268.294 234.026 268.294 233.421C268.294 232.5 268.1 231.78 267.713 231.263C267.329 230.742 266.728 230.481 265.911 230.481C265.358 230.481 264.902 230.6 264.544 230.838C264.186 231.076 263.919 231.414 263.743 231.854C263.571 232.29 263.484 232.812 263.484 233.421ZM271.148 231.648V237H270.338V231.648H271.148ZM270.753 229.646C270.886 229.646 271 229.69 271.095 229.778C271.192 229.863 271.241 229.996 271.241 230.179C271.241 230.358 271.192 230.491 271.095 230.579C271 230.667 270.886 230.711 270.753 230.711C270.613 230.711 270.496 230.667 270.401 230.579C270.31 230.491 270.264 230.358 270.264 230.179C270.264 229.996 270.31 229.863 270.401 229.778C270.496 229.69 270.613 229.646 270.753 229.646ZM272.113 234.676V233.953H274.535V234.676H272.113ZM277.394 237.098C276.717 237.098 276.18 236.867 275.783 236.404C275.389 235.942 275.192 235.255 275.192 234.344C275.192 233.423 275.394 232.728 275.797 232.259C276.201 231.787 276.738 231.551 277.409 231.551C277.692 231.551 277.939 231.588 278.151 231.663C278.362 231.738 278.545 231.839 278.698 231.966C278.851 232.09 278.979 232.231 279.083 232.391H279.142C279.129 232.29 279.116 232.151 279.103 231.976C279.09 231.8 279.083 231.657 279.083 231.546V229.402H279.894V237H279.24L279.118 236.238H279.083C278.982 236.398 278.854 236.543 278.698 236.673C278.545 236.803 278.361 236.907 278.146 236.985C277.934 237.06 277.684 237.098 277.394 237.098ZM277.521 236.424C278.094 236.424 278.499 236.261 278.737 235.936C278.974 235.61 279.093 235.127 279.093 234.485V234.339C279.093 233.659 278.979 233.136 278.751 232.771C278.527 232.407 278.117 232.225 277.521 232.225C277.023 232.225 276.65 232.417 276.403 232.801C276.155 233.182 276.032 233.702 276.032 234.363C276.032 235.021 276.154 235.529 276.398 235.887C276.645 236.245 277.02 236.424 277.521 236.424ZM283.373 231.551C283.829 231.551 284.22 231.652 284.545 231.854C284.871 232.055 285.12 232.339 285.292 232.703C285.465 233.064 285.551 233.488 285.551 233.973V234.476H281.855C281.864 235.104 282.021 235.582 282.323 235.911C282.626 236.24 283.053 236.404 283.603 236.404C283.941 236.404 284.241 236.373 284.501 236.312C284.762 236.25 285.032 236.159 285.312 236.038V236.751C285.042 236.871 284.773 236.959 284.506 237.015C284.242 237.07 283.93 237.098 283.569 237.098C283.054 237.098 282.605 236.993 282.221 236.785C281.84 236.574 281.544 236.264 281.332 235.857C281.121 235.451 281.015 234.952 281.015 234.363C281.015 233.787 281.111 233.289 281.303 232.869C281.498 232.446 281.772 232.12 282.123 231.893C282.478 231.665 282.895 231.551 283.373 231.551ZM283.363 232.215C282.931 232.215 282.585 232.356 282.328 232.64C282.071 232.923 281.918 233.318 281.869 233.826H284.701C284.698 233.507 284.648 233.227 284.55 232.986C284.456 232.742 284.311 232.553 284.115 232.42C283.92 232.283 283.669 232.215 283.363 232.215ZM289.011 232.283H287.678V237H286.867V232.283H285.92V231.893L286.867 231.624V231.268C286.867 230.818 286.934 230.454 287.067 230.174C287.201 229.891 287.395 229.682 287.648 229.549C287.902 229.415 288.212 229.349 288.576 229.349C288.781 229.349 288.968 229.367 289.138 229.402C289.31 229.438 289.462 229.479 289.592 229.524L289.382 230.164C289.271 230.128 289.146 230.096 289.006 230.066C288.869 230.034 288.729 230.018 288.586 230.018C288.277 230.018 288.047 230.118 287.897 230.32C287.751 230.519 287.678 230.831 287.678 231.258V231.648H289.011V232.283ZM290.803 231.648V237H289.992V231.648H290.803ZM290.407 229.646C290.541 229.646 290.655 229.69 290.749 229.778C290.847 229.863 290.896 229.996 290.896 230.179C290.896 230.358 290.847 230.491 290.749 230.579C290.655 230.667 290.541 230.711 290.407 230.711C290.267 230.711 290.15 230.667 290.056 230.579C289.965 230.491 289.919 230.358 289.919 230.179C289.919 229.996 289.965 229.863 290.056 229.778C290.15 229.69 290.267 229.646 290.407 229.646ZM294.36 237.098C293.878 237.098 293.454 236.998 293.086 236.8C292.718 236.601 292.431 236.299 292.226 235.892C292.021 235.485 291.919 234.972 291.919 234.354C291.919 233.706 292.026 233.177 292.241 232.767C292.459 232.353 292.759 232.047 293.139 231.849C293.52 231.65 293.953 231.551 294.438 231.551C294.705 231.551 294.962 231.578 295.21 231.634C295.46 231.686 295.665 231.753 295.825 231.834L295.581 232.513C295.418 232.448 295.229 232.389 295.014 232.337C294.803 232.285 294.604 232.259 294.419 232.259C294.048 232.259 293.738 232.339 293.491 232.498C293.247 232.658 293.063 232.892 292.939 233.201C292.819 233.51 292.759 233.891 292.759 234.344C292.759 234.777 292.817 235.146 292.934 235.452C293.055 235.758 293.232 235.993 293.467 236.155C293.704 236.315 294 236.395 294.355 236.395C294.638 236.395 294.894 236.365 295.122 236.307C295.35 236.245 295.556 236.173 295.742 236.092V236.814C295.563 236.906 295.363 236.976 295.141 237.024C294.923 237.073 294.663 237.098 294.36 237.098ZM297.522 231.648V237H296.712V231.648H297.522ZM297.127 229.646C297.26 229.646 297.374 229.69 297.468 229.778C297.566 229.863 297.615 229.996 297.615 230.179C297.615 230.358 297.566 230.491 297.468 230.579C297.374 230.667 297.26 230.711 297.127 230.711C296.987 230.711 296.869 230.667 296.775 230.579C296.684 230.491 296.638 230.358 296.638 230.179C296.638 229.996 296.684 229.863 296.775 229.778C296.869 229.69 296.987 229.646 297.127 229.646ZM301.001 231.551C301.457 231.551 301.848 231.652 302.173 231.854C302.499 232.055 302.748 232.339 302.92 232.703C303.093 233.064 303.179 233.488 303.179 233.973V234.476H299.483C299.493 235.104 299.649 235.582 299.952 235.911C300.254 236.24 300.681 236.404 301.231 236.404C301.569 236.404 301.869 236.373 302.129 236.312C302.39 236.25 302.66 236.159 302.94 236.038V236.751C302.67 236.871 302.401 236.959 302.134 237.015C301.871 237.07 301.558 237.098 301.197 237.098C300.682 237.098 300.233 236.993 299.849 236.785C299.468 236.574 299.172 236.264 298.96 235.857C298.749 235.451 298.643 234.952 298.643 234.363C298.643 233.787 298.739 233.289 298.931 232.869C299.126 232.446 299.4 232.12 299.751 231.893C300.106 231.665 300.523 231.551 301.001 231.551ZM300.992 232.215C300.559 232.215 300.214 232.356 299.956 232.64C299.699 232.923 299.546 233.318 299.497 233.826H302.329C302.326 233.507 302.276 233.227 302.178 232.986C302.084 232.742 301.939 232.553 301.744 232.42C301.548 232.283 301.298 232.215 300.992 232.215ZM306.79 231.551C307.425 231.551 307.905 231.707 308.231 232.02C308.556 232.329 308.719 232.827 308.719 233.514V237H307.918V233.567C307.918 233.121 307.816 232.788 307.611 232.566C307.409 232.345 307.098 232.234 306.678 232.234C306.085 232.234 305.669 232.402 305.428 232.737C305.187 233.073 305.067 233.559 305.067 234.197V237H304.256V231.648H304.91L305.032 232.42H305.076C305.19 232.231 305.335 232.073 305.511 231.946C305.687 231.816 305.884 231.718 306.102 231.653C306.32 231.585 306.549 231.551 306.79 231.551ZM311.817 236.434C311.951 236.434 312.088 236.422 312.228 236.399C312.368 236.377 312.481 236.349 312.569 236.316V236.946C312.475 236.989 312.343 237.024 312.174 237.054C312.008 237.083 311.845 237.098 311.686 237.098C311.402 237.098 311.145 237.049 310.914 236.951C310.683 236.85 310.497 236.681 310.357 236.443C310.221 236.206 310.152 235.877 310.152 235.457V232.283H309.391V231.888L310.157 231.57L310.479 230.408H310.968V231.648H312.535V232.283H310.968V235.433C310.968 235.768 311.044 236.019 311.197 236.185C311.354 236.351 311.56 236.434 311.817 236.434Z" fill="#456C51"/>
<path d="M298.798 144.44L300.697 140.861H301.591L299.213 145.231V148H298.383V145.271L296 140.861H296.908L298.798 144.44ZM304.152 142.561C304.79 142.561 305.264 142.704 305.573 142.99C305.882 143.277 306.037 143.734 306.037 144.362V148H305.446L305.29 147.209H305.251C305.101 147.404 304.945 147.569 304.782 147.702C304.619 147.832 304.43 147.932 304.216 148C304.004 148.065 303.744 148.098 303.434 148.098C303.109 148.098 302.819 148.041 302.565 147.927C302.315 147.813 302.116 147.64 301.97 147.409C301.826 147.178 301.755 146.885 301.755 146.53C301.755 145.996 301.966 145.586 302.389 145.3C302.813 145.013 303.457 144.857 304.323 144.831L305.246 144.792V144.465C305.246 144.003 305.147 143.679 304.948 143.493C304.749 143.308 304.47 143.215 304.108 143.215C303.828 143.215 303.561 143.256 303.307 143.337C303.054 143.418 302.813 143.514 302.585 143.625L302.336 143.01C302.577 142.886 302.853 142.78 303.166 142.692C303.478 142.604 303.807 142.561 304.152 142.561ZM305.236 145.363L304.421 145.397C303.753 145.424 303.283 145.533 303.01 145.725C302.736 145.917 302.599 146.188 302.599 146.54C302.599 146.846 302.692 147.072 302.878 147.219C303.063 147.365 303.309 147.438 303.615 147.438C304.09 147.438 304.479 147.307 304.782 147.043C305.085 146.779 305.236 146.384 305.236 145.856V145.363ZM309.941 142.551C310.576 142.551 311.056 142.707 311.381 143.02C311.707 143.329 311.87 143.827 311.87 144.514V148H311.069V144.567C311.069 144.121 310.966 143.788 310.761 143.566C310.56 143.345 310.249 143.234 309.829 143.234C309.236 143.234 308.82 143.402 308.579 143.737C308.338 144.073 308.217 144.559 308.217 145.197V148H307.407V142.648H308.061L308.183 143.42H308.227C308.341 143.231 308.486 143.073 308.662 142.946C308.837 142.816 309.034 142.718 309.253 142.653C309.471 142.585 309.7 142.551 309.941 142.551ZM314.734 150.402C314.031 150.402 313.489 150.271 313.108 150.007C312.727 149.746 312.537 149.38 312.537 148.908C312.537 148.573 312.642 148.286 312.854 148.049C313.069 147.811 313.365 147.653 313.743 147.575C313.603 147.51 313.482 147.412 313.381 147.282C313.284 147.152 313.235 147.002 313.235 146.833C313.235 146.638 313.288 146.467 313.396 146.32C313.507 146.171 313.674 146.027 313.899 145.891C313.619 145.777 313.391 145.585 313.215 145.314C313.043 145.041 312.956 144.724 312.956 144.362C312.956 143.978 313.036 143.651 313.196 143.381C313.355 143.107 313.586 142.899 313.889 142.756C314.192 142.613 314.558 142.541 314.988 142.541C315.082 142.541 315.176 142.546 315.271 142.556C315.369 142.562 315.461 142.574 315.549 142.59C315.637 142.603 315.714 142.619 315.779 142.639H317.615V143.161L316.628 143.283C316.726 143.41 316.807 143.563 316.872 143.742C316.938 143.921 316.97 144.12 316.97 144.338C316.97 144.872 316.789 145.297 316.428 145.612C316.067 145.925 315.57 146.081 314.939 146.081C314.789 146.081 314.636 146.068 314.48 146.042C314.32 146.13 314.198 146.228 314.114 146.335C314.032 146.442 313.992 146.566 313.992 146.706C313.992 146.81 314.023 146.893 314.084 146.955C314.149 147.017 314.242 147.062 314.363 147.092C314.483 147.118 314.628 147.131 314.797 147.131H315.74C316.322 147.131 316.768 147.253 317.078 147.497C317.39 147.741 317.546 148.098 317.546 148.566C317.546 149.159 317.305 149.613 316.824 149.929C316.342 150.244 315.645 150.402 314.734 150.402ZM314.758 149.768C315.201 149.768 315.567 149.722 315.857 149.631C316.15 149.543 316.368 149.414 316.511 149.245C316.658 149.079 316.731 148.881 316.731 148.649C316.731 148.435 316.682 148.272 316.584 148.161C316.487 148.054 316.343 147.982 316.155 147.946C315.966 147.907 315.735 147.888 315.461 147.888H314.534C314.293 147.888 314.083 147.925 313.904 148C313.725 148.075 313.586 148.186 313.489 148.332C313.394 148.479 313.347 148.661 313.347 148.879C313.347 149.169 313.469 149.388 313.713 149.538C313.957 149.691 314.306 149.768 314.758 149.768ZM314.968 145.49C315.356 145.49 315.647 145.393 315.842 145.197C316.038 145.002 316.135 144.717 316.135 144.343C316.135 143.942 316.036 143.643 315.837 143.444C315.639 143.243 315.346 143.142 314.958 143.142C314.587 143.142 314.301 143.246 314.099 143.454C313.9 143.659 313.801 143.96 313.801 144.357C313.801 144.722 313.902 145.002 314.104 145.197C314.306 145.393 314.594 145.49 314.968 145.49ZM317.915 145.676V144.953H320.337V145.676H317.915ZM298.759 162.098C298.082 162.098 297.545 161.867 297.147 161.404C296.754 160.942 296.557 160.255 296.557 159.344C296.557 158.423 296.758 157.728 297.162 157.259C297.566 156.787 298.103 156.551 298.773 156.551C299.057 156.551 299.304 156.588 299.516 156.663C299.727 156.738 299.91 156.839 300.062 156.966C300.215 157.09 300.344 157.231 300.448 157.391H300.507C300.494 157.29 300.481 157.151 300.468 156.976C300.455 156.8 300.448 156.657 300.448 156.546V154.402H301.259V162H300.604L300.482 161.238H300.448C300.347 161.398 300.219 161.543 300.062 161.673C299.91 161.803 299.726 161.907 299.511 161.985C299.299 162.06 299.049 162.098 298.759 162.098ZM298.886 161.424C299.459 161.424 299.864 161.261 300.102 160.936C300.339 160.61 300.458 160.127 300.458 159.485V159.339C300.458 158.659 300.344 158.136 300.116 157.771C299.892 157.407 299.481 157.225 298.886 157.225C298.388 157.225 298.015 157.417 297.768 157.801C297.52 158.182 297.396 158.702 297.396 159.363C297.396 160.021 297.519 160.529 297.763 160.887C298.01 161.245 298.384 161.424 298.886 161.424ZM304.738 156.551C305.194 156.551 305.584 156.652 305.91 156.854C306.235 157.055 306.485 157.339 306.657 157.703C306.83 158.064 306.916 158.488 306.916 158.973V159.476H303.22C303.229 160.104 303.386 160.582 303.688 160.911C303.991 161.24 304.417 161.404 304.968 161.404C305.306 161.404 305.606 161.373 305.866 161.312C306.126 161.25 306.397 161.159 306.677 161.038V161.751C306.406 161.871 306.138 161.959 305.871 162.015C305.607 162.07 305.295 162.098 304.933 162.098C304.419 162.098 303.97 161.993 303.586 161.785C303.205 161.574 302.909 161.264 302.697 160.857C302.485 160.451 302.38 159.952 302.38 159.363C302.38 158.787 302.476 158.289 302.668 157.869C302.863 157.446 303.137 157.12 303.488 156.893C303.843 156.665 304.26 156.551 304.738 156.551ZM304.728 157.215C304.295 157.215 303.95 157.356 303.693 157.64C303.436 157.923 303.283 158.318 303.234 158.826H306.066C306.063 158.507 306.012 158.227 305.915 157.986C305.82 157.742 305.676 157.553 305.48 157.42C305.285 157.283 305.034 157.215 304.728 157.215ZM310.376 157.283H309.043V162H308.232V157.283H307.285V156.893L308.232 156.624V156.268C308.232 155.818 308.299 155.454 308.432 155.174C308.566 154.891 308.759 154.682 309.013 154.549C309.267 154.415 309.576 154.349 309.941 154.349C310.146 154.349 310.333 154.367 310.503 154.402C310.675 154.438 310.826 154.479 310.957 154.524L310.747 155.164C310.636 155.128 310.511 155.096 310.371 155.066C310.234 155.034 310.094 155.018 309.951 155.018C309.642 155.018 309.412 155.118 309.262 155.32C309.116 155.519 309.043 155.831 309.043 156.258V156.648H310.376V157.283ZM312.168 156.648V162H311.357V156.648H312.168ZM311.772 154.646C311.906 154.646 312.019 154.69 312.114 154.778C312.212 154.863 312.26 154.996 312.26 155.179C312.26 155.358 312.212 155.491 312.114 155.579C312.019 155.667 311.906 155.711 311.772 155.711C311.632 155.711 311.515 155.667 311.421 155.579C311.329 155.491 311.284 155.358 311.284 155.179C311.284 154.996 311.329 154.863 311.421 154.778C311.515 154.69 311.632 154.646 311.772 154.646ZM315.725 162.098C315.243 162.098 314.818 161.998 314.451 161.8C314.083 161.601 313.796 161.299 313.591 160.892C313.386 160.485 313.284 159.972 313.284 159.354C313.284 158.706 313.391 158.177 313.606 157.767C313.824 157.353 314.123 157.047 314.504 156.849C314.885 156.65 315.318 156.551 315.803 156.551C316.07 156.551 316.327 156.578 316.575 156.634C316.825 156.686 317.03 156.753 317.19 156.834L316.946 157.513C316.783 157.448 316.594 157.389 316.379 157.337C316.168 157.285 315.969 157.259 315.784 157.259C315.413 157.259 315.103 157.339 314.856 157.498C314.612 157.658 314.428 157.892 314.304 158.201C314.184 158.51 314.123 158.891 314.123 159.344C314.123 159.777 314.182 160.146 314.299 160.452C314.42 160.758 314.597 160.993 314.831 161.155C315.069 161.315 315.365 161.395 315.72 161.395C316.003 161.395 316.259 161.365 316.487 161.307C316.715 161.245 316.921 161.173 317.107 161.092V161.814C316.928 161.906 316.728 161.976 316.506 162.024C316.288 162.073 316.028 162.098 315.725 162.098ZM318.887 156.648V162H318.076V156.648H318.887ZM318.491 154.646C318.625 154.646 318.739 154.69 318.833 154.778C318.931 154.863 318.98 154.996 318.98 155.179C318.98 155.358 318.931 155.491 318.833 155.579C318.739 155.667 318.625 155.711 318.491 155.711C318.351 155.711 318.234 155.667 318.14 155.579C318.049 155.491 318.003 155.358 318.003 155.179C318.003 154.996 318.049 154.863 318.14 154.778C318.234 154.69 318.351 154.646 318.491 154.646ZM322.366 156.551C322.822 156.551 323.213 156.652 323.538 156.854C323.864 157.055 324.113 157.339 324.285 157.703C324.458 158.064 324.544 158.488 324.544 158.973V159.476H320.848C320.857 160.104 321.014 160.582 321.316 160.911C321.619 161.24 322.046 161.404 322.596 161.404C322.934 161.404 323.234 161.373 323.494 161.312C323.755 161.25 324.025 161.159 324.305 161.038V161.751C324.035 161.871 323.766 161.959 323.499 162.015C323.235 162.07 322.923 162.098 322.562 162.098C322.047 162.098 321.598 161.993 321.214 161.785C320.833 161.574 320.537 161.264 320.325 160.857C320.114 160.451 320.008 159.952 320.008 159.363C320.008 158.787 320.104 158.289 320.296 157.869C320.491 157.446 320.765 157.12 321.116 156.893C321.471 156.665 321.888 156.551 322.366 156.551ZM322.356 157.215C321.924 157.215 321.578 157.356 321.321 157.64C321.064 157.923 320.911 158.318 320.862 158.826H323.694C323.691 158.507 323.641 158.227 323.543 157.986C323.449 157.742 323.304 157.553 323.108 157.42C322.913 157.283 322.662 157.215 322.356 157.215ZM328.155 156.551C328.79 156.551 329.27 156.707 329.596 157.02C329.921 157.329 330.084 157.827 330.084 158.514V162H329.283V158.567C329.283 158.121 329.18 157.788 328.975 157.566C328.774 157.345 328.463 157.234 328.043 157.234C327.45 157.234 327.034 157.402 326.793 157.737C326.552 158.073 326.431 158.559 326.431 159.197V162H325.621V156.648H326.275L326.397 157.42H326.441C326.555 157.231 326.7 157.073 326.876 156.946C327.052 156.816 327.249 156.718 327.467 156.653C327.685 156.585 327.914 156.551 328.155 156.551ZM333.182 161.434C333.316 161.434 333.452 161.422 333.592 161.399C333.732 161.377 333.846 161.349 333.934 161.316V161.946C333.84 161.989 333.708 162.024 333.539 162.054C333.373 162.083 333.21 162.098 333.05 162.098C332.767 162.098 332.51 162.049 332.279 161.951C332.048 161.85 331.862 161.681 331.722 161.443C331.586 161.206 331.517 160.877 331.517 160.457V157.283H330.755V156.888L331.522 156.57L331.844 155.408H332.333V156.648H333.9V157.283H332.333V160.433C332.333 160.768 332.409 161.019 332.562 161.185C332.718 161.351 332.925 161.434 333.182 161.434Z" fill="#456C51"/>
<path d="M8.07891 148V140.861H8.90899V148H8.07891ZM12.984 142.551C13.6188 142.551 14.0989 142.707 14.4244 143.02C14.7499 143.329 14.9127 143.827 14.9127 144.514V148H14.1119V144.567C14.1119 144.121 14.0094 143.788 13.8043 143.566C13.6025 143.345 13.2916 143.234 12.8717 143.234C12.2792 143.234 11.8626 143.402 11.6217 143.737C11.3808 144.073 11.2604 144.559 11.2604 145.197V148H10.4498V142.648H11.1041L11.2262 143.42H11.2701C11.3841 143.231 11.5289 143.073 11.7047 142.946C11.8805 142.816 12.0774 142.718 12.2955 142.653C12.5136 142.585 12.7431 142.551 12.984 142.551ZM17.0932 140.402V142.673C17.0932 142.803 17.0899 142.935 17.0834 143.068C17.0769 143.199 17.0655 143.319 17.0492 143.43H17.1029C17.2136 143.241 17.3536 143.083 17.5229 142.956C17.6954 142.826 17.8907 142.728 18.1088 142.663C18.3269 142.595 18.558 142.561 18.8021 142.561C19.2318 142.561 19.5899 142.629 19.8764 142.766C20.1661 142.902 20.3826 143.114 20.5258 143.4C20.6723 143.687 20.7455 144.058 20.7455 144.514V148H19.9447V144.567C19.9447 144.121 19.8422 143.788 19.6371 143.566C19.4353 143.345 19.1244 143.234 18.7045 143.234C18.3074 143.234 17.99 143.311 17.7523 143.464C17.518 143.614 17.3487 143.835 17.2445 144.128C17.1436 144.421 17.0932 144.779 17.0932 145.202V148H16.2826V140.402H17.0932ZM24.176 142.551C24.6317 142.551 25.0223 142.652 25.3479 142.854C25.6734 143.055 25.9224 143.339 26.0949 143.703C26.2674 144.064 26.3537 144.488 26.3537 144.973V145.476H22.6574C22.6672 146.104 22.8234 146.582 23.1262 146.911C23.4289 147.24 23.8553 147.404 24.4055 147.404C24.744 147.404 25.0435 147.373 25.3039 147.312C25.5643 147.25 25.8345 147.159 26.1145 147.038V147.751C25.8443 147.871 25.5757 147.959 25.3088 148.015C25.0451 148.07 24.7326 148.098 24.3713 148.098C23.857 148.098 23.4077 147.993 23.0236 147.785C22.6428 147.574 22.3466 147.264 22.135 146.857C21.9234 146.451 21.8176 145.952 21.8176 145.363C21.8176 144.787 21.9136 144.289 22.1057 143.869C22.301 143.446 22.5744 143.12 22.926 142.893C23.2808 142.665 23.6975 142.551 24.176 142.551ZM24.1662 143.215C23.7333 143.215 23.3882 143.356 23.1311 143.64C22.8739 143.923 22.7209 144.318 22.6721 144.826H25.5041C25.5008 144.507 25.4504 144.227 25.3527 143.986C25.2583 143.742 25.1135 143.553 24.9182 143.42C24.7229 143.283 24.4722 143.215 24.1662 143.215ZM29.8623 142.551C29.9697 142.551 30.082 142.557 30.1992 142.57C30.3164 142.58 30.4206 142.595 30.5117 142.614L30.4092 143.366C30.3213 143.343 30.2236 143.326 30.1162 143.312C30.0088 143.299 29.9079 143.293 29.8135 143.293C29.5986 143.293 29.3952 143.337 29.2031 143.425C29.0143 143.509 28.8483 143.633 28.7051 143.796C28.5618 143.955 28.4495 144.149 28.3682 144.377C28.2868 144.602 28.2461 144.852 28.2461 145.129V148H27.4307V142.648H28.1045L28.1924 143.635H28.2266C28.3372 143.436 28.4707 143.256 28.627 143.093C28.7832 142.927 28.9639 142.795 29.1689 142.697C29.3773 142.6 29.6084 142.551 29.8623 142.551ZM32.033 142.648V148H31.2225V142.648H32.033ZM31.6375 140.646C31.771 140.646 31.8849 140.69 31.9793 140.778C32.077 140.863 32.1258 140.996 32.1258 141.179C32.1258 141.358 32.077 141.491 31.9793 141.579C31.8849 141.667 31.771 141.711 31.6375 141.711C31.4975 141.711 31.3803 141.667 31.2859 141.579C31.1948 141.491 31.1492 141.358 31.1492 141.179C31.1492 140.996 31.1948 140.863 31.2859 140.778C31.3803 140.69 31.4975 140.646 31.6375 140.646ZM35.1803 147.434C35.3137 147.434 35.4505 147.422 35.5904 147.399C35.7304 147.377 35.8443 147.349 35.9322 147.316V147.946C35.8378 147.989 35.706 148.024 35.5367 148.054C35.3707 148.083 35.2079 148.098 35.0484 148.098C34.7652 148.098 34.5081 148.049 34.277 147.951C34.0458 147.85 33.8603 147.681 33.7203 147.443C33.5836 147.206 33.5152 146.877 33.5152 146.457V143.283H32.7535V142.888L33.5201 142.57L33.8424 141.408H34.3307V142.648H35.898V143.283H34.3307V146.433C34.3307 146.768 34.4072 147.019 34.5602 147.185C34.7164 147.351 34.9231 147.434 35.1803 147.434ZM38.7768 142.551C39.2325 142.551 39.6231 142.652 39.9486 142.854C40.2742 143.055 40.5232 143.339 40.6957 143.703C40.8682 144.064 40.9545 144.488 40.9545 144.973V145.476H37.2582C37.268 146.104 37.4242 146.582 37.727 146.911C38.0297 147.24 38.4561 147.404 39.0062 147.404C39.3448 147.404 39.6443 147.373 39.9047 147.312C40.1651 147.25 40.4353 147.159 40.7152 147.038V147.751C40.4451 147.871 40.1765 147.959 39.9096 148.015C39.6459 148.07 39.3334 148.098 38.9721 148.098C38.4577 148.098 38.0085 147.993 37.6244 147.785C37.2436 147.574 36.9473 147.264 36.7357 146.857C36.5242 146.451 36.4184 145.952 36.4184 145.363C36.4184 144.787 36.5144 144.289 36.7064 143.869C36.9018 143.446 37.1752 143.12 37.5268 142.893C37.8816 142.665 38.2982 142.551 38.7768 142.551ZM38.767 143.215C38.334 143.215 37.989 143.356 37.7318 143.64C37.4747 143.923 37.3217 144.318 37.2729 144.826H40.1049C40.1016 144.507 40.0512 144.227 39.9535 143.986C39.8591 143.742 39.7143 143.553 39.5189 143.42C39.3236 143.283 39.073 143.215 38.767 143.215ZM43.9357 148.098C43.2587 148.098 42.7215 147.867 42.3244 147.404C41.9305 146.942 41.7336 146.255 41.7336 145.344C41.7336 144.423 41.9354 143.728 42.3391 143.259C42.7427 142.787 43.2798 142.551 43.9504 142.551C44.2336 142.551 44.481 142.588 44.6926 142.663C44.9042 142.738 45.0865 142.839 45.2395 142.966C45.3924 143.09 45.521 143.231 45.6252 143.391H45.6838C45.6708 143.29 45.6577 143.151 45.6447 142.976C45.6317 142.8 45.6252 142.657 45.6252 142.546V140.402H46.4357V148H45.7814L45.6594 147.238H45.6252C45.5243 147.398 45.3957 147.543 45.2395 147.673C45.0865 147.803 44.9025 147.907 44.6877 147.985C44.4761 148.06 44.2255 148.098 43.9357 148.098ZM44.0627 147.424C44.6356 147.424 45.0409 147.261 45.2785 146.936C45.5161 146.61 45.635 146.127 45.635 145.485V145.339C45.635 144.659 45.521 144.136 45.2932 143.771C45.0686 143.407 44.6584 143.225 44.0627 143.225C43.5646 143.225 43.1919 143.417 42.9445 143.801C42.6971 144.182 42.5734 144.702 42.5734 145.363C42.5734 146.021 42.6955 146.529 42.9396 146.887C43.187 147.245 43.5614 147.424 44.0627 147.424ZM21.1682 160.101C21.1682 160.524 21.0624 160.885 20.8508 161.185C20.6424 161.481 20.3495 161.707 19.9719 161.863C19.5943 162.02 19.1499 162.098 18.6389 162.098C18.3687 162.098 18.1132 162.085 17.8723 162.059C17.6314 162.033 17.41 161.995 17.2082 161.946C17.0064 161.897 16.829 161.837 16.676 161.766V160.97C16.9201 161.071 17.218 161.165 17.5695 161.253C17.9211 161.338 18.2889 161.38 18.673 161.38C19.0311 161.38 19.3339 161.333 19.5812 161.238C19.8286 161.141 20.0158 161.002 20.1428 160.823C20.273 160.641 20.3381 160.423 20.3381 160.169C20.3381 159.925 20.2844 159.721 20.177 159.559C20.0695 159.393 19.8905 159.243 19.6398 159.109C19.3924 158.973 19.0539 158.828 18.6242 158.675C18.3215 158.567 18.0546 158.45 17.8234 158.323C17.5923 158.193 17.3986 158.047 17.2424 157.884C17.0861 157.721 16.9673 157.532 16.8859 157.317C16.8078 157.103 16.7687 156.857 16.7687 156.58C16.7687 156.199 16.8648 155.874 17.0568 155.604C17.2521 155.33 17.5207 155.122 17.8625 154.979C18.2076 154.832 18.6031 154.759 19.049 154.759C19.4299 154.759 19.7814 154.795 20.1037 154.866C20.4292 154.938 20.7271 155.034 20.9973 155.154L20.7385 155.867C20.4813 155.76 20.2079 155.67 19.9182 155.599C19.6317 155.527 19.3355 155.491 19.0295 155.491C18.7235 155.491 18.4647 155.537 18.2531 155.628C18.0448 155.716 17.8853 155.841 17.7746 156.004C17.6639 156.167 17.6086 156.36 17.6086 156.585C17.6086 156.836 17.6607 157.044 17.7648 157.21C17.8723 157.376 18.0415 157.524 18.2727 157.654C18.507 157.781 18.8163 157.915 19.2004 158.055C19.6203 158.208 19.9768 158.37 20.2697 158.543C20.5627 158.712 20.7857 158.921 20.9387 159.168C21.0917 159.412 21.1682 159.723 21.1682 160.101ZM24.7207 156.551C25.388 156.551 25.9202 156.78 26.3174 157.239C26.7145 157.698 26.9131 158.388 26.9131 159.31C26.9131 159.918 26.8219 160.429 26.6396 160.843C26.4574 161.256 26.2002 161.569 25.8682 161.78C25.5394 161.992 25.1504 162.098 24.7012 162.098C24.418 162.098 24.1689 162.06 23.9541 161.985C23.7393 161.91 23.5553 161.81 23.4023 161.683C23.2493 161.556 23.1224 161.417 23.0215 161.268H22.9629C22.9727 161.395 22.984 161.548 22.9971 161.727C23.0133 161.906 23.0215 162.062 23.0215 162.195V164.393H22.2061V156.648H22.875L22.9824 157.439H23.0215C23.1257 157.277 23.2526 157.129 23.4023 156.995C23.5521 156.858 23.7344 156.751 23.9492 156.673C24.1673 156.591 24.4245 156.551 24.7207 156.551ZM24.5791 157.234C24.208 157.234 23.9085 157.306 23.6807 157.449C23.4561 157.592 23.2917 157.807 23.1875 158.094C23.0833 158.377 23.028 158.733 23.0215 159.163V159.319C23.0215 159.772 23.0703 160.154 23.168 160.467C23.2689 160.779 23.4333 161.017 23.6611 161.18C23.8923 161.342 24.2015 161.424 24.5889 161.424C24.9209 161.424 25.1976 161.334 25.4189 161.155C25.6403 160.976 25.8047 160.727 25.9121 160.408C26.0228 160.086 26.0781 159.716 26.0781 159.3C26.0781 158.668 25.9544 158.167 25.707 157.796C25.4629 157.422 25.0869 157.234 24.5791 157.234ZM30.0896 156.551C30.5454 156.551 30.936 156.652 31.2615 156.854C31.587 157.055 31.8361 157.339 32.0086 157.703C32.1811 158.064 32.2674 158.488 32.2674 158.973V159.476H28.5711C28.5809 160.104 28.7371 160.582 29.0398 160.911C29.3426 161.24 29.769 161.404 30.3191 161.404C30.6577 161.404 30.9572 161.373 31.2176 161.312C31.478 161.25 31.7482 161.159 32.0281 161.038V161.751C31.7579 161.871 31.4894 161.959 31.2225 162.015C30.9588 162.07 30.6463 162.098 30.285 162.098C29.7706 162.098 29.3214 161.993 28.9373 161.785C28.5564 161.574 28.2602 161.264 28.0486 160.857C27.837 160.451 27.7312 159.952 27.7312 159.363C27.7312 158.787 27.8273 158.289 28.0193 157.869C28.2146 157.446 28.4881 157.12 28.8396 156.893C29.1945 156.665 29.6111 156.551 30.0896 156.551ZM30.0799 157.215C29.6469 157.215 29.3019 157.356 29.0447 157.64C28.7876 157.923 28.6346 158.318 28.5857 158.826H31.4178C31.4145 158.507 31.3641 158.227 31.2664 157.986C31.172 157.742 31.0271 157.553 30.8318 157.42C30.6365 157.283 30.3859 157.215 30.0799 157.215ZM35.4879 162.098C35.0061 162.098 34.5813 161.998 34.2135 161.8C33.8456 161.601 33.5592 161.299 33.3541 160.892C33.149 160.485 33.0465 159.972 33.0465 159.354C33.0465 158.706 33.1539 158.177 33.3688 157.767C33.5869 157.353 33.8863 157.047 34.2672 156.849C34.648 156.65 35.081 156.551 35.566 156.551C35.8329 156.551 36.0901 156.578 36.3375 156.634C36.5882 156.686 36.7932 156.753 36.9527 156.834L36.7086 157.513C36.5458 157.448 36.357 157.389 36.1422 157.337C35.9306 157.285 35.732 157.259 35.5465 157.259C35.1754 157.259 34.8661 157.339 34.6188 157.498C34.3746 157.658 34.1907 157.892 34.067 158.201C33.9466 158.51 33.8863 158.891 33.8863 159.344C33.8863 159.777 33.9449 160.146 34.0621 160.452C34.1826 160.758 34.36 160.993 34.5943 161.155C34.832 161.315 35.1282 161.395 35.483 161.395C35.7662 161.395 36.0217 161.365 36.2496 161.307C36.4775 161.245 36.6842 161.173 36.8697 161.092V161.814C36.6907 161.906 36.4905 161.976 36.2691 162.024C36.051 162.073 35.7906 162.098 35.4879 162.098ZM38.6498 156.648V162H37.8393V156.648H38.6498ZM38.2543 154.646C38.3878 154.646 38.5017 154.69 38.5961 154.778C38.6937 154.863 38.7426 154.996 38.7426 155.179C38.7426 155.358 38.6937 155.491 38.5961 155.579C38.5017 155.667 38.3878 155.711 38.2543 155.711C38.1143 155.711 37.9971 155.667 37.9027 155.579C37.8116 155.491 37.766 155.358 37.766 155.179C37.766 154.996 37.8116 154.863 37.9027 154.778C37.9971 154.69 38.1143 154.646 38.2543 154.646ZM42.0705 156.561C42.7085 156.561 43.1822 156.704 43.4914 156.99C43.8007 157.277 43.9553 157.734 43.9553 158.362V162H43.3645L43.2082 161.209H43.1691C43.0194 161.404 42.8632 161.569 42.7004 161.702C42.5376 161.832 42.3488 161.932 42.134 162C41.9224 162.065 41.662 162.098 41.3527 162.098C41.0272 162.098 40.7375 162.041 40.4836 161.927C40.2329 161.813 40.0344 161.64 39.8879 161.409C39.7447 161.178 39.673 160.885 39.673 160.53C39.673 159.996 39.8846 159.586 40.3078 159.3C40.731 159.013 41.3755 158.857 42.2414 158.831L43.1643 158.792V158.465C43.1643 158.003 43.065 157.679 42.8664 157.493C42.6678 157.308 42.3879 157.215 42.0266 157.215C41.7466 157.215 41.4797 157.256 41.2258 157.337C40.9719 157.418 40.731 157.514 40.5031 157.625L40.2541 157.01C40.495 156.886 40.7717 156.78 41.0842 156.692C41.3967 156.604 41.7255 156.561 42.0705 156.561ZM43.1545 159.363L42.3391 159.397C41.6717 159.424 41.2014 159.533 40.9279 159.725C40.6545 159.917 40.5178 160.188 40.5178 160.54C40.5178 160.846 40.6105 161.072 40.7961 161.219C40.9816 161.365 41.2274 161.438 41.5334 161.438C42.0087 161.438 42.3977 161.307 42.7004 161.043C43.0031 160.779 43.1545 160.384 43.1545 159.856V159.363ZM46.1406 162H45.3252V154.402H46.1406V162Z" fill="#456C51"/>
<path d="M264.798 69.4404L266.697 65.8613H267.591L265.213 70.2314V73H264.383V70.2705L262 65.8613H262.908L264.798 69.4404ZM268.961 67.6484V73H268.15V67.6484H268.961ZM268.565 65.6465C268.699 65.6465 268.813 65.6904 268.907 65.7783C269.005 65.863 269.054 65.9964 269.054 66.1787C269.054 66.3577 269.005 66.4912 268.907 66.5791C268.813 66.667 268.699 66.7109 268.565 66.7109C268.425 66.7109 268.308 66.667 268.214 66.5791C268.123 66.4912 268.077 66.3577 268.077 66.1787C268.077 65.9964 268.123 65.863 268.214 65.7783C268.308 65.6904 268.425 65.6465 268.565 65.6465ZM272.914 67.5508C273.548 67.5508 274.029 67.707 274.354 68.0195C274.68 68.3288 274.842 68.8268 274.842 69.5137V73H274.042V69.5674C274.042 69.1214 273.939 68.7878 273.734 68.5664C273.532 68.3451 273.221 68.2344 272.801 68.2344C272.209 68.2344 271.792 68.402 271.551 68.7373C271.31 69.0726 271.19 69.5592 271.19 70.1973V73H270.379V67.6484H271.034L271.156 68.4199H271.2C271.314 68.2311 271.459 68.0732 271.634 67.9463C271.81 67.8161 272.007 67.7184 272.225 67.6533C272.443 67.585 272.673 67.5508 272.914 67.5508ZM275.758 70.6758V69.9531H278.18V70.6758H275.758ZM281.039 73.0977C280.362 73.0977 279.825 72.8665 279.428 72.4043C279.034 71.9421 278.837 71.2552 278.837 70.3438C278.837 69.4225 279.039 68.7275 279.443 68.2588C279.846 67.7868 280.383 67.5508 281.054 67.5508C281.337 67.5508 281.585 67.5882 281.796 67.6631C282.008 67.738 282.19 67.8389 282.343 67.9658C282.496 68.0895 282.625 68.2311 282.729 68.3906H282.787C282.774 68.2897 282.761 68.1514 282.748 67.9756C282.735 67.7998 282.729 67.6566 282.729 67.5459V65.4023H283.539V73H282.885L282.763 72.2383H282.729C282.628 72.3978 282.499 72.5426 282.343 72.6729C282.19 72.8031 282.006 72.9072 281.791 72.9854C281.58 73.0602 281.329 73.0977 281.039 73.0977ZM281.166 72.4238C281.739 72.4238 282.144 72.2611 282.382 71.9355C282.62 71.61 282.738 71.1266 282.738 70.4854V70.3389C282.738 69.6585 282.625 69.1361 282.397 68.7715C282.172 68.4069 281.762 68.2246 281.166 68.2246C280.668 68.2246 280.295 68.4167 280.048 68.8008C279.801 69.1816 279.677 69.7025 279.677 70.3633C279.677 71.0208 279.799 71.5286 280.043 71.8867C280.291 72.2448 280.665 72.4238 281.166 72.4238ZM287.019 67.5508C287.474 67.5508 287.865 67.6517 288.19 67.8535C288.516 68.0553 288.765 68.3385 288.938 68.7031C289.11 69.0645 289.196 69.4876 289.196 69.9727V70.4756H285.5C285.51 71.1038 285.666 71.5824 285.969 71.9111C286.271 72.2399 286.698 72.4043 287.248 72.4043C287.587 72.4043 287.886 72.3734 288.146 72.3115C288.407 72.2497 288.677 72.1585 288.957 72.0381V72.751C288.687 72.8714 288.418 72.9593 288.151 73.0146C287.888 73.07 287.575 73.0977 287.214 73.0977C286.7 73.0977 286.25 72.9935 285.866 72.7852C285.485 72.5736 285.189 72.2643 284.978 71.8574C284.766 71.4505 284.66 70.9525 284.66 70.3633C284.66 69.7871 284.756 69.2891 284.948 68.8691C285.144 68.446 285.417 68.1204 285.769 67.8926C286.123 67.6647 286.54 67.5508 287.019 67.5508ZM287.009 68.2148C286.576 68.2148 286.231 68.3564 285.974 68.6396C285.716 68.9229 285.563 69.3184 285.515 69.8262H288.347C288.343 69.5072 288.293 69.2272 288.195 68.9863C288.101 68.7422 287.956 68.5534 287.761 68.4199C287.565 68.2832 287.315 68.2148 287.009 68.2148ZM292.656 68.2832H291.323V73H290.513V68.2832H289.565V67.8926L290.513 67.624V67.2676C290.513 66.8184 290.579 66.4538 290.713 66.1738C290.846 65.8906 291.04 65.6823 291.294 65.5488C291.548 65.4154 291.857 65.3486 292.221 65.3486C292.427 65.3486 292.614 65.3665 292.783 65.4023C292.956 65.4382 293.107 65.4788 293.237 65.5244L293.027 66.1641C292.916 66.1283 292.791 66.0957 292.651 66.0664C292.514 66.0339 292.374 66.0176 292.231 66.0176C291.922 66.0176 291.693 66.1185 291.543 66.3203C291.396 66.5189 291.323 66.8314 291.323 67.2578V67.6484H292.656V68.2832ZM294.448 67.6484V73H293.638V67.6484H294.448ZM294.053 65.6465C294.186 65.6465 294.3 65.6904 294.394 65.7783C294.492 65.863 294.541 65.9964 294.541 66.1787C294.541 66.3577 294.492 66.4912 294.394 66.5791C294.3 66.667 294.186 66.7109 294.053 66.7109C293.913 66.7109 293.795 66.667 293.701 66.5791C293.61 66.4912 293.564 66.3577 293.564 66.1787C293.564 65.9964 293.61 65.863 293.701 65.7783C293.795 65.6904 293.913 65.6465 294.053 65.6465ZM298.005 73.0977C297.524 73.0977 297.099 72.9984 296.731 72.7998C296.363 72.6012 296.077 72.2985 295.872 71.8916C295.667 71.4847 295.564 70.972 295.564 70.3535C295.564 69.7057 295.671 69.1768 295.886 68.7666C296.104 68.3532 296.404 68.0472 296.785 67.8486C297.166 67.6501 297.599 67.5508 298.084 67.5508C298.351 67.5508 298.608 67.5785 298.855 67.6338C299.106 67.6859 299.311 67.7526 299.47 67.834L299.226 68.5127C299.063 68.4476 298.875 68.389 298.66 68.3369C298.448 68.2848 298.25 68.2588 298.064 68.2588C297.693 68.2588 297.384 68.3385 297.136 68.498C296.892 68.6576 296.708 68.8919 296.585 69.2012C296.464 69.5104 296.404 69.8913 296.404 70.3438C296.404 70.7767 296.463 71.1462 296.58 71.4521C296.7 71.7581 296.878 71.9925 297.112 72.1553C297.35 72.3148 297.646 72.3945 298.001 72.3945C298.284 72.3945 298.539 72.3652 298.767 72.3066C298.995 72.2448 299.202 72.1732 299.387 72.0918V72.8145C299.208 72.9056 299.008 72.9756 298.787 73.0244C298.569 73.0732 298.308 73.0977 298.005 73.0977ZM301.167 67.6484V73H300.357V67.6484H301.167ZM300.772 65.6465C300.905 65.6465 301.019 65.6904 301.114 65.7783C301.211 65.863 301.26 65.9964 301.26 66.1787C301.26 66.3577 301.211 66.4912 301.114 66.5791C301.019 66.667 300.905 66.7109 300.772 66.7109C300.632 66.7109 300.515 66.667 300.42 66.5791C300.329 66.4912 300.284 66.3577 300.284 66.1787C300.284 65.9964 300.329 65.863 300.42 65.7783C300.515 65.6904 300.632 65.6465 300.772 65.6465ZM304.647 67.5508C305.102 67.5508 305.493 67.6517 305.819 67.8535C306.144 68.0553 306.393 68.3385 306.566 68.7031C306.738 69.0645 306.824 69.4876 306.824 69.9727V70.4756H303.128C303.138 71.1038 303.294 71.5824 303.597 71.9111C303.9 72.2399 304.326 72.4043 304.876 72.4043C305.215 72.4043 305.514 72.3734 305.775 72.3115C306.035 72.2497 306.305 72.1585 306.585 72.0381V72.751C306.315 72.8714 306.046 72.9593 305.779 73.0146C305.516 73.07 305.203 73.0977 304.842 73.0977C304.328 73.0977 303.878 72.9935 303.494 72.7852C303.113 72.5736 302.817 72.2643 302.606 71.8574C302.394 71.4505 302.288 70.9525 302.288 70.3633C302.288 69.7871 302.384 69.2891 302.576 68.8691C302.772 68.446 303.045 68.1204 303.397 67.8926C303.751 67.6647 304.168 67.5508 304.647 67.5508ZM304.637 68.2148C304.204 68.2148 303.859 68.3564 303.602 68.6396C303.345 68.9229 303.192 69.3184 303.143 69.8262H305.975C305.972 69.5072 305.921 69.2272 305.823 68.9863C305.729 68.7422 305.584 68.5534 305.389 68.4199C305.194 68.2832 304.943 68.2148 304.637 68.2148ZM310.436 67.5508C311.07 67.5508 311.55 67.707 311.876 68.0195C312.201 68.3288 312.364 68.8268 312.364 69.5137V73H311.563V69.5674C311.563 69.1214 311.461 68.7878 311.256 68.5664C311.054 68.3451 310.743 68.2344 310.323 68.2344C309.731 68.2344 309.314 68.402 309.073 68.7373C308.832 69.0726 308.712 69.5592 308.712 70.1973V73H307.901V67.6484H308.556L308.678 68.4199H308.722C308.836 68.2311 308.98 68.0732 309.156 67.9463C309.332 67.8161 309.529 67.7184 309.747 67.6533C309.965 67.585 310.195 67.5508 310.436 67.5508ZM315.463 72.4336C315.596 72.4336 315.733 72.4222 315.873 72.3994C316.013 72.3766 316.127 72.349 316.215 72.3164V72.9463C316.12 72.9886 315.988 73.0244 315.819 73.0537C315.653 73.083 315.49 73.0977 315.331 73.0977C315.048 73.0977 314.79 73.0488 314.559 72.9512C314.328 72.8503 314.143 72.681 314.003 72.4434C313.866 72.2057 313.798 71.877 313.798 71.457V68.2832H313.036V67.8877L313.803 67.5703L314.125 66.4082H314.613V67.6484H316.18V68.2832H314.613V71.4326C314.613 71.7679 314.69 72.0186 314.843 72.1846C314.999 72.3506 315.206 72.4336 315.463 72.4336Z" fill="#456C51"/>
<path d="M18.733 71.1006C18.733 71.5238 18.6272 71.8851 18.4156 72.1846C18.2073 72.4808 17.9143 72.707 17.5367 72.8633C17.1591 73.0195 16.7148 73.0977 16.2037 73.0977C15.9335 73.0977 15.678 73.0846 15.4371 73.0586C15.1962 73.0326 14.9749 72.9951 14.773 72.9463C14.5712 72.8975 14.3938 72.8372 14.2408 72.7656V71.9697C14.485 72.0706 14.7828 72.165 15.1344 72.2529C15.4859 72.3376 15.8538 72.3799 16.2379 72.3799C16.596 72.3799 16.8987 72.3327 17.1461 72.2383C17.3935 72.1406 17.5807 72.0023 17.7076 71.8232C17.8378 71.641 17.9029 71.4229 17.9029 71.1689C17.9029 70.9248 17.8492 70.7214 17.7418 70.5586C17.6344 70.3926 17.4553 70.2428 17.2047 70.1094C16.9573 69.9727 16.6188 69.8278 16.1891 69.6748C15.8863 69.5674 15.6194 69.4502 15.3883 69.3232C15.1572 69.193 14.9635 69.0465 14.8072 68.8838C14.651 68.721 14.5322 68.5322 14.4508 68.3174C14.3727 68.1025 14.3336 67.8568 14.3336 67.5801C14.3336 67.1992 14.4296 66.8737 14.6217 66.6035C14.817 66.3301 15.0855 66.1217 15.4273 65.9785C15.7724 65.832 16.1679 65.7588 16.6139 65.7588C16.9947 65.7588 17.3463 65.7946 17.6686 65.8662C17.9941 65.9378 18.2919 66.0339 18.5621 66.1543L18.3033 66.8672C18.0462 66.7598 17.7727 66.6702 17.483 66.5986C17.1966 66.527 16.9003 66.4912 16.5943 66.4912C16.2883 66.4912 16.0296 66.5368 15.818 66.6279C15.6096 66.7158 15.4501 66.8411 15.3395 67.0039C15.2288 67.1667 15.1734 67.3604 15.1734 67.585C15.1734 67.8356 15.2255 68.0439 15.3297 68.21C15.4371 68.376 15.6064 68.5241 15.8375 68.6543C16.0719 68.7812 16.3811 68.9147 16.7652 69.0547C17.1852 69.2077 17.5416 69.3704 17.8346 69.543C18.1275 69.7122 18.3505 69.9206 18.5035 70.168C18.6565 70.4121 18.733 70.723 18.733 71.1006ZM21.4994 72.4336C21.6329 72.4336 21.7696 72.4222 21.9096 72.3994C22.0495 72.3766 22.1635 72.349 22.2514 72.3164V72.9463C22.157 72.9886 22.0251 73.0244 21.8559 73.0537C21.6898 73.083 21.5271 73.0977 21.3676 73.0977C21.0844 73.0977 20.8272 73.0488 20.5961 72.9512C20.365 72.8503 20.1794 72.681 20.0395 72.4434C19.9027 72.2057 19.8344 71.877 19.8344 71.457V68.2832H19.0727V67.8877L19.8393 67.5703L20.1615 66.4082H20.6498V67.6484H22.2172V68.2832H20.6498V71.4326C20.6498 71.7679 20.7263 72.0186 20.8793 72.1846C21.0355 72.3506 21.2423 72.4336 21.4994 72.4336ZM25.0373 67.5605C25.6753 67.5605 26.149 67.7038 26.4582 67.9902C26.7674 68.2767 26.9221 68.734 26.9221 69.3623V73H26.3313L26.175 72.209H26.1359C25.9862 72.4043 25.8299 72.5687 25.6672 72.7021C25.5044 72.8324 25.3156 72.9316 25.1008 73C24.8892 73.0651 24.6288 73.0977 24.3195 73.0977C23.994 73.0977 23.7043 73.0407 23.4504 72.9268C23.1997 72.8128 23.0012 72.6403 22.8547 72.4092C22.7115 72.1781 22.6398 71.8851 22.6398 71.5303C22.6398 70.9964 22.8514 70.5863 23.2746 70.2998C23.6978 70.0133 24.3423 69.8571 25.2082 69.8311L26.1311 69.792V69.4648C26.1311 69.0026 26.0318 68.6787 25.8332 68.4932C25.6346 68.3076 25.3547 68.2148 24.9934 68.2148C24.7134 68.2148 24.4465 68.2555 24.1926 68.3369C23.9387 68.4183 23.6978 68.5143 23.4699 68.625L23.2209 68.0098C23.4618 67.8861 23.7385 67.7803 24.051 67.6924C24.3635 67.6045 24.6923 67.5605 25.0373 67.5605ZM26.1213 70.3633L25.3059 70.3975C24.6385 70.4235 24.1682 70.5326 23.8947 70.7246C23.6213 70.9167 23.4846 71.1885 23.4846 71.54C23.4846 71.846 23.5773 72.0723 23.7629 72.2188C23.9484 72.3652 24.1942 72.4385 24.5002 72.4385C24.9755 72.4385 25.3645 72.3066 25.6672 72.043C25.9699 71.7793 26.1213 71.3838 26.1213 70.8564V70.3633ZM29.7861 75.4023C29.083 75.4023 28.541 75.2705 28.1602 75.0068C27.7793 74.7464 27.5889 74.3802 27.5889 73.9082C27.5889 73.5729 27.6947 73.2865 27.9063 73.0488C28.1211 72.8112 28.4173 72.6533 28.7949 72.5752C28.6549 72.5101 28.5345 72.4124 28.4336 72.2822C28.3359 72.152 28.2871 72.0023 28.2871 71.833C28.2871 71.6377 28.3408 71.4668 28.4482 71.3203C28.5589 71.1706 28.7266 71.0273 28.9512 70.8906C28.6712 70.7767 28.4434 70.5846 28.2676 70.3145C28.0951 70.041 28.0088 69.7236 28.0088 69.3623C28.0088 68.9782 28.0885 68.651 28.248 68.3809C28.4076 68.1074 28.6387 67.8991 28.9414 67.7559C29.2441 67.6126 29.6104 67.541 30.04 67.541C30.1344 67.541 30.2288 67.5459 30.3232 67.5557C30.4209 67.5622 30.5137 67.5736 30.6016 67.5898C30.6895 67.6029 30.766 67.6191 30.8311 67.6387H32.667V68.1611L31.6807 68.2832C31.7783 68.4102 31.8597 68.5632 31.9248 68.7422C31.9899 68.9212 32.0225 69.1198 32.0225 69.3379C32.0225 69.8717 31.8418 70.2965 31.4805 70.6123C31.1191 70.9248 30.6227 71.0811 29.9912 71.0811C29.8415 71.0811 29.6885 71.068 29.5322 71.042C29.3727 71.1299 29.2507 71.2275 29.166 71.335C29.0846 71.4424 29.0439 71.5661 29.0439 71.7061C29.0439 71.8102 29.0749 71.8932 29.1367 71.9551C29.2018 72.0169 29.2946 72.0625 29.415 72.0918C29.5355 72.1178 29.6803 72.1309 29.8496 72.1309H30.792C31.3747 72.1309 31.8206 72.2529 32.1299 72.4971C32.4424 72.7412 32.5986 73.0977 32.5986 73.5664C32.5986 74.1589 32.3577 74.613 31.876 74.9287C31.3942 75.2445 30.6976 75.4023 29.7861 75.4023ZM29.8105 74.7676C30.2533 74.7676 30.6195 74.722 30.9092 74.6309C31.2022 74.543 31.4202 74.4144 31.5635 74.2451C31.71 74.0791 31.7832 73.8805 31.7832 73.6494C31.7832 73.4346 31.7344 73.2718 31.6367 73.1611C31.5391 73.0537 31.3958 72.9821 31.207 72.9463C31.0182 72.9072 30.7871 72.8877 30.5137 72.8877H29.5859C29.3451 72.8877 29.1351 72.9251 28.9561 73C28.777 73.0749 28.6387 73.1855 28.541 73.332C28.4466 73.4785 28.3994 73.6608 28.3994 73.8789C28.3994 74.1686 28.5215 74.3883 28.7656 74.5381C29.0098 74.6911 29.3581 74.7676 29.8105 74.7676ZM30.0205 70.4902C30.4079 70.4902 30.6992 70.3926 30.8945 70.1973C31.0898 70.002 31.1875 69.7171 31.1875 69.3428C31.1875 68.9424 31.0882 68.6429 30.8897 68.4443C30.6911 68.2425 30.3981 68.1416 30.0107 68.1416C29.6397 68.1416 29.3532 68.2458 29.1514 68.4541C28.9528 68.6592 28.8535 68.9603 28.8535 69.3574C28.8535 69.722 28.9544 70.002 29.1563 70.1973C29.3581 70.3926 29.6462 70.4902 30.0205 70.4902ZM35.9559 67.5508C36.5906 67.5508 37.0708 67.707 37.3963 68.0195C37.7218 68.3288 37.8846 68.8268 37.8846 69.5137V73H37.0838V69.5674C37.0838 69.1214 36.9813 68.7878 36.7762 68.5664C36.5743 68.3451 36.2635 68.2344 35.8436 68.2344C35.2511 68.2344 34.8344 68.402 34.5936 68.7373C34.3527 69.0726 34.2322 69.5592 34.2322 70.1973V73H33.4217V67.6484H34.076L34.198 68.4199H34.242C34.3559 68.2311 34.5008 68.0732 34.6766 67.9463C34.8523 67.8161 35.0493 67.7184 35.2674 67.6533C35.4855 67.585 35.715 67.5508 35.9559 67.5508ZM41.2564 67.5605C41.8945 67.5605 42.3681 67.7038 42.6773 67.9902C42.9866 68.2767 43.1412 68.734 43.1412 69.3623V73H42.5504L42.3941 72.209H42.3551C42.2053 72.4043 42.0491 72.5687 41.8863 72.7021C41.7236 72.8324 41.5348 72.9316 41.3199 73C41.1083 73.0651 40.8479 73.0977 40.5387 73.0977C40.2132 73.0977 39.9234 73.0407 39.6695 72.9268C39.4189 72.8128 39.2203 72.6403 39.0738 72.4092C38.9306 72.1781 38.859 71.8851 38.859 71.5303C38.859 70.9964 39.0706 70.5863 39.4938 70.2998C39.9169 70.0133 40.5615 69.8571 41.4273 69.8311L42.3502 69.792V69.4648C42.3502 69.0026 42.2509 68.6787 42.0523 68.4932C41.8538 68.3076 41.5738 68.2148 41.2125 68.2148C40.9326 68.2148 40.6656 68.2555 40.4117 68.3369C40.1578 68.4183 39.9169 68.5143 39.6891 68.625L39.44 68.0098C39.6809 67.8861 39.9576 67.7803 40.2701 67.6924C40.5826 67.6045 40.9114 67.5605 41.2564 67.5605ZM42.3404 70.3633L41.525 70.3975C40.8577 70.4235 40.3873 70.5326 40.1139 70.7246C39.8404 70.9167 39.7037 71.1885 39.7037 71.54C39.7037 71.846 39.7965 72.0723 39.982 72.2188C40.1676 72.3652 40.4133 72.4385 40.7193 72.4385C41.1946 72.4385 41.5836 72.3066 41.8863 72.043C42.1891 71.7793 42.3404 71.3838 42.3404 70.8564V70.3633ZM47.0453 67.5508C47.6801 67.5508 48.1602 67.707 48.4857 68.0195C48.8113 68.3288 48.974 68.8268 48.974 69.5137V73H48.1732V69.5674C48.1732 69.1214 48.0707 68.7878 47.8656 68.5664C47.6638 68.3451 47.3529 68.2344 46.933 68.2344C46.3406 68.2344 45.9239 68.402 45.683 68.7373C45.4421 69.0726 45.3217 69.5592 45.3217 70.1973V73H44.5111V67.6484H45.1654L45.2875 68.4199H45.3314C45.4454 68.2311 45.5902 68.0732 45.766 67.9463C45.9418 67.8161 46.1387 67.7184 46.3568 67.6533C46.5749 67.585 46.8044 67.5508 47.0453 67.5508ZM52.0725 72.4336C52.2059 72.4336 52.3426 72.4222 52.4826 72.3994C52.6226 72.3766 52.7365 72.349 52.8244 72.3164V72.9463C52.73 72.9886 52.5982 73.0244 52.4289 73.0537C52.2629 73.083 52.1001 73.0977 51.9406 73.0977C51.6574 73.0977 51.4003 73.0488 51.1691 72.9512C50.938 72.8503 50.7525 72.681 50.6125 72.4434C50.4758 72.2057 50.4074 71.877 50.4074 71.457V68.2832H49.6457V67.8877L50.4123 67.5703L50.7346 66.4082H51.2229V67.6484H52.7902V68.2832H51.2229V71.4326C51.2229 71.7679 51.2994 72.0186 51.4523 72.1846C51.6086 72.3506 51.8153 72.4336 52.0725 72.4336ZM56.0281 65.8613H58.0496C58.9415 65.8613 59.6121 65.9948 60.0613 66.2617C60.5105 66.5286 60.7352 66.9827 60.7352 67.624C60.7352 67.9007 60.6814 68.1497 60.574 68.3711C60.4699 68.5892 60.3169 68.7699 60.115 68.9131C59.9132 69.0563 59.6642 69.1556 59.368 69.2109V69.2598C59.6805 69.3086 59.9572 69.3981 60.198 69.5283C60.4389 69.6585 60.6277 69.8408 60.7645 70.0752C60.9012 70.3096 60.9695 70.6074 60.9695 70.9688C60.9695 71.4082 60.867 71.7793 60.6619 72.082C60.4601 72.3848 60.1736 72.6143 59.8025 72.7705C59.4314 72.9235 58.992 73 58.4842 73H56.0281V65.8613ZM56.8582 68.9229H58.2254C58.8471 68.9229 59.2768 68.8203 59.5145 68.6152C59.7553 68.4102 59.8758 68.1107 59.8758 67.7168C59.8758 67.3099 59.7326 67.0169 59.4461 66.8379C59.1629 66.6589 58.7104 66.5693 58.0887 66.5693H56.8582V68.9229ZM56.8582 69.6211V72.292H58.3426C58.9773 72.292 59.4266 72.1683 59.6902 71.9209C59.9539 71.6702 60.0857 71.3333 60.0857 70.9102C60.0857 70.64 60.0255 70.4089 59.9051 70.2168C59.7879 70.0247 59.5958 69.8783 59.3289 69.7773C59.0652 69.6732 58.712 69.6211 58.2693 69.6211H56.8582ZM62.8863 73H62.0709V65.4023H62.8863V73ZM68.9145 70.3145C68.9145 70.7539 68.8575 71.1462 68.7436 71.4912C68.6296 71.8363 68.4652 72.1276 68.2504 72.3652C68.0356 72.6029 67.7751 72.7852 67.4691 72.9121C67.1664 73.0358 66.823 73.0977 66.4389 73.0977C66.0808 73.0977 65.752 73.0358 65.4525 72.9121C65.1563 72.7852 64.8992 72.6029 64.6811 72.3652C64.4662 72.1276 64.2986 71.8363 64.1781 71.4912C64.0609 71.1462 64.0023 70.7539 64.0023 70.3145C64.0023 69.7285 64.1016 69.2305 64.3002 68.8203C64.4988 68.4069 64.782 68.0928 65.1498 67.8779C65.5209 67.6598 65.962 67.5508 66.4731 67.5508C66.9613 67.5508 67.3878 67.6598 67.7523 67.8779C68.1202 68.096 68.405 68.4118 68.6068 68.8252C68.8119 69.2354 68.9145 69.7318 68.9145 70.3145ZM64.8422 70.3145C64.8422 70.7441 64.8992 71.1169 65.0131 71.4326C65.127 71.7484 65.3028 71.9925 65.5404 72.165C65.7781 72.3376 66.0841 72.4238 66.4584 72.4238C66.8295 72.4238 67.1339 72.3376 67.3715 72.165C67.6124 71.9925 67.7898 71.7484 67.9037 71.4326C68.0176 71.1169 68.0746 70.7441 68.0746 70.3145C68.0746 69.888 68.0176 69.5202 67.9037 69.2109C67.7898 68.8984 67.614 68.6576 67.3764 68.4883C67.1387 68.319 66.8311 68.2344 66.4535 68.2344C65.8969 68.2344 65.4884 68.4183 65.2279 68.7861C64.9708 69.154 64.8422 69.6634 64.8422 70.3145ZM74.6301 70.3145C74.6301 70.7539 74.5731 71.1462 74.4592 71.4912C74.3453 71.8363 74.1809 72.1276 73.966 72.3652C73.7512 72.6029 73.4908 72.7852 73.1848 72.9121C72.882 73.0358 72.5386 73.0977 72.1545 73.0977C71.7964 73.0977 71.4676 73.0358 71.1682 72.9121C70.8719 72.7852 70.6148 72.6029 70.3967 72.3652C70.1818 72.1276 70.0142 71.8363 69.8938 71.4912C69.7766 71.1462 69.718 70.7539 69.718 70.3145C69.718 69.7285 69.8173 69.2305 70.0158 68.8203C70.2144 68.4069 70.4976 68.0928 70.8654 67.8779C71.2365 67.6598 71.6776 67.5508 72.1887 67.5508C72.677 67.5508 73.1034 67.6598 73.468 67.8779C73.8358 68.096 74.1206 68.4118 74.3225 68.8252C74.5275 69.2354 74.6301 69.7318 74.6301 70.3145ZM70.5578 70.3145C70.5578 70.7441 70.6148 71.1169 70.7287 71.4326C70.8426 71.7484 71.0184 71.9925 71.2561 72.165C71.4937 72.3376 71.7997 72.4238 72.174 72.4238C72.5451 72.4238 72.8495 72.3376 73.0871 72.165C73.328 71.9925 73.5054 71.7484 73.6193 71.4326C73.7333 71.1169 73.7902 70.7441 73.7902 70.3145C73.7902 69.888 73.7333 69.5202 73.6193 69.2109C73.5054 68.8984 73.3296 68.6576 73.092 68.4883C72.8544 68.319 72.5467 68.2344 72.1691 68.2344C71.6125 68.2344 71.204 68.4183 70.9436 68.7861C70.6864 69.154 70.5578 69.6634 70.5578 70.3145ZM77.6357 73.0977C76.9587 73.0977 76.4215 72.8665 76.0244 72.4043C75.6305 71.9421 75.4336 71.2552 75.4336 70.3438C75.4336 69.4225 75.6354 68.7275 76.0391 68.2588C76.4427 67.7868 76.9798 67.5508 77.6504 67.5508C77.9336 67.5508 78.181 67.5882 78.3926 67.6631C78.6042 67.738 78.7865 67.8389 78.9395 67.9658C79.0924 68.0895 79.221 68.2311 79.3252 68.3906H79.3838C79.3708 68.2897 79.3577 68.1514 79.3447 67.9756C79.3317 67.7998 79.3252 67.6566 79.3252 67.5459V65.4023H80.1357V73H79.4814L79.3594 72.2383H79.3252C79.2243 72.3978 79.0957 72.5426 78.9395 72.6729C78.7865 72.8031 78.6025 72.9072 78.3877 72.9854C78.1761 73.0602 77.9255 73.0977 77.6357 73.0977ZM77.7627 72.4238C78.3356 72.4238 78.7409 72.2611 78.9785 71.9355C79.2161 71.61 79.335 71.1266 79.335 70.4854V70.3389C79.335 69.6585 79.221 69.1361 78.9932 68.7715C78.7686 68.4069 78.3584 68.2246 77.7627 68.2246C77.2646 68.2246 76.8919 68.4167 76.6445 68.8008C76.3971 69.1816 76.2734 69.7025 76.2734 70.3633C76.2734 71.0208 76.3955 71.5286 76.6396 71.8867C76.887 72.2448 77.2614 72.4238 77.7627 72.4238Z" fill="#456C51"/>
<path d="M34.9689 235.101C34.9689 235.524 34.8632 235.885 34.6516 236.185C34.4432 236.481 34.1503 236.707 33.7727 236.863C33.3951 237.02 32.9507 237.098 32.4396 237.098C32.1695 237.098 31.9139 237.085 31.673 237.059C31.4322 237.033 31.2108 236.995 31.009 236.946C30.8072 236.897 30.6298 236.837 30.4768 236.766V235.97C30.7209 236.071 31.0187 236.165 31.3703 236.253C31.7219 236.338 32.0897 236.38 32.4738 236.38C32.8319 236.38 33.1346 236.333 33.382 236.238C33.6294 236.141 33.8166 236.002 33.9436 235.823C34.0738 235.641 34.1389 235.423 34.1389 235.169C34.1389 234.925 34.0852 234.721 33.9777 234.559C33.8703 234.393 33.6913 234.243 33.4406 234.109C33.1932 233.973 32.8547 233.828 32.425 233.675C32.1223 233.567 31.8553 233.45 31.6242 233.323C31.3931 233.193 31.1994 233.047 31.0432 232.884C30.8869 232.721 30.7681 232.532 30.6867 232.317C30.6086 232.103 30.5695 231.857 30.5695 231.58C30.5695 231.199 30.6656 230.874 30.8576 230.604C31.0529 230.33 31.3215 230.122 31.6633 229.979C32.0083 229.832 32.4038 229.759 32.8498 229.759C33.2307 229.759 33.5822 229.795 33.9045 229.866C34.23 229.938 34.5279 230.034 34.798 230.154L34.5393 230.867C34.2821 230.76 34.0087 230.67 33.7189 230.599C33.4325 230.527 33.1363 230.491 32.8303 230.491C32.5243 230.491 32.2655 230.537 32.0539 230.628C31.8456 230.716 31.6861 230.841 31.5754 231.004C31.4647 231.167 31.4094 231.36 31.4094 231.585C31.4094 231.836 31.4615 232.044 31.5656 232.21C31.673 232.376 31.8423 232.524 32.0734 232.654C32.3078 232.781 32.6171 232.915 33.0012 233.055C33.4211 233.208 33.7775 233.37 34.0705 233.543C34.3635 233.712 34.5865 233.921 34.7395 234.168C34.8924 234.412 34.9689 234.723 34.9689 235.101ZM37.7354 236.434C37.8688 236.434 38.0055 236.422 38.1455 236.399C38.2855 236.377 38.3994 236.349 38.4873 236.316V236.946C38.3929 236.989 38.2611 237.024 38.0918 237.054C37.9258 237.083 37.763 237.098 37.6035 237.098C37.3203 237.098 37.0632 237.049 36.832 236.951C36.6009 236.85 36.4154 236.681 36.2754 236.443C36.1387 236.206 36.0703 235.877 36.0703 235.457V232.283H35.3086V231.888L36.0752 231.57L36.3975 230.408H36.8857V231.648H38.4531V232.283H36.8857V235.433C36.8857 235.768 36.9622 236.019 37.1152 236.185C37.2715 236.351 37.4782 236.434 37.7354 236.434ZM41.2732 231.561C41.9113 231.561 42.3849 231.704 42.6941 231.99C43.0034 232.277 43.158 232.734 43.158 233.362V237H42.5672L42.4109 236.209H42.3719C42.2221 236.404 42.0659 236.569 41.9031 236.702C41.7404 236.832 41.5516 236.932 41.3367 237C41.1251 237.065 40.8647 237.098 40.5555 237.098C40.2299 237.098 39.9402 237.041 39.6863 236.927C39.4357 236.813 39.2371 236.64 39.0906 236.409C38.9474 236.178 38.8758 235.885 38.8758 235.53C38.8758 234.996 39.0874 234.586 39.5105 234.3C39.9337 234.013 40.5783 233.857 41.4441 233.831L42.367 233.792V233.465C42.367 233.003 42.2677 232.679 42.0691 232.493C41.8706 232.308 41.5906 232.215 41.2293 232.215C40.9493 232.215 40.6824 232.256 40.4285 232.337C40.1746 232.418 39.9337 232.514 39.7059 232.625L39.4568 232.01C39.6977 231.886 39.9744 231.78 40.2869 231.692C40.5994 231.604 40.9282 231.561 41.2732 231.561ZM42.3572 234.363L41.5418 234.397C40.8745 234.424 40.4041 234.533 40.1307 234.725C39.8572 234.917 39.7205 235.188 39.7205 235.54C39.7205 235.846 39.8133 236.072 39.9988 236.219C40.1844 236.365 40.4301 236.438 40.7361 236.438C41.2114 236.438 41.6004 236.307 41.9031 236.043C42.2059 235.779 42.3572 235.384 42.3572 234.856V234.363ZM46.0221 239.402C45.3189 239.402 44.777 239.271 44.3961 239.007C44.0152 238.746 43.8248 238.38 43.8248 237.908C43.8248 237.573 43.9306 237.286 44.1422 237.049C44.357 236.811 44.6533 236.653 45.0309 236.575C44.8909 236.51 44.7704 236.412 44.6695 236.282C44.5719 236.152 44.523 236.002 44.523 235.833C44.523 235.638 44.5768 235.467 44.6842 235.32C44.7949 235.171 44.9625 235.027 45.1871 234.891C44.9072 234.777 44.6793 234.585 44.5035 234.314C44.331 234.041 44.2447 233.724 44.2447 233.362C44.2447 232.978 44.3245 232.651 44.484 232.381C44.6435 232.107 44.8746 231.899 45.1773 231.756C45.4801 231.613 45.8463 231.541 46.276 231.541C46.3704 231.541 46.4648 231.546 46.5592 231.556C46.6568 231.562 46.7496 231.574 46.8375 231.59C46.9254 231.603 47.0019 231.619 47.067 231.639H48.9029V232.161L47.9166 232.283C48.0143 232.41 48.0956 232.563 48.1607 232.742C48.2258 232.921 48.2584 233.12 48.2584 233.338C48.2584 233.872 48.0777 234.297 47.7164 234.612C47.3551 234.925 46.8587 235.081 46.2271 235.081C46.0774 235.081 45.9244 235.068 45.7682 235.042C45.6087 235.13 45.4866 235.228 45.402 235.335C45.3206 235.442 45.2799 235.566 45.2799 235.706C45.2799 235.81 45.3108 235.893 45.3727 235.955C45.4378 236.017 45.5305 236.062 45.651 236.092C45.7714 236.118 45.9163 236.131 46.0855 236.131H47.0279C47.6106 236.131 48.0566 236.253 48.3658 236.497C48.6783 236.741 48.8346 237.098 48.8346 237.566C48.8346 238.159 48.5937 238.613 48.1119 238.929C47.6301 239.244 46.9335 239.402 46.0221 239.402ZM46.0465 238.768C46.4892 238.768 46.8554 238.722 47.1451 238.631C47.4381 238.543 47.6562 238.414 47.7994 238.245C47.9459 238.079 48.0191 237.881 48.0191 237.649C48.0191 237.435 47.9703 237.272 47.8727 237.161C47.775 237.054 47.6318 236.982 47.443 236.946C47.2542 236.907 47.023 236.888 46.7496 236.888H45.8219C45.581 236.888 45.371 236.925 45.192 237C45.013 237.075 44.8746 237.186 44.777 237.332C44.6826 237.479 44.6354 237.661 44.6354 237.879C44.6354 238.169 44.7574 238.388 45.0016 238.538C45.2457 238.691 45.594 238.768 46.0465 238.768ZM46.2564 234.49C46.6438 234.49 46.9352 234.393 47.1305 234.197C47.3258 234.002 47.4234 233.717 47.4234 233.343C47.4234 232.942 47.3242 232.643 47.1256 232.444C46.927 232.243 46.6341 232.142 46.2467 232.142C45.8756 232.142 45.5891 232.246 45.3873 232.454C45.1887 232.659 45.0895 232.96 45.0895 233.357C45.0895 233.722 45.1904 234.002 45.3922 234.197C45.594 234.393 45.8821 234.49 46.2564 234.49ZM52.1918 231.551C52.8266 231.551 53.3067 231.707 53.6322 232.02C53.9577 232.329 54.1205 232.827 54.1205 233.514V237H53.3197V233.567C53.3197 233.121 53.2172 232.788 53.0121 232.566C52.8103 232.345 52.4994 232.234 52.0795 232.234C51.487 232.234 51.0704 232.402 50.8295 232.737C50.5886 233.073 50.4682 233.559 50.4682 234.197V237H49.6576V231.648H50.3119L50.434 232.42H50.4779C50.5919 232.231 50.7367 232.073 50.9125 231.946C51.0883 231.816 51.2852 231.718 51.5033 231.653C51.7214 231.585 51.9509 231.551 52.1918 231.551ZM57.4924 231.561C58.1304 231.561 58.604 231.704 58.9133 231.99C59.2225 232.277 59.3771 232.734 59.3771 233.362V237H58.7863L58.6301 236.209H58.591C58.4413 236.404 58.285 236.569 58.1223 236.702C57.9595 236.832 57.7707 236.932 57.5559 237C57.3443 237.065 57.0839 237.098 56.7746 237.098C56.4491 237.098 56.1594 237.041 55.9055 236.927C55.6548 236.813 55.4562 236.64 55.3098 236.409C55.1665 236.178 55.0949 235.885 55.0949 235.53C55.0949 234.996 55.3065 234.586 55.7297 234.3C56.1529 234.013 56.7974 233.857 57.6633 233.831L58.5861 233.792V233.465C58.5861 233.003 58.4868 232.679 58.2883 232.493C58.0897 232.308 57.8098 232.215 57.4484 232.215C57.1685 232.215 56.9016 232.256 56.6477 232.337C56.3937 232.418 56.1529 232.514 55.925 232.625L55.676 232.01C55.9169 231.886 56.1936 231.78 56.5061 231.692C56.8186 231.604 57.1473 231.561 57.4924 231.561ZM58.5764 234.363L57.7609 234.397C57.0936 234.424 56.6232 234.533 56.3498 234.725C56.0764 234.917 55.9396 235.188 55.9396 235.54C55.9396 235.846 56.0324 236.072 56.218 236.219C56.4035 236.365 56.6493 236.438 56.9553 236.438C57.4305 236.438 57.8195 236.307 58.1223 236.043C58.425 235.779 58.5764 235.384 58.5764 234.856V234.363ZM63.2812 231.551C63.916 231.551 64.3962 231.707 64.7217 232.02C65.0472 232.329 65.21 232.827 65.21 233.514V237H64.4092V233.567C64.4092 233.121 64.3066 232.788 64.1016 232.566C63.8997 232.345 63.5889 232.234 63.1689 232.234C62.5765 232.234 62.1598 232.402 61.9189 232.737C61.6781 233.073 61.5576 233.559 61.5576 234.197V237H60.7471V231.648H61.4014L61.5234 232.42H61.5674C61.6813 232.231 61.8262 232.073 62.002 231.946C62.1777 231.816 62.3747 231.718 62.5928 231.653C62.8109 231.585 63.0404 231.551 63.2812 231.551ZM68.3084 236.434C68.4419 236.434 68.5786 236.422 68.7186 236.399C68.8585 236.377 68.9725 236.349 69.0603 236.316V236.946C68.9659 236.989 68.8341 237.024 68.6648 237.054C68.4988 237.083 68.3361 237.098 68.1766 237.098C67.8934 237.098 67.6362 237.049 67.4051 236.951C67.174 236.85 66.9884 236.681 66.8484 236.443C66.7117 236.206 66.6434 235.877 66.6434 235.457V232.283H65.8816V231.888L66.6482 231.57L66.9705 230.408H67.4588V231.648H69.0262V232.283H67.4588V235.433C67.4588 235.768 67.5353 236.019 67.6883 236.185C67.8445 236.351 68.0512 236.434 68.3084 236.434ZM78.4555 233.421C78.4555 234.007 78.3757 234.537 78.2162 235.013C78.0567 235.488 77.8191 235.89 77.5033 236.219C77.1908 236.548 76.8002 236.787 76.3314 236.937L78.0111 238.699H76.8246L75.4428 237.088C75.4005 237.088 75.3565 237.09 75.3109 237.093C75.2686 237.096 75.2263 237.098 75.184 237.098C74.6306 237.098 74.1472 237.01 73.7338 236.834C73.3236 236.658 72.9818 236.408 72.7084 236.082C72.4382 235.757 72.2348 235.368 72.098 234.915C71.9646 234.463 71.8979 233.961 71.8979 233.411C71.8979 232.682 72.0183 232.042 72.2592 231.492C72.5001 230.942 72.8646 230.514 73.3529 230.208C73.8445 229.902 74.4597 229.749 75.1986 229.749C75.905 229.749 76.4991 229.9 76.9809 230.203C77.4659 230.506 77.8321 230.932 78.0795 231.482C78.3301 232.029 78.4555 232.675 78.4555 233.421ZM72.7719 233.421C72.7719 234.026 72.8581 234.55 73.0307 234.993C73.2032 235.436 73.4669 235.778 73.8217 236.019C74.1798 236.259 74.6339 236.38 75.184 236.38C75.7374 236.38 76.1898 236.259 76.5414 236.019C76.8962 235.778 77.1583 235.436 77.3275 234.993C77.4968 234.55 77.5814 234.026 77.5814 233.421C77.5814 232.5 77.3878 231.78 77.0004 231.263C76.6163 230.742 76.0157 230.481 75.1986 230.481C74.6452 230.481 74.1895 230.6 73.8314 230.838C73.4734 231.076 73.2064 231.414 73.0307 231.854C72.8581 232.29 72.7719 232.812 72.7719 233.421ZM80.4357 231.648V237H79.6252V231.648H80.4357ZM80.0402 229.646C80.1737 229.646 80.2876 229.69 80.382 229.778C80.4797 229.863 80.5285 229.996 80.5285 230.179C80.5285 230.358 80.4797 230.491 80.382 230.579C80.2876 230.667 80.1737 230.711 80.0402 230.711C79.9003 230.711 79.7831 230.667 79.6887 230.579C79.5975 230.491 79.552 230.358 79.552 230.179C79.552 229.996 79.5975 229.863 79.6887 229.778C79.7831 229.69 79.9003 229.646 80.0402 229.646Z" fill="#456C51"/>
<path d="M171.5 39L252.464 72.5363L286 153.5L252.464 234.464L171.5 268L90.5363 234.464L57 153.5L90.5363 72.5363L171.5 39Z" fill="#C1E1CE" fill-opacity="0.1"/>
<path d="M171.5 61L236.907 88.0926L264 153.5L236.907 218.907L171.5 246L106.093 218.907L79 153.5L106.093 88.0926L171.5 61Z" fill="#C1E1CE" fill-opacity="0.2"/>
<path d="M171.5 83L221.351 103.649L242 153.5L221.351 203.351L171.5 224L121.649 203.351L101 153.5L121.649 103.649L171.5 83Z" fill="#C1E1CE" fill-opacity="0.3"/>
<path d="M171.5 105L205.795 119.205L220 153.5L205.795 187.795L171.5 202L137.205 187.795L123 153.5L137.205 119.205L171.5 105Z" fill="#C1E1CE" fill-opacity="0.3"/>
<path d="M171.5 40V267" stroke="#C1E1CE"/>
<path d="M285 153.5L58 153.5" stroke="#C1E1CE"/>
<path d="M252 234L91 73" stroke="#C1E1CE"/>
<path d="M91 234L252 73" stroke="#C1E1CE"/>
<path d="M91.3016 73.3016L171.5 40.0824L251.698 73.3016L284.918 153.5L251.698 233.698L171.5 266.918L91.3016 233.698L58.0824 153.5L91.3016 73.3016Z" stroke="#65AF7C" stroke-width="2"/>
<circle cx="172" cy="153" r="27" fill="#65AF7C"/>
<circle cx="204" cy="187" r="8" fill="#65AF7C" fill-opacity="0.3"/>
<circle cx="204" cy="187" r="5" fill="#65AF7C"/>
<path d="M151.834 149.861H153.958C154.879 149.861 155.574 149.995 156.043 150.262C156.512 150.529 156.746 150.989 156.746 151.644C156.746 151.917 156.697 152.164 156.6 152.386C156.505 152.604 156.367 152.785 156.185 152.928C156.002 153.068 155.778 153.162 155.511 153.211V153.26C155.788 153.309 156.033 153.395 156.248 153.519C156.466 153.642 156.637 153.82 156.761 154.051C156.888 154.282 156.951 154.581 156.951 154.949C156.951 155.385 156.847 155.757 156.639 156.062C156.434 156.368 156.139 156.601 155.755 156.761C155.374 156.92 154.922 157 154.398 157H151.834V149.861ZM153.006 152.806H154.129C154.66 152.806 155.028 152.719 155.233 152.547C155.438 152.374 155.54 152.122 155.54 151.79C155.54 151.451 155.418 151.207 155.174 151.058C154.933 150.908 154.549 150.833 154.022 150.833H153.006V152.806ZM153.006 153.753V156.019H154.241C154.788 156.019 155.172 155.913 155.394 155.701C155.615 155.49 155.726 155.203 155.726 154.842C155.726 154.62 155.675 154.428 155.574 154.266C155.477 154.103 155.316 153.978 155.091 153.89C154.866 153.799 154.564 153.753 154.183 153.753H153.006ZM160.128 151.492C160.812 151.492 161.327 151.644 161.676 151.946C162.027 152.249 162.203 152.721 162.203 153.362V157H161.388L161.168 156.233H161.129C160.976 156.429 160.818 156.59 160.655 156.717C160.493 156.844 160.304 156.938 160.089 157C159.877 157.065 159.618 157.098 159.312 157.098C158.99 157.098 158.702 157.039 158.448 156.922C158.194 156.801 157.994 156.619 157.848 156.375C157.701 156.131 157.628 155.822 157.628 155.447C157.628 154.891 157.835 154.472 158.248 154.192C158.665 153.912 159.293 153.758 160.133 153.729L161.07 153.694V153.411C161.07 153.037 160.982 152.77 160.807 152.61C160.634 152.451 160.39 152.371 160.074 152.371C159.804 152.371 159.542 152.41 159.288 152.488C159.034 152.566 158.787 152.662 158.546 152.776L158.175 151.966C158.438 151.826 158.738 151.712 159.073 151.624C159.412 151.536 159.763 151.492 160.128 151.492ZM161.065 154.417L160.367 154.441C159.794 154.461 159.392 154.559 159.161 154.734C158.93 154.91 158.814 155.151 158.814 155.457C158.814 155.724 158.894 155.919 159.054 156.043C159.213 156.163 159.423 156.224 159.684 156.224C160.081 156.224 160.41 156.111 160.67 155.887C160.934 155.659 161.065 155.325 161.065 154.886V154.417ZM164.662 157H163.51V149.402H164.662V157ZM168.122 151.492C168.805 151.492 169.321 151.644 169.67 151.946C170.021 152.249 170.197 152.721 170.197 153.362V157H169.381L169.162 156.233H169.123C168.97 156.429 168.812 156.59 168.649 156.717C168.486 156.844 168.297 156.938 168.083 157C167.871 157.065 167.612 157.098 167.306 157.098C166.984 157.098 166.696 157.039 166.442 156.922C166.188 156.801 165.988 156.619 165.841 156.375C165.695 156.131 165.622 155.822 165.622 155.447C165.622 154.891 165.828 154.472 166.242 154.192C166.658 153.912 167.287 153.758 168.127 153.729L169.064 153.694V153.411C169.064 153.037 168.976 152.77 168.8 152.61C168.628 152.451 168.384 152.371 168.068 152.371C167.798 152.371 167.536 152.41 167.282 152.488C167.028 152.566 166.781 152.662 166.54 152.776L166.169 151.966C166.432 151.826 166.732 151.712 167.067 151.624C167.406 151.536 167.757 151.492 168.122 151.492ZM169.059 154.417L168.361 154.441C167.788 154.461 167.386 154.559 167.155 154.734C166.924 154.91 166.808 155.151 166.808 155.457C166.808 155.724 166.888 155.919 167.047 156.043C167.207 156.163 167.417 156.224 167.677 156.224C168.074 156.224 168.403 156.111 168.664 155.887C168.927 155.659 169.059 155.325 169.059 154.886V154.417ZM174.321 151.492C174.929 151.492 175.403 151.65 175.742 151.966C176.083 152.278 176.254 152.781 176.254 153.475V157H175.107V153.689C175.107 153.27 175.021 152.955 174.848 152.747C174.676 152.535 174.409 152.43 174.047 152.43C173.523 152.43 173.159 152.591 172.954 152.913C172.752 153.235 172.651 153.702 172.651 154.314V157H171.503V151.595H172.397L172.558 152.327H172.621C172.739 152.138 172.884 151.984 173.056 151.863C173.232 151.74 173.427 151.647 173.642 151.585C173.86 151.523 174.086 151.492 174.321 151.492ZM179.738 157.098C179.227 157.098 178.785 156.998 178.41 156.8C178.036 156.601 177.748 156.297 177.546 155.887C177.344 155.477 177.243 154.956 177.243 154.324C177.243 153.667 177.354 153.13 177.575 152.713C177.797 152.296 178.103 151.989 178.493 151.79C178.887 151.591 179.338 151.492 179.846 151.492C180.168 151.492 180.46 151.525 180.72 151.59C180.984 151.652 181.207 151.728 181.389 151.819L181.047 152.737C180.849 152.656 180.645 152.588 180.437 152.532C180.228 152.477 180.028 152.449 179.836 152.449C179.52 152.449 179.257 152.519 179.045 152.659C178.837 152.799 178.681 153.007 178.576 153.284C178.475 153.561 178.425 153.904 178.425 154.314C178.425 154.712 178.477 155.047 178.581 155.32C178.685 155.59 178.84 155.796 179.045 155.936C179.25 156.072 179.502 156.141 179.802 156.141C180.098 156.141 180.363 156.105 180.598 156.033C180.832 155.962 181.054 155.869 181.262 155.755V156.751C181.057 156.868 180.837 156.954 180.603 157.01C180.368 157.068 180.08 157.098 179.738 157.098ZM184.385 151.492C184.867 151.492 185.28 151.591 185.625 151.79C185.97 151.989 186.235 152.27 186.421 152.635C186.606 152.999 186.699 153.436 186.699 153.943V154.559H183.091C183.104 155.083 183.244 155.486 183.511 155.77C183.781 156.053 184.159 156.194 184.644 156.194C184.989 156.194 185.298 156.162 185.571 156.097C185.848 156.028 186.133 155.929 186.426 155.799V156.731C186.156 156.858 185.881 156.951 185.601 157.01C185.321 157.068 184.985 157.098 184.595 157.098C184.064 157.098 183.597 156.995 183.193 156.79C182.793 156.582 182.479 156.272 182.251 155.862C182.026 155.452 181.914 154.943 181.914 154.334C181.914 153.729 182.017 153.214 182.222 152.791C182.427 152.368 182.715 152.046 183.086 151.824C183.457 151.603 183.89 151.492 184.385 151.492ZM184.385 152.356C184.023 152.356 183.73 152.474 183.506 152.708C183.285 152.942 183.154 153.286 183.115 153.738H185.576C185.573 153.468 185.527 153.229 185.439 153.021C185.355 152.812 185.225 152.649 185.049 152.532C184.876 152.415 184.655 152.356 184.385 152.356ZM189.51 157.098C188.865 157.098 188.347 156.863 187.957 156.395C187.569 155.923 187.376 155.228 187.376 154.31C187.376 153.382 187.573 152.68 187.967 152.205C188.364 151.73 188.886 151.492 189.534 151.492C189.807 151.492 190.047 151.53 190.252 151.604C190.457 151.676 190.633 151.774 190.779 151.897C190.929 152.021 191.056 152.16 191.16 152.312H191.214C191.197 152.212 191.178 152.067 191.155 151.878C191.136 151.686 191.126 151.508 191.126 151.346V149.402H192.278V157H191.38L191.175 156.263H191.126C191.028 156.419 190.904 156.561 190.755 156.688C190.608 156.811 190.432 156.91 190.227 156.985C190.026 157.06 189.786 157.098 189.51 157.098ZM189.832 156.165C190.323 156.165 190.67 156.023 190.872 155.74C191.074 155.457 191.178 155.032 191.184 154.466V154.314C191.184 153.709 191.087 153.245 190.891 152.923C190.696 152.597 190.34 152.435 189.822 152.435C189.409 152.435 189.093 152.602 188.875 152.938C188.66 153.27 188.553 153.733 188.553 154.329C188.553 154.925 188.66 155.381 188.875 155.696C189.093 156.009 189.412 156.165 189.832 156.165Z" fill="#FFFCF5"/>
</g>
<defs>
<clipPath id="clip0_4623_207">
<rect width="343" height="306" fill="white"/>
</clipPath>
</defs>
</svg>
