<svg width="375" height="412" viewBox="0 0 375 412" fill="none" xmlns="http://www.w3.org/2000/svg">
<g clip-path="url(#clip0_1269_7703)">
<path d="M467.203 138.732C470.125 163.319 478.023 266.109 405.895 327.737C333.767 389.364 211.423 452.366 33.796 379.292C-143.831 306.217 -118.266 23.9929 2.43403 -83.1462C123.134 -190.285 228.085 -206.769 368.507 -77.3319C412.149 -37.2692 456.658 50.7316 467.203 138.732Z" fill="#FFFCF5"/>
<path d="M150.999 158.224C156.56 158.224 161.067 153.716 161.067 148.156C161.067 142.596 156.56 138.088 150.999 138.088C145.439 138.088 140.932 142.596 140.932 148.156C140.932 153.716 145.439 158.224 150.999 158.224Z" fill="#F2AA8F"/>
<path d="M132.254 171.004C132.7 170.666 133.221 170.44 133.772 170.346C134.324 170.251 134.89 170.291 135.423 170.461C137 171.156 136.796 172.156 136.44 172.868C136.349 173.068 136.213 173.244 136.043 173.384C135.874 173.524 135.675 173.624 135.461 173.676C135.248 173.728 135.025 173.732 134.81 173.686C134.595 173.639 134.393 173.545 134.22 173.41C133.084 172.563 133.847 171.343 132.254 171.004Z" stroke="#456C51" stroke-linecap="round" stroke-linejoin="round"/>
<path d="M134.39 171.393C135.648 171.919 136.684 172.866 137.322 174.071" stroke="#456C51" stroke-linecap="round" stroke-linejoin="round"/>
<path d="M169.763 171.003C169.314 170.666 168.79 170.44 168.236 170.346C167.682 170.251 167.113 170.291 166.577 170.461C165.001 171.156 165.204 172.156 165.56 172.868C165.652 173.068 165.787 173.244 165.957 173.384C166.126 173.524 166.325 173.624 166.539 173.676C166.753 173.728 166.975 173.731 167.19 173.685C167.405 173.639 167.607 173.545 167.78 173.41C168.95 172.563 168.17 171.342 169.763 171.003Z" stroke="#456C51" stroke-linecap="round" stroke-linejoin="round"/>
<path d="M167.611 171.393C166.355 171.916 165.323 172.864 164.695 174.071" stroke="#456C51" stroke-linecap="round" stroke-linejoin="round"/>
<path d="M149.491 151.936C149.491 151.936 149.661 155.122 147.678 155.122C145.695 155.122 143.186 155.58 143.186 157.783C143.186 159.987 143.525 165.122 141 166.648" stroke="#456C51" stroke-width="1.5" stroke-linecap="round" stroke-linejoin="round"/>
<path d="M152.799 151.936C152.799 151.936 152.612 155.088 154.595 155.088C156.578 155.088 159.104 155.546 159.104 157.749C159.104 159.953 158.765 165.088 161.29 166.614" stroke="#456C51" stroke-width="1.5" stroke-linecap="round" stroke-linejoin="round"/>
<path d="M151 152.309C153.181 152.309 154.949 150.45 154.949 148.156C154.949 145.863 153.181 144.004 151 144.004C148.819 144.004 147.051 145.863 147.051 148.156C147.051 150.45 148.819 152.309 151 152.309Z" stroke="#456C51" stroke-width="1.5" stroke-linecap="round" stroke-linejoin="round"/>
<path d="M146.406 158.902C147.115 161.424 147.115 164.092 146.406 166.614C146.251 166.998 145.99 167.331 145.655 167.573C145.319 167.816 144.921 167.96 144.508 167.987C142.694 168.105 139.525 168.597 139.576 170.444C139.576 173.004 143.491 175.783 150.322 173.004C157.152 170.224 157.881 170.004 158.796 170.715" stroke="#456C51" stroke-width="1.5" stroke-linecap="round" stroke-linejoin="round"/>
<path d="M155.594 158.902C154.894 161.425 154.894 164.091 155.594 166.614C155.75 167 156.013 167.335 156.352 167.578C156.691 167.821 157.092 167.963 157.509 167.987C159.305 168.105 162.492 168.597 162.441 170.444C162.441 173.004 158.526 175.783 151.695 173.004C144.865 170.224 144.119 170.004 143.221 170.715" stroke="#456C51" stroke-width="1.5" stroke-linecap="round" stroke-linejoin="round"/>
<path d="M140.355 169.037C137.061 166.766 134.58 163.5 133.273 159.718C131.967 155.935 131.904 151.834 133.094 148.014C134.283 144.193 136.664 140.853 139.886 138.481C143.109 136.109 147.006 134.829 151.008 134.829C155.009 134.829 158.906 136.109 162.129 138.481C165.352 140.853 167.732 144.193 168.922 148.014C170.112 151.834 170.049 155.935 168.742 159.718C167.436 163.5 164.954 166.766 161.66 169.037" stroke="#456C51" stroke-width="1.5" stroke-linecap="round" stroke-linejoin="round"/>
<path d="M159.984 149.715C160.677 148.359 161.053 146.863 161.084 145.34C161.114 143.817 160.799 142.307 160.162 140.923C159.524 139.54 158.581 138.319 157.404 137.353C156.226 136.387 154.845 135.7 153.363 135.346C151.882 134.991 150.339 134.977 148.852 135.304C147.364 135.632 145.97 136.293 144.775 137.238C143.58 138.182 142.615 139.386 141.952 140.757C141.29 142.129 140.947 143.633 140.95 145.156C140.956 147.12 141.546 149.037 142.645 150.665" stroke="#456C51" stroke-width="0.5" stroke-linecap="round" stroke-linejoin="round" stroke-dasharray="0.03 1.31"/>
<path d="M173.218 274.068L167.936 273.294C167.01 273.158 166.149 273.799 166.013 274.725L160.848 309.958C160.712 310.884 161.353 311.745 162.279 311.881L167.561 312.655C168.488 312.791 169.349 312.15 169.484 311.224L174.649 275.991C174.785 275.065 174.144 274.204 173.218 274.068Z" fill="#C1E1CE"/>
<path d="M204.813 320.664C203.411 320.134 202.192 319.21 201.304 318.003C200.645 317.104 200.183 316.076 199.95 314.986C199.716 313.896 199.716 312.769 199.949 311.679C200.182 310.589 200.644 309.56 201.303 308.661C201.962 307.762 202.804 307.013 203.773 306.463C204.743 305.912 205.818 305.573 206.927 305.468C208.037 305.363 209.157 305.494 210.212 305.852C211.268 306.211 212.236 306.789 213.052 307.548C213.868 308.307 214.514 309.23 214.948 310.257C215.533 311.613 215.716 313.109 215.476 314.566C215.235 316.023 214.582 317.381 213.592 318.478C212.524 319.613 210.897 321.037 209.202 320.8C208.767 320.728 208.376 320.49 208.114 320.136C207.851 319.781 207.737 319.339 207.796 318.901C207.867 318.466 208.105 318.075 208.459 317.813C208.814 317.55 209.257 317.436 209.694 317.494C211.033 317.816 213.558 321.189 216.474 325.122" stroke="#456C51" stroke-width="1.5" stroke-linecap="round" stroke-linejoin="round"/>
<path d="M208.338 301.427L212.694 271.732L162.135 264.325L153.661 322.664C153.05 326.749 154.864 330.46 159.474 331.138C160.269 331.347 161.104 331.353 161.902 331.154C162.699 330.956 163.434 330.56 164.039 330.002C164.643 329.445 165.098 328.745 165.36 327.966C165.623 327.187 165.685 326.355 165.542 325.545C165.135 320.715 161.067 318.935 148.593 317.071" stroke="#456C51" stroke-width="1.5" stroke-linecap="round" stroke-linejoin="round"/>
<path d="M166.661 320.41L208.186 326.494C208.943 326.604 209.672 326.863 210.329 327.255C210.986 327.647 211.56 328.164 212.016 328.779C212.473 329.393 212.804 330.091 212.99 330.833C213.176 331.576 213.214 332.347 213.101 333.104C212.875 334.629 212.054 336.001 210.819 336.922C209.583 337.843 208.034 338.238 206.508 338.02L159.39 331.054" stroke="#456C51" stroke-width="1.5" stroke-linecap="round" stroke-linejoin="round"/>
<path d="M187.204 301.02C187.075 300.904 186.978 300.758 186.922 300.595C186.866 300.432 186.852 300.258 186.882 300.088L187.729 300.223C187.71 300.342 187.716 300.463 187.745 300.579C187.774 300.696 187.826 300.805 187.898 300.901C187.973 300.991 188.066 301.065 188.171 301.118C188.277 301.17 188.391 301.2 188.509 301.206C188.642 301.236 188.78 301.238 188.915 301.212C189.049 301.186 189.176 301.132 189.288 301.054C189.398 300.973 189.489 300.869 189.553 300.748C189.618 300.628 189.655 300.495 189.661 300.359C189.692 300.22 189.695 300.076 189.668 299.936C189.642 299.796 189.588 299.663 189.509 299.545C189.42 299.436 189.309 299.346 189.183 299.282C189.058 299.218 188.92 299.181 188.78 299.172C188.615 299.144 188.446 299.149 188.283 299.187C188.12 299.224 187.966 299.294 187.831 299.393L187.085 299.274L187.61 297.257L190.729 297.715V298.02L188.424 297.681L188.102 298.952C188.409 298.882 188.727 298.882 189.034 298.952C189.346 298.991 189.646 299.095 189.915 299.257C190.147 299.379 190.336 299.568 190.458 299.799C190.576 300.017 190.618 300.267 190.576 300.511C190.556 300.704 190.488 300.888 190.378 301.048C190.269 301.208 190.121 301.338 189.949 301.427C189.496 301.626 188.991 301.674 188.509 301.562C188.028 301.521 187.572 301.332 187.204 301.02Z" fill="#456C51"/>
<path d="M191.289 299.088C191.516 298.929 191.678 298.695 191.747 298.427C191.697 298.443 191.644 298.443 191.594 298.427C191.553 298.423 191.514 298.411 191.479 298.391C191.444 298.37 191.414 298.342 191.391 298.308C191.373 298.268 191.365 298.225 191.365 298.181C191.365 298.137 191.373 298.094 191.391 298.054C191.391 298.01 191.402 297.967 191.423 297.929C191.444 297.891 191.473 297.858 191.509 297.833C191.597 297.799 191.693 297.799 191.781 297.833C191.836 297.839 191.889 297.857 191.936 297.886C191.983 297.915 192.023 297.955 192.052 298.003C192.095 298.118 192.095 298.244 192.052 298.359C192.016 298.545 191.934 298.72 191.814 298.867C191.7 299.019 191.555 299.145 191.391 299.24L191.289 299.088ZM192.306 299.24C192.422 299.167 192.521 299.068 192.594 298.952C192.675 298.84 192.733 298.714 192.764 298.579H192.628C192.585 298.575 192.544 298.562 192.506 298.542C192.468 298.522 192.435 298.494 192.408 298.461C192.39 298.42 192.382 298.377 192.382 298.333C192.382 298.29 192.39 298.246 192.408 298.206C192.412 298.162 192.426 298.118 192.449 298.08C192.473 298.042 192.505 298.01 192.543 297.986C192.586 297.967 192.632 297.958 192.679 297.958C192.726 297.958 192.772 297.967 192.814 297.986C192.87 297.991 192.923 298.009 192.97 298.039C193.017 298.068 193.057 298.108 193.086 298.155C193.123 298.271 193.123 298.396 193.086 298.511C193.056 298.697 192.98 298.872 192.865 299.02C192.744 299.172 192.595 299.299 192.425 299.393L192.306 299.24Z" fill="#456C51"/>
<path d="M196.288 299.986C196.513 300.123 196.7 300.316 196.83 300.545C196.945 300.776 196.987 301.036 196.949 301.291C196.9 301.557 196.777 301.804 196.593 302.003C196.392 302.195 196.148 302.334 195.881 302.41C195.556 302.47 195.223 302.47 194.898 302.41C194.631 302.389 194.372 302.313 194.136 302.188C193.899 302.063 193.692 301.89 193.525 301.681C193.368 301.463 193.26 301.214 193.207 300.951C193.155 300.688 193.159 300.417 193.22 300.155C193.261 299.76 193.401 299.381 193.627 299.054C193.826 298.766 194.111 298.546 194.44 298.427C194.796 298.287 195.184 298.252 195.559 298.325C195.828 298.355 196.088 298.442 196.322 298.579C196.537 298.685 196.724 298.842 196.864 299.037C197.007 299.194 197.086 299.4 197.084 299.613L196.406 299.511C196.382 299.278 196.274 299.061 196.101 298.901C195.936 298.74 195.721 298.638 195.491 298.613C195.28 298.574 195.062 298.616 194.881 298.732C194.675 298.839 194.504 299.004 194.389 299.206C194.243 299.451 194.145 299.721 194.101 300.003C194.267 299.854 194.464 299.744 194.678 299.681C194.913 299.639 195.154 299.639 195.389 299.681C195.707 299.72 196.012 299.824 196.288 299.986ZM195.694 301.969C195.915 301.772 196.054 301.5 196.084 301.206C196.115 301.065 196.117 300.918 196.091 300.776C196.065 300.633 196.011 300.497 195.932 300.376C195.859 300.259 195.76 300.161 195.642 300.09C195.524 300.02 195.391 299.978 195.254 299.969C195.124 299.942 194.989 299.944 194.86 299.977C194.73 300.009 194.61 300.07 194.508 300.155C194.289 300.358 194.155 300.637 194.135 300.935C194.071 301.219 194.119 301.517 194.271 301.766C194.347 301.874 194.445 301.964 194.559 302.032C194.673 302.099 194.8 302.141 194.932 302.155C195.065 302.179 195.202 302.175 195.333 302.143C195.464 302.111 195.587 302.052 195.694 301.969Z" fill="#456C51"/>
<path d="M191.592 279.122C191.934 279.028 192.256 278.873 192.542 278.664C192.738 278.51 192.866 278.285 192.897 278.037C192.929 277.916 192.932 277.789 192.906 277.667C192.881 277.545 192.827 277.43 192.75 277.332C192.673 277.233 192.575 277.154 192.462 277.1C192.349 277.046 192.226 277.019 192.101 277.02C191.967 276.991 191.829 276.989 191.695 277.016C191.561 277.042 191.434 277.095 191.321 277.173C191.216 277.25 191.129 277.35 191.064 277.463C191 277.577 190.961 277.703 190.948 277.834L190.27 277.732C190.327 277.488 190.45 277.265 190.626 277.088C190.818 276.913 191.052 276.791 191.304 276.732C191.596 276.68 191.894 276.68 192.186 276.732C192.494 276.776 192.792 276.874 193.067 277.02C193.289 277.139 193.476 277.314 193.609 277.528C193.719 277.705 193.769 277.911 193.754 278.119C193.739 278.326 193.659 278.522 193.525 278.681C193.372 278.855 193.188 278.999 192.982 279.105C192.646 279.271 192.301 279.418 191.948 279.545C191.743 279.605 191.545 279.684 191.355 279.783C191.24 279.844 191.132 279.917 191.033 280.003C190.96 280.101 190.902 280.209 190.864 280.325L193.457 280.715V281.037L189.897 280.512C189.897 279.935 190.474 279.478 191.592 279.122Z" fill="#456C51"/>
<path d="M197.151 278.952C197.385 279.086 197.574 279.287 197.694 279.528C197.81 279.753 197.851 280.008 197.812 280.257C197.785 280.527 197.665 280.778 197.473 280.969C197.275 281.172 197.022 281.313 196.745 281.376C196.421 281.454 196.085 281.454 195.762 281.376C195.495 281.354 195.236 281.278 195 281.153C194.764 281.028 194.556 280.856 194.389 280.647C194.239 280.426 194.135 280.177 194.083 279.915C194.031 279.653 194.031 279.383 194.084 279.122C194.135 278.729 194.274 278.352 194.49 278.02C194.696 277.738 194.978 277.52 195.304 277.393C195.664 277.272 196.047 277.238 196.423 277.291C196.693 277.337 196.956 277.423 197.202 277.545C197.415 277.655 197.6 277.812 197.745 278.003C197.871 278.17 197.948 278.37 197.965 278.579L197.287 278.478C197.249 278.248 197.143 278.035 196.982 277.867C196.815 277.711 196.6 277.615 196.372 277.596C196.157 277.561 195.937 277.597 195.745 277.698C195.541 277.816 195.371 277.986 195.253 278.189C195.112 278.429 195.02 278.694 194.982 278.969C195.139 278.812 195.34 278.706 195.558 278.664C195.793 278.614 196.035 278.614 196.27 278.664C196.581 278.698 196.881 278.796 197.151 278.952ZM196.575 280.935C196.787 280.741 196.92 280.475 196.948 280.189C197.005 279.9 196.957 279.599 196.812 279.342C196.734 279.23 196.634 279.136 196.517 279.066C196.4 278.996 196.27 278.951 196.134 278.935C196.001 278.907 195.864 278.908 195.732 278.941C195.599 278.973 195.476 279.035 195.372 279.122C195.159 279.329 195.027 279.606 194.999 279.901C194.941 280.185 194.989 280.481 195.134 280.732C195.213 280.841 195.314 280.933 195.431 281C195.548 281.067 195.678 281.109 195.812 281.122C195.945 281.15 196.083 281.149 196.215 281.116C196.347 281.084 196.47 281.022 196.575 280.935Z" fill="#456C51"/>
<path d="M199.305 282.817L199.508 282.545C199.623 282.668 199.77 282.756 199.932 282.8C200.065 282.833 200.205 282.833 200.339 282.8C200.467 282.763 200.58 282.686 200.661 282.579C200.76 282.479 200.82 282.347 200.83 282.206C200.866 282.079 200.866 281.944 200.83 281.817L199.881 279.156L200.644 279.274L201.423 281.562L202.762 279.579H203.22L201.389 282.257C201.218 282.531 200.993 282.768 200.728 282.952C200.51 283.085 200.253 283.139 200 283.105C199.87 283.108 199.741 283.084 199.622 283.034C199.502 282.984 199.394 282.91 199.305 282.817Z" fill="#456C51"/>
<path d="M203.576 279.664L204.322 279.766V280.342C204.416 280.166 204.557 280.019 204.729 279.918C204.927 279.856 205.14 279.856 205.339 279.918C205.4 279.903 205.464 279.903 205.525 279.918L205.407 280.359C205.342 280.28 205.252 280.226 205.153 280.206C205.03 280.177 204.901 280.186 204.783 280.231C204.665 280.277 204.563 280.357 204.492 280.461C204.317 280.681 204.206 280.945 204.17 281.223L203.983 282.494L203.237 282.393L203.576 279.664Z" fill="#456C51"/>
<path d="M180.56 283.969L183.627 284.427" stroke="#456C51" stroke-linecap="round" stroke-linejoin="round"/>
<path d="M176.17 313.901L179.255 314.359" stroke="#456C51" stroke-linecap="round" stroke-linejoin="round"/>
<path d="M181.898 285.528L177.898 312.8" stroke="#456C51" stroke-linecap="round" stroke-linejoin="round"/>
<path d="M167.966 275.308L172.644 276.003" stroke="#456C51" stroke-linecap="round" stroke-linejoin="round"/>
<path d="M167.541 278.206L169.88 278.545" stroke="#456C51" stroke-linecap="round" stroke-linejoin="round"/>
<path d="M165.847 289.732L168.186 290.088" stroke="#456C51" stroke-linecap="round" stroke-linejoin="round"/>
<path d="M164.999 295.512L167.338 295.851" stroke="#456C51" stroke-linecap="round" stroke-linejoin="round"/>
<path d="M166.694 283.969L169.033 284.308" stroke="#456C51" stroke-linecap="round" stroke-linejoin="round"/>
<path d="M166.27 286.851L170.947 287.545" stroke="#456C51" stroke-linecap="round" stroke-linejoin="round"/>
<path d="M164.575 298.393L169.253 299.071" stroke="#456C51" stroke-linecap="round" stroke-linejoin="round"/>
<path d="M163.728 304.156L166.067 304.511" stroke="#456C51" stroke-linecap="round" stroke-linejoin="round"/>
<path d="M164.151 301.274L166.49 301.613" stroke="#456C51" stroke-linecap="round" stroke-linejoin="round"/>
<path d="M165.423 292.63L167.762 292.969" stroke="#456C51" stroke-linecap="round" stroke-linejoin="round"/>
<path d="M167.117 281.088L169.456 281.427" stroke="#456C51" stroke-linecap="round" stroke-linejoin="round"/>
<path d="M163.304 307.054L165.643 307.393" stroke="#456C51" stroke-linecap="round" stroke-linejoin="round"/>
<path d="M162.881 309.935L167.559 310.613" stroke="#456C51" stroke-linecap="round" stroke-linejoin="round"/>
<path d="M180.321 286.613L181.914 285.427L183.101 287.02" stroke="#456C51" stroke-linecap="round" stroke-linejoin="round"/>
<path d="M179.508 311.613L177.897 312.8L176.711 311.206" stroke="#456C51" stroke-linecap="round" stroke-linejoin="round"/>
<path d="M183.085 279.41C184.161 279.41 185.034 278.537 185.034 277.461C185.034 276.384 184.161 275.511 183.085 275.511C182.008 275.511 181.136 276.384 181.136 277.461C181.136 278.537 182.008 279.41 183.085 279.41Z" stroke="#456C51" stroke-linecap="round" stroke-linejoin="round"/>
<path d="M154.474 259.562H163.627C167.362 259.571 171.007 258.408 174.047 256.237C177.087 254.066 179.371 250.997 180.576 247.461C175.22 245.766 168.898 246.19 158.186 248.545C151.344 250.082 144.209 249.665 137.593 247.342C138.776 250.888 141.041 253.974 144.069 256.166C147.097 258.358 150.736 259.546 154.474 259.562Z" fill="#99D4F7"/>
<path d="M136.626 240.596H181.49V241.698C181.49 246.433 179.61 250.974 176.264 254.324C172.917 257.674 168.378 259.558 163.643 259.562H154.49C149.752 259.562 145.208 257.68 141.858 254.33C138.508 250.98 136.626 246.436 136.626 241.698V240.596Z" stroke="#456C51" stroke-width="1.5" stroke-linecap="round" stroke-linejoin="round"/>
<path d="M160.305 217.478C166.644 217.681 169.322 222.664 170.577 225.003C172.949 229.359 173.78 233.478 172.458 234.207C171.136 234.935 168.136 231.969 165.78 227.596C163.424 223.224 162.577 219.122 163.899 218.376L176.051 213.207C177.811 212.458 179.787 212.391 181.594 213.017C183.401 213.644 184.911 214.919 185.831 216.597C186.738 218.266 186.994 220.212 186.549 222.059C186.105 223.906 184.991 225.523 183.424 226.597L176.17 231.58" stroke="#456C51" stroke-width="1.5" stroke-linecap="round" stroke-linejoin="round"/>
<path d="M183.287 218.817C183.287 218.817 161.83 223.495 161.83 240.596" stroke="#456C51" stroke-width="1.5" stroke-linecap="round" stroke-linejoin="round"/>
<path d="M171.033 230.834C170.156 232.175 169.723 233.758 169.796 235.359V240.596" stroke="#456C51" stroke-width="1.5" stroke-linecap="round" stroke-linejoin="round"/>
<path d="M145.592 224.857L141.555 227.221L135.045 216.106C134.731 215.571 134.643 214.933 134.8 214.333C134.956 213.733 135.345 213.219 135.881 212.906C136.416 212.592 137.054 212.504 137.654 212.661C138.254 212.818 138.767 213.207 139.081 213.742L145.592 224.857Z" stroke="#456C51" stroke-width="1.5" stroke-linecap="round" stroke-linejoin="round"/>
<path d="M157.576 240.596C157.834 238.007 157.174 235.41 155.712 233.257C153.25 229.499 149.703 226.579 145.542 224.885L143.508 226.054L141.491 227.241C140.955 231.69 141.777 236.198 143.847 240.173L144.101 240.596" stroke="#456C51" stroke-width="1.5" stroke-linecap="round" stroke-linejoin="round"/>
<path d="M148.881 240.596C146.033 236.213 144.213 231.241 143.559 226.054" stroke="#456C51" stroke-width="1.5" stroke-linecap="round" stroke-linejoin="round"/>
<path d="M154.746 240.596C153.627 236.851 150.322 231.291 143.559 226.054" stroke="#456C51" stroke-width="1.5" stroke-linecap="round" stroke-linejoin="round"/>
<path d="M216.661 394.46C217.915 387.104 219.593 375.003 219.491 369.037C219.339 359.393 215.983 356.087 211.017 353.528C203.576 349.715 193.424 348.732 187.627 348.732C181.83 348.732 171.678 349.715 164.237 353.528C159.237 356.087 155.881 359.393 155.763 369.037C155.644 378.681 159.153 398.375 160.068 401.341C160.983 404.308 161.898 408.121 170.458 409.63C176.135 410.635 181.896 411.089 187.661 410.986C193.426 411.089 199.187 410.635 204.864 409.63C213.339 408.138 215.034 404.545 215.254 401.341C215.296 400.74 215.188 400.138 214.94 399.589C214.692 399.04 214.311 398.561 213.833 398.195C213.354 397.829 212.792 397.587 212.197 397.491C211.602 397.396 210.993 397.449 210.423 397.647C208.729 398.392 207.661 400.867 210.729 404.85C211.639 406.071 212.894 406.991 214.331 407.492C215.769 407.994 217.324 408.053 218.796 407.663" stroke="#456C51" stroke-width="1.5" stroke-linecap="round" stroke-linejoin="round"/>
<path d="M187.593 367.342C190.347 367.339 193.086 367.762 195.711 368.596C196.227 368.758 196.784 368.718 197.272 368.486C197.759 368.253 198.14 367.844 198.338 367.342L201.44 359.528C201.545 359.258 201.594 358.97 201.585 358.68C201.575 358.391 201.508 358.106 201.386 357.844C201.264 357.581 201.091 357.346 200.876 357.152C200.661 356.958 200.409 356.809 200.135 356.715C191.99 354.025 183.196 354.025 175.05 356.715C174.777 356.809 174.525 356.958 174.31 357.152C174.095 357.346 173.921 357.581 173.799 357.844C173.678 358.106 173.61 358.391 173.601 358.68C173.591 358.97 173.641 359.258 173.745 359.528L176.847 367.342C177.045 367.844 177.426 368.253 177.914 368.486C178.401 368.718 178.959 368.758 179.474 368.596C182.1 367.762 184.838 367.339 187.593 367.342Z" fill="#F2AA8F"/>
<path d="M179.051 360.138L178.61 358.393L179.068 358.291L179.475 360.037L179.051 360.138Z" fill="#FFFCF5"/>
<path d="M181.067 359.697L180.745 358.003L181.593 357.85L181.881 359.545L181.067 359.697ZM194.101 359.697L193.304 359.562L193.592 357.867L194.44 358.02L194.101 359.697ZM191.677 359.325L190.864 359.24L191.033 357.46L191.881 357.545L191.677 359.325ZM183.508 359.325L183.304 357.545L184.152 357.46L184.321 359.24L183.508 359.325ZM185.948 359.138L185.898 357.342H186.762V359.138H185.948ZM189.237 359.138H188.406V357.342H189.254L189.237 359.138Z" fill="#FFFCF5"/>
<path d="M196.135 360.138L195.729 360.037L196.118 358.291L196.576 358.393L196.135 360.138Z" fill="#FFFCF5"/>
<path d="M187.593 360.206L186.797 365.46H187.593H188.39L187.593 360.206Z" fill="#FFFCF5"/>
<path d="M179.915 390.409L178.542 388.714L178.084 389.104V390.426H177.203V385.714H178.084V388.46L179.779 387.036H180.491L179.101 388.24L180.796 390.426L179.915 390.409Z" fill="#456C51"/>
<path d="M184.627 387.121C184.515 387.104 184.4 387.104 184.288 387.121C184.147 387.101 184.005 387.101 183.864 387.121C184.083 387.196 184.277 387.331 184.424 387.511C184.558 387.679 184.63 387.889 184.627 388.104C184.632 388.325 184.56 388.541 184.424 388.714C184.277 388.913 184.077 389.066 183.847 389.155C183.555 389.264 183.244 389.315 182.932 389.308C182.787 389.274 182.636 389.274 182.491 389.308C182.457 389.323 182.427 389.346 182.403 389.376C182.379 389.405 182.363 389.44 182.356 389.477C182.356 389.477 182.356 389.477 182.457 389.596C182.547 389.616 182.639 389.616 182.729 389.596H183.017C183.482 389.573 183.947 389.66 184.373 389.85C184.513 389.901 184.635 389.993 184.723 390.113C184.81 390.234 184.86 390.379 184.864 390.528C184.859 390.701 184.804 390.869 184.704 391.01C184.605 391.152 184.466 391.261 184.305 391.325C183.841 391.549 183.328 391.653 182.813 391.63C182.471 391.63 182.13 391.59 181.796 391.511C181.554 391.465 181.328 391.36 181.135 391.206C181.055 391.156 180.988 391.086 180.942 391.003C180.896 390.92 180.872 390.826 180.872 390.731C180.872 390.636 180.896 390.543 180.942 390.46C180.988 390.377 181.055 390.307 181.135 390.257C181.384 390.108 181.661 390.016 181.949 389.986C181.784 389.969 181.627 389.911 181.491 389.816C181.45 389.784 181.417 389.743 181.393 389.696C181.37 389.649 181.357 389.597 181.356 389.545C181.362 389.483 181.384 389.424 181.419 389.374C181.455 389.323 181.503 389.283 181.559 389.257C181.724 389.158 181.91 389.1 182.101 389.087C181.817 389.032 181.556 388.89 181.356 388.68C181.203 388.482 181.125 388.236 181.135 387.986C181.133 387.765 181.204 387.55 181.339 387.375C181.505 387.194 181.715 387.06 181.949 386.986C182.236 386.879 182.541 386.827 182.847 386.833H183.322C183.445 386.725 183.589 386.644 183.746 386.596C183.925 386.562 184.109 386.562 184.288 386.596C184.49 386.565 184.696 386.565 184.898 386.596V387.087C184.807 387.092 184.716 387.103 184.627 387.121ZM182 390.308C181.893 390.341 181.799 390.406 181.729 390.494C181.66 390.581 181.618 390.688 181.61 390.799C181.617 390.9 181.652 390.997 181.712 391.078C181.772 391.159 181.854 391.221 181.949 391.257C182.228 391.393 182.537 391.457 182.847 391.443C183.16 391.46 183.471 391.389 183.746 391.24C183.846 391.188 183.93 391.111 183.989 391.015C184.049 390.92 184.082 390.81 184.085 390.697C184.082 390.607 184.054 390.518 184.003 390.443C183.951 390.368 183.88 390.309 183.796 390.274C183.557 390.164 183.296 390.112 183.034 390.121C182.679 390.098 182.324 390.162 182 390.308ZM183.525 388.765C183.67 388.59 183.743 388.365 183.729 388.138C183.746 387.91 183.673 387.685 183.525 387.511C183.442 387.433 183.343 387.373 183.235 387.335C183.127 387.297 183.012 387.282 182.898 387.291C182.786 387.28 182.674 387.295 182.568 387.333C182.463 387.371 182.367 387.432 182.288 387.511C182.135 387.683 182.056 387.908 182.068 388.138C182.06 388.367 182.138 388.591 182.288 388.765C182.371 388.838 182.468 388.893 182.573 388.928C182.677 388.963 182.788 388.977 182.898 388.969C183.125 388.983 183.35 388.91 183.525 388.765Z" fill="#456C51"/>
<path d="M189.135 385.443H189.542L187.576 390.528H187.169L189.135 385.443Z" fill="#456C51"/>
<path d="M192.066 385.697H192.948V390.409H192.066V385.697Z" fill="#456C51"/>
<path d="M194.947 389.85V390.409H194.049V385.697H194.947V387.68C195.064 387.464 195.249 387.291 195.473 387.189C195.714 387.065 195.981 387.001 196.252 387.002C196.571 386.999 196.885 387.074 197.167 387.223C197.433 387.352 197.648 387.567 197.778 387.833C197.918 388.111 197.988 388.42 197.981 388.731C197.991 389.056 197.915 389.378 197.761 389.663C197.606 389.927 197.384 390.143 197.117 390.291C196.832 390.45 196.511 390.532 196.184 390.528C195.936 390.539 195.689 390.482 195.471 390.362C195.252 390.243 195.071 390.066 194.947 389.85ZM196.812 389.748C197.024 389.435 197.126 389.059 197.1 388.68C197.123 388.316 197.028 387.953 196.828 387.647C196.74 387.524 196.623 387.425 196.486 387.36C196.35 387.295 196.2 387.265 196.049 387.274C195.894 387.266 195.739 387.297 195.6 387.366C195.461 387.434 195.341 387.536 195.252 387.663C195.037 387.97 194.93 388.34 194.947 388.714C194.932 389.086 195.033 389.453 195.235 389.765C195.327 389.889 195.448 389.989 195.586 390.057C195.725 390.125 195.878 390.158 196.032 390.155C196.186 390.161 196.339 390.127 196.476 390.056C196.613 389.984 196.729 389.878 196.812 389.748Z" fill="#456C51"/>
<path d="M108 261.952H267.186" stroke="#29B473" stroke-width="3" stroke-miterlimit="10"/>
<path d="M152.272 178.902L228.865 255.291" stroke="#29B473" stroke-width="3" stroke-miterlimit="10"/>
<path d="M134.17 355.528L241.017 334.155" stroke="#29B473" stroke-width="3.05" stroke-miterlimit="10"/>
<path d="M161.814 343.596C161.814 342.697 162.171 341.835 162.807 341.199C163.443 340.563 164.305 340.206 165.204 340.206C166.114 340.251 167.005 339.933 167.681 339.321C168.356 338.709 168.761 337.854 168.806 336.943C168.851 336.033 168.532 335.142 167.92 334.467C167.309 333.791 166.453 333.387 165.543 333.342H165.204C163.379 333.295 161.61 333.974 160.286 335.231C158.962 336.489 158.192 338.22 158.145 340.045C158.098 341.87 158.777 343.639 160.035 344.963C161.292 346.287 163.023 347.057 164.848 347.104C163.991 347.015 163.201 346.602 162.637 345.95C162.074 345.299 161.78 344.457 161.814 343.596Z" fill="#456C51" stroke="#456C51" stroke-linecap="round" stroke-linejoin="round"/>
<path d="M165.61 333.291C166.06 333.313 166.502 333.424 166.91 333.617C167.318 333.81 167.684 334.081 167.987 334.416C168.29 334.75 168.524 335.141 168.676 335.566C168.828 335.991 168.895 336.442 168.872 336.893C168.85 337.343 168.739 337.785 168.546 338.193C168.353 338.601 168.082 338.967 167.747 339.27C167.413 339.573 167.022 339.807 166.597 339.959C166.172 340.111 165.721 340.177 165.271 340.155C164.358 340.108 163.464 340.425 162.786 341.037C162.107 341.649 161.699 342.505 161.652 343.418C161.605 344.33 161.922 345.224 162.534 345.903C163.146 346.582 164.002 346.989 164.915 347.037H165.271C167.096 347.081 168.864 346.4 170.186 345.141C171.508 343.882 172.277 342.15 172.322 340.325C172.366 338.5 171.685 336.731 170.426 335.409C169.167 334.087 167.435 333.319 165.61 333.274V333.291Z" stroke="#456C51" stroke-linecap="round" stroke-linejoin="round"/>
<path d="M165.272 337.867C165.908 337.867 166.424 337.351 166.424 336.715C166.424 336.078 165.908 335.562 165.272 335.562C164.635 335.562 164.119 336.078 164.119 336.715C164.119 337.351 164.635 337.867 165.272 337.867Z" fill="#FFFCF5"/>
<path d="M165.272 344.748C165.908 344.748 166.424 344.232 166.424 343.596C166.424 342.959 165.908 342.443 165.272 342.443C164.635 342.443 164.119 342.959 164.119 343.596C164.119 344.232 164.635 344.748 165.272 344.748Z" fill="#456C51"/>
<path d="M278.456 203.817L278.677 202.749C277.965 202.551 277.299 202.215 276.717 201.759C276.135 201.304 275.649 200.737 275.287 200.093C274.925 199.449 274.693 198.74 274.606 198.006C274.519 197.272 274.577 196.528 274.778 195.817L284.948 159.885C285.198 159.004 285.271 158.081 285.163 157.172C285.056 156.262 284.769 155.382 284.32 154.584C283.871 153.785 283.269 153.083 282.547 152.518C281.826 151.953 281 151.536 280.117 151.292C278.342 150.796 276.442 151.024 274.835 151.927C273.227 152.829 272.043 154.331 271.541 156.105L259.677 198.173L278.456 203.817Z" fill="#65AF7C"/>
<path d="M256.526 115.19C260.504 115.19 263.729 111.965 263.729 107.987C263.729 104.009 260.504 100.784 256.526 100.784C252.547 100.784 249.322 104.009 249.322 107.987C249.322 111.965 252.547 115.19 256.526 115.19Z" fill="#65AF7C"/>
<path d="M259.016 114.733L259.525 113.597C259.754 113.238 259.9 112.832 259.952 112.409C260.004 111.985 259.961 111.556 259.826 111.152C259.692 110.747 259.468 110.378 259.173 110.071C258.877 109.764 258.517 109.527 258.118 109.377C257.395 109.067 256.582 109.044 255.842 109.311C255.103 109.579 254.492 110.117 254.135 110.817C254.078 110.942 254.047 111.076 254.043 111.213C254.039 111.35 254.062 111.486 254.111 111.613C254.16 111.741 254.234 111.858 254.328 111.957C254.422 112.056 254.535 112.135 254.66 112.19C254.914 112.298 255.201 112.302 255.458 112.201C255.715 112.099 255.921 111.901 256.033 111.648C256.311 110.913 256.299 110.1 256 109.373C255.701 108.646 255.137 108.06 254.423 107.733C254.044 107.539 253.626 107.432 253.2 107.42C252.774 107.408 252.351 107.491 251.961 107.663C251.572 107.835 251.225 108.092 250.947 108.415C250.67 108.737 250.467 109.118 250.355 109.529L249.847 110.665" stroke="#FFFCF5" stroke-width="0.57" stroke-linecap="round" stroke-linejoin="round"/>
<path d="M257.695 107.478C258.883 107.478 259.847 106.515 259.847 105.326C259.847 104.137 258.883 103.173 257.695 103.173C256.506 103.173 255.542 104.137 255.542 105.326C255.542 106.515 256.506 107.478 257.695 107.478Z" stroke="#FFFCF5" stroke-width="0.57" stroke-linecap="round" stroke-linejoin="round"/>
<path d="M273.321 109.512L269.626 108.478L269.829 107.75L279.084 110.36L278.88 111.072L275.185 110.021L272.897 118.173L271.033 117.648L273.321 109.512Z" fill="#456C51"/>
<path d="M278.422 118.597C277.874 117.427 277.763 116.099 278.112 114.854C278.46 113.61 279.244 112.532 280.321 111.817C281.579 111.278 282.994 111.229 284.287 111.682C285.424 111.947 286.46 112.536 287.27 113.377C287.584 113.727 287.815 114.144 287.947 114.595C288.079 115.047 288.108 115.522 288.033 115.987L286.541 115.58C286.623 114.876 286.436 114.168 286.016 113.597C285.539 113.017 284.883 112.612 284.151 112.444C283.729 112.296 283.278 112.247 282.834 112.303C282.389 112.359 281.964 112.518 281.592 112.766C280.835 113.486 280.287 114.397 280.007 115.403C279.726 116.408 279.724 117.471 279.999 118.478C280.176 118.901 280.451 119.275 280.802 119.57C281.153 119.865 281.569 120.071 282.016 120.173C282.719 120.411 283.482 120.411 284.185 120.173C284.839 119.902 285.366 119.394 285.66 118.75L287.151 119.173C286.978 119.61 286.708 120.001 286.362 120.319C286.015 120.636 285.601 120.87 285.151 121.004C284.036 121.302 282.857 121.267 281.761 120.902C280.391 120.598 279.193 119.771 278.422 118.597Z" fill="#456C51"/>
<path d="M300.66 116.428L298.151 125.275L296.27 124.75L298.134 118.106L293.338 123.919L292.236 123.614L290.694 115.834L288.778 122.614L287.728 122.326L290.219 113.461L292.185 114.004L293.711 121.868L298.694 115.834L300.66 116.428Z" fill="#456C51"/>
<path d="M234.338 138.546L246.575 95.0718C246.722 94.5402 246.972 94.0429 247.312 93.6084C247.651 93.1739 248.073 92.8108 248.554 92.5399C249.034 92.269 249.563 92.0957 250.111 92.0299C250.658 91.9641 251.214 92.0072 251.744 92.1566L306.914 107.546C307.446 107.695 307.943 107.947 308.378 108.288C308.813 108.63 309.176 109.053 309.447 109.535C309.717 110.017 309.891 110.547 309.956 111.096C310.022 111.645 309.978 112.201 309.829 112.733L285.575 199.004C285.383 199.701 285.055 200.353 284.609 200.922C284.164 201.491 283.609 201.966 282.979 202.319C282.348 202.673 281.653 202.897 280.935 202.98C280.217 203.062 279.49 203.001 278.795 202.8H278.659C277.944 202.604 277.274 202.269 276.688 201.813C276.102 201.357 275.613 200.79 275.247 200.144C274.882 199.498 274.648 198.786 274.559 198.049C274.469 197.313 274.527 196.565 274.727 195.851C277.253 187.004 282.253 169.478 284.897 159.885C285.386 158.127 285.158 156.247 284.262 154.658C283.365 153.069 281.874 151.901 280.117 151.411H279.948C278.168 150.909 276.261 151.135 274.647 152.037C273.033 152.939 271.843 154.445 271.337 156.224L251.49 226.8C251.343 227.332 251.093 227.829 250.753 228.263C250.414 228.698 249.992 229.061 249.511 229.332C249.031 229.603 248.502 229.776 247.954 229.842C247.407 229.908 246.852 229.865 246.321 229.715L192.507 214.698C191.976 214.552 191.478 214.301 191.044 213.962C190.609 213.622 190.246 213.2 189.975 212.719C189.705 212.239 189.531 211.71 189.465 211.162C189.4 210.615 189.443 210.06 189.592 209.529L208.575 142.021C209.306 139.436 211.03 137.246 213.371 135.928C215.711 134.611 218.478 134.272 221.067 134.987L279.914 151.411" stroke="#456C51" stroke-width="1.5" stroke-linecap="round" stroke-linejoin="round"/>
<path d="M223.847 151.936L261.423 162.427" stroke="#456C51" stroke-linecap="round" stroke-linejoin="round"/>
<path d="M247.339 118.326L296.593 132.055" stroke="#456C51" stroke-linecap="round" stroke-linejoin="round"/>
<path d="M220.778 162.851L258.354 173.326" stroke="#456C51" stroke-linecap="round" stroke-linejoin="round"/>
<path d="M217.644 174.004L255.22 184.478" stroke="#456C51" stroke-linecap="round" stroke-linejoin="round"/>
<path d="M214.509 185.173L252.068 195.647" stroke="#456C51" stroke-linecap="round" stroke-linejoin="round"/>
<path d="M211.491 195.885L249.067 206.376" stroke="#456C51" stroke-linecap="round" stroke-linejoin="round"/>
<path d="M208.356 207.02L245.933 217.495" stroke="#456C51" stroke-linecap="round" stroke-linejoin="round"/>
<path d="M216.032 153.004C217.82 153.004 219.269 151.554 219.269 149.766C219.269 147.979 217.82 146.529 216.032 146.529C214.244 146.529 212.795 147.979 212.795 149.766C212.795 151.554 214.244 153.004 216.032 153.004Z" stroke="#456C51" stroke-linecap="round" stroke-linejoin="round"/>
<path d="M212.966 163.902C214.754 163.902 216.203 162.452 216.203 160.665C216.203 158.877 214.754 157.427 212.966 157.427C211.178 157.427 209.729 158.877 209.729 160.665C209.729 162.452 211.178 163.902 212.966 163.902Z" stroke="#456C51" stroke-linecap="round" stroke-linejoin="round"/>
<path d="M209.831 175.071C211.619 175.071 213.068 173.622 213.068 171.834C213.068 170.046 211.619 168.597 209.831 168.597C208.043 168.597 206.594 170.046 206.594 171.834C206.594 173.622 208.043 175.071 209.831 175.071Z" stroke="#456C51" stroke-linecap="round" stroke-linejoin="round"/>
<path d="M206.678 186.224C208.466 186.224 209.915 184.774 209.915 182.987C209.915 181.199 208.466 179.749 206.678 179.749C204.89 179.749 203.44 181.199 203.44 182.987C203.44 184.774 204.89 186.224 206.678 186.224Z" stroke="#456C51" stroke-linecap="round" stroke-linejoin="round"/>
<path d="M203.677 196.953C205.465 196.953 206.914 195.503 206.914 193.715C206.914 191.927 205.465 190.478 203.677 190.478C201.889 190.478 200.439 191.927 200.439 193.715C200.439 195.503 201.889 196.953 203.677 196.953Z" stroke="#456C51" stroke-linecap="round" stroke-linejoin="round"/>
<path d="M200.542 208.071C202.33 208.071 203.779 206.622 203.779 204.834C203.779 203.046 202.33 201.597 200.542 201.597C198.754 201.597 197.305 203.046 197.305 204.834C197.305 206.622 198.754 208.071 200.542 208.071Z" stroke="#456C51" stroke-linecap="round" stroke-linejoin="round"/>
<path d="M245.117 126.258L294.354 139.987" stroke="#456C51" stroke-linecap="round" stroke-linejoin="round"/>
<path d="M243.083 133.495L274.354 142.207" stroke="#456C51" stroke-linecap="round" stroke-linejoin="round"/>
<path d="M131.051 176.546H170.305" stroke="#29B473" stroke-width="3" stroke-miterlimit="10"/>
</g>
<defs>
<clipPath id="clip0_1269_7703">
<rect width="375" height="412" fill="white"/>
</clipPath>
</defs>
</svg>
