<svg width="168" height="88" viewBox="0 0 168 88" fill="none" xmlns="http://www.w3.org/2000/svg">
<g id="img_servere_diarrhoea_sel">
<g id="Group 1047">
<g id="Group 1045">
<path id="Vector 155" d="M92.6698 20.9225C78.6285 17.0222 44.5653 19.9474 29.2888 21.8976C24.5758 22.3852 15.1498 24.4329 15.1498 28.7233C15.1498 34.0863 26.3633 34.5739 29.2888 37.9867C32.2143 41.3995 25.876 42.8621 21.0006 42.8621C16.1251 42.8621 0.52363 45.7874 1.01118 55.0508C1.49872 64.3142 16.1251 61.8764 23.4383 64.8017C30.7515 67.727 33.6768 67.727 51.2284 67.2394C68.7801 66.7519 69.7551 57.9761 73.168 54.0757C76.5808 50.1753 88.7694 50.1753 97.0577 51.1504C105.346 52.1255 105.346 53.5881 123.873 57.9761C142.399 62.364 161.901 54.0757 165.802 48.2251C169.702 42.3746 163.364 37.0116 157.026 34.5739C150.688 32.1361 139.474 33.5988 118.997 33.5988C98.5204 33.5988 110.221 25.798 92.6698 20.9225Z" fill="#A38877" stroke="#6B4A39" stroke-width="2" stroke-linecap="round"/>
<path id="Vector 158" d="M77.5556 60.4141C83.4062 56.9038 94.9448 57.0013 99.9828 57.4888C114.122 60.4143 107.783 66.2644 103.883 67.7271C99.9827 69.1897 88.2817 69.6773 80.9685 69.1897C73.6553 68.7022 70.2425 64.802 77.5556 60.4141Z" fill="#A38877" stroke="#6B4A39" stroke-width="2" stroke-linecap="round"/>
</g>
<g id="Group 1044">
<path id="Vector 156" d="M36.6028 30.1862C38.7155 30.8362 44.111 32.1363 48.7914 32.1363C54.642 32.1363 62.9303 33.599 61.4676 37.4993C60.005 41.3997 55.6171 39.4495 50.2541 41.3997C44.8911 43.3499 41.4783 43.8374 39.0405 41.3997" stroke="#6B4A39" stroke-width="2" stroke-linecap="round"/>
<path id="Vector 157" d="M22.4638 54.0757C26.5267 53.4257 35.335 52.7106 38.0653 55.0508C41.4781 57.9761 57.0796 57.0013 60.4924 56.026" stroke="#6B4A39" stroke-width="2" stroke-linecap="round"/>
<path id="Vector 159" d="M119.973 43.3499C122.573 42.3748 128.456 41.0097 131.186 43.3499C134.599 46.2752 148.738 46.2752 154.101 44.8126" stroke="#6B4A39" stroke-width="2" stroke-linecap="round"/>
</g>
</g>
</g>
</svg>
