<svg width="151" height="77" viewBox="0 0 151 77" fill="none" xmlns="http://www.w3.org/2000/svg">
<g id="Group 986">
<path id="Vector 6" d="M53.5 37C35.5 47 18.6667 43.8333 12.5 41C21.5 56.9999 49 82.5 90.5 75C123.7 69 139 44.1667 142.5 32.5C132 42 116.5 39.5 109 37C101.5 34.5 76 24.5 53.5 37Z" fill="url(#paint0_linear_324_619)" fill-opacity="0.22"/>
<path id="Vector 7" d="M40.5 35C26.5 31.8 16 37.3334 12.5 40.5C37.7 76.5 72.3333 78.8333 86.5 75.5C124.5 65.9 139.667 43.8333 142.5 34C121.5 26 106 34.5 85 40C64 45.5 58 39 40.5 35Z" fill="url(#paint1_linear_324_619)" fill-opacity="0.22"/>
<path id="Ellipse 68" d="M1 1C0.999996 42.4213 34.3548 76 75.5 76C116.645 76 150 42.4214 150 1.00002" stroke="#C1E1CE" stroke-width="2" stroke-linecap="round"/>
</g>
<defs>
<linearGradient id="paint0_linear_324_619" x1="41.1325" y1="73.6475" x2="56.0532" y2="22.6384" gradientUnits="userSpaceOnUse">
<stop stop-color="#B8D7A9"/>
<stop offset="1" stop-color="#73D89B"/>
</linearGradient>
<linearGradient id="paint1_linear_324_619" x1="41.1325" y1="73.8731" x2="56.2752" y2="22.5188" gradientUnits="userSpaceOnUse">
<stop stop-color="#B8D7A9"/>
<stop offset="1" stop-color="#73D89B"/>
</linearGradient>
</defs>
</svg>
