<svg width="22" height="22" viewBox="0 0 22 22" fill="none" xmlns="http://www.w3.org/2000/svg">
<g id="Group 1156">
<path id="Vector" d="M17.1 22H4.9C3.60085 21.9987 2.35527 21.482 1.43663 20.5634C0.517992 19.6447 0.00132364 18.3992 0 17.1V4.9C0.00132364 3.60085 0.517992 2.35529 1.43663 1.43665C2.35527 0.518004 3.60085 0.00132364 4.9 0H17.1C18.3992 0.00132364 19.6447 0.518004 20.5634 1.43665C21.482 2.35529 21.9987 3.60085 22 4.9V17.1C21.9987 18.3992 21.482 19.6447 20.5634 20.5634C19.6447 21.482 18.3992 21.9987 17.1 22ZM4.9 1.8C4.07783 1.8 3.28933 2.1266 2.70797 2.70796C2.1266 3.28932 1.8 4.07783 1.8 4.9V17.1C1.8 17.9222 2.1266 18.7107 2.70797 19.292C3.28933 19.8734 4.07783 20.2 4.9 20.2H17.1C17.9222 20.2 18.7107 19.8734 19.292 19.292C19.8734 18.7107 20.2 17.9222 20.2 17.1V4.9C20.2 4.07783 19.8734 3.28932 19.292 2.70796C18.7107 2.1266 17.9222 1.8 17.1 1.8H4.9Z" fill="#1A342B"/>
<path id="Vector_2" d="M9.98499 17.8731C9.85265 17.7405 9.74888 17.5822 9.68008 17.408C9.61128 17.2337 9.57892 17.0473 9.58499 16.86C9.57705 16.6711 9.60851 16.4826 9.67737 16.3065C9.74623 16.1304 9.851 15.9705 9.98499 15.8371C10.1193 15.708 10.2782 15.6073 10.4522 15.5408C10.6262 15.4743 10.8118 15.4435 10.998 15.4501C11.1858 15.4418 11.3734 15.4718 11.5493 15.5384C11.7251 15.6049 11.8856 15.7065 12.021 15.8371C12.1517 15.9723 12.2534 16.1328 12.3199 16.3087C12.3865 16.4846 12.4164 16.6722 12.408 16.86C12.4146 17.0462 12.3837 17.2318 12.3173 17.4058C12.2508 17.5798 12.15 17.7387 12.021 17.8731C11.8874 18.0069 11.7276 18.1116 11.5515 18.1804C11.3754 18.2493 11.1869 18.2808 10.998 18.2731C10.8108 18.2791 10.6243 18.2468 10.4501 18.178C10.2758 18.1092 10.1176 18.0054 9.98499 17.8731ZM10.085 10.2471C9.91299 9.10906 9.78732 8.12272 9.70799 7.28805C9.6313 6.52924 9.59791 5.76668 9.60799 5.00407C9.60739 4.83095 9.64263 4.65957 9.71147 4.50072C9.7803 4.34188 9.88126 4.19901 10.008 4.08107C10.2811 3.84036 10.6373 3.71554 11.001 3.73307C11.4243 3.73307 11.762 3.84907 12.014 4.08107C12.1393 4.19891 12.2378 4.3423 12.3029 4.50155C12.3679 4.6608 12.398 4.83219 12.391 5.00407C12.391 5.6534 12.3547 6.33872 12.282 7.06005C12.2093 7.78138 12.0867 8.77739 11.914 10.0481C11.6473 12.0341 11.4887 13.5567 11.438 14.6161H10.564C10.5093 13.6234 10.3493 12.1667 10.084 10.2461L10.085 10.2471Z" fill="#1A342B"/>
</g>
</svg>
