<svg width="18" height="18" viewBox="0 0 18 18" fill="none" xmlns="http://www.w3.org/2000/svg">
<g id="Group 765">
<path id="Vector" d="M6.35658 14.6927C6.18147 14.6928 6.0135 14.6233 5.88957 14.4996C5.82255 14.4327 5.77068 14.3522 5.73749 14.2635C5.70429 14.1748 5.69055 14.0801 5.69718 13.9856L5.86607 11.5286C5.87724 11.3695 5.94557 11.2198 6.05846 11.1071L11.471 5.69456C11.7292 5.43717 12.0566 5.26036 12.4134 5.18566C12.7702 5.11096 13.1411 5.14158 13.4808 5.2738C13.5713 4.72197 13.8321 4.21228 14.2269 3.8162C14.3815 3.66074 14.5654 3.53748 14.7679 3.45353C14.9705 3.36959 15.1876 3.32664 15.4069 3.32716C15.8444 3.32588 16.2647 3.49773 16.5759 3.80519L16.5833 3.81253L16.5899 3.81914C16.8975 4.13353 17.0688 4.55645 17.0667 4.99628C17.0647 5.43612 16.8894 5.85742 16.5788 6.16891C16.1813 6.5652 15.669 6.82602 15.1146 6.91424C15.2433 7.25274 15.2717 7.62114 15.1964 7.97537C15.1212 8.32959 14.9454 8.65461 14.6902 8.91154L9.27618 14.3256C9.16321 14.4384 9.01323 14.5064 8.85396 14.5172L6.39771 14.6861C6.38669 14.6927 6.372 14.6927 6.35658 14.6927ZM7.16799 11.8679L7.06813 13.3211L8.52059 13.2212L13.7599 7.98192C13.8442 7.89745 13.8991 7.78795 13.9161 7.66978C13.9332 7.5516 13.9116 7.43108 13.8546 7.32618C13.7583 7.15224 13.6774 6.97016 13.613 6.78206C13.4223 6.71646 13.2377 6.63414 13.0615 6.53607C12.9568 6.47871 12.8362 6.45687 12.718 6.47381C12.5998 6.49076 12.4902 6.54559 12.4058 6.63006L7.16799 11.8679ZM15.4069 4.65037C15.3612 4.65028 15.3159 4.65925 15.2737 4.67677C15.2315 4.69429 15.1931 4.72001 15.1609 4.75244C14.9267 4.98823 14.7872 5.30177 14.7688 5.6336C15.1005 5.61594 15.4141 5.4769 15.65 5.24296C15.7145 5.17778 15.7507 5.08978 15.7507 4.99807C15.7507 4.90636 15.7145 4.81834 15.65 4.75317C15.5856 4.68826 15.4983 4.65132 15.4069 4.65037Z" fill="#1A342B"/>
<path id="Vector_2" d="M12.9598 17.0876H3.65469C2.93306 17.0868 2.24121 16.7997 1.73101 16.2894C1.22081 15.7791 0.933933 15.0871 0.93335 14.3655V3.65567C0.933933 2.93404 1.22081 2.24211 1.73101 1.73177C2.24121 1.22143 2.93306 0.934372 3.65469 0.933594H12.8056C12.9809 0.933594 13.149 1.00323 13.2729 1.12716C13.3968 1.2511 13.4665 1.41919 13.4665 1.59447C13.4665 1.76974 13.3968 1.93784 13.2729 2.06178C13.149 2.18572 12.9809 2.25534 12.8056 2.25534H3.65395C3.28275 2.25573 2.92688 2.40341 2.66447 2.66596C2.40206 2.92851 2.25456 3.28447 2.25436 3.65567V14.3655C2.25475 14.7367 2.40231 15.0925 2.66468 15.355C2.92704 15.6175 3.28281 15.7652 3.65395 15.7658H12.9598C13.331 15.7652 13.6869 15.6175 13.9493 15.355C14.2118 15.0926 14.3595 14.7367 14.3601 14.3655V11.4452C14.3601 11.2699 14.4298 11.1018 14.5537 10.9779C14.6776 10.8539 14.8457 10.7843 15.021 10.7843C15.1963 10.7843 15.3644 10.8539 15.4883 10.9779C15.6122 11.1018 15.6819 11.2699 15.6819 11.4452V14.3655C15.6811 15.0872 15.3941 15.7791 14.8837 16.2895C14.3734 16.7998 13.6815 17.0868 12.9598 17.0876Z" fill="#1A342B"/>
<path id="Vector_3" d="M8.45821 5.36667H4.08763C3.91236 5.36667 3.74426 5.29705 3.62032 5.17311C3.49638 5.04917 3.42676 4.88107 3.42676 4.7058C3.42676 4.53052 3.49638 4.36243 3.62032 4.23849C3.74426 4.11455 3.91236 4.04492 4.08763 4.04492H8.45821C8.63349 4.04492 8.80159 4.11455 8.92552 4.23849C9.04946 4.36243 9.11909 4.53052 9.11909 4.7058C9.11909 4.88107 9.04946 5.04917 8.92552 5.17311C8.80159 5.29705 8.63349 5.36667 8.45821 5.36667Z" fill="#1A342B"/>
<path id="Vector_4" d="M6.55122 8.14987H4.08763C3.91236 8.14987 3.74426 8.08025 3.62032 7.95631C3.49638 7.83237 3.42676 7.66427 3.42676 7.489C3.42676 7.31372 3.49638 7.14563 3.62032 7.0217C3.74426 6.89776 3.91236 6.82812 4.08763 6.82812H6.55122C6.7265 6.82812 6.8946 6.89776 7.01853 7.0217C7.14247 7.14563 7.2121 7.31372 7.2121 7.489C7.2121 7.66427 7.14247 7.83237 7.01853 7.95631C6.8946 8.08025 6.7265 8.14987 6.55122 8.14987Z" fill="#1A342B"/>
</g>
</svg>
