<svg width="14" height="14" viewBox="0 0 14 14" fill="none" xmlns="http://www.w3.org/2000/svg">
<g id="Group 1146">
<path id="Vector" d="M7 14C10.866 14 14 10.866 14 7C14 3.13401 10.866 0 7 0C3.13401 0 0 3.13401 0 7C0 10.866 3.13401 14 7 14Z" fill="#FDD734"/>
<path id="Vector_2" d="M6.99924 12.3538C9.95571 12.3538 12.3524 9.95709 12.3524 7.00062C12.3524 4.04415 9.95571 1.64746 6.99924 1.64746C4.04278 1.64746 1.64609 4.04415 1.64609 7.00062C1.64609 9.95709 4.04278 12.3538 6.99924 12.3538Z" fill="#F39D08"/>
<path id="Vector_3" d="M6.99925 2.44693C8.34902 2.44612 9.64906 2.95628 10.638 3.87486C11.627 4.79345 12.2316 6.05235 12.3303 7.39851C12.3303 7.26588 12.3524 7.13325 12.3524 7.00062C12.3524 5.58087 11.7884 4.21928 10.7845 3.21536C9.78059 2.21145 8.41899 1.64746 6.99925 1.64746C5.5795 1.64746 4.2179 2.21145 3.21399 3.21536C2.21008 4.21928 1.64609 5.58087 1.64609 7.00062C1.64609 7.13325 1.64609 7.26588 1.66819 7.39851C1.76687 6.05235 2.37146 4.79345 3.36044 3.87486C4.34943 2.95628 5.64947 2.44612 6.99925 2.44693Z" fill="#E78101"/>
<path id="Vector_4" d="M5.20939 9.11851C4.86235 8.73145 4.68226 8.22297 4.70834 7.70377V5.07324H5.8136V7.85114C5.79562 8.20896 5.88408 8.56409 6.06781 8.87166C6.18157 9.00817 6.32811 9.11358 6.49371 9.17802C6.65931 9.24246 6.83855 9.26381 7.01466 9.24008C7.18833 9.25991 7.36421 9.23666 7.52677 9.17241C7.68933 9.10816 7.83357 9.00487 7.94676 8.87166C8.13848 8.5631 8.22986 8.20272 8.20834 7.84008V5.07324H9.3136V7.70377C9.33909 8.22223 9.16056 8.73006 8.81624 9.11851C8.48834 9.48693 7.88781 9.65272 7.02571 9.65272C6.1636 9.65272 5.52624 9.47219 5.20939 9.11851Z" fill="#E78101"/>
<path id="Vector_5" d="M5.20939 8.75718C4.86235 8.37013 4.68226 7.86164 4.70834 7.34244V4.71191H5.8136V7.48981C5.79547 7.84648 5.88397 8.20047 6.06781 8.50665C6.18157 8.64316 6.32811 8.74857 6.49371 8.81301C6.65931 8.87744 6.83855 8.8988 7.01466 8.87507C7.18828 8.89424 7.36396 8.8707 7.52641 8.80649C7.68886 8.74228 7.83316 8.63935 7.94676 8.50665C8.13759 8.19771 8.2289 7.83761 8.20834 7.47507V4.71191H9.3136V7.34244C9.33909 7.8609 9.16056 8.36873 8.81624 8.75718C8.48834 9.1256 7.88781 9.2877 7.02571 9.2877C6.1636 9.2877 5.52624 9.11086 5.20939 8.75718Z" fill="#FDD734"/>
<g id="Clip path group">
<mask id="mask0_802_3143" style="mask-type:luminance" maskUnits="userSpaceOnUse" x="0" y="0" width="14" height="14">
<g id="clip-path">
<path id="Vector_6" d="M7 0C5.61553 0 4.26216 0.410543 3.11101 1.17971C1.95987 1.94888 1.06266 3.04213 0.532846 4.32122C0.00303297 5.6003 -0.13559 7.00776 0.134506 8.36563C0.404603 9.7235 1.07129 10.9708 2.05026 11.9497C3.02922 12.9287 4.2765 13.5954 5.63437 13.8655C6.99224 14.1356 8.3997 13.997 9.67879 13.4672C10.9579 12.9373 12.0511 12.0401 12.8203 10.889C13.5895 9.73785 14 8.38447 14 7C14 5.14348 13.2625 3.36301 11.9497 2.05025C10.637 0.737498 8.85652 0 7 0ZM7 12.3532C5.94125 12.3532 4.90627 12.0392 4.02595 11.451C3.14563 10.8628 2.4595 10.0267 2.05433 9.04856C1.64916 8.0704 1.54315 6.99406 1.7497 5.95565C1.95626 4.91724 2.4661 3.9634 3.21475 3.21475C3.9634 2.46609 4.91724 1.95625 5.95565 1.7497C6.99406 1.54315 8.07041 1.64916 9.04857 2.05433C10.0267 2.45949 10.8628 3.14562 11.451 4.02594C12.0392 4.90627 12.3532 5.94124 12.3532 7C12.3522 8.41945 11.7879 9.78047 10.7842 10.7842C9.78048 11.7879 8.41945 12.3522 7 12.3532Z" fill="white"/>
</g>
</mask>
<g mask="url(#mask0_802_3143)">
<g id="Group">
<path id="Vector_7" d="M14.6567 1.08805L12.471 -1.09766L-0.473852 11.8472L1.71185 14.0329L14.6567 1.08805Z" fill="#FEEC9A"/>
<path id="Vector_8" d="M15.6502 2.07937L14.9156 1.34473L1.97067 14.2896L2.70531 15.0243L15.6502 2.07937Z" fill="#FEEC9A"/>
<path id="Vector_9" d="M12.2085 -1.36106L11.4739 -2.0957L-1.471 10.8492L-0.736352 11.5838L12.2085 -1.36106Z" fill="#FEEC9A"/>
</g>
</g>
</g>
</g>
</svg>
