<svg width="22" height="22" viewBox="0 0 22 22" fill="none" xmlns="http://www.w3.org/2000/svg">
<g id="Group 1157">
<path id="Vector" d="M16.366 20.1829H3.70405C3.19841 20.1821 2.71375 19.9807 2.35649 19.6229C1.99923 19.265 1.79857 18.7801 1.79857 18.2744V3.70403C1.7991 3.19883 2.00002 2.71448 2.35726 2.35725C2.71449 2.00002 3.19885 1.7991 3.70405 1.79857H16.1561C16.3946 1.79857 16.6234 1.7038 16.792 1.53515C16.9607 1.36651 17.0554 1.13779 17.0554 0.899283C17.0554 0.660778 16.9607 0.432037 16.792 0.263389C16.6234 0.0947404 16.3946 0 16.1561 0H3.70405C2.722 0.00105796 1.78048 0.391634 1.08606 1.08605C0.391646 1.78046 0.00105796 2.72198 0 3.70403V18.2744C0.00105796 19.2565 0.391646 20.198 1.08606 20.8924C1.78048 21.5868 2.722 21.9774 3.70405 21.9785H16.366C16.6045 21.9785 16.8332 21.8837 17.0018 21.7151C17.1705 21.5464 17.2652 21.3177 17.2652 21.0792C17.2644 20.8412 17.1694 20.6132 17.0008 20.4452C16.8322 20.2772 16.6039 20.1829 16.366 20.1829Z" fill="#1A342B"/>
<path id="Vector_2" d="M21.8006 11.5691C21.8106 11.5581 21.8186 11.5461 21.8276 11.5341L21.8526 11.4991C21.862 11.4856 21.8707 11.4716 21.8786 11.4572C21.8856 11.4452 21.8926 11.4352 21.8986 11.4232L21.9196 11.3802C21.9246 11.3683 21.9305 11.3562 21.9365 11.3433L21.9515 11.3013C21.9515 11.2873 21.9615 11.2743 21.9655 11.2603C21.9695 11.2464 21.9735 11.2314 21.9775 11.2174C21.9815 11.2034 21.9845 11.1894 21.9875 11.1754C21.9905 11.1614 21.9925 11.1414 21.9955 11.1244C21.9985 11.1075 21.9955 11.1005 21.9955 11.0885C22.0015 11.0293 22.0015 10.9698 21.9955 10.9106C21.9955 10.8976 21.9955 10.8856 21.9955 10.8736C21.9955 10.8616 21.9905 10.8397 21.9875 10.8227C21.9845 10.8057 21.9805 10.7947 21.9775 10.7807C21.9745 10.7667 21.9705 10.7517 21.9655 10.7378C21.9605 10.7238 21.9565 10.7108 21.9515 10.6968L21.9365 10.6548C21.9305 10.6418 21.9246 10.6299 21.9196 10.6179L21.8986 10.5749C21.8926 10.5639 21.8856 10.5529 21.8786 10.5419C21.8711 10.5272 21.8624 10.5132 21.8526 10.4999C21.8446 10.4869 21.8356 10.476 21.8276 10.464C21.8196 10.452 21.8106 10.44 21.8006 10.429C21.7907 10.418 21.7677 10.391 21.7497 10.372L21.7417 10.3631L17.1344 5.75372C17.0509 5.67018 16.9517 5.60392 16.8426 5.55871C16.7335 5.5135 16.6165 5.49023 16.4984 5.49023C16.3803 5.49023 16.2633 5.5135 16.1542 5.55871C16.045 5.60392 15.9459 5.67018 15.8624 5.75372C15.7788 5.83723 15.7126 5.93638 15.6674 6.0455C15.6222 6.15463 15.5989 6.27159 15.5989 6.38971C15.5989 6.50783 15.6222 6.6248 15.6674 6.73392C15.7126 6.84305 15.7788 6.94219 15.8624 7.0257L18.9359 10.1003H7.70489C7.46638 10.1003 7.23765 10.195 7.069 10.3636C6.90035 10.5323 6.8056 10.761 6.8056 10.9995C6.8056 11.238 6.90035 11.4668 7.069 11.6354C7.23765 11.8041 7.46638 11.8988 7.70489 11.8988H18.9329L15.8604 14.9774C15.7768 15.0609 15.7106 15.16 15.6654 15.2692C15.6202 15.3783 15.5969 15.4952 15.5969 15.6134C15.5969 15.7315 15.6202 15.8484 15.6654 15.9576C15.7106 16.0667 15.7768 16.1658 15.8604 16.2494C16.0289 16.4181 16.2575 16.513 16.4959 16.5132C16.6141 16.5132 16.7312 16.4899 16.8404 16.4446C16.9496 16.3994 17.0488 16.333 17.1324 16.2494L21.7417 11.64L21.7497 11.631C21.7679 11.6114 21.7849 11.5907 21.8006 11.5691Z" fill="#1A342B"/>
</g>
</svg>
