<svg width="22" height="22" viewBox="0 0 22 22" fill="none" xmlns="http://www.w3.org/2000/svg">
<path id="Vector" d="M19.7158 9.75645C19.77 9.23509 19.796 8.71119 19.7938 8.18703V7.4163C19.7938 6.34336 19.3676 5.31436 18.6089 4.55568C17.8502 3.797 16.8212 3.37077 15.7483 3.37077C14.6753 3.37077 13.6463 3.797 12.8877 4.55568C12.129 5.31436 11.7027 6.34336 11.7027 7.4163V7.59124C11.7027 7.82984 11.7975 8.05868 11.9663 8.22741C12.135 8.39613 12.3638 8.49091 12.6024 8.49091C12.841 8.49091 13.0699 8.39613 13.2386 8.22741C13.4073 8.05868 13.5021 7.82984 13.5021 7.59124V7.4163C13.5021 6.82057 13.7387 6.24925 14.16 5.82801C14.5812 5.40677 15.1526 5.17012 15.7483 5.17012C16.344 5.17012 16.9153 5.40677 17.3366 5.82801C17.7578 6.24925 17.9945 6.82057 17.9945 7.4163V8.18703C17.9945 8.47426 17.9875 8.74083 17.9735 8.98674C17.3756 8.80171 16.7548 8.70078 16.1291 8.68685C14.2208 8.68685 13.1862 10.0583 13.1772 11.3559C13.1767 11.3599 13.1767 11.3639 13.1772 11.3679V11.3749C13.1766 11.3775 13.1766 11.3802 13.1772 11.3829C13.1763 11.7598 13.2527 12.1329 13.4016 12.4791C13.5505 12.8254 13.7687 13.1375 14.0429 13.3961C14.4428 13.761 15.1775 14.1708 16.373 14.0499C17.5976 13.9279 18.5443 13.2412 19.1121 12.0666C19.174 11.9367 19.233 11.8007 19.287 11.6598C19.8178 12.1116 20.1867 12.7044 20.1867 13.4501V17.0988C20.1867 17.9207 19.8602 18.7089 19.279 19.29C18.6979 19.8712 17.9097 20.1977 17.0878 20.1977H14.4038C13.5819 20.1977 12.7937 19.8712 12.2125 19.29C11.6314 18.7089 11.3049 17.9207 11.3049 17.0988V13.1852C11.3049 12.9466 11.2101 12.7178 11.0414 12.549C10.8727 12.3803 10.6438 12.2855 10.4052 12.2855C10.1666 12.2855 9.93778 12.3803 9.76905 12.549C9.60033 12.7178 9.50555 12.9466 9.50555 13.1852V17.1018C9.50453 18.232 9.89643 19.3275 10.6141 20.2007H4.89822C4.07635 20.2007 3.28814 19.8742 2.70699 19.293C2.12583 18.7119 1.79935 17.9237 1.79935 17.1018V4.89822C1.79935 4.07635 2.12583 3.28814 2.70699 2.70699C3.28814 2.12584 4.07635 1.79935 4.89822 1.79935H16.381C16.6197 1.79935 16.8485 1.70455 17.0172 1.53583C17.1859 1.36711 17.2807 1.13828 17.2807 0.899673C17.2807 0.661065 17.1859 0.432224 17.0172 0.263503C16.8485 0.0947815 16.6197 0 16.381 0H4.89822C3.59954 0.00132316 2.35442 0.517804 1.43612 1.43611C0.517809 2.35442 0.00132316 3.59954 0 4.89822V17.1018C0.00158721 18.4004 0.518158 19.6453 1.43641 20.5636C2.35466 21.4818 3.59962 21.9984 4.89822 22H17.0938C18.3924 21.9984 19.6373 21.4818 20.5556 20.5636C21.4739 19.6453 21.9904 18.4004 21.992 17.1018V13.4551C21.989 11.9636 21.1823 10.6561 19.7158 9.75645ZM16.1941 12.2615C15.7613 12.3055 15.4434 12.2386 15.2505 12.0616C15.0721 11.8766 14.9733 11.6289 14.9756 11.3719C14.9756 11.3109 15.0065 10.4852 16.1291 10.4852C16.6603 10.5047 17.1852 10.6059 17.6856 10.7851C17.2577 12.1556 16.504 12.2315 16.1931 12.2625L16.1941 12.2615Z" fill="#1A342B"/>
</svg>
