<svg width="20" height="22" viewBox="0 0 20 22" fill="none" xmlns="http://www.w3.org/2000/svg">
<g id="Group 873">
<path id="Vector" d="M14.243 21.9996H5.14598C4.9071 21.9996 4.67801 21.9047 4.50909 21.7358C4.34018 21.5669 4.24529 21.3378 4.24529 21.0989C4.24529 20.8601 4.34018 20.631 4.50909 20.462C4.67801 20.2931 4.9071 20.1982 5.14598 20.1982H14.243C14.4819 20.1982 14.711 20.2931 14.8799 20.462C15.0488 20.631 15.1437 20.8601 15.1437 21.0989C15.1437 21.3378 15.0488 21.5669 14.8799 21.7358C14.711 21.9047 14.4819 21.9996 14.243 21.9996Z" fill="#456C51"/>
<path id="Vector_2" d="M18.4853 22.0002C18.2464 22.0002 18.0173 21.9053 17.8484 21.7364C17.6795 21.5675 17.5846 21.3384 17.5846 21.0995V16.6171C17.5846 14.9388 17.1643 13.6748 16.3366 12.8602C15.3038 11.8434 13.8707 11.7543 13.3013 11.7593H13.2522C12.4744 11.7517 11.709 11.9551 11.0375 12.3478C11.9382 13.4887 12.4056 14.8497 12.4056 15.9786C12.4048 16.6858 12.1299 17.3653 11.6388 17.8741C11.1476 18.383 10.4783 18.6818 9.77155 18.7077C9.75288 18.7087 9.73417 18.7087 9.71551 18.7077H9.67347C9.65481 18.7087 9.6361 18.7087 9.61743 18.7077C8.91135 18.6813 8.24289 18.3826 7.75221 17.8742C7.26152 17.3658 6.98672 16.6872 6.9854 15.9806C6.9854 14.8517 7.45576 13.4907 8.35346 12.3498C7.68197 11.9571 6.9166 11.7537 6.13874 11.7613H6.0847C5.51826 11.7513 4.08316 11.8414 3.04936 12.8622C2.22172 13.6768 1.80139 14.9408 1.80139 16.6191V21.0995C1.80139 21.3384 1.7065 21.5675 1.53758 21.7364C1.36867 21.9053 1.13958 22.0002 0.900696 22.0002C0.661817 22.0002 0.432719 21.9053 0.263806 21.7364C0.0948923 21.5675 0 21.3384 0 21.0995V16.6171C0 14.4384 0.600464 12.7421 1.78538 11.5762C3.30355 10.082 5.31911 9.94992 6.11372 9.96293H6.13474C7.40725 9.95055 8.65146 10.3385 9.69149 11.0718C10.7319 10.3386 11.9764 9.95068 13.2492 9.96293H13.2693C14.0649 9.94792 16.0794 10.082 17.5976 11.5762C18.7825 12.7421 19.383 14.4384 19.383 16.6171V21.0995C19.383 21.3379 19.2885 21.5665 19.1202 21.7354C18.952 21.9042 18.7236 21.9994 18.4853 22.0002ZM9.69449 13.5657C9.08802 14.3753 8.78479 15.3001 8.78479 15.9836C8.78524 16.2266 8.88061 16.4598 9.05055 16.6335C9.2205 16.8071 9.45157 16.9076 9.69449 16.9133C9.93742 16.9076 10.1685 16.8071 10.3384 16.6335C10.5084 16.4598 10.6037 16.2266 10.6042 15.9836C10.6042 15.2951 10.301 14.3723 9.69449 13.5627V13.5657Z" fill="#456C51"/>
<path id="Vector_3" d="M9.69549 9.3262C8.45921 9.32488 7.27392 8.83325 6.39964 7.95916C5.52536 7.08506 5.03348 5.89989 5.03189 4.6636C5.03348 3.42723 5.52533 2.24193 6.39958 1.36768C7.27383 0.493432 8.45912 0.00158884 9.69549 0C10.9318 0.00158937 12.117 0.493464 12.9911 1.36774C13.8651 2.24202 14.3568 3.42732 14.3581 4.6636C14.3568 5.8998 13.8651 7.08497 12.991 7.95909C12.1169 8.83321 10.9317 9.32488 9.69549 9.3262ZM9.69549 1.80139C8.93663 1.80219 8.20908 2.10399 7.67248 2.64059C7.13588 3.17719 6.83408 3.90474 6.83328 4.6636C6.83408 5.42237 7.13592 6.14982 7.67254 6.68626C8.20917 7.2227 8.93672 7.52428 9.69549 7.52481C10.4541 7.52402 11.1814 7.22231 11.7178 6.6859C12.2542 6.1495 12.5559 5.4222 12.5567 4.6636C12.5562 3.90483 12.2546 3.17728 11.7182 2.64065C11.1817 2.10403 10.4543 1.80219 9.69549 1.80139Z" fill="#456C51"/>
</g>
</svg>
