<svg width="5" height="9" viewBox="0 0 5 9" fill="none" xmlns="http://www.w3.org/2000/svg">
<path id="Path Copy 9" d="M0.173162 8.31532C0.278354 8.4173 0.421095 8.47461 0.569941 8.47461C0.718787 8.47461 0.861528 8.4173 0.96672 8.31532L4.77888 4.62611C4.88419 4.52424 4.94336 4.386 4.94336 4.24185C4.94336 4.0977 4.88419 3.95946 4.77888 3.85759L0.966719 0.168384C0.826226 0.0254272 0.616718 -0.0324722 0.419481 0.0171484C0.222245 0.0667681 0.0683224 0.216099 0.0174348 0.407202C-0.0334527 0.598306 0.0267041 0.801103 0.174564 0.936911L3.58994 4.24185L0.174565 7.54679C0.0690698 7.64848 0.00964588 7.78662 0.00938268 7.93077C0.00911995 8.07492 0.0680394 8.21326 0.173162 8.31532Z" fill="#1A342B"/>
</svg>
