<svg width="60" height="60" viewBox="0 0 60 60" fill="none" xmlns="http://www.w3.org/2000/svg">
<g id="Group 994">
<g id="Group 866">
<path id="Vector" d="M29.9968 34.923C37.1044 34.923 42.8663 29.161 42.8663 22.0534C42.8663 14.9457 37.1044 9.18378 29.9968 9.18378C22.8891 9.18378 17.1272 14.9457 17.1272 22.0534C17.1272 29.161 22.8891 34.923 29.9968 34.923Z" fill="#65AF7C"/>
<path id="Vector_2" d="M6.00391 51.2926C6.00391 51.2926 8.05454 49.7129 10.069 50.5679C12.0835 51.423 11.8299 52.7781 11.3807 53.6332C11.2649 53.8909 11.0924 54.119 10.8761 54.3007C10.6598 54.4825 10.4054 54.613 10.1317 54.6827C9.8579 54.7524 9.57186 54.7593 9.29503 54.703C9.01821 54.6468 8.75775 54.5288 8.53289 54.3578C7.08361 53.2781 8.04739 51.7274 6.00391 51.2926Z" stroke="#204740" stroke-width="1.09" stroke-linecap="round" stroke-linejoin="round"/>
<path id="Vector_3" d="M8.74995 51.7708C8.74995 51.7708 11.6486 52.9737 12.4965 55.2128" stroke="#204740" stroke-width="1.09" stroke-linecap="round" stroke-linejoin="round"/>
<path id="Vector_4" d="M53.997 51.2926C53.997 51.2926 51.9462 49.7129 49.9317 50.5679C47.9172 51.423 48.1781 52.7781 48.6201 53.6332C48.7359 53.8909 48.9084 54.119 49.1246 54.3007C49.3409 54.4825 49.5955 54.613 49.8693 54.6827C50.143 54.7524 50.4289 54.7593 50.7057 54.703C50.9825 54.6468 51.2432 54.5288 51.468 54.3578C52.9173 53.2781 51.9535 51.7274 53.997 51.2926Z" stroke="#204740" stroke-width="1.09" stroke-linecap="round" stroke-linejoin="round"/>
<path id="Vector_5" d="M51.25 51.7708C51.25 51.7708 48.3513 52.9737 47.5107 55.2128" stroke="#204740" stroke-width="1.09" stroke-linecap="round" stroke-linejoin="round"/>
<path id="Vector_6" d="M27.8876 26.8867C27.8876 26.8867 28.1194 30.9664 25.5831 30.9664C23.0469 30.9664 19.786 31.5389 19.786 34.365C19.786 37.1911 20.2209 43.7853 16.9963 45.7201" stroke="#204740" stroke-width="1.09" stroke-linecap="round" stroke-linejoin="round"/>
<path id="Vector_7" d="M32.112 26.8867C32.112 26.8867 31.8802 30.9664 34.4165 30.9664C36.9527 30.9664 40.2136 31.5389 40.2136 34.365C40.2136 37.1911 39.7787 43.7853 43.0033 45.7201" stroke="#204740" stroke-width="1.09" stroke-linecap="round" stroke-linejoin="round"/>
<path id="Vector_8" d="M29.9963 27.365C32.7897 27.365 35.0542 24.9869 35.0542 22.0534C35.0542 19.1198 32.7897 16.7418 29.9963 16.7418C27.2028 16.7418 24.9383 19.1198 24.9383 22.0534C24.9383 24.9869 27.2028 27.365 29.9963 27.365Z" stroke="#204740" stroke-width="1.09" stroke-linecap="round" stroke-linejoin="round"/>
<path id="Vector_9" d="M24.1262 35.7997C24.1262 35.7997 25.6915 41.3505 24.0539 45.6621C23.8569 46.1564 23.5233 46.5844 23.0922 46.8962C22.661 47.208 22.1501 47.3907 21.619 47.423C19.3074 47.5824 15.2422 48.2056 15.3074 50.5607C15.3944 53.8433 20.3219 57.394 29.0756 53.8433C37.8292 50.2925 38.7567 49.9954 39.9451 50.9447" stroke="#204740" stroke-width="1.09" stroke-linecap="round" stroke-linejoin="round"/>
<path id="Vector_10" d="M35.8737 35.7997C35.8737 35.7997 34.3083 41.3505 35.946 45.6621C36.1438 46.1559 36.4775 46.5834 36.9084 46.8951C37.3394 47.2068 37.8501 47.3898 38.3809 47.423C40.6925 47.5824 44.7577 48.2056 44.6925 50.5607C44.6055 53.8433 39.678 57.394 30.9243 53.8433C22.1707 50.2925 21.2431 49.9954 20.0547 50.9447" stroke="#204740" stroke-width="1.09" stroke-linecap="round" stroke-linejoin="round"/>
<path id="Vector_11" d="M16.3731 48.7563C12.1596 45.8501 8.98572 41.6729 7.31479 36.8347C5.64386 31.9966 5.56355 26.7509 7.08551 21.8639C8.60746 16.9768 11.652 12.7043 15.7745 9.67039C19.8969 6.63646 24.8815 5 30.0001 5C35.1187 5 40.1031 6.63646 44.2255 9.67039C48.348 12.7043 51.3925 16.9768 52.9145 21.8639C54.4364 26.7509 54.3561 31.9966 52.6852 36.8347C51.0143 41.6729 47.8404 45.8501 43.6269 48.7563" stroke="#204740" stroke-width="1.09" stroke-linecap="round" stroke-linejoin="round"/>
<path id="Vector_12" d="M41.4823 27.8795C42.5077 25.8629 42.9837 23.6118 42.8624 21.3527C42.7411 19.0936 42.0267 16.9064 40.7913 15.0112C39.5558 13.116 37.8429 11.5797 35.8249 10.557C33.8069 9.53436 31.5552 9.06138 29.2963 9.18573C27.0374 9.31008 24.851 10.0274 22.9575 11.2654C21.0639 12.5033 19.53 14.2184 18.51 16.2377C17.4901 18.2571 17.0202 20.5095 17.1476 22.7682C17.275 25.027 17.9952 27.2123 19.2357 29.1041" stroke="#204740" stroke-width="1.09" stroke-linecap="round" stroke-linejoin="round" stroke-dasharray="0.1 3.92"/>
</g>
</g>
</svg>
