<svg width="21" height="22" viewBox="0 0 21 22" fill="none" xmlns="http://www.w3.org/2000/svg">
<path id="Vector" d="M10.0804 6.19514e-06C7.48165 -0.00287467 4.98243 0.999087 3.1054 2.79636C1.22837 4.59364 0.118896 7.04704 0.00901355 9.64346C-0.100869 12.2399 0.797347 14.7782 2.51581 16.7277C4.23428 18.6771 6.63991 19.8867 9.2296 20.1034L8.87284 20.4601C8.78908 20.5439 8.72263 20.6433 8.6773 20.7528C8.63197 20.8622 8.60864 20.9795 8.60864 21.098C8.60864 21.3372 8.70368 21.5666 8.87284 21.7358C9.04201 21.905 9.27145 22 9.51069 22C9.74992 22 9.97936 21.905 10.1485 21.7358L12.0074 19.8749C12.0912 19.7911 12.1577 19.6917 12.203 19.5822C12.2484 19.4728 12.2717 19.3555 12.2717 19.237C12.2717 19.1186 12.2484 19.0013 12.203 18.8918C12.1577 18.7824 12.0912 18.6829 12.0074 18.5992L10.1475 16.7393C9.97836 16.5701 9.74892 16.4751 9.50968 16.4751C9.27045 16.4751 9.04101 16.5701 8.87184 16.7393C8.70267 16.9084 8.60764 17.1379 8.60764 17.3771C8.60764 17.6164 8.70267 17.8458 8.87184 18.015L9.1374 18.2805C7.35433 18.0751 5.68666 17.2946 4.38659 16.0571C3.08653 14.8196 2.22478 13.1924 1.93169 11.4216C1.63859 9.65087 1.93008 7.83282 2.76208 6.24243C3.59408 4.65205 4.92134 3.37584 6.54311 2.60682C8.16489 1.8378 9.99297 1.61779 11.7509 1.98007C13.5088 2.34235 15.101 3.26721 16.2865 4.61478C17.4721 5.96236 18.1866 7.65935 18.3221 9.4491C18.4575 11.2389 18.0064 13.024 17.037 14.5346C16.9704 14.6342 16.9243 14.7461 16.9015 14.8637C16.8786 14.9813 16.8794 15.1023 16.9038 15.2196C16.9282 15.337 16.9757 15.4482 17.0436 15.547C17.1115 15.6457 17.1984 15.7299 17.2992 15.7947C17.4 15.8595 17.5127 15.9035 17.6307 15.9243C17.7487 15.945 17.8696 15.942 17.9865 15.9155C18.1033 15.889 18.2137 15.8394 18.3112 15.7697C18.4087 15.7 18.4913 15.6116 18.5542 15.5097C19.5307 13.9883 20.0797 12.2322 20.1434 10.4255C20.2072 8.61885 19.7835 6.82834 18.9167 5.24191C18.05 3.65548 16.7721 2.33162 15.2173 1.40929C13.6626 0.486954 11.8882 0.000168728 10.0804 6.19514e-06Z" fill="#65AF7C"/>
</svg>
