<svg width="375" height="375" viewBox="0 0 375 375" fill="none" xmlns="http://www.w3.org/2000/svg">
<path d="M92.3372 48.453C108.191 37.8963 125.709 30.0833 144.157 25.3414" stroke="#456C51" stroke-width="0.75" stroke-linecap="round" stroke-linejoin="round"/>
<path d="M51.2725 86.8639C53.693 83.7089 56.1969 80.6499 58.7844 77.6869" stroke="#456C51" stroke-width="0.75" stroke-linecap="round" stroke-linejoin="round"/>
<path d="M22.5522 236.789C13.7162 205.242 14.0942 171.825 23.6414 140.486" stroke="#456C51" stroke-width="0.75" stroke-linecap="round" stroke-linejoin="round"/>
<path d="M89.4964 330.55C84.3311 326.955 79.3659 323.081 74.6228 318.944" stroke="#456C51" stroke-width="0.75" stroke-linecap="round" stroke-linejoin="round"/>
<path d="M212.253 359.008C203.778 360.287 195.22 360.927 186.65 360.923C177.695 360.925 168.754 360.23 159.907 358.845" stroke="#456C51" stroke-width="0.75" stroke-linecap="round" stroke-linejoin="round"/>
<path d="M288.937 326.832C282.892 331.376 276.551 335.513 269.957 339.214" stroke="#456C51" stroke-width="0.75" stroke-linecap="round" stroke-linejoin="round"/>
<path d="M357.108 190.466C357.158 220.775 349.087 250.544 333.733 276.677" stroke="#456C51" stroke-width="0.75" stroke-linecap="round" stroke-linejoin="round"/>
<path d="M223.283 23.9517C251.26 30.0914 277.229 43.2055 298.778 62.0746" stroke="#456C51" stroke-width="0.75" stroke-linecap="round" stroke-linejoin="round"/>
<path d="M233.587 318.932C212.922 326.465 190.747 328.906 168.939 326.046C147.131 323.187 126.334 315.112 108.31 302.507C90.2865 289.901 75.5676 273.135 65.4011 253.631C55.2345 234.128 49.92 212.46 49.908 190.466" stroke="#456C51" stroke-width="0.75" stroke-linecap="round" stroke-linejoin="round"/>
<path d="M118.24 72.0404C123.296 69.1204 128.531 66.5236 133.915 64.2656" stroke="#456C51" stroke-width="0.75" stroke-linecap="round" stroke-linejoin="round"/>
<path d="M156.239 296.371L153.985 310.944H157.19L157.666 307.789L157.929 306.124H166.968L167.457 302.956H158.417L158.943 299.526H168.871L169.36 296.371H156.239Z" fill="#C6EBD5"/>
<path d="M31.6663 100.26H35.0216" stroke="#456C51" stroke-width="0.75" stroke-linecap="round" stroke-linejoin="round"/>
<path d="M33.3438 98.5825V101.938" stroke="#456C51" stroke-width="0.75" stroke-linecap="round" stroke-linejoin="round"/>
<path d="M17.5947 126.915H20.95" stroke="#456C51" stroke-width="0.75" stroke-linecap="round" stroke-linejoin="round"/>
<path d="M19.2725 125.237V128.593" stroke="#456C51" stroke-width="0.75" stroke-linecap="round" stroke-linejoin="round"/>
<path d="M52.613 178.008H55.9684" stroke="#456C51" stroke-width="0.75" stroke-linecap="round" stroke-linejoin="round"/>
<path d="M54.2888 176.331V179.686" stroke="#456C51" stroke-width="0.75" stroke-linecap="round" stroke-linejoin="round"/>
<path d="M218.625 342.169H221.981" stroke="#456C51" stroke-width="0.75" stroke-linecap="round" stroke-linejoin="round"/>
<path d="M220.302 340.491V343.846" stroke="#456C51" stroke-width="0.75" stroke-linecap="round" stroke-linejoin="round"/>
<path d="M225.448 333.467H228.804" stroke="#456C51" stroke-width="0.75" stroke-linecap="round" stroke-linejoin="round"/>
<path d="M227.126 331.79V335.145" stroke="#456C51" stroke-width="0.75" stroke-linecap="round" stroke-linejoin="round"/>
<path d="M262.243 331.427H265.598" stroke="#456C51" stroke-width="0.75" stroke-linecap="round" stroke-linejoin="round"/>
<path d="M263.923 329.749V333.104" stroke="#456C51" stroke-width="0.75" stroke-linecap="round" stroke-linejoin="round"/>
<path d="M45.7502 169.295H49.1056" stroke="#456C51" stroke-width="0.75" stroke-linecap="round" stroke-linejoin="round"/>
<path d="M47.428 167.617V170.972" stroke="#456C51" stroke-width="0.75" stroke-linecap="round" stroke-linejoin="round"/>
<path d="M291.628 216.832C287.697 216.832 284.517 218.16 284.517 219.775V232.094C284.517 232.708 287.71 233.196 291.641 233.183C295.572 233.171 298.752 232.67 298.752 232.069V219.737C298.752 218.134 295.572 216.832 291.628 216.832Z" fill="#FFFCF5" stroke="#456C51" stroke-width="0.75" stroke-linecap="round" stroke-linejoin="round"/>
<path d="M291.629 218.41V214.742" stroke="#456C51" stroke-width="0.75" stroke-linecap="round" stroke-linejoin="round"/>
<path d="M291.629 214.729C291.629 214.729 294.571 214.729 294.133 210.973C294.016 209.913 293.635 208.899 293.025 208.024C292.415 207.149 291.594 206.441 290.64 205.965C290.64 205.965 291.115 208.669 289.688 210.059C289.314 210.445 289.061 210.933 288.961 211.461C288.861 211.989 288.917 212.535 289.123 213.032C289.33 213.528 289.677 213.954 290.122 214.255C290.567 214.557 291.091 214.722 291.629 214.729Z" fill="#F2AA8F" stroke="#456C51" stroke-width="0.75" stroke-linecap="round" stroke-linejoin="round"/>
<path d="M308.181 211.887C304.25 211.887 301.07 213.214 301.07 214.829V232.057C301.07 232.67 304.25 233.158 308.181 233.146C312.112 233.133 315.292 232.645 315.292 232.031V214.792C315.292 213.177 312.112 211.875 308.181 211.887Z" fill="#FFFCF5" stroke="#456C51" stroke-width="0.75" stroke-linecap="round" stroke-linejoin="round"/>
<path d="M308.18 213.252V209.583" stroke="#456C51" stroke-width="0.75" stroke-linecap="round" stroke-linejoin="round"/>
<path d="M308.168 209.571C308.168 209.571 311.122 209.571 310.672 205.815C310.559 204.755 310.181 203.741 309.572 202.866C308.964 201.99 308.145 201.282 307.191 200.807C307.191 200.807 307.654 203.511 306.227 204.901C305.859 205.289 305.611 205.776 305.514 206.303C305.417 206.829 305.474 207.372 305.68 207.867C305.885 208.361 306.23 208.785 306.671 209.087C307.113 209.39 307.633 209.558 308.168 209.571Z" fill="#F2AA8F" stroke="#456C51" stroke-width="0.75" stroke-linecap="round" stroke-linejoin="round"/>
<path d="M287.448 197.464C287.757 197.579 288.024 197.783 288.216 198.051C288.408 198.318 288.515 198.637 288.525 198.967C288.531 199.62 288.455 200.272 288.299 200.907C288.145 201.555 288.234 202.236 288.55 202.823" stroke="#456C51" stroke-width="0.75" stroke-linecap="round" stroke-linejoin="round"/>
<path d="M290.115 194.422C290.794 194.689 291.37 195.166 291.759 195.783C292.149 196.399 292.331 197.125 292.281 197.852C292.281 198.403 292.043 198.929 292.018 199.48C291.983 199.756 292.026 200.037 292.144 200.289C292.261 200.542 292.447 200.756 292.681 200.907" stroke="#456C51" stroke-width="0.75" stroke-linecap="round" stroke-linejoin="round"/>
<path d="M305.1 198.215C304.827 198.23 304.557 198.154 304.331 198C304.104 197.847 303.935 197.623 303.848 197.364C303.691 196.854 303.691 196.309 303.848 195.799C304.042 195.283 304.205 194.757 304.336 194.222C304.39 193.96 304.388 193.689 304.33 193.428C304.271 193.167 304.158 192.921 303.998 192.707" stroke="#456C51" stroke-width="0.75" stroke-linecap="round" stroke-linejoin="round"/>
<path d="M305.438 187.736C306.416 188.162 307.228 188.897 307.749 189.829C308.269 190.761 308.469 191.838 308.317 192.894C308.192 193.608 307.916 194.297 307.816 195.01C307.74 195.368 307.756 195.739 307.861 196.089C307.966 196.439 308.157 196.757 308.417 197.013" stroke="#456C51" stroke-width="0.75" stroke-linecap="round" stroke-linejoin="round"/>
<path d="M269.556 174.403C272.35 174.403 274.614 172.138 274.614 169.345C274.614 166.551 272.35 164.287 269.556 164.287C266.763 164.287 264.498 166.551 264.498 169.345C264.498 172.138 266.763 174.403 269.556 174.403Z" fill="#65AF7C"/>
<path d="M298.591 175.993C300.527 175.993 302.096 174.423 302.096 172.487C302.096 170.551 300.527 168.982 298.591 168.982C296.654 168.982 295.085 170.551 295.085 172.487C295.085 174.423 296.654 175.993 298.591 175.993Z" fill="#65AF7C"/>
<path d="M281.525 155.623C281.525 155.425 281.565 155.229 281.642 155.047C281.72 154.866 281.833 154.701 281.976 154.564C282.119 154.427 282.288 154.321 282.473 154.251C282.658 154.181 282.855 154.15 283.053 154.158C283.441 154.158 283.814 154.312 284.088 154.587C284.363 154.862 284.517 155.234 284.517 155.623V169.295C285.896 170.031 287.113 171.036 288.098 172.249C288.849 173.626 289.05 174.678 288.261 177.132C287.472 179.586 288.035 180.337 289.25 180.625L294.633 181.877C295.298 182.04 295.871 182.46 296.227 183.044C296.584 183.628 296.695 184.329 296.536 184.994L294.959 191.542C294.902 191.778 294.939 192.027 295.063 192.235C295.187 192.443 295.388 192.595 295.622 192.657C296.549 192.894 297.851 193.408 297.851 194.409H293.068C292.892 194.41 292.717 194.374 292.555 194.303C292.394 194.231 292.249 194.127 292.131 193.995C292.012 193.864 291.923 193.709 291.869 193.541C291.815 193.373 291.797 193.195 291.816 193.02L292.931 185.508L286.671 185.408C286.671 185.408 282.364 185.833 282.502 181.501C282.639 177.17 282.201 172.299 282.201 172.299" stroke="#456C51" stroke-width="0.75" stroke-linecap="round" stroke-linejoin="round"/>
<path d="M281.525 170.196V159.166C281.504 158.64 281.35 158.128 281.079 157.678C280.808 157.227 280.427 156.852 279.972 156.587" stroke="#456C51" stroke-width="0.75" stroke-linecap="round" stroke-linejoin="round"/>
<path d="M285.556 180.149L282.539 179.811L270.119 189.477C269.862 189.673 269.673 189.946 269.581 190.257C269.489 190.567 269.497 190.899 269.606 191.204L270.533 193.821C270.6 194.009 270.724 194.171 270.888 194.286C271.052 194.4 271.247 194.461 271.447 194.459H273.037L272.436 191.142C276.161 188.691 280.14 186.651 284.304 185.057" stroke="#456C51" stroke-width="0.75" stroke-linecap="round" stroke-linejoin="round"/>
<path d="M287.484 163.16C286.685 164.043 285.623 164.644 284.454 164.875" stroke="#456C51" stroke-width="0.75" stroke-linecap="round" stroke-linejoin="round"/>
<path d="M281.524 160.856C281.202 160.806 280.871 160.868 280.589 161.032C280.306 161.196 280.088 161.452 279.972 161.758C279.396 162.884 279.496 163.911 280.047 164.262C280.502 164.539 281.002 164.734 281.524 164.838" stroke="#456C51" stroke-width="0.75" stroke-linecap="round" stroke-linejoin="round"/>
<path d="M284.454 161.67C284.694 161.576 284.948 161.525 285.206 161.52C286.783 161.52 288.048 163.41 288.048 165.726C288.048 168.043 286.871 169.795 285.393 169.933" stroke="#456C51" stroke-width="0.75" stroke-linecap="round" stroke-linejoin="round"/>
<path d="M298.403 173.664L299.655 170.484C299.84 170.52 300.007 170.618 300.13 170.761C300.252 170.904 300.323 171.084 300.331 171.273" stroke="#FFFCF5" stroke-width="0.75" stroke-linecap="round" stroke-linejoin="round"/>
<path d="M297.713 174.152C298.121 174.152 298.452 173.822 298.452 173.414C298.452 173.006 298.121 172.675 297.713 172.675C297.305 172.675 296.975 173.006 296.975 173.414C296.975 173.822 297.305 174.152 297.713 174.152Z" stroke="#FFFCF5" stroke-width="0.75" stroke-linecap="round" stroke-linejoin="round"/>
<path d="M268.918 171.348L267.228 167.154L270.683 165.764L272.374 169.958" stroke="#FFFCF5" stroke-width="0.75" stroke-linecap="round" stroke-linejoin="round"/>
<path d="M268.002 172.687C268.542 172.687 268.979 172.25 268.979 171.711C268.979 171.172 268.542 170.734 268.002 170.734C267.463 170.734 267.026 171.172 267.026 171.711C267.026 172.25 267.463 172.687 268.002 172.687Z" stroke="#FFFCF5" stroke-width="0.75" stroke-linecap="round" stroke-linejoin="round"/>
<path d="M271.459 171.298C271.998 171.298 272.435 170.86 272.435 170.321C272.435 169.782 271.998 169.345 271.459 169.345C270.919 169.345 270.482 169.782 270.482 170.321C270.482 170.86 270.919 171.298 271.459 171.298Z" stroke="#FFFCF5" stroke-width="0.75" stroke-linecap="round" stroke-linejoin="round"/>
<path d="M270.679 165.79L267.217 167.18L267.847 168.749L271.309 167.358L270.679 165.79Z" stroke="#FFFCF5" stroke-width="0.75" stroke-linecap="round" stroke-linejoin="round"/>
<path d="M276.904 176.932C275.98 176.424 274.921 176.216 273.873 176.337C272.826 176.458 271.842 176.902 271.058 177.608C268.078 180.112 265.611 180.575 264.385 180.112" stroke="#456C51" stroke-width="0.75" stroke-linecap="round" stroke-linejoin="round"/>
<path d="M268.843 160.831C268.843 160.831 270.232 159.579 271.284 159.779C272.336 159.98 273.438 160.806 274.652 160.481" stroke="#456C51" stroke-width="0.75" stroke-linecap="round" stroke-linejoin="round"/>
<path d="M290.714 159.917C290.714 159.917 294.332 157.751 296.786 160.28C297.558 161.071 298.516 161.655 299.573 161.978C300.63 162.302 301.751 162.355 302.833 162.133" stroke="#456C51" stroke-width="0.75" stroke-linecap="round" stroke-linejoin="round"/>
<path d="M305.375 109.287C307.833 110.134 310.209 111.203 312.473 112.48C314.289 113.807 314.977 114.983 314.402 115.672C313.826 116.361 310.082 117.7 305.525 117.162C300.968 116.624 292.63 115.622 287.083 113.218C287.083 113.218 279.797 110.564 279.258 108.386C278.72 106.207 283.803 105.343 288.761 105.882C288.761 105.882 289.525 105.781 289.675 106.457C289.858 107.478 290.269 108.444 290.879 109.283C291.488 110.122 292.279 110.813 293.193 111.303C296.022 112.83 301.156 112.48 301.156 112.48C302.921 111.999 304.432 110.855 305.375 109.287Z" fill="url(#paint0_linear_1269_7308)" stroke="#456C51" stroke-width="0.75" stroke-linecap="round" stroke-linejoin="round"/>
<path d="M313.2 109.265C313.929 108.788 314.259 108.003 313.938 107.511C313.616 107.019 312.764 107.007 312.035 107.484C311.306 107.961 310.976 108.747 311.298 109.238C311.619 109.73 312.471 109.742 313.2 109.265Z" stroke="#456C51" stroke-width="0.75" stroke-linecap="round" stroke-linejoin="round"/>
<path d="M284.649 96.7271C285.247 96.5306 285.494 95.6471 285.2 94.7538C284.906 93.8604 284.183 93.2956 283.586 93.4921C282.988 93.6886 282.742 94.5721 283.035 95.4654C283.329 96.3588 284.052 96.9236 284.649 96.7271Z" stroke="#456C51" stroke-width="0.75" stroke-linecap="round" stroke-linejoin="round"/>
<path d="M309.345 97.6184L311.385 98.0441C311.905 98.1525 312.36 98.4626 312.651 98.9062C312.942 99.3498 313.045 99.8908 312.938 100.41L312.262 103.628C312.153 104.147 311.843 104.603 311.4 104.894C310.956 105.185 310.415 105.288 309.895 105.18L307.016 104.579" stroke="#456C51" stroke-width="0.75" stroke-linecap="round" stroke-linejoin="round"/>
<path d="M313.312 92.8108C308.693 97.9565 302.683 96.667 299.841 96.0785C294.545 94.9768 290.526 92.7733 290.864 91.1707C291.202 89.5682 295.76 89.155 301.055 90.2568C306.351 91.3585 310.383 93.562 310.045 95.1771L305.788 108.047C305.282 109.616 304.216 110.943 302.793 111.774C301.37 112.606 299.691 112.884 298.076 112.555L294.933 111.891C293.325 111.557 291.896 110.642 290.919 109.321C289.942 108 289.486 106.366 289.637 104.73L290.651 94.3508" stroke="#456C51" stroke-width="0.75" stroke-linecap="round" stroke-linejoin="round"/>
<path d="M285.143 78.7385C285.143 78.7385 288.623 77.6117 290.889 79.7401C293.156 81.8685 292.141 83.4961 291.177 84.435C290.902 84.7219 290.565 84.9429 290.192 85.0815C289.819 85.22 289.42 85.2726 289.024 85.2353C288.628 85.198 288.246 85.0718 287.905 84.866C287.565 84.6602 287.275 84.3802 287.058 84.0469C285.631 81.8935 287.659 80.291 285.143 78.7385Z" stroke="#456C51" stroke-width="0.75" stroke-linecap="round" stroke-linejoin="round"/>
<path d="M288.561 80.6791C288.561 80.6791 291.854 83.6463 291.929 87.0392" stroke="#456C51" stroke-width="0.75" stroke-linecap="round" stroke-linejoin="round"/>
<path d="M320.024 84.748C319.409 84.4137 318.722 84.2333 318.022 84.2224C317.322 84.2115 316.63 84.3704 316.005 84.6854C314.202 85.8373 314.653 87.0893 315.216 87.8404C315.369 88.0675 315.571 88.2574 315.807 88.396C316.043 88.5346 316.307 88.6185 316.58 88.6413C316.853 88.6641 317.127 88.6254 317.383 88.528C317.639 88.4305 317.87 88.2769 318.058 88.0783C319.285 86.8138 318.108 85.4742 320.024 84.748Z" stroke="#456C51" stroke-width="0.75" stroke-linecap="round" stroke-linejoin="round"/>
<path d="M317.458 85.6245C316.006 86.5155 314.916 87.8898 314.378 89.5056" stroke="#456C51" stroke-width="0.75" stroke-linecap="round" stroke-linejoin="round"/>
<path d="M299.955 75.9466C300.357 76.5545 300.613 77.2468 300.704 77.9698C300.795 78.6928 300.719 79.4271 300.481 80.1157C299.529 82.0688 299.517 84.0845 300.405 85.011" stroke="#456C51" stroke-width="0.75" stroke-linecap="round" stroke-linejoin="round"/>
<path d="M308.693 80.967C308.687 81.5406 308.549 82.1051 308.291 82.6173C308.033 83.1295 307.661 83.5757 307.203 83.9217C305.726 84.7731 304.824 86.0751 305.012 87.0767" stroke="#456C51" stroke-width="0.75" stroke-linecap="round" stroke-linejoin="round"/>
<path d="M305.326 109.162C311.21 111.115 315.066 113.481 314.703 115.221C314.202 117.625 305.814 117.913 295.923 115.86C286.033 113.807 278.521 110.188 279.022 107.785C279.372 106.094 283.642 105.443 289.563 105.932" stroke="#456C51" stroke-width="0.75" stroke-linecap="round" stroke-linejoin="round"/>
<path d="M31.5527 114.533L26.7451 117.262C26.7451 117.262 40.6797 127.866 44.1978 143.917L65.4815 133.55L64.0918 130.971L31.5527 114.533Z" fill="#99D4F7" stroke="#456C51" stroke-width="0.75" stroke-linecap="round" stroke-linejoin="round"/>
<path d="M28.085 111.716C28.085 111.716 42.8208 121.945 47.2528 139.009L69.3629 128.467C69.3629 128.467 61.851 107.735 49.9321 100.423L28.085 111.716Z" fill="#FFFCF5" stroke="#456C51" stroke-width="0.75" stroke-linecap="round" stroke-linejoin="round"/>
<path d="M50.9458 107.171L38.3884 113.669" stroke="#456C51" stroke-width="0.75" stroke-linecap="round" stroke-linejoin="round"/>
<path d="M53.5762 110.038L41.0188 116.523" stroke="#456C51" stroke-width="0.75" stroke-linecap="round" stroke-linejoin="round"/>
<path d="M46.1008 124.549V121.068L50.7958 122.283V118.164L56.004 119.916V116.035L60.2983 117.487" stroke="#456C51" stroke-width="0.75" stroke-linecap="round" stroke-linejoin="round"/>
<path d="M114.26 185.458C123.024 185.458 132.176 182.691 134.392 168.331C136.608 153.97 125.152 152.455 119.368 152.455C113.584 152.455 101.665 153.97 99.4491 168.331C97.2331 182.691 105.471 185.458 114.26 185.458Z" stroke="#00AEEF" stroke-width="6.45" stroke-miterlimit="10"/>
<path d="M305.3 299.576L309.507 298.712L313.538 310.694L306.352 312.183L305.3 299.576Z" fill="#F2AA8F"/>
<path d="M294.659 298.65L298.803 299.776L296.988 312.284L289.902 310.356L294.659 298.65Z" fill="#F2AA8F"/>
<path d="M315.767 295.194L318.922 292.277L328.562 300.478L323.153 305.448L315.767 295.194Z" fill="#F2AA8F"/>
<path d="M345.864 121.081L342.521 118.376L349.244 107.672L354.953 112.292L345.864 121.081Z" fill="#65AF7C"/>
<path d="M351.875 129.907L350.122 125.988L360.951 119.466L363.956 126.176L351.875 129.907Z" fill="#65AF7C"/>
<path d="M335.837 115.76L331.58 115.159L331.831 102.514L339.105 103.54L335.837 115.76Z" fill="#65AF7C"/>
<path d="M114.259 189.426C106.998 189.426 101.902 187.599 98.6723 183.855C95.4422 180.112 94.3905 174.666 95.4797 167.654C97.3702 155.385 106.084 148.349 119.38 148.349C126.391 148.349 131.9 150.39 135.143 154.233C138.235 157.839 139.324 162.772 138.385 168.881C136.282 182.516 128.157 189.426 114.259 189.426ZM119.38 156.424C110.09 156.424 104.732 160.618 103.455 168.944C102.754 173.526 103.204 176.781 104.807 178.659C106.41 180.537 109.489 181.414 114.259 181.414C124.275 181.414 128.895 177.445 130.398 167.717C130.961 164.036 130.498 161.294 129.008 159.554C126.829 156.963 122.573 156.424 119.38 156.424Z" fill="#C6EBD5"/>
<path d="M177.598 149.075L173.842 173.651C172.752 180.675 164.815 181.426 161.46 181.426C157.704 181.426 154.787 180.55 153.459 178.997C152.996 178.369 152.678 177.645 152.529 176.879C152.379 176.112 152.402 175.322 152.596 174.565L156.351 150.465L156.564 149.075H148.389L144.633 173.326C144.24 175.236 144.281 177.21 144.753 179.102C145.225 180.994 146.117 182.755 147.362 184.256C150.304 187.686 155.187 189.514 161.485 189.514C172.652 189.514 180.452 183.905 181.854 174.878L185.61 150.314L185.798 149.062L177.598 149.075Z" fill="#C6EBD5"/>
<path d="M101.415 149.062H89.3708L74.6099 162.396L65.7333 149.062H56.043L69.602 169.47L66.9227 186.897H75.0856L77.6147 170.572L101.415 149.062Z" fill="#C6EBD5"/>
<path d="M217.948 172.237C219.784 171.334 221.378 170.005 222.595 168.36C223.813 166.716 224.619 164.804 224.947 162.784C225.723 157.776 224.133 154.609 222.643 152.881C221.56 151.715 220.252 150.78 218.797 150.135C217.342 149.489 215.771 149.146 214.18 149.125H193.772L187.901 186.897H196.064L198.017 174.265H209.184H210.123L214.543 186.923H223.094L217.948 172.237ZM216.972 161.557C216.534 164.374 213.466 166.19 209.159 166.19H199.306L200.696 157.163H214.13C215.023 157.196 215.875 157.547 216.534 158.152C217.092 159.195 217.24 160.41 216.947 161.557H216.972Z" fill="#C6EBD5"/>
<path d="M245.643 301.041H248.636C248.706 299.789 248.304 298.555 247.509 297.585C246.257 296.133 244.341 295.394 241.624 295.394C239.346 295.4 237.143 296.209 235.402 297.679C233.661 299.149 232.495 301.187 232.109 303.432C231.906 304.519 231.931 305.637 232.18 306.714C232.43 307.791 232.901 308.805 233.562 309.692C234.286 310.456 235.17 311.05 236.15 311.433C237.13 311.816 238.183 311.978 239.233 311.908C242.451 311.908 246.745 311.507 247.333 308.039L248.172 302.568H239.308V305.686H244.542L244.254 307.564C244.141 308.315 242.213 308.816 239.246 308.816C238.64 308.878 238.028 308.807 237.453 308.608C236.878 308.409 236.353 308.087 235.915 307.664C235.182 306.559 234.916 305.208 235.177 303.908C235.451 302.399 236.245 301.034 237.42 300.048C238.595 299.063 240.078 298.519 241.612 298.512C242.229 298.438 242.855 298.491 243.452 298.668C244.048 298.844 244.602 299.14 245.08 299.539C245.246 299.749 245.368 299.99 245.439 300.248C245.509 300.506 245.528 300.776 245.493 301.041H245.643Z" fill="#C6EBD5"/>
<path d="M195.037 194.785L193.785 202.873H209.034L204.452 232.632H212.615L217.21 202.873H232.459L233.711 194.785H195.037Z" fill="#C6EBD5"/>
<path d="M74.5092 194.797H70.6531H66.3337L64.2679 208.156H43.5351L45.5007 195.373L45.5883 194.797H41.7447H37.4254L31.9292 230.441L31.6663 232.082H35.7853H39.8417L42.2831 216.231H63.0285L60.6747 231.456H60.6873L60.5871 232.082H64.6936H68.75L74.409 195.373L74.5092 194.797Z" fill="#C6EBD5"/>
<path d="M276.029 194.797H272.173H267.866L265.8 208.156H245.068L247.033 195.373L247.133 194.797H243.277H238.958L233.462 230.441L233.199 232.082H237.318H241.374L243.816 216.231H264.561L262.207 231.456H262.22L262.12 232.082H266.226H270.283L275.941 195.373L276.029 194.797Z" fill="#C6EBD5"/>
<path d="M116.401 194.797H82.8474L77.1008 232.082H110.629L111.881 224.006H109.089L109.039 224.394L109.089 224.006H86.5158L87.7177 216.231H110.291L111.543 208.156H88.9571L89.7709 202.873H115.149L116.401 194.797Z" fill="#C6EBD5"/>
<path d="M304.875 262.342C313.213 255.919 324.343 253.115 324.506 253.077L322.603 245.227C321.714 245.44 307.216 249.071 297.213 258.261C286.916 253.685 275.974 250.728 264.774 249.497C225.699 244.827 186.775 257.459 161.009 268.902C93.5148 298.837 48.2055 298.512 29.9265 289.122C26.4961 287.357 22.2018 284.314 21.2753 279.795C20.9733 278.166 21.0109 276.492 21.3857 274.879C21.7606 273.265 22.4646 271.746 23.4537 270.417C27.4225 264.621 35.4352 260.477 45.9895 258.724C65.7458 255.469 98.9985 264.608 99.324 264.696L102.191 265.497L123.725 232.019L128.47 224.645H147.575L149.741 232.019H158.155L147.1 194.222H138.486L114.16 232.082L98.6354 256.22C89.7839 253.979 62.8537 247.832 44.7124 250.824C31.9297 252.927 22.014 258.336 16.7932 265.848C15.1917 268.076 14.0615 270.608 13.4717 273.288C12.8819 275.968 12.8448 278.74 13.3628 281.435C14.6147 287.494 19.0718 292.628 26.2332 296.308C34.5213 300.565 46.2649 302.756 60.2621 302.756C66.4138 302.736 72.5591 302.356 78.6663 301.617C103.994 298.662 133.591 289.898 164.277 276.277C209.348 256.245 243.252 254.993 263.822 257.497C273.442 258.566 282.865 260.977 291.817 264.658C289.711 267.905 288.398 271.602 287.986 275.45C287.097 283.814 290.289 288.145 293.119 290.311C295.242 291.793 297.694 292.738 300.263 293.062C302.832 293.387 305.441 293.083 307.867 292.177C309.902 291.337 311.696 290.003 313.087 288.296C314.477 286.589 315.42 284.562 315.83 282.399C316.37 279.599 316.195 276.707 315.319 273.993C314.444 271.279 312.897 268.831 310.822 266.874C309.015 265.146 307.02 263.625 304.875 262.342ZM141.578 204.237L145.197 216.582H133.691L141.578 204.237ZM307.855 280.608C307.719 281.461 307.375 282.268 306.853 282.955C306.331 283.643 305.647 284.192 304.862 284.552C303.727 284.957 302.515 285.101 301.316 284.973C300.118 284.845 298.963 284.449 297.939 283.814C296.211 282.486 295.535 279.932 295.923 276.214C296.251 273.309 297.32 270.537 299.028 268.164C301.2 269.343 303.219 270.785 305.038 272.458C306.174 273.476 307.032 274.766 307.534 276.207C308.035 277.648 308.163 279.193 307.905 280.696L307.855 280.608Z" fill="#C6EBD5"/>
<path d="M171.326 224.006L175.746 195.373H175.721L175.921 194.146H167.77L161.911 232.082H192.722L193.974 224.006H171.326Z" fill="#C6EBD5"/>
<path d="M43.0227 293.429C47.1918 294.017 47.004 294.28 51.2107 294.293C53.6642 294.339 56.1037 293.914 58.3971 293.041C59.8506 292.441 61.1891 291.594 62.3533 290.537C62.4641 290.462 62.5572 290.363 62.6264 290.249C62.6955 290.134 62.7391 290.006 62.754 289.873C62.754 289.36 62.0153 289.285 61.502 289.347L57.746 289.898C57.2398 289.925 56.7525 290.099 56.3438 290.399C56.0934 290.637 55.9307 290.962 55.6677 291.2C54.9541 291.839 53.8273 291.476 52.9509 291.075L48.5064 289.059C47.4699 288.537 46.3722 288.146 45.2387 287.895C44.0923 287.647 42.8945 287.839 41.8834 288.433C41.399 288.743 41.0201 289.193 40.7965 289.723C40.573 290.252 40.5154 290.837 40.6314 291.401C40.8173 291.977 41.1875 292.477 41.6851 292.823C42.1828 293.17 42.7802 293.343 43.3858 293.316C43.9903 293.271 44.5768 293.09 45.1015 292.787C45.6262 292.483 46.0754 292.065 46.4156 291.563C47.1011 290.555 47.5308 289.395 47.6676 288.183C47.8178 287.156 49.5581 287.332 50.497 286.931C51.0709 286.614 51.552 286.153 51.8924 285.593C52.2329 285.033 52.4208 284.394 52.4376 283.738C52.4602 282.43 52.2482 281.128 51.8116 279.895" stroke="#456C51" stroke-width="0.75" stroke-linecap="round" stroke-linejoin="round"/>
<path d="M60.0366 279.219C59.2652 280.348 58.8509 281.682 58.8472 283.05C58.8577 283.733 59.0232 284.404 59.3311 285.014C59.6391 285.623 60.0816 286.154 60.625 286.568C61.6779 287.205 62.8878 287.534 64.1181 287.519C65.3463 287.491 66.5735 287.609 67.7739 287.87C68.3729 288.001 68.9287 288.282 69.3887 288.687C69.8488 289.093 70.1979 289.608 70.403 290.186C70.5257 290.791 70.4796 291.418 70.2698 291.999C70.0601 292.58 69.6947 293.092 69.2137 293.479C67.9507 294.217 66.5194 294.618 65.0571 294.643C62.5288 294.916 59.9766 294.879 57.4575 294.531" stroke="#456C51" stroke-width="0.75" stroke-linecap="round" stroke-linejoin="round"/>
<path d="M53.8133 271.97C53.8185 272.279 53.7352 272.584 53.5733 272.848C53.4114 273.112 53.1776 273.324 52.8994 273.46C52.3386 273.729 51.7384 273.906 51.1216 273.985C50.5037 274.061 49.9143 274.289 49.4063 274.649C48.8342 275.191 48.4858 275.928 48.4298 276.715C48.3296 277.491 48.3672 278.267 48.242 279.043C47.7108 281.015 46.65 282.803 45.1746 284.214C44.6719 284.873 44.0523 285.433 43.3467 285.867C42.7959 286.167 42.1824 286.305 41.619 286.555C41.3323 286.661 41.0719 286.828 40.8557 287.044C40.6396 287.26 40.4729 287.521 40.367 287.807C40.3242 287.954 40.3135 288.108 40.3357 288.26C40.3579 288.411 40.4125 288.556 40.4956 288.684C40.5788 288.812 40.6886 288.921 40.8177 289.003C40.9467 289.085 41.0919 289.139 41.2434 289.16" stroke="#456C51" stroke-width="0.75" stroke-linecap="round" stroke-linejoin="round"/>
<path d="M44.7249 287.883L48.4808 284.803C49.1181 284.314 49.6903 283.746 50.1835 283.112C51.0237 281.687 51.4568 280.059 51.4355 278.405" stroke="#456C51" stroke-width="0.75" stroke-linecap="round" stroke-linejoin="round"/>
<path d="M69.6136 289.009C70.0197 288.949 70.413 288.822 70.778 288.634C71.1544 288.446 71.4773 288.166 71.717 287.82C71.8387 287.638 71.9215 287.433 71.9603 287.217C71.9991 287.002 71.9929 286.781 71.9423 286.568C71.9161 286.396 71.8269 286.24 71.6919 286.13C71.5351 286.029 71.3523 285.977 71.1661 285.98C70.6691 286.011 70.1796 286.117 69.7138 286.292C68.0737 286.706 67.0971 285.529 65.77 284.44C64.4311 283.343 63.5222 281.809 63.2035 280.108C63.0031 278.993 63.0532 277.854 62.7903 276.752C62.7047 276.193 62.4717 275.666 62.1153 275.226C61.7589 274.786 61.2918 274.448 60.7621 274.248C59.8481 273.998 58.7088 274.324 58.0202 273.673C57.8442 273.483 57.7142 273.256 57.6403 273.009C57.5665 272.761 57.5508 272.5 57.5946 272.245C57.6889 271.737 57.8532 271.244 58.0828 270.78C58.5424 269.866 58.8591 268.886 59.0218 267.876C59.1817 266.854 58.9442 265.81 58.3583 264.959C58.055 264.544 57.6318 264.233 57.1458 264.068C56.6598 263.902 56.1347 263.889 55.6415 264.032C55.7678 263.913 55.8464 263.752 55.8625 263.579C55.8786 263.406 55.8312 263.234 55.7291 263.093C55.6277 262.947 55.4902 262.83 55.33 262.753C55.1698 262.677 54.9924 262.643 54.8152 262.655C54.4617 262.671 54.1213 262.793 53.8386 263.006C53.3061 263.362 52.8955 263.874 52.6617 264.47C52.581 264.647 52.5424 264.84 52.5491 265.034C52.557 265.127 52.5874 265.216 52.6376 265.295C52.6877 265.373 52.7562 265.438 52.837 265.485" stroke="#456C51" stroke-width="0.75" stroke-linecap="round" stroke-linejoin="round"/>
<path d="M54.465 264.47C54.0353 264.582 53.6384 264.795 53.3074 265.091C52.9765 265.388 52.7209 265.758 52.562 266.173C52.2515 267.013 52.2515 267.937 52.562 268.777C52.8845 269.608 53.3944 270.354 54.0519 270.956C54.366 271.267 54.7354 271.518 55.1411 271.694C55.3389 271.779 55.5519 271.823 55.7671 271.823C55.9823 271.823 56.1953 271.779 56.3931 271.694C56.6791 271.531 56.9234 271.304 57.1067 271.031C57.633 270.379 58.0168 269.624 58.2335 268.815C58.4516 268.002 58.3808 267.139 58.0332 266.373C57.8704 266.023 57.57 265.66 57.1818 265.672C56.7937 265.685 56.4432 266.223 56.0425 266.474C55.4165 266.862 54.5652 266.474 53.8891 266.799C53.5944 266.959 53.3538 267.202 53.1978 267.498C53.0417 267.795 52.9773 268.131 53.0127 268.464C53.1059 269.128 53.3316 269.767 53.6763 270.342" stroke="#456C51" stroke-width="0.75" stroke-linecap="round" stroke-linejoin="round"/>
<path d="M55.6679 285.379C56.8918 285.379 57.8839 284.386 57.8839 283.163C57.8839 281.939 56.8918 280.947 55.6679 280.947C54.444 280.947 53.4519 281.939 53.4519 283.163C53.4519 284.386 54.444 285.379 55.6679 285.379Z" fill="#65AF7C"/>
<path d="M96.9952 115.347H104.745C104.921 112.102 103.886 108.907 101.84 106.382C98.748 102.626 93.6149 100.723 86.5912 100.723C70.954 100.711 63.1666 113.494 61.9146 121.607C61.4514 124.636 60.888 132.261 65.6706 137.882C68.9633 141.638 73.9712 143.591 80.4315 143.591C88.7947 143.591 100.063 142.552 101.44 133.575L103.631 119.416H80.6443V127.491H94.2158L93.4646 132.349C93.1642 134.302 88.1687 135.529 80.4315 135.529C76.4126 135.529 73.508 134.514 71.8053 132.536C69.1261 129.406 69.6644 124.286 69.9023 122.796C70.4657 119.165 74.735 108.799 86.5912 108.799C90.9607 108.799 94.1031 109.725 95.568 111.465C95.998 112.007 96.3148 112.63 96.4998 113.297C96.6847 113.964 96.734 114.661 96.6447 115.347H96.9952Z" fill="#C6EBD5"/>
<path d="M177.485 103.24H168.884L144.545 141.1H154.098L158.856 133.713H178.011L180.177 141.1H188.59L177.485 103.24ZM164.114 125.638L172.039 113.293L175.657 125.638H164.114Z" fill="#C6EBD5"/>
<path d="M250.826 141.1H234.224L240.059 103.24H257.762C258.651 103.24 267.076 103.24 272.109 109.112C274.125 111.44 276.316 115.609 275.289 122.283C272.397 141.075 257.286 141.1 250.826 141.1ZM243.614 133.025H250.788C259.114 133.025 265.599 132.136 267.314 121.043C267.765 118.126 267.314 115.96 266.062 114.433C263.871 111.929 259.389 111.328 257.837 111.328H246.995L243.614 133.025Z" fill="#C6EBD5"/>
<path d="M141.904 103.152L138.148 127.729C137.072 134.752 129.134 135.516 125.766 135.516C122.01 135.516 119.106 134.627 117.779 133.012C117.312 132.385 116.992 131.662 116.84 130.895C116.689 130.128 116.71 129.337 116.902 128.58L120.658 104.479L120.871 103.09H112.621L108.865 127.341C108.478 129.251 108.522 131.223 108.994 133.114C109.466 135.005 110.354 136.766 111.594 138.27C114.536 141.713 119.419 143.529 125.716 143.529C136.884 143.529 144.696 137.92 146.086 128.893L149.842 104.329L150.03 103.077L141.904 103.152Z" fill="#C6EBD5"/>
<path d="M347.542 132.136C342.396 125.275 336.099 121.369 328.825 120.53C319.385 119.428 308.53 123.747 297.45 133.05C279.321 148.199 263.008 155.585 250.3 154.333C243.064 153.645 236.829 150.127 231.771 143.904C227.808 138.858 224.711 133.189 222.606 127.128C224.789 126.342 226.723 124.99 228.21 123.21C229.698 121.43 230.685 119.287 231.07 116.999C231.858 111.991 230.256 108.811 228.779 107.083C227.692 105.921 226.383 104.989 224.929 104.344C223.475 103.699 221.906 103.353 220.315 103.328H199.895L194.061 141.188H202.224L204.177 128.43H214.531C216.936 135.861 220.636 142.808 225.461 148.95C231.946 156.912 240.021 161.47 249.486 162.334C264.623 163.786 282.489 156.074 302.583 139.209C311.935 131.397 320.687 127.716 327.861 128.542C332.869 129.131 337.225 131.898 341.044 136.981C351.298 150.653 346.528 179.623 324.994 196.5L330.002 202.86C353.276 184.619 361.627 150.915 347.542 132.136ZM215.295 120.355H205.429L206.819 111.34H220.253C221.148 111.377 222 111.732 222.656 112.342C223.235 113.374 223.392 114.59 223.095 115.735C222.656 118.527 219.602 120.355 215.295 120.355Z" fill="#C6EBD5"/>
<path d="M149.778 140.411L171.086 107.284H174.467L184.295 140.787" stroke="#456C51" stroke-linecap="round" stroke-linejoin="round"/>
<path d="M174.094 129.669H181.004" stroke="#456C51" stroke-linecap="round" stroke-linejoin="round"/>
<path d="M171.026 129.669H171.89" stroke="#456C51" stroke-linecap="round" stroke-linejoin="round"/>
<path d="M167.97 129.669H168.822" stroke="#456C51" stroke-linecap="round" stroke-linejoin="round"/>
<path d="M156.689 129.669H165.754" stroke="#456C51" stroke-linecap="round" stroke-linejoin="round"/>
<path d="M174.456 107.284L184.196 140.449" stroke="#456C51" stroke-linecap="round" stroke-linejoin="round"/>
<path d="M41.4076 195.436L35.8613 231.431" stroke="#456C51" stroke-linecap="round" stroke-linejoin="round"/>
<path d="M70.3153 195.436L64.769 231.443" stroke="#456C51" stroke-linecap="round" stroke-linejoin="round"/>
<path d="M58.0212 212.188H67.7366" stroke="#456C51" stroke-linecap="round" stroke-linejoin="round"/>
<path d="M54.9536 212.188H55.8175" stroke="#456C51" stroke-linecap="round" stroke-linejoin="round"/>
<path d="M51.8979 212.188H52.7493" stroke="#456C51" stroke-linecap="round" stroke-linejoin="round"/>
<path d="M38.8286 212.188H49.6833" stroke="#456C51" stroke-linecap="round" stroke-linejoin="round"/>
<path d="M242.939 195.461L237.38 231.443" stroke="#456C51" stroke-linecap="round" stroke-linejoin="round"/>
<path d="M271.848 195.436L266.289 231.431" stroke="#456C51" stroke-linecap="round" stroke-linejoin="round"/>
<path d="M259.553 212.188H269.256" stroke="#456C51" stroke-linecap="round" stroke-linejoin="round"/>
<path d="M256.485 212.188H257.349" stroke="#456C51" stroke-linecap="round" stroke-linejoin="round"/>
<path d="M253.418 212.188H254.282" stroke="#456C51" stroke-linecap="round" stroke-linejoin="round"/>
<path d="M240.347 212.188H251.215" stroke="#456C51" stroke-linecap="round" stroke-linejoin="round"/>
<path d="M300.693 289.059C295.961 288.546 290.966 285.303 291.93 275.876C293.82 257.923 318.86 250.411 322.966 249.296" stroke="#456C51" stroke-linecap="round" stroke-linejoin="round"/>
<path d="M308.418 287.244C307.793 287.728 307.101 288.12 306.365 288.408" stroke="#456C51" stroke-linecap="round" stroke-linejoin="round"/>
<path d="M241.849 252.702C279.822 251.312 302.433 264.095 307.967 269.716C312.411 274.223 312.975 279.732 311.134 283.726" stroke="#456C51" stroke-linecap="round" stroke-linejoin="round"/>
<path d="M224.208 254.317C227.105 253.899 229.93 253.57 232.684 253.328" stroke="#456C51" stroke-linecap="round" stroke-linejoin="round"/>
<path d="M162.636 272.646C177.596 265.907 193.189 260.673 209.185 257.021" stroke="#456C51" stroke-linecap="round" stroke-linejoin="round"/>
<path d="M153.797 231.418L144.082 198.278H140.702L100.463 260.877C100.463 260.877 66.2711 251.375 45.3755 254.818C24.4798 258.261 15.1275 270.192 17.3185 280.684C21.3874 300.54 71.5795 309.905 150.717 277.716" stroke="#456C51" stroke-linecap="round" stroke-linejoin="round"/>
<path d="M142.292 220.663H150.643" stroke="#456C51" stroke-linecap="round" stroke-linejoin="round"/>
<path d="M139.225 220.663H140.088" stroke="#456C51" stroke-linecap="round" stroke-linejoin="round"/>
<path d="M136.157 220.663H137.021" stroke="#456C51" stroke-linecap="round" stroke-linejoin="round"/>
<path d="M126.303 220.663H133.953" stroke="#456C51" stroke-linecap="round" stroke-linejoin="round"/>
<path d="M65.909 122.157C64.97 128.242 65.909 139.547 80.432 139.547C94.955 139.547 97.0458 135.629 97.459 132.949L98.9238 123.434H81.2833" stroke="#456C51" stroke-linecap="round" stroke-linejoin="round"/>
<path d="M66.5595 119.516C66.5595 119.691 66.4468 119.854 66.3967 120.029" stroke="#456C51" stroke-linecap="round" stroke-linejoin="round"/>
<path d="M100.714 114.671C100.801 111.879 99.7873 104.742 86.5914 104.742C82.4808 104.715 78.4553 105.913 75.0281 108.183C71.601 110.453 68.9274 113.692 67.3484 117.487" stroke="#456C51" stroke-linecap="round" stroke-linejoin="round"/>
<path d="M128.709 139.385C135.833 138.583 141.104 134.815 142.105 128.342C142.982 122.646 145.498 106.395 145.861 103.816" stroke="#456C51" stroke-linecap="round" stroke-linejoin="round"/>
<path d="M125.727 139.547H126.553" stroke="#456C51" stroke-linecap="round" stroke-linejoin="round"/>
<path d="M116.614 103.816C116.213 106.32 113.735 122.433 112.858 128.029C111.781 135.003 116.213 138.834 123.5 139.46" stroke="#456C51" stroke-linecap="round" stroke-linejoin="round"/>
<path d="M263.02 296.346L261.568 305.823C261.142 308.528 258.087 308.828 256.785 308.828C256.233 308.883 255.676 308.829 255.145 308.668C254.615 308.506 254.121 308.242 253.693 307.889C253.514 307.646 253.393 307.365 253.336 307.068C253.28 306.772 253.291 306.466 253.367 306.174L254.795 296.872L254.882 296.346H251.727L250.225 305.648C250.075 306.385 250.09 307.145 250.27 307.875C250.449 308.604 250.789 309.285 251.264 309.867C251.976 310.588 252.836 311.144 253.786 311.497C254.736 311.85 255.751 311.99 256.76 311.908C261.067 311.908 264.084 309.742 264.623 306.262L266.075 296.784L266.15 296.308L263.02 296.346Z" fill="#C6EBD5"/>
<path d="M258.426 310.243C259.548 310.149 260.608 309.689 261.443 308.933C262.278 308.178 262.841 307.169 263.046 306.061L264.486 296.684" stroke="#456C51" stroke-width="0.5" stroke-linecap="round" stroke-linejoin="round"/>
<path d="M256.76 310.381H257.074" stroke="#456C51" stroke-width="0.5" stroke-linecap="round" stroke-linejoin="round"/>
<path d="M253.193 296.684C253.042 297.661 252.091 303.783 251.765 305.936C251.377 308.44 252.829 309.892 255.308 310.281" stroke="#456C51" stroke-width="0.5" stroke-linecap="round" stroke-linejoin="round"/>
<path d="M227.126 116.06V116.323C226.425 120.855 222.118 124.386 215.332 124.386H200.722" stroke="#456C51" stroke-linecap="round" stroke-linejoin="round"/>
<path d="M227.164 113.131C227.203 113.409 227.228 113.689 227.239 113.969" stroke="#456C51" stroke-linecap="round" stroke-linejoin="round"/>
<path d="M199.458 132.549L203.365 107.284H220.317C220.317 107.284 224.999 107.284 226.664 111.202" stroke="#456C51" stroke-linecap="round" stroke-linejoin="round"/>
<path d="M198.994 135.616L199.119 134.765" stroke="#456C51" stroke-linecap="round" stroke-linejoin="round"/>
<path d="M198.243 140.449L198.644 137.832" stroke="#456C51" stroke-linecap="round" stroke-linejoin="round"/>
<path d="M310.758 128.718C322.815 122.245 335.009 122.17 344.311 134.552C356.243 150.452 350.121 181.289 328.374 199.004" stroke="#456C51" stroke-linecap="round" stroke-linejoin="round"/>
<path d="M300.042 136.117C301.157 135.178 302.283 134.277 303.423 133.438" stroke="#456C51" stroke-linecap="round" stroke-linejoin="round"/>
<path d="M217.762 124.386C219.813 132.399 223.515 139.895 228.629 146.396C235.353 154.659 243.829 158.628 253.744 158.452" stroke="#456C51" stroke-linecap="round" stroke-linejoin="round"/>
<path d="M212.816 169.845L218.537 186.246" stroke="#456C51" stroke-linecap="round" stroke-linejoin="round"/>
<path d="M220.955 161.895V162.171C220.254 166.703 215.947 170.234 209.148 170.234H194.55" stroke="#456C51" stroke-linecap="round" stroke-linejoin="round"/>
<path d="M220.992 158.966C220.992 159.241 220.992 159.517 221.067 159.805" stroke="#456C51" stroke-linecap="round" stroke-linejoin="round"/>
<path d="M193.284 178.397L197.178 153.131H214.192C214.192 153.131 218.862 153.131 220.54 157.05" stroke="#456C51" stroke-linecap="round" stroke-linejoin="round"/>
<path d="M192.823 181.451L192.948 180.6" stroke="#456C51" stroke-linecap="round" stroke-linejoin="round"/>
<path d="M192.083 186.246L192.471 183.667" stroke="#456C51" stroke-linecap="round" stroke-linejoin="round"/>
<path d="M164.402 185.307C171.513 184.506 176.796 180.738 177.798 174.265C178.674 168.581 181.178 152.33 181.554 149.751" stroke="#456C51" stroke-linecap="round" stroke-linejoin="round"/>
<path d="M161.423 185.458H162.237" stroke="#456C51" stroke-linecap="round" stroke-linejoin="round"/>
<path d="M152.295 149.751L148.539 173.952C147.462 180.926 151.881 184.757 159.181 185.383" stroke="#456C51" stroke-linecap="round" stroke-linejoin="round"/>
<path d="M270.77 124.298C267.552 137.068 257.123 137.056 250.738 137.056H238.856L243.451 107.284H257.761C257.761 107.284 271.796 107.121 271.533 119.303" stroke="#456C51" stroke-linecap="round" stroke-linejoin="round"/>
<path d="M271.346 121.406V121.657C271.346 121.894 271.271 122.132 271.221 122.358" stroke="#456C51" stroke-linecap="round" stroke-linejoin="round"/>
<path d="M61.3137 149.714L73.8336 168.531L71.0667 186.522" stroke="#456C51" stroke-linecap="round" stroke-linejoin="round"/>
<path d="M88.8689 154.959L94.6155 149.714" stroke="#456C51" stroke-linecap="round" stroke-linejoin="round"/>
<path d="M86.5527 157.038L87.2038 156.449" stroke="#456C51" stroke-linecap="round" stroke-linejoin="round"/>
<path d="M73.833 168.531L84.9256 158.515" stroke="#456C51" stroke-linecap="round" stroke-linejoin="round"/>
<path d="M114.298 185.458H115.287" stroke="#456C51" stroke-linecap="round" stroke-linejoin="round"/>
<path d="M117.465 185.257C125.165 184.556 132.489 180.888 134.392 168.268C136.608 153.908 125.152 152.393 119.368 152.393C113.584 152.393 101.665 153.908 99.4492 168.268C97.4085 181.489 104.207 184.869 112.157 185.332" stroke="#456C51" stroke-linecap="round" stroke-linejoin="round"/>
<path d="M84.2495 212.188H110.266" stroke="#456C51" stroke-linecap="round" stroke-linejoin="round"/>
<path d="M105.057 198.841H115.085" stroke="#456C51" stroke-linecap="round" stroke-linejoin="round"/>
<path d="M101.99 198.841H102.866" stroke="#456C51" stroke-linecap="round" stroke-linejoin="round"/>
<path d="M110.617 228.038H81.8086L86.3157 198.841H99.7996" stroke="#456C51" stroke-linecap="round" stroke-linejoin="round"/>
<path d="M182.555 228.038H192.696" stroke="#456C51" stroke-linecap="round" stroke-linejoin="round"/>
<path d="M179.501 228.038H180.365" stroke="#456C51" stroke-linecap="round" stroke-linejoin="round"/>
<path d="M166.618 228.038H177.297" stroke="#456C51" stroke-linecap="round" stroke-linejoin="round"/>
<path d="M171.751 194.797L166.618 228.038" stroke="#456C51" stroke-linecap="round" stroke-linejoin="round"/>
<path d="M195.05 198.992H232.397" stroke="#456C51" stroke-linecap="round" stroke-linejoin="round"/>
<path d="M211.451 214.366L208.735 231.969" stroke="#456C51" stroke-linecap="round" stroke-linejoin="round"/>
<path d="M211.914 211.324L211.789 212.188" stroke="#456C51" stroke-linecap="round" stroke-linejoin="round"/>
<path d="M213.818 198.992L212.253 209.145" stroke="#456C51" stroke-linecap="round" stroke-linejoin="round"/>
<path d="M194.275 311.908C191.358 311.908 189.267 311.182 188.015 309.667C186.763 308.152 186.287 305.911 186.763 303.144C187.526 298.136 191.032 295.369 196.391 295.369C197.557 295.282 198.728 295.449 199.824 295.857C200.919 296.266 201.914 296.906 202.738 297.736C203.369 298.568 203.808 299.529 204.024 300.551C204.24 301.572 204.229 302.629 203.99 303.645C203.139 309.154 199.871 311.908 194.275 311.908ZM196.34 298.625C192.585 298.625 190.444 300.315 189.93 303.632C189.745 304.285 189.697 304.97 189.79 305.642C189.883 306.314 190.114 306.96 190.469 307.539C191.12 308.277 192.359 308.653 194.225 308.653C198.243 308.653 200.121 307.05 200.722 303.132C200.874 302.576 200.903 301.993 200.808 301.425C200.712 300.857 200.495 300.316 200.172 299.839C199.102 298.952 197.724 298.524 196.34 298.65V298.625Z" fill="#C6EBD5"/>
<path d="M194.299 310.306H194.712" stroke="#456C51" stroke-width="0.5" stroke-linecap="round" stroke-linejoin="round"/>
<path d="M196.14 310.193C199.02 309.78 201.649 308.177 202.4 303.42C203.289 297.636 198.644 297.022 196.353 297.022C194.062 297.022 189.229 297.636 188.328 303.42C187.564 308.428 189.918 309.917 192.86 310.243" stroke="#456C51" stroke-width="0.5" stroke-linecap="round" stroke-linejoin="round"/>
<path d="M182.067 305.285C182.77 304.932 183.38 304.418 183.848 303.785C184.316 303.152 184.628 302.418 184.758 301.642C184.923 301.014 184.94 300.356 184.807 299.72C184.675 299.084 184.397 298.488 183.996 297.977C183.594 297.466 183.08 297.056 182.494 296.777C181.907 296.499 181.264 296.36 180.614 296.371H172.739L170.486 310.944H173.641L174.392 306.074H179.037L180.74 310.957H184.032L182.067 305.285ZM181.679 301.166C181.516 302.255 180.339 302.956 178.674 302.956H174.918L175.456 299.476H180.639C180.984 299.492 181.312 299.63 181.566 299.864C181.663 300.065 181.72 300.284 181.733 300.508C181.746 300.731 181.715 300.955 181.641 301.166H181.679Z" fill="#C6EBD5"/>
<path d="M180.09 304.371L182.281 310.619" stroke="#456C51" stroke-width="0.5" stroke-linecap="round" stroke-linejoin="round"/>
<path d="M183.158 301.704C182.745 303.307 181.117 304.521 178.663 304.521H173.054" stroke="#456C51" stroke-width="0.5" stroke-linecap="round" stroke-linejoin="round"/>
<path d="M183.244 300.177C183.251 300.286 183.251 300.395 183.244 300.504" stroke="#456C51" stroke-width="0.5" stroke-linecap="round" stroke-linejoin="round"/>
<path d="M172.564 307.664L174.067 297.923H180.602C181.012 297.933 181.415 298.028 181.786 298.203C182.157 298.378 182.487 298.628 182.755 298.938" stroke="#456C51" stroke-width="0.5" stroke-linecap="round" stroke-linejoin="round"/>
<path d="M172.114 310.619L172.34 309.141" stroke="#456C51" stroke-width="0.5" stroke-linecap="round" stroke-linejoin="round"/>
<path d="M268.029 296.346L267.553 299.463H273.438L271.66 310.944H274.815L276.58 299.463H282.464L282.953 296.346H268.029Z" fill="#C6EBD5"/>
<path d="M268.103 297.961H282.388" stroke="#456C51" stroke-width="0.5" stroke-linecap="round" stroke-linejoin="round"/>
<path d="M274.277 304.434L273.326 310.631" stroke="#456C51" stroke-width="0.5" stroke-linecap="round" stroke-linejoin="round"/>
<path d="M274.539 302.719L274.489 303.058" stroke="#456C51" stroke-width="0.5" stroke-linecap="round" stroke-linejoin="round"/>
<path d="M275.278 297.961L274.765 301.304" stroke="#456C51" stroke-width="0.5" stroke-linecap="round" stroke-linejoin="round"/>
<path d="M259.353 277.792L258.864 280.909H264.749L262.983 292.402H266.138L267.904 280.909H273.788L274.276 277.792H259.353Z" fill="#C6EBD5"/>
<path d="M259.415 279.419H273.713" stroke="#456C51" stroke-width="0.5" stroke-linecap="round" stroke-linejoin="round"/>
<path d="M265.598 285.892L264.647 292.089" stroke="#456C51" stroke-width="0.5" stroke-linecap="round" stroke-linejoin="round"/>
<path d="M265.863 284.177L265.812 284.503" stroke="#456C51" stroke-width="0.5" stroke-linecap="round" stroke-linejoin="round"/>
<path d="M266.602 279.419L266.089 282.762" stroke="#456C51" stroke-width="0.5" stroke-linecap="round" stroke-linejoin="round"/>
<path d="M210.963 277.792L210.487 280.909H216.371L214.593 292.402H217.748L219.526 280.909H225.41L225.886 277.792H210.963Z" fill="#C6EBD5"/>
<path d="M211.039 279.419H225.324" stroke="#456C51" stroke-width="0.5" stroke-linecap="round" stroke-linejoin="round"/>
<path d="M217.211 285.892L216.26 292.089" stroke="#456C51" stroke-width="0.5" stroke-linecap="round" stroke-linejoin="round"/>
<path d="M217.486 284.177L217.423 284.503" stroke="#456C51" stroke-width="0.5" stroke-linecap="round" stroke-linejoin="round"/>
<path d="M218.212 279.419L217.698 282.762" stroke="#456C51" stroke-width="0.5" stroke-linecap="round" stroke-linejoin="round"/>
<path d="M235.752 277.792H232.435L223.045 292.402H226.801L228.629 289.548H236.003L236.842 292.402H240.084L235.752 277.792ZM230.582 286.43L233.649 281.673L235.039 286.43H230.582Z" fill="#C6EBD5"/>
<path d="M225.11 292.077L233.286 279.357H234.588L238.319 292.077" stroke="#456C51" stroke-width="0.5" stroke-linecap="round" stroke-linejoin="round"/>
<path d="M234.45 287.995H237.117" stroke="#456C51" stroke-width="0.5" stroke-linecap="round" stroke-linejoin="round"/>
<path d="M232.648 287.995H233.023" stroke="#456C51" stroke-width="0.5" stroke-linecap="round" stroke-linejoin="round"/>
<path d="M227.727 287.995H231.232" stroke="#456C51" stroke-width="0.5" stroke-linecap="round" stroke-linejoin="round"/>
<path d="M156.577 304.534H166.893" stroke="#456C51" stroke-width="0.5" stroke-linecap="round" stroke-linejoin="round"/>
<path d="M155.637 310.619L157.591 297.948H168.783" stroke="#456C51" stroke-width="0.5" stroke-linecap="round" stroke-linejoin="round"/>
<path d="M200.784 283.112C199.957 283 199.093 282.9 198.28 282.737C197.958 282.692 197.65 282.577 197.378 282.399C197.289 282.334 197.223 282.241 197.19 282.136C197.154 282.03 197.154 281.916 197.19 281.81C197.446 281.43 197.781 281.108 198.172 280.868C198.563 280.629 199.001 280.476 199.457 280.421C200.072 280.276 200.702 280.201 201.335 280.195C201.827 280.164 202.32 280.164 202.812 280.195C203.166 280.228 203.518 280.287 203.864 280.371C204.104 280.429 204.338 280.509 204.565 280.608C204.713 280.668 204.852 280.748 204.978 280.846C205.07 280.917 205.15 281.002 205.216 281.097C205.278 281.185 205.313 281.289 205.316 281.397H205.691H208.471C208.47 280.524 208.164 279.678 207.607 279.006C206.455 277.616 204.327 276.928 201.272 276.99C196.527 277.065 194.161 279.494 193.973 281.735C193.835 283.388 194.912 285.291 197.654 285.792C198.555 285.967 199.469 286.08 200.345 286.205C201.022 286.292 201.698 286.368 202.374 286.493C203.017 286.579 203.645 286.756 204.239 287.019C204.368 287.077 204.48 287.168 204.565 287.282C204.878 287.732 204.565 288.534 204.252 288.847C203.877 289.246 203.401 289.536 202.875 289.685C201.863 289.956 200.817 290.078 199.77 290.048C198.856 290.048 196.439 290.048 195.851 289.36C195.639 288.942 195.586 288.462 195.701 288.008H192.546C192.456 288.607 192.49 289.218 192.645 289.804C192.8 290.389 193.073 290.937 193.447 291.413C194.862 293.066 197.353 293.203 199.77 293.203C204.577 293.203 207.281 291.601 207.77 288.433C207.878 287.911 207.876 287.371 207.764 286.85C207.652 286.328 207.432 285.835 207.119 285.404C205.892 283.801 203.413 283.476 200.784 283.112Z" fill="#C6EBD5"/>
<path d="M206.92 281.109C206.92 280.371 206.506 278.605 201.323 278.605C195.063 278.718 193.811 283.513 197.968 284.277C202.125 285.041 206.732 284.74 206.231 288.221C205.743 291.313 202.162 291.664 199.796 291.664C196.516 291.664 193.774 291.451 194.137 288.358" stroke="#456C51" stroke-width="0.5" stroke-linecap="round" stroke-linejoin="round"/>
<path d="M226.588 296.371H222.557L215.245 307.827L211.552 296.371H207.746L205.355 311.482H208.56L210.062 302.03L213.18 311.745H216.497L222.407 302.481L220.992 311.482H224.185L226.588 296.371Z" fill="#C6EBD5"/>
<path d="M207.019 311.144L209.097 297.948H210.399L214.33 310.155H215.632L223.432 297.948H224.734L222.643 311.144" stroke="#456C51" stroke-width="0.5" stroke-linecap="round" stroke-linejoin="round"/>
<path d="M233.611 304.309C233.411 306.712 234.125 310.381 239.258 310.381C244.842 310.381 245.63 308.878 245.793 307.877L246.357 304.221H239.658" stroke="#456C51" stroke-width="0.5" stroke-linecap="round" stroke-linejoin="round"/>
<path d="M233.937 302.693C233.909 302.758 233.888 302.825 233.875 302.894" stroke="#456C51" stroke-width="0.5" stroke-linecap="round" stroke-linejoin="round"/>
<path d="M247.045 300.728C247.045 299.651 246.682 296.972 241.624 296.972C240.146 296.958 238.694 297.359 237.432 298.129C236.171 298.899 235.15 300.008 234.488 301.329" stroke="#456C51" stroke-width="0.5" stroke-linecap="round" stroke-linejoin="round"/>
<path d="M254.156 286.731C254.866 286.384 255.482 285.872 255.952 285.238C256.423 284.604 256.734 283.867 256.861 283.087C257.025 282.457 257.041 281.798 256.908 281.161C256.775 280.523 256.496 279.925 256.094 279.414C255.691 278.902 255.176 278.491 254.588 278.211C254 277.932 253.355 277.793 252.704 277.804H244.841L242.588 292.39H245.743L246.494 287.519H251.126L252.829 292.402H256.134L254.156 286.731ZM253.781 282.612C253.618 283.701 252.428 284.402 250.776 284.402H247.02L247.558 280.922H252.729C253.079 280.931 253.413 281.069 253.668 281.31C253.866 281.715 253.906 282.179 253.781 282.612Z" fill="#C6EBD5"/>
<path d="M252.191 285.804L254.37 292.064" stroke="#456C51" stroke-width="0.5" stroke-linecap="round" stroke-linejoin="round"/>
<path d="M255.246 283.112C254.845 284.715 253.218 285.917 250.764 285.917H245.143" stroke="#456C51" stroke-width="0.5" stroke-linecap="round" stroke-linejoin="round"/>
<path d="M255.346 281.623C255.353 281.731 255.353 281.84 255.346 281.949" stroke="#456C51" stroke-width="0.5" stroke-linecap="round" stroke-linejoin="round"/>
<path d="M244.654 289.109L246.168 279.369H252.704C253.114 279.379 253.517 279.474 253.888 279.649C254.258 279.823 254.589 280.073 254.857 280.383" stroke="#456C51" stroke-width="0.5" stroke-linecap="round" stroke-linejoin="round"/>
<path d="M244.205 292.064L244.43 290.587" stroke="#456C51" stroke-width="0.5" stroke-linecap="round" stroke-linejoin="round"/>
<path d="M155.637 51.8084C156.075 47.5827 157.469 43.5122 159.714 39.9057C161.959 36.2992 164.996 33.2515 168.595 30.9939C172.193 28.7363 176.259 27.3281 180.483 26.8762C184.707 26.4243 188.979 26.9406 192.974 28.3858C196.968 29.8311 200.581 32.1674 203.539 35.2174C206.496 38.2673 208.719 41.9509 210.041 45.9884C211.362 50.0259 211.746 54.3114 211.164 58.5195C210.582 62.7277 209.049 66.7479 206.681 70.2751L155.637 51.8084Z" fill="url(#paint1_linear_1269_7308)"/>
<path d="M161.184 59.6708L172.74 45.0602L180.327 54.7881L184.183 50.3811L213.968 89.6809H180.665" stroke="#456C51" stroke-linecap="round" stroke-linejoin="round"/>
<path d="M159.544 57.7552C159.544 57.7552 154.135 58.1434 154.135 60.0965C154.135 62.0496 163.738 62.3375 168.157 62.4001C172.577 62.4627 184.295 63.1889 184.295 65.793C184.295 68.3971 170.135 69.6992 165.603 69.9871C161.071 70.2751 148.614 70.4378 148.614 73.042C148.614 75.6461 167.869 75.5459 172.289 75.8214C176.708 76.0968 191.432 76.6602 191.432 81.1924C191.432 85.7246 171.262 89.5807 166.004 89.6308" stroke="#456C51" stroke-linecap="round" stroke-linejoin="round"/>
<path d="M156.528 58.3312C152.984 38.7627 168.972 26.656 183.47 26.656C190.888 26.656 198.002 29.6027 203.248 34.848C208.493 40.0933 211.44 47.2074 211.44 54.6253C211.531 58.4047 210.777 62.1567 209.233 65.6073C207.688 69.0579 205.392 72.1198 202.513 74.5694" stroke="#456C51" stroke-linecap="round" stroke-linejoin="round"/>
<path d="M183.469 20.8843V15" stroke="#456C51" stroke-linecap="round" stroke-linejoin="round"/>
<path d="M149.741 54.6128H143.857" stroke="#456C51" stroke-linecap="round" stroke-linejoin="round"/>
<path d="M223.095 54.6128H217.21" stroke="#456C51" stroke-linecap="round" stroke-linejoin="round"/>
<path d="M211.489 26.6059L207.32 30.7625" stroke="#456C51" stroke-linecap="round" stroke-linejoin="round"/>
<path d="M155.463 26.6059L159.619 30.7625" stroke="#456C51" stroke-linecap="round" stroke-linejoin="round"/>
<path d="M69.1379 53.6237C74.0432 56.5254 78.0811 60.6887 80.8315 65.6803C82.3088 68.3721 83.3354 71.9402 81.5201 74.3566C81.0681 74.9055 80.5045 75.3519 79.8666 75.6661C79.2288 75.9803 78.5313 76.155 77.8207 76.1787C77.11 76.2024 76.4025 76.0745 75.7451 75.8035C75.0878 75.5325 74.4956 75.1246 74.0082 74.607C73.115 73.4807 72.701 72.0481 72.8556 70.619C73.0103 69.1899 73.7211 67.8791 74.8345 66.9699C77.7892 64.7038 82.1586 65.9808 85.1884 68.1342C88.0132 70.1784 90.3202 72.8556 91.9247 75.9515C93.5291 79.0473 94.3864 82.4758 94.428 85.9625" stroke="#C6EBD5" stroke-width="5" stroke-miterlimit="10"/>
<path d="M69.1379 53.6237C74.0432 56.5254 78.0811 60.6887 80.8315 65.6803C82.3088 68.3721 83.3354 71.9402 81.5201 74.3566C81.0681 74.9055 80.5045 75.3519 79.8666 75.6661C79.2288 75.9803 78.5313 76.155 77.8207 76.1787C77.11 76.2024 76.4025 76.0745 75.7451 75.8035C75.0878 75.5325 74.4956 75.1246 74.0082 74.607C73.115 73.4807 72.701 72.0481 72.8556 70.619C73.0103 69.1899 73.7211 67.8791 74.8345 66.9699C77.7892 64.7038 82.1586 65.9808 85.1884 68.1342C88.0132 70.1784 90.3202 72.8556 91.9247 75.9515C93.5291 79.0473 94.3864 82.4758 94.428 85.9625" stroke="#456C51" stroke-width="0.75" stroke-linecap="round" stroke-linejoin="round"/>
<path d="M316.656 148.349C319.343 156.586 321.23 165.064 322.289 173.664" stroke="#456C51" stroke-width="0.75" stroke-linecap="round" stroke-linejoin="round"/>
<path d="M31.9167 31.4386L51.2849 49.2042L54.3147 47.0383L62.1522 52.5095L63.8048 41.2541L70.6406 36.9598L31.9167 31.4386Z" fill="#FFFCF5" stroke="#456C51" stroke-width="0.75" stroke-linecap="round" stroke-linejoin="round"/>
<path d="M31.9167 31.4386L63.8048 41.2541L62.1522 52.5095L58.8344 43.7957L31.9167 31.4386Z" fill="url(#paint2_linear_1269_7308)" stroke="#456C51" stroke-width="0.75" stroke-linecap="round" stroke-linejoin="round"/>
<path d="M54.3142 47.0383L58.8339 43.7957" stroke="#456C51" stroke-width="0.75" stroke-linecap="round" stroke-linejoin="round"/>
<path d="M239.884 64.4409C248.589 68.1239 256.889 72.7016 264.648 78.1" stroke="#456C51" stroke-width="0.75" stroke-linecap="round" stroke-linejoin="round"/>
<path d="M139.913 329.323C139.913 329.323 141.165 332.078 143.669 331.827C143.669 331.827 145.734 349.029 146.511 352.197C146.511 352.197 140.689 353.812 136.833 353.111C135.58 352.809 134.267 352.866 133.044 353.275C131.822 353.685 130.74 354.431 129.922 355.427C129.306 355.26 128.663 355.221 128.031 355.314C127.375 355.557 126.807 355.994 126.404 356.566C126.404 356.566 123.261 355.314 121.296 356.003C119.33 356.692 118.667 358.983 115.374 359.484C113.813 359.806 112.202 359.806 110.641 359.484L109.527 338.425C112.031 338.901 116.175 336.222 119.217 334.394C120.184 333.871 121.272 333.612 122.371 333.642C123.47 333.673 124.541 333.993 125.477 334.569C128.182 331.264 132.726 331.627 135.493 331.364C137.15 331.185 138.702 330.468 139.913 329.323Z" stroke="#456C51" stroke-width="0.75" stroke-linecap="round" stroke-linejoin="round"/>
<path d="M141.828 331.427C141.828 331.427 143.481 347.452 144.257 350.619C141.918 351.095 139.509 351.125 137.159 350.707C135.818 350.442 134.431 350.533 133.137 350.973C131.842 351.412 130.686 352.184 129.784 353.211C129.164 353.044 128.516 353.01 127.881 353.111C127.235 353.335 126.672 353.75 126.266 354.3C126.266 354.3 123.124 353.048 121.158 353.737C119.193 354.425 118.516 356.842 115.224 357.318C113.672 357.674 112.054 357.623 110.529 357.167" stroke="#456C51" stroke-width="0.75" stroke-linecap="round" stroke-linejoin="round"/>
<path d="M110.578 354.851C111.981 355.083 113.414 355.062 114.81 354.789C116.976 354.313 119.017 351.634 121.909 350.582C122.823 350.302 123.791 350.243 124.733 350.408C125.675 350.573 126.565 350.959 127.33 351.533C128.329 350.274 129.618 349.273 131.086 348.616C133.865 347.239 135.117 348.453 137.884 348.616C139.275 348.769 140.681 348.705 142.053 348.428C141.64 345.111 140.163 332.403 139.887 329.286C138.665 330.445 137.093 331.167 135.418 331.339C132.638 331.602 128.093 331.239 125.402 334.544C124.466 333.968 123.394 333.648 122.295 333.617C121.196 333.586 120.109 333.846 119.142 334.369C116.099 336.197 111.993 338.876 109.451 338.4L110.578 354.851Z" fill="url(#paint3_linear_1269_7308)" stroke="#456C51" stroke-width="0.75" stroke-linecap="round" stroke-linejoin="round"/>
<path d="M125.427 334.582L127.33 351.533" stroke="#456C51" stroke-width="0.75" stroke-linecap="round" stroke-linejoin="round"/>
<path d="M141.853 331.427C142.192 334.607 143.581 347.828 144.257 350.619C141.918 351.095 139.509 351.125 137.159 350.707C135.818 350.442 134.431 350.533 133.137 350.973C131.842 351.412 130.686 352.184 129.784 353.211C129.164 353.044 128.516 353.01 127.881 353.111C127.235 353.335 126.672 353.75 126.266 354.3C126.266 354.3 123.124 353.048 121.158 353.737C119.193 354.425 118.516 356.842 115.224 357.318C113.666 357.573 112.074 357.539 110.529 357.217L110.641 359.471C112.202 359.794 113.813 359.794 115.374 359.471C118.667 358.983 119.343 356.566 121.308 355.89C123.274 355.214 126.416 356.454 126.416 356.454C126.82 355.881 127.387 355.444 128.044 355.202C128.675 355.109 129.319 355.147 129.935 355.314C130.753 354.318 131.835 353.572 133.057 353.163C134.279 352.753 135.592 352.696 136.846 352.998C140.702 353.699 146.523 352.084 146.523 352.084C145.747 348.917 143.681 331.714 143.681 331.714C143.057 331.808 142.419 331.708 141.853 331.427Z" fill="#65AF7C" stroke="#456C51" stroke-width="0.75" stroke-linecap="round" stroke-linejoin="round"/>
<path d="M114.06 341.355H106.185V350.895H114.06V341.355Z" fill="#FFFCF5"/>
<path d="M46.6282 345.18C46.2871 344.894 46.0382 344.586 45.8814 344.256C45.7297 343.925 45.6767 343.593 45.7227 343.258C45.7713 342.925 45.9205 342.61 46.1703 342.312C46.4202 342.014 46.7047 341.812 47.024 341.707C47.346 341.603 47.6842 341.599 48.0386 341.693C48.393 341.788 48.7434 341.98 49.0898 342.271C49.3605 342.498 49.5671 342.738 49.7096 342.992C49.8522 343.245 49.9258 343.498 49.9303 343.751C49.9372 344.001 49.8701 344.238 49.7291 344.461L49.1891 344.008C49.3384 343.736 49.3857 343.474 49.3309 343.22C49.2811 342.966 49.1344 342.737 48.8908 342.533C48.5741 342.267 48.2379 342.165 47.8821 342.226C47.529 342.29 47.1923 342.512 46.8721 342.894C46.5541 343.273 46.392 343.642 46.3858 344.001C46.3823 344.362 46.5349 344.673 46.8434 344.932C46.9788 345.045 47.1119 345.134 47.2429 345.198C47.3762 345.259 47.5346 345.306 47.7181 345.34L48.4472 344.471L47.4728 343.654L47.6704 343.418L49.3309 344.812L48.4009 345.92C48.1439 345.935 47.8552 345.875 47.5349 345.74C47.2173 345.607 46.9151 345.421 46.6282 345.18Z" fill="#65AF7C"/>
<path d="M51.6393 348.544C50.993 348.246 50.6053 347.907 50.4762 347.528C50.3518 347.147 50.3913 346.736 50.5946 346.295L51.5028 344.328L52.3227 344.706L51.3633 346.785C51.2164 347.103 51.1618 347.386 51.1997 347.634C51.2375 347.881 51.4301 348.085 51.7773 348.245C52.1117 348.4 52.3855 348.415 52.5987 348.291C52.8151 348.169 52.9998 347.942 53.1526 347.611L54.112 345.532L54.9319 345.91L54.0237 347.878C53.8204 348.319 53.5334 348.615 53.1626 348.768C52.7934 348.917 52.2856 348.843 51.6393 348.544Z" fill="#65AF7C"/>
<path d="M57.3354 346.997L55.8238 346.719L55.8833 346.396L59.7874 347.114L59.7279 347.437L58.2163 347.159L57.6041 350.485L56.7232 350.323L57.3354 346.997Z" fill="#65AF7C"/>
<path d="M62.6151 347.326L63.5141 347.266L63.6179 348.821L65.5799 348.69L65.4761 347.135L66.3751 347.075L66.6222 350.777L65.7232 350.837L65.6018 349.018L63.6398 349.149L63.7613 350.968L62.8623 351.028L62.6151 347.326Z" fill="#65AF7C"/>
<path d="M68.036 346.897L71.4073 346.27L71.4674 346.593L68.9818 347.055L69.2066 348.264L71.4055 347.855L71.4655 348.178L69.2666 348.587L69.5397 350.057L72.0253 349.595L72.0853 349.918L68.714 350.544L68.036 346.897Z" fill="#65AF7C"/>
<path d="M76.0199 347.974L74.2 348.472L74.0079 349.497L73.4046 349.662L74.2725 345.524L74.8297 345.371L77.5761 348.521L76.6917 348.763L76.0199 347.974ZM75.7849 347.698L74.6008 346.302L74.2666 348.113L75.7849 347.698Z" fill="#65AF7C"/>
<path d="M77.9658 344.494L78.8217 344.205L79.9037 347.418L82.0688 346.688L82.174 347L79.153 348.018L77.9658 344.494Z" fill="#65AF7C"/>
<path d="M82.8821 343.158L81.4192 343.629L81.3184 343.317L85.0968 342.099L85.1976 342.412L83.7346 342.883L84.7717 346.102L83.9192 346.376L82.8821 343.158Z" fill="#65AF7C"/>
<path d="M86.9791 341.561L87.8621 341.39L88.1582 342.917L90.0851 342.543L89.7891 341.016L90.6721 340.845L91.377 344.481L90.494 344.652L90.1476 342.865L88.2206 343.239L88.567 345.026L87.684 345.197L86.9791 341.561Z" fill="#65AF7C"/>
<path d="M95.2077 340.263L98.5466 340.238L98.549 340.567L96.1111 340.585L96.1203 341.815L98.2085 341.799L98.211 342.128L96.1228 342.143L96.1365 343.966L95.2355 343.973L95.2077 340.263Z" fill="#65AF7C"/>
<path d="M100.53 340.426L101.422 340.516L101.051 344.189L100.159 344.099L100.53 340.426Z" fill="#65AF7C"/>
<path d="M105.778 344.187C105.82 344.444 105.857 344.643 105.89 344.784C105.925 344.927 105.971 345.003 106.027 345.012L106.01 345.085L105.153 344.885C105.104 344.801 105.064 344.699 105.034 344.58C105.007 344.461 104.983 344.314 104.963 344.139C104.929 343.892 104.89 343.695 104.844 343.551C104.798 343.406 104.72 343.295 104.611 343.219L104.533 343.201L103.769 343.023L103.429 344.484L102.557 344.28L103.398 340.667L105.035 341.048C105.575 341.174 105.973 341.352 106.227 341.582C106.486 341.812 106.57 342.122 106.479 342.511C106.356 343.038 105.995 343.303 105.395 343.309C105.495 343.408 105.574 343.528 105.632 343.669C105.695 343.807 105.743 343.98 105.778 344.187ZM103.844 342.703L104.613 342.882C104.875 342.943 105.088 342.936 105.254 342.863C105.424 342.789 105.543 342.605 105.612 342.309C105.679 342.02 105.652 341.807 105.532 341.67C105.416 341.531 105.227 341.43 104.965 341.369L104.196 341.19L103.844 342.703Z" fill="#65AF7C"/>
<path d="M109.145 346.276C108.618 346.045 108.241 345.76 108.015 345.422C107.792 345.085 107.752 344.732 107.895 344.362L108.55 344.65C108.436 344.954 108.439 345.212 108.559 345.423C108.682 345.635 108.918 345.818 109.268 345.971C109.556 346.097 109.79 346.14 109.969 346.099C110.149 346.058 110.283 345.939 110.369 345.742C110.416 345.635 110.432 345.532 110.417 345.433C110.403 345.334 110.339 345.221 110.225 345.094C110.114 344.968 109.934 344.82 109.685 344.649C109.294 344.378 108.986 344.1 108.76 343.815C108.536 343.532 108.491 343.24 108.623 342.939C108.881 342.35 109.545 342.291 110.616 342.76C111.141 342.99 111.497 343.25 111.686 343.541C111.88 343.83 111.926 344.125 111.826 344.424L111.18 344.141C111.238 343.885 111.205 343.672 111.079 343.501C110.955 343.327 110.747 343.176 110.455 343.048C110.2 342.936 109.99 342.896 109.825 342.928C109.664 342.962 109.554 343.047 109.494 343.182C109.461 343.257 109.453 343.332 109.47 343.409C109.49 343.487 109.553 343.584 109.66 343.701C109.772 343.815 109.945 343.959 110.178 344.13C110.508 344.371 110.763 344.579 110.941 344.754C111.119 344.928 111.239 345.12 111.302 345.329C111.366 345.534 111.344 345.762 111.235 346.011C111.144 346.218 110.996 346.366 110.792 346.453C110.591 346.543 110.349 346.572 110.065 346.54C109.782 346.509 109.476 346.421 109.145 346.276Z" fill="#65AF7C"/>
<path d="M115.376 345.693L114.116 344.817L114.303 344.548L117.558 346.81L117.371 347.08L116.11 346.204L114.183 348.976L113.449 348.466L115.376 345.693Z" fill="#65AF7C"/>
<path d="M243.403 349.731C244.131 348.934 245.079 348.37 246.126 348.109C247.173 347.848 248.275 347.901 249.292 348.261C250.31 348.622 251.198 349.274 251.848 350.136C252.497 350.999 252.878 352.033 252.943 353.111C253.15 353.078 253.359 353.057 253.569 353.048C254.706 353.06 255.795 353.508 256.611 354.3C258.834 352.426 260.364 349.861 260.955 347.014C259.498 347.82 257.863 348.25 256.198 348.266C254.236 348.289 252.311 347.735 250.661 346.673C249.011 345.612 247.71 344.089 246.918 342.294C246.126 340.5 245.878 338.512 246.206 336.577C246.533 334.643 247.422 332.848 248.761 331.414H248.21C244.756 331.414 241.443 332.785 238.999 335.227C236.555 337.668 235.18 340.98 235.177 344.435C235.179 344.853 235.204 345.271 235.252 345.687C235.75 345.581 236.258 345.527 236.767 345.524C238.158 345.522 239.521 345.917 240.697 346.662C241.872 347.407 242.81 348.471 243.403 349.731Z" fill="url(#paint4_linear_1269_7308)" stroke="#456C51" stroke-width="0.75" stroke-linecap="round" stroke-linejoin="round"/>
<path d="M256.611 354.263C255.796 353.47 254.706 353.022 253.569 353.011C253.359 353.019 253.15 353.04 252.943 353.073C252.878 351.996 252.497 350.961 251.848 350.099C251.199 349.236 250.31 348.584 249.293 348.224C248.275 347.863 247.174 347.81 246.127 348.072C245.079 348.333 244.132 348.897 243.403 349.693C242.82 348.422 241.885 347.345 240.709 346.588C239.533 345.832 238.166 345.428 236.768 345.424C236.258 345.426 235.751 345.481 235.253 345.586C233.607 345.934 232.131 346.836 231.071 348.142C230.011 349.448 229.432 351.078 229.431 352.76C229.425 352.869 229.425 352.977 229.431 353.086C229.183 353.042 228.932 353.017 228.68 353.011C227.488 353.011 226.344 353.484 225.502 354.327C224.659 355.17 224.185 356.313 224.185 357.505C224.185 358.697 224.659 359.841 225.502 360.684C226.344 361.526 227.488 362 228.68 362H253.532C254.121 362 254.705 361.884 255.25 361.658C255.794 361.432 256.289 361.1 256.705 360.683C257.122 360.265 257.452 359.77 257.676 359.224C257.901 358.679 258.015 358.095 258.014 357.505C258.016 356.897 257.892 356.296 257.651 355.738C257.409 355.18 257.056 354.678 256.611 354.263Z" stroke="#456C51" stroke-width="0.75" stroke-linecap="round" stroke-linejoin="round"/>
<defs>
<linearGradient id="paint0_linear_1269_7308" x1="297.224" y1="110.038" x2="296.098" y2="115.647" gradientUnits="userSpaceOnUse">
<stop stop-color="#99D4F7" stop-opacity="0"/>
<stop offset="0.11" stop-color="#99D4F7" stop-opacity="0.02"/>
<stop offset="0.24" stop-color="#99D4F7" stop-opacity="0.07"/>
<stop offset="0.37" stop-color="#99D4F7" stop-opacity="0.16"/>
<stop offset="0.51" stop-color="#99D4F7" stop-opacity="0.29"/>
<stop offset="0.65" stop-color="#99D4F7" stop-opacity="0.45"/>
<stop offset="0.79" stop-color="#99D4F7" stop-opacity="0.65"/>
<stop offset="0.94" stop-color="#99D4F7" stop-opacity="0.89"/>
<stop offset="1" stop-color="#99D4F7"/>
</linearGradient>
<linearGradient id="paint1_linear_1269_7308" x1="195.087" y1="42.8567" x2="207.482" y2="30.7249" gradientUnits="userSpaceOnUse">
<stop stop-color="#F2AA8F" stop-opacity="0"/>
<stop offset="0.07" stop-color="#F2AA8F" stop-opacity="0.04"/>
<stop offset="0.2" stop-color="#F2AA8F" stop-opacity="0.15"/>
<stop offset="0.36" stop-color="#F2AA8F" stop-opacity="0.33"/>
<stop offset="0.55" stop-color="#F2AA8F" stop-opacity="0.59"/>
<stop offset="0.77" stop-color="#F2AA8F" stop-opacity="0.9"/>
<stop offset="0.83" stop-color="#F2AA8F"/>
</linearGradient>
<linearGradient id="paint2_linear_1269_7308" x1="52.3742" y1="40.8785" x2="63.0661" y2="51.6206" gradientUnits="userSpaceOnUse">
<stop stop-color="#99D4F7" stop-opacity="0"/>
<stop offset="1" stop-color="#99D4F7"/>
</linearGradient>
<linearGradient id="paint3_linear_1269_7308" x1="131.045" y1="343.889" x2="141.334" y2="347.135" gradientUnits="userSpaceOnUse">
<stop stop-color="#F2AA8F" stop-opacity="0"/>
<stop offset="0.15" stop-color="#F2AA8F" stop-opacity="0.12"/>
<stop offset="0.46" stop-color="#F2AA8F" stop-opacity="0.43"/>
<stop offset="0.92" stop-color="#F2AA8F" stop-opacity="0.92"/>
<stop offset="1" stop-color="#F2AA8F"/>
</linearGradient>
<linearGradient id="paint4_linear_1269_7308" x1="235.177" y1="342.782" x2="260.955" y2="342.782" gradientUnits="userSpaceOnUse">
<stop stop-color="#99D4F7" stop-opacity="0"/>
<stop offset="0.14" stop-color="#99D4F7" stop-opacity="0.12"/>
<stop offset="0.45" stop-color="#99D4F7" stop-opacity="0.42"/>
<stop offset="0.91" stop-color="#99D4F7" stop-opacity="0.9"/>
<stop offset="1" stop-color="#99D4F7"/>
</linearGradient>
</defs>
</svg>
