<svg width="348" height="218" viewBox="0 0 348 218" fill="none" xmlns="http://www.w3.org/2000/svg">
<g id="Group 984">
<g id="Group 982">
<path id="Vector" d="M149.435 182.73C160.084 182.73 168.717 174.097 168.717 163.448C168.717 152.799 160.084 144.166 149.435 144.166C138.786 144.166 130.153 152.799 130.153 163.448C130.153 174.097 138.786 182.73 149.435 182.73Z" fill="#C1E1CE"/>
<path id="Vector_2" d="M113.5 207.233C113.5 207.233 116.582 204.868 119.588 206.189C122.594 207.51 122.217 209.509 121.55 210.78C121.373 211.163 121.113 211.501 120.787 211.77C120.462 212.038 120.08 212.23 119.67 212.33C119.26 212.43 118.833 212.437 118.42 212.349C118.007 212.262 117.62 212.082 117.286 211.824C115.11 210.201 116.557 207.887 113.5 207.233Z" stroke="#456C51" stroke-linecap="round" stroke-linejoin="round"/>
<path id="Vector_3" d="M117.613 207.988C117.613 207.988 121.94 209.786 123.223 213.145" stroke="#456C51" stroke-linecap="round" stroke-linejoin="round"/>
<path id="Vector_4" d="M185.373 207.233C185.373 207.233 182.303 204.868 179.285 206.189C176.266 207.51 176.656 209.509 177.335 210.78C177.512 211.161 177.772 211.498 178.097 211.765C178.422 212.032 178.802 212.222 179.21 212.322C179.618 212.423 180.044 212.43 180.455 212.344C180.866 212.257 181.253 212.08 181.586 211.824C183.763 210.201 182.316 207.887 185.373 207.233Z" stroke="#456C51" stroke-linecap="round" stroke-linejoin="round"/>
<path id="Vector_5" d="M181.272 207.988C181.272 207.988 176.932 209.786 175.662 213.145" stroke="#456C51" stroke-linecap="round" stroke-linejoin="round"/>
<path id="Vector_6" d="M146.278 170.681C146.278 170.681 146.617 176.794 142.819 176.794C139.02 176.794 134.19 177.662 134.19 181.888C134.19 186.114 134.832 195.95 130.001 198.894" stroke="#456C51" stroke-linecap="round" stroke-linejoin="round"/>
<path id="Vector_7" d="M152.605 170.681C152.605 170.681 152.228 176.794 156.002 176.794C159.775 176.794 164.643 177.662 164.643 181.888C164.643 186.114 163.989 195.95 168.831 198.894" stroke="#456C51" stroke-linecap="round" stroke-linejoin="round"/>
<path id="Vector_8" d="M149.436 171.41C153.618 171.41 157.008 167.845 157.008 163.448C157.008 159.051 153.618 155.486 149.436 155.486C145.254 155.486 141.864 159.051 141.864 163.448C141.864 167.845 145.254 171.41 149.436 171.41Z" stroke="#456C51" stroke-linecap="round" stroke-linejoin="round"/>
<path id="Vector_9" d="M140.644 184.089C140.644 184.089 142.996 192.416 140.531 198.868C140.237 199.609 139.737 200.25 139.091 200.716C138.445 201.181 137.678 201.453 136.883 201.497C133.424 201.749 127.349 202.679 127.437 206.201C127.563 211.119 134.984 216.428 148.027 211.119C161.071 205.811 162.53 205.359 164.266 206.717" stroke="#456C51" stroke-linecap="round" stroke-linejoin="round"/>
<path id="Vector_10" d="M158.241 184.089C158.241 184.089 155.889 192.416 158.341 198.868C158.637 199.608 159.136 200.248 159.783 200.714C160.429 201.179 161.194 201.451 161.989 201.497C165.448 201.749 171.536 202.679 171.448 206.201C171.309 211.119 163.901 216.428 150.857 211.119C137.814 205.811 136.355 205.359 134.606 206.717" stroke="#456C51" stroke-linecap="round" stroke-linejoin="round"/>
<path id="Vector_11" d="M129.034 203.434C122.726 199.082 117.974 192.827 115.473 185.583C112.972 178.339 112.853 170.485 115.132 163.168C117.411 155.851 121.97 149.454 128.143 144.912C134.315 140.369 141.778 137.919 149.442 137.919C157.106 137.919 164.569 140.369 170.741 144.912C176.914 149.454 181.473 155.851 183.752 163.168C186.031 170.485 185.911 178.339 183.41 185.583C180.909 192.827 176.158 199.082 169.85 203.434" stroke="#456C51" stroke-linecap="round" stroke-linejoin="round"/>
<path id="Vector_12" d="M166.63 172.165C168.166 169.146 168.878 165.775 168.696 162.393C168.514 159.01 167.444 155.736 165.593 152.899C163.742 150.062 161.177 147.763 158.154 146.234C155.132 144.705 151.76 143.999 148.378 144.189C144.996 144.378 141.724 145.455 138.891 147.312C136.058 149.169 133.764 151.74 132.242 154.765C130.719 157.791 130.021 161.164 130.217 164.546C130.413 167.927 131.498 171.197 133.361 174.026" stroke="#456C51" stroke-linecap="round" stroke-linejoin="round" stroke-dasharray="0.08 3.38"/>
</g>
<g id="Group 979">
<path id="Vector_13" d="M270.992 57.6145L267.784 59.4384C267.784 59.4384 277.054 66.5199 279.406 77.1862L293.57 70.2808L292.651 68.5702L270.992 57.6145Z" fill="#C1E1CE"/>
<path id="Vector_14" d="M268.677 55.7908C268.677 55.7908 278.489 62.6082 281.432 73.9664L296.161 66.9477C296.161 66.9477 291.13 53.1117 283.218 48.269L268.677 55.7908Z" fill="#FFFCF5" stroke="#456C51" stroke-linecap="round" stroke-linejoin="round"/>
<path id="Vector_15" d="M289.659 58.9102L279.647 64.0798" stroke="#456C51" stroke-linecap="round" stroke-linejoin="round"/>
<path id="Vector_16" d="M290.413 60.4194L280.401 65.6017" stroke="#456C51" stroke-linecap="round" stroke-linejoin="round"/>
<path id="Vector_17" d="M291.318 62.1177L281.306 67.2873" stroke="#456C51" stroke-linecap="round" stroke-linejoin="round"/>
<path id="Vector_18" d="M288.149 65.8784L282.25 68.9223" stroke="#456C51" stroke-linecap="round" stroke-linejoin="round"/>
<path id="Vector_19" d="M280.112 55.9918L277.37 57.6018C277.251 57.6718 277.12 57.7176 276.983 57.7365C276.846 57.7554 276.708 57.747 276.574 57.7119C276.441 57.6769 276.316 57.6157 276.206 57.5321C276.097 57.4484 276.005 57.3439 275.936 57.2245C275.866 57.1067 275.821 56.9762 275.802 56.8406C275.783 56.705 275.792 56.5671 275.827 56.4348C275.862 56.3025 275.923 56.1785 276.007 56.07C276.09 55.9616 276.194 55.8709 276.313 55.8032L276.992 55.4006C277.1 55.3424 277.193 55.2626 277.268 55.1662C277.343 55.0698 277.396 54.959 277.426 54.8408C277.455 54.7225 277.46 54.5995 277.44 54.4793C277.419 54.3592 277.374 54.2446 277.307 54.1428" stroke="#456C51" stroke-linecap="round" stroke-linejoin="round"/>
<path id="Vector_20" d="M276.953 56.6335L279.721 55.0109C279.839 54.941 279.971 54.8952 280.107 54.8763C280.244 54.8574 280.383 54.8657 280.516 54.9008C280.649 54.9359 280.775 54.997 280.884 55.0807C280.994 55.1644 281.086 55.2689 281.154 55.3883C281.292 55.629 281.33 55.9143 281.26 56.1825C281.189 56.4508 281.016 56.6806 280.777 56.8222L278.01 58.4322" stroke="#456C51" stroke-linecap="round" stroke-linejoin="round"/>
<path id="Vector_21" d="M279.911 57.3251L281.357 56.4824C281.476 56.4124 281.608 56.3666 281.744 56.3477C281.881 56.3289 282.02 56.3372 282.153 56.3723C282.286 56.4073 282.411 56.4685 282.521 56.5521C282.63 56.6358 282.722 56.7403 282.791 56.8597C282.929 57.1004 282.967 57.3857 282.896 57.654C282.826 57.9223 282.653 58.152 282.414 58.2936L281.068 59.0735C280.863 59.2013 280.714 59.4022 280.651 59.6356C280.588 59.869 280.616 60.1176 280.728 60.3313" stroke="#456C51" stroke-linecap="round" stroke-linejoin="round"/>
<path id="Vector_22" d="M281.169 57.8034L277.861 59.7404C277.743 59.8109 277.612 59.8574 277.476 59.8772C277.34 59.8971 277.201 59.8898 277.068 59.8559C276.935 59.822 276.809 59.7622 276.699 59.6797C276.589 59.5973 276.497 59.494 276.427 59.3757C276.357 59.2569 276.311 59.1254 276.292 58.9889C276.273 58.8523 276.282 58.7134 276.317 58.5801C276.352 58.4468 276.413 58.3217 276.496 58.2122C276.58 58.1026 276.685 58.0107 276.804 57.9417L278.238 57.0864" stroke="#456C51" stroke-linecap="round" stroke-linejoin="round"/>
<path id="Vector_23" d="M277.055 56.5831L277.746 56.168C278.187 55.9083 278.507 55.4848 278.637 54.9899C278.767 54.4951 278.695 53.969 278.438 53.5266" stroke="#456C51" stroke-linecap="round" stroke-linejoin="round"/>
<path id="Vector_24" d="M279.735 60.9479C279.47 60.4925 279.396 59.9504 279.531 59.441C279.665 58.9315 279.996 58.4963 280.452 58.231" stroke="#456C51" stroke-linecap="round" stroke-linejoin="round"/>
</g>
<path id="Vector_25" d="M304.236 1H30.7981V38.6215H304.236V1Z" fill="#F3F7ED" stroke="#456C51" stroke-miterlimit="10"/>
<path id="Vector_26" d="M99.1602 88.947H148.341L138.857 77.3247H99.1602V88.947Z" stroke="#456C51" stroke-linecap="round" stroke-linejoin="round"/>
<g id="Group 974">
<path id="Vector_27" d="M99.1605 154.303H1L19.9428 131.109H99.1605V154.303Z" stroke="#456C51" stroke-linecap="round" stroke-linejoin="round"/>
<path id="Vector_28" d="M99.1605 154.303H1V161.033H99.1605V154.303Z" stroke="#456C51" stroke-linecap="round" stroke-linejoin="round"/>
</g>
<path id="Vector_29" d="M148.353 89.0098H99.2732V95.7391H148.353V89.0098Z" stroke="#456C51" stroke-linecap="round" stroke-linejoin="round"/>
<g id="Group 970">
<path id="Vector_30" d="M58.1273 134.305C58.761 133.671 58.9282 132.811 58.5009 132.384C58.0735 131.957 57.2134 132.124 56.5797 132.757C55.9461 133.391 55.7788 134.251 56.2062 134.679C56.6335 135.106 57.4936 134.939 58.1273 134.305Z" stroke="#456C51" stroke-linecap="round" stroke-linejoin="round"/>
<path id="Vector_31" d="M27.7646 123.332C28.3241 123.009 28.3863 122.07 27.9035 121.233C27.4207 120.397 26.5757 119.981 26.0162 120.304C25.4567 120.627 25.3946 121.567 25.8774 122.403C26.3602 123.239 27.2051 123.655 27.7646 123.332Z" stroke="#456C51" stroke-linecap="round" stroke-linejoin="round"/>
<path id="Vector_32" d="M51.754 123.437H53.8923C54.4361 123.437 54.9576 123.653 55.3421 124.037C55.7266 124.422 55.9426 124.943 55.9426 125.487V128.858C55.9426 129.401 55.7266 129.923 55.3421 130.307C54.9576 130.692 54.4361 130.908 53.8923 130.908H50.8735" stroke="#456C51" stroke-linecap="round" stroke-linejoin="round"/>
<path id="Vector_33" d="M23.5283 109.525C23.5283 109.525 26.7861 107.664 29.5156 109.324C32.245 110.984 31.6035 112.846 30.7734 113.99C30.552 114.335 30.2561 114.625 29.9076 114.839C29.559 115.053 29.1667 115.187 28.7597 115.229C28.3527 115.271 27.9414 115.221 27.5562 115.083C27.1711 114.945 26.8219 114.722 26.5345 114.431C24.6855 112.582 26.4465 110.544 23.5283 109.525Z" stroke="#456C51" stroke-linecap="round" stroke-linejoin="round"/>
<path id="Vector_34" d="M27.376 110.758C27.376 110.758 31.3004 113.047 32.0928 116.443" stroke="#456C51" stroke-linecap="round" stroke-linejoin="round"/>
<path id="Vector_35" d="M24.0056 128.656C24.4507 128.316 24.9717 128.09 25.5238 127.995C26.0759 127.901 26.6427 127.942 27.1753 128.116C28.7476 128.795 28.5464 129.839 28.1942 130.493C28.1038 130.693 27.969 130.87 27.8001 131.01C27.6311 131.151 27.4325 131.251 27.2191 131.303C27.0057 131.355 26.7833 131.358 26.5687 131.311C26.3541 131.265 26.1529 131.17 25.9804 131.034C24.8484 130.191 25.6031 128.996 24.0056 128.656Z" stroke="#456C51" stroke-linecap="round" stroke-linejoin="round"/>
<path id="Vector_36" d="M26.1438 129.021C27.4 129.552 28.432 130.504 29.0619 131.713" stroke="#456C51" stroke-linecap="round" stroke-linejoin="round"/>
<path id="Vector_37" d="M45.5274 107.45C44.9685 107.427 44.4124 107.54 43.9065 107.779C43.4006 108.017 42.9598 108.375 42.6218 108.821C41.7288 110.28 42.4835 111.022 43.1501 111.336C43.339 111.446 43.5502 111.513 43.7681 111.53C43.9861 111.548 44.2052 111.516 44.4093 111.438C44.6134 111.359 44.7972 111.236 44.9472 111.077C45.0972 110.918 45.2095 110.727 45.2758 110.519C45.7287 109.198 44.4205 108.619 45.5274 107.45Z" stroke="#456C51" stroke-linecap="round" stroke-linejoin="round"/>
<path id="Vector_38" d="M44.0559 108.984C43.3226 110.13 43.0154 111.497 43.188 112.846" stroke="#456C51" stroke-linecap="round" stroke-linejoin="round"/>
<path id="Vector_39" d="M59.8528 108.242C59.1648 108.036 58.4372 107.999 57.7319 108.135C57.0267 108.27 56.3648 108.575 55.8026 109.022C54.2303 110.569 54.9347 111.726 55.6642 112.355C55.8649 112.552 56.1073 112.701 56.3735 112.791C56.6396 112.881 56.9226 112.911 57.2016 112.877C57.4807 112.843 57.7485 112.747 57.9853 112.596C58.2221 112.444 58.4219 112.242 58.5698 112.003C59.5383 110.481 58.0918 109.374 59.8528 108.242Z" stroke="#456C51" stroke-linecap="round" stroke-linejoin="round"/>
<path id="Vector_40" d="M57.4509 109.664C56.1855 110.867 55.3764 112.471 55.1616 114.204" stroke="#456C51" stroke-linecap="round" stroke-linejoin="round"/>
<path id="Vector_41" d="M35.1367 105.5C35.6639 106.03 36.0618 106.675 36.2995 107.384C36.5373 108.093 36.6085 108.847 36.5077 109.588C35.9669 111.751 36.3694 113.776 37.4637 114.519" stroke="#456C51" stroke-linecap="round" stroke-linejoin="round"/>
<path id="Vector_42" d="M50.3446 105.664C50.6272 106.356 50.7458 107.105 50.6913 107.851C50.6367 108.597 50.4105 109.321 50.0301 109.965C48.6843 111.751 48.2692 113.739 48.9861 114.883" stroke="#456C51" stroke-linecap="round" stroke-linejoin="round"/>
<path id="Vector_43" d="M50.1804 135.927C49.7512 137.337 48.88 138.571 47.6954 139.447C46.5108 140.324 45.0756 140.796 43.602 140.795H40.2813C38.8188 140.792 37.395 140.324 36.2166 139.458C35.0382 138.592 34.1665 137.372 33.7281 135.977C27.6653 136.732 23.502 138.254 23.502 140.015C23.502 142.53 31.8665 144.555 42.1806 144.555C52.4948 144.555 60.897 142.581 60.897 140.065C60.897 138.203 56.5072 136.644 50.1804 135.927Z" stroke="#456C51" stroke-linecap="round" stroke-linejoin="round"/>
<path id="Vector_44" d="M32.8992 129.311C35.5809 130.047 38.4039 130.103 41.1128 129.474C44.3695 128.632 47.7925 128.68 51.0244 129.613L50.4332 134.644C50.4332 134.644 49.276 140.732 43.6032 140.732H39.8298C38.2428 140.591 36.7523 139.909 35.6076 138.801C34.4628 137.693 33.7332 136.225 33.5407 134.644L32.8992 129.311Z" fill="#C1E1CE"/>
<path id="Vector_45" d="M54.8096 117.814C51.25 123.94 44.9231 123.915 41.9547 123.915C36.4077 123.915 31.8921 122.556 31.8921 120.871C31.8921 119.185 36.3951 117.814 41.9547 117.814C47.5143 117.814 52.0173 119.173 52.0173 120.871L50.4324 134.707C50.2408 136.383 49.4385 137.931 48.1788 139.054C46.919 140.177 45.29 140.796 43.6024 140.795H40.2818C38.5942 140.796 36.9651 140.177 35.7054 139.054C34.4456 137.931 33.6434 136.383 33.4518 134.707L32.2946 124.066" stroke="#456C51" stroke-linecap="round" stroke-linejoin="round"/>
</g>
<g id="Group 972">
<path id="Vector_46" d="M99.1602 123.588H96.9841H96.3678H94.871H94.2044L92.7956 123.512H92.217C91.6887 123.512 91.1856 123.512 90.6824 123.399C84.4562 122.883 80.1796 121.801 80.1796 120.556L71.7271 143.285C71.7271 143.285 78.8715 147.461 99.1602 147.461V123.588Z" fill="url(#paint0_linear_292_693)"/>
<path id="Vector_47" d="M92.7954 123.399L94.2042 123.474H94.8708H96.3676H96.984H99.16V99.6008C92.7954 99.6008 87.6509 98.7329 87.6509 97.6637C87.6509 96.5946 92.7954 95.7393 99.16 95.7393C92.7954 95.7393 87.6383 96.6072 87.6383 97.6637L80.2926 120.066C80.2214 120.165 80.182 120.283 80.1794 120.405C80.1794 121.663 84.456 122.732 90.6823 123.248C91.1854 123.248 91.6885 123.336 92.2168 123.361L92.7954 123.399Z" stroke="#456C51" stroke-linecap="round" stroke-linejoin="round"/>
<path id="Vector_48" d="M96.984 123.562H96.3677H94.8709H94.2043L92.7955 123.487H92.2169C91.6886 123.487 91.1855 123.487 90.6823 123.374H90.4056C87.985 125.644 86.5424 128.766 86.3827 132.081C86.2231 135.395 87.3591 138.642 89.5503 141.134C90.1801 141.849 90.9539 142.422 91.8211 142.817C92.6882 143.211 93.629 143.418 94.5816 143.423H99.1098V123.587L96.984 123.562Z" stroke="#456C51" stroke-linecap="round" stroke-linejoin="round"/>
</g>
<path id="Vector_49" d="M304.236 213.409V200.805" stroke="#456C51" stroke-linecap="round" stroke-linejoin="round"/>
<g id="Group 975">
<path id="Vector_50" d="M235.875 213.408H30.7993" stroke="#456C51" stroke-linecap="round" stroke-linejoin="round"/>
<path id="Vector_51" d="M30.7993 213.408V161.498" stroke="#456C51" stroke-linecap="round" stroke-linejoin="round"/>
<path id="Vector_52" d="M30.7991 96.4435V38.6213" stroke="#456C51" stroke-linecap="round" stroke-linejoin="round"/>
<path id="Vector_53" d="M99.1614 213.408V38.6213" stroke="#456C51" stroke-linecap="round" stroke-linejoin="round"/>
<path id="Vector_54" d="M167.512 129.524V38.6213" stroke="#456C51" stroke-linecap="round" stroke-linejoin="round"/>
<path id="Vector_55" d="M235.875 213.408V82.5068" stroke="#456C51" stroke-linecap="round" stroke-linejoin="round"/>
<path id="Vector_56" d="M235.875 63.7401V38.6213" stroke="#456C51" stroke-linecap="round" stroke-linejoin="round"/>
<path id="Vector_57" d="M235.875 213.408H304.238" stroke="#456C51" stroke-linecap="round" stroke-linejoin="round"/>
<path id="Vector_58" d="M304.237 105.663V38.6213" stroke="#456C51" stroke-linecap="round" stroke-linejoin="round"/>
</g>
<g id="Group 983">
<path id="Vector_59" d="M217.283 207.421C217.283 207.421 207.057 205.17 203.786 207.157C200.516 209.144 200.856 213.446 206.466 213.446H214.252C214.252 213.446 221.006 213.446 221.409 210.868C221.811 208.289 217.283 207.421 217.283 207.421Z" stroke="#456C51" stroke-linecap="round" stroke-linejoin="round"/>
<path id="Vector_60" d="M208.703 206.339C207.445 206.251 204.213 205.396 204.213 203.748C204.213 202.101 206.615 201.019 209.445 200.805C212.276 200.591 218.401 200.277 219.986 201.862C221.571 203.446 220.489 205.547 218.892 206.339C217.294 207.132 211.345 206.503 208.703 206.339Z" stroke="#456C51" stroke-linecap="round" stroke-linejoin="round"/>
<path id="Vector_61" d="M209.445 200.805C209.445 200.805 204.213 201.044 204.213 198.051C204.213 195.057 207.521 194.629 209.445 194.868C211.017 195.041 212.55 195.465 213.986 196.126C215.345 196.805 216.213 197.384 215.873 198.239C215.533 199.095 215.118 200.252 209.445 200.805Z" stroke="#456C51" stroke-linecap="round" stroke-linejoin="round"/>
<path id="Vector_62" d="M209.446 194.868C209.446 194.868 207.233 194.441 207.233 192.805C207.233 191.17 211.459 190.743 212.264 190.894C212.512 190.976 212.741 191.106 212.938 191.277C213.136 191.449 213.298 191.657 213.414 191.891C213.531 192.124 213.601 192.379 213.619 192.639C213.638 192.9 213.605 193.161 213.522 193.409C212.981 194.705 211.635 195.283 209.446 194.868Z" stroke="#456C51" stroke-linecap="round" stroke-linejoin="round"/>
</g>
<g id="Group 977">
<path id="Vector_63" d="M69.7263 8.24487H75.5752L80.0656 22.8105L85.4491 8.24487H89.449L95.1343 24.0306L100.581 8.24487H103.876L95.8262 31.7033H92.0527L86.2164 15.2132L80.3675 31.7033H77.3865L69.7263 8.24487Z" fill="#65AF7C"/>
<path id="Vector_64" d="M106.43 8.24487H127.813V10.2951H112.04V17.9553H125.976V20.0055H112.04V29.3763H127.8V31.414H106.417L106.43 8.24487Z" fill="#65AF7C"/>
<path id="Vector_65" d="M131.033 8.24487H136.655V29.3763H150.856V31.414H131.033V8.24487Z" fill="#65AF7C"/>
<path id="Vector_66" d="M155.511 28.6217C153.26 26.584 152.14 23.5904 152.14 19.7037C152.14 15.8171 153.26 12.9492 155.499 10.899C157.737 8.84871 160.97 7.88019 165.222 7.88019C168.236 7.71845 171.234 8.42104 173.863 9.90528C174.873 10.5497 175.723 11.4159 176.349 12.4381C176.974 13.4602 177.359 14.6115 177.473 15.8045H173.083C172.838 14.0764 171.937 12.5089 170.567 11.4272C169.047 10.3714 167.221 9.84536 165.372 9.93044C164.302 9.86666 163.232 10.062 162.253 10.5C161.274 10.9379 160.416 11.6055 159.75 12.4461C158.32 14.5799 157.638 17.1282 157.813 19.6911C157.64 22.3127 158.329 24.919 159.775 27.1123C160.445 27.9541 161.309 28.6222 162.292 29.06C163.275 29.4979 164.349 29.6927 165.423 29.628C167.266 29.7172 169.087 29.1857 170.592 28.1186C171.963 27.0378 172.864 25.4699 173.108 23.7413H177.498C177.384 24.9343 177 26.0856 176.374 27.1078C175.749 28.1299 174.898 28.9961 173.888 29.6405C171.284 31.1307 168.305 31.8382 165.31 31.6782C161.033 31.695 157.767 30.6761 155.511 28.6217Z" fill="#65AF7C"/>
<path id="Vector_67" d="M239.181 8.24476V31.3635H233.533V15.0873L226.565 31.3635H223.093L214.376 14.559V31.3635H211.27V8.24476H216.98L225.936 25.6027L233.483 8.23218L239.181 8.24476Z" fill="#65AF7C"/>
<path id="Vector_68" d="M243.935 8.24487H265.318V10.2951H249.558V17.9553H263.495V20.0055H249.558V29.3763H265.306V31.414H243.923L243.935 8.24487Z" fill="#65AF7C"/>
<path id="Vector_69" d="M199.635 25.691C199.635 24.1731 199.032 22.7174 197.959 21.6441C196.885 20.5709 195.43 19.9679 193.912 19.9679C192.442 19.8989 191.055 19.2665 190.039 18.2019C189.024 17.1374 188.457 15.7225 188.457 14.2511C188.457 12.7797 189.024 11.3648 190.039 10.3002C191.055 9.23566 192.442 8.60324 193.912 8.53427C190.879 8.48423 187.951 9.64085 185.772 11.7497C183.592 13.8585 182.339 16.7468 182.289 19.7792C182.239 22.8116 183.396 25.7397 185.505 27.9193C187.614 30.0989 190.502 31.3515 193.534 31.4015H193.912C195.427 31.4015 196.881 30.8003 197.954 29.7297C199.027 28.6591 199.631 27.2067 199.635 25.691Z" fill="#FFFCF5" stroke="#65AF7C" stroke-linecap="round" stroke-linejoin="round"/>
<path id="Vector_70" d="M193.912 8.53425C192.442 8.60321 191.055 9.23563 190.04 10.3002C189.024 11.3647 188.457 12.7796 188.457 14.2511C188.457 15.7225 189.024 17.1374 190.04 18.2019C191.055 19.2665 192.442 19.8989 193.912 19.9679C194.685 19.9316 195.458 20.0526 196.183 20.3235C196.908 20.5944 197.571 21.0097 198.131 21.5441C198.691 22.0785 199.137 22.721 199.442 23.4327C199.746 24.1444 199.903 24.9105 199.903 25.6847C199.903 26.4588 199.746 27.2249 199.442 27.9366C199.137 28.6483 198.691 29.2908 198.131 29.8253C197.571 30.3597 196.908 30.7749 196.183 31.0458C195.458 31.3168 194.685 31.4378 193.912 31.4015C195.446 31.4524 196.975 31.1941 198.407 30.6421C199.84 30.0901 201.146 29.2556 202.25 28.1883C203.353 27.121 204.23 25.8426 204.83 24.4293C205.429 23.016 205.737 21.4966 205.737 19.9616C205.737 18.4265 205.429 16.9071 204.83 15.4938C204.23 14.0805 203.353 12.8022 202.25 11.7349C201.146 10.6675 199.84 9.83305 198.407 9.28104C196.975 8.72904 195.446 8.47079 193.912 8.52167V8.53425Z" fill="#C1E1CE" stroke="#65AF7C" stroke-miterlimit="10"/>
<path id="Vector_71" d="M193.911 27.2884C194.793 27.2884 195.508 26.5732 195.508 25.6909C195.508 24.8087 194.793 24.0935 193.911 24.0935C193.029 24.0935 192.313 24.8087 192.313 25.6909C192.313 26.5732 193.029 27.2884 193.911 27.2884Z" fill="#C1E1CE" stroke="#65AF7C" stroke-miterlimit="10"/>
<path id="Vector_72" d="M193.911 15.8548C194.793 15.8548 195.508 15.1396 195.508 14.2573C195.508 13.3751 194.793 12.6599 193.911 12.6599C193.029 12.6599 192.313 13.3751 192.313 14.2573C192.313 15.1396 193.029 15.8548 193.911 15.8548Z" fill="#FFFCF5" stroke="#65AF7C" stroke-linecap="round" stroke-linejoin="round"/>
<path id="Vector_73" d="M195.208 6.37085C195.585 6.37085 195.962 6.42116 196.34 6.52179" stroke="#65AF7C" stroke-linecap="round" stroke-linejoin="round"/>
<path id="Vector_74" d="M180.252 19.9678C180.252 16.345 181.691 12.8705 184.253 10.3088C186.815 7.74703 190.289 6.30786 193.912 6.30786" stroke="#65AF7C" stroke-linecap="round" stroke-linejoin="round"/>
<path id="Vector_75" d="M192.616 33.5775C192.239 33.5775 191.862 33.5271 191.484 33.4265" stroke="#65AF7C" stroke-linecap="round" stroke-linejoin="round"/>
<path id="Vector_76" d="M207.572 19.9678C207.572 23.5918 206.133 27.0675 203.572 29.6313C201.01 32.195 197.536 33.637 193.912 33.6403" stroke="#65AF7C" stroke-linecap="round" stroke-linejoin="round"/>
<path id="Vector_77" d="M202.905 8.0813H204.93" stroke="#65AF7C" stroke-linecap="round" stroke-linejoin="round"/>
<path id="Vector_78" d="M203.924 7.0625V9.08759" stroke="#65AF7C" stroke-linecap="round" stroke-linejoin="round"/>
<path id="Vector_79" d="M206.351 11.2007H208.364" stroke="#65AF7C" stroke-linecap="round" stroke-linejoin="round"/>
<path id="Vector_80" d="M207.358 10.1946V12.2071" stroke="#65AF7C" stroke-linecap="round" stroke-linejoin="round"/>
</g>
<g id="Group 971">
<path id="Vector_81" d="M65.0106 57.0737C66.2055 57.0737 67.1741 56.1051 67.1741 54.9103C67.1741 53.7154 66.2055 52.7468 65.0106 52.7468C63.8158 52.7468 62.8472 53.7154 62.8472 54.9103C62.8472 56.1051 63.8158 57.0737 65.0106 57.0737Z" stroke="#456C51" stroke-linecap="round" stroke-linejoin="round"/>
<path id="Vector_82" d="M54.017 65.0357C55.2118 65.0357 56.1804 64.067 56.1804 62.8722C56.1804 61.6773 55.2118 60.7087 54.017 60.7087C52.8221 60.7087 51.8535 61.6773 51.8535 62.8722C51.8535 64.067 52.8221 65.0357 54.017 65.0357Z" stroke="#456C51" stroke-linecap="round" stroke-linejoin="round"/>
<path id="Vector_83" d="M76.2423 65.0357C77.4372 65.0357 78.4058 64.067 78.4058 62.8722C78.4058 61.6773 77.4372 60.7087 76.2423 60.7087C75.0475 60.7087 74.0789 61.6773 74.0789 62.8722C74.0789 64.067 75.0475 65.0357 76.2423 65.0357Z" stroke="#456C51" stroke-linecap="round" stroke-linejoin="round"/>
<path id="Vector_84" d="M58.1054 78.3184C59.3002 78.3184 60.2688 77.3498 60.2688 76.1549C60.2688 74.9601 59.3002 73.9915 58.1054 73.9915C56.9105 73.9915 55.9419 74.9601 55.9419 76.1549C55.9419 77.3498 56.9105 78.3184 58.1054 78.3184Z" stroke="#456C51" stroke-linecap="round" stroke-linejoin="round"/>
<path id="Vector_85" d="M72.0536 78.3184C73.2484 78.3184 74.217 77.3498 74.217 76.1549C74.217 74.9601 73.2484 73.9915 72.0536 73.9915C70.8588 73.9915 69.8901 74.9601 69.8901 76.1549C69.8901 77.3498 70.8588 78.3184 72.0536 78.3184Z" stroke="#456C51" stroke-linecap="round" stroke-linejoin="round"/>
<path id="Vector_86" d="M54.7847 60.8221C56.2501 58.2549 58.624 56.3297 61.4386 55.426" stroke="#456C51" stroke-linecap="round" stroke-linejoin="round"/>
<path id="Vector_87" d="M56.4577 74.7461C54.3926 72.5653 53.2443 69.6744 53.2503 66.6709" stroke="#456C51" stroke-linecap="round" stroke-linejoin="round"/>
<path id="Vector_88" d="M70.1801 77.2366C67.5342 78.5268 64.5019 78.7825 61.6772 77.9535" stroke="#456C51" stroke-linecap="round" stroke-linejoin="round"/>
<path id="Vector_89" d="M76.6582 64.9854C76.7301 65.5442 76.7637 66.1074 76.7588 66.6708C76.7627 69.1575 75.9741 71.5808 74.5073 73.5889" stroke="#456C51" stroke-linecap="round" stroke-linejoin="round"/>
<path id="Vector_90" d="M67.1606 55.0989C70.0843 55.6474 72.6937 57.2777 74.4686 59.6648" stroke="#456C51" stroke-linecap="round" stroke-linejoin="round"/>
</g>
<g id="Group 973">
<path id="Vector_91" d="M124.77 71.4002C129.57 71.4002 133.462 67.5089 133.462 62.7086C133.462 57.9084 129.57 54.0171 124.77 54.0171C119.97 54.0171 116.079 57.9084 116.079 62.7086C116.079 67.5089 119.97 71.4002 124.77 71.4002Z" fill="#C1E1CE"/>
<path id="Vector_92" d="M111.323 75.0479C116.124 75.0479 120.015 71.1566 120.015 66.3564C120.015 61.5561 116.124 57.6648 111.323 57.6648C106.523 57.6648 102.632 61.5561 102.632 66.3564C102.632 71.1566 106.523 75.0479 111.323 75.0479Z" fill="#C1E1CE"/>
<path id="Vector_93" d="M109.537 55.6899C109.742 55.8597 109.887 56.09 109.953 56.3476C110.018 56.6052 110.001 56.877 109.902 57.1239C109.72 57.6146 109.474 58.0796 109.173 58.5075C108.872 58.9454 108.738 59.4763 108.795 60.0043" stroke="#456C51" stroke-linecap="round" stroke-linejoin="round"/>
<path id="Vector_94" d="M112.418 54.1934C112.845 54.5925 113.134 55.1167 113.245 55.6906C113.356 56.2646 113.282 56.8589 113.034 57.3882C112.833 57.7782 112.531 58.1178 112.355 58.5203C112.249 58.7169 112.201 58.9393 112.217 59.1619C112.233 59.3845 112.311 59.5981 112.443 59.7781" stroke="#456C51" stroke-linecap="round" stroke-linejoin="round"/>
<path id="Vector_95" d="M122.505 54.7844C122.303 54.7115 122.131 54.5753 122.013 54.3962C121.895 54.2171 121.838 54.0047 121.851 53.7907C121.891 53.3659 122.058 52.9629 122.329 52.6335C122.601 52.3056 122.854 51.9611 123.084 51.6021C123.203 51.4181 123.281 51.2101 123.312 50.9928C123.342 50.7754 123.324 50.554 123.26 50.3442" stroke="#456C51" stroke-linecap="round" stroke-linejoin="round"/>
<path id="Vector_96" d="M125.813 47.0488C126.419 47.6552 126.81 48.4434 126.926 49.2929C127.042 50.1425 126.876 51.0065 126.455 51.7531C126.165 52.2436 125.75 52.6713 125.474 53.187C125.311 53.429 125.213 53.7086 125.189 53.9992C125.164 54.2898 125.215 54.5817 125.335 54.8473" stroke="#456C51" stroke-linecap="round" stroke-linejoin="round"/>
<path id="Vector_97" d="M124.731 66.9099C121.587 66.9099 119.021 67.8784 119.008 69.174L118.832 83.0101C118.836 83.0383 118.845 83.0653 118.86 83.0893C118.876 83.1133 118.896 83.1335 118.92 83.1484H130.241L130.417 69.3124C130.417 68.0294 127.889 66.9476 124.731 66.9099Z" fill="#FFFCF5" stroke="#456C51" stroke-linecap="round" stroke-linejoin="round"/>
<path id="Vector_98" d="M117.009 82.9596L117.135 73.0857C117.135 71.8279 114.619 70.721 111.462 70.6707C108.305 70.6204 105.689 71.6518 105.689 72.9474L105.563 82.8213C105.563 82.9219 105.701 83.0225 105.928 83.1232H116.858C116.921 83.0729 117.009 83.0225 117.009 82.9596Z" fill="#FFFCF5" stroke="#456C51" stroke-linecap="round" stroke-linejoin="round"/>
<path id="Vector_99" d="M111.399 71.9411L111.437 68.9978" stroke="#456C51" stroke-linecap="round" stroke-linejoin="round"/>
<path id="Vector_100" d="M111.437 68.9978C111.437 68.9978 113.802 68.9978 113.475 66.0293C113.397 65.1777 113.103 64.36 112.621 63.6535C112.139 62.9471 111.485 62.3751 110.721 61.9917C110.82 62.5617 110.798 63.1461 110.657 63.7073C110.516 64.2684 110.259 64.7938 109.903 65.2495C109.611 65.5606 109.414 65.9492 109.337 66.3689C109.259 66.7886 109.304 67.2217 109.466 67.6167C109.627 68.0117 109.899 68.3518 110.249 68.5967C110.598 68.8416 111.011 68.9808 111.437 68.9978Z" stroke="#456C51" stroke-linejoin="round"/>
<path id="Vector_101" d="M124.72 68.0041L124.758 65.0608" stroke="#456C51" stroke-linecap="round" stroke-linejoin="round"/>
<path id="Vector_102" d="M124.758 65.0481C124.758 65.0481 127.123 65.0481 126.783 62.0922C126.71 61.2409 126.42 60.4223 125.943 59.7137C125.465 59.0051 124.815 58.4298 124.054 58.042C124.15 58.614 124.127 59.1997 123.986 59.7625C123.845 60.3252 123.59 60.8528 123.236 61.3123C122.943 61.6212 122.745 62.008 122.667 62.4263C122.588 62.8447 122.631 63.2769 122.792 63.6711C122.953 64.0654 123.224 64.405 123.572 64.6492C123.921 64.8934 124.333 65.0319 124.758 65.0481Z" stroke="#456C51" stroke-linejoin="round"/>
<path id="Vector_103" d="M127.285 68.4822C127.285 69.0482 126.128 69.5136 124.77 69.5136C123.411 69.5136 122.191 69.0482 122.191 68.4822" stroke="#456C51" stroke-linecap="round" stroke-linejoin="round"/>
<path id="Vector_104" d="M114.003 72.2305C114.003 72.8091 112.846 73.2745 111.487 73.2745C110.129 73.2745 108.971 72.8091 108.971 72.2305" stroke="#456C51" stroke-linecap="round" stroke-linejoin="round"/>
</g>
<g id="Group 980">
<path id="Vector_105" d="M270.061 68.998C270.061 68.998 268.25 75.3752 256.401 74.0293C244.553 72.6835 234.566 68.9981 224.956 76.2934" stroke="#456C51" stroke-linecap="round" stroke-linejoin="round"/>
<path id="Vector_106" d="M264.175 69.5139C264.175 69.5139 260.616 72.0296 254.666 70.3944" stroke="#456C51" stroke-linecap="round" stroke-linejoin="round"/>
</g>
<g id="Group 976">
<path id="Vector_107" d="M318.499 159.863C308.663 159.863 297.418 157.121 281.821 146.43C273.33 140.618 265.004 145.952 264.916 146.002C263.016 147.29 260.881 148.19 258.634 148.653C256.386 149.116 254.069 149.131 251.815 148.698C249.562 148.266 247.415 147.393 245.499 146.131C243.582 144.869 241.933 143.241 240.646 141.342C239.358 139.442 238.457 137.308 237.995 135.06C237.532 132.812 237.517 130.495 237.949 128.242C238.823 123.69 241.47 119.672 245.306 117.072C255.658 110.053 279.167 102.255 301.556 117.588C313.706 125.902 317.493 125.348 324.385 124.355C325.643 124.166 326.901 123.977 328.234 123.827C330.527 123.523 332.856 123.677 335.089 124.281C337.321 124.884 339.411 125.925 341.238 127.342C343.065 128.76 344.593 130.526 345.732 132.538C346.871 134.55 347.6 136.769 347.875 139.065C348.151 141.36 347.968 143.688 347.337 145.913C346.706 148.137 345.64 150.215 344.2 152.024C342.761 153.834 340.976 155.339 338.95 156.454C336.924 157.569 334.697 158.27 332.398 158.517L329.429 158.92C325.814 159.506 322.161 159.822 318.499 159.863Z" fill="#C1E1CE"/>
<path id="Vector_108" d="M288.337 217.811C317.874 217.811 341.819 216.668 341.819 215.258C341.819 213.848 317.874 212.704 288.337 212.704C258.799 212.704 234.854 213.848 234.854 215.258C234.854 216.668 258.799 217.811 288.337 217.811Z" fill="#C1E1CE"/>
<path id="Vector_109" d="M285.054 111.739C285.054 111.238 285.153 110.742 285.347 110.28C285.54 109.818 285.824 109.399 286.181 109.048C286.538 108.697 286.962 108.42 287.427 108.234C287.892 108.048 288.389 107.957 288.89 107.965C289.891 107.965 290.851 108.363 291.558 109.071C292.266 109.778 292.664 110.738 292.664 111.739V147.524C292.664 147.524 300.06 151.662 302.034 155.272C304.009 158.882 304.55 161.561 302.462 168.039C300.374 174.517 301.858 176.429 305.041 177.196L319.141 180.605C320.877 181.028 322.375 182.122 323.306 183.647C324.237 185.173 324.526 187.005 324.109 188.743L319.996 205.899C319.847 206.515 319.945 207.164 320.27 207.707C320.594 208.251 321.119 208.645 321.732 208.805C324.147 209.434 327.581 210.792 327.581 213.409H315.204C314.744 213.408 314.289 213.309 313.87 213.117C313.452 212.925 313.08 212.645 312.779 212.297C312.479 211.948 312.256 211.539 312.128 211.097C311.999 210.656 311.967 210.191 312.034 209.736L314.94 190.189L298.588 189.925C298.588 189.925 287.267 191.045 287.657 179.699C287.809 171.662 287.553 163.623 286.89 155.612" stroke="#456C51" stroke-linecap="round" stroke-linejoin="round"/>
<path id="Vector_110" d="M285.053 149.889V120.871C284.999 119.491 284.597 118.147 283.884 116.964C283.172 115.781 282.172 114.797 280.978 114.104" stroke="#456C51" stroke-linecap="round" stroke-linejoin="round"/>
<path id="Vector_111" d="M295.683 175.951L287.796 175.058L255.281 200.352C254.613 200.876 254.126 201.595 253.889 202.41C253.652 203.225 253.677 204.093 253.961 204.893L256.388 211.723C256.56 212.216 256.882 212.643 257.308 212.945C257.734 213.247 258.243 213.409 258.765 213.409H262.916L261.369 204.717C261.369 204.717 277.834 193.724 292.425 188.768" stroke="#456C51" stroke-linecap="round" stroke-linejoin="round"/>
<path id="Vector_112" d="M300.651 131.474C300.651 131.474 298.639 134.329 292.702 135.965" stroke="#456C51" stroke-linecap="round" stroke-linejoin="round"/>
<path id="Vector_113" d="M285.054 125.437C284.207 125.31 283.343 125.475 282.602 125.905C281.862 126.334 281.289 127.003 280.979 127.801C279.47 130.77 279.721 133.436 281.193 134.468C282.383 135.187 283.69 135.694 285.054 135.965" stroke="#456C51" stroke-linecap="round" stroke-linejoin="round"/>
<path id="Vector_114" d="M292.714 127.487C293.342 127.232 294.012 127.1 294.689 127.097C298.802 127.097 302.123 132.028 302.123 138.103C302.123 143.952 299.054 148.731 295.167 149.096" stroke="#456C51" stroke-linecap="round" stroke-linejoin="round"/>
<path id="Vector_115" d="M327.065 145.738L330.071 137.7C330.541 137.787 330.967 138.033 331.277 138.398C331.586 138.762 331.76 139.222 331.769 139.7" stroke="#456C51" stroke-linecap="round" stroke-linejoin="round"/>
<path id="Vector_116" d="M325.329 146.958C326.357 146.958 327.191 146.125 327.191 145.096C327.191 144.068 326.357 143.235 325.329 143.235C324.301 143.235 323.468 144.068 323.468 145.096C323.468 146.125 324.301 146.958 325.329 146.958Z" stroke="#456C51" stroke-linecap="round" stroke-linejoin="round"/>
<path id="Vector_117" d="M255.96 172.655L253.507 164.429C253.93 164.23 254.407 164.178 254.862 164.28C255.318 164.383 255.726 164.634 256.023 164.995" stroke="#456C51" stroke-linecap="round" stroke-linejoin="round"/>
<path id="Vector_118" d="M254.162 175.058C255.19 175.058 256.023 174.224 256.023 173.196C256.023 172.168 255.19 171.334 254.162 171.334C253.134 171.334 252.3 172.168 252.3 173.196C252.3 174.224 253.134 175.058 254.162 175.058Z" stroke="#456C51" stroke-linecap="round" stroke-linejoin="round"/>
<path id="Vector_119" d="M254.023 133.449L250.123 123.751L258.136 120.531L262.035 130.229" stroke="#456C51" stroke-linecap="round" stroke-linejoin="round"/>
<path id="Vector_120" d="M251.91 136.568C253.167 136.568 254.187 135.549 254.187 134.292C254.187 133.034 253.167 132.015 251.91 132.015C250.653 132.015 249.633 133.034 249.633 134.292C249.633 135.549 250.653 136.568 251.91 136.568Z" stroke="#456C51" stroke-linecap="round" stroke-linejoin="round"/>
<path id="Vector_121" d="M259.935 133.348C261.192 133.348 262.211 132.329 262.211 131.072C262.211 129.814 261.192 128.795 259.935 128.795C258.677 128.795 257.658 129.814 257.658 131.072C257.658 132.329 258.677 133.348 259.935 133.348Z" stroke="#456C51" stroke-linecap="round" stroke-linejoin="round"/>
<path id="Vector_122" d="M258.139 120.546L250.12 123.766L251.583 127.408L259.602 124.188L258.139 120.546Z" stroke="#456C51" stroke-linecap="round" stroke-linejoin="round"/>
<path id="Vector_123" d="M281.582 141.122C281.582 141.122 272.363 136.568 263.973 142.379C255.583 148.191 250.665 151.411 241.496 147.876" stroke="#456C51" stroke-linecap="round" stroke-linejoin="round"/>
<path id="Vector_124" d="M307.155 120.682C307.155 120.682 316.626 114.997 323.066 121.625C325.091 123.684 327.597 125.206 330.357 126.054C333.117 126.902 336.046 127.048 338.877 126.481" stroke="#456C51" stroke-linecap="round" stroke-linejoin="round"/>
<path id="Vector_125" d="M327.631 162.291C327.631 162.291 338.021 161.876 343.379 157.8" stroke="#456C51" stroke-linecap="round" stroke-linejoin="round"/>
<path id="Vector_126" d="M260.652 107.626C260.652 107.626 250.3 109.588 244.992 114.217" stroke="#456C51" stroke-linecap="round" stroke-linejoin="round"/>
</g>
<g id="Group 978">
<path id="Vector_127" d="M196.742 86.8966C197.021 85.8705 196.946 84.7801 196.528 83.8023C196.193 82.9832 195.567 82.3167 194.771 81.9313C193.974 81.5458 193.063 81.4685 192.213 81.7143C191.408 82.0504 190.754 82.6697 190.374 83.4553C189.994 84.2408 189.914 85.1383 190.151 85.9783C190.496 87.0066 191.173 87.8913 192.075 88.494L196.742 86.8966Z" fill="#C1E1CE" stroke="#456C51" stroke-linejoin="round"/>
<path id="Vector_128" d="M205.874 92.987L188.146 99.1433L188.888 101.282L206.617 95.1258L205.874 92.987Z" stroke="#456C51" stroke-linecap="round" stroke-linejoin="round"/>
<path id="Vector_129" d="M181.309 92.2675L182.214 94.8586C182.532 95.7482 183.059 96.5485 183.751 97.192C184.443 97.8355 185.279 98.3035 186.189 98.5566L188.113 99.0975L205.836 92.9467L207.019 91.3241C207.582 90.5485 207.95 89.6487 208.092 88.7007C208.235 87.7528 208.147 86.7846 207.836 85.8777L206.93 83.2866L181.309 92.2675Z" stroke="#456C51" stroke-linecap="round" stroke-linejoin="round"/>
<path id="Vector_130" d="M184.491 79.6511C184.76 79.0947 184.31 78.3195 183.485 77.9197C182.66 77.5199 181.772 77.6468 181.503 78.2032C181.233 78.7596 181.683 79.5348 182.509 79.9346C183.334 80.3344 184.221 80.2075 184.491 79.6511Z" stroke="#456C51" stroke-linecap="round" stroke-linejoin="round"/>
<path id="Vector_131" d="M199.574 75.9649C200.019 75.0459 199.878 74.0578 199.259 73.7579C198.64 73.4581 197.778 73.96 197.332 74.879C196.887 75.798 197.028 76.7861 197.647 77.0859C198.266 77.3858 199.128 76.8839 199.574 75.9649Z" stroke="#456C51" stroke-linecap="round" stroke-linejoin="round"/>
<path id="Vector_132" d="M186.881 76.2178C187.395 76.2178 187.812 75.8011 187.812 75.287C187.812 74.7729 187.395 74.3562 186.881 74.3562C186.367 74.3562 185.95 74.7729 185.95 75.287C185.95 75.8011 186.367 76.2178 186.881 76.2178Z" stroke="#456C51" stroke-linecap="round" stroke-linejoin="round"/>
<path id="Vector_133" d="M191.56 72.1299C192.074 72.1299 192.49 71.7132 192.49 71.1991C192.49 70.685 192.074 70.2683 191.56 70.2683C191.046 70.2683 190.629 70.685 190.629 71.1991C190.629 71.7132 191.046 72.1299 191.56 72.1299Z" stroke="#456C51" stroke-linecap="round" stroke-linejoin="round"/>
<path id="Vector_134" d="M187.963 85.9786C187.693 86.079 187.442 86.2235 187.22 86.4062C187.247 85.9058 187.105 85.4109 186.817 85.0008C186.529 84.5906 186.112 84.2889 185.632 84.144C185.152 83.9991 184.638 84.0193 184.171 84.2014C183.704 84.3835 183.312 84.7169 183.057 85.1484L182.856 85.0352C182.32 84.775 181.704 84.7381 181.141 84.9327C180.578 85.1273 180.116 85.5375 179.856 86.0729C179.596 86.6083 179.559 87.2252 179.753 87.7878C179.948 88.3504 180.358 88.8126 180.894 89.0728L181.107 89.1608C180.906 89.6796 180.904 90.2546 181.101 90.7749C181.299 91.2952 181.682 91.7239 182.177 91.9784" stroke="#456C51" stroke-linecap="round" stroke-linejoin="round"/>
<path id="Vector_135" d="M183.032 87.6011L187.912 89.9658" stroke="#456C51" stroke-linecap="round" stroke-linejoin="round"/>
<path id="Vector_136" d="M185.862 88.9596C185.377 88.8505 184.871 88.8839 184.405 89.0557C183.938 89.2275 183.532 89.5305 183.233 89.9281" stroke="#456C51" stroke-linecap="round" stroke-linejoin="round"/>
<path id="Vector_137" d="M187.912 89.9532C187.496 89.6784 187.141 89.3212 186.868 88.9036C186.595 88.4861 186.411 88.0171 186.327 87.5256" stroke="#456C51" stroke-linecap="round" stroke-linejoin="round"/>
<path id="Vector_138" d="M198.151 82.4062C198.322 82.3813 198.496 82.3813 198.667 82.4062C198.339 82.0274 198.148 81.5496 198.124 81.0493C198.1 80.5489 198.244 80.055 198.534 79.6464C198.824 79.2379 199.242 78.9383 199.723 78.7955C200.203 78.6528 200.717 78.6752 201.183 78.8591L201.271 78.6579C201.399 78.3928 201.578 78.1555 201.797 77.9595C202.017 77.7636 202.273 77.6128 202.551 77.5159C202.829 77.419 203.124 77.3777 203.418 77.3945C203.712 77.4113 203.999 77.4859 204.264 77.6139C204.529 77.7419 204.767 77.9209 204.963 78.1406C205.159 78.3603 205.309 78.6165 205.406 78.8945C205.503 79.1725 205.545 79.4668 205.528 79.7608C205.511 80.0547 205.436 80.3424 205.308 80.6075C205.282 80.6782 205.249 80.7457 205.208 80.8088C205.686 81.0911 206.042 81.5408 206.207 82.0707C206.372 82.6006 206.334 83.1729 206.101 83.6766" stroke="#456C51" stroke-linecap="round" stroke-linejoin="round"/>
<path id="Vector_139" d="M202.73 80.7585L200.365 85.6389" stroke="#456C51" stroke-linecap="round" stroke-linejoin="round"/>
<path id="Vector_140" d="M201.359 83.5761C201.673 83.1908 202.092 82.9042 202.564 82.7503C203.037 82.5964 203.544 82.5818 204.025 82.7082" stroke="#456C51" stroke-linecap="round" stroke-linejoin="round"/>
<path id="Vector_141" d="M200.364 85.6387C200.52 85.1619 200.577 84.6583 200.532 84.1587C200.487 83.6591 200.34 83.174 200.1 82.7332" stroke="#456C51" stroke-linecap="round" stroke-linejoin="round"/>
<path id="Vector_142" d="M198.579 86.2551C198.888 85.4058 198.915 84.4792 198.654 83.6137C198.631 83.5114 198.601 83.4106 198.566 83.3118C198.328 82.6383 197.965 82.0154 197.497 81.4754C197.198 81.1576 196.883 80.8553 196.554 80.5697C196.091 80.1965 195.669 79.7748 195.296 79.3119C194.949 78.8687 194.67 78.3771 194.466 77.8528C194.318 77.4239 194.086 77.029 193.783 76.6916C193.48 76.3542 193.112 76.0812 192.702 75.8888C192.291 75.6963 191.846 75.5884 191.392 75.5715C190.939 75.5545 190.487 75.6288 190.063 75.79C189.231 76.1222 188.56 76.7632 188.189 77.579C187.819 78.3948 187.778 79.3222 188.076 80.1672C188.359 81.2901 188.359 82.4657 188.076 83.5885C187.804 84.6964 187.839 85.8573 188.177 86.9469C188.237 87.1414 188.312 87.3307 188.403 87.5129C188.751 88.2253 189.292 88.8264 189.963 89.2487" stroke="#456C51" stroke-linecap="round" stroke-linejoin="round"/>
</g>
<g id="Group 981">
<path id="Vector_143" d="M195.51 110.041C195.51 110.041 191.208 116.984 199.636 120.996C208.44 125.198 220.402 131.499 211.56 144.304" stroke="#456C51" stroke-linecap="round" stroke-linejoin="round"/>
<path id="Vector_144" d="M202.1 105.06C202.1 105.06 195.723 112.607 199.899 115.94" stroke="#456C51" stroke-linecap="round" stroke-linejoin="round"/>
</g>
</g>
<defs>
<linearGradient id="paint0_linear_292_693" x1="85.1732" y1="146.631" x2="90.1164" y2="123.323" gradientUnits="userSpaceOnUse">
<stop stop-color="#C1E1CE" stop-opacity="0"/>
<stop offset="1" stop-color="#C1E1CE"/>
</linearGradient>
</defs>
</svg>
